<?xml version="1.0" encoding="UTF-8" standalone="no"?>
<svg
   viewBox="0 0 793.7007874015749 1122.5196850393702"
   width="793.7007874015749"
   height="1122.5196850393702"
   version="1.1"
   id="svg2760"
   sodipodi:docname="BottomPlateV1 edit.svg"
   inkscape:version="1.2.1 (9c6d41e410, 2022-07-14)"
   xmlns:inkscape="http://www.inkscape.org/namespaces/inkscape"
   xmlns:sodipodi="http://sodipodi.sourceforge.net/DTD/sodipodi-0.dtd"
   xmlns="http://www.w3.org/2000/svg"
   xmlns:svg="http://www.w3.org/2000/svg">
  <sodipodi:namedview
     id="namedview2762"
     pagecolor="#ffffff"
     bordercolor="#666666"
     borderopacity="1.0"
     inkscape:showpageshadow="2"
     inkscape:pageopacity="0.0"
     inkscape:pagecheckerboard="0"
     inkscape:deskcolor="#d1d1d1"
     showgrid="false"
     inkscape:zoom="0.66331439"
     inkscape:cx="1669.6457"
     inkscape:cy="-21.10613"
     inkscape:window-width="2560"
     inkscape:window-height="1377"
     inkscape:window-x="1072"
     inkscape:window-y="-8"
     inkscape:window-maximized="1"
     inkscape:current-layer="g2758" />
  <desc
     id="desc2596">BottomPlateV1.dxf - scale = 1.000000, origin = (0.000000, 0.000000), method = manual</desc>
  <defs
     id="defs2610">
    <marker
       id="DistanceX"
       orient="auto"
       refX="0.0"
       refY="0.0"
       style="overflow:visible">
      <path
         d="M 3,-3 L -3,3 M 0,-5 L  0,5"
         style="stroke:#000000; stroke-width:0.5"
         id="path2598" />
    </marker>
    <pattern
       id="Hatch"
       patternUnits="userSpaceOnUse"
       width="8"
       height="8"
       x="0"
       y="0">
      <path
         d="M8 4 l-4,4"
         stroke="#000000"
         stroke-width="0.25"
         linecap="square"
         id="path2601" />
      <path
         d="M6 2 l-4,4"
         stroke="#000000"
         stroke-width="0.25"
         linecap="square"
         id="path2603" />
      <path
         d="M4 0 l-4,4"
         stroke="#000000"
         stroke-width="0.25"
         linecap="square"
         id="path2605" />
    </pattern>
    <symbol
       id="*MODEL_SPACE" />
    <symbol
       id="*PAPER_SPACE" />
  </defs>
  <g
     inkscape:groupmode="layer"
     inkscape:label="0"
     id="g2612" />
  <g
     inkscape:groupmode="layer"
     inkscape:label="ProjItem002"
     id="g2758">
    <path
       style="fill:none;stroke:#000000"
       d="M 896.504 -76.1272 L 896.504 750.992"
       id="path2614" />
    <path
       style="fill:none;stroke:#000000"
       d="M 896.504 -809.953 L 896.504 -76.1272"
       id="path2616" />
    <path
       style="fill:none;stroke:#000000"
       d="M 896.504 750.992 L 990.992 750.992"
       id="path2618" />
    <path
       style="fill:none;stroke:#000000"
       d="M 990.992 -809.953 L 896.504 -809.953"
       id="path2620" />
    <path
       style="fill:none;stroke:#000000"
       d="M 990.992 750.992 L 990.992 845.48"
       id="path2622" />
    <path
       style="fill:none;stroke:#000000"
       d="M 990.992 -904.441 L 990.992 -809.953"
       id="path2624" />
    <path
       style="fill:none;stroke:#000000"
       d="M 990.992 845.48 L 2465.01 845.48"
       id="path2626" />
    <path
       style="fill:none;stroke:#000000"
       d="M 2465.01 -904.441 L 990.992 -904.441"
       id="path2628" />
    <path
       style="fill:none;stroke:#000000"
       d="M 2465.01 845.48 L 2465.01 750.992"
       id="path2630" />
    <path
       style="fill:none;stroke:#000000"
       d="M 2465.01 -809.953 L 2465.01 -904.441"
       id="path2632" />
    <path
       style="fill:none;stroke:#000000"
       d="M 2465.01 750.992 L 2559.5 750.992"
       id="path2634" />
    <path
       style="fill:none;stroke:#000000"
       d="M 2559.5 -809.953 L 2465.01 -809.953"
       id="path2636" />
    <path
       style="fill:none;stroke:#000000"
       d="M 2559.5 750.992 L 2559.5 -809.953"
       id="path2638" />
    <path
       d="M 944.163780,618.708661 A 9.864567,9.864567 0.000000 0, 0 924.434646,618.708661 A 9.864567,9.864567 0.000000 0, 0 944.163780,618.708661 z"
       style="fill:none;stroke:#000000"
       id="path2640" />
    <path
       d="M 1085.896063,641.385827 A 9.864567,9.864567 0.000000 0, 0 1066.166929,641.385827 A 9.864567,9.864567 0.000000 0, 0 1085.896063,641.385827 z"
       style="fill:none;stroke:#000000"
       id="path2642" />
    <path
       d="M 1170.935433,807.685039 A 9.864567,9.864567 0.000000 0, 0 1151.206299,807.685039 A 9.864567,9.864567 0.000000 0, 0 1170.935433,807.685039 z"
       style="fill:none;stroke:#000000"
       id="path2644" />
    <path
       d="M 1180.384252,641.385827 A 9.864567,9.864567 0.000000 0, 0 1160.655118,641.385827 A 9.864567,9.864567 0.000000 0, 0 1180.384252,641.385827 z"
       style="fill:none;stroke:#000000"
       id="path2646" />
    <path
       d="M 1287.469606,641.385827 A 9.864567,9.864567 0.000000 0, 0 1267.740472,641.385827 A 9.864567,9.864567 0.000000 0, 0 1287.469606,641.385827 z"
       style="fill:none;stroke:#000000"
       id="path2648" />
    <path
       d="M 944.163780,429.732283 A 9.864567,9.864567 0.000000 0, 0 924.434646,429.732283 A 9.864567,9.864567 0.000000 0, 0 944.163780,429.732283 z"
       style="fill:none;stroke:#000000"
       id="path2650" />
    <path
       d="M 1359.911811,807.685039 A 9.864567,9.864567 0.000000 0, 0 1340.182677,807.685039 A 9.864567,9.864567 0.000000 0, 0 1359.911811,807.685039 z"
       style="fill:none;stroke:#000000"
       id="path2652" />
    <path
       d="M 1381.957795,641.385827 A 9.864567,9.864567 0.000000 0, 0 1362.228661,641.385827 A 9.864567,9.864567 0.000000 0, 0 1381.957795,641.385827 z"
       style="fill:none;stroke:#000000"
       id="path2654" />
    <path
       d="M 1489.046929,641.385827 A 9.864567,9.864567 0.000000 0, 0 1469.317795,641.385827 A 9.864567,9.864567 0.000000 0, 0 1489.046929,641.385827 z"
       style="fill:none;stroke:#000000"
       id="path2656" />
    <path
       d="M 1548.888189,807.685039 A 9.864567,9.864567 0.000000 0, 0 1529.159055,807.685039 A 9.864567,9.864567 0.000000 0, 0 1548.888189,807.685039 z"
       style="fill:none;stroke:#000000"
       id="path2658" />
    <path
       d="M 1583.535118,641.385827 A 9.864567,9.864567 0.000000 0, 0 1563.805984,641.385827 A 9.864567,9.864567 0.000000 0, 0 1583.535118,641.385827 z"
       style="fill:none;stroke:#000000"
       id="path2660" />
    <path
       d="M 1690.620472,641.385827 A 9.864567,9.864567 0.000000 0, 0 1670.891339,641.385827 A 9.864567,9.864567 0.000000 0, 0 1690.620472,641.385827 z"
       style="fill:none;stroke:#000000"
       id="path2662" />
    <path
       d="M 944.163780,240.755906 A 9.864567,9.864567 0.000000 0, 0 924.434646,240.755906 A 9.864567,9.864567 0.000000 0, 0 944.163780,240.755906 z"
       style="fill:none;stroke:#000000"
       id="path2664" />
    <path
       d="M 944.163780,51.779528 A 9.864567,9.864567 0.000000 0, 0 924.434646,51.779528 A 9.864567,9.864567 0.000000 0, 0 944.163780,51.779528 z"
       style="fill:none;stroke:#000000"
       id="path2666" />
    <path
       d="M 1737.864567,807.685039 A 9.864567,9.864567 0.000000 0, 0 1718.135433,807.685039 A 9.864567,9.864567 0.000000 0, 0 1737.864567,807.685039 z"
       style="fill:none;stroke:#000000"
       id="path2668" />
    <path
       d="M 1926.840945,807.685039 A 9.864567,9.864567 0.000000 0, 0 1907.111811,807.685039 A 9.864567,9.864567 0.000000 0, 0 1926.840945,807.685039 z"
       style="fill:none;stroke:#000000"
       id="path2670" />
    <path
       d="M 1785.108661,641.385827 A 9.864567,9.864567 0.000000 0, 0 1765.379528,641.385827 A 9.864567,9.864567 0.000000 0, 0 1785.108661,641.385827 z"
       style="fill:none;stroke:#000000"
       id="path2672" />
    <path
       d="M 1735.632000,618.708661 A 7.632000,7.632000 0.000000 0, 0 1720.368000,618.708661 A 7.632000,7.632000 0.000000 0, 0 1735.632000,618.708661 z"
       style="fill:none;stroke:#000000"
       id="path2674" />
    <path
       d="M 1892.194016,641.385827 A 9.864567,9.864567 0.000000 0, 0 1872.464882,641.385827 A 9.864567,9.864567 0.000000 0, 0 1892.194016,641.385827 z"
       style="fill:none;stroke:#000000"
       id="path2676" />
    <path
       d="M 2115.817323,807.685039 A 9.864567,9.864567 0.000000 0, 0 2096.088189,807.685039 A 9.864567,9.864567 0.000000 0, 0 2115.817323,807.685039 z"
       style="fill:none;stroke:#000000"
       id="path2678" />
    <path
       d="M 1986.682205,641.385827 A 9.864567,9.864567 0.000000 0, 0 1966.953071,641.385827 A 9.864567,9.864567 0.000000 0, 0 1986.682205,641.385827 z"
       style="fill:none;stroke:#000000"
       id="path2680" />
    <path
       d="M 2093.771339,641.385827 A 9.864567,9.864567 0.000000 0, 0 2074.042205,641.385827 A 9.864567,9.864567 0.000000 0, 0 2093.771339,641.385827 z"
       style="fill:none;stroke:#000000"
       id="path2682" />
    <path
       d="M 1735.632000,429.732283 A 7.632000,7.632000 0.000000 0, 0 1720.368000,429.732283 A 7.632000,7.632000 0.000000 0, 0 1735.632000,429.732283 z"
       style="fill:none;stroke:#000000"
       id="path2684" />
    <path
       d="M 2304.793701,807.685039 A 9.864567,9.864567 0.000000 0, 0 2285.064567,807.685039 A 9.864567,9.864567 0.000000 0, 0 2304.793701,807.685039 z"
       style="fill:none;stroke:#000000"
       id="path2686" />
    <path
       d="M 2188.259528,641.385827 A 9.864567,9.864567 0.000000 0, 0 2168.530394,641.385827 A 9.864567,9.864567 0.000000 0, 0 2188.259528,641.385827 z"
       style="fill:none;stroke:#000000"
       id="path2688" />
    <path
       d="M 2295.344882,641.385827 A 9.864567,9.864567 0.000000 0, 0 2275.615748,641.385827 A 9.864567,9.864567 0.000000 0, 0 2295.344882,641.385827 z"
       style="fill:none;stroke:#000000"
       id="path2690" />
    <path
       d="M 2389.833071,641.385827 A 9.864567,9.864567 0.000000 0, 0 2370.103937,641.385827 A 9.864567,9.864567 0.000000 0, 0 2389.833071,641.385827 z"
       style="fill:none;stroke:#000000"
       id="path2692" />
    <path
       d="M 2531.565354,618.708661 A 9.864567,9.864567 0.000000 0, 0 2511.836220,618.708661 A 9.864567,9.864567 0.000000 0, 0 2531.565354,618.708661 z"
       style="fill:none;stroke:#000000"
       id="path2694" />
    <path
       d="M 2531.565354,429.732283 A 9.864567,9.864567 0.000000 0, 0 2511.836220,429.732283 A 9.864567,9.864567 0.000000 0, 0 2531.565354,429.732283 z"
       style="fill:none;stroke:#000000"
       id="path2696" />
    <path
       d="M 1735.632000,240.755906 A 7.632000,7.632000 0.000000 0, 0 1720.368000,240.755906 A 7.632000,7.632000 0.000000 0, 0 1735.632000,240.755906 z"
       style="fill:none;stroke:#000000"
       id="path2698" />
    <path
       d="M 1735.632000,51.779528 A 7.632000,7.632000 0.000000 0, 0 1720.368000,51.779528 A 7.632000,7.632000 0.000000 0, 0 1735.632000,51.779528 z"
       style="fill:none;stroke:#000000"
       id="path2700" />
    <path
       d="M 2531.565354,240.755906 A 9.864567,9.864567 0.000000 0, 0 2511.836220,240.755906 A 9.864567,9.864567 0.000000 0, 0 2531.565354,240.755906 z"
       style="fill:none;stroke:#000000"
       id="path2702" />
    <path
       d="M 2531.565354,51.779528 A 9.864567,9.864567 0.000000 0, 0 2511.836220,51.779528 A 9.864567,9.864567 0.000000 0, 0 2531.565354,51.779528 z"
       style="fill:none;stroke:#000000"
       id="path2704" />
    <path
       d="M 944.163780,-137.196850 A 9.864567,9.864567 0.000000 0, 0 924.434646,-137.196850 A 9.864567,9.864567 0.000000 0, 0 944.163780,-137.196850 z"
       style="fill:none;stroke:#000000"
       id="path2706" />
    <path
       d="M 1133.140157,-193.889764 A 9.864567,9.864567 0.000000 0, 0 1113.411024,-193.889764 A 9.864567,9.864567 0.000000 0, 0 1133.140157,-193.889764 z"
       style="fill:none;stroke:#000000"
       id="path2708" />
    <path
       d="M 1334.713701,-193.889764 A 9.864567,9.864567 0.000000 0, 0 1314.984567,-193.889764 A 9.864567,9.864567 0.000000 0, 0 1334.713701,-193.889764 z"
       style="fill:none;stroke:#000000"
       id="path2710" />
    <path
       d="M 944.163780,-326.173228 A 9.864567,9.864567 0.000000 0, 0 924.434646,-326.173228 A 9.864567,9.864567 0.000000 0, 0 944.163780,-326.173228 z"
       style="fill:none;stroke:#000000"
       id="path2712" />
    <path
       d="M 1536.291024,-193.889764 A 9.864567,9.864567 0.000000 0, 0 1516.561890,-193.889764 A 9.864567,9.864567 0.000000 0, 0 1536.291024,-193.889764 z"
       style="fill:none;stroke:#000000"
       id="path2714" />
    <path
       d="M 944.163780,-515.149606 A 9.864567,9.864567 0.000000 0, 0 924.434646,-515.149606 A 9.864567,9.864567 0.000000 0, 0 944.163780,-515.149606 z"
       style="fill:none;stroke:#000000"
       id="path2716" />
    <path
       d="M 944.163780,-704.125984 A 9.864567,9.864567 0.000000 0, 0 924.434646,-704.125984 A 9.864567,9.864567 0.000000 0, 0 944.163780,-704.125984 z"
       style="fill:none;stroke:#000000"
       id="path2718" />
    <path
       d="M 1170.935433,-866.645669 A 9.864567,9.864567 0.000000 0, 0 1151.206299,-866.645669 A 9.864567,9.864567 0.000000 0, 0 1170.935433,-866.645669 z"
       style="fill:none;stroke:#000000"
       id="path2720" />
    <path
       d="M 1359.911811,-866.645669 A 9.864567,9.864567 0.000000 0, 0 1340.182677,-866.645669 A 9.864567,9.864567 0.000000 0, 0 1359.911811,-866.645669 z"
       style="fill:none;stroke:#000000"
       id="path2722" />
    <path
       d="M 1548.888189,-866.645669 A 9.864567,9.864567 0.000000 0, 0 1529.159055,-866.645669 A 9.864567,9.864567 0.000000 0, 0 1548.888189,-866.645669 z"
       style="fill:none;stroke:#000000"
       id="path2724" />
    <path
       d="M 1735.632000,-137.196850 A 7.632000,7.632000 0.000000 0, 0 1720.368000,-137.196850 A 7.632000,7.632000 0.000000 0, 0 1735.632000,-137.196850 z"
       style="fill:none;stroke:#000000"
       id="path2726" />
    <path
       d="M 1737.864567,-193.889764 A 9.864567,9.864567 0.000000 0, 0 1718.135433,-193.889764 A 9.864567,9.864567 0.000000 0, 0 1737.864567,-193.889764 z"
       style="fill:none;stroke:#000000"
       id="path2728" />
    <path
       d="m 2105.3687,466.94332 a 53.958,53.958 0 0 0 -107.916,0 53.958,53.958 0 0 0 107.916,0 z"
       style="fill:none;stroke:#000000;stroke-width:5.46986"
       id="path2728-1" />
    <path
       d="m 1492.19,462.82729 a 53.958,53.958 0 0 0 -107.916,0 53.958,53.958 0 0 0 107.916,0 z"
       style="fill:none;stroke:#000000;stroke-width:5.46986"
       id="path2728-1-5" />
    <path
       d="M 1939.438110,-193.889764 A 9.864567,9.864567 0.000000 0, 0 1919.708976,-193.889764 A 9.864567,9.864567 0.000000 0, 0 1939.438110,-193.889764 z"
       style="fill:none;stroke:#000000"
       id="path2730" />
    <path
       d="M 1735.632000,-326.173228 A 7.632000,7.632000 0.000000 0, 0 1720.368000,-326.173228 A 7.632000,7.632000 0.000000 0, 0 1735.632000,-326.173228 z"
       style="fill:none;stroke:#000000"
       id="path2732" />
    <path
       d="M 2141.015433,-193.889764 A 9.864567,9.864567 0.000000 0, 0 2121.286299,-193.889764 A 9.864567,9.864567 0.000000 0, 0 2141.015433,-193.889764 z"
       style="fill:none;stroke:#000000"
       id="path2734" />
    <path
       d="M 2342.588976,-193.889764 A 9.864567,9.864567 0.000000 0, 0 2322.859843,-193.889764 A 9.864567,9.864567 0.000000 0, 0 2342.588976,-193.889764 z"
       style="fill:none;stroke:#000000"
       id="path2736" />
    <path
       d="M 2531.565354,-137.196850 A 9.864567,9.864567 0.000000 0, 0 2511.836220,-137.196850 A 9.864567,9.864567 0.000000 0, 0 2531.565354,-137.196850 z"
       style="fill:none;stroke:#000000"
       id="path2738" />
    <path
       d="M 2531.565354,-326.173228 A 9.864567,9.864567 0.000000 0, 0 2511.836220,-326.173228 A 9.864567,9.864567 0.000000 0, 0 2531.565354,-326.173228 z"
       style="fill:none;stroke:#000000"
       id="path2740" />
    <path
       d="M 1735.632000,-515.149606 A 7.632000,7.632000 0.000000 0, 0 1720.368000,-515.149606 A 7.632000,7.632000 0.000000 0, 0 1735.632000,-515.149606 z"
       style="fill:none;stroke:#000000"
       id="path2742" />
    <path
       d="M 1735.632000,-704.125984 A 7.632000,7.632000 0.000000 0, 0 1720.368000,-704.125984 A 7.632000,7.632000 0.000000 0, 0 1735.632000,-704.125984 z"
       style="fill:none;stroke:#000000"
       id="path2744" />
    <path
       d="M 1737.864567,-866.645669 A 9.864567,9.864567 0.000000 0, 0 1718.135433,-866.645669 A 9.864567,9.864567 0.000000 0, 0 1737.864567,-866.645669 z"
       style="fill:none;stroke:#000000"
       id="path2746" />
    <path
       d="M 1926.840945,-866.645669 A 9.864567,9.864567 0.000000 0, 0 1907.111811,-866.645669 A 9.864567,9.864567 0.000000 0, 0 1926.840945,-866.645669 z"
       style="fill:none;stroke:#000000"
       id="path2748" />
    <path
       d="M 2115.817323,-866.645669 A 9.864567,9.864567 0.000000 0, 0 2096.088189,-866.645669 A 9.864567,9.864567 0.000000 0, 0 2115.817323,-866.645669 z"
       style="fill:none;stroke:#000000"
       id="path2750" />
    <path
       d="M 2531.565354,-515.149606 A 9.864567,9.864567 0.000000 0, 0 2511.836220,-515.149606 A 9.864567,9.864567 0.000000 0, 0 2531.565354,-515.149606 z"
       style="fill:none;stroke:#000000"
       id="path2752" />
    <path
       d="M 2304.793701,-866.645669 A 9.864567,9.864567 0.000000 0, 0 2285.064567,-866.645669 A 9.864567,9.864567 0.000000 0, 0 2304.793701,-866.645669 z"
       style="fill:none;stroke:#000000"
       id="path2754" />
    <path
       d="M 2531.565354,-704.125984 A 9.864567,9.864567 0.000000 0, 0 2511.836220,-704.125984 A 9.864567,9.864567 0.000000 0, 0 2531.565354,-704.125984 z"
       style="fill:none;stroke:#000000"
       id="path2756" />
  </g>
</svg>
