999
"DXF R12 Output" (www.mydxf.blogspot.com)
 0 
SECTION
 2 
HEADER
 9 
$ACADVER
 1 
AC1009
 9 
$EXTMIN
 10 
 0 
 20 
 0 
 9 
$EXTMAX
 10 
 8.5 
 20 
 11 
 0 
ENDSEC
 0 
SECTION
 2 
ENTITIES
0
LINE
8
Layer 1
10
0.793749
20
297.794000
11
-0.793749
21
296.206000
0
LINE
8
Layer 1
10
0.000000
20
298.323000
11
0.000000
21
295.677000
0
LINE
8
Layer 1
10
2.116660
20
295.942000
11
1.058330
21
294.883670
0
LINE
8
Layer 1
10
1.587500
20
296.471000
11
0.529170
21
295.412670
0
LINE
8
Layer 1
10
1.058330
20
297.000000
11
0.000000
21
295.941670
0
LINE
8
ProjItem002
10
237.200000
20
317.142000
11
237.200000
21
98.300300
0
LINE
8
ProjItem002
10
237.200000
20
511.300000
11
237.200000
21
317.142000
0
LINE
8
ProjItem002
10
237.200000
20
98.300300
11
262.200000
21
98.300300
0
LINE
8
ProjItem002
10
262.200000
20
511.300000
11
237.200000
21
511.300000
0
LINE
8
ProjItem002
10
262.200000
20
98.300300
11
262.200000
21
73.300400
0
LINE
8
ProjItem002
10
262.200000
20
536.300000
11
262.200000
21
511.300000
0
LINE
8
ProjItem002
10
262.200000
20
73.300400
11
652.200000
21
73.300400
0
LINE
8
ProjItem002
10
652.200000
20
536.300000
11
262.200000
21
536.300000
0
LINE
8
ProjItem002
10
652.200000
20
73.300400
11
652.200000
21
98.300300
0
LINE
8
ProjItem002
10
652.200000
20
511.300000
11
652.200000
21
536.300000
0
LINE
8
ProjItem002
10
652.200000
20
98.300300
11
677.200000
21
98.300300
0
LINE
8
ProjItem002
10
677.200000
20
511.300000
11
652.200000
21
511.300000
0
LINE
8
ProjItem002
10
677.200000
20
98.300300
11
677.200000
21
511.300000
0
LINE
8
ProjItem002
10
249.810000
20
133.300000
11
249.719654
21
133.980995
0
LINE
8
ProjItem002
10
249.719654
20
133.980995
11
249.460326
21
134.605000
0
LINE
8
ProjItem002
10
249.460326
20
134.605000
11
249.049586
21
135.141587
0
LINE
8
ProjItem002
10
249.049586
20
135.141587
11
248.505000
21
135.560326
0
LINE
8
ProjItem002
10
248.505000
20
135.560326
11
247.870068
21
135.822582
0
LINE
8
ProjItem002
10
247.870068
20
135.822582
11
247.200000
21
135.910000
0
LINE
8
ProjItem002
10
247.200000
20
135.910000
11
246.529932
21
135.822582
0
LINE
8
ProjItem002
10
246.529932
20
135.822582
11
245.895000
21
135.560326
0
LINE
8
ProjItem002
10
245.895000
20
135.560326
11
245.350414
21
135.141587
0
LINE
8
ProjItem002
10
245.350414
20
135.141587
11
244.939674
21
134.605000
0
LINE
8
ProjItem002
10
244.939674
20
134.605000
11
244.680346
21
133.980995
0
LINE
8
ProjItem002
10
244.680346
20
133.980995
11
244.590000
21
133.300000
0
LINE
8
ProjItem002
10
244.590000
20
133.300000
11
244.680346
21
132.619005
0
LINE
8
ProjItem002
10
244.680346
20
132.619005
11
244.939674
21
131.995000
0
LINE
8
ProjItem002
10
244.939674
20
131.995000
11
245.350414
21
131.458413
0
LINE
8
ProjItem002
10
245.350414
20
131.458413
11
245.895000
21
131.039674
0
LINE
8
ProjItem002
10
245.895000
20
131.039674
11
246.529932
21
130.777418
0
LINE
8
ProjItem002
10
246.529932
20
130.777418
11
247.200000
21
130.690000
0
LINE
8
ProjItem002
10
247.200000
20
130.690000
11
247.870068
21
130.777418
0
LINE
8
ProjItem002
10
247.870068
20
130.777418
11
248.505000
21
131.039674
0
LINE
8
ProjItem002
10
248.505000
20
131.039674
11
249.049586
21
131.458413
0
LINE
8
ProjItem002
10
249.049586
20
131.458413
11
249.460326
21
131.995000
0
LINE
8
ProjItem002
10
249.460326
20
131.995000
11
249.719654
21
132.619005
0
LINE
8
ProjItem002
10
249.719654
20
132.619005
11
249.810000
21
133.300000
0
LINE
8
ProjItem002
10
249.810000
20
133.300000
11
249.810000
21
133.300000
0
LINE
8
ProjItem002
10
287.310000
20
127.300000
11
287.219654
21
127.980995
0
LINE
8
ProjItem002
10
287.219654
20
127.980995
11
286.960326
21
128.605000
0
LINE
8
ProjItem002
10
286.960326
20
128.605000
11
286.549586
21
129.141587
0
LINE
8
ProjItem002
10
286.549586
20
129.141587
11
286.005000
21
129.560326
0
LINE
8
ProjItem002
10
286.005000
20
129.560326
11
285.370068
21
129.822582
0
LINE
8
ProjItem002
10
285.370068
20
129.822582
11
284.700000
21
129.910000
0
LINE
8
ProjItem002
10
284.700000
20
129.910000
11
284.029932
21
129.822582
0
LINE
8
ProjItem002
10
284.029932
20
129.822582
11
283.395000
21
129.560326
0
LINE
8
ProjItem002
10
283.395000
20
129.560326
11
282.850414
21
129.141587
0
LINE
8
ProjItem002
10
282.850414
20
129.141587
11
282.439674
21
128.605000
0
LINE
8
ProjItem002
10
282.439674
20
128.605000
11
282.180346
21
127.980995
0
LINE
8
ProjItem002
10
282.180346
20
127.980995
11
282.090000
21
127.300000
0
LINE
8
ProjItem002
10
282.090000
20
127.300000
11
282.180346
21
126.619005
0
LINE
8
ProjItem002
10
282.180346
20
126.619005
11
282.439674
21
125.995000
0
LINE
8
ProjItem002
10
282.439674
20
125.995000
11
282.850414
21
125.458413
0
LINE
8
ProjItem002
10
282.850414
20
125.458413
11
283.395000
21
125.039674
0
LINE
8
ProjItem002
10
283.395000
20
125.039674
11
284.029932
21
124.777418
0
LINE
8
ProjItem002
10
284.029932
20
124.777418
11
284.700000
21
124.690000
0
LINE
8
ProjItem002
10
284.700000
20
124.690000
11
285.370068
21
124.777418
0
LINE
8
ProjItem002
10
285.370068
20
124.777418
11
286.005000
21
125.039674
0
LINE
8
ProjItem002
10
286.005000
20
125.039674
11
286.549586
21
125.458413
0
LINE
8
ProjItem002
10
286.549586
20
125.458413
11
286.960326
21
125.995000
0
LINE
8
ProjItem002
10
286.960326
20
125.995000
11
287.219654
21
126.619005
0
LINE
8
ProjItem002
10
287.219654
20
126.619005
11
287.310000
21
127.300000
0
LINE
8
ProjItem002
10
287.310000
20
127.300000
11
287.310000
21
127.300000
0
LINE
8
ProjItem002
10
309.810000
20
83.300300
11
309.719654
21
83.981295
0
LINE
8
ProjItem002
10
309.719654
20
83.981295
11
309.460326
21
84.605300
0
LINE
8
ProjItem002
10
309.460326
20
84.605300
11
309.049586
21
85.141887
0
LINE
8
ProjItem002
10
309.049586
20
85.141887
11
308.505000
21
85.560626
0
LINE
8
ProjItem002
10
308.505000
20
85.560626
11
307.870068
21
85.822882
0
LINE
8
ProjItem002
10
307.870068
20
85.822882
11
307.200000
21
85.910300
0
LINE
8
ProjItem002
10
307.200000
20
85.910300
11
306.529932
21
85.822882
0
LINE
8
ProjItem002
10
306.529932
20
85.822882
11
305.895000
21
85.560626
0
LINE
8
ProjItem002
10
305.895000
20
85.560626
11
305.350414
21
85.141887
0
LINE
8
ProjItem002
10
305.350414
20
85.141887
11
304.939674
21
84.605300
0
LINE
8
ProjItem002
10
304.939674
20
84.605300
11
304.680346
21
83.981295
0
LINE
8
ProjItem002
10
304.680346
20
83.981295
11
304.590000
21
83.300300
0
LINE
8
ProjItem002
10
304.590000
20
83.300300
11
304.680346
21
82.619305
0
LINE
8
ProjItem002
10
304.680346
20
82.619305
11
304.939674
21
81.995300
0
LINE
8
ProjItem002
10
304.939674
20
81.995300
11
305.350414
21
81.458713
0
LINE
8
ProjItem002
10
305.350414
20
81.458713
11
305.895000
21
81.039974
0
LINE
8
ProjItem002
10
305.895000
20
81.039974
11
306.529932
21
80.777718
0
LINE
8
ProjItem002
10
306.529932
20
80.777718
11
307.200000
21
80.690300
0
LINE
8
ProjItem002
10
307.200000
20
80.690300
11
307.870068
21
80.777718
0
LINE
8
ProjItem002
10
307.870068
20
80.777718
11
308.505000
21
81.039974
0
LINE
8
ProjItem002
10
308.505000
20
81.039974
11
309.049586
21
81.458713
0
LINE
8
ProjItem002
10
309.049586
20
81.458713
11
309.460326
21
81.995300
0
LINE
8
ProjItem002
10
309.460326
20
81.995300
11
309.719654
21
82.619305
0
LINE
8
ProjItem002
10
309.719654
20
82.619305
11
309.810000
21
83.300300
0
LINE
8
ProjItem002
10
309.810000
20
83.300300
11
309.810000
21
83.300300
0
LINE
8
ProjItem002
10
312.310000
20
127.300000
11
312.219654
21
127.980995
0
LINE
8
ProjItem002
10
312.219654
20
127.980995
11
311.960326
21
128.605000
0
LINE
8
ProjItem002
10
311.960326
20
128.605000
11
311.549586
21
129.141587
0
LINE
8
ProjItem002
10
311.549586
20
129.141587
11
311.005000
21
129.560326
0
LINE
8
ProjItem002
10
311.005000
20
129.560326
11
310.370068
21
129.822582
0
LINE
8
ProjItem002
10
310.370068
20
129.822582
11
309.700000
21
129.910000
0
LINE
8
ProjItem002
10
309.700000
20
129.910000
11
309.029932
21
129.822582
0
LINE
8
ProjItem002
10
309.029932
20
129.822582
11
308.395000
21
129.560326
0
LINE
8
ProjItem002
10
308.395000
20
129.560326
11
307.850414
21
129.141587
0
LINE
8
ProjItem002
10
307.850414
20
129.141587
11
307.439674
21
128.605000
0
LINE
8
ProjItem002
10
307.439674
20
128.605000
11
307.180346
21
127.980995
0
LINE
8
ProjItem002
10
307.180346
20
127.980995
11
307.090000
21
127.300000
0
LINE
8
ProjItem002
10
307.090000
20
127.300000
11
307.180346
21
126.619005
0
LINE
8
ProjItem002
10
307.180346
20
126.619005
11
307.439674
21
125.995000
0
LINE
8
ProjItem002
10
307.439674
20
125.995000
11
307.850414
21
125.458413
0
LINE
8
ProjItem002
10
307.850414
20
125.458413
11
308.395000
21
125.039674
0
LINE
8
ProjItem002
10
308.395000
20
125.039674
11
309.029932
21
124.777418
0
LINE
8
ProjItem002
10
309.029932
20
124.777418
11
309.700000
21
124.690000
0
LINE
8
ProjItem002
10
309.700000
20
124.690000
11
310.370068
21
124.777418
0
LINE
8
ProjItem002
10
310.370068
20
124.777418
11
311.005000
21
125.039674
0
LINE
8
ProjItem002
10
311.005000
20
125.039674
11
311.549586
21
125.458413
0
LINE
8
ProjItem002
10
311.549586
20
125.458413
11
311.960326
21
125.995000
0
LINE
8
ProjItem002
10
311.960326
20
125.995000
11
312.219654
21
126.619005
0
LINE
8
ProjItem002
10
312.219654
20
126.619005
11
312.310000
21
127.300000
0
LINE
8
ProjItem002
10
312.310000
20
127.300000
11
312.310000
21
127.300000
0
LINE
8
ProjItem002
10
340.643000
20
127.300000
11
340.437893
21
128.315930
0
LINE
8
ProjItem002
10
340.437893
20
128.315930
11
339.878549
21
129.145548
0
LINE
8
ProjItem002
10
339.878549
20
129.145548
11
339.048930
21
129.704893
0
LINE
8
ProjItem002
10
339.048930
20
129.704893
11
338.033000
21
129.910000
0
LINE
8
ProjItem002
10
338.033000
20
129.910000
11
337.017070
21
129.704893
0
LINE
8
ProjItem002
10
337.017070
20
129.704893
11
336.187451
21
129.145548
0
LINE
8
ProjItem002
10
336.187451
20
129.145548
11
335.628107
21
128.315930
0
LINE
8
ProjItem002
10
335.628107
20
128.315930
11
335.423000
21
127.300000
0
LINE
8
ProjItem002
10
335.423000
20
127.300000
11
335.628107
21
126.284070
0
LINE
8
ProjItem002
10
335.628107
20
126.284070
11
336.187451
21
125.454452
0
LINE
8
ProjItem002
10
336.187451
20
125.454452
11
337.017070
21
124.895107
0
LINE
8
ProjItem002
10
337.017070
20
124.895107
11
338.033000
21
124.690000
0
LINE
8
ProjItem002
10
338.033000
20
124.690000
11
339.048930
21
124.895107
0
LINE
8
ProjItem002
10
339.048930
20
124.895107
11
339.878549
21
125.454452
0
LINE
8
ProjItem002
10
339.878549
20
125.454452
11
340.437893
21
126.284070
0
LINE
8
ProjItem002
10
340.437893
20
126.284070
11
340.643000
21
127.300000
0
LINE
8
ProjItem002
10
340.643000
20
127.300000
11
340.643000
21
127.300000
0
LINE
8
ProjItem002
10
249.810000
20
183.300000
11
249.719654
21
183.980995
0
LINE
8
ProjItem002
10
249.719654
20
183.980995
11
249.460326
21
184.605000
0
LINE
8
ProjItem002
10
249.460326
20
184.605000
11
249.049586
21
185.141587
0
LINE
8
ProjItem002
10
249.049586
20
185.141587
11
248.505000
21
185.560326
0
LINE
8
ProjItem002
10
248.505000
20
185.560326
11
247.870068
21
185.822582
0
LINE
8
ProjItem002
10
247.870068
20
185.822582
11
247.200000
21
185.910000
0
LINE
8
ProjItem002
10
247.200000
20
185.910000
11
246.529932
21
185.822582
0
LINE
8
ProjItem002
10
246.529932
20
185.822582
11
245.895000
21
185.560326
0
LINE
8
ProjItem002
10
245.895000
20
185.560326
11
245.350414
21
185.141587
0
LINE
8
ProjItem002
10
245.350414
20
185.141587
11
244.939674
21
184.605000
0
LINE
8
ProjItem002
10
244.939674
20
184.605000
11
244.680346
21
183.980995
0
LINE
8
ProjItem002
10
244.680346
20
183.980995
11
244.590000
21
183.300000
0
LINE
8
ProjItem002
10
244.590000
20
183.300000
11
244.680346
21
182.619005
0
LINE
8
ProjItem002
10
244.680346
20
182.619005
11
244.939674
21
181.995000
0
LINE
8
ProjItem002
10
244.939674
20
181.995000
11
245.350414
21
181.458413
0
LINE
8
ProjItem002
10
245.350414
20
181.458413
11
245.895000
21
181.039674
0
LINE
8
ProjItem002
10
245.895000
20
181.039674
11
246.529932
21
180.777418
0
LINE
8
ProjItem002
10
246.529932
20
180.777418
11
247.200000
21
180.690000
0
LINE
8
ProjItem002
10
247.200000
20
180.690000
11
247.870068
21
180.777418
0
LINE
8
ProjItem002
10
247.870068
20
180.777418
11
248.505000
21
181.039674
0
LINE
8
ProjItem002
10
248.505000
20
181.039674
11
249.049586
21
181.458413
0
LINE
8
ProjItem002
10
249.049586
20
181.458413
11
249.460326
21
181.995000
0
LINE
8
ProjItem002
10
249.460326
20
181.995000
11
249.719654
21
182.619005
0
LINE
8
ProjItem002
10
249.719654
20
182.619005
11
249.810000
21
183.300000
0
LINE
8
ProjItem002
10
249.810000
20
183.300000
11
249.810000
21
183.300000
0
LINE
8
ProjItem002
10
359.810000
20
83.300300
11
359.719654
21
83.981295
0
LINE
8
ProjItem002
10
359.719654
20
83.981295
11
359.460326
21
84.605300
0
LINE
8
ProjItem002
10
359.460326
20
84.605300
11
359.049586
21
85.141887
0
LINE
8
ProjItem002
10
359.049586
20
85.141887
11
358.505000
21
85.560626
0
LINE
8
ProjItem002
10
358.505000
20
85.560626
11
357.870068
21
85.822882
0
LINE
8
ProjItem002
10
357.870068
20
85.822882
11
357.200000
21
85.910300
0
LINE
8
ProjItem002
10
357.200000
20
85.910300
11
356.529932
21
85.822882
0
LINE
8
ProjItem002
10
356.529932
20
85.822882
11
355.895000
21
85.560626
0
LINE
8
ProjItem002
10
355.895000
20
85.560626
11
355.350414
21
85.141887
0
LINE
8
ProjItem002
10
355.350414
20
85.141887
11
354.939674
21
84.605300
0
LINE
8
ProjItem002
10
354.939674
20
84.605300
11
354.680346
21
83.981295
0
LINE
8
ProjItem002
10
354.680346
20
83.981295
11
354.590000
21
83.300300
0
LINE
8
ProjItem002
10
354.590000
20
83.300300
11
354.680346
21
82.619305
0
LINE
8
ProjItem002
10
354.680346
20
82.619305
11
354.939674
21
81.995300
0
LINE
8
ProjItem002
10
354.939674
20
81.995300
11
355.350414
21
81.458713
0
LINE
8
ProjItem002
10
355.350414
20
81.458713
11
355.895000
21
81.039974
0
LINE
8
ProjItem002
10
355.895000
20
81.039974
11
356.529932
21
80.777718
0
LINE
8
ProjItem002
10
356.529932
20
80.777718
11
357.200000
21
80.690300
0
LINE
8
ProjItem002
10
357.200000
20
80.690300
11
357.870068
21
80.777718
0
LINE
8
ProjItem002
10
357.870068
20
80.777718
11
358.505000
21
81.039974
0
LINE
8
ProjItem002
10
358.505000
20
81.039974
11
359.049586
21
81.458713
0
LINE
8
ProjItem002
10
359.049586
20
81.458713
11
359.460326
21
81.995300
0
LINE
8
ProjItem002
10
359.460326
20
81.995300
11
359.719654
21
82.619305
0
LINE
8
ProjItem002
10
359.719654
20
82.619305
11
359.810000
21
83.300300
0
LINE
8
ProjItem002
10
359.810000
20
83.300300
11
359.810000
21
83.300300
0
LINE
8
ProjItem002
10
365.643000
20
127.300000
11
365.552654
21
127.980995
0
LINE
8
ProjItem002
10
365.552654
20
127.980995
11
365.293326
21
128.605000
0
LINE
8
ProjItem002
10
365.293326
20
128.605000
11
364.882586
21
129.141587
0
LINE
8
ProjItem002
10
364.882586
20
129.141587
11
364.338000
21
129.560326
0
LINE
8
ProjItem002
10
364.338000
20
129.560326
11
363.703068
21
129.822582
0
LINE
8
ProjItem002
10
363.703068
20
129.822582
11
363.033000
21
129.910000
0
LINE
8
ProjItem002
10
363.033000
20
129.910000
11
362.362932
21
129.822582
0
LINE
8
ProjItem002
10
362.362932
20
129.822582
11
361.728000
21
129.560326
0
LINE
8
ProjItem002
10
361.728000
20
129.560326
11
361.183414
21
129.141587
0
LINE
8
ProjItem002
10
361.183414
20
129.141587
11
360.772674
21
128.605000
0
LINE
8
ProjItem002
10
360.772674
20
128.605000
11
360.513346
21
127.980995
0
LINE
8
ProjItem002
10
360.513346
20
127.980995
11
360.423000
21
127.300000
0
LINE
8
ProjItem002
10
360.423000
20
127.300000
11
360.513346
21
126.619005
0
LINE
8
ProjItem002
10
360.513346
20
126.619005
11
360.772674
21
125.995000
0
LINE
8
ProjItem002
10
360.772674
20
125.995000
11
361.183414
21
125.458413
0
LINE
8
ProjItem002
10
361.183414
20
125.458413
11
361.728000
21
125.039674
0
LINE
8
ProjItem002
10
361.728000
20
125.039674
11
362.362932
21
124.777418
0
LINE
8
ProjItem002
10
362.362932
20
124.777418
11
363.033000
21
124.690000
0
LINE
8
ProjItem002
10
363.033000
20
124.690000
11
363.703068
21
124.777418
0
LINE
8
ProjItem002
10
363.703068
20
124.777418
11
364.338000
21
125.039674
0
LINE
8
ProjItem002
10
364.338000
20
125.039674
11
364.882586
21
125.458413
0
LINE
8
ProjItem002
10
364.882586
20
125.458413
11
365.293326
21
125.995000
0
LINE
8
ProjItem002
10
365.293326
20
125.995000
11
365.552654
21
126.619005
0
LINE
8
ProjItem002
10
365.552654
20
126.619005
11
365.643000
21
127.300000
0
LINE
8
ProjItem002
10
365.643000
20
127.300000
11
365.643000
21
127.300000
0
LINE
8
ProjItem002
10
393.977000
20
127.300000
11
393.886654
21
127.980995
0
LINE
8
ProjItem002
10
393.886654
20
127.980995
11
393.627326
21
128.605000
0
LINE
8
ProjItem002
10
393.627326
20
128.605000
11
393.216586
21
129.141587
0
LINE
8
ProjItem002
10
393.216586
20
129.141587
11
392.672000
21
129.560326
0
LINE
8
ProjItem002
10
392.672000
20
129.560326
11
392.037068
21
129.822582
0
LINE
8
ProjItem002
10
392.037068
20
129.822582
11
391.367000
21
129.910000
0
LINE
8
ProjItem002
10
391.367000
20
129.910000
11
390.696932
21
129.822582
0
LINE
8
ProjItem002
10
390.696932
20
129.822582
11
390.062000
21
129.560326
0
LINE
8
ProjItem002
10
390.062000
20
129.560326
11
389.517414
21
129.141587
0
LINE
8
ProjItem002
10
389.517414
20
129.141587
11
389.106674
21
128.605000
0
LINE
8
ProjItem002
10
389.106674
20
128.605000
11
388.847346
21
127.980995
0
LINE
8
ProjItem002
10
388.847346
20
127.980995
11
388.757000
21
127.300000
0
LINE
8
ProjItem002
10
388.757000
20
127.300000
11
388.847346
21
126.619005
0
LINE
8
ProjItem002
10
388.847346
20
126.619005
11
389.106674
21
125.995000
0
LINE
8
ProjItem002
10
389.106674
20
125.995000
11
389.517414
21
125.458413
0
LINE
8
ProjItem002
10
389.517414
20
125.458413
11
390.062000
21
125.039674
0
LINE
8
ProjItem002
10
390.062000
20
125.039674
11
390.696932
21
124.777418
0
LINE
8
ProjItem002
10
390.696932
20
124.777418
11
391.367000
21
124.690000
0
LINE
8
ProjItem002
10
391.367000
20
124.690000
11
392.037068
21
124.777418
0
LINE
8
ProjItem002
10
392.037068
20
124.777418
11
392.672000
21
125.039674
0
LINE
8
ProjItem002
10
392.672000
20
125.039674
11
393.216586
21
125.458413
0
LINE
8
ProjItem002
10
393.216586
20
125.458413
11
393.627326
21
125.995000
0
LINE
8
ProjItem002
10
393.627326
20
125.995000
11
393.886654
21
126.619005
0
LINE
8
ProjItem002
10
393.886654
20
126.619005
11
393.977000
21
127.300000
0
LINE
8
ProjItem002
10
393.977000
20
127.300000
11
393.977000
21
127.300000
0
LINE
8
ProjItem002
10
409.809000
20
83.300300
11
409.718654
21
83.981295
0
LINE
8
ProjItem002
10
409.718654
20
83.981295
11
409.459326
21
84.605300
0
LINE
8
ProjItem002
10
409.459326
20
84.605300
11
409.048586
21
85.141887
0
LINE
8
ProjItem002
10
409.048586
20
85.141887
11
408.504000
21
85.560626
0
LINE
8
ProjItem002
10
408.504000
20
85.560626
11
407.869068
21
85.822882
0
LINE
8
ProjItem002
10
407.869068
20
85.822882
11
407.199000
21
85.910300
0
LINE
8
ProjItem002
10
407.199000
20
85.910300
11
406.528932
21
85.822882
0
LINE
8
ProjItem002
10
406.528932
20
85.822882
11
405.894000
21
85.560626
0
LINE
8
ProjItem002
10
405.894000
20
85.560626
11
405.349414
21
85.141887
0
LINE
8
ProjItem002
10
405.349414
20
85.141887
11
404.938674
21
84.605300
0
LINE
8
ProjItem002
10
404.938674
20
84.605300
11
404.679346
21
83.981295
0
LINE
8
ProjItem002
10
404.679346
20
83.981295
11
404.589000
21
83.300300
0
LINE
8
ProjItem002
10
404.589000
20
83.300300
11
404.679346
21
82.619305
0
LINE
8
ProjItem002
10
404.679346
20
82.619305
11
404.938674
21
81.995300
0
LINE
8
ProjItem002
10
404.938674
20
81.995300
11
405.349414
21
81.458713
0
LINE
8
ProjItem002
10
405.349414
20
81.458713
11
405.894000
21
81.039974
0
LINE
8
ProjItem002
10
405.894000
20
81.039974
11
406.528932
21
80.777718
0
LINE
8
ProjItem002
10
406.528932
20
80.777718
11
407.199000
21
80.690300
0
LINE
8
ProjItem002
10
407.199000
20
80.690300
11
407.869068
21
80.777718
0
LINE
8
ProjItem002
10
407.869068
20
80.777718
11
408.504000
21
81.039974
0
LINE
8
ProjItem002
10
408.504000
20
81.039974
11
409.048586
21
81.458713
0
LINE
8
ProjItem002
10
409.048586
20
81.458713
11
409.459326
21
81.995300
0
LINE
8
ProjItem002
10
409.459326
20
81.995300
11
409.718654
21
82.619305
0
LINE
8
ProjItem002
10
409.718654
20
82.619305
11
409.809000
21
83.300300
0
LINE
8
ProjItem002
10
409.809000
20
83.300300
11
409.809000
21
83.300300
0
LINE
8
ProjItem002
10
418.976000
20
127.300000
11
418.885654
21
127.980995
0
LINE
8
ProjItem002
10
418.885654
20
127.980995
11
418.626326
21
128.605000
0
LINE
8
ProjItem002
10
418.626326
20
128.605000
11
418.215586
21
129.141587
0
LINE
8
ProjItem002
10
418.215586
20
129.141587
11
417.671000
21
129.560326
0
LINE
8
ProjItem002
10
417.671000
20
129.560326
11
417.036068
21
129.822582
0
LINE
8
ProjItem002
10
417.036068
20
129.822582
11
416.366000
21
129.910000
0
LINE
8
ProjItem002
10
416.366000
20
129.910000
11
415.695932
21
129.822582
0
LINE
8
ProjItem002
10
415.695932
20
129.822582
11
415.061000
21
129.560326
0
LINE
8
ProjItem002
10
415.061000
20
129.560326
11
414.516414
21
129.141587
0
LINE
8
ProjItem002
10
414.516414
20
129.141587
11
414.105674
21
128.605000
0
LINE
8
ProjItem002
10
414.105674
20
128.605000
11
413.846346
21
127.980995
0
LINE
8
ProjItem002
10
413.846346
20
127.980995
11
413.756000
21
127.300000
0
LINE
8
ProjItem002
10
413.756000
20
127.300000
11
413.846346
21
126.619005
0
LINE
8
ProjItem002
10
413.846346
20
126.619005
11
414.105674
21
125.995000
0
LINE
8
ProjItem002
10
414.105674
20
125.995000
11
414.516414
21
125.458413
0
LINE
8
ProjItem002
10
414.516414
20
125.458413
11
415.061000
21
125.039674
0
LINE
8
ProjItem002
10
415.061000
20
125.039674
11
415.695932
21
124.777418
0
LINE
8
ProjItem002
10
415.695932
20
124.777418
11
416.366000
21
124.690000
0
LINE
8
ProjItem002
10
416.366000
20
124.690000
11
417.036068
21
124.777418
0
LINE
8
ProjItem002
10
417.036068
20
124.777418
11
417.671000
21
125.039674
0
LINE
8
ProjItem002
10
417.671000
20
125.039674
11
418.215586
21
125.458413
0
LINE
8
ProjItem002
10
418.215586
20
125.458413
11
418.626326
21
125.995000
0
LINE
8
ProjItem002
10
418.626326
20
125.995000
11
418.885654
21
126.619005
0
LINE
8
ProjItem002
10
418.885654
20
126.619005
11
418.976000
21
127.300000
0
LINE
8
ProjItem002
10
418.976000
20
127.300000
11
418.976000
21
127.300000
0
LINE
8
ProjItem002
10
447.309000
20
127.300000
11
447.218654
21
127.980995
0
LINE
8
ProjItem002
10
447.218654
20
127.980995
11
446.959326
21
128.605000
0
LINE
8
ProjItem002
10
446.959326
20
128.605000
11
446.548586
21
129.141587
0
LINE
8
ProjItem002
10
446.548586
20
129.141587
11
446.004000
21
129.560326
0
LINE
8
ProjItem002
10
446.004000
20
129.560326
11
445.369068
21
129.822582
0
LINE
8
ProjItem002
10
445.369068
20
129.822582
11
444.699000
21
129.910000
0
LINE
8
ProjItem002
10
444.699000
20
129.910000
11
444.028932
21
129.822582
0
LINE
8
ProjItem002
10
444.028932
20
129.822582
11
443.394000
21
129.560326
0
LINE
8
ProjItem002
10
443.394000
20
129.560326
11
442.849414
21
129.141587
0
LINE
8
ProjItem002
10
442.849414
20
129.141587
11
442.438674
21
128.605000
0
LINE
8
ProjItem002
10
442.438674
20
128.605000
11
442.179346
21
127.980995
0
LINE
8
ProjItem002
10
442.179346
20
127.980995
11
442.089000
21
127.300000
0
LINE
8
ProjItem002
10
442.089000
20
127.300000
11
442.179346
21
126.619005
0
LINE
8
ProjItem002
10
442.179346
20
126.619005
11
442.438674
21
125.995000
0
LINE
8
ProjItem002
10
442.438674
20
125.995000
11
442.849414
21
125.458413
0
LINE
8
ProjItem002
10
442.849414
20
125.458413
11
443.394000
21
125.039674
0
LINE
8
ProjItem002
10
443.394000
20
125.039674
11
444.028932
21
124.777418
0
LINE
8
ProjItem002
10
444.028932
20
124.777418
11
444.699000
21
124.690000
0
LINE
8
ProjItem002
10
444.699000
20
124.690000
11
445.369068
21
124.777418
0
LINE
8
ProjItem002
10
445.369068
20
124.777418
11
446.004000
21
125.039674
0
LINE
8
ProjItem002
10
446.004000
20
125.039674
11
446.548586
21
125.458413
0
LINE
8
ProjItem002
10
446.548586
20
125.458413
11
446.959326
21
125.995000
0
LINE
8
ProjItem002
10
446.959326
20
125.995000
11
447.218654
21
126.619005
0
LINE
8
ProjItem002
10
447.218654
20
126.619005
11
447.309000
21
127.300000
0
LINE
8
ProjItem002
10
447.309000
20
127.300000
11
447.309000
21
127.300000
0
LINE
8
ProjItem002
10
249.810000
20
233.300000
11
249.719654
21
233.980995
0
LINE
8
ProjItem002
10
249.719654
20
233.980995
11
249.460326
21
234.605000
0
LINE
8
ProjItem002
10
249.460326
20
234.605000
11
249.049586
21
235.141587
0
LINE
8
ProjItem002
10
249.049586
20
235.141587
11
248.505000
21
235.560326
0
LINE
8
ProjItem002
10
248.505000
20
235.560326
11
247.870068
21
235.822582
0
LINE
8
ProjItem002
10
247.870068
20
235.822582
11
247.200000
21
235.910000
0
LINE
8
ProjItem002
10
247.200000
20
235.910000
11
246.529932
21
235.822582
0
LINE
8
ProjItem002
10
246.529932
20
235.822582
11
245.895000
21
235.560326
0
LINE
8
ProjItem002
10
245.895000
20
235.560326
11
245.350414
21
235.141587
0
LINE
8
ProjItem002
10
245.350414
20
235.141587
11
244.939674
21
234.605000
0
LINE
8
ProjItem002
10
244.939674
20
234.605000
11
244.680346
21
233.980995
0
LINE
8
ProjItem002
10
244.680346
20
233.980995
11
244.590000
21
233.300000
0
LINE
8
ProjItem002
10
244.590000
20
233.300000
11
244.680346
21
232.619005
0
LINE
8
ProjItem002
10
244.680346
20
232.619005
11
244.939674
21
231.995000
0
LINE
8
ProjItem002
10
244.939674
20
231.995000
11
245.350414
21
231.458413
0
LINE
8
ProjItem002
10
245.350414
20
231.458413
11
245.895000
21
231.039674
0
LINE
8
ProjItem002
10
245.895000
20
231.039674
11
246.529932
21
230.777418
0
LINE
8
ProjItem002
10
246.529932
20
230.777418
11
247.200000
21
230.690000
0
LINE
8
ProjItem002
10
247.200000
20
230.690000
11
247.870068
21
230.777418
0
LINE
8
ProjItem002
10
247.870068
20
230.777418
11
248.505000
21
231.039674
0
LINE
8
ProjItem002
10
248.505000
20
231.039674
11
249.049586
21
231.458413
0
LINE
8
ProjItem002
10
249.049586
20
231.458413
11
249.460326
21
231.995000
0
LINE
8
ProjItem002
10
249.460326
20
231.995000
11
249.719654
21
232.619005
0
LINE
8
ProjItem002
10
249.719654
20
232.619005
11
249.810000
21
233.300000
0
LINE
8
ProjItem002
10
249.810000
20
233.300000
11
249.810000
21
233.300000
0
LINE
8
ProjItem002
10
249.810000
20
283.300000
11
249.719654
21
283.980995
0
LINE
8
ProjItem002
10
249.719654
20
283.980995
11
249.460326
21
284.605000
0
LINE
8
ProjItem002
10
249.460326
20
284.605000
11
249.049586
21
285.141587
0
LINE
8
ProjItem002
10
249.049586
20
285.141587
11
248.505000
21
285.560326
0
LINE
8
ProjItem002
10
248.505000
20
285.560326
11
247.870068
21
285.822582
0
LINE
8
ProjItem002
10
247.870068
20
285.822582
11
247.200000
21
285.910000
0
LINE
8
ProjItem002
10
247.200000
20
285.910000
11
246.529932
21
285.822582
0
LINE
8
ProjItem002
10
246.529932
20
285.822582
11
245.895000
21
285.560326
0
LINE
8
ProjItem002
10
245.895000
20
285.560326
11
245.350414
21
285.141587
0
LINE
8
ProjItem002
10
245.350414
20
285.141587
11
244.939674
21
284.605000
0
LINE
8
ProjItem002
10
244.939674
20
284.605000
11
244.680346
21
283.980995
0
LINE
8
ProjItem002
10
244.680346
20
283.980995
11
244.590000
21
283.300000
0
LINE
8
ProjItem002
10
244.590000
20
283.300000
11
244.680346
21
282.619005
0
LINE
8
ProjItem002
10
244.680346
20
282.619005
11
244.939674
21
281.995000
0
LINE
8
ProjItem002
10
244.939674
20
281.995000
11
245.350414
21
281.458413
0
LINE
8
ProjItem002
10
245.350414
20
281.458413
11
245.895000
21
281.039674
0
LINE
8
ProjItem002
10
245.895000
20
281.039674
11
246.529932
21
280.777418
0
LINE
8
ProjItem002
10
246.529932
20
280.777418
11
247.200000
21
280.690000
0
LINE
8
ProjItem002
10
247.200000
20
280.690000
11
247.870068
21
280.777418
0
LINE
8
ProjItem002
10
247.870068
20
280.777418
11
248.505000
21
281.039674
0
LINE
8
ProjItem002
10
248.505000
20
281.039674
11
249.049586
21
281.458413
0
LINE
8
ProjItem002
10
249.049586
20
281.458413
11
249.460326
21
281.995000
0
LINE
8
ProjItem002
10
249.460326
20
281.995000
11
249.719654
21
282.619005
0
LINE
8
ProjItem002
10
249.719654
20
282.619005
11
249.810000
21
283.300000
0
LINE
8
ProjItem002
10
249.810000
20
283.300000
11
249.810000
21
283.300000
0
LINE
8
ProjItem002
10
459.809000
20
83.300300
11
459.718654
21
83.981295
0
LINE
8
ProjItem002
10
459.718654
20
83.981295
11
459.459326
21
84.605300
0
LINE
8
ProjItem002
10
459.459326
20
84.605300
11
459.048586
21
85.141887
0
LINE
8
ProjItem002
10
459.048586
20
85.141887
11
458.504000
21
85.560626
0
LINE
8
ProjItem002
10
458.504000
20
85.560626
11
457.869068
21
85.822882
0
LINE
8
ProjItem002
10
457.869068
20
85.822882
11
457.199000
21
85.910300
0
LINE
8
ProjItem002
10
457.199000
20
85.910300
11
456.528932
21
85.822882
0
LINE
8
ProjItem002
10
456.528932
20
85.822882
11
455.894000
21
85.560626
0
LINE
8
ProjItem002
10
455.894000
20
85.560626
11
455.349414
21
85.141887
0
LINE
8
ProjItem002
10
455.349414
20
85.141887
11
454.938674
21
84.605300
0
LINE
8
ProjItem002
10
454.938674
20
84.605300
11
454.679346
21
83.981295
0
LINE
8
ProjItem002
10
454.679346
20
83.981295
11
454.589000
21
83.300300
0
LINE
8
ProjItem002
10
454.589000
20
83.300300
11
454.679346
21
82.619305
0
LINE
8
ProjItem002
10
454.679346
20
82.619305
11
454.938674
21
81.995300
0
LINE
8
ProjItem002
10
454.938674
20
81.995300
11
455.349414
21
81.458713
0
LINE
8
ProjItem002
10
455.349414
20
81.458713
11
455.894000
21
81.039974
0
LINE
8
ProjItem002
10
455.894000
20
81.039974
11
456.528932
21
80.777718
0
LINE
8
ProjItem002
10
456.528932
20
80.777718
11
457.199000
21
80.690300
0
LINE
8
ProjItem002
10
457.199000
20
80.690300
11
457.869068
21
80.777718
0
LINE
8
ProjItem002
10
457.869068
20
80.777718
11
458.504000
21
81.039974
0
LINE
8
ProjItem002
10
458.504000
20
81.039974
11
459.048586
21
81.458713
0
LINE
8
ProjItem002
10
459.048586
20
81.458713
11
459.459326
21
81.995300
0
LINE
8
ProjItem002
10
459.459326
20
81.995300
11
459.718654
21
82.619305
0
LINE
8
ProjItem002
10
459.718654
20
82.619305
11
459.809000
21
83.300300
0
LINE
8
ProjItem002
10
459.809000
20
83.300300
11
459.809000
21
83.300300
0
LINE
8
ProjItem002
10
509.809000
20
83.300300
11
509.718654
21
83.981295
0
LINE
8
ProjItem002
10
509.718654
20
83.981295
11
509.459326
21
84.605300
0
LINE
8
ProjItem002
10
509.459326
20
84.605300
11
509.048586
21
85.141887
0
LINE
8
ProjItem002
10
509.048586
20
85.141887
11
508.504000
21
85.560626
0
LINE
8
ProjItem002
10
508.504000
20
85.560626
11
507.869068
21
85.822882
0
LINE
8
ProjItem002
10
507.869068
20
85.822882
11
507.199000
21
85.910300
0
LINE
8
ProjItem002
10
507.199000
20
85.910300
11
506.528932
21
85.822882
0
LINE
8
ProjItem002
10
506.528932
20
85.822882
11
505.894000
21
85.560626
0
LINE
8
ProjItem002
10
505.894000
20
85.560626
11
505.349414
21
85.141887
0
LINE
8
ProjItem002
10
505.349414
20
85.141887
11
504.938674
21
84.605300
0
LINE
8
ProjItem002
10
504.938674
20
84.605300
11
504.679346
21
83.981295
0
LINE
8
ProjItem002
10
504.679346
20
83.981295
11
504.589000
21
83.300300
0
LINE
8
ProjItem002
10
504.589000
20
83.300300
11
504.679346
21
82.619305
0
LINE
8
ProjItem002
10
504.679346
20
82.619305
11
504.938674
21
81.995300
0
LINE
8
ProjItem002
10
504.938674
20
81.995300
11
505.349414
21
81.458713
0
LINE
8
ProjItem002
10
505.349414
20
81.458713
11
505.894000
21
81.039974
0
LINE
8
ProjItem002
10
505.894000
20
81.039974
11
506.528932
21
80.777718
0
LINE
8
ProjItem002
10
506.528932
20
80.777718
11
507.199000
21
80.690300
0
LINE
8
ProjItem002
10
507.199000
20
80.690300
11
507.869068
21
80.777718
0
LINE
8
ProjItem002
10
507.869068
20
80.777718
11
508.504000
21
81.039974
0
LINE
8
ProjItem002
10
508.504000
20
81.039974
11
509.048586
21
81.458713
0
LINE
8
ProjItem002
10
509.048586
20
81.458713
11
509.459326
21
81.995300
0
LINE
8
ProjItem002
10
509.459326
20
81.995300
11
509.718654
21
82.619305
0
LINE
8
ProjItem002
10
509.718654
20
82.619305
11
509.809000
21
83.300300
0
LINE
8
ProjItem002
10
509.809000
20
83.300300
11
509.809000
21
83.300300
0
LINE
8
ProjItem002
10
472.309000
20
127.300000
11
472.218654
21
127.980995
0
LINE
8
ProjItem002
10
472.218654
20
127.980995
11
471.959326
21
128.605000
0
LINE
8
ProjItem002
10
471.959326
20
128.605000
11
471.548586
21
129.141587
0
LINE
8
ProjItem002
10
471.548586
20
129.141587
11
471.004000
21
129.560326
0
LINE
8
ProjItem002
10
471.004000
20
129.560326
11
470.369068
21
129.822582
0
LINE
8
ProjItem002
10
470.369068
20
129.822582
11
469.699000
21
129.910000
0
LINE
8
ProjItem002
10
469.699000
20
129.910000
11
469.028932
21
129.822582
0
LINE
8
ProjItem002
10
469.028932
20
129.822582
11
468.394000
21
129.560326
0
LINE
8
ProjItem002
10
468.394000
20
129.560326
11
467.849414
21
129.141587
0
LINE
8
ProjItem002
10
467.849414
20
129.141587
11
467.438674
21
128.605000
0
LINE
8
ProjItem002
10
467.438674
20
128.605000
11
467.179346
21
127.980995
0
LINE
8
ProjItem002
10
467.179346
20
127.980995
11
467.089000
21
127.300000
0
LINE
8
ProjItem002
10
467.089000
20
127.300000
11
467.179346
21
126.619005
0
LINE
8
ProjItem002
10
467.179346
20
126.619005
11
467.438674
21
125.995000
0
LINE
8
ProjItem002
10
467.438674
20
125.995000
11
467.849414
21
125.458413
0
LINE
8
ProjItem002
10
467.849414
20
125.458413
11
468.394000
21
125.039674
0
LINE
8
ProjItem002
10
468.394000
20
125.039674
11
469.028932
21
124.777418
0
LINE
8
ProjItem002
10
469.028932
20
124.777418
11
469.699000
21
124.690000
0
LINE
8
ProjItem002
10
469.699000
20
124.690000
11
470.369068
21
124.777418
0
LINE
8
ProjItem002
10
470.369068
20
124.777418
11
471.004000
21
125.039674
0
LINE
8
ProjItem002
10
471.004000
20
125.039674
11
471.548586
21
125.458413
0
LINE
8
ProjItem002
10
471.548586
20
125.458413
11
471.959326
21
125.995000
0
LINE
8
ProjItem002
10
471.959326
20
125.995000
11
472.218654
21
126.619005
0
LINE
8
ProjItem002
10
472.218654
20
126.619005
11
472.309000
21
127.300000
0
LINE
8
ProjItem002
10
472.309000
20
127.300000
11
472.309000
21
127.300000
0
LINE
8
ProjItem002
10
459.219000
20
133.300000
11
458.948290
21
134.309650
0
LINE
8
ProjItem002
10
458.948290
20
134.309650
11
458.209150
21
135.048765
0
LINE
8
ProjItem002
10
458.209150
20
135.048765
11
457.199500
21
135.319300
0
LINE
8
ProjItem002
10
457.199500
20
135.319300
11
456.189850
21
135.048765
0
LINE
8
ProjItem002
10
456.189850
20
135.048765
11
455.450735
21
134.309650
0
LINE
8
ProjItem002
10
455.450735
20
134.309650
11
455.180200
21
133.300000
0
LINE
8
ProjItem002
10
455.180200
20
133.300000
11
455.450822
21
132.290350
0
LINE
8
ProjItem002
10
455.450822
20
132.290350
11
456.189950
21
131.551235
0
LINE
8
ProjItem002
10
456.189950
20
131.551235
11
457.199600
21
131.280700
0
LINE
8
ProjItem002
10
457.199600
20
131.280700
11
458.209250
21
131.551235
0
LINE
8
ProjItem002
10
458.209250
20
131.551235
11
458.948365
21
132.290350
0
LINE
8
ProjItem002
10
458.948365
20
132.290350
11
459.218900
21
133.300000
0
LINE
8
ProjItem002
10
459.218900
20
133.300000
11
459.219000
21
133.300000
0
LINE
8
ProjItem002
10
500.642000
20
127.300000
11
500.551654
21
127.980995
0
LINE
8
ProjItem002
10
500.551654
20
127.980995
11
500.292326
21
128.605000
0
LINE
8
ProjItem002
10
500.292326
20
128.605000
11
499.881586
21
129.141587
0
LINE
8
ProjItem002
10
499.881586
20
129.141587
11
499.337000
21
129.560326
0
LINE
8
ProjItem002
10
499.337000
20
129.560326
11
498.702068
21
129.822582
0
LINE
8
ProjItem002
10
498.702068
20
129.822582
11
498.032000
21
129.910000
0
LINE
8
ProjItem002
10
498.032000
20
129.910000
11
497.361932
21
129.822582
0
LINE
8
ProjItem002
10
497.361932
20
129.822582
11
496.727000
21
129.560326
0
LINE
8
ProjItem002
10
496.727000
20
129.560326
11
496.182414
21
129.141587
0
LINE
8
ProjItem002
10
496.182414
20
129.141587
11
495.771674
21
128.605000
0
LINE
8
ProjItem002
10
495.771674
20
128.605000
11
495.512346
21
127.980995
0
LINE
8
ProjItem002
10
495.512346
20
127.980995
11
495.422000
21
127.300000
0
LINE
8
ProjItem002
10
495.422000
20
127.300000
11
495.512346
21
126.619005
0
LINE
8
ProjItem002
10
495.512346
20
126.619005
11
495.771674
21
125.995000
0
LINE
8
ProjItem002
10
495.771674
20
125.995000
11
496.182414
21
125.458413
0
LINE
8
ProjItem002
10
496.182414
20
125.458413
11
496.727000
21
125.039674
0
LINE
8
ProjItem002
10
496.727000
20
125.039674
11
497.361932
21
124.777418
0
LINE
8
ProjItem002
10
497.361932
20
124.777418
11
498.032000
21
124.690000
0
LINE
8
ProjItem002
10
498.032000
20
124.690000
11
498.702068
21
124.777418
0
LINE
8
ProjItem002
10
498.702068
20
124.777418
11
499.337000
21
125.039674
0
LINE
8
ProjItem002
10
499.337000
20
125.039674
11
499.881586
21
125.458413
0
LINE
8
ProjItem002
10
499.881586
20
125.458413
11
500.292326
21
125.995000
0
LINE
8
ProjItem002
10
500.292326
20
125.995000
11
500.551654
21
126.619005
0
LINE
8
ProjItem002
10
500.551654
20
126.619005
11
500.642000
21
127.300000
0
LINE
8
ProjItem002
10
500.642000
20
127.300000
11
500.642000
21
127.300000
0
LINE
8
ProjItem002
10
559.809000
20
83.300300
11
559.603893
21
84.316230
0
LINE
8
ProjItem002
10
559.603893
20
84.316230
11
559.044549
21
85.145848
0
LINE
8
ProjItem002
10
559.044549
20
85.145848
11
558.214930
21
85.705193
0
LINE
8
ProjItem002
10
558.214930
20
85.705193
11
557.199000
21
85.910300
0
LINE
8
ProjItem002
10
557.199000
20
85.910300
11
556.183070
21
85.705193
0
LINE
8
ProjItem002
10
556.183070
20
85.705193
11
555.353451
21
85.145848
0
LINE
8
ProjItem002
10
555.353451
20
85.145848
11
554.794107
21
84.316230
0
LINE
8
ProjItem002
10
554.794107
20
84.316230
11
554.589000
21
83.300300
0
LINE
8
ProjItem002
10
554.589000
20
83.300300
11
554.679346
21
82.619305
0
LINE
8
ProjItem002
10
554.679346
20
82.619305
11
554.938674
21
81.995300
0
LINE
8
ProjItem002
10
554.938674
20
81.995300
11
555.349414
21
81.458713
0
LINE
8
ProjItem002
10
555.349414
20
81.458713
11
555.894000
21
81.039974
0
LINE
8
ProjItem002
10
555.894000
20
81.039974
11
556.528932
21
80.777718
0
LINE
8
ProjItem002
10
556.528932
20
80.777718
11
557.199000
21
80.690300
0
LINE
8
ProjItem002
10
557.199000
20
80.690300
11
557.869068
21
80.777718
0
LINE
8
ProjItem002
10
557.869068
20
80.777718
11
558.504000
21
81.039974
0
LINE
8
ProjItem002
10
558.504000
20
81.039974
11
559.048586
21
81.458713
0
LINE
8
ProjItem002
10
559.048586
20
81.458713
11
559.459326
21
81.995300
0
LINE
8
ProjItem002
10
559.459326
20
81.995300
11
559.718654
21
82.619305
0
LINE
8
ProjItem002
10
559.718654
20
82.619305
11
559.809000
21
83.300300
0
LINE
8
ProjItem002
10
559.809000
20
83.300300
11
559.809000
21
83.300300
0
LINE
8
ProjItem002
10
525.642000
20
127.300000
11
525.551654
21
127.980995
0
LINE
8
ProjItem002
10
525.551654
20
127.980995
11
525.292326
21
128.605000
0
LINE
8
ProjItem002
10
525.292326
20
128.605000
11
524.881586
21
129.141587
0
LINE
8
ProjItem002
10
524.881586
20
129.141587
11
524.337000
21
129.560326
0
LINE
8
ProjItem002
10
524.337000
20
129.560326
11
523.702068
21
129.822582
0
LINE
8
ProjItem002
10
523.702068
20
129.822582
11
523.032000
21
129.910000
0
LINE
8
ProjItem002
10
523.032000
20
129.910000
11
522.361932
21
129.822582
0
LINE
8
ProjItem002
10
522.361932
20
129.822582
11
521.727000
21
129.560326
0
LINE
8
ProjItem002
10
521.727000
20
129.560326
11
521.182414
21
129.141587
0
LINE
8
ProjItem002
10
521.182414
20
129.141587
11
520.771674
21
128.605000
0
LINE
8
ProjItem002
10
520.771674
20
128.605000
11
520.512346
21
127.980995
0
LINE
8
ProjItem002
10
520.512346
20
127.980995
11
520.422000
21
127.300000
0
LINE
8
ProjItem002
10
520.422000
20
127.300000
11
520.512346
21
126.619005
0
LINE
8
ProjItem002
10
520.512346
20
126.619005
11
520.771674
21
125.995000
0
LINE
8
ProjItem002
10
520.771674
20
125.995000
11
521.182414
21
125.458413
0
LINE
8
ProjItem002
10
521.182414
20
125.458413
11
521.727000
21
125.039674
0
LINE
8
ProjItem002
10
521.727000
20
125.039674
11
522.361932
21
124.777418
0
LINE
8
ProjItem002
10
522.361932
20
124.777418
11
523.032000
21
124.690000
0
LINE
8
ProjItem002
10
523.032000
20
124.690000
11
523.702068
21
124.777418
0
LINE
8
ProjItem002
10
523.702068
20
124.777418
11
524.337000
21
125.039674
0
LINE
8
ProjItem002
10
524.337000
20
125.039674
11
524.881586
21
125.458413
0
LINE
8
ProjItem002
10
524.881586
20
125.458413
11
525.292326
21
125.995000
0
LINE
8
ProjItem002
10
525.292326
20
125.995000
11
525.551654
21
126.619005
0
LINE
8
ProjItem002
10
525.551654
20
126.619005
11
525.642000
21
127.300000
0
LINE
8
ProjItem002
10
525.642000
20
127.300000
11
525.642000
21
127.300000
0
LINE
8
ProjItem002
10
553.976000
20
127.300000
11
553.885654
21
127.980995
0
LINE
8
ProjItem002
10
553.885654
20
127.980995
11
553.626326
21
128.605000
0
LINE
8
ProjItem002
10
553.626326
20
128.605000
11
553.215586
21
129.141587
0
LINE
8
ProjItem002
10
553.215586
20
129.141587
11
552.671000
21
129.560326
0
LINE
8
ProjItem002
10
552.671000
20
129.560326
11
552.036068
21
129.822582
0
LINE
8
ProjItem002
10
552.036068
20
129.822582
11
551.366000
21
129.910000
0
LINE
8
ProjItem002
10
551.366000
20
129.910000
11
550.695932
21
129.822582
0
LINE
8
ProjItem002
10
550.695932
20
129.822582
11
550.061000
21
129.560326
0
LINE
8
ProjItem002
10
550.061000
20
129.560326
11
549.516414
21
129.141587
0
LINE
8
ProjItem002
10
549.516414
20
129.141587
11
549.105674
21
128.605000
0
LINE
8
ProjItem002
10
549.105674
20
128.605000
11
548.846346
21
127.980995
0
LINE
8
ProjItem002
10
548.846346
20
127.980995
11
548.756000
21
127.300000
0
LINE
8
ProjItem002
10
548.756000
20
127.300000
11
548.846346
21
126.619005
0
LINE
8
ProjItem002
10
548.846346
20
126.619005
11
549.105674
21
125.995000
0
LINE
8
ProjItem002
10
549.105674
20
125.995000
11
549.516414
21
125.458413
0
LINE
8
ProjItem002
10
549.516414
20
125.458413
11
550.061000
21
125.039674
0
LINE
8
ProjItem002
10
550.061000
20
125.039674
11
550.695932
21
124.777418
0
LINE
8
ProjItem002
10
550.695932
20
124.777418
11
551.366000
21
124.690000
0
LINE
8
ProjItem002
10
551.366000
20
124.690000
11
552.036068
21
124.777418
0
LINE
8
ProjItem002
10
552.036068
20
124.777418
11
552.671000
21
125.039674
0
LINE
8
ProjItem002
10
552.671000
20
125.039674
11
553.215586
21
125.458413
0
LINE
8
ProjItem002
10
553.215586
20
125.458413
11
553.626326
21
125.995000
0
LINE
8
ProjItem002
10
553.626326
20
125.995000
11
553.885654
21
126.619005
0
LINE
8
ProjItem002
10
553.885654
20
126.619005
11
553.976000
21
127.300000
0
LINE
8
ProjItem002
10
553.976000
20
127.300000
11
553.976000
21
127.300000
0
LINE
8
ProjItem002
10
459.219000
20
183.300000
11
458.948290
21
184.309650
0
LINE
8
ProjItem002
10
458.948290
20
184.309650
11
458.209150
21
185.048765
0
LINE
8
ProjItem002
10
458.209150
20
185.048765
11
457.199500
21
185.319300
0
LINE
8
ProjItem002
10
457.199500
20
185.319300
11
456.189850
21
185.048765
0
LINE
8
ProjItem002
10
456.189850
20
185.048765
11
455.450735
21
184.309650
0
LINE
8
ProjItem002
10
455.450735
20
184.309650
11
455.180200
21
183.300000
0
LINE
8
ProjItem002
10
455.180200
20
183.300000
11
455.450822
21
182.290350
0
LINE
8
ProjItem002
10
455.450822
20
182.290350
11
456.189950
21
181.551235
0
LINE
8
ProjItem002
10
456.189950
20
181.551235
11
457.199600
21
181.280700
0
LINE
8
ProjItem002
10
457.199600
20
181.280700
11
458.209250
21
181.551235
0
LINE
8
ProjItem002
10
458.209250
20
181.551235
11
458.948365
21
182.290350
0
LINE
8
ProjItem002
10
458.948365
20
182.290350
11
459.218900
21
183.300000
0
LINE
8
ProjItem002
10
459.218900
20
183.300000
11
459.219000
21
183.300000
0
LINE
8
ProjItem002
10
609.809000
20
83.300300
11
609.603893
21
84.316230
0
LINE
8
ProjItem002
10
609.603893
20
84.316230
11
609.044549
21
85.145848
0
LINE
8
ProjItem002
10
609.044549
20
85.145848
11
608.214930
21
85.705193
0
LINE
8
ProjItem002
10
608.214930
20
85.705193
11
607.199000
21
85.910300
0
LINE
8
ProjItem002
10
607.199000
20
85.910300
11
606.183070
21
85.705193
0
LINE
8
ProjItem002
10
606.183070
20
85.705193
11
605.353451
21
85.145848
0
LINE
8
ProjItem002
10
605.353451
20
85.145848
11
604.794107
21
84.316230
0
LINE
8
ProjItem002
10
604.794107
20
84.316230
11
604.589000
21
83.300300
0
LINE
8
ProjItem002
10
604.589000
20
83.300300
11
604.794107
21
82.284370
0
LINE
8
ProjItem002
10
604.794107
20
82.284370
11
605.353451
21
81.454752
0
LINE
8
ProjItem002
10
605.353451
20
81.454752
11
606.183070
21
80.895407
0
LINE
8
ProjItem002
10
606.183070
20
80.895407
11
607.199000
21
80.690300
0
LINE
8
ProjItem002
10
607.199000
20
80.690300
11
608.214930
21
80.895407
0
LINE
8
ProjItem002
10
608.214930
20
80.895407
11
609.044549
21
81.454752
0
LINE
8
ProjItem002
10
609.044549
20
81.454752
11
609.603893
21
82.284370
0
LINE
8
ProjItem002
10
609.603893
20
82.284370
11
609.809000
21
83.300300
0
LINE
8
ProjItem002
10
609.809000
20
83.300300
11
609.809000
21
83.300300
0
LINE
8
ProjItem002
10
578.976000
20
127.300000
11
578.885654
21
127.980995
0
LINE
8
ProjItem002
10
578.885654
20
127.980995
11
578.626326
21
128.605000
0
LINE
8
ProjItem002
10
578.626326
20
128.605000
11
578.215586
21
129.141587
0
LINE
8
ProjItem002
10
578.215586
20
129.141587
11
577.671000
21
129.560326
0
LINE
8
ProjItem002
10
577.671000
20
129.560326
11
577.036068
21
129.822582
0
LINE
8
ProjItem002
10
577.036068
20
129.822582
11
576.366000
21
129.910000
0
LINE
8
ProjItem002
10
576.366000
20
129.910000
11
575.695932
21
129.822582
0
LINE
8
ProjItem002
10
575.695932
20
129.822582
11
575.061000
21
129.560326
0
LINE
8
ProjItem002
10
575.061000
20
129.560326
11
574.516414
21
129.141587
0
LINE
8
ProjItem002
10
574.516414
20
129.141587
11
574.105674
21
128.605000
0
LINE
8
ProjItem002
10
574.105674
20
128.605000
11
573.846346
21
127.980995
0
LINE
8
ProjItem002
10
573.846346
20
127.980995
11
573.756000
21
127.300000
0
LINE
8
ProjItem002
10
573.756000
20
127.300000
11
573.846346
21
126.619005
0
LINE
8
ProjItem002
10
573.846346
20
126.619005
11
574.105674
21
125.995000
0
LINE
8
ProjItem002
10
574.105674
20
125.995000
11
574.516414
21
125.458413
0
LINE
8
ProjItem002
10
574.516414
20
125.458413
11
575.061000
21
125.039674
0
LINE
8
ProjItem002
10
575.061000
20
125.039674
11
575.695932
21
124.777418
0
LINE
8
ProjItem002
10
575.695932
20
124.777418
11
576.366000
21
124.690000
0
LINE
8
ProjItem002
10
576.366000
20
124.690000
11
577.036068
21
124.777418
0
LINE
8
ProjItem002
10
577.036068
20
124.777418
11
577.671000
21
125.039674
0
LINE
8
ProjItem002
10
577.671000
20
125.039674
11
578.215586
21
125.458413
0
LINE
8
ProjItem002
10
578.215586
20
125.458413
11
578.626326
21
125.995000
0
LINE
8
ProjItem002
10
578.626326
20
125.995000
11
578.885654
21
126.619005
0
LINE
8
ProjItem002
10
578.885654
20
126.619005
11
578.976000
21
127.300000
0
LINE
8
ProjItem002
10
578.976000
20
127.300000
11
578.976000
21
127.300000
0
LINE
8
ProjItem002
10
607.309000
20
127.300000
11
607.103893
21
128.315930
0
LINE
8
ProjItem002
10
607.103893
20
128.315930
11
606.544549
21
129.145548
0
LINE
8
ProjItem002
10
606.544549
20
129.145548
11
605.714930
21
129.704893
0
LINE
8
ProjItem002
10
605.714930
20
129.704893
11
604.699000
21
129.910000
0
LINE
8
ProjItem002
10
604.699000
20
129.910000
11
603.683070
21
129.704893
0
LINE
8
ProjItem002
10
603.683070
20
129.704893
11
602.853451
21
129.145548
0
LINE
8
ProjItem002
10
602.853451
20
129.145548
11
602.294107
21
128.315930
0
LINE
8
ProjItem002
10
602.294107
20
128.315930
11
602.089000
21
127.300000
0
LINE
8
ProjItem002
10
602.089000
20
127.300000
11
602.294107
21
126.284070
0
LINE
8
ProjItem002
10
602.294107
20
126.284070
11
602.853451
21
125.454452
0
LINE
8
ProjItem002
10
602.853451
20
125.454452
11
603.683070
21
124.895107
0
LINE
8
ProjItem002
10
603.683070
20
124.895107
11
604.699000
21
124.690000
0
LINE
8
ProjItem002
10
604.699000
20
124.690000
11
605.714930
21
124.895107
0
LINE
8
ProjItem002
10
605.714930
20
124.895107
11
606.544549
21
125.454452
0
LINE
8
ProjItem002
10
606.544549
20
125.454452
11
607.103893
21
126.284070
0
LINE
8
ProjItem002
10
607.103893
20
126.284070
11
607.309000
21
127.300000
0
LINE
8
ProjItem002
10
607.309000
20
127.300000
11
607.309000
21
127.300000
0
LINE
8
ProjItem002
10
632.309000
20
127.300000
11
632.103893
21
128.315930
0
LINE
8
ProjItem002
10
632.103893
20
128.315930
11
631.544549
21
129.145548
0
LINE
8
ProjItem002
10
631.544549
20
129.145548
11
630.714930
21
129.704893
0
LINE
8
ProjItem002
10
630.714930
20
129.704893
11
629.699000
21
129.910000
0
LINE
8
ProjItem002
10
629.699000
20
129.910000
11
628.683070
21
129.704893
0
LINE
8
ProjItem002
10
628.683070
20
129.704893
11
627.853451
21
129.145548
0
LINE
8
ProjItem002
10
627.853451
20
129.145548
11
627.294107
21
128.315930
0
LINE
8
ProjItem002
10
627.294107
20
128.315930
11
627.089000
21
127.300000
0
LINE
8
ProjItem002
10
627.089000
20
127.300000
11
627.179346
21
126.619005
0
LINE
8
ProjItem002
10
627.179346
20
126.619005
11
627.438674
21
125.995000
0
LINE
8
ProjItem002
10
627.438674
20
125.995000
11
627.849414
21
125.458413
0
LINE
8
ProjItem002
10
627.849414
20
125.458413
11
628.394000
21
125.039674
0
LINE
8
ProjItem002
10
628.394000
20
125.039674
11
629.028932
21
124.777418
0
LINE
8
ProjItem002
10
629.028932
20
124.777418
11
629.699000
21
124.690000
0
LINE
8
ProjItem002
10
629.699000
20
124.690000
11
630.369068
21
124.777418
0
LINE
8
ProjItem002
10
630.369068
20
124.777418
11
631.004000
21
125.039674
0
LINE
8
ProjItem002
10
631.004000
20
125.039674
11
631.548586
21
125.458413
0
LINE
8
ProjItem002
10
631.548586
20
125.458413
11
631.959326
21
125.995000
0
LINE
8
ProjItem002
10
631.959326
20
125.995000
11
632.218654
21
126.619005
0
LINE
8
ProjItem002
10
632.218654
20
126.619005
11
632.309000
21
127.300000
0
LINE
8
ProjItem002
10
632.309000
20
127.300000
11
632.309000
21
127.300000
0
LINE
8
ProjItem002
10
669.809000
20
133.300000
11
669.603893
21
134.315930
0
LINE
8
ProjItem002
10
669.603893
20
134.315930
11
669.044548
21
135.145548
0
LINE
8
ProjItem002
10
669.044548
20
135.145548
11
668.214930
21
135.704893
0
LINE
8
ProjItem002
10
668.214930
20
135.704893
11
667.199000
21
135.909999
0
LINE
8
ProjItem002
10
667.199000
20
135.909999
11
666.183070
21
135.704893
0
LINE
8
ProjItem002
10
666.183070
20
135.704893
11
665.353452
21
135.145548
0
LINE
8
ProjItem002
10
665.353452
20
135.145548
11
664.794107
21
134.315930
0
LINE
8
ProjItem002
10
664.794107
20
134.315930
11
664.589000
21
133.300000
0
LINE
8
ProjItem002
10
664.589000
20
133.300000
11
664.794107
21
132.284070
0
LINE
8
ProjItem002
10
664.794107
20
132.284070
11
665.353452
21
131.454452
0
LINE
8
ProjItem002
10
665.353452
20
131.454452
11
666.183070
21
130.895107
0
LINE
8
ProjItem002
10
666.183070
20
130.895107
11
667.199000
21
130.690001
0
LINE
8
ProjItem002
10
667.199000
20
130.690001
11
668.214930
21
130.895107
0
LINE
8
ProjItem002
10
668.214930
20
130.895107
11
669.044548
21
131.454452
0
LINE
8
ProjItem002
10
669.044548
20
131.454452
11
669.603893
21
132.284070
0
LINE
8
ProjItem002
10
669.603893
20
132.284070
11
669.809000
21
133.300000
0
LINE
8
ProjItem002
10
669.809000
20
133.300000
11
669.809000
21
133.300000
0
LINE
8
ProjItem002
10
669.809000
20
183.300000
11
669.603893
21
184.315930
0
LINE
8
ProjItem002
10
669.603893
20
184.315930
11
669.044548
21
185.145548
0
LINE
8
ProjItem002
10
669.044548
20
185.145548
11
668.214930
21
185.704893
0
LINE
8
ProjItem002
10
668.214930
20
185.704893
11
667.199000
21
185.909999
0
LINE
8
ProjItem002
10
667.199000
20
185.909999
11
666.183070
21
185.704893
0
LINE
8
ProjItem002
10
666.183070
20
185.704893
11
665.353452
21
185.145548
0
LINE
8
ProjItem002
10
665.353452
20
185.145548
11
664.794107
21
184.315930
0
LINE
8
ProjItem002
10
664.794107
20
184.315930
11
664.589000
21
183.300000
0
LINE
8
ProjItem002
10
664.589000
20
183.300000
11
664.794107
21
182.284070
0
LINE
8
ProjItem002
10
664.794107
20
182.284070
11
665.353452
21
181.454452
0
LINE
8
ProjItem002
10
665.353452
20
181.454452
11
666.183070
21
180.895107
0
LINE
8
ProjItem002
10
666.183070
20
180.895107
11
667.199000
21
180.690001
0
LINE
8
ProjItem002
10
667.199000
20
180.690001
11
668.214930
21
180.895107
0
LINE
8
ProjItem002
10
668.214930
20
180.895107
11
669.044548
21
181.454452
0
LINE
8
ProjItem002
10
669.044548
20
181.454452
11
669.603893
21
182.284070
0
LINE
8
ProjItem002
10
669.603893
20
182.284070
11
669.809000
21
183.300000
0
LINE
8
ProjItem002
10
669.809000
20
183.300000
11
669.809000
21
183.300000
0
LINE
8
ProjItem002
10
459.219000
20
233.300000
11
458.948290
21
234.309650
0
LINE
8
ProjItem002
10
458.948290
20
234.309650
11
458.209150
21
235.048765
0
LINE
8
ProjItem002
10
458.209150
20
235.048765
11
457.199500
21
235.319300
0
LINE
8
ProjItem002
10
457.199500
20
235.319300
11
456.189850
21
235.048765
0
LINE
8
ProjItem002
10
456.189850
20
235.048765
11
455.450735
21
234.309650
0
LINE
8
ProjItem002
10
455.450735
20
234.309650
11
455.180200
21
233.300000
0
LINE
8
ProjItem002
10
455.180200
20
233.300000
11
455.450822
21
232.290350
0
LINE
8
ProjItem002
10
455.450822
20
232.290350
11
456.189950
21
231.551235
0
LINE
8
ProjItem002
10
456.189950
20
231.551235
11
457.199600
21
231.280700
0
LINE
8
ProjItem002
10
457.199600
20
231.280700
11
458.209250
21
231.551235
0
LINE
8
ProjItem002
10
458.209250
20
231.551235
11
458.948365
21
232.290350
0
LINE
8
ProjItem002
10
458.948365
20
232.290350
11
459.218900
21
233.300000
0
LINE
8
ProjItem002
10
459.218900
20
233.300000
11
459.219000
21
233.300000
0
LINE
8
ProjItem002
10
459.219000
20
283.300000
11
458.948290
21
284.309650
0
LINE
8
ProjItem002
10
458.948290
20
284.309650
11
458.209150
21
285.048765
0
LINE
8
ProjItem002
10
458.209150
20
285.048765
11
457.199500
21
285.319300
0
LINE
8
ProjItem002
10
457.199500
20
285.319300
11
456.189850
21
285.048765
0
LINE
8
ProjItem002
10
456.189850
20
285.048765
11
455.450735
21
284.309650
0
LINE
8
ProjItem002
10
455.450735
20
284.309650
11
455.180200
21
283.300000
0
LINE
8
ProjItem002
10
455.180200
20
283.300000
11
455.450822
21
282.290350
0
LINE
8
ProjItem002
10
455.450822
20
282.290350
11
456.189950
21
281.551235
0
LINE
8
ProjItem002
10
456.189950
20
281.551235
11
457.199600
21
281.280700
0
LINE
8
ProjItem002
10
457.199600
20
281.280700
11
458.209250
21
281.551235
0
LINE
8
ProjItem002
10
458.209250
20
281.551235
11
458.948365
21
282.290350
0
LINE
8
ProjItem002
10
458.948365
20
282.290350
11
459.218900
21
283.300000
0
LINE
8
ProjItem002
10
459.218900
20
283.300000
11
459.219000
21
283.300000
0
LINE
8
ProjItem002
10
669.809000
20
233.300000
11
669.603893
21
234.315930
0
LINE
8
ProjItem002
10
669.603893
20
234.315930
11
669.044548
21
235.145548
0
LINE
8
ProjItem002
10
669.044548
20
235.145548
11
668.214930
21
235.704893
0
LINE
8
ProjItem002
10
668.214930
20
235.704893
11
667.199000
21
235.909999
0
LINE
8
ProjItem002
10
667.199000
20
235.909999
11
666.183070
21
235.704893
0
LINE
8
ProjItem002
10
666.183070
20
235.704893
11
665.353452
21
235.145548
0
LINE
8
ProjItem002
10
665.353452
20
235.145548
11
664.794107
21
234.315930
0
LINE
8
ProjItem002
10
664.794107
20
234.315930
11
664.589000
21
233.300000
0
LINE
8
ProjItem002
10
664.589000
20
233.300000
11
664.794107
21
232.284070
0
LINE
8
ProjItem002
10
664.794107
20
232.284070
11
665.353452
21
231.454452
0
LINE
8
ProjItem002
10
665.353452
20
231.454452
11
666.183070
21
230.895107
0
LINE
8
ProjItem002
10
666.183070
20
230.895107
11
667.199000
21
230.690001
0
LINE
8
ProjItem002
10
667.199000
20
230.690001
11
668.214930
21
230.895107
0
LINE
8
ProjItem002
10
668.214930
20
230.895107
11
669.044548
21
231.454452
0
LINE
8
ProjItem002
10
669.044548
20
231.454452
11
669.603893
21
232.284070
0
LINE
8
ProjItem002
10
669.603893
20
232.284070
11
669.809000
21
233.300000
0
LINE
8
ProjItem002
10
669.809000
20
233.300000
11
669.809000
21
233.300000
0
LINE
8
ProjItem002
10
669.809000
20
283.300000
11
669.603893
21
284.315930
0
LINE
8
ProjItem002
10
669.603893
20
284.315930
11
669.044548
21
285.145548
0
LINE
8
ProjItem002
10
669.044548
20
285.145548
11
668.214930
21
285.704893
0
LINE
8
ProjItem002
10
668.214930
20
285.704893
11
667.199000
21
285.909999
0
LINE
8
ProjItem002
10
667.199000
20
285.909999
11
666.183070
21
285.704893
0
LINE
8
ProjItem002
10
666.183070
20
285.704893
11
665.353452
21
285.145548
0
LINE
8
ProjItem002
10
665.353452
20
285.145548
11
664.794107
21
284.315930
0
LINE
8
ProjItem002
10
664.794107
20
284.315930
11
664.589000
21
283.300000
0
LINE
8
ProjItem002
10
664.589000
20
283.300000
11
664.794107
21
282.284070
0
LINE
8
ProjItem002
10
664.794107
20
282.284070
11
665.353452
21
281.454452
0
LINE
8
ProjItem002
10
665.353452
20
281.454452
11
666.183070
21
280.895107
0
LINE
8
ProjItem002
10
666.183070
20
280.895107
11
667.199000
21
280.690001
0
LINE
8
ProjItem002
10
667.199000
20
280.690001
11
668.214930
21
280.895107
0
LINE
8
ProjItem002
10
668.214930
20
280.895107
11
669.044548
21
281.454452
0
LINE
8
ProjItem002
10
669.044548
20
281.454452
11
669.603893
21
282.284070
0
LINE
8
ProjItem002
10
669.603893
20
282.284070
11
669.809000
21
283.300000
0
LINE
8
ProjItem002
10
669.809000
20
283.300000
11
669.809000
21
283.300000
0
LINE
8
ProjItem002
10
249.810000
20
333.300000
11
249.719654
21
333.980995
0
LINE
8
ProjItem002
10
249.719654
20
333.980995
11
249.460326
21
334.605000
0
LINE
8
ProjItem002
10
249.460326
20
334.605000
11
249.049586
21
335.141587
0
LINE
8
ProjItem002
10
249.049586
20
335.141587
11
248.505000
21
335.560326
0
LINE
8
ProjItem002
10
248.505000
20
335.560326
11
247.870068
21
335.822582
0
LINE
8
ProjItem002
10
247.870068
20
335.822582
11
247.200000
21
335.910000
0
LINE
8
ProjItem002
10
247.200000
20
335.910000
11
246.529932
21
335.822582
0
LINE
8
ProjItem002
10
246.529932
20
335.822582
11
245.895000
21
335.560326
0
LINE
8
ProjItem002
10
245.895000
20
335.560326
11
245.350414
21
335.141587
0
LINE
8
ProjItem002
10
245.350414
20
335.141587
11
244.939674
21
334.605000
0
LINE
8
ProjItem002
10
244.939674
20
334.605000
11
244.680346
21
333.980995
0
LINE
8
ProjItem002
10
244.680346
20
333.980995
11
244.590000
21
333.300000
0
LINE
8
ProjItem002
10
244.590000
20
333.300000
11
244.680346
21
332.619005
0
LINE
8
ProjItem002
10
244.680346
20
332.619005
11
244.939674
21
331.995000
0
LINE
8
ProjItem002
10
244.939674
20
331.995000
11
245.350414
21
331.458413
0
LINE
8
ProjItem002
10
245.350414
20
331.458413
11
245.895000
21
331.039674
0
LINE
8
ProjItem002
10
245.895000
20
331.039674
11
246.529932
21
330.777418
0
LINE
8
ProjItem002
10
246.529932
20
330.777418
11
247.200000
21
330.690000
0
LINE
8
ProjItem002
10
247.200000
20
330.690000
11
247.870068
21
330.777418
0
LINE
8
ProjItem002
10
247.870068
20
330.777418
11
248.505000
21
331.039674
0
LINE
8
ProjItem002
10
248.505000
20
331.039674
11
249.049586
21
331.458413
0
LINE
8
ProjItem002
10
249.049586
20
331.458413
11
249.460326
21
331.995000
0
LINE
8
ProjItem002
10
249.460326
20
331.995000
11
249.719654
21
332.619005
0
LINE
8
ProjItem002
10
249.719654
20
332.619005
11
249.810000
21
333.300000
0
LINE
8
ProjItem002
10
249.810000
20
333.300000
11
249.810000
21
333.300000
0
LINE
8
ProjItem002
10
299.810000
20
348.300000
11
299.719654
21
348.980995
0
LINE
8
ProjItem002
10
299.719654
20
348.980995
11
299.460326
21
349.605000
0
LINE
8
ProjItem002
10
299.460326
20
349.605000
11
299.049586
21
350.141587
0
LINE
8
ProjItem002
10
299.049586
20
350.141587
11
298.505000
21
350.560326
0
LINE
8
ProjItem002
10
298.505000
20
350.560326
11
297.870068
21
350.822582
0
LINE
8
ProjItem002
10
297.870068
20
350.822582
11
297.200000
21
350.910000
0
LINE
8
ProjItem002
10
297.200000
20
350.910000
11
296.529932
21
350.822582
0
LINE
8
ProjItem002
10
296.529932
20
350.822582
11
295.895000
21
350.560326
0
LINE
8
ProjItem002
10
295.895000
20
350.560326
11
295.350414
21
350.141587
0
LINE
8
ProjItem002
10
295.350414
20
350.141587
11
294.939674
21
349.605000
0
LINE
8
ProjItem002
10
294.939674
20
349.605000
11
294.680346
21
348.980995
0
LINE
8
ProjItem002
10
294.680346
20
348.980995
11
294.590000
21
348.300000
0
LINE
8
ProjItem002
10
294.590000
20
348.300000
11
294.680346
21
347.619005
0
LINE
8
ProjItem002
10
294.680346
20
347.619005
11
294.939674
21
346.995000
0
LINE
8
ProjItem002
10
294.939674
20
346.995000
11
295.350414
21
346.458413
0
LINE
8
ProjItem002
10
295.350414
20
346.458413
11
295.895000
21
346.039674
0
LINE
8
ProjItem002
10
295.895000
20
346.039674
11
296.529932
21
345.777418
0
LINE
8
ProjItem002
10
296.529932
20
345.777418
11
297.200000
21
345.690000
0
LINE
8
ProjItem002
10
297.200000
20
345.690000
11
297.870068
21
345.777418
0
LINE
8
ProjItem002
10
297.870068
20
345.777418
11
298.505000
21
346.039674
0
LINE
8
ProjItem002
10
298.505000
20
346.039674
11
299.049586
21
346.458413
0
LINE
8
ProjItem002
10
299.049586
20
346.458413
11
299.460326
21
346.995000
0
LINE
8
ProjItem002
10
299.460326
20
346.995000
11
299.719654
21
347.619005
0
LINE
8
ProjItem002
10
299.719654
20
347.619005
11
299.810000
21
348.300000
0
LINE
8
ProjItem002
10
299.810000
20
348.300000
11
299.810000
21
348.300000
0
LINE
8
ProjItem002
10
353.143000
20
348.300000
11
352.937893
21
349.315930
0
LINE
8
ProjItem002
10
352.937893
20
349.315930
11
352.378549
21
350.145548
0
LINE
8
ProjItem002
10
352.378549
20
350.145548
11
351.548930
21
350.704893
0
LINE
8
ProjItem002
10
351.548930
20
350.704893
11
350.533000
21
350.910000
0
LINE
8
ProjItem002
10
350.533000
20
350.910000
11
349.517070
21
350.704893
0
LINE
8
ProjItem002
10
349.517070
20
350.704893
11
348.687451
21
350.145548
0
LINE
8
ProjItem002
10
348.687451
20
350.145548
11
348.128107
21
349.315930
0
LINE
8
ProjItem002
10
348.128107
20
349.315930
11
347.923000
21
348.300000
0
LINE
8
ProjItem002
10
347.923000
20
348.300000
11
348.013346
21
347.619005
0
LINE
8
ProjItem002
10
348.013346
20
347.619005
11
348.272674
21
346.995000
0
LINE
8
ProjItem002
10
348.272674
20
346.995000
11
348.683414
21
346.458413
0
LINE
8
ProjItem002
10
348.683414
20
346.458413
11
349.228000
21
346.039674
0
LINE
8
ProjItem002
10
349.228000
20
346.039674
11
349.862932
21
345.777418
0
LINE
8
ProjItem002
10
349.862932
20
345.777418
11
350.533000
21
345.690000
0
LINE
8
ProjItem002
10
350.533000
20
345.690000
11
351.203068
21
345.777418
0
LINE
8
ProjItem002
10
351.203068
20
345.777418
11
351.838000
21
346.039674
0
LINE
8
ProjItem002
10
351.838000
20
346.039674
11
352.382586
21
346.458413
0
LINE
8
ProjItem002
10
352.382586
20
346.458413
11
352.793326
21
346.995000
0
LINE
8
ProjItem002
10
352.793326
20
346.995000
11
353.052654
21
347.619005
0
LINE
8
ProjItem002
10
353.052654
20
347.619005
11
353.143000
21
348.300000
0
LINE
8
ProjItem002
10
353.143000
20
348.300000
11
353.143000
21
348.300000
0
LINE
8
ProjItem002
10
249.810000
20
383.300000
11
249.719654
21
383.980995
0
LINE
8
ProjItem002
10
249.719654
20
383.980995
11
249.460326
21
384.605000
0
LINE
8
ProjItem002
10
249.460326
20
384.605000
11
249.049586
21
385.141587
0
LINE
8
ProjItem002
10
249.049586
20
385.141587
11
248.505000
21
385.560326
0
LINE
8
ProjItem002
10
248.505000
20
385.560326
11
247.870068
21
385.822582
0
LINE
8
ProjItem002
10
247.870068
20
385.822582
11
247.200000
21
385.910000
0
LINE
8
ProjItem002
10
247.200000
20
385.910000
11
246.529932
21
385.822582
0
LINE
8
ProjItem002
10
246.529932
20
385.822582
11
245.895000
21
385.560326
0
LINE
8
ProjItem002
10
245.895000
20
385.560326
11
245.350414
21
385.141587
0
LINE
8
ProjItem002
10
245.350414
20
385.141587
11
244.939674
21
384.605000
0
LINE
8
ProjItem002
10
244.939674
20
384.605000
11
244.680346
21
383.980995
0
LINE
8
ProjItem002
10
244.680346
20
383.980995
11
244.590000
21
383.300000
0
LINE
8
ProjItem002
10
244.590000
20
383.300000
11
244.680346
21
382.619005
0
LINE
8
ProjItem002
10
244.680346
20
382.619005
11
244.939674
21
381.995000
0
LINE
8
ProjItem002
10
244.939674
20
381.995000
11
245.350414
21
381.458413
0
LINE
8
ProjItem002
10
245.350414
20
381.458413
11
245.895000
21
381.039674
0
LINE
8
ProjItem002
10
245.895000
20
381.039674
11
246.529932
21
380.777418
0
LINE
8
ProjItem002
10
246.529932
20
380.777418
11
247.200000
21
380.690000
0
LINE
8
ProjItem002
10
247.200000
20
380.690000
11
247.870068
21
380.777418
0
LINE
8
ProjItem002
10
247.870068
20
380.777418
11
248.505000
21
381.039674
0
LINE
8
ProjItem002
10
248.505000
20
381.039674
11
249.049586
21
381.458413
0
LINE
8
ProjItem002
10
249.049586
20
381.458413
11
249.460326
21
381.995000
0
LINE
8
ProjItem002
10
249.460326
20
381.995000
11
249.719654
21
382.619005
0
LINE
8
ProjItem002
10
249.719654
20
382.619005
11
249.810000
21
383.300000
0
LINE
8
ProjItem002
10
249.810000
20
383.300000
11
249.810000
21
383.300000
0
LINE
8
ProjItem002
10
406.476000
20
348.300000
11
406.385654
21
348.980995
0
LINE
8
ProjItem002
10
406.385654
20
348.980995
11
406.126326
21
349.605000
0
LINE
8
ProjItem002
10
406.126326
20
349.605000
11
405.715586
21
350.141587
0
LINE
8
ProjItem002
10
405.715586
20
350.141587
11
405.171000
21
350.560326
0
LINE
8
ProjItem002
10
405.171000
20
350.560326
11
404.536068
21
350.822582
0
LINE
8
ProjItem002
10
404.536068
20
350.822582
11
403.866000
21
350.910000
0
LINE
8
ProjItem002
10
403.866000
20
350.910000
11
403.195932
21
350.822582
0
LINE
8
ProjItem002
10
403.195932
20
350.822582
11
402.561000
21
350.560326
0
LINE
8
ProjItem002
10
402.561000
20
350.560326
11
402.016414
21
350.141587
0
LINE
8
ProjItem002
10
402.016414
20
350.141587
11
401.605674
21
349.605000
0
LINE
8
ProjItem002
10
401.605674
20
349.605000
11
401.346346
21
348.980995
0
LINE
8
ProjItem002
10
401.346346
20
348.980995
11
401.256000
21
348.300000
0
LINE
8
ProjItem002
10
401.256000
20
348.300000
11
401.346346
21
347.619005
0
LINE
8
ProjItem002
10
401.346346
20
347.619005
11
401.605674
21
346.995000
0
LINE
8
ProjItem002
10
401.605674
20
346.995000
11
402.016414
21
346.458413
0
LINE
8
ProjItem002
10
402.016414
20
346.458413
11
402.561000
21
346.039674
0
LINE
8
ProjItem002
10
402.561000
20
346.039674
11
403.195932
21
345.777418
0
LINE
8
ProjItem002
10
403.195932
20
345.777418
11
403.866000
21
345.690000
0
LINE
8
ProjItem002
10
403.866000
20
345.690000
11
404.536068
21
345.777418
0
LINE
8
ProjItem002
10
404.536068
20
345.777418
11
405.171000
21
346.039674
0
LINE
8
ProjItem002
10
405.171000
20
346.039674
11
405.715586
21
346.458413
0
LINE
8
ProjItem002
10
405.715586
20
346.458413
11
406.126326
21
346.995000
0
LINE
8
ProjItem002
10
406.126326
20
346.995000
11
406.385654
21
347.619005
0
LINE
8
ProjItem002
10
406.385654
20
347.619005
11
406.476000
21
348.300000
0
LINE
8
ProjItem002
10
406.476000
20
348.300000
11
406.476000
21
348.300000
0
LINE
8
ProjItem002
10
249.810000
20
433.300000
11
249.719654
21
433.980995
0
LINE
8
ProjItem002
10
249.719654
20
433.980995
11
249.460326
21
434.605000
0
LINE
8
ProjItem002
10
249.460326
20
434.605000
11
249.049586
21
435.141587
0
LINE
8
ProjItem002
10
249.049586
20
435.141587
11
248.505000
21
435.560326
0
LINE
8
ProjItem002
10
248.505000
20
435.560326
11
247.870068
21
435.822582
0
LINE
8
ProjItem002
10
247.870068
20
435.822582
11
247.200000
21
435.910000
0
LINE
8
ProjItem002
10
247.200000
20
435.910000
11
246.529932
21
435.822582
0
LINE
8
ProjItem002
10
246.529932
20
435.822582
11
245.895000
21
435.560326
0
LINE
8
ProjItem002
10
245.895000
20
435.560326
11
245.350414
21
435.141587
0
LINE
8
ProjItem002
10
245.350414
20
435.141587
11
244.939674
21
434.605000
0
LINE
8
ProjItem002
10
244.939674
20
434.605000
11
244.680346
21
433.980995
0
LINE
8
ProjItem002
10
244.680346
20
433.980995
11
244.590000
21
433.300000
0
LINE
8
ProjItem002
10
244.590000
20
433.300000
11
244.680346
21
432.619005
0
LINE
8
ProjItem002
10
244.680346
20
432.619005
11
244.939674
21
431.995000
0
LINE
8
ProjItem002
10
244.939674
20
431.995000
11
245.350414
21
431.458413
0
LINE
8
ProjItem002
10
245.350414
20
431.458413
11
245.895000
21
431.039674
0
LINE
8
ProjItem002
10
245.895000
20
431.039674
11
246.529932
21
430.777418
0
LINE
8
ProjItem002
10
246.529932
20
430.777418
11
247.200000
21
430.690000
0
LINE
8
ProjItem002
10
247.200000
20
430.690000
11
247.870068
21
430.777418
0
LINE
8
ProjItem002
10
247.870068
20
430.777418
11
248.505000
21
431.039674
0
LINE
8
ProjItem002
10
248.505000
20
431.039674
11
249.049586
21
431.458413
0
LINE
8
ProjItem002
10
249.049586
20
431.458413
11
249.460326
21
431.995000
0
LINE
8
ProjItem002
10
249.460326
20
431.995000
11
249.719654
21
432.619005
0
LINE
8
ProjItem002
10
249.719654
20
432.619005
11
249.810000
21
433.300000
0
LINE
8
ProjItem002
10
249.810000
20
433.300000
11
249.810000
21
433.300000
0
LINE
8
ProjItem002
10
249.810000
20
483.300000
11
249.719654
21
483.980995
0
LINE
8
ProjItem002
10
249.719654
20
483.980995
11
249.460326
21
484.605000
0
LINE
8
ProjItem002
10
249.460326
20
484.605000
11
249.049586
21
485.141587
0
LINE
8
ProjItem002
10
249.049586
20
485.141587
11
248.505000
21
485.560326
0
LINE
8
ProjItem002
10
248.505000
20
485.560326
11
247.870068
21
485.822582
0
LINE
8
ProjItem002
10
247.870068
20
485.822582
11
247.200000
21
485.910000
0
LINE
8
ProjItem002
10
247.200000
20
485.910000
11
246.529932
21
485.822582
0
LINE
8
ProjItem002
10
246.529932
20
485.822582
11
245.895000
21
485.560326
0
LINE
8
ProjItem002
10
245.895000
20
485.560326
11
245.350414
21
485.141587
0
LINE
8
ProjItem002
10
245.350414
20
485.141587
11
244.939674
21
484.605000
0
LINE
8
ProjItem002
10
244.939674
20
484.605000
11
244.680346
21
483.980995
0
LINE
8
ProjItem002
10
244.680346
20
483.980995
11
244.590000
21
483.300000
0
LINE
8
ProjItem002
10
244.590000
20
483.300000
11
244.680346
21
482.619005
0
LINE
8
ProjItem002
10
244.680346
20
482.619005
11
244.939674
21
481.995000
0
LINE
8
ProjItem002
10
244.939674
20
481.995000
11
245.350414
21
481.458413
0
LINE
8
ProjItem002
10
245.350414
20
481.458413
11
245.895000
21
481.039674
0
LINE
8
ProjItem002
10
245.895000
20
481.039674
11
246.529932
21
480.777418
0
LINE
8
ProjItem002
10
246.529932
20
480.777418
11
247.200000
21
480.690000
0
LINE
8
ProjItem002
10
247.200000
20
480.690000
11
247.870068
21
480.777418
0
LINE
8
ProjItem002
10
247.870068
20
480.777418
11
248.505000
21
481.039674
0
LINE
8
ProjItem002
10
248.505000
20
481.039674
11
249.049586
21
481.458413
0
LINE
8
ProjItem002
10
249.049586
20
481.458413
11
249.460326
21
481.995000
0
LINE
8
ProjItem002
10
249.460326
20
481.995000
11
249.719654
21
482.619005
0
LINE
8
ProjItem002
10
249.719654
20
482.619005
11
249.810000
21
483.300000
0
LINE
8
ProjItem002
10
249.810000
20
483.300000
11
249.810000
21
483.300000
0
LINE
8
ProjItem002
10
309.810000
20
526.300000
11
309.719654
21
526.980995
0
LINE
8
ProjItem002
10
309.719654
20
526.980995
11
309.460326
21
527.605000
0
LINE
8
ProjItem002
10
309.460326
20
527.605000
11
309.049586
21
528.141587
0
LINE
8
ProjItem002
10
309.049586
20
528.141587
11
308.505000
21
528.560326
0
LINE
8
ProjItem002
10
308.505000
20
528.560326
11
307.870068
21
528.822582
0
LINE
8
ProjItem002
10
307.870068
20
528.822582
11
307.200000
21
528.910000
0
LINE
8
ProjItem002
10
307.200000
20
528.910000
11
306.529932
21
528.822582
0
LINE
8
ProjItem002
10
306.529932
20
528.822582
11
305.895000
21
528.560326
0
LINE
8
ProjItem002
10
305.895000
20
528.560326
11
305.350414
21
528.141587
0
LINE
8
ProjItem002
10
305.350414
20
528.141587
11
304.939674
21
527.605000
0
LINE
8
ProjItem002
10
304.939674
20
527.605000
11
304.680346
21
526.980995
0
LINE
8
ProjItem002
10
304.680346
20
526.980995
11
304.590000
21
526.300000
0
LINE
8
ProjItem002
10
304.590000
20
526.300000
11
304.680346
21
525.619005
0
LINE
8
ProjItem002
10
304.680346
20
525.619005
11
304.939674
21
524.995000
0
LINE
8
ProjItem002
10
304.939674
20
524.995000
11
305.350414
21
524.458413
0
LINE
8
ProjItem002
10
305.350414
20
524.458413
11
305.895000
21
524.039674
0
LINE
8
ProjItem002
10
305.895000
20
524.039674
11
306.529932
21
523.777418
0
LINE
8
ProjItem002
10
306.529932
20
523.777418
11
307.200000
21
523.690000
0
LINE
8
ProjItem002
10
307.200000
20
523.690000
11
307.870068
21
523.777418
0
LINE
8
ProjItem002
10
307.870068
20
523.777418
11
308.505000
21
524.039674
0
LINE
8
ProjItem002
10
308.505000
20
524.039674
11
309.049586
21
524.458413
0
LINE
8
ProjItem002
10
309.049586
20
524.458413
11
309.460326
21
524.995000
0
LINE
8
ProjItem002
10
309.460326
20
524.995000
11
309.719654
21
525.619005
0
LINE
8
ProjItem002
10
309.719654
20
525.619005
11
309.810000
21
526.300000
0
LINE
8
ProjItem002
10
309.810000
20
526.300000
11
309.810000
21
526.300000
0
LINE
8
ProjItem002
10
359.810000
20
526.300000
11
359.719654
21
526.980995
0
LINE
8
ProjItem002
10
359.719654
20
526.980995
11
359.460326
21
527.605000
0
LINE
8
ProjItem002
10
359.460326
20
527.605000
11
359.049586
21
528.141587
0
LINE
8
ProjItem002
10
359.049586
20
528.141587
11
358.505000
21
528.560326
0
LINE
8
ProjItem002
10
358.505000
20
528.560326
11
357.870068
21
528.822582
0
LINE
8
ProjItem002
10
357.870068
20
528.822582
11
357.200000
21
528.910000
0
LINE
8
ProjItem002
10
357.200000
20
528.910000
11
356.529932
21
528.822582
0
LINE
8
ProjItem002
10
356.529932
20
528.822582
11
355.895000
21
528.560326
0
LINE
8
ProjItem002
10
355.895000
20
528.560326
11
355.350414
21
528.141587
0
LINE
8
ProjItem002
10
355.350414
20
528.141587
11
354.939674
21
527.605000
0
LINE
8
ProjItem002
10
354.939674
20
527.605000
11
354.680346
21
526.980995
0
LINE
8
ProjItem002
10
354.680346
20
526.980995
11
354.590000
21
526.300000
0
LINE
8
ProjItem002
10
354.590000
20
526.300000
11
354.680346
21
525.619005
0
LINE
8
ProjItem002
10
354.680346
20
525.619005
11
354.939674
21
524.995000
0
LINE
8
ProjItem002
10
354.939674
20
524.995000
11
355.350414
21
524.458413
0
LINE
8
ProjItem002
10
355.350414
20
524.458413
11
355.895000
21
524.039674
0
LINE
8
ProjItem002
10
355.895000
20
524.039674
11
356.529932
21
523.777418
0
LINE
8
ProjItem002
10
356.529932
20
523.777418
11
357.200000
21
523.690000
0
LINE
8
ProjItem002
10
357.200000
20
523.690000
11
357.870068
21
523.777418
0
LINE
8
ProjItem002
10
357.870068
20
523.777418
11
358.505000
21
524.039674
0
LINE
8
ProjItem002
10
358.505000
20
524.039674
11
359.049586
21
524.458413
0
LINE
8
ProjItem002
10
359.049586
20
524.458413
11
359.460326
21
524.995000
0
LINE
8
ProjItem002
10
359.460326
20
524.995000
11
359.719654
21
525.619005
0
LINE
8
ProjItem002
10
359.719654
20
525.619005
11
359.810000
21
526.300000
0
LINE
8
ProjItem002
10
359.810000
20
526.300000
11
359.810000
21
526.300000
0
LINE
8
ProjItem002
10
409.809000
20
526.300000
11
409.718654
21
526.980995
0
LINE
8
ProjItem002
10
409.718654
20
526.980995
11
409.459326
21
527.605000
0
LINE
8
ProjItem002
10
409.459326
20
527.605000
11
409.048586
21
528.141587
0
LINE
8
ProjItem002
10
409.048586
20
528.141587
11
408.504000
21
528.560326
0
LINE
8
ProjItem002
10
408.504000
20
528.560326
11
407.869068
21
528.822582
0
LINE
8
ProjItem002
10
407.869068
20
528.822582
11
407.199000
21
528.910000
0
LINE
8
ProjItem002
10
407.199000
20
528.910000
11
406.528932
21
528.822582
0
LINE
8
ProjItem002
10
406.528932
20
528.822582
11
405.894000
21
528.560326
0
LINE
8
ProjItem002
10
405.894000
20
528.560326
11
405.349414
21
528.141587
0
LINE
8
ProjItem002
10
405.349414
20
528.141587
11
404.938674
21
527.605000
0
LINE
8
ProjItem002
10
404.938674
20
527.605000
11
404.679346
21
526.980995
0
LINE
8
ProjItem002
10
404.679346
20
526.980995
11
404.589000
21
526.300000
0
LINE
8
ProjItem002
10
404.589000
20
526.300000
11
404.679346
21
525.619005
0
LINE
8
ProjItem002
10
404.679346
20
525.619005
11
404.938674
21
524.995000
0
LINE
8
ProjItem002
10
404.938674
20
524.995000
11
405.349414
21
524.458413
0
LINE
8
ProjItem002
10
405.349414
20
524.458413
11
405.894000
21
524.039674
0
LINE
8
ProjItem002
10
405.894000
20
524.039674
11
406.528932
21
523.777418
0
LINE
8
ProjItem002
10
406.528932
20
523.777418
11
407.199000
21
523.690000
0
LINE
8
ProjItem002
10
407.199000
20
523.690000
11
407.869068
21
523.777418
0
LINE
8
ProjItem002
10
407.869068
20
523.777418
11
408.504000
21
524.039674
0
LINE
8
ProjItem002
10
408.504000
20
524.039674
11
409.048586
21
524.458413
0
LINE
8
ProjItem002
10
409.048586
20
524.458413
11
409.459326
21
524.995000
0
LINE
8
ProjItem002
10
409.459326
20
524.995000
11
409.718654
21
525.619005
0
LINE
8
ProjItem002
10
409.718654
20
525.619005
11
409.809000
21
526.300000
0
LINE
8
ProjItem002
10
409.809000
20
526.300000
11
409.809000
21
526.300000
0
LINE
8
ProjItem002
10
459.219000
20
333.300000
11
458.948290
21
334.309650
0
LINE
8
ProjItem002
10
458.948290
20
334.309650
11
458.209150
21
335.048765
0
LINE
8
ProjItem002
10
458.209150
20
335.048765
11
457.199500
21
335.319300
0
LINE
8
ProjItem002
10
457.199500
20
335.319300
11
456.189850
21
335.048765
0
LINE
8
ProjItem002
10
456.189850
20
335.048765
11
455.450735
21
334.309650
0
LINE
8
ProjItem002
10
455.450735
20
334.309650
11
455.180200
21
333.300000
0
LINE
8
ProjItem002
10
455.180200
20
333.300000
11
455.450822
21
332.290350
0
LINE
8
ProjItem002
10
455.450822
20
332.290350
11
456.189950
21
331.551235
0
LINE
8
ProjItem002
10
456.189950
20
331.551235
11
457.199600
21
331.280700
0
LINE
8
ProjItem002
10
457.199600
20
331.280700
11
458.209250
21
331.551235
0
LINE
8
ProjItem002
10
458.209250
20
331.551235
11
458.948365
21
332.290350
0
LINE
8
ProjItem002
10
458.948365
20
332.290350
11
459.218900
21
333.300000
0
LINE
8
ProjItem002
10
459.218900
20
333.300000
11
459.219000
21
333.300000
0
LINE
8
ProjItem002
10
459.809000
20
348.300000
11
459.718654
21
348.980995
0
LINE
8
ProjItem002
10
459.718654
20
348.980995
11
459.459326
21
349.605000
0
LINE
8
ProjItem002
10
459.459326
20
349.605000
11
459.048586
21
350.141587
0
LINE
8
ProjItem002
10
459.048586
20
350.141587
11
458.504000
21
350.560326
0
LINE
8
ProjItem002
10
458.504000
20
350.560326
11
457.869068
21
350.822582
0
LINE
8
ProjItem002
10
457.869068
20
350.822582
11
457.199000
21
350.910000
0
LINE
8
ProjItem002
10
457.199000
20
350.910000
11
456.528932
21
350.822582
0
LINE
8
ProjItem002
10
456.528932
20
350.822582
11
455.894000
21
350.560326
0
LINE
8
ProjItem002
10
455.894000
20
350.560326
11
455.349414
21
350.141587
0
LINE
8
ProjItem002
10
455.349414
20
350.141587
11
454.938674
21
349.605000
0
LINE
8
ProjItem002
10
454.938674
20
349.605000
11
454.679346
21
348.980995
0
LINE
8
ProjItem002
10
454.679346
20
348.980995
11
454.589000
21
348.300000
0
LINE
8
ProjItem002
10
454.589000
20
348.300000
11
454.679346
21
347.619005
0
LINE
8
ProjItem002
10
454.679346
20
347.619005
11
454.938674
21
346.995000
0
LINE
8
ProjItem002
10
454.938674
20
346.995000
11
455.349414
21
346.458413
0
LINE
8
ProjItem002
10
455.349414
20
346.458413
11
455.894000
21
346.039674
0
LINE
8
ProjItem002
10
455.894000
20
346.039674
11
456.528932
21
345.777418
0
LINE
8
ProjItem002
10
456.528932
20
345.777418
11
457.199000
21
345.690000
0
LINE
8
ProjItem002
10
457.199000
20
345.690000
11
457.869068
21
345.777418
0
LINE
8
ProjItem002
10
457.869068
20
345.777418
11
458.504000
21
346.039674
0
LINE
8
ProjItem002
10
458.504000
20
346.039674
11
459.048586
21
346.458413
0
LINE
8
ProjItem002
10
459.048586
20
346.458413
11
459.459326
21
346.995000
0
LINE
8
ProjItem002
10
459.459326
20
346.995000
11
459.718654
21
347.619005
0
LINE
8
ProjItem002
10
459.718654
20
347.619005
11
459.809000
21
348.300000
0
LINE
8
ProjItem002
10
459.809000
20
348.300000
11
459.809000
21
348.300000
0
LINE
8
ProjItem002
10
557.045000
20
173.455000
11
556.748371
21
176.326326
0
LINE
8
ProjItem002
10
556.748371
20
176.326326
11
555.912236
21
178.999880
0
LINE
8
ProjItem002
10
555.912236
20
178.999880
11
554.593788
21
181.418621
0
LINE
8
ProjItem002
10
554.593788
20
181.418621
11
552.850222
21
183.525505
0
LINE
8
ProjItem002
10
552.850222
20
183.525505
11
550.738731
21
185.263489
0
LINE
8
ProjItem002
10
550.738731
20
185.263489
11
548.316509
21
186.575531
0
LINE
8
ProjItem002
10
548.316509
20
186.575531
11
545.640751
21
187.404588
0
LINE
8
ProjItem002
10
545.640751
20
187.404588
11
542.768650
21
187.693616
0
LINE
8
ProjItem002
10
542.768650
20
187.693616
11
539.896549
21
187.404588
0
LINE
8
ProjItem002
10
539.896549
20
187.404588
11
537.220791
21
186.575531
0
LINE
8
ProjItem002
10
537.220791
20
186.575531
11
534.798569
21
185.263489
0
LINE
8
ProjItem002
10
534.798569
20
185.263489
11
532.687078
21
183.525505
0
LINE
8
ProjItem002
10
532.687078
20
183.525505
11
530.943512
21
181.418621
0
LINE
8
ProjItem002
10
530.943512
20
181.418621
11
529.625064
21
178.999880
0
LINE
8
ProjItem002
10
529.625064
20
178.999880
11
528.788929
21
176.326326
0
LINE
8
ProjItem002
10
528.788929
20
176.326326
11
528.492300
21
173.455000
0
LINE
8
ProjItem002
10
528.492300
20
173.455000
11
528.788929
21
170.583674
0
LINE
8
ProjItem002
10
528.788929
20
170.583674
11
529.625064
21
167.910120
0
LINE
8
ProjItem002
10
529.625064
20
167.910120
11
530.943512
21
165.491379
0
LINE
8
ProjItem002
10
530.943512
20
165.491379
11
532.687078
21
163.384495
0
LINE
8
ProjItem002
10
532.687078
20
163.384495
11
534.798569
21
161.646511
0
LINE
8
ProjItem002
10
534.798569
20
161.646511
11
537.220791
21
160.334469
0
LINE
8
ProjItem002
10
537.220791
20
160.334469
11
539.896549
21
159.505412
0
LINE
8
ProjItem002
10
539.896549
20
159.505412
11
542.768650
21
159.216384
0
LINE
8
ProjItem002
10
542.768650
20
159.216384
11
545.640751
21
159.505412
0
LINE
8
ProjItem002
10
545.640751
20
159.505412
11
548.316509
21
160.334469
0
LINE
8
ProjItem002
10
548.316509
20
160.334469
11
550.738731
21
161.646511
0
LINE
8
ProjItem002
10
550.738731
20
161.646511
11
552.850222
21
163.384495
0
LINE
8
ProjItem002
10
552.850222
20
163.384495
11
554.593788
21
165.491379
0
LINE
8
ProjItem002
10
554.593788
20
165.491379
11
555.912236
21
167.910120
0
LINE
8
ProjItem002
10
555.912236
20
167.910120
11
556.748371
21
170.583674
0
LINE
8
ProjItem002
10
556.748371
20
170.583674
11
557.045000
21
173.455000
0
LINE
8
ProjItem002
10
557.045000
20
173.455000
11
557.045000
21
173.455000
0
LINE
8
ProjItem002
10
394.808000
20
174.544000
11
394.511371
21
177.415326
0
LINE
8
ProjItem002
10
394.511371
20
177.415326
11
393.675236
21
180.088880
0
LINE
8
ProjItem002
10
393.675236
20
180.088880
11
392.356788
21
182.507621
0
LINE
8
ProjItem002
10
392.356788
20
182.507621
11
390.613222
21
184.614505
0
LINE
8
ProjItem002
10
390.613222
20
184.614505
11
388.501731
21
186.352489
0
LINE
8
ProjItem002
10
388.501731
20
186.352489
11
386.079509
21
187.664531
0
LINE
8
ProjItem002
10
386.079509
20
187.664531
11
383.403751
21
188.493588
0
LINE
8
ProjItem002
10
383.403751
20
188.493588
11
380.531650
21
188.782616
0
LINE
8
ProjItem002
10
380.531650
20
188.782616
11
377.659549
21
188.493588
0
LINE
8
ProjItem002
10
377.659549
20
188.493588
11
374.983791
21
187.664531
0
LINE
8
ProjItem002
10
374.983791
20
187.664531
11
372.561569
21
186.352489
0
LINE
8
ProjItem002
10
372.561569
20
186.352489
11
370.450078
21
184.614505
0
LINE
8
ProjItem002
10
370.450078
20
184.614505
11
368.706512
21
182.507621
0
LINE
8
ProjItem002
10
368.706512
20
182.507621
11
367.388064
21
180.088880
0
LINE
8
ProjItem002
10
367.388064
20
180.088880
11
366.551929
21
177.415326
0
LINE
8
ProjItem002
10
366.551929
20
177.415326
11
366.255300
21
174.544000
0
LINE
8
ProjItem002
10
366.255300
20
174.544000
11
366.551929
21
171.672674
0
LINE
8
ProjItem002
10
366.551929
20
171.672674
11
367.388064
21
168.999120
0
LINE
8
ProjItem002
10
367.388064
20
168.999120
11
368.706512
21
166.580379
0
LINE
8
ProjItem002
10
368.706512
20
166.580379
11
370.450078
21
164.473495
0
LINE
8
ProjItem002
10
370.450078
20
164.473495
11
372.561569
21
162.735511
0
LINE
8
ProjItem002
10
372.561569
20
162.735511
11
374.983791
21
161.423469
0
LINE
8
ProjItem002
10
374.983791
20
161.423469
11
377.659549
21
160.594412
0
LINE
8
ProjItem002
10
377.659549
20
160.594412
11
380.531650
21
160.305384
0
LINE
8
ProjItem002
10
380.531650
20
160.305384
11
383.403751
21
160.594412
0
LINE
8
ProjItem002
10
383.403751
20
160.594412
11
386.079509
21
161.423469
0
LINE
8
ProjItem002
10
386.079509
20
161.423469
11
388.501731
21
162.735511
0
LINE
8
ProjItem002
10
388.501731
20
162.735511
11
390.613222
21
164.473495
0
LINE
8
ProjItem002
10
390.613222
20
164.473495
11
392.356788
21
166.580379
0
LINE
8
ProjItem002
10
392.356788
20
166.580379
11
393.675236
21
168.999120
0
LINE
8
ProjItem002
10
393.675236
20
168.999120
11
394.511371
21
171.672674
0
LINE
8
ProjItem002
10
394.511371
20
171.672674
11
394.808000
21
174.544000
0
LINE
8
ProjItem002
10
394.808000
20
174.544000
11
394.808000
21
174.544000
0
LINE
8
ProjItem002
10
513.142000
20
348.300000
11
513.051654
21
348.980995
0
LINE
8
ProjItem002
10
513.051654
20
348.980995
11
512.792326
21
349.605000
0
LINE
8
ProjItem002
10
512.792326
20
349.605000
11
512.381586
21
350.141587
0
LINE
8
ProjItem002
10
512.381586
20
350.141587
11
511.837000
21
350.560326
0
LINE
8
ProjItem002
10
511.837000
20
350.560326
11
511.202068
21
350.822582
0
LINE
8
ProjItem002
10
511.202068
20
350.822582
11
510.532000
21
350.910000
0
LINE
8
ProjItem002
10
510.532000
20
350.910000
11
509.861932
21
350.822582
0
LINE
8
ProjItem002
10
509.861932
20
350.822582
11
509.227000
21
350.560326
0
LINE
8
ProjItem002
10
509.227000
20
350.560326
11
508.682414
21
350.141587
0
LINE
8
ProjItem002
10
508.682414
20
350.141587
11
508.271674
21
349.605000
0
LINE
8
ProjItem002
10
508.271674
20
349.605000
11
508.012346
21
348.980995
0
LINE
8
ProjItem002
10
508.012346
20
348.980995
11
507.922000
21
348.300000
0
LINE
8
ProjItem002
10
507.922000
20
348.300000
11
508.012346
21
347.619005
0
LINE
8
ProjItem002
10
508.012346
20
347.619005
11
508.271674
21
346.995000
0
LINE
8
ProjItem002
10
508.271674
20
346.995000
11
508.682414
21
346.458413
0
LINE
8
ProjItem002
10
508.682414
20
346.458413
11
509.227000
21
346.039674
0
LINE
8
ProjItem002
10
509.227000
20
346.039674
11
509.861932
21
345.777418
0
LINE
8
ProjItem002
10
509.861932
20
345.777418
11
510.532000
21
345.690000
0
LINE
8
ProjItem002
10
510.532000
20
345.690000
11
511.202068
21
345.777418
0
LINE
8
ProjItem002
10
511.202068
20
345.777418
11
511.837000
21
346.039674
0
LINE
8
ProjItem002
10
511.837000
20
346.039674
11
512.381586
21
346.458413
0
LINE
8
ProjItem002
10
512.381586
20
346.458413
11
512.792326
21
346.995000
0
LINE
8
ProjItem002
10
512.792326
20
346.995000
11
513.051654
21
347.619005
0
LINE
8
ProjItem002
10
513.051654
20
347.619005
11
513.142000
21
348.300000
0
LINE
8
ProjItem002
10
513.142000
20
348.300000
11
513.142000
21
348.300000
0
LINE
8
ProjItem002
10
459.219000
20
383.300000
11
458.948290
21
384.309650
0
LINE
8
ProjItem002
10
458.948290
20
384.309650
11
458.209150
21
385.048765
0
LINE
8
ProjItem002
10
458.209150
20
385.048765
11
457.199500
21
385.319300
0
LINE
8
ProjItem002
10
457.199500
20
385.319300
11
456.189850
21
385.048765
0
LINE
8
ProjItem002
10
456.189850
20
385.048765
11
455.450735
21
384.309650
0
LINE
8
ProjItem002
10
455.450735
20
384.309650
11
455.180200
21
383.300000
0
LINE
8
ProjItem002
10
455.180200
20
383.300000
11
455.450822
21
382.290350
0
LINE
8
ProjItem002
10
455.450822
20
382.290350
11
456.189950
21
381.551235
0
LINE
8
ProjItem002
10
456.189950
20
381.551235
11
457.199600
21
381.280700
0
LINE
8
ProjItem002
10
457.199600
20
381.280700
11
458.209250
21
381.551235
0
LINE
8
ProjItem002
10
458.209250
20
381.551235
11
458.948365
21
382.290350
0
LINE
8
ProjItem002
10
458.948365
20
382.290350
11
459.218900
21
383.300000
0
LINE
8
ProjItem002
10
459.218900
20
383.300000
11
459.219000
21
383.300000
0
LINE
8
ProjItem002
10
566.476000
20
348.300000
11
566.385654
21
348.980995
0
LINE
8
ProjItem002
10
566.385654
20
348.980995
11
566.126326
21
349.605000
0
LINE
8
ProjItem002
10
566.126326
20
349.605000
11
565.715586
21
350.141587
0
LINE
8
ProjItem002
10
565.715586
20
350.141587
11
565.171000
21
350.560326
0
LINE
8
ProjItem002
10
565.171000
20
350.560326
11
564.536068
21
350.822582
0
LINE
8
ProjItem002
10
564.536068
20
350.822582
11
563.866000
21
350.910000
0
LINE
8
ProjItem002
10
563.866000
20
350.910000
11
563.195932
21
350.822582
0
LINE
8
ProjItem002
10
563.195932
20
350.822582
11
562.561000
21
350.560326
0
LINE
8
ProjItem002
10
562.561000
20
350.560326
11
562.016414
21
350.141587
0
LINE
8
ProjItem002
10
562.016414
20
350.141587
11
561.605674
21
349.605000
0
LINE
8
ProjItem002
10
561.605674
20
349.605000
11
561.346346
21
348.980995
0
LINE
8
ProjItem002
10
561.346346
20
348.980995
11
561.256000
21
348.300000
0
LINE
8
ProjItem002
10
561.256000
20
348.300000
11
561.346346
21
347.619005
0
LINE
8
ProjItem002
10
561.346346
20
347.619005
11
561.605674
21
346.995000
0
LINE
8
ProjItem002
10
561.605674
20
346.995000
11
562.016414
21
346.458413
0
LINE
8
ProjItem002
10
562.016414
20
346.458413
11
562.561000
21
346.039674
0
LINE
8
ProjItem002
10
562.561000
20
346.039674
11
563.195932
21
345.777418
0
LINE
8
ProjItem002
10
563.195932
20
345.777418
11
563.866000
21
345.690000
0
LINE
8
ProjItem002
10
563.866000
20
345.690000
11
564.536068
21
345.777418
0
LINE
8
ProjItem002
10
564.536068
20
345.777418
11
565.171000
21
346.039674
0
LINE
8
ProjItem002
10
565.171000
20
346.039674
11
565.715586
21
346.458413
0
LINE
8
ProjItem002
10
565.715586
20
346.458413
11
566.126326
21
346.995000
0
LINE
8
ProjItem002
10
566.126326
20
346.995000
11
566.385654
21
347.619005
0
LINE
8
ProjItem002
10
566.385654
20
347.619005
11
566.476000
21
348.300000
0
LINE
8
ProjItem002
10
566.476000
20
348.300000
11
566.476000
21
348.300000
0
LINE
8
ProjItem002
10
619.809000
20
348.300000
11
619.603893
21
349.315930
0
LINE
8
ProjItem002
10
619.603893
20
349.315930
11
619.044548
21
350.145548
0
LINE
8
ProjItem002
10
619.044548
20
350.145548
11
618.214930
21
350.704893
0
LINE
8
ProjItem002
10
618.214930
20
350.704893
11
617.199000
21
350.909999
0
LINE
8
ProjItem002
10
617.199000
20
350.909999
11
616.183070
21
350.704893
0
LINE
8
ProjItem002
10
616.183070
20
350.704893
11
615.353452
21
350.145548
0
LINE
8
ProjItem002
10
615.353452
20
350.145548
11
614.794107
21
349.315930
0
LINE
8
ProjItem002
10
614.794107
20
349.315930
11
614.589000
21
348.300000
0
LINE
8
ProjItem002
10
614.589000
20
348.300000
11
614.794107
21
347.284070
0
LINE
8
ProjItem002
10
614.794107
20
347.284070
11
615.353452
21
346.454452
0
LINE
8
ProjItem002
10
615.353452
20
346.454452
11
616.183070
21
345.895107
0
LINE
8
ProjItem002
10
616.183070
20
345.895107
11
617.199000
21
345.690001
0
LINE
8
ProjItem002
10
617.199000
20
345.690001
11
618.214930
21
345.895107
0
LINE
8
ProjItem002
10
618.214930
20
345.895107
11
619.044548
21
346.454452
0
LINE
8
ProjItem002
10
619.044548
20
346.454452
11
619.603893
21
347.284070
0
LINE
8
ProjItem002
10
619.603893
20
347.284070
11
619.809000
21
348.300000
0
LINE
8
ProjItem002
10
619.809000
20
348.300000
11
619.809000
21
348.300000
0
LINE
8
ProjItem002
10
669.809000
20
333.300000
11
669.603893
21
334.315930
0
LINE
8
ProjItem002
10
669.603893
20
334.315930
11
669.044548
21
335.145548
0
LINE
8
ProjItem002
10
669.044548
20
335.145548
11
668.214930
21
335.704893
0
LINE
8
ProjItem002
10
668.214930
20
335.704893
11
667.199000
21
335.909999
0
LINE
8
ProjItem002
10
667.199000
20
335.909999
11
666.183070
21
335.704893
0
LINE
8
ProjItem002
10
666.183070
20
335.704893
11
665.353452
21
335.145548
0
LINE
8
ProjItem002
10
665.353452
20
335.145548
11
664.794107
21
334.315930
0
LINE
8
ProjItem002
10
664.794107
20
334.315930
11
664.589000
21
333.300000
0
LINE
8
ProjItem002
10
664.589000
20
333.300000
11
664.794107
21
332.284070
0
LINE
8
ProjItem002
10
664.794107
20
332.284070
11
665.353452
21
331.454452
0
LINE
8
ProjItem002
10
665.353452
20
331.454452
11
666.183070
21
330.895107
0
LINE
8
ProjItem002
10
666.183070
20
330.895107
11
667.199000
21
330.690001
0
LINE
8
ProjItem002
10
667.199000
20
330.690001
11
668.214930
21
330.895107
0
LINE
8
ProjItem002
10
668.214930
20
330.895107
11
669.044548
21
331.454452
0
LINE
8
ProjItem002
10
669.044548
20
331.454452
11
669.603893
21
332.284070
0
LINE
8
ProjItem002
10
669.603893
20
332.284070
11
669.809000
21
333.300000
0
LINE
8
ProjItem002
10
669.809000
20
333.300000
11
669.809000
21
333.300000
0
LINE
8
ProjItem002
10
669.809000
20
383.300000
11
669.603893
21
384.315930
0
LINE
8
ProjItem002
10
669.603893
20
384.315930
11
669.044548
21
385.145548
0
LINE
8
ProjItem002
10
669.044548
20
385.145548
11
668.214930
21
385.704893
0
LINE
8
ProjItem002
10
668.214930
20
385.704893
11
667.199000
21
385.909999
0
LINE
8
ProjItem002
10
667.199000
20
385.909999
11
666.183070
21
385.704893
0
LINE
8
ProjItem002
10
666.183070
20
385.704893
11
665.353452
21
385.145548
0
LINE
8
ProjItem002
10
665.353452
20
385.145548
11
664.794107
21
384.315930
0
LINE
8
ProjItem002
10
664.794107
20
384.315930
11
664.589000
21
383.300000
0
LINE
8
ProjItem002
10
664.589000
20
383.300000
11
664.794107
21
382.284070
0
LINE
8
ProjItem002
10
664.794107
20
382.284070
11
665.353452
21
381.454452
0
LINE
8
ProjItem002
10
665.353452
20
381.454452
11
666.183070
21
380.895107
0
LINE
8
ProjItem002
10
666.183070
20
380.895107
11
667.199000
21
380.690001
0
LINE
8
ProjItem002
10
667.199000
20
380.690001
11
668.214930
21
380.895107
0
LINE
8
ProjItem002
10
668.214930
20
380.895107
11
669.044548
21
381.454452
0
LINE
8
ProjItem002
10
669.044548
20
381.454452
11
669.603893
21
382.284070
0
LINE
8
ProjItem002
10
669.603893
20
382.284070
11
669.809000
21
383.300000
0
LINE
8
ProjItem002
10
669.809000
20
383.300000
11
669.809000
21
383.300000
0
LINE
8
ProjItem002
10
459.219000
20
433.300000
11
458.948290
21
434.309650
0
LINE
8
ProjItem002
10
458.948290
20
434.309650
11
458.209150
21
435.048765
0
LINE
8
ProjItem002
10
458.209150
20
435.048765
11
457.199500
21
435.319300
0
LINE
8
ProjItem002
10
457.199500
20
435.319300
11
456.189850
21
435.048765
0
LINE
8
ProjItem002
10
456.189850
20
435.048765
11
455.450735
21
434.309650
0
LINE
8
ProjItem002
10
455.450735
20
434.309650
11
455.180200
21
433.300000
0
LINE
8
ProjItem002
10
455.180200
20
433.300000
11
455.450822
21
432.290350
0
LINE
8
ProjItem002
10
455.450822
20
432.290350
11
456.189950
21
431.551235
0
LINE
8
ProjItem002
10
456.189950
20
431.551235
11
457.199600
21
431.280700
0
LINE
8
ProjItem002
10
457.199600
20
431.280700
11
458.209250
21
431.551235
0
LINE
8
ProjItem002
10
458.209250
20
431.551235
11
458.948365
21
432.290350
0
LINE
8
ProjItem002
10
458.948365
20
432.290350
11
459.218900
21
433.300000
0
LINE
8
ProjItem002
10
459.218900
20
433.300000
11
459.219000
21
433.300000
0
LINE
8
ProjItem002
10
459.219000
20
483.300000
11
458.948290
21
484.309650
0
LINE
8
ProjItem002
10
458.948290
20
484.309650
11
458.209150
21
485.048765
0
LINE
8
ProjItem002
10
458.209150
20
485.048765
11
457.199500
21
485.319300
0
LINE
8
ProjItem002
10
457.199500
20
485.319300
11
456.189850
21
485.048765
0
LINE
8
ProjItem002
10
456.189850
20
485.048765
11
455.450735
21
484.309650
0
LINE
8
ProjItem002
10
455.450735
20
484.309650
11
455.180200
21
483.300000
0
LINE
8
ProjItem002
10
455.180200
20
483.300000
11
455.450822
21
482.290350
0
LINE
8
ProjItem002
10
455.450822
20
482.290350
11
456.189950
21
481.551235
0
LINE
8
ProjItem002
10
456.189950
20
481.551235
11
457.199600
21
481.280700
0
LINE
8
ProjItem002
10
457.199600
20
481.280700
11
458.209250
21
481.551235
0
LINE
8
ProjItem002
10
458.209250
20
481.551235
11
458.948365
21
482.290350
0
LINE
8
ProjItem002
10
458.948365
20
482.290350
11
459.218900
21
483.300000
0
LINE
8
ProjItem002
10
459.218900
20
483.300000
11
459.219000
21
483.300000
0
LINE
8
ProjItem002
10
459.809000
20
526.300000
11
459.718654
21
526.980995
0
LINE
8
ProjItem002
10
459.718654
20
526.980995
11
459.459326
21
527.605000
0
LINE
8
ProjItem002
10
459.459326
20
527.605000
11
459.048586
21
528.141587
0
LINE
8
ProjItem002
10
459.048586
20
528.141587
11
458.504000
21
528.560326
0
LINE
8
ProjItem002
10
458.504000
20
528.560326
11
457.869068
21
528.822582
0
LINE
8
ProjItem002
10
457.869068
20
528.822582
11
457.199000
21
528.910000
0
LINE
8
ProjItem002
10
457.199000
20
528.910000
11
456.528932
21
528.822582
0
LINE
8
ProjItem002
10
456.528932
20
528.822582
11
455.894000
21
528.560326
0
LINE
8
ProjItem002
10
455.894000
20
528.560326
11
455.349414
21
528.141587
0
LINE
8
ProjItem002
10
455.349414
20
528.141587
11
454.938674
21
527.605000
0
LINE
8
ProjItem002
10
454.938674
20
527.605000
11
454.679346
21
526.980995
0
LINE
8
ProjItem002
10
454.679346
20
526.980995
11
454.589000
21
526.300000
0
LINE
8
ProjItem002
10
454.589000
20
526.300000
11
454.679346
21
525.619005
0
LINE
8
ProjItem002
10
454.679346
20
525.619005
11
454.938674
21
524.995000
0
LINE
8
ProjItem002
10
454.938674
20
524.995000
11
455.349414
21
524.458413
0
LINE
8
ProjItem002
10
455.349414
20
524.458413
11
455.894000
21
524.039674
0
LINE
8
ProjItem002
10
455.894000
20
524.039674
11
456.528932
21
523.777418
0
LINE
8
ProjItem002
10
456.528932
20
523.777418
11
457.199000
21
523.690000
0
LINE
8
ProjItem002
10
457.199000
20
523.690000
11
457.869068
21
523.777418
0
LINE
8
ProjItem002
10
457.869068
20
523.777418
11
458.504000
21
524.039674
0
LINE
8
ProjItem002
10
458.504000
20
524.039674
11
459.048586
21
524.458413
0
LINE
8
ProjItem002
10
459.048586
20
524.458413
11
459.459326
21
524.995000
0
LINE
8
ProjItem002
10
459.459326
20
524.995000
11
459.718654
21
525.619005
0
LINE
8
ProjItem002
10
459.718654
20
525.619005
11
459.809000
21
526.300000
0
LINE
8
ProjItem002
10
459.809000
20
526.300000
11
459.809000
21
526.300000
0
LINE
8
ProjItem002
10
509.809000
20
526.300000
11
509.718654
21
526.980995
0
LINE
8
ProjItem002
10
509.718654
20
526.980995
11
509.459326
21
527.605000
0
LINE
8
ProjItem002
10
509.459326
20
527.605000
11
509.048586
21
528.141587
0
LINE
8
ProjItem002
10
509.048586
20
528.141587
11
508.504000
21
528.560326
0
LINE
8
ProjItem002
10
508.504000
20
528.560326
11
507.869068
21
528.822582
0
LINE
8
ProjItem002
10
507.869068
20
528.822582
11
507.199000
21
528.910000
0
LINE
8
ProjItem002
10
507.199000
20
528.910000
11
506.528932
21
528.822582
0
LINE
8
ProjItem002
10
506.528932
20
528.822582
11
505.894000
21
528.560326
0
LINE
8
ProjItem002
10
505.894000
20
528.560326
11
505.349414
21
528.141587
0
LINE
8
ProjItem002
10
505.349414
20
528.141587
11
504.938674
21
527.605000
0
LINE
8
ProjItem002
10
504.938674
20
527.605000
11
504.679346
21
526.980995
0
LINE
8
ProjItem002
10
504.679346
20
526.980995
11
504.589000
21
526.300000
0
LINE
8
ProjItem002
10
504.589000
20
526.300000
11
504.679346
21
525.619005
0
LINE
8
ProjItem002
10
504.679346
20
525.619005
11
504.938674
21
524.995000
0
LINE
8
ProjItem002
10
504.938674
20
524.995000
11
505.349414
21
524.458413
0
LINE
8
ProjItem002
10
505.349414
20
524.458413
11
505.894000
21
524.039674
0
LINE
8
ProjItem002
10
505.894000
20
524.039674
11
506.528932
21
523.777418
0
LINE
8
ProjItem002
10
506.528932
20
523.777418
11
507.199000
21
523.690000
0
LINE
8
ProjItem002
10
507.199000
20
523.690000
11
507.869068
21
523.777418
0
LINE
8
ProjItem002
10
507.869068
20
523.777418
11
508.504000
21
524.039674
0
LINE
8
ProjItem002
10
508.504000
20
524.039674
11
509.048586
21
524.458413
0
LINE
8
ProjItem002
10
509.048586
20
524.458413
11
509.459326
21
524.995000
0
LINE
8
ProjItem002
10
509.459326
20
524.995000
11
509.718654
21
525.619005
0
LINE
8
ProjItem002
10
509.718654
20
525.619005
11
509.809000
21
526.300000
0
LINE
8
ProjItem002
10
509.809000
20
526.300000
11
509.809000
21
526.300000
0
LINE
8
ProjItem002
10
559.809000
20
526.300000
11
559.603893
21
527.315930
0
LINE
8
ProjItem002
10
559.603893
20
527.315930
11
559.044549
21
528.145548
0
LINE
8
ProjItem002
10
559.044549
20
528.145548
11
558.214930
21
528.704893
0
LINE
8
ProjItem002
10
558.214930
20
528.704893
11
557.199000
21
528.910000
0
LINE
8
ProjItem002
10
557.199000
20
528.910000
11
556.183070
21
528.704893
0
LINE
8
ProjItem002
10
556.183070
20
528.704893
11
555.353451
21
528.145548
0
LINE
8
ProjItem002
10
555.353451
20
528.145548
11
554.794107
21
527.315930
0
LINE
8
ProjItem002
10
554.794107
20
527.315930
11
554.589000
21
526.300000
0
LINE
8
ProjItem002
10
554.589000
20
526.300000
11
554.679346
21
525.619005
0
LINE
8
ProjItem002
10
554.679346
20
525.619005
11
554.938674
21
524.995000
0
LINE
8
ProjItem002
10
554.938674
20
524.995000
11
555.349414
21
524.458413
0
LINE
8
ProjItem002
10
555.349414
20
524.458413
11
555.894000
21
524.039674
0
LINE
8
ProjItem002
10
555.894000
20
524.039674
11
556.528932
21
523.777418
0
LINE
8
ProjItem002
10
556.528932
20
523.777418
11
557.199000
21
523.690000
0
LINE
8
ProjItem002
10
557.199000
20
523.690000
11
557.869068
21
523.777418
0
LINE
8
ProjItem002
10
557.869068
20
523.777418
11
558.504000
21
524.039674
0
LINE
8
ProjItem002
10
558.504000
20
524.039674
11
559.048586
21
524.458413
0
LINE
8
ProjItem002
10
559.048586
20
524.458413
11
559.459326
21
524.995000
0
LINE
8
ProjItem002
10
559.459326
20
524.995000
11
559.718654
21
525.619005
0
LINE
8
ProjItem002
10
559.718654
20
525.619005
11
559.809000
21
526.300000
0
LINE
8
ProjItem002
10
559.809000
20
526.300000
11
559.809000
21
526.300000
0
LINE
8
ProjItem002
10
669.809000
20
433.300000
11
669.603893
21
434.315930
0
LINE
8
ProjItem002
10
669.603893
20
434.315930
11
669.044548
21
435.145548
0
LINE
8
ProjItem002
10
669.044548
20
435.145548
11
668.214930
21
435.704893
0
LINE
8
ProjItem002
10
668.214930
20
435.704893
11
667.199000
21
435.909999
0
LINE
8
ProjItem002
10
667.199000
20
435.909999
11
666.183070
21
435.704893
0
LINE
8
ProjItem002
10
666.183070
20
435.704893
11
665.353452
21
435.145548
0
LINE
8
ProjItem002
10
665.353452
20
435.145548
11
664.794107
21
434.315930
0
LINE
8
ProjItem002
10
664.794107
20
434.315930
11
664.589000
21
433.300000
0
LINE
8
ProjItem002
10
664.589000
20
433.300000
11
664.794107
21
432.284070
0
LINE
8
ProjItem002
10
664.794107
20
432.284070
11
665.353452
21
431.454452
0
LINE
8
ProjItem002
10
665.353452
20
431.454452
11
666.183070
21
430.895107
0
LINE
8
ProjItem002
10
666.183070
20
430.895107
11
667.199000
21
430.690001
0
LINE
8
ProjItem002
10
667.199000
20
430.690001
11
668.214930
21
430.895107
0
LINE
8
ProjItem002
10
668.214930
20
430.895107
11
669.044548
21
431.454452
0
LINE
8
ProjItem002
10
669.044548
20
431.454452
11
669.603893
21
432.284070
0
LINE
8
ProjItem002
10
669.603893
20
432.284070
11
669.809000
21
433.300000
0
LINE
8
ProjItem002
10
669.809000
20
433.300000
11
669.809000
21
433.300000
0
LINE
8
ProjItem002
10
609.809000
20
526.300000
11
609.603893
21
527.315930
0
LINE
8
ProjItem002
10
609.603893
20
527.315930
11
609.044549
21
528.145548
0
LINE
8
ProjItem002
10
609.044549
20
528.145548
11
608.214930
21
528.704893
0
LINE
8
ProjItem002
10
608.214930
20
528.704893
11
607.199000
21
528.910000
0
LINE
8
ProjItem002
10
607.199000
20
528.910000
11
606.183070
21
528.704893
0
LINE
8
ProjItem002
10
606.183070
20
528.704893
11
605.353451
21
528.145548
0
LINE
8
ProjItem002
10
605.353451
20
528.145548
11
604.794107
21
527.315930
0
LINE
8
ProjItem002
10
604.794107
20
527.315930
11
604.589000
21
526.300000
0
LINE
8
ProjItem002
10
604.589000
20
526.300000
11
604.794107
21
525.284070
0
LINE
8
ProjItem002
10
604.794107
20
525.284070
11
605.353451
21
524.454452
0
LINE
8
ProjItem002
10
605.353451
20
524.454452
11
606.183070
21
523.895107
0
LINE
8
ProjItem002
10
606.183070
20
523.895107
11
607.199000
21
523.690000
0
LINE
8
ProjItem002
10
607.199000
20
523.690000
11
608.214930
21
523.895107
0
LINE
8
ProjItem002
10
608.214930
20
523.895107
11
609.044549
21
524.454452
0
LINE
8
ProjItem002
10
609.044549
20
524.454452
11
609.603893
21
525.284070
0
LINE
8
ProjItem002
10
609.603893
20
525.284070
11
609.809000
21
526.300000
0
LINE
8
ProjItem002
10
609.809000
20
526.300000
11
609.809000
21
526.300000
0
LINE
8
ProjItem002
10
669.809000
20
483.300000
11
669.603893
21
484.315930
0
LINE
8
ProjItem002
10
669.603893
20
484.315930
11
669.044548
21
485.145548
0
LINE
8
ProjItem002
10
669.044548
20
485.145548
11
668.214930
21
485.704893
0
LINE
8
ProjItem002
10
668.214930
20
485.704893
11
667.199000
21
485.909999
0
LINE
8
ProjItem002
10
667.199000
20
485.909999
11
666.183070
21
485.704893
0
LINE
8
ProjItem002
10
666.183070
20
485.704893
11
665.353452
21
485.145548
0
LINE
8
ProjItem002
10
665.353452
20
485.145548
11
664.794107
21
484.315930
0
LINE
8
ProjItem002
10
664.794107
20
484.315930
11
664.589000
21
483.300000
0
LINE
8
ProjItem002
10
664.589000
20
483.300000
11
664.794107
21
482.284070
0
LINE
8
ProjItem002
10
664.794107
20
482.284070
11
665.353452
21
481.454452
0
LINE
8
ProjItem002
10
665.353452
20
481.454452
11
666.183070
21
480.895107
0
LINE
8
ProjItem002
10
666.183070
20
480.895107
11
667.199000
21
480.690001
0
LINE
8
ProjItem002
10
667.199000
20
480.690001
11
668.214930
21
480.895107
0
LINE
8
ProjItem002
10
668.214930
20
480.895107
11
669.044548
21
481.454452
0
LINE
8
ProjItem002
10
669.044548
20
481.454452
11
669.603893
21
482.284070
0
LINE
8
ProjItem002
10
669.603893
20
482.284070
11
669.809000
21
483.300000
0
LINE
8
ProjItem002
10
669.809000
20
483.300000
11
669.809000
21
483.300000
 0 
ENDSEC
 0 
EOF