<?xml version="1.0" encoding="UTF-8" standalone="no"?>
<svg
   viewBox="0 0 793.7007874015749 1122.5196850393702"
   width="793.7007874015749"
   height="1122.5196850393702"
   version="1.1"
   id="svg1260"
   sodipodi:docname="frontpanel_Rev1_4.svg"
   inkscape:version="1.2.1 (9c6d41e410, 2022-07-14)"
   xmlns:inkscape="http://www.inkscape.org/namespaces/inkscape"
   xmlns:sodipodi="http://sodipodi.sourceforge.net/DTD/sodipodi-0.dtd"
   xmlns="http://www.w3.org/2000/svg"
   xmlns:svg="http://www.w3.org/2000/svg">
  <sodipodi:namedview
     id="namedview1262"
     pagecolor="#ffffff"
     bordercolor="#666666"
     borderopacity="1.0"
     inkscape:showpageshadow="2"
     inkscape:pageopacity="0.0"
     inkscape:pagecheckerboard="0"
     inkscape:deskcolor="#d1d1d1"
     showgrid="false"
     inkscape:zoom="1.8761364"
     inkscape:cx="558.32827"
     inkscape:cy="1039.9031"
     inkscape:window-width="2560"
     inkscape:window-height="1377"
     inkscape:window-x="-8"
     inkscape:window-y="-8"
     inkscape:window-maximized="1"
     inkscape:current-layer="g1258" />
  <desc
     id="desc2">frontpanel_Rev1_3.dxf - scale = 1.000000, origin = (0.000000, 0.000000), method = manual</desc>
  <defs
     id="defs16">
    <marker
       id="DistanceX"
       orient="auto"
       refX="0.0"
       refY="0.0"
       style="overflow:visible">
      <path
         d="M 3,-3 L -3,3 M 0,-5 L  0,5"
         style="stroke:#000000; stroke-width:0.5"
         id="path4" />
    </marker>
    <pattern
       id="Hatch"
       patternUnits="userSpaceOnUse"
       width="8"
       height="8"
       x="0"
       y="0">
      <path
         d="M8 4 l-4,4"
         stroke="#000000"
         stroke-width="0.25"
         linecap="square"
         id="path7" />
      <path
         d="M6 2 l-4,4"
         stroke="#000000"
         stroke-width="0.25"
         linecap="square"
         id="path9" />
      <path
         d="M4 0 l-4,4"
         stroke="#000000"
         stroke-width="0.25"
         linecap="square"
         id="path11" />
    </pattern>
    <symbol
       id="*MODEL_SPACE" />
    <symbol
       id="*PAPER_SPACE" />
  </defs>
  <g
     inkscape:groupmode="layer"
     inkscape:label="0"
     id="g18" />
  <g
     inkscape:groupmode="layer"
     inkscape:label="none"
     id="g20" />
  <g
     inkscape:groupmode="layer"
     inkscape:label="Body"
     id="g1258">
    <path
       style="fill:none;stroke:#000000"
       d="M -831.496 1122.52 L -831.496 1122.52"
       id="path30" />
    <path
       style="fill:none;stroke:#000000"
       d="M 831.496 1122.52 L 831.496 1122.52"
       id="path40" />
    <path
       style="fill:none;stroke:#000000"
       d="M 831.496 1122.52 L -831.496 1122.52"
       id="path52" />
    <path
       style="fill:none;stroke:#000000"
       d="M -831.496,787.508 H 831.496"
       id="path252" />
    <path
       style="fill:none;stroke:#000000;stroke-width:1.02663"
       d="m 831.496,787.008 v 336"
       id="path256"
       sodipodi:nodetypes="cc" />
    <path
       style="fill:none;stroke:#000000"
       d="M 831.496 1122.52 L -831.496 1122.52"
       id="path258" />
    <path
       style="fill:none;stroke:#000000"
       d="M 831.496 1122.52 L 831.496 1122.52"
       id="path458" />
    <path
       style="fill:none;stroke:#000000"
       d="M -831.496 1122.52 L -831.496 1122.52"
       id="path460" />
    <path
       style="fill:none;stroke:#000000"
       d="M 831.496 1122.52 L -831.496 1122.52"
       id="path462" />
    <path
       style="fill:none;stroke:#000000"
       d="M 831.496 1122.52 L -831.496 1122.52"
       id="path464" />
    <path
       style="fill:none;stroke:#000000"
       d="M -669.165 1025.2 L -669.165 1025.2"
       id="path788" />
    <path
       style="fill:none;stroke:#000000"
       d="M -669.165 1025.2 L -669.165 1025.2"
       id="path792" />
    <g
       id="g2255"
       transform="translate(-211.43243,25.969677)">
      <path
         d="m -311.73165,1018.1102 a 7.559055,7.559055 0 0 0 -15.11811,0 7.559055,7.559055 0 0 0 15.11811,0 z"
         style="fill:none;stroke:#000000"
         id="path124" />
      <path
         d="m -311.73165,848.97638 a 7.559055,7.559055 0 0 0 -15.11811,0 7.559055,7.559055 0 0 0 15.11811,0 z"
         style="fill:none;stroke:#000000"
         id="path128" />
      <path
         d="m -492.20409,1018.1102 a 7.5590555,7.5590555 0 0 0 -15.11811,0 7.5590555,7.5590555 0 0 0 15.11811,0 z"
         style="fill:none;stroke:#000000"
         id="path132" />
      <path
         style="fill:none;stroke:#000000"
         d="m -482.007,853.417 h 144.96"
         id="path138" />
      <path
         style="fill:none;stroke:#000000"
         d="M -482.007,1013.67 V 853.417"
         id="path140" />
      <path
         style="fill:none;stroke:#000000"
         d="M -337.047,853.417 V 1013.67"
         id="path142" />
      <path
         style="fill:none;stroke:#000000"
         d="m -337.047,1013.67 h -144.96"
         id="path144" />
      <path
         d="m -492.20409,848.97638 a 7.5590555,7.5590555 0 0 0 -15.11811,0 7.5590555,7.5590555 0 0 0 15.11811,0 z"
         style="fill:none;stroke:#000000"
         id="path146" />
      <path
         d="m -311.73165,1018.1102 a 7.559055,7.559055 0 0 0 -15.11811,0 7.559055,7.559055 0 0 0 15.11811,0 z"
         style="fill:none;stroke:#000000"
         id="path330" />
      <path
         d="m -311.73165,848.97638 a 7.559055,7.559055 0 0 0 -15.11811,0 7.559055,7.559055 0 0 0 15.11811,0 z"
         style="fill:none;stroke:#000000"
         id="path334" />
      <path
         d="m -492.20409,1018.1102 a 7.5590555,7.5590555 0 0 0 -15.11811,0 7.5590555,7.5590555 0 0 0 15.11811,0 z"
         style="fill:none;stroke:#000000"
         id="path338" />
      <path
         style="fill:none;stroke:#000000"
         d="m -482.007,853.417 h 144.96"
         id="path344" />
      <path
         style="fill:none;stroke:#000000"
         d="M -482.007,1013.67 V 853.417"
         id="path346" />
      <path
         style="fill:none;stroke:#000000"
         d="M -337.047,853.417 V 1013.67"
         id="path348" />
      <path
         style="fill:none;stroke:#000000"
         d="m -337.047,1013.67 h -144.96"
         id="path350" />
      <path
         d="m -492.20409,848.97638 a 7.5590555,7.5590555 0 0 0 -15.11811,0 7.5590555,7.5590555 0 0 0 15.11811,0 z"
         style="fill:none;stroke:#000000"
         id="path352" />
      <path
         d="m -311.73165,1018.1102 a 7.559055,7.559055 0 0 0 -15.11811,0 7.559055,7.559055 0 0 0 15.11811,0 z"
         style="fill:none;stroke:#000000"
         id="path746" />
      <path
         style="fill:none;stroke:#000000"
         d="m -311.732,1018.11 v 0"
         id="path748" />
      <path
         d="m -311.73165,1018.1102 a 7.559055,7.559055 0 0 0 -15.11811,0 7.559055,7.559055 0 0 0 15.11811,0 z"
         style="fill:none;stroke:#000000"
         id="path750" />
      <path
         style="fill:none;stroke:#000000"
         d="m -311.732,1018.11 v 0"
         id="path752" />
      <path
         d="m -311.73165,848.97638 a 7.559055,7.559055 0 0 0 -15.11811,0 7.559055,7.559055 0 0 0 15.11811,0 z"
         style="fill:none;stroke:#000000"
         id="path762" />
      <path
         style="fill:none;stroke:#000000"
         d="m -311.732,848.976 v 0"
         id="path764" />
      <path
         d="m -311.73165,848.97638 a 7.559055,7.559055 0 0 0 -15.11811,0 7.559055,7.559055 0 0 0 15.11811,0 z"
         style="fill:none;stroke:#000000"
         id="path766" />
      <path
         style="fill:none;stroke:#000000"
         d="m -311.732,848.976 v 0"
         id="path768" />
      <path
         d="m -492.20409,1018.1102 a 7.5590555,7.5590555 0 0 0 -15.11811,0 7.5590555,7.5590555 0 0 0 15.11811,0 z"
         style="fill:none;stroke:#000000"
         id="path778" />
      <path
         style="fill:none;stroke:#000000"
         d="m -492.204,1018.11 v 0"
         id="path780" />
      <path
         d="m -492.20409,1018.1102 a 7.5590555,7.5590555 0 0 0 -15.11811,0 7.5590555,7.5590555 0 0 0 15.11811,0 z"
         style="fill:none;stroke:#000000"
         id="path782" />
      <path
         style="fill:none;stroke:#000000"
         d="m -492.204,1018.11 v 0"
         id="path784" />
      <path
         style="fill:none;stroke:#000000"
         d="m -482.007,853.417 h 144.96"
         id="path802" />
      <path
         style="fill:none;stroke:#000000"
         d="m -337.047,853.417 v 0"
         id="path804" />
      <path
         style="fill:none;stroke:#000000"
         d="m -482.007,853.417 h 144.96"
         id="path806" />
      <path
         style="fill:none;stroke:#000000"
         d="m -482.007,853.417 v 0"
         id="path808" />
      <path
         style="fill:none;stroke:#000000"
         d="M -482.007,1013.67 V 853.417"
         id="path810" />
      <path
         style="fill:none;stroke:#000000"
         d="m -482.007,853.417 v 0"
         id="path812" />
      <path
         style="fill:none;stroke:#000000"
         d="M -482.007,1013.67 V 853.417"
         id="path814" />
      <path
         style="fill:none;stroke:#000000"
         d="m -482.007,1013.67 v 0"
         id="path816" />
      <path
         style="fill:none;stroke:#000000"
         d="M -337.047,853.417 V 1013.67"
         id="path818" />
      <path
         style="fill:none;stroke:#000000"
         d="m -337.047,1013.67 v 0"
         id="path820" />
      <path
         style="fill:none;stroke:#000000"
         d="M -337.047,853.417 V 1013.67"
         id="path822" />
      <path
         style="fill:none;stroke:#000000"
         d="m -337.047,853.417 v 0"
         id="path824" />
      <path
         style="fill:none;stroke:#000000"
         d="m -337.047,1013.67 h -144.96"
         id="path826" />
      <path
         style="fill:none;stroke:#000000"
         d="m -482.007,1013.67 v 0"
         id="path828" />
      <path
         style="fill:none;stroke:#000000"
         d="m -337.047,1013.67 h -144.96"
         id="path830" />
      <path
         style="fill:none;stroke:#000000"
         d="m -337.047,1013.67 v 0"
         id="path832" />
      <path
         d="m -492.20409,848.97638 a 7.5590555,7.5590555 0 0 0 -15.11811,0 7.5590555,7.5590555 0 0 0 15.11811,0 z"
         style="fill:none;stroke:#000000"
         id="path834" />
      <path
         style="fill:none;stroke:#000000"
         d="m -492.204,848.976 v 0"
         id="path836" />
      <path
         d="m -492.20409,848.97638 a 7.5590555,7.5590555 0 0 0 -15.11811,0 7.5590555,7.5590555 0 0 0 15.11811,0 z"
         style="fill:none;stroke:#000000"
         id="path838" />
      <path
         style="fill:none;stroke:#000000"
         d="m -492.204,848.976 v 0"
         id="path840" />
    </g>
    <g
       id="g2543"
       transform="translate(2,26)">
      <g
         id="g2427"
         transform="translate(-77.79613,687.45681)">
        <path
           d="m 605.08347,275.90551 a 5.87717,5.87717 0 0 0 -11.75434,0 5.87717,5.87717 0 0 0 11.75434,0 z"
           style="fill:none;stroke:#000000"
           id="path180" />
        <path
           style="fill:none;stroke:#000000"
           d="m 513.921,254.362 h 75.78"
           id="path182" />
        <path
           style="fill:none;stroke:#000000"
           d="M 513.921,297.449 V 254.362"
           id="path184" />
        <path
           style="fill:none;stroke:#000000"
           d="m 589.701,254.362 v 43.087"
           id="path186" />
        <path
           style="fill:none;stroke:#000000"
           d="m 589.701,297.449 h -75.78"
           id="path188" />
        <path
           d="m 510.29291,275.90551 a 5.877165,5.877165 0 0 0 -11.75433,0 5.877165,5.877165 0 0 0 11.75433,0 z"
           style="fill:none;stroke:#000000"
           id="path190" />
        <path
           d="m 605.08347,275.90551 a 5.87717,5.87717 0 0 0 -11.75434,0 5.87717,5.87717 0 0 0 11.75434,0 z"
           style="fill:none;stroke:#000000"
           id="path386" />
        <path
           style="fill:none;stroke:#000000"
           d="m 513.921,254.362 h 75.78"
           id="path388" />
        <path
           style="fill:none;stroke:#000000"
           d="M 513.921,297.449 V 254.362"
           id="path390" />
        <path
           style="fill:none;stroke:#000000"
           d="m 589.701,254.362 v 43.087"
           id="path392" />
        <path
           style="fill:none;stroke:#000000"
           d="m 589.701,297.449 h -75.78"
           id="path394" />
        <path
           d="m 510.29291,275.90551 a 5.877165,5.877165 0 0 0 -11.75433,0 5.877165,5.877165 0 0 0 11.75433,0 z"
           style="fill:none;stroke:#000000"
           id="path396" />
        <path
           d="m 605.08347,275.90551 a 5.87717,5.87717 0 0 0 -11.75434,0 5.87717,5.87717 0 0 0 11.75434,0 z"
           style="fill:none;stroke:#000000"
           id="path970" />
        <path
           style="fill:none;stroke:#000000"
           d="m 605.083,275.906 v 0"
           id="path972" />
        <path
           d="m 605.08347,275.90551 a 5.87717,5.87717 0 0 0 -11.75434,0 5.87717,5.87717 0 0 0 11.75434,0 z"
           style="fill:none;stroke:#000000"
           id="path974" />
        <path
           style="fill:none;stroke:#000000"
           d="m 605.083,275.906 v 0"
           id="path976" />
        <path
           style="fill:none;stroke:#000000"
           d="m 513.921,254.362 h 75.78"
           id="path978" />
        <path
           style="fill:none;stroke:#000000"
           d="m 589.701,254.362 v 0"
           id="path980" />
        <path
           style="fill:none;stroke:#000000"
           d="m 513.921,254.362 h 75.78"
           id="path982" />
        <path
           style="fill:none;stroke:#000000"
           d="m 513.921,254.362 v 0"
           id="path984" />
        <path
           style="fill:none;stroke:#000000"
           d="M 513.921,297.449 V 254.362"
           id="path986" />
        <path
           style="fill:none;stroke:#000000"
           d="m 513.921,254.362 v 0"
           id="path988" />
        <path
           style="fill:none;stroke:#000000"
           d="M 513.921,297.449 V 254.362"
           id="path990" />
        <path
           style="fill:none;stroke:#000000"
           d="m 513.921,297.449 v 0"
           id="path992" />
        <path
           style="fill:none;stroke:#000000"
           d="m 589.701,254.362 v 43.087"
           id="path994" />
        <path
           style="fill:none;stroke:#000000"
           d="m 589.701,297.449 v 0"
           id="path996" />
        <path
           style="fill:none;stroke:#000000"
           d="m 589.701,254.362 v 43.087"
           id="path998" />
        <path
           style="fill:none;stroke:#000000"
           d="m 589.701,254.362 v 0"
           id="path1000" />
        <path
           style="fill:none;stroke:#000000"
           d="m 589.701,297.449 h -75.78"
           id="path1002" />
        <path
           style="fill:none;stroke:#000000"
           d="m 513.921,297.449 v 0"
           id="path1004" />
        <path
           style="fill:none;stroke:#000000"
           d="m 589.701,297.449 h -75.78"
           id="path1006" />
        <path
           style="fill:none;stroke:#000000"
           d="m 589.701,297.449 v 0"
           id="path1008" />
        <path
           d="m 510.29291,275.90551 a 5.877165,5.877165 0 0 0 -11.75433,0 5.877165,5.877165 0 0 0 11.75433,0 z"
           style="fill:none;stroke:#000000"
           id="path1010" />
        <path
           style="fill:none;stroke:#000000"
           d="m 510.293,275.906 v 0"
           id="path1012" />
        <path
           d="m 510.29291,275.90551 a 5.877165,5.877165 0 0 0 -11.75433,0 5.877165,5.877165 0 0 0 11.75433,0 z"
           style="fill:none;stroke:#000000"
           id="path1014" />
        <path
           style="fill:none;stroke:#000000"
           d="m 510.293,275.906 v 0"
           id="path1016" />
      </g>
      <g
         id="g2465"
         transform="translate(247.24324,612.07778)">
        <path
           d="m 321.27874,275.90551 a 5.8771655,5.8771655 0 0 0 -11.75433,0 5.8771655,5.8771655 0 0 0 11.75433,0 z"
           style="fill:none;stroke:#000000"
           id="path196" />
        <path
           style="fill:none;stroke:#000000"
           d="M 147.874,254.362 H 305.669"
           id="path198" />
        <path
           style="fill:none;stroke:#000000"
           d="M 147.874,297.449 V 254.362"
           id="path200" />
        <path
           style="fill:none;stroke:#000000"
           d="m 305.669,254.362 v 43.087"
           id="path202" />
        <path
           style="fill:none;stroke:#000000"
           d="M 305.669,297.449 H 147.874"
           id="path204" />
        <path
           d="m 144.0189,275.90551 a 5.8771655,5.8771655 0 0 0 -11.75433,0 5.8771655,5.8771655 0 0 0 11.75433,0 z"
           style="fill:none;stroke:#000000"
           id="path206" />
        <path
           d="m 321.27874,275.90551 a 5.8771655,5.8771655 0 0 0 -11.75433,0 5.8771655,5.8771655 0 0 0 11.75433,0 z"
           style="fill:none;stroke:#000000"
           id="path402" />
        <path
           style="fill:none;stroke:#000000"
           d="M 147.874,254.362 H 305.669"
           id="path404" />
        <path
           style="fill:none;stroke:#000000"
           d="M 147.874,297.449 V 254.362"
           id="path406" />
        <path
           style="fill:none;stroke:#000000"
           d="m 305.669,254.362 v 43.087"
           id="path408" />
        <path
           style="fill:none;stroke:#000000"
           d="M 305.669,297.449 H 147.874"
           id="path410" />
        <path
           d="m 144.0189,275.90551 a 5.8771655,5.8771655 0 0 0 -11.75433,0 5.8771655,5.8771655 0 0 0 11.75433,0 z"
           style="fill:none;stroke:#000000"
           id="path412" />
        <path
           d="m 321.27874,275.90551 a 5.8771655,5.8771655 0 0 0 -11.75433,0 5.8771655,5.8771655 0 0 0 11.75433,0 z"
           style="fill:none;stroke:#000000"
           id="path1034" />
        <path
           style="fill:none;stroke:#000000"
           d="m 321.279,275.906 v 0"
           id="path1036" />
        <path
           d="m 321.27874,275.90551 a 5.8771655,5.8771655 0 0 0 -11.75433,0 5.8771655,5.8771655 0 0 0 11.75433,0 z"
           style="fill:none;stroke:#000000"
           id="path1038" />
        <path
           style="fill:none;stroke:#000000"
           d="m 321.279,275.906 v 0"
           id="path1040" />
        <path
           style="fill:none;stroke:#000000"
           d="M 147.874,254.362 H 305.669"
           id="path1042" />
        <path
           style="fill:none;stroke:#000000"
           d="m 305.669,254.362 v 0"
           id="path1044" />
        <path
           style="fill:none;stroke:#000000"
           d="M 147.874,254.362 H 305.669"
           id="path1046" />
        <path
           style="fill:none;stroke:#000000"
           d="m 147.874,254.362 v 0"
           id="path1048" />
        <path
           style="fill:none;stroke:#000000"
           d="M 147.874,297.449 V 254.362"
           id="path1050" />
        <path
           style="fill:none;stroke:#000000"
           d="m 147.874,254.362 v 0"
           id="path1052" />
        <path
           style="fill:none;stroke:#000000"
           d="M 147.874,297.449 V 254.362"
           id="path1054" />
        <path
           style="fill:none;stroke:#000000"
           d="m 147.874,297.449 v 0"
           id="path1056" />
        <path
           style="fill:none;stroke:#000000"
           d="m 305.669,254.362 v 43.087"
           id="path1058" />
        <path
           style="fill:none;stroke:#000000"
           d="m 305.669,297.449 v 0"
           id="path1060" />
        <path
           style="fill:none;stroke:#000000"
           d="m 305.669,254.362 v 43.087"
           id="path1062" />
        <path
           style="fill:none;stroke:#000000"
           d="m 305.669,254.362 v 0"
           id="path1064" />
        <path
           style="fill:none;stroke:#000000"
           d="M 305.669,297.449 H 147.874"
           id="path1066" />
        <path
           style="fill:none;stroke:#000000"
           d="m 147.874,297.449 v 0"
           id="path1068" />
        <path
           style="fill:none;stroke:#000000"
           d="M 305.669,297.449 H 147.874"
           id="path1070" />
        <path
           style="fill:none;stroke:#000000"
           d="m 305.669,297.449 v 0"
           id="path1072" />
        <path
           d="m 144.0189,275.90551 a 5.8771655,5.8771655 0 0 0 -11.75433,0 5.8771655,5.8771655 0 0 0 11.75433,0 z"
           style="fill:none;stroke:#000000"
           id="path1074" />
        <path
           style="fill:none;stroke:#000000"
           d="m 144.019,275.906 v 0"
           id="path1076" />
        <path
           d="m 144.0189,275.90551 a 5.8771655,5.8771655 0 0 0 -11.75433,0 5.8771655,5.8771655 0 0 0 11.75433,0 z"
           style="fill:none;stroke:#000000"
           id="path1078" />
        <path
           style="fill:none;stroke:#000000"
           d="m 144.019,275.906 v 0"
           id="path1080" />
      </g>
    </g>
    <g
       id="g2275"
       transform="translate(766.80451,339.33856)">
      <path
         d="m -87.484989,713.12126 a 7.0032005,7.0032005 0 0 0 -14.006401,0 7.0032005,7.0032005 0 0 0 14.006401,0 z"
         style="fill:none;stroke:#000000"
         id="path150" />
      <path
         d="m -66.16063,612.28346 a 28.32756,28.32756 0 0 0 -56.65512,0 28.32756,28.32756 0 0 0 56.65512,0 z"
         style="fill:none;stroke:#000000"
         id="path152" />
      <path
         d="m -87.484989,553.77638 a 7.0032005,7.0032005 0 0 0 -14.006401,0 7.0032005,7.0032005 0 0 0 14.006401,0 z"
         style="fill:none;stroke:#000000"
         id="path214" />
      <path
         d="m -87.484989,713.12126 a 7.0032005,7.0032005 0 0 0 -14.006401,0 7.0032005,7.0032005 0 0 0 14.006401,0 z"
         style="fill:none;stroke:#000000"
         id="path356" />
      <path
         d="m -66.16063,612.28346 a 28.32756,28.32756 0 0 0 -56.65512,0 28.32756,28.32756 0 0 0 56.65512,0 z"
         style="fill:none;stroke:#000000"
         id="path358" />
      <path
         d="m -87.484989,553.77638 a 7.0032005,7.0032005 0 0 0 -14.006401,0 7.0032005,7.0032005 0 0 0 14.006401,0 z"
         style="fill:none;stroke:#000000"
         id="path420" />
      <path
         d="m -87.484989,713.12126 a 7.0032005,7.0032005 0 0 0 -14.006401,0 7.0032005,7.0032005 0 0 0 14.006401,0 z"
         style="fill:none;stroke:#000000"
         id="path850" />
      <path
         style="fill:none;stroke:#000000"
         d="m -87.4851,713.121 v 0"
         id="path852" />
      <path
         d="m -87.484989,713.12126 a 7.0032005,7.0032005 0 0 0 -14.006401,0 7.0032005,7.0032005 0 0 0 14.006401,0 z"
         style="fill:none;stroke:#000000"
         id="path854" />
      <path
         style="fill:none;stroke:#000000"
         d="m -87.4851,713.121 v 0"
         id="path856" />
      <path
         d="m -66.16063,612.28346 a 28.32756,28.32756 0 0 0 -56.65512,0 28.32756,28.32756 0 0 0 56.65512,0 z"
         style="fill:none;stroke:#000000"
         id="path858" />
      <path
         style="fill:none;stroke:#000000"
         d="m -66.1606,612.283 v 0"
         id="path860" />
      <path
         d="m -66.16063,612.28346 a 28.32756,28.32756 0 0 0 -56.65512,0 28.32756,28.32756 0 0 0 56.65512,0 z"
         style="fill:none;stroke:#000000"
         id="path862" />
      <path
         style="fill:none;stroke:#000000"
         d="m -66.1606,612.283 v 0"
         id="path864" />
      <path
         d="m -87.484989,553.77638 a 7.0032005,7.0032005 0 0 0 -14.006401,0 7.0032005,7.0032005 0 0 0 14.006401,0 z"
         style="fill:none;stroke:#000000"
         id="path1106" />
      <path
         style="fill:none;stroke:#000000"
         d="m -87.4851,553.776 v 0"
         id="path1108" />
      <path
         d="m -87.484989,553.77638 a 7.0032005,7.0032005 0 0 0 -14.006401,0 7.0032005,7.0032005 0 0 0 14.006401,0 z"
         style="fill:none;stroke:#000000"
         id="path1110" />
      <path
         style="fill:none;stroke:#000000"
         d="m -87.4851,553.776 v 0"
         id="path1112" />
    </g>
    <g
       id="g2337"
       transform="translate(285.31249,682.17083)">
      <path
         d="m 32.362205,350.64567 a 6,6 0 0 0 -12,0 6,6 0 0 0 12,0 z"
         style="fill:none;stroke:#000000"
         id="path178" />
      <path
         d="m 32.362205,203.24409 a 6,6 0 0 0 -12,0 6,6 0 0 0 12,0 z"
         style="fill:none;stroke:#000000"
         id="path210" />
      <path
         d="m -345.59055,350.64567 a 6,6 0 0 0 -12,0 6,6 0 0 0 12,0 z"
         style="fill:none;stroke:#000000"
         id="path218" />
      <path
         d="m -723.54331,350.64567 a 6,6 0 0 0 -12,0 6,6 0 0 0 12,0 z"
         style="fill:none;stroke:#000000"
         id="path228" />
      <path
         style="fill:none;stroke:#000000"
         d="M -680.315,225.071 H -22.8661"
         id="path230" />
      <path
         style="fill:none;stroke:#000000"
         d="M -680.315,328.819 V 225.071"
         id="path232" />
      <path
         style="fill:none;stroke:#000000"
         d="M -22.8661,225.071 V 328.819"
         id="path234" />
      <path
         style="fill:none;stroke:#000000"
         d="M -22.8661,328.819 H -680.315"
         id="path236" />
      <path
         d="m -345.59055,203.24409 a 6,6 0 0 0 -12,0 6,6 0 0 0 12,0 z"
         style="fill:none;stroke:#000000"
         id="path242" />
      <path
         d="m -723.54331,203.24409 a 6,6 0 0 0 -12,0 6,6 0 0 0 12,0 z"
         style="fill:none;stroke:#000000"
         id="path248" />
      <path
         d="m 32.362205,350.64567 a 6,6 0 0 0 -12,0 6,6 0 0 0 12,0 z"
         style="fill:none;stroke:#000000"
         id="path384" />
      <path
         d="m 32.362205,203.24409 a 6,6 0 0 0 -12,0 6,6 0 0 0 12,0 z"
         style="fill:none;stroke:#000000"
         id="path416" />
      <path
         d="m -345.59055,350.64567 a 6,6 0 0 0 -12,0 6,6 0 0 0 12,0 z"
         style="fill:none;stroke:#000000"
         id="path424" />
      <path
         d="m -723.54331,350.64567 a 6,6 0 0 0 -12,0 6,6 0 0 0 12,0 z"
         style="fill:none;stroke:#000000"
         id="path434" />
      <path
         style="fill:none;stroke:#000000"
         d="M -680.315,225.071 H -22.8661"
         id="path436" />
      <path
         style="fill:none;stroke:#000000"
         d="M -680.315,328.819 V 225.071"
         id="path438" />
      <path
         style="fill:none;stroke:#000000"
         d="M -22.8661,225.071 V 328.819"
         id="path440" />
      <path
         style="fill:none;stroke:#000000"
         d="M -22.8661,328.819 H -680.315"
         id="path442" />
      <path
         d="m -345.59055,203.24409 a 6,6 0 0 0 -12,0 6,6 0 0 0 12,0 z"
         style="fill:none;stroke:#000000"
         id="path448" />
      <path
         d="m -723.54331,203.24409 a 6,6 0 0 0 -12,0 6,6 0 0 0 12,0 z"
         style="fill:none;stroke:#000000"
         id="path454" />
      <path
         d="m 32.362205,350.64567 a 6,6 0 0 0 -12,0 6,6 0 0 0 12,0 z"
         style="fill:none;stroke:#000000"
         id="path962" />
      <path
         style="fill:none;stroke:#000000"
         d="m 32.3622,350.646 v 0"
         id="path964" />
      <path
         d="m 32.362205,350.64567 a 6,6 0 0 0 -12,0 6,6 0 0 0 12,0 z"
         style="fill:none;stroke:#000000"
         id="path966" />
      <path
         style="fill:none;stroke:#000000"
         d="m 32.3622,350.646 v 0"
         id="path968" />
      <path
         d="m 32.362205,203.24409 a 6,6 0 0 0 -12,0 6,6 0 0 0 12,0 z"
         style="fill:none;stroke:#000000"
         id="path1090" />
      <path
         style="fill:none;stroke:#000000"
         d="m 32.3622,203.244 v 0"
         id="path1092" />
      <path
         d="m 32.362205,203.24409 a 6,6 0 0 0 -12,0 6,6 0 0 0 12,0 z"
         style="fill:none;stroke:#000000"
         id="path1094" />
      <path
         style="fill:none;stroke:#000000"
         d="m 32.3622,203.244 v 0"
         id="path1096" />
      <path
         d="m -345.59055,350.64567 a 6,6 0 0 0 -12,0 6,6 0 0 0 12,0 z"
         style="fill:none;stroke:#000000"
         id="path1122" />
      <path
         style="fill:none;stroke:#000000"
         d="m -345.591,350.646 v 0"
         id="path1124" />
      <path
         d="m -345.59055,350.64567 a 6,6 0 0 0 -12,0 6,6 0 0 0 12,0 z"
         style="fill:none;stroke:#000000"
         id="path1126" />
      <path
         style="fill:none;stroke:#000000"
         d="m -345.591,350.646 v 0"
         id="path1128" />
      <path
         d="m -723.54331,350.64567 a 6,6 0 0 0 -12,0 6,6 0 0 0 12,0 z"
         style="fill:none;stroke:#000000"
         id="path1162" />
      <path
         style="fill:none;stroke:#000000"
         d="m -723.541,350.646 v 0"
         id="path1164" />
      <path
         d="m -723.54331,350.64567 a 6,6 0 0 0 -12,0 6,6 0 0 0 12,0 z"
         style="fill:none;stroke:#000000"
         id="path1166" />
      <path
         style="fill:none;stroke:#000000"
         d="m -723.541,350.646 v 0"
         id="path1168" />
      <path
         style="fill:none;stroke:#000000"
         d="M -680.315,225.071 H -22.8661"
         id="path1170" />
      <path
         style="fill:none;stroke:#000000"
         d="m -22.8661,225.071 v 0"
         id="path1172" />
      <path
         style="fill:none;stroke:#000000"
         d="M -680.315,225.071 H -22.8661"
         id="path1174" />
      <path
         style="fill:none;stroke:#000000"
         d="m -680.315,225.071 v 0"
         id="path1176" />
      <path
         style="fill:none;stroke:#000000"
         d="M -680.315,328.819 V 225.071"
         id="path1178" />
      <path
         style="fill:none;stroke:#000000"
         d="m -680.315,225.071 v 0"
         id="path1180" />
      <path
         style="fill:none;stroke:#000000"
         d="M -680.315,328.819 V 225.071"
         id="path1182" />
      <path
         style="fill:none;stroke:#000000"
         d="m -680.315,328.819 v 0"
         id="path1184" />
      <path
         style="fill:none;stroke:#000000"
         d="M -22.8661,225.071 V 328.819"
         id="path1186" />
      <path
         style="fill:none;stroke:#000000"
         d="m -22.8661,328.819 v 0"
         id="path1188" />
      <path
         style="fill:none;stroke:#000000"
         d="M -22.8661,225.071 V 328.819"
         id="path1190" />
      <path
         style="fill:none;stroke:#000000"
         d="m -22.8661,225.071 v 0"
         id="path1192" />
      <path
         style="fill:none;stroke:#000000"
         d="M -22.8661,328.819 H -680.315"
         id="path1194" />
      <path
         style="fill:none;stroke:#000000"
         d="m -680.315,328.819 v 0"
         id="path1196" />
      <path
         style="fill:none;stroke:#000000"
         d="M -22.8661,328.819 H -680.315"
         id="path1198" />
      <path
         style="fill:none;stroke:#000000"
         d="m -22.8661,328.819 v 0"
         id="path1200" />
      <path
         d="m -345.59055,203.24409 a 6,6 0 0 0 -12,0 6,6 0 0 0 12,0 z"
         style="fill:none;stroke:#000000"
         id="path1218" />
      <path
         style="fill:none;stroke:#000000"
         d="m -345.591,203.244 v 0"
         id="path1220" />
      <path
         d="m -345.59055,203.24409 a 6,6 0 0 0 -12,0 6,6 0 0 0 12,0 z"
         style="fill:none;stroke:#000000"
         id="path1222" />
      <path
         style="fill:none;stroke:#000000"
         d="m -345.591,203.244 v 0"
         id="path1224" />
      <path
         d="m -723.54331,203.24409 a 6,6 0 0 0 -12,0 6,6 0 0 0 12,0 z"
         style="fill:none;stroke:#000000"
         id="path1242" />
      <path
         style="fill:none;stroke:#000000"
         d="m -723.541,203.244 v 0"
         id="path1244" />
      <path
         d="m -723.54331,203.24409 a 6,6 0 0 0 -12,0 6,6 0 0 0 12,0 z"
         style="fill:none;stroke:#000000"
         id="path1246" />
      <path
         style="fill:none;stroke:#000000"
         d="m -723.541,203.244 v 0"
         id="path1248" />
    </g>
    <path
       style="fill:none;stroke:#000000;stroke-width:1.02663"
       d="m -830.94268,787.008 v 336"
       id="path2467"
       sodipodi:nodetypes="cc" />
  </g>
</svg>
