999
FreeCAD v0.19 24291 (Git)
  0
SECTION
  2
HEADER
  9
$ACADVER
  1
AC1014
  9
$ACADMAINTVER
 70
     9
  9
$DWGCODEPAGE
  3
ANSI_1252
  9
$TEXTSTYLE
  7
STANDARD
  9
$DIMSTYLE
  2
STANDARD
  9
$DIMTXSTY
  7
STANDARD
  9
$CMLSTYLE
  2
STANDARD
  9
$PEXTMAX
 10
50
 20
50
 30
50
  9
$PEXTMIN
 10
0
 20
0
 30
0
  9
$HANDSEED
  5
FFFF
  0
ENDSEC
  0
SECTION
  2
CLASSES
  0
CLASS
  1
ACDBDICTIONARYWDFLT
  2
AcDbDictionaryWithDefault
  3
ObjectDBX Classes
 90
        0
280
     0
281
     0
  0
CLASS
  1
XRECORD
  2
AcDbXrecord
  3
ObjectDBX Classes
 90
        0
280
     0
281
     0
  0
CLASS
  1
LWPOLYLINE
  2
AcDbPolyline
  3
ObjectDBX Classes
 90
        0
280
     0
281
     1
  0
ENDSEC
  0
SECTION
  2
TABLES
  0
TABLE
  2
VPORT
  5
20
330
0
100
AcDbSymbolTable
 70
     1
  0
VPORT
  5
21
330
20
100
AcDbSymbolTableRecord
100
AcDbViewportTableRecord
  2
*ACTIVE
 70
     0
  0
ENDTAB
  0
TABLE
  2
LTYPE
  5
22
330
0
100
AcDbSymbolTable
 70
     1
  0
LTYPE
  5
23
330
21
100
AcDbSymbolTableRecord
100
AcDbLinetypeTableRecord
  2
BYBLOCK
 70
     0
  3

 72
    65
 73
     0
 40
0.0
  0
LTYPE
  5
24
330
21
100
AcDbSymbolTableRecord
100
AcDbLinetypeTableRecord
  2
BYLAYER
 70
     0
  3

 72
    65
 73
     0
 40
0.0
  0
LTYPE
  5
25
330
21
100
AcDbSymbolTableRecord
100
AcDbLinetypeTableRecord
  2
CONTINUOUS
 70
     0
  3
Solid line
 72
    65
 73
     0
 40
0.0
  0
ENDTAB
  0
TABLE
  2
LAYER
  5
C72
330
0
100
AcDbSymbolTable
 70
3
  0
LAYER
  5
C73
330
C72
100
AcDbSymbolTableRecord
100
AcDbLayerTableRecord
  2
0
 70
   0
 62
   7
  6
CONTINUOUS
  0
LAYER
  5
C74
330
C72
100
AcDbSymbolTableRecord
100
AcDbLayerTableRecord
  2
none
 70
    0
 62
    7
  6
CONTINUOUS
  0
LAYER
  5
C75
330
C72
100
AcDbSymbolTableRecord
100
AcDbLayerTableRecord
  2
Body
 70
    0
 62
    7
  6
CONTINUOUS
  0
ENDTAB
  0
TABLE
  2
STYLE
  5
70
330
0
100
AcDbSymbolTable
 70
     2
  0
STYLE
  5
71
330
70
100
AcDbSymbolTableRecord
100
AcDbTextStyleTableRecord
  2
STANDARD
 70
     0
 40
0.0
 41
1.0
 50
0.0
 71
     0
 42
2.5
  3
arial.ttf
  4

  0
STYLE
  5
72
330
70
100
AcDbSymbolTableRecord
100
AcDbTextStyleTableRecord
  2
ANNOTATIVE
 70
     0
 40
0.0
 41
1.0
 50
0.0
 71
     0
 42
2.5
  3
arial.ttf
  4

  0
ENDTAB
  0
TABLE
  2
VIEW
  5
73
330
0
100
AcDbSymbolTable
 70
     0
  0
ENDTAB
  0
TABLE
  2
UCS
  5
74
330
0
100
AcDbSymbolTable
 70
     0
  0
ENDTAB
  0
TABLE
  2
APPID
  5
75
330
0
100
AcDbSymbolTable
 70
     2
  0
APPID
  5
76
330
75
100
AcDbSymbolTableRecord
100
AcDbRegAppTableRecord
  2
ACAD
 70
     0
  0
APPID
  5
77
330
75
100
AcDbSymbolTableRecord
100
AcDbRegAppTableRecord
  2
ACADANNOTATIVE
 70
     0
  0
ENDTAB
  0
TABLE
  2
DIMSTYLE
  5
78
330
0
100
AcDbSymbolTable
 70
     2
  0
DIMSTYLE
105
79
330
78
100
AcDbSymbolTableRecord
100
AcDbDimStyleTableRecord
  2
STANDARD
 70
     0
  3

  4

  5

  6

  7

 40
0.0
 41
2.5
 42
0.625
 43
3.75
 44
1.25
 45
0.0
 46
0.0
 47
0.0
 48
0.0
140
2.5
141
2.5
142
0.0
143
0.03937007874016
144
1.0
145
0.0
146
1.0
147
0.625
 71
     0
 72
     0
 73
     0
 74
     0
 75
     0
 76
     0
 77
     1
 78
     8
170
     0
171
     3
172
     1
173
     0
174
     0
175
     0
176
     0
177
     0
178
     0
270
     2
271
     2
272
     2
273
     2
274
     3
340
71
275
     0
280
     0
281
     0
282
     0
283
     0
284
     8
285
     0
286
     0
287
     3
288
     0
  0
ENDTAB
  0
TABLE
  2
BLOCK_RECORD
  5
A01
330
0
100
AcDbSymbolTable
  70
5
  0
BLOCK_RECORD
  5
A02
330
A01
100
AcDbSymbolTableRecord
100
AcDbBlockTableRecord
  2
*MODEL_SPACE
  0
BLOCK_RECORD
  5
A03
330
A01
100
AcDbSymbolTableRecord
100
AcDbBlockTableRecord
  2
*PAPER_SPACE
  0
ENDTAB
  0
ENDSEC
  0
SECTION
  2
BLOCKS
  0
BLOCK
  5
A04
330
A02
100
AcDbEntity
  8
0
100
AcDbBlockBegin
  2
*MODEL_SPACE
 70
   0
 10
0
 20
0
 30
0
  3
*MODEL_SPACE
  1
 
  0
ENDBLK
  5
A05
330
A02
100
AcDbEntity
  8
0
100
AcDbBlockEnd
  0
BLOCK
  5
A06
330
A03
100
AcDbEntity
 67
1
  8
0
100
AcDbBlockBegin
  2
*PAPER_SPACE
 70
   0
 10
0
 20
0
 30
0
  3
*PAPER_SPACE
  1
 
  0
ENDBLK
  5
A07
330
A03
100
AcDbEntity
 67
    1
  8
0
100
AcDbBlockEnd
  0
ENDSEC
  0
SECTION
  2
ENTITIES
  0
LINE
  5
A08
330
A02
100
AcDbEntity
  8
Body
100
AcDbLine
 10
-220
 20
279.4
 30
0
 11
-220
 21
279.4
 31
1.5748
  0
LINE
  5
A09
330
A02
100
AcDbEntity
  8
Body
100
AcDbLine
 10
220
 20
279.4
 30
0
 11
220
 21
279.4
 31
1.5748
  0
LINE
  5
A0A
330
A02
100
AcDbEntity
  8
Body
100
AcDbLine
 10
-220
 20
279.4
 30
0
 11
220
 21
279.4
 31
0
  0
LINE
  5
A0B
330
A02
100
AcDbEntity
  8
Body
100
AcDbLine
 10
-220
 20
279.4
 30
1.5748
 11
220
 21
279.4
 31
1.5748
  0
LINE
  5
A0C
330
A02
100
AcDbEntity
  8
Body
100
AcDbLine
 10
-220
 20
0
 30
0
 11
-220
 21
0
 31
1.5748
  0
LINE
  5
A0D
330
A02
100
AcDbEntity
  8
Body
100
AcDbLine
 10
-220
 20
279.4
 30
0
 11
-220
 21
279.4
 31
1.5748
  0
LINE
  5
A0E
330
A02
100
AcDbEntity
  8
Body
100
AcDbLine
 10
-220
 20
0
 30
0
 11
-220
 21
279.4
 31
0
  0
LINE
  5
A0F
330
A02
100
AcDbEntity
  8
Body
100
AcDbLine
 10
-220
 20
0
 30
1.5748
 11
-220
 21
279.4
 31
1.5748
  0
LINE
  5
A10
330
A02
100
AcDbEntity
  8
Body
100
AcDbLine
 10
220
 20
279.4
 30
0
 11
220
 21
279.4
 31
1.5748
  0
LINE
  5
A11
330
A02
100
AcDbEntity
  8
Body
100
AcDbLine
 10
220
 20
0
 30
0
 11
220
 21
0
 31
1.5748
  0
LINE
  5
A12
330
A02
100
AcDbEntity
  8
Body
100
AcDbLine
 10
220
 20
279.4
 30
0
 11
220
 21
0
 31
0
  0
LINE
  5
A13
330
A02
100
AcDbEntity
  8
Body
100
AcDbLine
 10
220
 20
279.4
 30
1.5748
 11
220
 21
0
 31
1.5748
  0
LINE
  5
A14
330
A02
100
AcDbEntity
  8
Body
100
AcDbLine
 10
-220
 20
279.4
 30
0
 11
220
 21
279.4
 31
0
  0
LINE
  5
A15
330
A02
100
AcDbEntity
  8
Body
100
AcDbLine
 10
-220
 20
0
 30
0
 11
-220
 21
279.4
 31
0
  0
LINE
  5
A16
330
A02
100
AcDbEntity
  8
Body
100
AcDbLine
 10
220
 20
279.4
 30
0
 11
220
 21
0
 31
0
  0
LINE
  5
A17
330
A02
100
AcDbEntity
  8
Body
100
AcDbLine
 10
220
 20
0
 30
0
 11
-220
 21
0
 31
0
  0
CIRCLE
  5
A18
330
A02
100
AcDbEntity
  8
Body
100
AcDbCircle
 10
210
 20
39.7
 40
2.61
  0
CIRCLE
  5
A19
330
A02
100
AcDbEntity
  8
Body
100
AcDbCircle
 10
150
 20
10
 40
2.61
  0
CIRCLE
  5
A1A
330
A02
100
AcDbEntity
  8
Body
100
AcDbCircle
 10
132.229
 20
27.625
 40
2
  0
LINE
  5
A1B
330
A02
100
AcDbEntity
  8
Body
100
AcDbLine
 10
89.177
 20
71.2
 30
0
 11
89.177
 21
28.8
 31
0
  0
LINE
  5
A1C
330
A02
100
AcDbEntity
  8
Body
100
AcDbLine
 10
127.531
 20
71.2
 30
0
 11
89.177
 21
71.2
 31
0
  0
LINE
  5
A1D
330
A02
100
AcDbEntity
  8
Body
100
AcDbLine
 10
89.177
 20
28.8
 30
0
 11
127.531
 21
28.8
 31
0
  0
LINE
  5
A1E
330
A02
100
AcDbEntity
  8
Body
100
AcDbLine
 10
127.531
 20
28.8
 30
0
 11
127.531
 21
71.2
 31
0
  0
CIRCLE
  5
A1F
330
A02
100
AcDbEntity
  8
Body
100
AcDbCircle
 10
132.229
 20
72.375
 40
2
  0
CIRCLE
  5
A20
330
A02
100
AcDbEntity
  8
Body
100
AcDbCircle
 10
100
 20
10
 40
2.61
  0
CIRCLE
  5
A21
330
A02
100
AcDbEntity
  8
Body
100
AcDbCircle
 10
84.479
 20
27.625
 40
2
  0
CIRCLE
  5
A22
330
A02
100
AcDbEntity
  8
Body
100
AcDbCircle
 10
50
 20
10
 40
2.61
  0
CIRCLE
  5
A23
330
A02
100
AcDbEntity
  8
Body
100
AcDbCircle
 10
23.875
 20
27.625
 40
2
  0
CIRCLE
  5
A24
330
A02
100
AcDbEntity
  8
Body
100
AcDbCircle
 10
84.479
 20
72.375
 40
2
  0
LINE
  5
A25
330
A02
100
AcDbEntity
  8
Body
100
AcDbLine
 10
-19.177
 20
71.2
 30
0
 11
-19.177
 21
28.8
 31
0
  0
LINE
  5
A26
330
A02
100
AcDbEntity
  8
Body
100
AcDbLine
 10
19.177
 20
71.2
 30
0
 11
-19.177
 21
71.2
 31
0
  0
LINE
  5
A27
330
A02
100
AcDbEntity
  8
Body
100
AcDbLine
 10
-19.177
 20
28.8
 30
0
 11
19.177
 21
28.8
 31
0
  0
LINE
  5
A28
330
A02
100
AcDbEntity
  8
Body
100
AcDbLine
 10
19.177
 20
28.8
 30
0
 11
19.177
 21
71.2
 31
0
  0
CIRCLE
  5
A29
330
A02
100
AcDbEntity
  8
Body
100
AcDbCircle
 10
23.875
 20
72.375
 40
2
  0
CIRCLE
  5
A2A
330
A02
100
AcDbEntity
  8
Body
100
AcDbCircle
 10
210
 20
89.7
 40
2.61
  0
CIRCLE
  5
A2B
330
A02
100
AcDbEntity
  8
Body
100
AcDbCircle
 10
145
 20
93.75
 40
2
  0
LINE
  5
A2C
330
A02
100
AcDbEntity
  8
Body
100
AcDbLine
 10
128.17
 20
168.5
 30
0
 11
161.83
 21
168.5
 31
0
  0
LINE
  5
A2D
330
A02
100
AcDbEntity
  8
Body
100
AcDbLine
 10
128.17
 20
101.5
 30
0
 11
128.17
 21
168.5
 31
0
  0
LINE
  5
A2E
330
A02
100
AcDbEntity
  8
Body
100
AcDbLine
 10
161.83
 20
168.5
 30
0
 11
161.83
 21
101.5
 31
0
  0
LINE
  5
A2F
330
A02
100
AcDbEntity
  8
Body
100
AcDbLine
 10
161.83
 20
101.5
 30
0
 11
128.17
 21
101.5
 31
0
  0
CIRCLE
  5
A30
330
A02
100
AcDbEntity
  8
Body
100
AcDbCircle
 10
25
 20
93.75
 40
2
  0
CIRCLE
  5
A31
330
A02
100
AcDbEntity
  8
Body
100
AcDbCircle
 10
95
 20
108.32
 40
1.85293
  0
CIRCLE
  5
A32
330
A02
100
AcDbEntity
  8
Body
100
AcDbCircle
 10
95
 20
135
 40
7.495
  0
LINE
  5
A33
330
A02
100
AcDbEntity
  8
Body
100
AcDbLine
 10
8.17
 20
168.5
 30
0
 11
41.83
 21
168.5
 31
0
  0
LINE
  5
A34
330
A02
100
AcDbEntity
  8
Body
100
AcDbLine
 10
8.17
 20
101.5
 30
0
 11
8.17
 21
168.5
 31
0
  0
LINE
  5
A35
330
A02
100
AcDbEntity
  8
Body
100
AcDbLine
 10
41.83
 20
168.5
 30
0
 11
41.83
 21
101.5
 31
0
  0
LINE
  5
A36
330
A02
100
AcDbEntity
  8
Body
100
AcDbLine
 10
41.83
 20
101.5
 30
0
 11
8.17
 21
101.5
 31
0
  0
CIRCLE
  5
A37
330
A02
100
AcDbEntity
  8
Body
100
AcDbCircle
 10
0
 20
10
 40
2.61
  0
CIRCLE
  5
A38
330
A02
100
AcDbEntity
  8
Body
100
AcDbCircle
 10
-50
 20
10
 40
2.61
  0
CIRCLE
  5
A39
330
A02
100
AcDbEntity
  8
Body
100
AcDbCircle
 10
-23.875
 20
27.625
 40
2
  0
CIRCLE
  5
A3A
330
A02
100
AcDbEntity
  8
Body
100
AcDbCircle
 10
-100
 20
10
 40
2.61
  0
CIRCLE
  5
A3B
330
A02
100
AcDbEntity
  8
Body
100
AcDbCircle
 10
-84.479
 20
27.625
 40
2
  0
CIRCLE
  5
A3C
330
A02
100
AcDbEntity
  8
Body
100
AcDbCircle
 10
-23.875
 20
72.375
 40
2
  0
CIRCLE
  5
A3D
330
A02
100
AcDbEntity
  8
Body
100
AcDbCircle
 10
-84.479
 20
72.375
 40
2
  0
CIRCLE
  5
A3E
330
A02
100
AcDbEntity
  8
Body
100
AcDbCircle
 10
-150
 20
10
 40
2.61
  0
CIRCLE
  5
A3F
330
A02
100
AcDbEntity
  8
Body
100
AcDbCircle
 10
-132.229
 20
27.625
 40
2
  0
CIRCLE
  5
A40
330
A02
100
AcDbEntity
  8
Body
100
AcDbCircle
 10
-180
 20
25.75
 40
2.95
  0
CIRCLE
  5
A41
330
A02
100
AcDbEntity
  8
Body
100
AcDbCircle
 10
-210
 20
39.7
 40
2.61
  0
LINE
  5
A42
330
A02
100
AcDbEntity
  8
Body
100
AcDbLine
 10
-127.531
 20
71.2
 30
0
 11
-89.177
 21
71.2
 31
0
  0
LINE
  5
A43
330
A02
100
AcDbEntity
  8
Body
100
AcDbLine
 10
-127.531
 20
28.8
 30
0
 11
-127.531
 21
71.2
 31
0
  0
LINE
  5
A44
330
A02
100
AcDbEntity
  8
Body
100
AcDbLine
 10
-89.177
 20
71.2
 30
0
 11
-89.177
 21
28.8
 31
0
  0
LINE
  5
A45
330
A02
100
AcDbEntity
  8
Body
100
AcDbLine
 10
-89.177
 20
28.8
 30
0
 11
-127.531
 21
28.8
 31
0
  0
CIRCLE
  5
A46
330
A02
100
AcDbEntity
  8
Body
100
AcDbCircle
 10
-132.229
 20
72.375
 40
2
  0
CIRCLE
  5
A47
330
A02
100
AcDbEntity
  8
Body
100
AcDbCircle
 10
-95
 20
93.75
 40
2
  0
CIRCLE
  5
A48
330
A02
100
AcDbEntity
  8
Body
100
AcDbCircle
 10
-25
 20
108.32
 40
1.85293
  0
CIRCLE
  5
A49
330
A02
100
AcDbEntity
  8
Body
100
AcDbCircle
 10
-25
 20
135
 40
7.495
  0
LINE
  5
A4A
330
A02
100
AcDbEntity
  8
Body
100
AcDbLine
 10
-111.83
 20
168.5
 30
0
 11
-78.17
 21
168.5
 31
0
  0
LINE
  5
A4B
330
A02
100
AcDbEntity
  8
Body
100
AcDbLine
 10
-111.83
 20
101.5
 30
0
 11
-111.83
 21
168.5
 31
0
  0
LINE
  5
A4C
330
A02
100
AcDbEntity
  8
Body
100
AcDbLine
 10
-78.17
 20
168.5
 30
0
 11
-78.17
 21
101.5
 31
0
  0
LINE
  5
A4D
330
A02
100
AcDbEntity
  8
Body
100
AcDbLine
 10
-78.17
 20
101.5
 30
0
 11
-111.83
 21
101.5
 31
0
  0
CIRCLE
  5
A4E
330
A02
100
AcDbEntity
  8
Body
100
AcDbCircle
 10
-210
 20
89.7
 40
2.61
  0
CIRCLE
  5
A4F
330
A02
100
AcDbEntity
  8
Body
100
AcDbCircle
 10
-145
 20
108.32
 40
1.85293
  0
CIRCLE
  5
A50
330
A02
100
AcDbEntity
  8
Body
100
AcDbCircle
 10
-145
 20
135
 40
7.495
  0
CIRCLE
  5
A51
330
A02
100
AcDbEntity
  8
Body
100
AcDbCircle
 10
210
 20
139.7
 40
2.61
  0
CIRCLE
  5
A52
330
A02
100
AcDbEntity
  8
Body
100
AcDbCircle
 10
210
 20
189.7
 40
2.61
  0
CIRCLE
  5
A53
330
A02
100
AcDbEntity
  8
Body
100
AcDbCircle
 10
145
 20
176.25
 40
2
  0
CIRCLE
  5
A54
330
A02
100
AcDbEntity
  8
Body
100
AcDbCircle
 10
95
 20
150.48
 40
1.85293
  0
CIRCLE
  5
A55
330
A02
100
AcDbEntity
  8
Body
100
AcDbCircle
 10
25
 20
176.25
 40
2
  0
CIRCLE
  5
A56
330
A02
100
AcDbEntity
  8
Body
100
AcDbCircle
 10
6.975
 20
204.225
 40
1.5875
  0
CIRCLE
  5
A57
330
A02
100
AcDbEntity
  8
Body
100
AcDbCircle
 10
158.54
 20
224
 40
1.555
  0
LINE
  5
A58
330
A02
100
AcDbEntity
  8
Body
100
AcDbLine
 10
135.975
 20
229.7
 30
0
 11
156.025
 21
229.7
 31
0
  0
LINE
  5
A59
330
A02
100
AcDbEntity
  8
Body
100
AcDbLine
 10
135.975
 20
218.3
 30
0
 11
135.975
 21
229.7
 31
0
  0
LINE
  5
A5A
330
A02
100
AcDbEntity
  8
Body
100
AcDbLine
 10
156.025
 20
229.7
 30
0
 11
156.025
 21
218.3
 31
0
  0
LINE
  5
A5B
330
A02
100
AcDbEntity
  8
Body
100
AcDbLine
 10
156.025
 20
218.3
 30
0
 11
135.975
 21
218.3
 31
0
  0
CIRCLE
  5
A5C
330
A02
100
AcDbEntity
  8
Body
100
AcDbCircle
 10
133.46
 20
224
 40
1.555
  0
CIRCLE
  5
A5D
330
A02
100
AcDbEntity
  8
Body
100
AcDbCircle
 10
210
 20
239.7
 40
2.61
  0
CIRCLE
  5
A5E
330
A02
100
AcDbEntity
  8
Body
100
AcDbCircle
 10
150
 20
269.4
 40
2.61
  0
CIRCLE
  5
A5F
330
A02
100
AcDbEntity
  8
Body
100
AcDbCircle
 10
83.45
 20
224
 40
1.555
  0
LINE
  5
A60
330
A02
100
AcDbEntity
  8
Body
100
AcDbLine
 10
39.125
 20
229.7
 30
0
 11
80.875
 21
229.7
 31
0
  0
LINE
  5
A61
330
A02
100
AcDbEntity
  8
Body
100
AcDbLine
 10
39.125
 20
218.3
 30
0
 11
39.125
 21
229.7
 31
0
  0
LINE
  5
A62
330
A02
100
AcDbEntity
  8
Body
100
AcDbLine
 10
80.875
 20
229.7
 30
0
 11
80.875
 21
218.3
 31
0
  0
LINE
  5
A63
330
A02
100
AcDbEntity
  8
Body
100
AcDbLine
 10
80.875
 20
218.3
 30
0
 11
39.125
 21
218.3
 31
0
  0
CIRCLE
  5
A64
330
A02
100
AcDbEntity
  8
Body
100
AcDbCircle
 10
36.55
 20
224
 40
1.555
  0
CIRCLE
  5
A65
330
A02
100
AcDbEntity
  8
Body
100
AcDbCircle
 10
100
 20
269.4
 40
2.61
  0
CIRCLE
  5
A66
330
A02
100
AcDbEntity
  8
Body
100
AcDbCircle
 10
6.975
 20
243.225
 40
1.5875
  0
CIRCLE
  5
A67
330
A02
100
AcDbEntity
  8
Body
100
AcDbCircle
 10
50
 20
269.4
 40
2.61
  0
CIRCLE
  5
A68
330
A02
100
AcDbEntity
  8
Body
100
AcDbCircle
 10
-25
 20
150.48
 40
1.85293
  0
CIRCLE
  5
A69
330
A02
100
AcDbEntity
  8
Body
100
AcDbCircle
 10
-95
 20
176.25
 40
2
  0
CIRCLE
  5
A6A
330
A02
100
AcDbEntity
  8
Body
100
AcDbCircle
 10
-93.025
 20
204.225
 40
1.5875
  0
CIRCLE
  5
A6B
330
A02
100
AcDbEntity
  8
Body
100
AcDbCircle
 10
-145
 20
150.48
 40
1.85293
  0
CIRCLE
  5
A6C
330
A02
100
AcDbEntity
  8
Body
100
AcDbCircle
 10
-210
 20
139.7
 40
2.61
  0
CIRCLE
  5
A6D
330
A02
100
AcDbEntity
  8
Body
100
AcDbCircle
 10
-180
 20
177.75
 40
2.95
  0
CIRCLE
  5
A6E
330
A02
100
AcDbEntity
  8
Body
100
AcDbCircle
 10
-210
 20
189.7
 40
2.61
  0
CIRCLE
  5
A6F
330
A02
100
AcDbEntity
  8
Body
100
AcDbCircle
 10
-193.025
 20
204.225
 40
1.5875
  0
LINE
  5
A70
330
A02
100
AcDbEntity
  8
Body
100
AcDbLine
 10
-180
 20
237.45
 30
0
 11
-6.05
 21
237.45
 31
0
  0
LINE
  5
A71
330
A02
100
AcDbEntity
  8
Body
100
AcDbLine
 10
-180
 20
210
 30
0
 11
-180
 21
237.45
 31
0
  0
LINE
  5
A72
330
A02
100
AcDbEntity
  8
Body
100
AcDbLine
 10
-6.05
 20
237.45
 30
0
 11
-6.05
 21
210
 31
0
  0
LINE
  5
A73
330
A02
100
AcDbEntity
  8
Body
100
AcDbLine
 10
-6.05
 20
210
 30
0
 11
-180
 21
210
 31
0
  0
CIRCLE
  5
A74
330
A02
100
AcDbEntity
  8
Body
100
AcDbCircle
 10
0
 20
269.4
 40
2.61
  0
CIRCLE
  5
A75
330
A02
100
AcDbEntity
  8
Body
100
AcDbCircle
 10
-50
 20
269.4
 40
2.61
  0
CIRCLE
  5
A76
330
A02
100
AcDbEntity
  8
Body
100
AcDbCircle
 10
-93.025
 20
243.225
 40
1.5875
  0
CIRCLE
  5
A77
330
A02
100
AcDbEntity
  8
Body
100
AcDbCircle
 10
-100
 20
269.4
 40
2.61
  0
CIRCLE
  5
A78
330
A02
100
AcDbEntity
  8
Body
100
AcDbCircle
 10
-150
 20
269.4
 40
2.61
  0
CIRCLE
  5
A79
330
A02
100
AcDbEntity
  8
Body
100
AcDbCircle
 10
-193.025
 20
243.225
 40
1.5875
  0
CIRCLE
  5
A7A
330
A02
100
AcDbEntity
  8
Body
100
AcDbCircle
 10
-210
 20
239.7
 40
2.61
  0
LINE
  5
A7B
330
A02
100
AcDbEntity
  8
Body
100
AcDbLine
 10
-220
 20
279.4
 30
1.5748
 11
220
 21
279.4
 31
1.5748
  0
LINE
  5
A7C
330
A02
100
AcDbEntity
  8
Body
100
AcDbLine
 10
-220
 20
0
 30
1.5748
 11
-220
 21
279.4
 31
1.5748
  0
LINE
  5
A7D
330
A02
100
AcDbEntity
  8
Body
100
AcDbLine
 10
220
 20
279.4
 30
1.5748
 11
220
 21
0
 31
1.5748
  0
LINE
  5
A7E
330
A02
100
AcDbEntity
  8
Body
100
AcDbLine
 10
220
 20
0
 30
1.5748
 11
-220
 21
0
 31
1.5748
  0
CIRCLE
  5
A7F
330
A02
100
AcDbEntity
  8
Body
100
AcDbCircle
 10
210
 20
39.7
 40
2.61
  0
CIRCLE
  5
A80
330
A02
100
AcDbEntity
  8
Body
100
AcDbCircle
 10
150
 20
10
 40
2.61
  0
CIRCLE
  5
A81
330
A02
100
AcDbEntity
  8
Body
100
AcDbCircle
 10
132.229
 20
27.625
 40
2
  0
LINE
  5
A82
330
A02
100
AcDbEntity
  8
Body
100
AcDbLine
 10
89.177
 20
71.2
 30
1.5748
 11
89.177
 21
28.8
 31
1.5748
  0
LINE
  5
A83
330
A02
100
AcDbEntity
  8
Body
100
AcDbLine
 10
127.531
 20
71.2
 30
1.5748
 11
89.177
 21
71.2
 31
1.5748
  0
LINE
  5
A84
330
A02
100
AcDbEntity
  8
Body
100
AcDbLine
 10
89.177
 20
28.8
 30
1.5748
 11
127.531
 21
28.8
 31
1.5748
  0
LINE
  5
A85
330
A02
100
AcDbEntity
  8
Body
100
AcDbLine
 10
127.531
 20
28.8
 30
1.5748
 11
127.531
 21
71.2
 31
1.5748
  0
CIRCLE
  5
A86
330
A02
100
AcDbEntity
  8
Body
100
AcDbCircle
 10
132.229
 20
72.375
 40
2
  0
CIRCLE
  5
A87
330
A02
100
AcDbEntity
  8
Body
100
AcDbCircle
 10
100
 20
10
 40
2.61
  0
CIRCLE
  5
A88
330
A02
100
AcDbEntity
  8
Body
100
AcDbCircle
 10
84.479
 20
27.625
 40
2
  0
CIRCLE
  5
A89
330
A02
100
AcDbEntity
  8
Body
100
AcDbCircle
 10
50
 20
10
 40
2.61
  0
CIRCLE
  5
A8A
330
A02
100
AcDbEntity
  8
Body
100
AcDbCircle
 10
23.875
 20
27.625
 40
2
  0
CIRCLE
  5
A8B
330
A02
100
AcDbEntity
  8
Body
100
AcDbCircle
 10
84.479
 20
72.375
 40
2
  0
LINE
  5
A8C
330
A02
100
AcDbEntity
  8
Body
100
AcDbLine
 10
-19.177
 20
71.2
 30
1.5748
 11
-19.177
 21
28.8
 31
1.5748
  0
LINE
  5
A8D
330
A02
100
AcDbEntity
  8
Body
100
AcDbLine
 10
19.177
 20
71.2
 30
1.5748
 11
-19.177
 21
71.2
 31
1.5748
  0
LINE
  5
A8E
330
A02
100
AcDbEntity
  8
Body
100
AcDbLine
 10
-19.177
 20
28.8
 30
1.5748
 11
19.177
 21
28.8
 31
1.5748
  0
LINE
  5
A8F
330
A02
100
AcDbEntity
  8
Body
100
AcDbLine
 10
19.177
 20
28.8
 30
1.5748
 11
19.177
 21
71.2
 31
1.5748
  0
CIRCLE
  5
A90
330
A02
100
AcDbEntity
  8
Body
100
AcDbCircle
 10
23.875
 20
72.375
 40
2
  0
CIRCLE
  5
A91
330
A02
100
AcDbEntity
  8
Body
100
AcDbCircle
 10
210
 20
89.7
 40
2.61
  0
CIRCLE
  5
A92
330
A02
100
AcDbEntity
  8
Body
100
AcDbCircle
 10
145
 20
93.75
 40
2
  0
LINE
  5
A93
330
A02
100
AcDbEntity
  8
Body
100
AcDbLine
 10
128.17
 20
168.5
 30
1.5748
 11
161.83
 21
168.5
 31
1.5748
  0
LINE
  5
A94
330
A02
100
AcDbEntity
  8
Body
100
AcDbLine
 10
128.17
 20
101.5
 30
1.5748
 11
128.17
 21
168.5
 31
1.5748
  0
LINE
  5
A95
330
A02
100
AcDbEntity
  8
Body
100
AcDbLine
 10
161.83
 20
168.5
 30
1.5748
 11
161.83
 21
101.5
 31
1.5748
  0
LINE
  5
A96
330
A02
100
AcDbEntity
  8
Body
100
AcDbLine
 10
161.83
 20
101.5
 30
1.5748
 11
128.17
 21
101.5
 31
1.5748
  0
CIRCLE
  5
A97
330
A02
100
AcDbEntity
  8
Body
100
AcDbCircle
 10
25
 20
93.75
 40
2
  0
CIRCLE
  5
A98
330
A02
100
AcDbEntity
  8
Body
100
AcDbCircle
 10
95
 20
108.32
 40
1.85293
  0
CIRCLE
  5
A99
330
A02
100
AcDbEntity
  8
Body
100
AcDbCircle
 10
95
 20
135
 40
7.495
  0
LINE
  5
A9A
330
A02
100
AcDbEntity
  8
Body
100
AcDbLine
 10
8.17
 20
168.5
 30
1.5748
 11
41.83
 21
168.5
 31
1.5748
  0
LINE
  5
A9B
330
A02
100
AcDbEntity
  8
Body
100
AcDbLine
 10
8.17
 20
101.5
 30
1.5748
 11
8.17
 21
168.5
 31
1.5748
  0
LINE
  5
A9C
330
A02
100
AcDbEntity
  8
Body
100
AcDbLine
 10
41.83
 20
168.5
 30
1.5748
 11
41.83
 21
101.5
 31
1.5748
  0
LINE
  5
A9D
330
A02
100
AcDbEntity
  8
Body
100
AcDbLine
 10
41.83
 20
101.5
 30
1.5748
 11
8.17
 21
101.5
 31
1.5748
  0
CIRCLE
  5
A9E
330
A02
100
AcDbEntity
  8
Body
100
AcDbCircle
 10
0
 20
10
 40
2.61
  0
CIRCLE
  5
A9F
330
A02
100
AcDbEntity
  8
Body
100
AcDbCircle
 10
-50
 20
10
 40
2.61
  0
CIRCLE
  5
AA0
330
A02
100
AcDbEntity
  8
Body
100
AcDbCircle
 10
-23.875
 20
27.625
 40
2
  0
CIRCLE
  5
AA1
330
A02
100
AcDbEntity
  8
Body
100
AcDbCircle
 10
-100
 20
10
 40
2.61
  0
CIRCLE
  5
AA2
330
A02
100
AcDbEntity
  8
Body
100
AcDbCircle
 10
-84.479
 20
27.625
 40
2
  0
CIRCLE
  5
AA3
330
A02
100
AcDbEntity
  8
Body
100
AcDbCircle
 10
-23.875
 20
72.375
 40
2
  0
CIRCLE
  5
AA4
330
A02
100
AcDbEntity
  8
Body
100
AcDbCircle
 10
-84.479
 20
72.375
 40
2
  0
CIRCLE
  5
AA5
330
A02
100
AcDbEntity
  8
Body
100
AcDbCircle
 10
-150
 20
10
 40
2.61
  0
CIRCLE
  5
AA6
330
A02
100
AcDbEntity
  8
Body
100
AcDbCircle
 10
-132.229
 20
27.625
 40
2
  0
CIRCLE
  5
AA7
330
A02
100
AcDbEntity
  8
Body
100
AcDbCircle
 10
-180
 20
25.75
 40
2.95
  0
CIRCLE
  5
AA8
330
A02
100
AcDbEntity
  8
Body
100
AcDbCircle
 10
-210
 20
39.7
 40
2.61
  0
LINE
  5
AA9
330
A02
100
AcDbEntity
  8
Body
100
AcDbLine
 10
-127.531
 20
71.2
 30
1.5748
 11
-89.177
 21
71.2
 31
1.5748
  0
LINE
  5
AAA
330
A02
100
AcDbEntity
  8
Body
100
AcDbLine
 10
-127.531
 20
28.8
 30
1.5748
 11
-127.531
 21
71.2
 31
1.5748
  0
LINE
  5
AAB
330
A02
100
AcDbEntity
  8
Body
100
AcDbLine
 10
-89.177
 20
71.2
 30
1.5748
 11
-89.177
 21
28.8
 31
1.5748
  0
LINE
  5
AAC
330
A02
100
AcDbEntity
  8
Body
100
AcDbLine
 10
-89.177
 20
28.8
 30
1.5748
 11
-127.531
 21
28.8
 31
1.5748
  0
CIRCLE
  5
AAD
330
A02
100
AcDbEntity
  8
Body
100
AcDbCircle
 10
-132.229
 20
72.375
 40
2
  0
CIRCLE
  5
AAE
330
A02
100
AcDbEntity
  8
Body
100
AcDbCircle
 10
-95
 20
93.75
 40
2
  0
CIRCLE
  5
AAF
330
A02
100
AcDbEntity
  8
Body
100
AcDbCircle
 10
-25
 20
108.32
 40
1.85293
  0
CIRCLE
  5
AB0
330
A02
100
AcDbEntity
  8
Body
100
AcDbCircle
 10
-25
 20
135
 40
7.495
  0
LINE
  5
AB1
330
A02
100
AcDbEntity
  8
Body
100
AcDbLine
 10
-111.83
 20
168.5
 30
1.5748
 11
-78.17
 21
168.5
 31
1.5748
  0
LINE
  5
AB2
330
A02
100
AcDbEntity
  8
Body
100
AcDbLine
 10
-111.83
 20
101.5
 30
1.5748
 11
-111.83
 21
168.5
 31
1.5748
  0
LINE
  5
AB3
330
A02
100
AcDbEntity
  8
Body
100
AcDbLine
 10
-78.17
 20
168.5
 30
1.5748
 11
-78.17
 21
101.5
 31
1.5748
  0
LINE
  5
AB4
330
A02
100
AcDbEntity
  8
Body
100
AcDbLine
 10
-78.17
 20
101.5
 30
1.5748
 11
-111.83
 21
101.5
 31
1.5748
  0
CIRCLE
  5
AB5
330
A02
100
AcDbEntity
  8
Body
100
AcDbCircle
 10
-210
 20
89.7
 40
2.61
  0
CIRCLE
  5
AB6
330
A02
100
AcDbEntity
  8
Body
100
AcDbCircle
 10
-145
 20
108.32
 40
1.85293
  0
CIRCLE
  5
AB7
330
A02
100
AcDbEntity
  8
Body
100
AcDbCircle
 10
-145
 20
135
 40
7.495
  0
CIRCLE
  5
AB8
330
A02
100
AcDbEntity
  8
Body
100
AcDbCircle
 10
210
 20
139.7
 40
2.61
  0
CIRCLE
  5
AB9
330
A02
100
AcDbEntity
  8
Body
100
AcDbCircle
 10
210
 20
189.7
 40
2.61
  0
CIRCLE
  5
ABA
330
A02
100
AcDbEntity
  8
Body
100
AcDbCircle
 10
145
 20
176.25
 40
2
  0
CIRCLE
  5
ABB
330
A02
100
AcDbEntity
  8
Body
100
AcDbCircle
 10
95
 20
150.48
 40
1.85293
  0
CIRCLE
  5
ABC
330
A02
100
AcDbEntity
  8
Body
100
AcDbCircle
 10
25
 20
176.25
 40
2
  0
CIRCLE
  5
ABD
330
A02
100
AcDbEntity
  8
Body
100
AcDbCircle
 10
6.975
 20
204.225
 40
1.5875
  0
CIRCLE
  5
ABE
330
A02
100
AcDbEntity
  8
Body
100
AcDbCircle
 10
158.54
 20
224
 40
1.555
  0
LINE
  5
ABF
330
A02
100
AcDbEntity
  8
Body
100
AcDbLine
 10
135.975
 20
229.7
 30
1.5748
 11
156.025
 21
229.7
 31
1.5748
  0
LINE
  5
AC0
330
A02
100
AcDbEntity
  8
Body
100
AcDbLine
 10
135.975
 20
218.3
 30
1.5748
 11
135.975
 21
229.7
 31
1.5748
  0
LINE
  5
AC1
330
A02
100
AcDbEntity
  8
Body
100
AcDbLine
 10
156.025
 20
229.7
 30
1.5748
 11
156.025
 21
218.3
 31
1.5748
  0
LINE
  5
AC2
330
A02
100
AcDbEntity
  8
Body
100
AcDbLine
 10
156.025
 20
218.3
 30
1.5748
 11
135.975
 21
218.3
 31
1.5748
  0
CIRCLE
  5
AC3
330
A02
100
AcDbEntity
  8
Body
100
AcDbCircle
 10
133.46
 20
224
 40
1.555
  0
CIRCLE
  5
AC4
330
A02
100
AcDbEntity
  8
Body
100
AcDbCircle
 10
210
 20
239.7
 40
2.61
  0
CIRCLE
  5
AC5
330
A02
100
AcDbEntity
  8
Body
100
AcDbCircle
 10
150
 20
269.4
 40
2.61
  0
CIRCLE
  5
AC6
330
A02
100
AcDbEntity
  8
Body
100
AcDbCircle
 10
83.45
 20
224
 40
1.555
  0
LINE
  5
AC7
330
A02
100
AcDbEntity
  8
Body
100
AcDbLine
 10
39.125
 20
229.7
 30
1.5748
 11
80.875
 21
229.7
 31
1.5748
  0
LINE
  5
AC8
330
A02
100
AcDbEntity
  8
Body
100
AcDbLine
 10
39.125
 20
218.3
 30
1.5748
 11
39.125
 21
229.7
 31
1.5748
  0
LINE
  5
AC9
330
A02
100
AcDbEntity
  8
Body
100
AcDbLine
 10
80.875
 20
229.7
 30
1.5748
 11
80.875
 21
218.3
 31
1.5748
  0
LINE
  5
ACA
330
A02
100
AcDbEntity
  8
Body
100
AcDbLine
 10
80.875
 20
218.3
 30
1.5748
 11
39.125
 21
218.3
 31
1.5748
  0
CIRCLE
  5
ACB
330
A02
100
AcDbEntity
  8
Body
100
AcDbCircle
 10
36.55
 20
224
 40
1.555
  0
CIRCLE
  5
ACC
330
A02
100
AcDbEntity
  8
Body
100
AcDbCircle
 10
100
 20
269.4
 40
2.61
  0
CIRCLE
  5
ACD
330
A02
100
AcDbEntity
  8
Body
100
AcDbCircle
 10
6.975
 20
243.225
 40
1.5875
  0
CIRCLE
  5
ACE
330
A02
100
AcDbEntity
  8
Body
100
AcDbCircle
 10
50
 20
269.4
 40
2.61
  0
CIRCLE
  5
ACF
330
A02
100
AcDbEntity
  8
Body
100
AcDbCircle
 10
-25
 20
150.48
 40
1.85293
  0
CIRCLE
  5
AD0
330
A02
100
AcDbEntity
  8
Body
100
AcDbCircle
 10
-95
 20
176.25
 40
2
  0
CIRCLE
  5
AD1
330
A02
100
AcDbEntity
  8
Body
100
AcDbCircle
 10
-93.025
 20
204.225
 40
1.5875
  0
CIRCLE
  5
AD2
330
A02
100
AcDbEntity
  8
Body
100
AcDbCircle
 10
-145
 20
150.48
 40
1.85293
  0
CIRCLE
  5
AD3
330
A02
100
AcDbEntity
  8
Body
100
AcDbCircle
 10
-210
 20
139.7
 40
2.61
  0
CIRCLE
  5
AD4
330
A02
100
AcDbEntity
  8
Body
100
AcDbCircle
 10
-180
 20
177.75
 40
2.95
  0
CIRCLE
  5
AD5
330
A02
100
AcDbEntity
  8
Body
100
AcDbCircle
 10
-210
 20
189.7
 40
2.61
  0
CIRCLE
  5
AD6
330
A02
100
AcDbEntity
  8
Body
100
AcDbCircle
 10
-193.025
 20
204.225
 40
1.5875
  0
LINE
  5
AD7
330
A02
100
AcDbEntity
  8
Body
100
AcDbLine
 10
-180
 20
237.45
 30
1.5748
 11
-6.05
 21
237.45
 31
1.5748
  0
LINE
  5
AD8
330
A02
100
AcDbEntity
  8
Body
100
AcDbLine
 10
-180
 20
210
 30
1.5748
 11
-180
 21
237.45
 31
1.5748
  0
LINE
  5
AD9
330
A02
100
AcDbEntity
  8
Body
100
AcDbLine
 10
-6.05
 20
237.45
 30
1.5748
 11
-6.05
 21
210
 31
1.5748
  0
LINE
  5
ADA
330
A02
100
AcDbEntity
  8
Body
100
AcDbLine
 10
-6.05
 20
210
 30
1.5748
 11
-180
 21
210
 31
1.5748
  0
CIRCLE
  5
ADB
330
A02
100
AcDbEntity
  8
Body
100
AcDbCircle
 10
0
 20
269.4
 40
2.61
  0
CIRCLE
  5
ADC
330
A02
100
AcDbEntity
  8
Body
100
AcDbCircle
 10
-50
 20
269.4
 40
2.61
  0
CIRCLE
  5
ADD
330
A02
100
AcDbEntity
  8
Body
100
AcDbCircle
 10
-93.025
 20
243.225
 40
1.5875
  0
CIRCLE
  5
ADE
330
A02
100
AcDbEntity
  8
Body
100
AcDbCircle
 10
-100
 20
269.4
 40
2.61
  0
CIRCLE
  5
ADF
330
A02
100
AcDbEntity
  8
Body
100
AcDbCircle
 10
-150
 20
269.4
 40
2.61
  0
CIRCLE
  5
AE0
330
A02
100
AcDbEntity
  8
Body
100
AcDbCircle
 10
-193.025
 20
243.225
 40
1.5875
  0
CIRCLE
  5
AE1
330
A02
100
AcDbEntity
  8
Body
100
AcDbCircle
 10
-210
 20
239.7
 40
2.61
  0
LINE
  5
AE2
330
A02
100
AcDbEntity
  8
Body
100
AcDbLine
 10
220
 20
0
 30
0
 11
220
 21
0
 31
1.5748
  0
LINE
  5
AE3
330
A02
100
AcDbEntity
  8
Body
100
AcDbLine
 10
-220
 20
0
 30
0
 11
-220
 21
0
 31
1.5748
  0
LINE
  5
AE4
330
A02
100
AcDbEntity
  8
Body
100
AcDbLine
 10
220
 20
0
 30
0
 11
-220
 21
0
 31
0
  0
LINE
  5
AE5
330
A02
100
AcDbEntity
  8
Body
100
AcDbLine
 10
220
 20
0
 30
1.5748
 11
-220
 21
0
 31
1.5748
  0
CIRCLE
  5
AE6
330
A02
100
AcDbEntity
  8
Body
100
AcDbCircle
 10
210
 20
39.7
 40
2.61
  0
LINE
  5
AE7
330
A02
100
AcDbEntity
  8
Body
100
AcDbLine
 10
212.61
 20
39.7
 30
0
 11
212.61
 21
39.7
 31
1.5748
  0
CIRCLE
  5
AE8
330
A02
100
AcDbEntity
  8
Body
100
AcDbCircle
 10
210
 20
39.7
 40
2.61
  0
LINE
  5
AE9
330
A02
100
AcDbEntity
  8
Body
100
AcDbLine
 10
212.61
 20
39.7
 30
0
 11
212.61
 21
39.7
 31
1.5748
  0
CIRCLE
  5
AEA
330
A02
100
AcDbEntity
  8
Body
100
AcDbCircle
 10
150
 20
10
 40
2.61
  0
LINE
  5
AEB
330
A02
100
AcDbEntity
  8
Body
100
AcDbLine
 10
152.61
 20
10
 30
0
 11
152.61
 21
10
 31
1.5748
  0
CIRCLE
  5
AEC
330
A02
100
AcDbEntity
  8
Body
100
AcDbCircle
 10
150
 20
10
 40
2.61
  0
LINE
  5
AED
330
A02
100
AcDbEntity
  8
Body
100
AcDbLine
 10
152.61
 20
10
 30
0
 11
152.61
 21
10
 31
1.5748
  0
CIRCLE
  5
AEE
330
A02
100
AcDbEntity
  8
Body
100
AcDbCircle
 10
132.229
 20
27.625
 40
2
  0
LINE
  5
AEF
330
A02
100
AcDbEntity
  8
Body
100
AcDbLine
 10
134.229
 20
27.625
 30
0
 11
134.229
 21
27.625
 31
1.5748
  0
CIRCLE
  5
AF0
330
A02
100
AcDbEntity
  8
Body
100
AcDbCircle
 10
132.229
 20
27.625
 40
2
  0
LINE
  5
AF1
330
A02
100
AcDbEntity
  8
Body
100
AcDbLine
 10
134.229
 20
27.625
 30
0
 11
134.229
 21
27.625
 31
1.5748
  0
LINE
  5
AF2
330
A02
100
AcDbEntity
  8
Body
100
AcDbLine
 10
89.177
 20
71.2
 30
0
 11
89.177
 21
28.8
 31
0
  0
LINE
  5
AF3
330
A02
100
AcDbEntity
  8
Body
100
AcDbLine
 10
89.177
 20
28.8
 30
0
 11
89.177
 21
28.8
 31
1.5748
  0
LINE
  5
AF4
330
A02
100
AcDbEntity
  8
Body
100
AcDbLine
 10
89.177
 20
71.2
 30
1.5748
 11
89.177
 21
28.8
 31
1.5748
  0
LINE
  5
AF5
330
A02
100
AcDbEntity
  8
Body
100
AcDbLine
 10
89.177
 20
71.2
 30
0
 11
89.177
 21
71.2
 31
1.5748
  0
LINE
  5
AF6
330
A02
100
AcDbEntity
  8
Body
100
AcDbLine
 10
127.531
 20
71.2
 30
0
 11
89.177
 21
71.2
 31
0
  0
LINE
  5
AF7
330
A02
100
AcDbEntity
  8
Body
100
AcDbLine
 10
89.177
 20
71.2
 30
0
 11
89.177
 21
71.2
 31
1.5748
  0
LINE
  5
AF8
330
A02
100
AcDbEntity
  8
Body
100
AcDbLine
 10
127.531
 20
71.2
 30
1.5748
 11
89.177
 21
71.2
 31
1.5748
  0
LINE
  5
AF9
330
A02
100
AcDbEntity
  8
Body
100
AcDbLine
 10
127.531
 20
71.2
 30
0
 11
127.531
 21
71.2
 31
1.5748
  0
LINE
  5
AFA
330
A02
100
AcDbEntity
  8
Body
100
AcDbLine
 10
89.177
 20
28.8
 30
0
 11
127.531
 21
28.8
 31
0
  0
LINE
  5
AFB
330
A02
100
AcDbEntity
  8
Body
100
AcDbLine
 10
127.531
 20
28.8
 30
0
 11
127.531
 21
28.8
 31
1.5748
  0
LINE
  5
AFC
330
A02
100
AcDbEntity
  8
Body
100
AcDbLine
 10
89.177
 20
28.8
 30
1.5748
 11
127.531
 21
28.8
 31
1.5748
  0
LINE
  5
AFD
330
A02
100
AcDbEntity
  8
Body
100
AcDbLine
 10
89.177
 20
28.8
 30
0
 11
89.177
 21
28.8
 31
1.5748
  0
LINE
  5
AFE
330
A02
100
AcDbEntity
  8
Body
100
AcDbLine
 10
127.531
 20
28.8
 30
0
 11
127.531
 21
71.2
 31
0
  0
LINE
  5
AFF
330
A02
100
AcDbEntity
  8
Body
100
AcDbLine
 10
127.531
 20
71.2
 30
0
 11
127.531
 21
71.2
 31
1.5748
  0
LINE
  5
B00
330
A02
100
AcDbEntity
  8
Body
100
AcDbLine
 10
127.531
 20
28.8
 30
1.5748
 11
127.531
 21
71.2
 31
1.5748
  0
LINE
  5
B01
330
A02
100
AcDbEntity
  8
Body
100
AcDbLine
 10
127.531
 20
28.8
 30
0
 11
127.531
 21
28.8
 31
1.5748
  0
CIRCLE
  5
B02
330
A02
100
AcDbEntity
  8
Body
100
AcDbCircle
 10
132.229
 20
72.375
 40
2
  0
LINE
  5
B03
330
A02
100
AcDbEntity
  8
Body
100
AcDbLine
 10
134.229
 20
72.375
 30
0
 11
134.229
 21
72.375
 31
1.5748
  0
CIRCLE
  5
B04
330
A02
100
AcDbEntity
  8
Body
100
AcDbCircle
 10
132.229
 20
72.375
 40
2
  0
LINE
  5
B05
330
A02
100
AcDbEntity
  8
Body
100
AcDbLine
 10
134.229
 20
72.375
 30
0
 11
134.229
 21
72.375
 31
1.5748
  0
CIRCLE
  5
B06
330
A02
100
AcDbEntity
  8
Body
100
AcDbCircle
 10
100
 20
10
 40
2.61
  0
LINE
  5
B07
330
A02
100
AcDbEntity
  8
Body
100
AcDbLine
 10
102.61
 20
10
 30
0
 11
102.61
 21
10
 31
1.5748
  0
CIRCLE
  5
B08
330
A02
100
AcDbEntity
  8
Body
100
AcDbCircle
 10
100
 20
10
 40
2.61
  0
LINE
  5
B09
330
A02
100
AcDbEntity
  8
Body
100
AcDbLine
 10
102.61
 20
10
 30
0
 11
102.61
 21
10
 31
1.5748
  0
CIRCLE
  5
B0A
330
A02
100
AcDbEntity
  8
Body
100
AcDbCircle
 10
84.479
 20
27.625
 40
2
  0
LINE
  5
B0B
330
A02
100
AcDbEntity
  8
Body
100
AcDbLine
 10
86.479
 20
27.625
 30
0
 11
86.479
 21
27.625
 31
1.5748
  0
CIRCLE
  5
B0C
330
A02
100
AcDbEntity
  8
Body
100
AcDbCircle
 10
84.479
 20
27.625
 40
2
  0
LINE
  5
B0D
330
A02
100
AcDbEntity
  8
Body
100
AcDbLine
 10
86.479
 20
27.625
 30
0
 11
86.479
 21
27.625
 31
1.5748
  0
CIRCLE
  5
B0E
330
A02
100
AcDbEntity
  8
Body
100
AcDbCircle
 10
50
 20
10
 40
2.61
  0
LINE
  5
B0F
330
A02
100
AcDbEntity
  8
Body
100
AcDbLine
 10
52.61
 20
10
 30
0
 11
52.61
 21
10
 31
1.5748
  0
CIRCLE
  5
B10
330
A02
100
AcDbEntity
  8
Body
100
AcDbCircle
 10
50
 20
10
 40
2.61
  0
LINE
  5
B11
330
A02
100
AcDbEntity
  8
Body
100
AcDbLine
 10
52.61
 20
10
 30
0
 11
52.61
 21
10
 31
1.5748
  0
CIRCLE
  5
B12
330
A02
100
AcDbEntity
  8
Body
100
AcDbCircle
 10
23.875
 20
27.625
 40
2
  0
LINE
  5
B13
330
A02
100
AcDbEntity
  8
Body
100
AcDbLine
 10
25.875
 20
27.625
 30
0
 11
25.875
 21
27.625
 31
1.5748
  0
CIRCLE
  5
B14
330
A02
100
AcDbEntity
  8
Body
100
AcDbCircle
 10
23.875
 20
27.625
 40
2
  0
LINE
  5
B15
330
A02
100
AcDbEntity
  8
Body
100
AcDbLine
 10
25.875
 20
27.625
 30
0
 11
25.875
 21
27.625
 31
1.5748
  0
CIRCLE
  5
B16
330
A02
100
AcDbEntity
  8
Body
100
AcDbCircle
 10
84.479
 20
72.375
 40
2
  0
LINE
  5
B17
330
A02
100
AcDbEntity
  8
Body
100
AcDbLine
 10
86.479
 20
72.375
 30
0
 11
86.479
 21
72.375
 31
1.5748
  0
CIRCLE
  5
B18
330
A02
100
AcDbEntity
  8
Body
100
AcDbCircle
 10
84.479
 20
72.375
 40
2
  0
LINE
  5
B19
330
A02
100
AcDbEntity
  8
Body
100
AcDbLine
 10
86.479
 20
72.375
 30
0
 11
86.479
 21
72.375
 31
1.5748
  0
LINE
  5
B1A
330
A02
100
AcDbEntity
  8
Body
100
AcDbLine
 10
-19.177
 20
71.2
 30
0
 11
-19.177
 21
28.8
 31
0
  0
LINE
  5
B1B
330
A02
100
AcDbEntity
  8
Body
100
AcDbLine
 10
-19.177
 20
28.8
 30
0
 11
-19.177
 21
28.8
 31
1.5748
  0
LINE
  5
B1C
330
A02
100
AcDbEntity
  8
Body
100
AcDbLine
 10
-19.177
 20
71.2
 30
1.5748
 11
-19.177
 21
28.8
 31
1.5748
  0
LINE
  5
B1D
330
A02
100
AcDbEntity
  8
Body
100
AcDbLine
 10
-19.177
 20
71.2
 30
0
 11
-19.177
 21
71.2
 31
1.5748
  0
LINE
  5
B1E
330
A02
100
AcDbEntity
  8
Body
100
AcDbLine
 10
19.177
 20
71.2
 30
0
 11
-19.177
 21
71.2
 31
0
  0
LINE
  5
B1F
330
A02
100
AcDbEntity
  8
Body
100
AcDbLine
 10
-19.177
 20
71.2
 30
0
 11
-19.177
 21
71.2
 31
1.5748
  0
LINE
  5
B20
330
A02
100
AcDbEntity
  8
Body
100
AcDbLine
 10
19.177
 20
71.2
 30
1.5748
 11
-19.177
 21
71.2
 31
1.5748
  0
LINE
  5
B21
330
A02
100
AcDbEntity
  8
Body
100
AcDbLine
 10
19.177
 20
71.2
 30
0
 11
19.177
 21
71.2
 31
1.5748
  0
LINE
  5
B22
330
A02
100
AcDbEntity
  8
Body
100
AcDbLine
 10
-19.177
 20
28.8
 30
0
 11
19.177
 21
28.8
 31
0
  0
LINE
  5
B23
330
A02
100
AcDbEntity
  8
Body
100
AcDbLine
 10
19.177
 20
28.8
 30
0
 11
19.177
 21
28.8
 31
1.5748
  0
LINE
  5
B24
330
A02
100
AcDbEntity
  8
Body
100
AcDbLine
 10
-19.177
 20
28.8
 30
1.5748
 11
19.177
 21
28.8
 31
1.5748
  0
LINE
  5
B25
330
A02
100
AcDbEntity
  8
Body
100
AcDbLine
 10
-19.177
 20
28.8
 30
0
 11
-19.177
 21
28.8
 31
1.5748
  0
LINE
  5
B26
330
A02
100
AcDbEntity
  8
Body
100
AcDbLine
 10
19.177
 20
28.8
 30
0
 11
19.177
 21
71.2
 31
0
  0
LINE
  5
B27
330
A02
100
AcDbEntity
  8
Body
100
AcDbLine
 10
19.177
 20
71.2
 30
0
 11
19.177
 21
71.2
 31
1.5748
  0
LINE
  5
B28
330
A02
100
AcDbEntity
  8
Body
100
AcDbLine
 10
19.177
 20
28.8
 30
1.5748
 11
19.177
 21
71.2
 31
1.5748
  0
LINE
  5
B29
330
A02
100
AcDbEntity
  8
Body
100
AcDbLine
 10
19.177
 20
28.8
 30
0
 11
19.177
 21
28.8
 31
1.5748
  0
CIRCLE
  5
B2A
330
A02
100
AcDbEntity
  8
Body
100
AcDbCircle
 10
23.875
 20
72.375
 40
2
  0
LINE
  5
B2B
330
A02
100
AcDbEntity
  8
Body
100
AcDbLine
 10
25.875
 20
72.375
 30
0
 11
25.875
 21
72.375
 31
1.5748
  0
CIRCLE
  5
B2C
330
A02
100
AcDbEntity
  8
Body
100
AcDbCircle
 10
23.875
 20
72.375
 40
2
  0
LINE
  5
B2D
330
A02
100
AcDbEntity
  8
Body
100
AcDbLine
 10
25.875
 20
72.375
 30
0
 11
25.875
 21
72.375
 31
1.5748
  0
CIRCLE
  5
B2E
330
A02
100
AcDbEntity
  8
Body
100
AcDbCircle
 10
210
 20
89.7
 40
2.61
  0
LINE
  5
B2F
330
A02
100
AcDbEntity
  8
Body
100
AcDbLine
 10
212.61
 20
89.7
 30
0
 11
212.61
 21
89.7
 31
1.5748
  0
CIRCLE
  5
B30
330
A02
100
AcDbEntity
  8
Body
100
AcDbCircle
 10
210
 20
89.7
 40
2.61
  0
LINE
  5
B31
330
A02
100
AcDbEntity
  8
Body
100
AcDbLine
 10
212.61
 20
89.7
 30
0
 11
212.61
 21
89.7
 31
1.5748
  0
CIRCLE
  5
B32
330
A02
100
AcDbEntity
  8
Body
100
AcDbCircle
 10
145
 20
93.75
 40
2
  0
LINE
  5
B33
330
A02
100
AcDbEntity
  8
Body
100
AcDbLine
 10
147
 20
93.75
 30
0
 11
147
 21
93.75
 31
1.5748
  0
CIRCLE
  5
B34
330
A02
100
AcDbEntity
  8
Body
100
AcDbCircle
 10
145
 20
93.75
 40
2
  0
LINE
  5
B35
330
A02
100
AcDbEntity
  8
Body
100
AcDbLine
 10
147
 20
93.75
 30
0
 11
147
 21
93.75
 31
1.5748
  0
LINE
  5
B36
330
A02
100
AcDbEntity
  8
Body
100
AcDbLine
 10
128.17
 20
168.5
 30
0
 11
161.83
 21
168.5
 31
0
  0
LINE
  5
B37
330
A02
100
AcDbEntity
  8
Body
100
AcDbLine
 10
161.83
 20
168.5
 30
0
 11
161.83
 21
168.5
 31
1.5748
  0
LINE
  5
B38
330
A02
100
AcDbEntity
  8
Body
100
AcDbLine
 10
128.17
 20
168.5
 30
1.5748
 11
161.83
 21
168.5
 31
1.5748
  0
LINE
  5
B39
330
A02
100
AcDbEntity
  8
Body
100
AcDbLine
 10
128.17
 20
168.5
 30
0
 11
128.17
 21
168.5
 31
1.5748
  0
LINE
  5
B3A
330
A02
100
AcDbEntity
  8
Body
100
AcDbLine
 10
128.17
 20
101.5
 30
0
 11
128.17
 21
168.5
 31
0
  0
LINE
  5
B3B
330
A02
100
AcDbEntity
  8
Body
100
AcDbLine
 10
128.17
 20
168.5
 30
0
 11
128.17
 21
168.5
 31
1.5748
  0
LINE
  5
B3C
330
A02
100
AcDbEntity
  8
Body
100
AcDbLine
 10
128.17
 20
101.5
 30
1.5748
 11
128.17
 21
168.5
 31
1.5748
  0
LINE
  5
B3D
330
A02
100
AcDbEntity
  8
Body
100
AcDbLine
 10
128.17
 20
101.5
 30
0
 11
128.17
 21
101.5
 31
1.5748
  0
LINE
  5
B3E
330
A02
100
AcDbEntity
  8
Body
100
AcDbLine
 10
161.83
 20
168.5
 30
0
 11
161.83
 21
101.5
 31
0
  0
LINE
  5
B3F
330
A02
100
AcDbEntity
  8
Body
100
AcDbLine
 10
161.83
 20
101.5
 30
0
 11
161.83
 21
101.5
 31
1.5748
  0
LINE
  5
B40
330
A02
100
AcDbEntity
  8
Body
100
AcDbLine
 10
161.83
 20
168.5
 30
1.5748
 11
161.83
 21
101.5
 31
1.5748
  0
LINE
  5
B41
330
A02
100
AcDbEntity
  8
Body
100
AcDbLine
 10
161.83
 20
168.5
 30
0
 11
161.83
 21
168.5
 31
1.5748
  0
LINE
  5
B42
330
A02
100
AcDbEntity
  8
Body
100
AcDbLine
 10
161.83
 20
101.5
 30
0
 11
128.17
 21
101.5
 31
0
  0
LINE
  5
B43
330
A02
100
AcDbEntity
  8
Body
100
AcDbLine
 10
128.17
 20
101.5
 30
0
 11
128.17
 21
101.5
 31
1.5748
  0
LINE
  5
B44
330
A02
100
AcDbEntity
  8
Body
100
AcDbLine
 10
161.83
 20
101.5
 30
1.5748
 11
128.17
 21
101.5
 31
1.5748
  0
LINE
  5
B45
330
A02
100
AcDbEntity
  8
Body
100
AcDbLine
 10
161.83
 20
101.5
 30
0
 11
161.83
 21
101.5
 31
1.5748
  0
CIRCLE
  5
B46
330
A02
100
AcDbEntity
  8
Body
100
AcDbCircle
 10
25
 20
93.75
 40
2
  0
LINE
  5
B47
330
A02
100
AcDbEntity
  8
Body
100
AcDbLine
 10
27
 20
93.75
 30
0
 11
27
 21
93.75
 31
1.5748
  0
CIRCLE
  5
B48
330
A02
100
AcDbEntity
  8
Body
100
AcDbCircle
 10
25
 20
93.75
 40
2
  0
LINE
  5
B49
330
A02
100
AcDbEntity
  8
Body
100
AcDbLine
 10
27
 20
93.75
 30
0
 11
27
 21
93.75
 31
1.5748
  0
CIRCLE
  5
B4A
330
A02
100
AcDbEntity
  8
Body
100
AcDbCircle
 10
95
 20
108.32
 40
1.85293
  0
LINE
  5
B4B
330
A02
100
AcDbEntity
  8
Body
100
AcDbLine
 10
96.8529
 20
108.32
 30
0
 11
96.8529
 21
108.32
 31
1.5748
  0
CIRCLE
  5
B4C
330
A02
100
AcDbEntity
  8
Body
100
AcDbCircle
 10
95
 20
108.32
 40
1.85293
  0
LINE
  5
B4D
330
A02
100
AcDbEntity
  8
Body
100
AcDbLine
 10
96.8529
 20
108.32
 30
0
 11
96.8529
 21
108.32
 31
1.5748
  0
CIRCLE
  5
B4E
330
A02
100
AcDbEntity
  8
Body
100
AcDbCircle
 10
95
 20
135
 40
7.495
  0
LINE
  5
B4F
330
A02
100
AcDbEntity
  8
Body
100
AcDbLine
 10
102.495
 20
135
 30
0
 11
102.495
 21
135
 31
1.5748
  0
CIRCLE
  5
B50
330
A02
100
AcDbEntity
  8
Body
100
AcDbCircle
 10
95
 20
135
 40
7.495
  0
LINE
  5
B51
330
A02
100
AcDbEntity
  8
Body
100
AcDbLine
 10
102.495
 20
135
 30
0
 11
102.495
 21
135
 31
1.5748
  0
LINE
  5
B52
330
A02
100
AcDbEntity
  8
Body
100
AcDbLine
 10
8.17
 20
168.5
 30
0
 11
41.83
 21
168.5
 31
0
  0
LINE
  5
B53
330
A02
100
AcDbEntity
  8
Body
100
AcDbLine
 10
41.83
 20
168.5
 30
0
 11
41.83
 21
168.5
 31
1.5748
  0
LINE
  5
B54
330
A02
100
AcDbEntity
  8
Body
100
AcDbLine
 10
8.17
 20
168.5
 30
1.5748
 11
41.83
 21
168.5
 31
1.5748
  0
LINE
  5
B55
330
A02
100
AcDbEntity
  8
Body
100
AcDbLine
 10
8.17
 20
168.5
 30
0
 11
8.17
 21
168.5
 31
1.5748
  0
LINE
  5
B56
330
A02
100
AcDbEntity
  8
Body
100
AcDbLine
 10
8.17
 20
101.5
 30
0
 11
8.17
 21
168.5
 31
0
  0
LINE
  5
B57
330
A02
100
AcDbEntity
  8
Body
100
AcDbLine
 10
8.17
 20
168.5
 30
0
 11
8.17
 21
168.5
 31
1.5748
  0
LINE
  5
B58
330
A02
100
AcDbEntity
  8
Body
100
AcDbLine
 10
8.17
 20
101.5
 30
1.5748
 11
8.17
 21
168.5
 31
1.5748
  0
LINE
  5
B59
330
A02
100
AcDbEntity
  8
Body
100
AcDbLine
 10
8.17
 20
101.5
 30
0
 11
8.17
 21
101.5
 31
1.5748
  0
LINE
  5
B5A
330
A02
100
AcDbEntity
  8
Body
100
AcDbLine
 10
41.83
 20
168.5
 30
0
 11
41.83
 21
101.5
 31
0
  0
LINE
  5
B5B
330
A02
100
AcDbEntity
  8
Body
100
AcDbLine
 10
41.83
 20
101.5
 30
0
 11
41.83
 21
101.5
 31
1.5748
  0
LINE
  5
B5C
330
A02
100
AcDbEntity
  8
Body
100
AcDbLine
 10
41.83
 20
168.5
 30
1.5748
 11
41.83
 21
101.5
 31
1.5748
  0
LINE
  5
B5D
330
A02
100
AcDbEntity
  8
Body
100
AcDbLine
 10
41.83
 20
168.5
 30
0
 11
41.83
 21
168.5
 31
1.5748
  0
LINE
  5
B5E
330
A02
100
AcDbEntity
  8
Body
100
AcDbLine
 10
41.83
 20
101.5
 30
0
 11
8.17
 21
101.5
 31
0
  0
LINE
  5
B5F
330
A02
100
AcDbEntity
  8
Body
100
AcDbLine
 10
8.17
 20
101.5
 30
0
 11
8.17
 21
101.5
 31
1.5748
  0
LINE
  5
B60
330
A02
100
AcDbEntity
  8
Body
100
AcDbLine
 10
41.83
 20
101.5
 30
1.5748
 11
8.17
 21
101.5
 31
1.5748
  0
LINE
  5
B61
330
A02
100
AcDbEntity
  8
Body
100
AcDbLine
 10
41.83
 20
101.5
 30
0
 11
41.83
 21
101.5
 31
1.5748
  0
CIRCLE
  5
B62
330
A02
100
AcDbEntity
  8
Body
100
AcDbCircle
 10
0
 20
10
 40
2.61
  0
LINE
  5
B63
330
A02
100
AcDbEntity
  8
Body
100
AcDbLine
 10
2.61
 20
10
 30
0
 11
2.61
 21
10
 31
1.5748
  0
CIRCLE
  5
B64
330
A02
100
AcDbEntity
  8
Body
100
AcDbCircle
 10
0
 20
10
 40
2.61
  0
LINE
  5
B65
330
A02
100
AcDbEntity
  8
Body
100
AcDbLine
 10
2.61
 20
10
 30
0
 11
2.61
 21
10
 31
1.5748
  0
CIRCLE
  5
B66
330
A02
100
AcDbEntity
  8
Body
100
AcDbCircle
 10
-50
 20
10
 40
2.61
  0
LINE
  5
B67
330
A02
100
AcDbEntity
  8
Body
100
AcDbLine
 10
-47.39
 20
10
 30
0
 11
-47.39
 21
10
 31
1.5748
  0
CIRCLE
  5
B68
330
A02
100
AcDbEntity
  8
Body
100
AcDbCircle
 10
-50
 20
10
 40
2.61
  0
LINE
  5
B69
330
A02
100
AcDbEntity
  8
Body
100
AcDbLine
 10
-47.39
 20
10
 30
0
 11
-47.39
 21
10
 31
1.5748
  0
CIRCLE
  5
B6A
330
A02
100
AcDbEntity
  8
Body
100
AcDbCircle
 10
-23.875
 20
27.625
 40
2
  0
LINE
  5
B6B
330
A02
100
AcDbEntity
  8
Body
100
AcDbLine
 10
-21.875
 20
27.625
 30
0
 11
-21.875
 21
27.625
 31
1.5748
  0
CIRCLE
  5
B6C
330
A02
100
AcDbEntity
  8
Body
100
AcDbCircle
 10
-23.875
 20
27.625
 40
2
  0
LINE
  5
B6D
330
A02
100
AcDbEntity
  8
Body
100
AcDbLine
 10
-21.875
 20
27.625
 30
0
 11
-21.875
 21
27.625
 31
1.5748
  0
CIRCLE
  5
B6E
330
A02
100
AcDbEntity
  8
Body
100
AcDbCircle
 10
-100
 20
10
 40
2.61
  0
LINE
  5
B6F
330
A02
100
AcDbEntity
  8
Body
100
AcDbLine
 10
-97.39
 20
10
 30
0
 11
-97.39
 21
10
 31
1.5748
  0
CIRCLE
  5
B70
330
A02
100
AcDbEntity
  8
Body
100
AcDbCircle
 10
-100
 20
10
 40
2.61
  0
LINE
  5
B71
330
A02
100
AcDbEntity
  8
Body
100
AcDbLine
 10
-97.39
 20
10
 30
0
 11
-97.39
 21
10
 31
1.5748
  0
CIRCLE
  5
B72
330
A02
100
AcDbEntity
  8
Body
100
AcDbCircle
 10
-84.479
 20
27.625
 40
2
  0
LINE
  5
B73
330
A02
100
AcDbEntity
  8
Body
100
AcDbLine
 10
-82.479
 20
27.625
 30
0
 11
-82.479
 21
27.625
 31
1.5748
  0
CIRCLE
  5
B74
330
A02
100
AcDbEntity
  8
Body
100
AcDbCircle
 10
-84.479
 20
27.625
 40
2
  0
LINE
  5
B75
330
A02
100
AcDbEntity
  8
Body
100
AcDbLine
 10
-82.479
 20
27.625
 30
0
 11
-82.479
 21
27.625
 31
1.5748
  0
CIRCLE
  5
B76
330
A02
100
AcDbEntity
  8
Body
100
AcDbCircle
 10
-23.875
 20
72.375
 40
2
  0
LINE
  5
B77
330
A02
100
AcDbEntity
  8
Body
100
AcDbLine
 10
-21.875
 20
72.375
 30
0
 11
-21.875
 21
72.375
 31
1.5748
  0
CIRCLE
  5
B78
330
A02
100
AcDbEntity
  8
Body
100
AcDbCircle
 10
-23.875
 20
72.375
 40
2
  0
LINE
  5
B79
330
A02
100
AcDbEntity
  8
Body
100
AcDbLine
 10
-21.875
 20
72.375
 30
0
 11
-21.875
 21
72.375
 31
1.5748
  0
CIRCLE
  5
B7A
330
A02
100
AcDbEntity
  8
Body
100
AcDbCircle
 10
-84.479
 20
72.375
 40
2
  0
LINE
  5
B7B
330
A02
100
AcDbEntity
  8
Body
100
AcDbLine
 10
-82.479
 20
72.375
 30
0
 11
-82.479
 21
72.375
 31
1.5748
  0
CIRCLE
  5
B7C
330
A02
100
AcDbEntity
  8
Body
100
AcDbCircle
 10
-84.479
 20
72.375
 40
2
  0
LINE
  5
B7D
330
A02
100
AcDbEntity
  8
Body
100
AcDbLine
 10
-82.479
 20
72.375
 30
0
 11
-82.479
 21
72.375
 31
1.5748
  0
CIRCLE
  5
B7E
330
A02
100
AcDbEntity
  8
Body
100
AcDbCircle
 10
-150
 20
10
 40
2.61
  0
LINE
  5
B7F
330
A02
100
AcDbEntity
  8
Body
100
AcDbLine
 10
-147.39
 20
10
 30
0
 11
-147.39
 21
10
 31
1.5748
  0
CIRCLE
  5
B80
330
A02
100
AcDbEntity
  8
Body
100
AcDbCircle
 10
-150
 20
10
 40
2.61
  0
LINE
  5
B81
330
A02
100
AcDbEntity
  8
Body
100
AcDbLine
 10
-147.39
 20
10
 30
0
 11
-147.39
 21
10
 31
1.5748
  0
CIRCLE
  5
B82
330
A02
100
AcDbEntity
  8
Body
100
AcDbCircle
 10
-132.229
 20
27.625
 40
2
  0
LINE
  5
B83
330
A02
100
AcDbEntity
  8
Body
100
AcDbLine
 10
-130.229
 20
27.625
 30
0
 11
-130.229
 21
27.625
 31
1.5748
  0
CIRCLE
  5
B84
330
A02
100
AcDbEntity
  8
Body
100
AcDbCircle
 10
-132.229
 20
27.625
 40
2
  0
LINE
  5
B85
330
A02
100
AcDbEntity
  8
Body
100
AcDbLine
 10
-130.229
 20
27.625
 30
0
 11
-130.229
 21
27.625
 31
1.5748
  0
CIRCLE
  5
B86
330
A02
100
AcDbEntity
  8
Body
100
AcDbCircle
 10
-180
 20
25.75
 40
2.95
  0
LINE
  5
B87
330
A02
100
AcDbEntity
  8
Body
100
AcDbLine
 10
-177.05
 20
25.75
 30
0
 11
-177.05
 21
25.75
 31
1.5748
  0
CIRCLE
  5
B88
330
A02
100
AcDbEntity
  8
Body
100
AcDbCircle
 10
-180
 20
25.75
 40
2.95
  0
LINE
  5
B89
330
A02
100
AcDbEntity
  8
Body
100
AcDbLine
 10
-177.05
 20
25.75
 30
0
 11
-177.05
 21
25.75
 31
1.5748
  0
CIRCLE
  5
B8A
330
A02
100
AcDbEntity
  8
Body
100
AcDbCircle
 10
-210
 20
39.7
 40
2.61
  0
LINE
  5
B8B
330
A02
100
AcDbEntity
  8
Body
100
AcDbLine
 10
-207.39
 20
39.7
 30
0
 11
-207.39
 21
39.7
 31
1.5748
  0
CIRCLE
  5
B8C
330
A02
100
AcDbEntity
  8
Body
100
AcDbCircle
 10
-210
 20
39.7
 40
2.61
  0
LINE
  5
B8D
330
A02
100
AcDbEntity
  8
Body
100
AcDbLine
 10
-207.39
 20
39.7
 30
0
 11
-207.39
 21
39.7
 31
1.5748
  0
LINE
  5
B8E
330
A02
100
AcDbEntity
  8
Body
100
AcDbLine
 10
-127.531
 20
71.2
 30
0
 11
-89.177
 21
71.2
 31
0
  0
LINE
  5
B8F
330
A02
100
AcDbEntity
  8
Body
100
AcDbLine
 10
-89.177
 20
71.2
 30
0
 11
-89.177
 21
71.2
 31
1.5748
  0
LINE
  5
B90
330
A02
100
AcDbEntity
  8
Body
100
AcDbLine
 10
-127.531
 20
71.2
 30
1.5748
 11
-89.177
 21
71.2
 31
1.5748
  0
LINE
  5
B91
330
A02
100
AcDbEntity
  8
Body
100
AcDbLine
 10
-127.531
 20
71.2
 30
0
 11
-127.531
 21
71.2
 31
1.5748
  0
LINE
  5
B92
330
A02
100
AcDbEntity
  8
Body
100
AcDbLine
 10
-127.531
 20
28.8
 30
0
 11
-127.531
 21
71.2
 31
0
  0
LINE
  5
B93
330
A02
100
AcDbEntity
  8
Body
100
AcDbLine
 10
-127.531
 20
71.2
 30
0
 11
-127.531
 21
71.2
 31
1.5748
  0
LINE
  5
B94
330
A02
100
AcDbEntity
  8
Body
100
AcDbLine
 10
-127.531
 20
28.8
 30
1.5748
 11
-127.531
 21
71.2
 31
1.5748
  0
LINE
  5
B95
330
A02
100
AcDbEntity
  8
Body
100
AcDbLine
 10
-127.531
 20
28.8
 30
0
 11
-127.531
 21
28.8
 31
1.5748
  0
LINE
  5
B96
330
A02
100
AcDbEntity
  8
Body
100
AcDbLine
 10
-89.177
 20
71.2
 30
0
 11
-89.177
 21
28.8
 31
0
  0
LINE
  5
B97
330
A02
100
AcDbEntity
  8
Body
100
AcDbLine
 10
-89.177
 20
28.8
 30
0
 11
-89.177
 21
28.8
 31
1.5748
  0
LINE
  5
B98
330
A02
100
AcDbEntity
  8
Body
100
AcDbLine
 10
-89.177
 20
71.2
 30
1.5748
 11
-89.177
 21
28.8
 31
1.5748
  0
LINE
  5
B99
330
A02
100
AcDbEntity
  8
Body
100
AcDbLine
 10
-89.177
 20
71.2
 30
0
 11
-89.177
 21
71.2
 31
1.5748
  0
LINE
  5
B9A
330
A02
100
AcDbEntity
  8
Body
100
AcDbLine
 10
-89.177
 20
28.8
 30
0
 11
-127.531
 21
28.8
 31
0
  0
LINE
  5
B9B
330
A02
100
AcDbEntity
  8
Body
100
AcDbLine
 10
-127.531
 20
28.8
 30
0
 11
-127.531
 21
28.8
 31
1.5748
  0
LINE
  5
B9C
330
A02
100
AcDbEntity
  8
Body
100
AcDbLine
 10
-89.177
 20
28.8
 30
1.5748
 11
-127.531
 21
28.8
 31
1.5748
  0
LINE
  5
B9D
330
A02
100
AcDbEntity
  8
Body
100
AcDbLine
 10
-89.177
 20
28.8
 30
0
 11
-89.177
 21
28.8
 31
1.5748
  0
CIRCLE
  5
B9E
330
A02
100
AcDbEntity
  8
Body
100
AcDbCircle
 10
-132.229
 20
72.375
 40
2
  0
LINE
  5
B9F
330
A02
100
AcDbEntity
  8
Body
100
AcDbLine
 10
-130.229
 20
72.375
 30
0
 11
-130.229
 21
72.375
 31
1.5748
  0
CIRCLE
  5
BA0
330
A02
100
AcDbEntity
  8
Body
100
AcDbCircle
 10
-132.229
 20
72.375
 40
2
  0
LINE
  5
BA1
330
A02
100
AcDbEntity
  8
Body
100
AcDbLine
 10
-130.229
 20
72.375
 30
0
 11
-130.229
 21
72.375
 31
1.5748
  0
CIRCLE
  5
BA2
330
A02
100
AcDbEntity
  8
Body
100
AcDbCircle
 10
-95
 20
93.75
 40
2
  0
LINE
  5
BA3
330
A02
100
AcDbEntity
  8
Body
100
AcDbLine
 10
-93
 20
93.75
 30
0
 11
-93
 21
93.75
 31
1.5748
  0
CIRCLE
  5
BA4
330
A02
100
AcDbEntity
  8
Body
100
AcDbCircle
 10
-95
 20
93.75
 40
2
  0
LINE
  5
BA5
330
A02
100
AcDbEntity
  8
Body
100
AcDbLine
 10
-93
 20
93.75
 30
0
 11
-93
 21
93.75
 31
1.5748
  0
CIRCLE
  5
BA6
330
A02
100
AcDbEntity
  8
Body
100
AcDbCircle
 10
-25
 20
108.32
 40
1.85293
  0
LINE
  5
BA7
330
A02
100
AcDbEntity
  8
Body
100
AcDbLine
 10
-23.1471
 20
108.32
 30
0
 11
-23.1471
 21
108.32
 31
1.5748
  0
CIRCLE
  5
BA8
330
A02
100
AcDbEntity
  8
Body
100
AcDbCircle
 10
-25
 20
108.32
 40
1.85293
  0
LINE
  5
BA9
330
A02
100
AcDbEntity
  8
Body
100
AcDbLine
 10
-23.1471
 20
108.32
 30
0
 11
-23.1471
 21
108.32
 31
1.5748
  0
CIRCLE
  5
BAA
330
A02
100
AcDbEntity
  8
Body
100
AcDbCircle
 10
-25
 20
135
 40
7.495
  0
LINE
  5
BAB
330
A02
100
AcDbEntity
  8
Body
100
AcDbLine
 10
-17.505
 20
135
 30
0
 11
-17.505
 21
135
 31
1.5748
  0
CIRCLE
  5
BAC
330
A02
100
AcDbEntity
  8
Body
100
AcDbCircle
 10
-25
 20
135
 40
7.495
  0
LINE
  5
BAD
330
A02
100
AcDbEntity
  8
Body
100
AcDbLine
 10
-17.505
 20
135
 30
0
 11
-17.505
 21
135
 31
1.5748
  0
LINE
  5
BAE
330
A02
100
AcDbEntity
  8
Body
100
AcDbLine
 10
-111.83
 20
168.5
 30
0
 11
-78.17
 21
168.5
 31
0
  0
LINE
  5
BAF
330
A02
100
AcDbEntity
  8
Body
100
AcDbLine
 10
-78.17
 20
168.5
 30
0
 11
-78.17
 21
168.5
 31
1.5748
  0
LINE
  5
BB0
330
A02
100
AcDbEntity
  8
Body
100
AcDbLine
 10
-111.83
 20
168.5
 30
1.5748
 11
-78.17
 21
168.5
 31
1.5748
  0
LINE
  5
BB1
330
A02
100
AcDbEntity
  8
Body
100
AcDbLine
 10
-111.83
 20
168.5
 30
0
 11
-111.83
 21
168.5
 31
1.5748
  0
LINE
  5
BB2
330
A02
100
AcDbEntity
  8
Body
100
AcDbLine
 10
-111.83
 20
101.5
 30
0
 11
-111.83
 21
168.5
 31
0
  0
LINE
  5
BB3
330
A02
100
AcDbEntity
  8
Body
100
AcDbLine
 10
-111.83
 20
168.5
 30
0
 11
-111.83
 21
168.5
 31
1.5748
  0
LINE
  5
BB4
330
A02
100
AcDbEntity
  8
Body
100
AcDbLine
 10
-111.83
 20
101.5
 30
1.5748
 11
-111.83
 21
168.5
 31
1.5748
  0
LINE
  5
BB5
330
A02
100
AcDbEntity
  8
Body
100
AcDbLine
 10
-111.83
 20
101.5
 30
0
 11
-111.83
 21
101.5
 31
1.5748
  0
LINE
  5
BB6
330
A02
100
AcDbEntity
  8
Body
100
AcDbLine
 10
-78.17
 20
168.5
 30
0
 11
-78.17
 21
101.5
 31
0
  0
LINE
  5
BB7
330
A02
100
AcDbEntity
  8
Body
100
AcDbLine
 10
-78.17
 20
101.5
 30
0
 11
-78.17
 21
101.5
 31
1.5748
  0
LINE
  5
BB8
330
A02
100
AcDbEntity
  8
Body
100
AcDbLine
 10
-78.17
 20
168.5
 30
1.5748
 11
-78.17
 21
101.5
 31
1.5748
  0
LINE
  5
BB9
330
A02
100
AcDbEntity
  8
Body
100
AcDbLine
 10
-78.17
 20
168.5
 30
0
 11
-78.17
 21
168.5
 31
1.5748
  0
LINE
  5
BBA
330
A02
100
AcDbEntity
  8
Body
100
AcDbLine
 10
-78.17
 20
101.5
 30
0
 11
-111.83
 21
101.5
 31
0
  0
LINE
  5
BBB
330
A02
100
AcDbEntity
  8
Body
100
AcDbLine
 10
-111.83
 20
101.5
 30
0
 11
-111.83
 21
101.5
 31
1.5748
  0
LINE
  5
BBC
330
A02
100
AcDbEntity
  8
Body
100
AcDbLine
 10
-78.17
 20
101.5
 30
1.5748
 11
-111.83
 21
101.5
 31
1.5748
  0
LINE
  5
BBD
330
A02
100
AcDbEntity
  8
Body
100
AcDbLine
 10
-78.17
 20
101.5
 30
0
 11
-78.17
 21
101.5
 31
1.5748
  0
CIRCLE
  5
BBE
330
A02
100
AcDbEntity
  8
Body
100
AcDbCircle
 10
-210
 20
89.7
 40
2.61
  0
LINE
  5
BBF
330
A02
100
AcDbEntity
  8
Body
100
AcDbLine
 10
-207.39
 20
89.7
 30
0
 11
-207.39
 21
89.7
 31
1.5748
  0
CIRCLE
  5
BC0
330
A02
100
AcDbEntity
  8
Body
100
AcDbCircle
 10
-210
 20
89.7
 40
2.61
  0
LINE
  5
BC1
330
A02
100
AcDbEntity
  8
Body
100
AcDbLine
 10
-207.39
 20
89.7
 30
0
 11
-207.39
 21
89.7
 31
1.5748
  0
CIRCLE
  5
BC2
330
A02
100
AcDbEntity
  8
Body
100
AcDbCircle
 10
-145
 20
108.32
 40
1.85293
  0
LINE
  5
BC3
330
A02
100
AcDbEntity
  8
Body
100
AcDbLine
 10
-143.147
 20
108.32
 30
0
 11
-143.147
 21
108.32
 31
1.5748
  0
CIRCLE
  5
BC4
330
A02
100
AcDbEntity
  8
Body
100
AcDbCircle
 10
-145
 20
108.32
 40
1.85293
  0
LINE
  5
BC5
330
A02
100
AcDbEntity
  8
Body
100
AcDbLine
 10
-143.147
 20
108.32
 30
0
 11
-143.147
 21
108.32
 31
1.5748
  0
CIRCLE
  5
BC6
330
A02
100
AcDbEntity
  8
Body
100
AcDbCircle
 10
-145
 20
135
 40
7.495
  0
LINE
  5
BC7
330
A02
100
AcDbEntity
  8
Body
100
AcDbLine
 10
-137.505
 20
135
 30
0
 11
-137.505
 21
135
 31
1.5748
  0
CIRCLE
  5
BC8
330
A02
100
AcDbEntity
  8
Body
100
AcDbCircle
 10
-145
 20
135
 40
7.495
  0
LINE
  5
BC9
330
A02
100
AcDbEntity
  8
Body
100
AcDbLine
 10
-137.505
 20
135
 30
0
 11
-137.505
 21
135
 31
1.5748
  0
CIRCLE
  5
BCA
330
A02
100
AcDbEntity
  8
Body
100
AcDbCircle
 10
210
 20
139.7
 40
2.61
  0
LINE
  5
BCB
330
A02
100
AcDbEntity
  8
Body
100
AcDbLine
 10
212.61
 20
139.7
 30
0
 11
212.61
 21
139.7
 31
1.5748
  0
CIRCLE
  5
BCC
330
A02
100
AcDbEntity
  8
Body
100
AcDbCircle
 10
210
 20
139.7
 40
2.61
  0
LINE
  5
BCD
330
A02
100
AcDbEntity
  8
Body
100
AcDbLine
 10
212.61
 20
139.7
 30
0
 11
212.61
 21
139.7
 31
1.5748
  0
CIRCLE
  5
BCE
330
A02
100
AcDbEntity
  8
Body
100
AcDbCircle
 10
210
 20
189.7
 40
2.61
  0
LINE
  5
BCF
330
A02
100
AcDbEntity
  8
Body
100
AcDbLine
 10
212.61
 20
189.7
 30
0
 11
212.61
 21
189.7
 31
1.5748
  0
CIRCLE
  5
BD0
330
A02
100
AcDbEntity
  8
Body
100
AcDbCircle
 10
210
 20
189.7
 40
2.61
  0
LINE
  5
BD1
330
A02
100
AcDbEntity
  8
Body
100
AcDbLine
 10
212.61
 20
189.7
 30
0
 11
212.61
 21
189.7
 31
1.5748
  0
CIRCLE
  5
BD2
330
A02
100
AcDbEntity
  8
Body
100
AcDbCircle
 10
145
 20
176.25
 40
2
  0
LINE
  5
BD3
330
A02
100
AcDbEntity
  8
Body
100
AcDbLine
 10
147
 20
176.25
 30
0
 11
147
 21
176.25
 31
1.5748
  0
CIRCLE
  5
BD4
330
A02
100
AcDbEntity
  8
Body
100
AcDbCircle
 10
145
 20
176.25
 40
2
  0
LINE
  5
BD5
330
A02
100
AcDbEntity
  8
Body
100
AcDbLine
 10
147
 20
176.25
 30
0
 11
147
 21
176.25
 31
1.5748
  0
CIRCLE
  5
BD6
330
A02
100
AcDbEntity
  8
Body
100
AcDbCircle
 10
95
 20
150.48
 40
1.85293
  0
LINE
  5
BD7
330
A02
100
AcDbEntity
  8
Body
100
AcDbLine
 10
96.8529
 20
150.48
 30
0
 11
96.8529
 21
150.48
 31
1.5748
  0
CIRCLE
  5
BD8
330
A02
100
AcDbEntity
  8
Body
100
AcDbCircle
 10
95
 20
150.48
 40
1.85293
  0
LINE
  5
BD9
330
A02
100
AcDbEntity
  8
Body
100
AcDbLine
 10
96.8529
 20
150.48
 30
0
 11
96.8529
 21
150.48
 31
1.5748
  0
CIRCLE
  5
BDA
330
A02
100
AcDbEntity
  8
Body
100
AcDbCircle
 10
25
 20
176.25
 40
2
  0
LINE
  5
BDB
330
A02
100
AcDbEntity
  8
Body
100
AcDbLine
 10
27
 20
176.25
 30
0
 11
27
 21
176.25
 31
1.5748
  0
CIRCLE
  5
BDC
330
A02
100
AcDbEntity
  8
Body
100
AcDbCircle
 10
25
 20
176.25
 40
2
  0
LINE
  5
BDD
330
A02
100
AcDbEntity
  8
Body
100
AcDbLine
 10
27
 20
176.25
 30
0
 11
27
 21
176.25
 31
1.5748
  0
CIRCLE
  5
BDE
330
A02
100
AcDbEntity
  8
Body
100
AcDbCircle
 10
6.975
 20
204.225
 40
1.5875
  0
LINE
  5
BDF
330
A02
100
AcDbEntity
  8
Body
100
AcDbLine
 10
8.5625
 20
204.225
 30
0
 11
8.5625
 21
204.225
 31
1.5748
  0
CIRCLE
  5
BE0
330
A02
100
AcDbEntity
  8
Body
100
AcDbCircle
 10
6.975
 20
204.225
 40
1.5875
  0
LINE
  5
BE1
330
A02
100
AcDbEntity
  8
Body
100
AcDbLine
 10
8.5625
 20
204.225
 30
0
 11
8.5625
 21
204.225
 31
1.5748
  0
CIRCLE
  5
BE2
330
A02
100
AcDbEntity
  8
Body
100
AcDbCircle
 10
158.54
 20
224
 40
1.555
  0
LINE
  5
BE3
330
A02
100
AcDbEntity
  8
Body
100
AcDbLine
 10
160.095
 20
224
 30
0
 11
160.095
 21
224
 31
1.5748
  0
CIRCLE
  5
BE4
330
A02
100
AcDbEntity
  8
Body
100
AcDbCircle
 10
158.54
 20
224
 40
1.555
  0
LINE
  5
BE5
330
A02
100
AcDbEntity
  8
Body
100
AcDbLine
 10
160.095
 20
224
 30
0
 11
160.095
 21
224
 31
1.5748
  0
LINE
  5
BE6
330
A02
100
AcDbEntity
  8
Body
100
AcDbLine
 10
135.975
 20
229.7
 30
0
 11
156.025
 21
229.7
 31
0
  0
LINE
  5
BE7
330
A02
100
AcDbEntity
  8
Body
100
AcDbLine
 10
156.025
 20
229.7
 30
0
 11
156.025
 21
229.7
 31
1.5748
  0
LINE
  5
BE8
330
A02
100
AcDbEntity
  8
Body
100
AcDbLine
 10
135.975
 20
229.7
 30
1.5748
 11
156.025
 21
229.7
 31
1.5748
  0
LINE
  5
BE9
330
A02
100
AcDbEntity
  8
Body
100
AcDbLine
 10
135.975
 20
229.7
 30
0
 11
135.975
 21
229.7
 31
1.5748
  0
LINE
  5
BEA
330
A02
100
AcDbEntity
  8
Body
100
AcDbLine
 10
135.975
 20
218.3
 30
0
 11
135.975
 21
229.7
 31
0
  0
LINE
  5
BEB
330
A02
100
AcDbEntity
  8
Body
100
AcDbLine
 10
135.975
 20
229.7
 30
0
 11
135.975
 21
229.7
 31
1.5748
  0
LINE
  5
BEC
330
A02
100
AcDbEntity
  8
Body
100
AcDbLine
 10
135.975
 20
218.3
 30
1.5748
 11
135.975
 21
229.7
 31
1.5748
  0
LINE
  5
BED
330
A02
100
AcDbEntity
  8
Body
100
AcDbLine
 10
135.975
 20
218.3
 30
0
 11
135.975
 21
218.3
 31
1.5748
  0
LINE
  5
BEE
330
A02
100
AcDbEntity
  8
Body
100
AcDbLine
 10
156.025
 20
229.7
 30
0
 11
156.025
 21
218.3
 31
0
  0
LINE
  5
BEF
330
A02
100
AcDbEntity
  8
Body
100
AcDbLine
 10
156.025
 20
218.3
 30
0
 11
156.025
 21
218.3
 31
1.5748
  0
LINE
  5
BF0
330
A02
100
AcDbEntity
  8
Body
100
AcDbLine
 10
156.025
 20
229.7
 30
1.5748
 11
156.025
 21
218.3
 31
1.5748
  0
LINE
  5
BF1
330
A02
100
AcDbEntity
  8
Body
100
AcDbLine
 10
156.025
 20
229.7
 30
0
 11
156.025
 21
229.7
 31
1.5748
  0
LINE
  5
BF2
330
A02
100
AcDbEntity
  8
Body
100
AcDbLine
 10
156.025
 20
218.3
 30
0
 11
135.975
 21
218.3
 31
0
  0
LINE
  5
BF3
330
A02
100
AcDbEntity
  8
Body
100
AcDbLine
 10
135.975
 20
218.3
 30
0
 11
135.975
 21
218.3
 31
1.5748
  0
LINE
  5
BF4
330
A02
100
AcDbEntity
  8
Body
100
AcDbLine
 10
156.025
 20
218.3
 30
1.5748
 11
135.975
 21
218.3
 31
1.5748
  0
LINE
  5
BF5
330
A02
100
AcDbEntity
  8
Body
100
AcDbLine
 10
156.025
 20
218.3
 30
0
 11
156.025
 21
218.3
 31
1.5748
  0
CIRCLE
  5
BF6
330
A02
100
AcDbEntity
  8
Body
100
AcDbCircle
 10
133.46
 20
224
 40
1.555
  0
LINE
  5
BF7
330
A02
100
AcDbEntity
  8
Body
100
AcDbLine
 10
135.015
 20
224
 30
0
 11
135.015
 21
224
 31
1.5748
  0
CIRCLE
  5
BF8
330
A02
100
AcDbEntity
  8
Body
100
AcDbCircle
 10
133.46
 20
224
 40
1.555
  0
LINE
  5
BF9
330
A02
100
AcDbEntity
  8
Body
100
AcDbLine
 10
135.015
 20
224
 30
0
 11
135.015
 21
224
 31
1.5748
  0
CIRCLE
  5
BFA
330
A02
100
AcDbEntity
  8
Body
100
AcDbCircle
 10
210
 20
239.7
 40
2.61
  0
LINE
  5
BFB
330
A02
100
AcDbEntity
  8
Body
100
AcDbLine
 10
212.61
 20
239.7
 30
0
 11
212.61
 21
239.7
 31
1.5748
  0
CIRCLE
  5
BFC
330
A02
100
AcDbEntity
  8
Body
100
AcDbCircle
 10
210
 20
239.7
 40
2.61
  0
LINE
  5
BFD
330
A02
100
AcDbEntity
  8
Body
100
AcDbLine
 10
212.61
 20
239.7
 30
0
 11
212.61
 21
239.7
 31
1.5748
  0
CIRCLE
  5
BFE
330
A02
100
AcDbEntity
  8
Body
100
AcDbCircle
 10
150
 20
269.4
 40
2.61
  0
LINE
  5
BFF
330
A02
100
AcDbEntity
  8
Body
100
AcDbLine
 10
152.61
 20
269.4
 30
0
 11
152.61
 21
269.4
 31
1.5748
  0
CIRCLE
  5
C00
330
A02
100
AcDbEntity
  8
Body
100
AcDbCircle
 10
150
 20
269.4
 40
2.61
  0
LINE
  5
C01
330
A02
100
AcDbEntity
  8
Body
100
AcDbLine
 10
152.61
 20
269.4
 30
0
 11
152.61
 21
269.4
 31
1.5748
  0
CIRCLE
  5
C02
330
A02
100
AcDbEntity
  8
Body
100
AcDbCircle
 10
83.45
 20
224
 40
1.555
  0
LINE
  5
C03
330
A02
100
AcDbEntity
  8
Body
100
AcDbLine
 10
85.005
 20
224
 30
0
 11
85.005
 21
224
 31
1.5748
  0
CIRCLE
  5
C04
330
A02
100
AcDbEntity
  8
Body
100
AcDbCircle
 10
83.45
 20
224
 40
1.555
  0
LINE
  5
C05
330
A02
100
AcDbEntity
  8
Body
100
AcDbLine
 10
85.005
 20
224
 30
0
 11
85.005
 21
224
 31
1.5748
  0
LINE
  5
C06
330
A02
100
AcDbEntity
  8
Body
100
AcDbLine
 10
39.125
 20
229.7
 30
0
 11
80.875
 21
229.7
 31
0
  0
LINE
  5
C07
330
A02
100
AcDbEntity
  8
Body
100
AcDbLine
 10
80.875
 20
229.7
 30
0
 11
80.875
 21
229.7
 31
1.5748
  0
LINE
  5
C08
330
A02
100
AcDbEntity
  8
Body
100
AcDbLine
 10
39.125
 20
229.7
 30
1.5748
 11
80.875
 21
229.7
 31
1.5748
  0
LINE
  5
C09
330
A02
100
AcDbEntity
  8
Body
100
AcDbLine
 10
39.125
 20
229.7
 30
0
 11
39.125
 21
229.7
 31
1.5748
  0
LINE
  5
C0A
330
A02
100
AcDbEntity
  8
Body
100
AcDbLine
 10
39.125
 20
218.3
 30
0
 11
39.125
 21
229.7
 31
0
  0
LINE
  5
C0B
330
A02
100
AcDbEntity
  8
Body
100
AcDbLine
 10
39.125
 20
229.7
 30
0
 11
39.125
 21
229.7
 31
1.5748
  0
LINE
  5
C0C
330
A02
100
AcDbEntity
  8
Body
100
AcDbLine
 10
39.125
 20
218.3
 30
1.5748
 11
39.125
 21
229.7
 31
1.5748
  0
LINE
  5
C0D
330
A02
100
AcDbEntity
  8
Body
100
AcDbLine
 10
39.125
 20
218.3
 30
0
 11
39.125
 21
218.3
 31
1.5748
  0
LINE
  5
C0E
330
A02
100
AcDbEntity
  8
Body
100
AcDbLine
 10
80.875
 20
229.7
 30
0
 11
80.875
 21
218.3
 31
0
  0
LINE
  5
C0F
330
A02
100
AcDbEntity
  8
Body
100
AcDbLine
 10
80.875
 20
218.3
 30
0
 11
80.875
 21
218.3
 31
1.5748
  0
LINE
  5
C10
330
A02
100
AcDbEntity
  8
Body
100
AcDbLine
 10
80.875
 20
229.7
 30
1.5748
 11
80.875
 21
218.3
 31
1.5748
  0
LINE
  5
C11
330
A02
100
AcDbEntity
  8
Body
100
AcDbLine
 10
80.875
 20
229.7
 30
0
 11
80.875
 21
229.7
 31
1.5748
  0
LINE
  5
C12
330
A02
100
AcDbEntity
  8
Body
100
AcDbLine
 10
80.875
 20
218.3
 30
0
 11
39.125
 21
218.3
 31
0
  0
LINE
  5
C13
330
A02
100
AcDbEntity
  8
Body
100
AcDbLine
 10
39.125
 20
218.3
 30
0
 11
39.125
 21
218.3
 31
1.5748
  0
LINE
  5
C14
330
A02
100
AcDbEntity
  8
Body
100
AcDbLine
 10
80.875
 20
218.3
 30
1.5748
 11
39.125
 21
218.3
 31
1.5748
  0
LINE
  5
C15
330
A02
100
AcDbEntity
  8
Body
100
AcDbLine
 10
80.875
 20
218.3
 30
0
 11
80.875
 21
218.3
 31
1.5748
  0
CIRCLE
  5
C16
330
A02
100
AcDbEntity
  8
Body
100
AcDbCircle
 10
36.55
 20
224
 40
1.555
  0
LINE
  5
C17
330
A02
100
AcDbEntity
  8
Body
100
AcDbLine
 10
38.105
 20
224
 30
0
 11
38.105
 21
224
 31
1.5748
  0
CIRCLE
  5
C18
330
A02
100
AcDbEntity
  8
Body
100
AcDbCircle
 10
36.55
 20
224
 40
1.555
  0
LINE
  5
C19
330
A02
100
AcDbEntity
  8
Body
100
AcDbLine
 10
38.105
 20
224
 30
0
 11
38.105
 21
224
 31
1.5748
  0
CIRCLE
  5
C1A
330
A02
100
AcDbEntity
  8
Body
100
AcDbCircle
 10
100
 20
269.4
 40
2.61
  0
LINE
  5
C1B
330
A02
100
AcDbEntity
  8
Body
100
AcDbLine
 10
102.61
 20
269.4
 30
0
 11
102.61
 21
269.4
 31
1.5748
  0
CIRCLE
  5
C1C
330
A02
100
AcDbEntity
  8
Body
100
AcDbCircle
 10
100
 20
269.4
 40
2.61
  0
LINE
  5
C1D
330
A02
100
AcDbEntity
  8
Body
100
AcDbLine
 10
102.61
 20
269.4
 30
0
 11
102.61
 21
269.4
 31
1.5748
  0
CIRCLE
  5
C1E
330
A02
100
AcDbEntity
  8
Body
100
AcDbCircle
 10
6.975
 20
243.225
 40
1.5875
  0
LINE
  5
C1F
330
A02
100
AcDbEntity
  8
Body
100
AcDbLine
 10
8.5625
 20
243.225
 30
0
 11
8.5625
 21
243.225
 31
1.5748
  0
CIRCLE
  5
C20
330
A02
100
AcDbEntity
  8
Body
100
AcDbCircle
 10
6.975
 20
243.225
 40
1.5875
  0
LINE
  5
C21
330
A02
100
AcDbEntity
  8
Body
100
AcDbLine
 10
8.5625
 20
243.225
 30
0
 11
8.5625
 21
243.225
 31
1.5748
  0
CIRCLE
  5
C22
330
A02
100
AcDbEntity
  8
Body
100
AcDbCircle
 10
50
 20
269.4
 40
2.61
  0
LINE
  5
C23
330
A02
100
AcDbEntity
  8
Body
100
AcDbLine
 10
52.61
 20
269.4
 30
0
 11
52.61
 21
269.4
 31
1.5748
  0
CIRCLE
  5
C24
330
A02
100
AcDbEntity
  8
Body
100
AcDbCircle
 10
50
 20
269.4
 40
2.61
  0
LINE
  5
C25
330
A02
100
AcDbEntity
  8
Body
100
AcDbLine
 10
52.61
 20
269.4
 30
0
 11
52.61
 21
269.4
 31
1.5748
  0
CIRCLE
  5
C26
330
A02
100
AcDbEntity
  8
Body
100
AcDbCircle
 10
-25
 20
150.48
 40
1.85293
  0
LINE
  5
C27
330
A02
100
AcDbEntity
  8
Body
100
AcDbLine
 10
-23.1471
 20
150.48
 30
0
 11
-23.1471
 21
150.48
 31
1.5748
  0
CIRCLE
  5
C28
330
A02
100
AcDbEntity
  8
Body
100
AcDbCircle
 10
-25
 20
150.48
 40
1.85293
  0
LINE
  5
C29
330
A02
100
AcDbEntity
  8
Body
100
AcDbLine
 10
-23.1471
 20
150.48
 30
0
 11
-23.1471
 21
150.48
 31
1.5748
  0
CIRCLE
  5
C2A
330
A02
100
AcDbEntity
  8
Body
100
AcDbCircle
 10
-95
 20
176.25
 40
2
  0
LINE
  5
C2B
330
A02
100
AcDbEntity
  8
Body
100
AcDbLine
 10
-93
 20
176.25
 30
0
 11
-93
 21
176.25
 31
1.5748
  0
CIRCLE
  5
C2C
330
A02
100
AcDbEntity
  8
Body
100
AcDbCircle
 10
-95
 20
176.25
 40
2
  0
LINE
  5
C2D
330
A02
100
AcDbEntity
  8
Body
100
AcDbLine
 10
-93
 20
176.25
 30
0
 11
-93
 21
176.25
 31
1.5748
  0
CIRCLE
  5
C2E
330
A02
100
AcDbEntity
  8
Body
100
AcDbCircle
 10
-93.025
 20
204.225
 40
1.5875
  0
LINE
  5
C2F
330
A02
100
AcDbEntity
  8
Body
100
AcDbLine
 10
-91.4375
 20
204.225
 30
0
 11
-91.4375
 21
204.225
 31
1.5748
  0
CIRCLE
  5
C30
330
A02
100
AcDbEntity
  8
Body
100
AcDbCircle
 10
-93.025
 20
204.225
 40
1.5875
  0
LINE
  5
C31
330
A02
100
AcDbEntity
  8
Body
100
AcDbLine
 10
-91.4375
 20
204.225
 30
0
 11
-91.4375
 21
204.225
 31
1.5748
  0
CIRCLE
  5
C32
330
A02
100
AcDbEntity
  8
Body
100
AcDbCircle
 10
-145
 20
150.48
 40
1.85293
  0
LINE
  5
C33
330
A02
100
AcDbEntity
  8
Body
100
AcDbLine
 10
-143.147
 20
150.48
 30
0
 11
-143.147
 21
150.48
 31
1.5748
  0
CIRCLE
  5
C34
330
A02
100
AcDbEntity
  8
Body
100
AcDbCircle
 10
-145
 20
150.48
 40
1.85293
  0
LINE
  5
C35
330
A02
100
AcDbEntity
  8
Body
100
AcDbLine
 10
-143.147
 20
150.48
 30
0
 11
-143.147
 21
150.48
 31
1.5748
  0
CIRCLE
  5
C36
330
A02
100
AcDbEntity
  8
Body
100
AcDbCircle
 10
-210
 20
139.7
 40
2.61
  0
LINE
  5
C37
330
A02
100
AcDbEntity
  8
Body
100
AcDbLine
 10
-207.39
 20
139.7
 30
0
 11
-207.39
 21
139.7
 31
1.5748
  0
CIRCLE
  5
C38
330
A02
100
AcDbEntity
  8
Body
100
AcDbCircle
 10
-210
 20
139.7
 40
2.61
  0
LINE
  5
C39
330
A02
100
AcDbEntity
  8
Body
100
AcDbLine
 10
-207.39
 20
139.7
 30
0
 11
-207.39
 21
139.7
 31
1.5748
  0
CIRCLE
  5
C3A
330
A02
100
AcDbEntity
  8
Body
100
AcDbCircle
 10
-180
 20
177.75
 40
2.95
  0
LINE
  5
C3B
330
A02
100
AcDbEntity
  8
Body
100
AcDbLine
 10
-177.05
 20
177.75
 30
0
 11
-177.05
 21
177.75
 31
1.5748
  0
CIRCLE
  5
C3C
330
A02
100
AcDbEntity
  8
Body
100
AcDbCircle
 10
-180
 20
177.75
 40
2.95
  0
LINE
  5
C3D
330
A02
100
AcDbEntity
  8
Body
100
AcDbLine
 10
-177.05
 20
177.75
 30
0
 11
-177.05
 21
177.75
 31
1.5748
  0
CIRCLE
  5
C3E
330
A02
100
AcDbEntity
  8
Body
100
AcDbCircle
 10
-210
 20
189.7
 40
2.61
  0
LINE
  5
C3F
330
A02
100
AcDbEntity
  8
Body
100
AcDbLine
 10
-207.39
 20
189.7
 30
0
 11
-207.39
 21
189.7
 31
1.5748
  0
CIRCLE
  5
C40
330
A02
100
AcDbEntity
  8
Body
100
AcDbCircle
 10
-210
 20
189.7
 40
2.61
  0
LINE
  5
C41
330
A02
100
AcDbEntity
  8
Body
100
AcDbLine
 10
-207.39
 20
189.7
 30
0
 11
-207.39
 21
189.7
 31
1.5748
  0
CIRCLE
  5
C42
330
A02
100
AcDbEntity
  8
Body
100
AcDbCircle
 10
-193.025
 20
204.225
 40
1.5875
  0
LINE
  5
C43
330
A02
100
AcDbEntity
  8
Body
100
AcDbLine
 10
-191.437
 20
204.225
 30
0
 11
-191.437
 21
204.225
 31
1.5748
  0
CIRCLE
  5
C44
330
A02
100
AcDbEntity
  8
Body
100
AcDbCircle
 10
-193.025
 20
204.225
 40
1.5875
  0
LINE
  5
C45
330
A02
100
AcDbEntity
  8
Body
100
AcDbLine
 10
-191.437
 20
204.225
 30
0
 11
-191.437
 21
204.225
 31
1.5748
  0
LINE
  5
C46
330
A02
100
AcDbEntity
  8
Body
100
AcDbLine
 10
-180
 20
237.45
 30
0
 11
-6.05
 21
237.45
 31
0
  0
LINE
  5
C47
330
A02
100
AcDbEntity
  8
Body
100
AcDbLine
 10
-6.05
 20
237.45
 30
0
 11
-6.05
 21
237.45
 31
1.5748
  0
LINE
  5
C48
330
A02
100
AcDbEntity
  8
Body
100
AcDbLine
 10
-180
 20
237.45
 30
1.5748
 11
-6.05
 21
237.45
 31
1.5748
  0
LINE
  5
C49
330
A02
100
AcDbEntity
  8
Body
100
AcDbLine
 10
-180
 20
237.45
 30
0
 11
-180
 21
237.45
 31
1.5748
  0
LINE
  5
C4A
330
A02
100
AcDbEntity
  8
Body
100
AcDbLine
 10
-180
 20
210
 30
0
 11
-180
 21
237.45
 31
0
  0
LINE
  5
C4B
330
A02
100
AcDbEntity
  8
Body
100
AcDbLine
 10
-180
 20
237.45
 30
0
 11
-180
 21
237.45
 31
1.5748
  0
LINE
  5
C4C
330
A02
100
AcDbEntity
  8
Body
100
AcDbLine
 10
-180
 20
210
 30
1.5748
 11
-180
 21
237.45
 31
1.5748
  0
LINE
  5
C4D
330
A02
100
AcDbEntity
  8
Body
100
AcDbLine
 10
-180
 20
210
 30
0
 11
-180
 21
210
 31
1.5748
  0
LINE
  5
C4E
330
A02
100
AcDbEntity
  8
Body
100
AcDbLine
 10
-6.05
 20
237.45
 30
0
 11
-6.05
 21
210
 31
0
  0
LINE
  5
C4F
330
A02
100
AcDbEntity
  8
Body
100
AcDbLine
 10
-6.05
 20
210
 30
0
 11
-6.05
 21
210
 31
1.5748
  0
LINE
  5
C50
330
A02
100
AcDbEntity
  8
Body
100
AcDbLine
 10
-6.05
 20
237.45
 30
1.5748
 11
-6.05
 21
210
 31
1.5748
  0
LINE
  5
C51
330
A02
100
AcDbEntity
  8
Body
100
AcDbLine
 10
-6.05
 20
237.45
 30
0
 11
-6.05
 21
237.45
 31
1.5748
  0
LINE
  5
C52
330
A02
100
AcDbEntity
  8
Body
100
AcDbLine
 10
-6.05
 20
210
 30
0
 11
-180
 21
210
 31
0
  0
LINE
  5
C53
330
A02
100
AcDbEntity
  8
Body
100
AcDbLine
 10
-180
 20
210
 30
0
 11
-180
 21
210
 31
1.5748
  0
LINE
  5
C54
330
A02
100
AcDbEntity
  8
Body
100
AcDbLine
 10
-6.05
 20
210
 30
1.5748
 11
-180
 21
210
 31
1.5748
  0
LINE
  5
C55
330
A02
100
AcDbEntity
  8
Body
100
AcDbLine
 10
-6.05
 20
210
 30
0
 11
-6.05
 21
210
 31
1.5748
  0
CIRCLE
  5
C56
330
A02
100
AcDbEntity
  8
Body
100
AcDbCircle
 10
0
 20
269.4
 40
2.61
  0
LINE
  5
C57
330
A02
100
AcDbEntity
  8
Body
100
AcDbLine
 10
2.61
 20
269.4
 30
0
 11
2.61
 21
269.4
 31
1.5748
  0
CIRCLE
  5
C58
330
A02
100
AcDbEntity
  8
Body
100
AcDbCircle
 10
0
 20
269.4
 40
2.61
  0
LINE
  5
C59
330
A02
100
AcDbEntity
  8
Body
100
AcDbLine
 10
2.61
 20
269.4
 30
0
 11
2.61
 21
269.4
 31
1.5748
  0
CIRCLE
  5
C5A
330
A02
100
AcDbEntity
  8
Body
100
AcDbCircle
 10
-50
 20
269.4
 40
2.61
  0
LINE
  5
C5B
330
A02
100
AcDbEntity
  8
Body
100
AcDbLine
 10
-47.39
 20
269.4
 30
0
 11
-47.39
 21
269.4
 31
1.5748
  0
CIRCLE
  5
C5C
330
A02
100
AcDbEntity
  8
Body
100
AcDbCircle
 10
-50
 20
269.4
 40
2.61
  0
LINE
  5
C5D
330
A02
100
AcDbEntity
  8
Body
100
AcDbLine
 10
-47.39
 20
269.4
 30
0
 11
-47.39
 21
269.4
 31
1.5748
  0
CIRCLE
  5
C5E
330
A02
100
AcDbEntity
  8
Body
100
AcDbCircle
 10
-93.025
 20
243.225
 40
1.5875
  0
LINE
  5
C5F
330
A02
100
AcDbEntity
  8
Body
100
AcDbLine
 10
-91.4375
 20
243.225
 30
0
 11
-91.4375
 21
243.225
 31
1.5748
  0
CIRCLE
  5
C60
330
A02
100
AcDbEntity
  8
Body
100
AcDbCircle
 10
-93.025
 20
243.225
 40
1.5875
  0
LINE
  5
C61
330
A02
100
AcDbEntity
  8
Body
100
AcDbLine
 10
-91.4375
 20
243.225
 30
0
 11
-91.4375
 21
243.225
 31
1.5748
  0
CIRCLE
  5
C62
330
A02
100
AcDbEntity
  8
Body
100
AcDbCircle
 10
-100
 20
269.4
 40
2.61
  0
LINE
  5
C63
330
A02
100
AcDbEntity
  8
Body
100
AcDbLine
 10
-97.39
 20
269.4
 30
0
 11
-97.39
 21
269.4
 31
1.5748
  0
CIRCLE
  5
C64
330
A02
100
AcDbEntity
  8
Body
100
AcDbCircle
 10
-100
 20
269.4
 40
2.61
  0
LINE
  5
C65
330
A02
100
AcDbEntity
  8
Body
100
AcDbLine
 10
-97.39
 20
269.4
 30
0
 11
-97.39
 21
269.4
 31
1.5748
  0
CIRCLE
  5
C66
330
A02
100
AcDbEntity
  8
Body
100
AcDbCircle
 10
-150
 20
269.4
 40
2.61
  0
LINE
  5
C67
330
A02
100
AcDbEntity
  8
Body
100
AcDbLine
 10
-147.39
 20
269.4
 30
0
 11
-147.39
 21
269.4
 31
1.5748
  0
CIRCLE
  5
C68
330
A02
100
AcDbEntity
  8
Body
100
AcDbCircle
 10
-150
 20
269.4
 40
2.61
  0
LINE
  5
C69
330
A02
100
AcDbEntity
  8
Body
100
AcDbLine
 10
-147.39
 20
269.4
 30
0
 11
-147.39
 21
269.4
 31
1.5748
  0
CIRCLE
  5
C6A
330
A02
100
AcDbEntity
  8
Body
100
AcDbCircle
 10
-193.025
 20
243.225
 40
1.5875
  0
LINE
  5
C6B
330
A02
100
AcDbEntity
  8
Body
100
AcDbLine
 10
-191.437
 20
243.225
 30
0
 11
-191.437
 21
243.225
 31
1.5748
  0
CIRCLE
  5
C6C
330
A02
100
AcDbEntity
  8
Body
100
AcDbCircle
 10
-193.025
 20
243.225
 40
1.5875
  0
LINE
  5
C6D
330
A02
100
AcDbEntity
  8
Body
100
AcDbLine
 10
-191.437
 20
243.225
 30
0
 11
-191.437
 21
243.225
 31
1.5748
  0
CIRCLE
  5
C6E
330
A02
100
AcDbEntity
  8
Body
100
AcDbCircle
 10
-210
 20
239.7
 40
2.61
  0
LINE
  5
C6F
330
A02
100
AcDbEntity
  8
Body
100
AcDbLine
 10
-207.39
 20
239.7
 30
0
 11
-207.39
 21
239.7
 31
1.5748
  0
CIRCLE
  5
C70
330
A02
100
AcDbEntity
  8
Body
100
AcDbCircle
 10
-210
 20
239.7
 40
2.61
  0
LINE
  5
C71
330
A02
100
AcDbEntity
  8
Body
100
AcDbLine
 10
-207.39
 20
239.7
 30
0
 11
-207.39
 21
239.7
 31
1.5748
  0
ENDSEC
  0
SECTION
  2
OBJECTS
  0
DICTIONARY
  5
F000
330
0
100
AcDbDictionary
  3
ACAD_GROUP
350
F001
  0
DICTIONARY
  5
F001
330
F000
100
AcDbDictionary
  0
ENDSEC
  0
EOF