<?xml version="1.0" encoding="UTF-8" standalone="no"?>
<svg
   viewBox="0 0 1632 1056.0001"
   width="17in"
   height="11in"
   version="1.1"
   id="svg92"
   sodipodi:docname="rear panel edit 1_3.svg"
   inkscape:version="1.2.1 (9c6d41e410, 2022-07-14)"
   xmlns:inkscape="http://www.inkscape.org/namespaces/inkscape"
   xmlns:sodipodi="http://sodipodi.sourceforge.net/DTD/sodipodi-0.dtd"
   xmlns="http://www.w3.org/2000/svg"
   xmlns:svg="http://www.w3.org/2000/svg">
  <sodipodi:namedview
     id="namedview94"
     pagecolor="#ffffff"
     bordercolor="#666666"
     borderopacity="1.0"
     inkscape:showpageshadow="2"
     inkscape:pageopacity="0.0"
     inkscape:pagecheckerboard="0"
     inkscape:deskcolor="#d1d1d1"
     showgrid="false"
     inkscape:zoom="0.69252284"
     inkscape:cx="883.00337"
     inkscape:cy="703.9479"
     inkscape:window-width="1278"
     inkscape:window-height="1368"
     inkscape:window-x="2353"
     inkscape:window-y="0"
     inkscape:window-maximized="0"
     inkscape:current-layer="g90"
     inkscape:document-units="in" />
  <desc
     id="desc2">RearPanel3.dxf - scale = 1.000000, origin = (0.000000, 0.000000), method = manual</desc>
  <defs
     id="defs16">
    <inkscape:path-effect
       effect="bspline"
       id="path-effect1914"
       is_visible="true"
       lpeversion="1"
       weight="33.333333"
       steps="2"
       helper_size="0"
       apply_no_weight="true"
       apply_with_weight="true"
       only_selected="false" />
    <marker
       id="DistanceX"
       orient="auto"
       refX="0"
       refY="0"
       style="overflow:visible">
      <path
         d="M 3,-3 -3,3 M 0,-5 V 5"
         style="stroke:#000000;stroke-width:0.5"
         id="path4" />
    </marker>
    <pattern
       id="Hatch"
       patternUnits="userSpaceOnUse"
       width="8"
       height="8"
       x="0"
       y="0">
      <path
         d="M8 4 l-4,4"
         stroke="#000000"
         stroke-width="0.25"
         linecap="square"
         id="path7" />
      <path
         d="M6 2 l-4,4"
         stroke="#000000"
         stroke-width="0.25"
         linecap="square"
         id="path9" />
      <path
         d="M4 0 l-4,4"
         stroke="#000000"
         stroke-width="0.25"
         linecap="square"
         id="path11" />
    </pattern>
    <symbol
       id="*MODEL_SPACE" />
    <symbol
       id="*PAPER_SPACE" />
  </defs>
  <g
     inkscape:groupmode="layer"
     inkscape:label="0"
     id="g18" />
  <g
     inkscape:groupmode="layer"
     inkscape:label="ProjItem003"
     id="g90">
    <path
       style="fill:none;stroke:#000000"
       d="M -14.165734,1.2793884 H 1648.8303"
       id="path20" />
    <path
       style="fill:none;stroke:#000000"
       d="M -14.165734,1057.2794 V 1.2793884"
       id="path22" />
    <path
       style="fill:none;stroke:#000000"
       d="M 1648.8303,1.2793884 V 1057.2794"
       id="path24" />
    <path
       style="fill:none;stroke:#000000"
       d="M 1648.8303,1057.2794 H -14.165734"
       id="path26" />
    <path
       d="m 1620.8957,907.23183 a 9.8646,9.8646 0 0 0 -19.7292,0 9.8646,9.8646 0 0 0 19.7292,0 z"
       style="fill:none;stroke:#000000"
       id="path28" />
    <path
       d="m 1394.124,1019.4838 a 9.864567,9.864567 0 0 0 -19.7291,0 9.864567,9.864567 0 0 0 19.7291,0 z"
       style="fill:none;stroke:#000000"
       id="path30" />
    <path
       d="m 1205.1476,1019.4838 a 9.864567,9.864567 0 0 0 -19.7291,0 9.864567,9.864567 0 0 0 19.7291,0 z"
       style="fill:none;stroke:#000000"
       id="path32" />
    <path
       d="m 1016.1712,1019.4838 a 9.864567,9.864567 0 0 0 -19.72913,0 9.864567,9.864567 0 0 0 19.72913,0 z"
       style="fill:none;stroke:#000000"
       id="path34" />
    <path
       d="m 1620.8957,718.25545 a 9.8646,9.8646 0 0 0 -19.7292,0 9.8646,9.8646 0 0 0 19.7292,0 z"
       style="fill:none;stroke:#000000"
       id="path36" />
    <path
       d="m 827.19487,1019.4838 a 9.8646,9.8646 0 0 0 -19.7292,0 9.8646,9.8646 0 0 0 19.7292,0 z"
       style="fill:none;stroke:#000000"
       id="path38" />
    <path
       d="m 638.21847,1019.4838 a 9.864567,9.864567 0 0 0 -19.7291,0 9.864567,9.864567 0 0 0 19.7291,0 z"
       style="fill:none;stroke:#000000"
       id="path40" />
    <path
       d="m 449.24207,1019.4838 a 9.864567,9.864567 0 0 0 -19.7291,0 9.864567,9.864567 0 0 0 19.7291,0 z"
       style="fill:none;stroke:#000000"
       id="path42" />
    <path
       d="m 887.25157,868.3027 a 69.9213,69.9213 0 0 0 -139.8426,0 69.9213,69.9213 0 0 0 139.8426,0 z"
       style="fill:none;stroke:#000000"
       id="path44" />
    <path
       d="m 260.26567,1019.4838 a 9.864567,9.864567 0 0 0 -19.7291,0 9.864567,9.864567 0 0 0 19.7291,0 z"
       style="fill:none;stroke:#000000"
       id="path46" />
    <path
       d="m 33.494046,907.23183 a 9.864567,9.864567 0 0 0 -19.72913,0 9.864567,9.864567 0 0 0 19.72913,0 z"
       style="fill:none;stroke:#000000"
       id="path48" />
    <path
       d="m 866.46417,679.32632 a 49.1339,49.1339 0 0 0 -98.2678,0 49.1339,49.1339 0 0 0 98.2678,0 z"
       style="fill:none;stroke:#000000"
       id="path50" />
    <path
       d="m 33.494046,718.25545 a 9.864567,9.864567 0 0 0 -19.72913,0 9.864567,9.864567 0 0 0 19.72913,0 z"
       style="fill:none;stroke:#000000"
       id="path52" />
    <path
       d="m 1620.8957,529.27907 a 9.8646,9.8646 0 0 0 -19.7292,0 9.8646,9.8646 0 0 0 19.7292,0 z"
       style="fill:none;stroke:#000000"
       id="path54" />
    <path
       d="m 1620.8957,340.3027 a 9.8646,9.8646 0 0 0 -19.7292,0 9.8646,9.8646 0 0 0 19.7292,0 z"
       style="fill:none;stroke:#000000"
       id="path56" />
    <path
       style="fill:none;stroke:#000000"
       d="m 1380.4803,786.68918 h 83.15"
       id="path58" />
    <path
       style="fill:none;stroke:#000000"
       d="m 1380.4803,906.50018 v -119.811"
       id="path60" />
    <path
       style="fill:none;stroke:#000000"
       d="m 1463.6303,786.68918 v 119.811"
       id="path62" />
    <path
       style="fill:none;stroke:#000000"
       d="m 1463.6303,906.50018 h -83.15"
       id="path64" />
    <path
       d="m 1620.8957,151.32632 a 9.8646,9.8646 0 0 0 -19.7292,0 9.8646,9.8646 0 0 0 19.7292,0 z"
       style="fill:none;stroke:#000000"
       id="path66" />
    <path
       d="m 1394.124,39.074348 a 9.864567,9.864567 0 0 0 -19.7291,0 9.864567,9.864567 0 0 0 19.7291,0 z"
       style="fill:none;stroke:#000000"
       id="path68" />
    <path
       d="m 1205.1476,39.074348 a 9.864567,9.864567 0 0 0 -19.7291,0 9.864567,9.864567 0 0 0 19.7291,0 z"
       style="fill:none;stroke:#000000"
       id="path70" />
    <path
       d="m 1016.1712,39.074348 a 9.864567,9.864567 0 0 0 -19.72913,0 9.864567,9.864567 0 0 0 19.72913,0 z"
       style="fill:none;stroke:#000000"
       id="path72" />
    <path
       d="m 858.90507,490.34994 a 41.574803,41.574803 0 0 0 -83.1496,0 41.574803,41.574803 0 0 0 83.1496,0 z"
       style="fill:none;stroke:#000000"
       id="path74" />
    <g
       id="g1929"
       transform="translate(-23.659935,-23.103931)">
      <path
         d="m 1106.2281,874.04037 c 3.6026,0 6.5258,-2.9154 6.5355,-6.51804 -0.01,-3.60264 -2.9329,-6.51804 -6.5355,-6.51804 -3.6027,0 -2.5503,0.0378 -5.627,0.0378 -3.0768,0 -6.5259,2.9154 -6.5356,6.51804 0.01,3.60264 2.9329,6.51804 6.5356,6.51804 z"
         style="fill:none;stroke:#000000;stroke-width:0.1572"
         id="path74-1-3"
         sodipodi:nodetypes="ccccccc" />
      <path
         d="m 1271.3525,873.94867 c 3.6026,0 6.5258,-2.9154 6.5355,-6.51804 -0.01,-3.60264 -2.9329,-6.51804 -6.5355,-6.51804 -3.6027,0 -2.5503,0.0378 -5.627,0.0378 -3.0768,0 -6.5259,2.9154 -6.5356,6.51804 0.01,3.60264 2.9329,6.51804 6.5356,6.51804 z"
         style="fill:none;stroke:#000000;stroke-width:0.1572"
         id="path74-1-3-0"
         sodipodi:nodetypes="ccccccc" />
      <g
         id="g655"
         transform="matrix(1.1384775,0,0,1.1810842,-2.4787624,222.78113)">
        <path
           style="fill:none;stroke:#000000;stroke-width:1.07675"
           d="M 982.07518,499.67328 H 1105.7228"
           id="path647" />
        <path
           style="fill:none;stroke:#000000;stroke-width:1.07675"
           d="M 982.07518,593.08472 V 499.67328"
           id="path649" />
        <path
           style="fill:none;stroke:#000000;stroke-width:1.07675"
           d="m 1105.7228,499.67328 v 93.41144"
           id="path651" />
        <path
           style="fill:none;stroke:#000000;stroke-width:1.07675"
           d="M 1105.7228,593.08472 H 982.07518"
           id="path653" />
      </g>
    </g>
    <path
       d="m 33.494046,529.27907 a 9.864567,9.864567 0 0 0 -19.72913,0 9.864567,9.864567 0 0 0 19.72913,0 z"
       style="fill:none;stroke:#000000"
       id="path76" />
    <path
       d="m 33.494046,340.3027 a 9.864567,9.864567 0 0 0 -19.72913,0 9.864567,9.864567 0 0 0 19.72913,0 z"
       style="fill:none;stroke:#000000"
       id="path78" />
    <path
       d="m 827.19487,39.074348 a 9.8646,9.8646 0 0 0 -19.7292,0 9.8646,9.8646 0 0 0 19.7292,0 z"
       style="fill:none;stroke:#000000"
       id="path80" />
    <path
       d="m 638.21847,39.074348 a 9.864567,9.864567 0 0 0 -19.7291,0 9.864567,9.864567 0 0 0 19.7291,0 z"
       style="fill:none;stroke:#000000"
       id="path82" />
    <path
       d="m 449.24207,39.074348 a 9.864567,9.864567 0 0 0 -19.7291,0 9.864567,9.864567 0 0 0 19.7291,0 z"
       style="fill:none;stroke:#000000"
       id="path84" />
    <path
       d="m 260.26567,39.074348 a 9.864567,9.864567 0 0 0 -19.7291,0 9.864567,9.864567 0 0 0 19.7291,0 z"
       style="fill:none;stroke:#000000"
       id="path86" />
    <path
       d="m 33.494046,151.32632 a 9.864567,9.864567 0 0 0 -19.72913,0 9.864567,9.864567 0 0 0 19.72913,0 z"
       style="fill:none;stroke:#000000"
       id="path88" />
    <path
       d="m 1027.8438,247.43221 a 56.040258,56.040258 0 0 0 -112.08051,0 56.040258,56.040258 0 0 0 112.08051,0 z"
       style="fill:none;stroke:#000000;stroke-width:1.34794"
       id="path74-3" />
    <path
       d="m 723.24678,249.85462 a 56.040258,56.040258 0 0 0 -112.08051,0 56.040258,56.040258 0 0 0 112.08051,0 z"
       style="fill:none;stroke:#000000;stroke-width:1.34794"
       id="path74-3-4" />
    <text
       xml:space="preserve"
       style="font-size:53.76px;line-height:1.25;font-family:Rubik;-inkscape-font-specification:Rubik;letter-spacing:0px;word-spacing:0px"
       x="927.1217"
       y="-319.59152"
       id="text996"><tspan
         sodipodi:role="line"
         id="tspan994"
         x="927.1217"
         y="-319.59152" /></text>
  </g>
</svg>
