999
"DXF R12 Output" (www.mydxf.blogspot.com)
 0 
SECTION
 2 
HEADER
 9 
$ACADVER
 1 
AC1009
 9 
$EXTMIN
 10 
 0 
 20 
 0 
 9 
$EXTMAX
 10 
 8.5 
 20 
 11 
 0 
ENDSEC
 0 
SECTION
 2 
ENTITIES
0
LINE
8
ProjItem003
10
-3.748010
20
279.061000
11
436.252000
21
279.061000
0
LINE
8
ProjItem003
10
-3.748010
20
-0.338155
11
-3.748010
21
279.061000
0
LINE
8
ProjItem003
10
436.252000
20
279.061000
11
436.252000
21
-0.338155
0
LINE
8
ProjItem003
10
436.252000
20
-0.338155
11
-3.748010
21
-0.338155
0
LINE
8
ProjItem003
10
428.861000
20
39.361900
11
428.654424
21
40.376193
0
LINE
8
ProjItem003
10
428.654424
20
40.376193
11
428.094744
21
41.204152
0
LINE
8
ProjItem003
10
428.094744
20
41.204152
11
427.265690
21
41.762211
0
LINE
8
ProjItem003
10
427.265690
20
41.762211
11
426.250995
21
41.966801
0
LINE
8
ProjItem003
10
426.250995
20
41.966801
11
425.236300
21
41.762211
0
LINE
8
ProjItem003
10
425.236300
20
41.762211
11
424.407246
21
41.204152
0
LINE
8
ProjItem003
10
424.407246
20
41.204152
11
423.847566
21
40.376193
0
LINE
8
ProjItem003
10
423.847566
20
40.376193
11
423.640990
21
39.361900
0
LINE
8
ProjItem003
10
423.640990
20
39.361900
11
423.847566
21
38.347607
0
LINE
8
ProjItem003
10
423.847566
20
38.347607
11
424.407246
21
37.519648
0
LINE
8
ProjItem003
10
424.407246
20
37.519648
11
425.236300
21
36.961589
0
LINE
8
ProjItem003
10
425.236300
20
36.961589
11
426.250995
21
36.756999
0
LINE
8
ProjItem003
10
426.250995
20
36.756999
11
427.265690
21
36.961589
0
LINE
8
ProjItem003
10
427.265690
20
36.961589
11
428.094744
21
37.519648
0
LINE
8
ProjItem003
10
428.094744
20
37.519648
11
428.654424
21
38.347607
0
LINE
8
ProjItem003
10
428.654424
20
38.347607
11
428.861000
21
39.361900
0
LINE
8
ProjItem003
10
428.861000
20
39.361900
11
428.861000
21
39.361900
0
LINE
8
ProjItem003
10
368.862000
20
9.661920
11
368.654818
21
10.675529
0
LINE
8
ProjItem003
10
368.654818
20
10.675529
11
368.095003
21
11.502796
0
LINE
8
ProjItem003
10
368.095003
20
11.502796
11
367.266188
21
12.060320
0
LINE
8
ProjItem003
10
367.266188
20
12.060320
11
366.252010
21
12.264695
0
LINE
8
ProjItem003
10
366.252010
20
12.264695
11
365.237832
21
12.060320
0
LINE
8
ProjItem003
10
365.237832
20
12.060320
11
364.409017
21
11.502796
0
LINE
8
ProjItem003
10
364.409017
20
11.502796
11
363.849202
21
10.675529
0
LINE
8
ProjItem003
10
363.849202
20
10.675529
11
363.642020
21
9.661920
0
LINE
8
ProjItem003
10
363.642020
20
9.661920
11
363.849202
21
8.648311
0
LINE
8
ProjItem003
10
363.849202
20
8.648311
11
364.409017
21
7.821044
0
LINE
8
ProjItem003
10
364.409017
20
7.821044
11
365.237832
21
7.263520
0
LINE
8
ProjItem003
10
365.237832
20
7.263520
11
366.252010
21
7.059145
0
LINE
8
ProjItem003
10
366.252010
20
7.059145
11
367.266188
21
7.263520
0
LINE
8
ProjItem003
10
367.266188
20
7.263520
11
368.095003
21
7.821044
0
LINE
8
ProjItem003
10
368.095003
20
7.821044
11
368.654818
21
8.648311
0
LINE
8
ProjItem003
10
368.654818
20
8.648311
11
368.862000
21
9.661920
0
LINE
8
ProjItem003
10
368.862000
20
9.661920
11
368.862000
21
9.661920
0
LINE
8
ProjItem003
10
318.862000
20
9.661920
11
318.654818
21
10.675529
0
LINE
8
ProjItem003
10
318.654818
20
10.675529
11
318.095003
21
11.502796
0
LINE
8
ProjItem003
10
318.095003
20
11.502796
11
317.266188
21
12.060320
0
LINE
8
ProjItem003
10
317.266188
20
12.060320
11
316.252010
21
12.264695
0
LINE
8
ProjItem003
10
316.252010
20
12.264695
11
315.237832
21
12.060320
0
LINE
8
ProjItem003
10
315.237832
20
12.060320
11
314.409017
21
11.502796
0
LINE
8
ProjItem003
10
314.409017
20
11.502796
11
313.849202
21
10.675529
0
LINE
8
ProjItem003
10
313.849202
20
10.675529
11
313.642020
21
9.661920
0
LINE
8
ProjItem003
10
313.642020
20
9.661920
11
313.849202
21
8.648311
0
LINE
8
ProjItem003
10
313.849202
20
8.648311
11
314.409017
21
7.821044
0
LINE
8
ProjItem003
10
314.409017
20
7.821044
11
315.237832
21
7.263520
0
LINE
8
ProjItem003
10
315.237832
20
7.263520
11
316.252010
21
7.059145
0
LINE
8
ProjItem003
10
316.252010
20
7.059145
11
317.266188
21
7.263520
0
LINE
8
ProjItem003
10
317.266188
20
7.263520
11
318.095003
21
7.821044
0
LINE
8
ProjItem003
10
318.095003
20
7.821044
11
318.654818
21
8.648311
0
LINE
8
ProjItem003
10
318.654818
20
8.648311
11
318.862000
21
9.661920
0
LINE
8
ProjItem003
10
318.862000
20
9.661920
11
318.862000
21
9.661920
0
LINE
8
ProjItem003
10
268.862000
20
9.661920
11
268.655425
21
10.676209
0
LINE
8
ProjItem003
10
268.655425
20
10.676209
11
268.095747
21
11.504165
0
LINE
8
ProjItem003
10
268.095747
20
11.504165
11
267.266696
21
12.062222
0
LINE
8
ProjItem003
10
267.266696
20
12.062222
11
266.252005
21
12.266811
0
LINE
8
ProjItem003
10
266.252005
20
12.266811
11
265.237314
21
12.062222
0
LINE
8
ProjItem003
10
265.237314
20
12.062222
11
264.408263
21
11.504165
0
LINE
8
ProjItem003
10
264.408263
20
11.504165
11
263.848585
21
10.676209
0
LINE
8
ProjItem003
10
263.848585
20
10.676209
11
263.642010
21
9.661920
0
LINE
8
ProjItem003
10
263.642010
20
9.661920
11
263.848585
21
8.647631
0
LINE
8
ProjItem003
10
263.848585
20
8.647631
11
264.408263
21
7.819675
0
LINE
8
ProjItem003
10
264.408263
20
7.819675
11
265.237314
21
7.261618
0
LINE
8
ProjItem003
10
265.237314
20
7.261618
11
266.252005
21
7.057029
0
LINE
8
ProjItem003
10
266.252005
20
7.057029
11
267.266696
21
7.261618
0
LINE
8
ProjItem003
10
267.266696
20
7.261618
11
268.095747
21
7.819675
0
LINE
8
ProjItem003
10
268.095747
20
7.819675
11
268.655425
21
8.647631
0
LINE
8
ProjItem003
10
268.655425
20
8.647631
11
268.862000
21
9.661920
0
LINE
8
ProjItem003
10
268.862000
20
9.661920
11
268.862000
21
9.661920
0
LINE
8
ProjItem003
10
428.861000
20
89.361800
11
428.654424
21
90.376093
0
LINE
8
ProjItem003
10
428.654424
20
90.376093
11
428.094744
21
91.204052
0
LINE
8
ProjItem003
10
428.094744
20
91.204052
11
427.265690
21
91.762111
0
LINE
8
ProjItem003
10
427.265690
20
91.762111
11
426.250995
21
91.966701
0
LINE
8
ProjItem003
10
426.250995
20
91.966701
11
425.236300
21
91.762111
0
LINE
8
ProjItem003
10
425.236300
20
91.762111
11
424.407246
21
91.204052
0
LINE
8
ProjItem003
10
424.407246
20
91.204052
11
423.847566
21
90.376093
0
LINE
8
ProjItem003
10
423.847566
20
90.376093
11
423.640990
21
89.361800
0
LINE
8
ProjItem003
10
423.640990
20
89.361800
11
423.847566
21
88.347507
0
LINE
8
ProjItem003
10
423.847566
20
88.347507
11
424.407246
21
87.519548
0
LINE
8
ProjItem003
10
424.407246
20
87.519548
11
425.236300
21
86.961489
0
LINE
8
ProjItem003
10
425.236300
20
86.961489
11
426.250995
21
86.756899
0
LINE
8
ProjItem003
10
426.250995
20
86.756899
11
427.265690
21
86.961489
0
LINE
8
ProjItem003
10
427.265690
20
86.961489
11
428.094744
21
87.519548
0
LINE
8
ProjItem003
10
428.094744
20
87.519548
11
428.654424
21
88.347507
0
LINE
8
ProjItem003
10
428.654424
20
88.347507
11
428.861000
21
89.361800
0
LINE
8
ProjItem003
10
428.861000
20
89.361800
11
428.861000
21
89.361800
0
LINE
8
ProjItem003
10
218.862000
20
9.661920
11
218.655424
21
10.676213
0
LINE
8
ProjItem003
10
218.655424
20
10.676213
11
218.095744
21
11.504172
0
LINE
8
ProjItem003
10
218.095744
20
11.504172
11
217.266690
21
12.062231
0
LINE
8
ProjItem003
10
217.266690
20
12.062231
11
216.251995
21
12.266821
0
LINE
8
ProjItem003
10
216.251995
20
12.266821
11
215.237300
21
12.062231
0
LINE
8
ProjItem003
10
215.237300
20
12.062231
11
214.408246
21
11.504172
0
LINE
8
ProjItem003
10
214.408246
20
11.504172
11
213.848566
21
10.676213
0
LINE
8
ProjItem003
10
213.848566
20
10.676213
11
213.641990
21
9.661920
0
LINE
8
ProjItem003
10
213.641990
20
9.661920
11
213.848566
21
8.647627
0
LINE
8
ProjItem003
10
213.848566
20
8.647627
11
214.408246
21
7.819668
0
LINE
8
ProjItem003
10
214.408246
20
7.819668
11
215.237300
21
7.261609
0
LINE
8
ProjItem003
10
215.237300
20
7.261609
11
216.251995
21
7.057019
0
LINE
8
ProjItem003
10
216.251995
20
7.057019
11
217.266690
21
7.261609
0
LINE
8
ProjItem003
10
217.266690
20
7.261609
11
218.095744
21
7.819668
0
LINE
8
ProjItem003
10
218.095744
20
7.819668
11
218.655424
21
8.647627
0
LINE
8
ProjItem003
10
218.655424
20
8.647627
11
218.862000
21
9.661920
0
LINE
8
ProjItem003
10
218.862000
20
9.661920
11
218.862000
21
9.661920
0
LINE
8
ProjItem003
10
168.862000
20
9.661920
11
168.654818
21
10.675529
0
LINE
8
ProjItem003
10
168.654818
20
10.675529
11
168.095003
21
11.502796
0
LINE
8
ProjItem003
10
168.095003
20
11.502796
11
167.266188
21
12.060320
0
LINE
8
ProjItem003
10
167.266188
20
12.060320
11
166.252010
21
12.264695
0
LINE
8
ProjItem003
10
166.252010
20
12.264695
11
165.237832
21
12.060320
0
LINE
8
ProjItem003
10
165.237832
20
12.060320
11
164.409017
21
11.502796
0
LINE
8
ProjItem003
10
164.409017
20
11.502796
11
163.849202
21
10.675529
0
LINE
8
ProjItem003
10
163.849202
20
10.675529
11
163.642020
21
9.661920
0
LINE
8
ProjItem003
10
163.642020
20
9.661920
11
163.849202
21
8.648311
0
LINE
8
ProjItem003
10
163.849202
20
8.648311
11
164.409017
21
7.821044
0
LINE
8
ProjItem003
10
164.409017
20
7.821044
11
165.237832
21
7.263520
0
LINE
8
ProjItem003
10
165.237832
20
7.263520
11
166.252010
21
7.059145
0
LINE
8
ProjItem003
10
166.252010
20
7.059145
11
167.266188
21
7.263520
0
LINE
8
ProjItem003
10
167.266188
20
7.263520
11
168.095003
21
7.821044
0
LINE
8
ProjItem003
10
168.095003
20
7.821044
11
168.654818
21
8.648311
0
LINE
8
ProjItem003
10
168.654818
20
8.648311
11
168.862000
21
9.661920
0
LINE
8
ProjItem003
10
168.862000
20
9.661920
11
168.862000
21
9.661920
0
LINE
8
ProjItem003
10
118.862000
20
9.661920
11
118.654818
21
10.675529
0
LINE
8
ProjItem003
10
118.654818
20
10.675529
11
118.095003
21
11.502796
0
LINE
8
ProjItem003
10
118.095003
20
11.502796
11
117.266188
21
12.060320
0
LINE
8
ProjItem003
10
117.266188
20
12.060320
11
116.252010
21
12.264695
0
LINE
8
ProjItem003
10
116.252010
20
12.264695
11
115.237832
21
12.060320
0
LINE
8
ProjItem003
10
115.237832
20
12.060320
11
114.409017
21
11.502796
0
LINE
8
ProjItem003
10
114.409017
20
11.502796
11
113.849202
21
10.675529
0
LINE
8
ProjItem003
10
113.849202
20
10.675529
11
113.642020
21
9.661920
0
LINE
8
ProjItem003
10
113.642020
20
9.661920
11
113.849202
21
8.648311
0
LINE
8
ProjItem003
10
113.849202
20
8.648311
11
114.409017
21
7.821044
0
LINE
8
ProjItem003
10
114.409017
20
7.821044
11
115.237832
21
7.263520
0
LINE
8
ProjItem003
10
115.237832
20
7.263520
11
116.252010
21
7.059145
0
LINE
8
ProjItem003
10
116.252010
20
7.059145
11
117.266188
21
7.263520
0
LINE
8
ProjItem003
10
117.266188
20
7.263520
11
118.095003
21
7.821044
0
LINE
8
ProjItem003
10
118.095003
20
7.821044
11
118.654818
21
8.648311
0
LINE
8
ProjItem003
10
118.654818
20
8.648311
11
118.862000
21
9.661920
0
LINE
8
ProjItem003
10
118.862000
20
9.661920
11
118.862000
21
9.661920
0
LINE
8
ProjItem003
10
234.752000
20
49.661900
11
234.589309
21
52.112402
0
LINE
8
ProjItem003
10
234.589309
20
52.112402
11
234.111614
21
54.488877
0
LINE
8
ProjItem003
10
234.111614
20
54.488877
11
233.334479
21
56.764362
0
LINE
8
ProjItem003
10
233.334479
20
56.764362
11
232.273470
21
58.911900
0
LINE
8
ProjItem003
10
232.273470
20
58.911900
11
230.944152
21
60.904529
0
LINE
8
ProjItem003
10
230.944152
20
60.904529
11
229.362091
21
62.715291
0
LINE
8
ProjItem003
10
229.362091
20
62.715291
11
227.542852
21
64.317224
0
LINE
8
ProjItem003
10
227.542852
20
64.317224
11
225.502000
21
65.683370
0
LINE
8
ProjItem003
10
225.502000
20
65.683370
11
223.298457
21
66.767727
0
LINE
8
ProjItem003
10
223.298457
20
66.767727
11
221.001523
21
67.542267
0
LINE
8
ProjItem003
10
221.001523
20
67.542267
11
218.642327
21
68.006992
0
LINE
8
ProjItem003
10
218.642327
20
68.006992
11
216.252000
21
68.161900
0
LINE
8
ProjItem003
10
216.252000
20
68.161900
11
213.861673
21
68.006992
0
LINE
8
ProjItem003
10
213.861673
20
68.006992
11
211.502477
21
67.542267
0
LINE
8
ProjItem003
10
211.502477
20
67.542267
11
209.205543
21
66.767727
0
LINE
8
ProjItem003
10
209.205543
20
66.767727
11
207.002000
21
65.683370
0
LINE
8
ProjItem003
10
207.002000
20
65.683370
11
204.961148
21
64.317224
0
LINE
8
ProjItem003
10
204.961148
20
64.317224
11
203.141909
21
62.715291
0
LINE
8
ProjItem003
10
203.141909
20
62.715291
11
201.559848
21
60.904529
0
LINE
8
ProjItem003
10
201.559848
20
60.904529
11
200.230530
21
58.911900
0
LINE
8
ProjItem003
10
200.230530
20
58.911900
11
199.169521
21
56.764362
0
LINE
8
ProjItem003
10
199.169521
20
56.764362
11
198.392386
21
54.488877
0
LINE
8
ProjItem003
10
198.392386
20
54.488877
11
197.914691
21
52.112402
0
LINE
8
ProjItem003
10
197.914691
20
52.112402
11
197.752000
21
49.661900
0
LINE
8
ProjItem003
10
197.752000
20
49.661900
11
197.914691
21
47.211398
0
LINE
8
ProjItem003
10
197.914691
20
47.211398
11
198.392386
21
44.834923
0
LINE
8
ProjItem003
10
198.392386
20
44.834923
11
199.169521
21
42.559438
0
LINE
8
ProjItem003
10
199.169521
20
42.559438
11
200.230530
21
40.411900
0
LINE
8
ProjItem003
10
200.230530
20
40.411900
11
201.559848
21
38.419271
0
LINE
8
ProjItem003
10
201.559848
20
38.419271
11
203.141909
21
36.608509
0
LINE
8
ProjItem003
10
203.141909
20
36.608509
11
204.961148
21
35.006576
0
LINE
8
ProjItem003
10
204.961148
20
35.006576
11
207.002000
21
33.640430
0
LINE
8
ProjItem003
10
207.002000
20
33.640430
11
209.205543
21
32.556073
0
LINE
8
ProjItem003
10
209.205543
20
32.556073
11
211.502477
21
31.781533
0
LINE
8
ProjItem003
10
211.502477
20
31.781533
11
213.861673
21
31.316808
0
LINE
8
ProjItem003
10
213.861673
20
31.316808
11
216.252000
21
31.161900
0
LINE
8
ProjItem003
10
216.252000
20
31.161900
11
218.642327
21
31.316808
0
LINE
8
ProjItem003
10
218.642327
20
31.316808
11
221.001523
21
31.781533
0
LINE
8
ProjItem003
10
221.001523
20
31.781533
11
223.298457
21
32.556073
0
LINE
8
ProjItem003
10
223.298457
20
32.556073
11
225.502000
21
33.640430
0
LINE
8
ProjItem003
10
225.502000
20
33.640430
11
227.542852
21
35.006576
0
LINE
8
ProjItem003
10
227.542852
20
35.006576
11
229.362091
21
36.608509
0
LINE
8
ProjItem003
10
229.362091
20
36.608509
11
230.944152
21
38.419271
0
LINE
8
ProjItem003
10
230.944152
20
38.419271
11
232.273470
21
40.411900
0
LINE
8
ProjItem003
10
232.273470
20
40.411900
11
233.334479
21
42.559438
0
LINE
8
ProjItem003
10
233.334479
20
42.559438
11
234.111614
21
44.834923
0
LINE
8
ProjItem003
10
234.111614
20
44.834923
11
234.589309
21
47.211398
0
LINE
8
ProjItem003
10
234.589309
20
47.211398
11
234.752000
21
49.661900
0
LINE
8
ProjItem003
10
234.752000
20
49.661900
11
234.752000
21
49.661900
0
LINE
8
ProjItem003
10
68.861900
20
9.661920
11
68.654718
21
10.675529
0
LINE
8
ProjItem003
10
68.654718
20
10.675529
11
68.094903
21
11.502796
0
LINE
8
ProjItem003
10
68.094903
20
11.502796
11
67.266088
21
12.060320
0
LINE
8
ProjItem003
10
67.266088
20
12.060320
11
66.251910
21
12.264695
0
LINE
8
ProjItem003
10
66.251910
20
12.264695
11
65.237732
21
12.060320
0
LINE
8
ProjItem003
10
65.237732
20
12.060320
11
64.408917
21
11.502796
0
LINE
8
ProjItem003
10
64.408917
20
11.502796
11
63.849102
21
10.675529
0
LINE
8
ProjItem003
10
63.849102
20
10.675529
11
63.641920
21
9.661920
0
LINE
8
ProjItem003
10
63.641920
20
9.661920
11
63.849102
21
8.648311
0
LINE
8
ProjItem003
10
63.849102
20
8.648311
11
64.408917
21
7.821044
0
LINE
8
ProjItem003
10
64.408917
20
7.821044
11
65.237732
21
7.263520
0
LINE
8
ProjItem003
10
65.237732
20
7.263520
11
66.251910
21
7.059145
0
LINE
8
ProjItem003
10
66.251910
20
7.059145
11
67.266088
21
7.263520
0
LINE
8
ProjItem003
10
67.266088
20
7.263520
11
68.094903
21
7.821044
0
LINE
8
ProjItem003
10
68.094903
20
7.821044
11
68.654718
21
8.648311
0
LINE
8
ProjItem003
10
68.654718
20
8.648311
11
68.861900
21
9.661920
0
LINE
8
ProjItem003
10
68.861900
20
9.661920
11
68.861900
21
9.661920
0
LINE
8
ProjItem003
10
8.861960
20
39.361900
11
8.655385
21
40.376189
0
LINE
8
ProjItem003
10
8.655385
20
40.376189
11
8.095707
21
41.204145
0
LINE
8
ProjItem003
10
8.095707
20
41.204145
11
7.266656
21
41.762202
0
LINE
8
ProjItem003
10
7.266656
20
41.762202
11
6.251965
21
41.966791
0
LINE
8
ProjItem003
10
6.251965
20
41.966791
11
5.237274
21
41.762202
0
LINE
8
ProjItem003
10
5.237274
20
41.762202
11
4.408223
21
41.204145
0
LINE
8
ProjItem003
10
4.408223
20
41.204145
11
3.848545
21
40.376189
0
LINE
8
ProjItem003
10
3.848545
20
40.376189
11
3.641970
21
39.361900
0
LINE
8
ProjItem003
10
3.641970
20
39.361900
11
3.848545
21
38.347611
0
LINE
8
ProjItem003
10
3.848545
20
38.347611
11
4.408223
21
37.519655
0
LINE
8
ProjItem003
10
4.408223
20
37.519655
11
5.237274
21
36.961598
0
LINE
8
ProjItem003
10
5.237274
20
36.961598
11
6.251965
21
36.757009
0
LINE
8
ProjItem003
10
6.251965
20
36.757009
11
7.266656
21
36.961598
0
LINE
8
ProjItem003
10
7.266656
20
36.961598
11
8.095707
21
37.519655
0
LINE
8
ProjItem003
10
8.095707
20
37.519655
11
8.655385
21
38.347611
0
LINE
8
ProjItem003
10
8.655385
20
38.347611
11
8.861960
21
39.361900
0
LINE
8
ProjItem003
10
8.861960
20
39.361900
11
8.861960
21
39.361900
0
LINE
8
ProjItem003
10
229.252000
20
99.661800
11
229.137677
21
101.383775
0
LINE
8
ProjItem003
10
229.137677
20
101.383775
11
228.801999
21
103.053729
0
LINE
8
ProjItem003
10
228.801999
20
103.053729
11
228.255904
21
104.652720
0
LINE
8
ProjItem003
10
228.255904
20
104.652720
11
227.510330
21
106.161800
0
LINE
8
ProjItem003
10
227.510330
20
106.161800
11
226.576215
21
107.562026
0
LINE
8
ProjItem003
10
226.576215
20
107.562026
11
225.464497
21
108.834453
0
LINE
8
ProjItem003
10
225.464497
20
108.834453
11
224.186112
21
109.960136
0
LINE
8
ProjItem003
10
224.186112
20
109.960136
11
222.752000
21
110.920130
0
LINE
8
ProjItem003
10
222.752000
20
110.920130
11
221.203565
21
111.682111
0
LINE
8
ProjItem003
10
221.203565
20
111.682111
11
219.589502
21
112.226383
0
LINE
8
ProjItem003
10
219.589502
20
112.226383
11
217.931689
21
112.552946
0
LINE
8
ProjItem003
10
217.931689
20
112.552946
11
216.252000
21
112.661800
0
LINE
8
ProjItem003
10
216.252000
20
112.661800
11
214.572311
21
112.552946
0
LINE
8
ProjItem003
10
214.572311
20
112.552946
11
212.914498
21
112.226383
0
LINE
8
ProjItem003
10
212.914498
20
112.226383
11
211.300435
21
111.682111
0
LINE
8
ProjItem003
10
211.300435
20
111.682111
11
209.752000
21
110.920130
0
LINE
8
ProjItem003
10
209.752000
20
110.920130
11
208.317888
21
109.960136
0
LINE
8
ProjItem003
10
208.317888
20
109.960136
11
207.039503
21
108.834453
0
LINE
8
ProjItem003
10
207.039503
20
108.834453
11
205.927785
21
107.562026
0
LINE
8
ProjItem003
10
205.927785
20
107.562026
11
204.993670
21
106.161800
0
LINE
8
ProjItem003
10
204.993670
20
106.161800
11
204.248096
21
104.652720
0
LINE
8
ProjItem003
10
204.248096
20
104.652720
11
203.702001
21
103.053729
0
LINE
8
ProjItem003
10
203.702001
20
103.053729
11
203.366323
21
101.383775
0
LINE
8
ProjItem003
10
203.366323
20
101.383775
11
203.252000
21
99.661800
0
LINE
8
ProjItem003
10
203.252000
20
99.661800
11
203.516114
21
97.041847
0
LINE
8
ProjItem003
10
203.516114
20
97.041847
11
204.273605
21
94.601614
0
LINE
8
ProjItem003
10
204.273605
20
94.601614
11
205.472196
21
92.393377
0
LINE
8
ProjItem003
10
205.472196
20
92.393377
11
207.059612
21
90.469412
0
LINE
8
ProjItem003
10
207.059612
20
90.469412
11
208.983577
21
88.881996
0
LINE
8
ProjItem003
10
208.983577
20
88.881996
11
211.191813
21
87.683405
0
LINE
8
ProjItem003
10
211.191813
20
87.683405
11
213.632047
21
86.925914
0
LINE
8
ProjItem003
10
213.632047
20
86.925914
11
216.252000
21
86.661801
0
LINE
8
ProjItem003
10
216.252000
20
86.661801
11
218.871953
21
86.925914
0
LINE
8
ProjItem003
10
218.871953
20
86.925914
11
221.312187
21
87.683405
0
LINE
8
ProjItem003
10
221.312187
20
87.683405
11
223.520423
21
88.881996
0
LINE
8
ProjItem003
10
223.520423
20
88.881996
11
225.444388
21
90.469412
0
LINE
8
ProjItem003
10
225.444388
20
90.469412
11
227.031804
21
92.393377
0
LINE
8
ProjItem003
10
227.031804
20
92.393377
11
228.230395
21
94.601614
0
LINE
8
ProjItem003
10
228.230395
20
94.601614
11
228.987886
21
97.041847
0
LINE
8
ProjItem003
10
228.987886
20
97.041847
11
229.252000
21
99.661800
0
LINE
8
ProjItem003
10
229.252000
20
99.661800
11
229.252000
21
99.661800
0
LINE
8
ProjItem003
10
8.861960
20
89.361800
11
8.655385
21
90.376089
0
LINE
8
ProjItem003
10
8.655385
20
90.376089
11
8.095707
21
91.204045
0
LINE
8
ProjItem003
10
8.095707
20
91.204045
11
7.266656
21
91.762102
0
LINE
8
ProjItem003
10
7.266656
20
91.762102
11
6.251965
21
91.966691
0
LINE
8
ProjItem003
10
6.251965
20
91.966691
11
5.237274
21
91.762102
0
LINE
8
ProjItem003
10
5.237274
20
91.762102
11
4.408223
21
91.204045
0
LINE
8
ProjItem003
10
4.408223
20
91.204045
11
3.848545
21
90.376089
0
LINE
8
ProjItem003
10
3.848545
20
90.376089
11
3.641970
21
89.361800
0
LINE
8
ProjItem003
10
3.641970
20
89.361800
11
3.848545
21
88.347511
0
LINE
8
ProjItem003
10
3.848545
20
88.347511
11
4.408223
21
87.519555
0
LINE
8
ProjItem003
10
4.408223
20
87.519555
11
5.237274
21
86.961498
0
LINE
8
ProjItem003
10
5.237274
20
86.961498
11
6.251965
21
86.756909
0
LINE
8
ProjItem003
10
6.251965
20
86.756909
11
7.266656
21
86.961498
0
LINE
8
ProjItem003
10
7.266656
20
86.961498
11
8.095707
21
87.519555
0
LINE
8
ProjItem003
10
8.095707
20
87.519555
11
8.655385
21
88.347511
0
LINE
8
ProjItem003
10
8.655385
20
88.347511
11
8.861960
21
89.361800
0
LINE
8
ProjItem003
10
8.861960
20
89.361800
11
8.861960
21
89.361800
0
LINE
8
ProjItem003
10
428.861000
20
139.362000
11
428.654424
21
140.376293
0
LINE
8
ProjItem003
10
428.654424
20
140.376293
11
428.094744
21
141.204252
0
LINE
8
ProjItem003
10
428.094744
20
141.204252
11
427.265690
21
141.762311
0
LINE
8
ProjItem003
10
427.265690
20
141.762311
11
426.250995
21
141.966901
0
LINE
8
ProjItem003
10
426.250995
20
141.966901
11
425.236300
21
141.762311
0
LINE
8
ProjItem003
10
425.236300
20
141.762311
11
424.407246
21
141.204252
0
LINE
8
ProjItem003
10
424.407246
20
141.204252
11
423.847566
21
140.376293
0
LINE
8
ProjItem003
10
423.847566
20
140.376293
11
423.640990
21
139.362000
0
LINE
8
ProjItem003
10
423.640990
20
139.362000
11
423.847566
21
138.347707
0
LINE
8
ProjItem003
10
423.847566
20
138.347707
11
424.407246
21
137.519748
0
LINE
8
ProjItem003
10
424.407246
20
137.519748
11
425.236300
21
136.961689
0
LINE
8
ProjItem003
10
425.236300
20
136.961689
11
426.250995
21
136.757099
0
LINE
8
ProjItem003
10
426.250995
20
136.757099
11
427.265690
21
136.961689
0
LINE
8
ProjItem003
10
427.265690
20
136.961689
11
428.094744
21
137.519748
0
LINE
8
ProjItem003
10
428.094744
20
137.519748
11
428.654424
21
138.347707
0
LINE
8
ProjItem003
10
428.654424
20
138.347707
11
428.861000
21
139.362000
0
LINE
8
ProjItem003
10
428.861000
20
139.362000
11
428.861000
21
139.362000
0
LINE
8
ProjItem003
10
428.861000
20
189.362000
11
428.654424
21
190.376293
0
LINE
8
ProjItem003
10
428.654424
20
190.376293
11
428.094744
21
191.204252
0
LINE
8
ProjItem003
10
428.094744
20
191.204252
11
427.265690
21
191.762311
0
LINE
8
ProjItem003
10
427.265690
20
191.762311
11
426.250995
21
191.966901
0
LINE
8
ProjItem003
10
426.250995
20
191.966901
11
425.236300
21
191.762311
0
LINE
8
ProjItem003
10
425.236300
20
191.762311
11
424.407246
21
191.204252
0
LINE
8
ProjItem003
10
424.407246
20
191.204252
11
423.847566
21
190.376293
0
LINE
8
ProjItem003
10
423.847566
20
190.376293
11
423.640990
21
189.362000
0
LINE
8
ProjItem003
10
423.640990
20
189.362000
11
423.847566
21
188.347707
0
LINE
8
ProjItem003
10
423.847566
20
188.347707
11
424.407246
21
187.519748
0
LINE
8
ProjItem003
10
424.407246
20
187.519748
11
425.236300
21
186.961689
0
LINE
8
ProjItem003
10
425.236300
20
186.961689
11
426.250995
21
186.757099
0
LINE
8
ProjItem003
10
426.250995
20
186.757099
11
427.265690
21
186.961689
0
LINE
8
ProjItem003
10
427.265690
20
186.961689
11
428.094744
21
187.519748
0
LINE
8
ProjItem003
10
428.094744
20
187.519748
11
428.654424
21
188.347707
0
LINE
8
ProjItem003
10
428.654424
20
188.347707
11
428.861000
21
189.362000
0
LINE
8
ProjItem003
10
428.861000
20
189.362000
11
428.861000
21
189.362000
0
LINE
8
ProjItem003
10
365.252000
20
39.555500
11
365.252000
21
71.255400
0
LINE
8
ProjItem003
10
365.252000
20
71.255400
11
387.252000
21
71.255400
0
LINE
8
ProjItem003
10
387.252000
20
71.255400
11
387.252000
21
39.555500
0
LINE
8
ProjItem003
10
387.252000
20
39.555500
11
365.252000
21
39.555500
0
LINE
8
ProjItem003
10
428.861000
20
239.362000
11
428.654424
21
240.376293
0
LINE
8
ProjItem003
10
428.654424
20
240.376293
11
428.094744
21
241.204252
0
LINE
8
ProjItem003
10
428.094744
20
241.204252
11
427.265690
21
241.762311
0
LINE
8
ProjItem003
10
427.265690
20
241.762311
11
426.250995
21
241.966901
0
LINE
8
ProjItem003
10
426.250995
20
241.966901
11
425.236300
21
241.762311
0
LINE
8
ProjItem003
10
425.236300
20
241.762311
11
424.407246
21
241.204252
0
LINE
8
ProjItem003
10
424.407246
20
241.204252
11
423.847566
21
240.376293
0
LINE
8
ProjItem003
10
423.847566
20
240.376293
11
423.640990
21
239.362000
0
LINE
8
ProjItem003
10
423.640990
20
239.362000
11
423.847566
21
238.347707
0
LINE
8
ProjItem003
10
423.847566
20
238.347707
11
424.407246
21
237.519748
0
LINE
8
ProjItem003
10
424.407246
20
237.519748
11
425.236300
21
236.961689
0
LINE
8
ProjItem003
10
425.236300
20
236.961689
11
426.250995
21
236.757099
0
LINE
8
ProjItem003
10
426.250995
20
236.757099
11
427.265690
21
236.961689
0
LINE
8
ProjItem003
10
427.265690
20
236.961689
11
428.094744
21
237.519748
0
LINE
8
ProjItem003
10
428.094744
20
237.519748
11
428.654424
21
238.347707
0
LINE
8
ProjItem003
10
428.654424
20
238.347707
11
428.861000
21
239.362000
0
LINE
8
ProjItem003
10
428.861000
20
239.362000
11
428.861000
21
239.362000
0
LINE
8
ProjItem003
10
368.862000
20
269.062000
11
368.654818
21
270.075609
0
LINE
8
ProjItem003
10
368.654818
20
270.075609
11
368.095003
21
270.902876
0
LINE
8
ProjItem003
10
368.095003
20
270.902876
11
367.266188
21
271.460400
0
LINE
8
ProjItem003
10
367.266188
20
271.460400
11
366.252010
21
271.664775
0
LINE
8
ProjItem003
10
366.252010
20
271.664775
11
365.237832
21
271.460400
0
LINE
8
ProjItem003
10
365.237832
20
271.460400
11
364.409017
21
270.902876
0
LINE
8
ProjItem003
10
364.409017
20
270.902876
11
363.849202
21
270.075609
0
LINE
8
ProjItem003
10
363.849202
20
270.075609
11
363.642020
21
269.062000
0
LINE
8
ProjItem003
10
363.642020
20
269.062000
11
363.849202
21
268.048391
0
LINE
8
ProjItem003
10
363.849202
20
268.048391
11
364.409017
21
267.221124
0
LINE
8
ProjItem003
10
364.409017
20
267.221124
11
365.237832
21
266.663600
0
LINE
8
ProjItem003
10
365.237832
20
266.663600
11
366.252010
21
266.459225
0
LINE
8
ProjItem003
10
366.252010
20
266.459225
11
367.266188
21
266.663600
0
LINE
8
ProjItem003
10
367.266188
20
266.663600
11
368.095003
21
267.221124
0
LINE
8
ProjItem003
10
368.095003
20
267.221124
11
368.654818
21
268.048391
0
LINE
8
ProjItem003
10
368.654818
20
268.048391
11
368.862000
21
269.062000
0
LINE
8
ProjItem003
10
368.862000
20
269.062000
11
368.862000
21
269.062000
0
LINE
8
ProjItem003
10
318.862000
20
269.062000
11
318.654818
21
270.075609
0
LINE
8
ProjItem003
10
318.654818
20
270.075609
11
318.095003
21
270.902876
0
LINE
8
ProjItem003
10
318.095003
20
270.902876
11
317.266188
21
271.460400
0
LINE
8
ProjItem003
10
317.266188
20
271.460400
11
316.252010
21
271.664775
0
LINE
8
ProjItem003
10
316.252010
20
271.664775
11
315.237832
21
271.460400
0
LINE
8
ProjItem003
10
315.237832
20
271.460400
11
314.409017
21
270.902876
0
LINE
8
ProjItem003
10
314.409017
20
270.902876
11
313.849202
21
270.075609
0
LINE
8
ProjItem003
10
313.849202
20
270.075609
11
313.642020
21
269.062000
0
LINE
8
ProjItem003
10
313.642020
20
269.062000
11
313.849202
21
268.048391
0
LINE
8
ProjItem003
10
313.849202
20
268.048391
11
314.409017
21
267.221124
0
LINE
8
ProjItem003
10
314.409017
20
267.221124
11
315.237832
21
266.663600
0
LINE
8
ProjItem003
10
315.237832
20
266.663600
11
316.252010
21
266.459225
0
LINE
8
ProjItem003
10
316.252010
20
266.459225
11
317.266188
21
266.663600
0
LINE
8
ProjItem003
10
317.266188
20
266.663600
11
318.095003
21
267.221124
0
LINE
8
ProjItem003
10
318.095003
20
267.221124
11
318.654818
21
268.048391
0
LINE
8
ProjItem003
10
318.654818
20
268.048391
11
318.862000
21
269.062000
0
LINE
8
ProjItem003
10
318.862000
20
269.062000
11
318.862000
21
269.062000
0
LINE
8
ProjItem003
10
268.862000
20
269.062000
11
268.655425
21
270.076289
0
LINE
8
ProjItem003
10
268.655425
20
270.076289
11
268.095747
21
270.904245
0
LINE
8
ProjItem003
10
268.095747
20
270.904245
11
267.266696
21
271.462302
0
LINE
8
ProjItem003
10
267.266696
20
271.462302
11
266.252005
21
271.666891
0
LINE
8
ProjItem003
10
266.252005
20
271.666891
11
265.237314
21
271.462302
0
LINE
8
ProjItem003
10
265.237314
20
271.462302
11
264.408263
21
270.904245
0
LINE
8
ProjItem003
10
264.408263
20
270.904245
11
263.848585
21
270.076289
0
LINE
8
ProjItem003
10
263.848585
20
270.076289
11
263.642010
21
269.062000
0
LINE
8
ProjItem003
10
263.642010
20
269.062000
11
263.848585
21
268.047711
0
LINE
8
ProjItem003
10
263.848585
20
268.047711
11
264.408263
21
267.219755
0
LINE
8
ProjItem003
10
264.408263
20
267.219755
11
265.237314
21
266.661698
0
LINE
8
ProjItem003
10
265.237314
20
266.661698
11
266.252005
21
266.457109
0
LINE
8
ProjItem003
10
266.252005
20
266.457109
11
267.266696
21
266.661698
0
LINE
8
ProjItem003
10
267.266696
20
266.661698
11
268.095747
21
267.219755
0
LINE
8
ProjItem003
10
268.095747
20
267.219755
11
268.655425
21
268.047711
0
LINE
8
ProjItem003
10
268.655425
20
268.047711
11
268.862000
21
269.062000
0
LINE
8
ProjItem003
10
268.862000
20
269.062000
11
268.862000
21
269.062000
0
LINE
8
ProjItem003
10
227.252000
20
149.662000
11
227.155265
21
151.119056
0
LINE
8
ProjItem003
10
227.155265
20
151.119056
11
226.871230
21
152.532094
0
LINE
8
ProjItem003
10
226.871230
20
152.532094
11
226.409150
21
153.885086
0
LINE
8
ProjItem003
10
226.409150
20
153.885086
11
225.778279
21
155.162000
0
LINE
8
ProjItem003
10
225.778279
20
155.162000
11
224.987874
21
156.346807
0
LINE
8
ProjItem003
10
224.987874
20
156.346807
11
224.047189
21
157.423476
0
LINE
8
ProjItem003
10
224.047189
20
157.423476
11
222.965480
21
158.375977
0
LINE
8
ProjItem003
10
222.965480
20
158.375977
11
221.752000
21
159.188279
0
LINE
8
ProjItem003
10
221.752000
20
159.188279
11
220.441785
21
159.833032
0
LINE
8
ProjItem003
10
220.441785
20
159.833032
11
219.076040
21
160.293570
0
LINE
8
ProjItem003
10
219.076040
20
160.293570
11
217.673275
21
160.569892
0
LINE
8
ProjItem003
10
217.673275
20
160.569892
11
216.252000
21
160.662000
0
LINE
8
ProjItem003
10
216.252000
20
160.662000
11
214.830725
21
160.569892
0
LINE
8
ProjItem003
10
214.830725
20
160.569892
11
213.427960
21
160.293570
0
LINE
8
ProjItem003
10
213.427960
20
160.293570
11
212.062215
21
159.833032
0
LINE
8
ProjItem003
10
212.062215
20
159.833032
11
210.752000
21
159.188279
0
LINE
8
ProjItem003
10
210.752000
20
159.188279
11
209.538520
21
158.375977
0
LINE
8
ProjItem003
10
209.538520
20
158.375977
11
208.456811
21
157.423476
0
LINE
8
ProjItem003
10
208.456811
20
157.423476
11
207.516126
21
156.346807
0
LINE
8
ProjItem003
10
207.516126
20
156.346807
11
206.725721
21
155.162000
0
LINE
8
ProjItem003
10
206.725721
20
155.162000
11
206.094850
21
153.885086
0
LINE
8
ProjItem003
10
206.094850
20
153.885086
11
205.632770
21
152.532094
0
LINE
8
ProjItem003
10
205.632770
20
152.532094
11
205.348735
21
151.119056
0
LINE
8
ProjItem003
10
205.348735
20
151.119056
11
205.252000
21
149.662000
0
LINE
8
ProjItem003
10
205.252000
20
149.662000
11
205.348735
21
148.204944
0
LINE
8
ProjItem003
10
205.348735
20
148.204944
11
205.632770
21
146.791906
0
LINE
8
ProjItem003
10
205.632770
20
146.791906
11
206.094850
21
145.438914
0
LINE
8
ProjItem003
10
206.094850
20
145.438914
11
206.725721
21
144.162000
0
LINE
8
ProjItem003
10
206.725721
20
144.162000
11
207.516126
21
142.977193
0
LINE
8
ProjItem003
10
207.516126
20
142.977193
11
208.456811
21
141.900524
0
LINE
8
ProjItem003
10
208.456811
20
141.900524
11
209.538520
21
140.948023
0
LINE
8
ProjItem003
10
209.538520
20
140.948023
11
210.752000
21
140.135721
0
LINE
8
ProjItem003
10
210.752000
20
140.135721
11
212.062215
21
139.490968
0
LINE
8
ProjItem003
10
212.062215
20
139.490968
11
213.427960
21
139.030430
0
LINE
8
ProjItem003
10
213.427960
20
139.030430
11
214.830725
21
138.754108
0
LINE
8
ProjItem003
10
214.830725
20
138.754108
11
216.252000
21
138.662000
0
LINE
8
ProjItem003
10
216.252000
20
138.662000
11
217.673275
21
138.754108
0
LINE
8
ProjItem003
10
217.673275
20
138.754108
11
219.076040
21
139.030430
0
LINE
8
ProjItem003
10
219.076040
20
139.030430
11
220.441785
21
139.490968
0
LINE
8
ProjItem003
10
220.441785
20
139.490968
11
221.752000
21
140.135721
0
LINE
8
ProjItem003
10
221.752000
20
140.135721
11
222.965480
21
140.948023
0
LINE
8
ProjItem003
10
222.965480
20
140.948023
11
224.047189
21
141.900524
0
LINE
8
ProjItem003
10
224.047189
20
141.900524
11
224.987874
21
142.977193
0
LINE
8
ProjItem003
10
224.987874
20
142.977193
11
225.778279
21
144.162000
0
LINE
8
ProjItem003
10
225.778279
20
144.162000
11
226.409150
21
145.438914
0
LINE
8
ProjItem003
10
226.409150
20
145.438914
11
226.871230
21
146.791906
0
LINE
8
ProjItem003
10
226.871230
20
146.791906
11
227.155265
21
148.204944
0
LINE
8
ProjItem003
10
227.155265
20
148.204944
11
227.252000
21
149.662000
0
LINE
8
ProjItem003
10
227.252000
20
149.662000
11
227.252000
21
149.662000
0
LINE
8
ProjItem003
10
286.429000
20
54.256700
11
287.100950
21
54.392119
0
LINE
8
ProjItem003
10
287.100950
20
54.392119
11
287.650075
21
54.761532
0
LINE
8
ProjItem003
10
287.650075
20
54.761532
11
288.020958
21
55.309668
0
LINE
8
ProjItem003
10
288.020958
20
55.309668
11
288.158180
21
55.981260
0
LINE
8
ProjItem003
10
288.158180
20
55.981260
11
288.020921
21
56.652852
0
LINE
8
ProjItem003
10
288.020921
20
56.652852
11
287.650042
21
57.200989
0
LINE
8
ProjItem003
10
287.650042
20
57.200989
11
287.100937
21
57.570401
0
LINE
8
ProjItem003
10
287.100937
20
57.570401
11
286.429000
21
57.705820
0
LINE
8
ProjItem003
10
286.429000
20
57.705820
11
284.940190
21
57.695819
0
LINE
8
ProjItem003
10
284.940190
20
57.695819
11
284.326927
21
57.560399
0
LINE
8
ProjItem003
10
284.326927
20
57.560399
11
283.771273
21
57.190987
0
LINE
8
ProjItem003
10
283.771273
20
57.190987
11
283.367775
21
56.642850
0
LINE
8
ProjItem003
10
283.367775
20
56.642850
11
283.210980
21
55.971259
0
LINE
8
ProjItem003
10
283.210980
20
55.971259
11
283.348239
21
55.299666
0
LINE
8
ProjItem003
10
283.348239
20
55.299666
11
283.719122
21
54.751530
0
LINE
8
ProjItem003
10
283.719122
20
54.751530
11
284.268235
21
54.382118
0
LINE
8
ProjItem003
10
284.268235
20
54.382118
11
284.940190
21
54.246699
0
LINE
8
ProjItem003
10
284.940190
20
54.246699
11
286.429000
21
54.256700
0
LINE
8
ProjItem003
10
330.118000
20
54.280900
11
330.789950
21
54.416319
0
LINE
8
ProjItem003
10
330.789950
20
54.416319
11
331.339075
21
54.785732
0
LINE
8
ProjItem003
10
331.339075
20
54.785732
11
331.709958
21
55.333868
0
LINE
8
ProjItem003
10
331.709958
20
55.333868
11
331.847180
21
56.005460
0
LINE
8
ProjItem003
10
331.847180
20
56.005460
11
331.709921
21
56.677052
0
LINE
8
ProjItem003
10
331.709921
20
56.677052
11
331.339042
21
57.225189
0
LINE
8
ProjItem003
10
331.339042
20
57.225189
11
330.789937
21
57.594601
0
LINE
8
ProjItem003
10
330.789937
20
57.594601
11
330.118000
21
57.730020
0
LINE
8
ProjItem003
10
330.118000
20
57.730020
11
328.629190
21
57.720019
0
LINE
8
ProjItem003
10
328.629190
20
57.720019
11
328.015927
21
57.584599
0
LINE
8
ProjItem003
10
328.015927
20
57.584599
11
327.460273
21
57.215187
0
LINE
8
ProjItem003
10
327.460273
20
57.215187
11
327.056775
21
56.667050
0
LINE
8
ProjItem003
10
327.056775
20
56.667050
11
326.899980
21
55.995459
0
LINE
8
ProjItem003
10
326.899980
20
55.995459
11
327.037239
21
55.323866
0
LINE
8
ProjItem003
10
327.037239
20
55.323866
11
327.408122
21
54.775730
0
LINE
8
ProjItem003
10
327.408122
20
54.775730
11
327.957235
21
54.406318
0
LINE
8
ProjItem003
10
327.957235
20
54.406318
11
328.629190
21
54.270899
0
LINE
8
ProjItem003
10
328.629190
20
54.270899
11
330.118000
21
54.280900
0
LINE
8
ProjItem003
10
288.907000
20
70.423500
11
326.152000
21
70.423500
0
LINE
8
ProjItem003
10
326.152000
20
70.423500
11
326.152000
21
41.232900
0
LINE
8
ProjItem003
10
326.152000
20
41.232900
11
288.907000
21
41.232900
0
LINE
8
ProjItem003
10
288.907000
20
41.232900
11
288.907000
21
70.423500
0
LINE
8
ProjItem003
10
8.861960
20
139.362000
11
8.655385
21
140.376289
0
LINE
8
ProjItem003
10
8.655385
20
140.376289
11
8.095707
21
141.204245
0
LINE
8
ProjItem003
10
8.095707
20
141.204245
11
7.266656
21
141.762302
0
LINE
8
ProjItem003
10
7.266656
20
141.762302
11
6.251965
21
141.966891
0
LINE
8
ProjItem003
10
6.251965
20
141.966891
11
5.237274
21
141.762302
0
LINE
8
ProjItem003
10
5.237274
20
141.762302
11
4.408223
21
141.204245
0
LINE
8
ProjItem003
10
4.408223
20
141.204245
11
3.848545
21
140.376289
0
LINE
8
ProjItem003
10
3.848545
20
140.376289
11
3.641970
21
139.362000
0
LINE
8
ProjItem003
10
3.641970
20
139.362000
11
3.848545
21
138.347711
0
LINE
8
ProjItem003
10
3.848545
20
138.347711
11
4.408223
21
137.519755
0
LINE
8
ProjItem003
10
4.408223
20
137.519755
11
5.237274
21
136.961698
0
LINE
8
ProjItem003
10
5.237274
20
136.961698
11
6.251965
21
136.757109
0
LINE
8
ProjItem003
10
6.251965
20
136.757109
11
7.266656
21
136.961698
0
LINE
8
ProjItem003
10
7.266656
20
136.961698
11
8.095707
21
137.519755
0
LINE
8
ProjItem003
10
8.095707
20
137.519755
11
8.655385
21
138.347711
0
LINE
8
ProjItem003
10
8.655385
20
138.347711
11
8.861960
21
139.362000
0
LINE
8
ProjItem003
10
8.861960
20
139.362000
11
8.861960
21
139.362000
0
LINE
8
ProjItem003
10
8.861960
20
189.362000
11
8.655385
21
190.376289
0
LINE
8
ProjItem003
10
8.655385
20
190.376289
11
8.095707
21
191.204245
0
LINE
8
ProjItem003
10
8.095707
20
191.204245
11
7.266656
21
191.762302
0
LINE
8
ProjItem003
10
7.266656
20
191.762302
11
6.251965
21
191.966891
0
LINE
8
ProjItem003
10
6.251965
20
191.966891
11
5.237274
21
191.762302
0
LINE
8
ProjItem003
10
5.237274
20
191.762302
11
4.408223
21
191.204245
0
LINE
8
ProjItem003
10
4.408223
20
191.204245
11
3.848545
21
190.376289
0
LINE
8
ProjItem003
10
3.848545
20
190.376289
11
3.641970
21
189.362000
0
LINE
8
ProjItem003
10
3.641970
20
189.362000
11
3.848545
21
188.347711
0
LINE
8
ProjItem003
10
3.848545
20
188.347711
11
4.408223
21
187.519755
0
LINE
8
ProjItem003
10
4.408223
20
187.519755
11
5.237274
21
186.961698
0
LINE
8
ProjItem003
10
5.237274
20
186.961698
11
6.251965
21
186.757109
0
LINE
8
ProjItem003
10
6.251965
20
186.757109
11
7.266656
21
186.961698
0
LINE
8
ProjItem003
10
7.266656
20
186.961698
11
8.095707
21
187.519755
0
LINE
8
ProjItem003
10
8.095707
20
187.519755
11
8.655385
21
188.347711
0
LINE
8
ProjItem003
10
8.655385
20
188.347711
11
8.861960
21
189.362000
0
LINE
8
ProjItem003
10
8.861960
20
189.362000
11
8.861960
21
189.362000
0
LINE
8
ProjItem003
10
218.862000
20
269.062000
11
218.655424
21
270.076293
0
LINE
8
ProjItem003
10
218.655424
20
270.076293
11
218.095744
21
270.904252
0
LINE
8
ProjItem003
10
218.095744
20
270.904252
11
217.266690
21
271.462311
0
LINE
8
ProjItem003
10
217.266690
20
271.462311
11
216.251995
21
271.666901
0
LINE
8
ProjItem003
10
216.251995
20
271.666901
11
215.237300
21
271.462311
0
LINE
8
ProjItem003
10
215.237300
20
271.462311
11
214.408246
21
270.904252
0
LINE
8
ProjItem003
10
214.408246
20
270.904252
11
213.848566
21
270.076293
0
LINE
8
ProjItem003
10
213.848566
20
270.076293
11
213.641990
21
269.062000
0
LINE
8
ProjItem003
10
213.641990
20
269.062000
11
213.848566
21
268.047707
0
LINE
8
ProjItem003
10
213.848566
20
268.047707
11
214.408246
21
267.219748
0
LINE
8
ProjItem003
10
214.408246
20
267.219748
11
215.237300
21
266.661689
0
LINE
8
ProjItem003
10
215.237300
20
266.661689
11
216.251995
21
266.457099
0
LINE
8
ProjItem003
10
216.251995
20
266.457099
11
217.266690
21
266.661689
0
LINE
8
ProjItem003
10
217.266690
20
266.661689
11
218.095744
21
267.219748
0
LINE
8
ProjItem003
10
218.095744
20
267.219748
11
218.655424
21
268.047707
0
LINE
8
ProjItem003
10
218.655424
20
268.047707
11
218.862000
21
269.062000
0
LINE
8
ProjItem003
10
218.862000
20
269.062000
11
218.862000
21
269.062000
0
LINE
8
ProjItem003
10
168.862000
20
269.062000
11
168.654818
21
270.075609
0
LINE
8
ProjItem003
10
168.654818
20
270.075609
11
168.095003
21
270.902876
0
LINE
8
ProjItem003
10
168.095003
20
270.902876
11
167.266188
21
271.460400
0
LINE
8
ProjItem003
10
167.266188
20
271.460400
11
166.252010
21
271.664775
0
LINE
8
ProjItem003
10
166.252010
20
271.664775
11
165.237832
21
271.460400
0
LINE
8
ProjItem003
10
165.237832
20
271.460400
11
164.409017
21
270.902876
0
LINE
8
ProjItem003
10
164.409017
20
270.902876
11
163.849202
21
270.075609
0
LINE
8
ProjItem003
10
163.849202
20
270.075609
11
163.642020
21
269.062000
0
LINE
8
ProjItem003
10
163.642020
20
269.062000
11
163.849202
21
268.048391
0
LINE
8
ProjItem003
10
163.849202
20
268.048391
11
164.409017
21
267.221124
0
LINE
8
ProjItem003
10
164.409017
20
267.221124
11
165.237832
21
266.663600
0
LINE
8
ProjItem003
10
165.237832
20
266.663600
11
166.252010
21
266.459225
0
LINE
8
ProjItem003
10
166.252010
20
266.459225
11
167.266188
21
266.663600
0
LINE
8
ProjItem003
10
167.266188
20
266.663600
11
168.095003
21
267.221124
0
LINE
8
ProjItem003
10
168.095003
20
267.221124
11
168.654818
21
268.048391
0
LINE
8
ProjItem003
10
168.654818
20
268.048391
11
168.862000
21
269.062000
0
LINE
8
ProjItem003
10
168.862000
20
269.062000
11
168.862000
21
269.062000
0
LINE
8
ProjItem003
10
118.862000
20
269.062000
11
118.654818
21
270.075609
0
LINE
8
ProjItem003
10
118.654818
20
270.075609
11
118.095003
21
270.902876
0
LINE
8
ProjItem003
10
118.095003
20
270.902876
11
117.266188
21
271.460400
0
LINE
8
ProjItem003
10
117.266188
20
271.460400
11
116.252010
21
271.664775
0
LINE
8
ProjItem003
10
116.252010
20
271.664775
11
115.237832
21
271.460400
0
LINE
8
ProjItem003
10
115.237832
20
271.460400
11
114.409017
21
270.902876
0
LINE
8
ProjItem003
10
114.409017
20
270.902876
11
113.849202
21
270.075609
0
LINE
8
ProjItem003
10
113.849202
20
270.075609
11
113.642020
21
269.062000
0
LINE
8
ProjItem003
10
113.642020
20
269.062000
11
113.849202
21
268.048391
0
LINE
8
ProjItem003
10
113.849202
20
268.048391
11
114.409017
21
267.221124
0
LINE
8
ProjItem003
10
114.409017
20
267.221124
11
115.237832
21
266.663600
0
LINE
8
ProjItem003
10
115.237832
20
266.663600
11
116.252010
21
266.459225
0
LINE
8
ProjItem003
10
116.252010
20
266.459225
11
117.266188
21
266.663600
0
LINE
8
ProjItem003
10
117.266188
20
266.663600
11
118.095003
21
267.221124
0
LINE
8
ProjItem003
10
118.095003
20
267.221124
11
118.654818
21
268.048391
0
LINE
8
ProjItem003
10
118.654818
20
268.048391
11
118.862000
21
269.062000
0
LINE
8
ProjItem003
10
118.862000
20
269.062000
11
118.862000
21
269.062000
0
LINE
8
ProjItem003
10
68.861900
20
269.062000
11
68.654718
21
270.075609
0
LINE
8
ProjItem003
10
68.654718
20
270.075609
11
68.094903
21
270.902876
0
LINE
8
ProjItem003
10
68.094903
20
270.902876
11
67.266088
21
271.460400
0
LINE
8
ProjItem003
10
67.266088
20
271.460400
11
66.251910
21
271.664775
0
LINE
8
ProjItem003
10
66.251910
20
271.664775
11
65.237732
21
271.460400
0
LINE
8
ProjItem003
10
65.237732
20
271.460400
11
64.408917
21
270.902876
0
LINE
8
ProjItem003
10
64.408917
20
270.902876
11
63.849102
21
270.075609
0
LINE
8
ProjItem003
10
63.849102
20
270.075609
11
63.641920
21
269.062000
0
LINE
8
ProjItem003
10
63.641920
20
269.062000
11
63.849102
21
268.048391
0
LINE
8
ProjItem003
10
63.849102
20
268.048391
11
64.408917
21
267.221124
0
LINE
8
ProjItem003
10
64.408917
20
267.221124
11
65.237732
21
266.663600
0
LINE
8
ProjItem003
10
65.237732
20
266.663600
11
66.251910
21
266.459225
0
LINE
8
ProjItem003
10
66.251910
20
266.459225
11
67.266088
21
266.663600
0
LINE
8
ProjItem003
10
67.266088
20
266.663600
11
68.094903
21
267.221124
0
LINE
8
ProjItem003
10
68.094903
20
267.221124
11
68.654718
21
268.048391
0
LINE
8
ProjItem003
10
68.654718
20
268.048391
11
68.861900
21
269.062000
0
LINE
8
ProjItem003
10
68.861900
20
269.062000
11
68.861900
21
269.062000
0
LINE
8
ProjItem003
10
8.861960
20
239.362000
11
8.655385
21
240.376289
0
LINE
8
ProjItem003
10
8.655385
20
240.376289
11
8.095707
21
241.204245
0
LINE
8
ProjItem003
10
8.095707
20
241.204245
11
7.266656
21
241.762302
0
LINE
8
ProjItem003
10
7.266656
20
241.762302
11
6.251965
21
241.966891
0
LINE
8
ProjItem003
10
6.251965
20
241.966891
11
5.237274
21
241.762302
0
LINE
8
ProjItem003
10
5.237274
20
241.762302
11
4.408223
21
241.204245
0
LINE
8
ProjItem003
10
4.408223
20
241.204245
11
3.848545
21
240.376289
0
LINE
8
ProjItem003
10
3.848545
20
240.376289
11
3.641970
21
239.362000
0
LINE
8
ProjItem003
10
3.641970
20
239.362000
11
3.848545
21
238.347711
0
LINE
8
ProjItem003
10
3.848545
20
238.347711
11
4.408223
21
237.519755
0
LINE
8
ProjItem003
10
4.408223
20
237.519755
11
5.237274
21
236.961698
0
LINE
8
ProjItem003
10
5.237274
20
236.961698
11
6.251965
21
236.757109
0
LINE
8
ProjItem003
10
6.251965
20
236.757109
11
7.266656
21
236.961698
0
LINE
8
ProjItem003
10
7.266656
20
236.961698
11
8.095707
21
237.519755
0
LINE
8
ProjItem003
10
8.095707
20
237.519755
11
8.655385
21
238.347711
0
LINE
8
ProjItem003
10
8.655385
20
238.347711
11
8.861960
21
239.362000
0
LINE
8
ProjItem003
10
8.861960
20
239.362000
11
8.861960
21
239.362000
0
LINE
8
ProjItem003
10
271.950000
20
234.571000
11
271.819607
21
236.535018
0
LINE
8
ProjItem003
10
271.819607
20
236.535018
11
271.436746
21
238.439704
0
LINE
8
ProjItem003
10
271.436746
20
238.439704
11
270.813891
21
240.263451
0
LINE
8
ProjItem003
10
270.813891
20
240.263451
11
269.963518
21
241.984650
0
LINE
8
ProjItem003
10
269.963518
20
241.984650
11
268.898103
21
243.581694
0
LINE
8
ProjItem003
10
268.898103
20
243.581694
11
267.630119
21
245.032975
0
LINE
8
ProjItem003
10
267.630119
20
245.032975
11
266.172043
21
246.316886
0
LINE
8
ProjItem003
10
266.172043
20
246.316886
11
264.536350
21
247.411818
0
LINE
8
ProjItem003
10
264.536350
20
247.411818
11
262.770264
21
248.280904
0
LINE
8
ProjItem003
10
262.770264
20
248.280904
11
260.929327
21
248.901680
0
LINE
8
ProjItem003
10
260.929327
20
248.901680
11
259.038489
21
249.274145
0
LINE
8
ProjItem003
10
259.038489
20
249.274145
11
257.122700
21
249.398300
0
LINE
8
ProjItem003
10
257.122700
20
249.398300
11
255.206911
21
249.274145
0
LINE
8
ProjItem003
10
255.206911
20
249.274145
11
253.316073
21
248.901680
0
LINE
8
ProjItem003
10
253.316073
20
248.901680
11
251.475136
21
248.280904
0
LINE
8
ProjItem003
10
251.475136
20
248.280904
11
249.709050
21
247.411818
0
LINE
8
ProjItem003
10
249.709050
20
247.411818
11
248.073357
21
246.316886
0
LINE
8
ProjItem003
10
248.073357
20
246.316886
11
246.615281
21
245.032975
0
LINE
8
ProjItem003
10
246.615281
20
245.032975
11
245.347297
21
243.581694
0
LINE
8
ProjItem003
10
245.347297
20
243.581694
11
244.281882
21
241.984650
0
LINE
8
ProjItem003
10
244.281882
20
241.984650
11
243.431509
21
240.263451
0
LINE
8
ProjItem003
10
243.431509
20
240.263451
11
242.808654
21
238.439704
0
LINE
8
ProjItem003
10
242.808654
20
238.439704
11
242.425793
21
236.535018
0
LINE
8
ProjItem003
10
242.425793
20
236.535018
11
242.295400
21
234.571000
0
LINE
8
ProjItem003
10
242.295400
20
234.571000
11
242.425793
21
232.606982
0
LINE
8
ProjItem003
10
242.425793
20
232.606982
11
242.808654
21
230.702296
0
LINE
8
ProjItem003
10
242.808654
20
230.702296
11
243.431509
21
228.878549
0
LINE
8
ProjItem003
10
243.431509
20
228.878549
11
244.281882
21
227.157350
0
LINE
8
ProjItem003
10
244.281882
20
227.157350
11
245.347297
21
225.560306
0
LINE
8
ProjItem003
10
245.347297
20
225.560306
11
246.615281
21
224.109025
0
LINE
8
ProjItem003
10
246.615281
20
224.109025
11
248.073357
21
222.825114
0
LINE
8
ProjItem003
10
248.073357
20
222.825114
11
249.709050
21
221.730182
0
LINE
8
ProjItem003
10
249.709050
20
221.730182
11
251.475136
21
220.861096
0
LINE
8
ProjItem003
10
251.475136
20
220.861096
11
253.316073
21
220.240320
0
LINE
8
ProjItem003
10
253.316073
20
220.240320
11
255.206911
21
219.867855
0
LINE
8
ProjItem003
10
255.206911
20
219.867855
11
257.122700
21
219.743700
0
LINE
8
ProjItem003
10
257.122700
20
219.743700
11
259.038489
21
219.867855
0
LINE
8
ProjItem003
10
259.038489
20
219.867855
11
260.929327
21
220.240320
0
LINE
8
ProjItem003
10
260.929327
20
220.240320
11
262.770264
21
220.861096
0
LINE
8
ProjItem003
10
262.770264
20
220.861096
11
264.536350
21
221.730182
0
LINE
8
ProjItem003
10
264.536350
20
221.730182
11
266.172043
21
222.825114
0
LINE
8
ProjItem003
10
266.172043
20
222.825114
11
267.630119
21
224.109025
0
LINE
8
ProjItem003
10
267.630119
20
224.109025
11
268.898103
21
225.560306
0
LINE
8
ProjItem003
10
268.898103
20
225.560306
11
269.963518
21
227.157350
0
LINE
8
ProjItem003
10
269.963518
20
227.157350
11
270.813891
21
228.878549
0
LINE
8
ProjItem003
10
270.813891
20
228.878549
11
271.436746
21
230.702296
0
LINE
8
ProjItem003
10
271.436746
20
230.702296
11
271.819607
21
232.606982
0
LINE
8
ProjItem003
10
271.819607
20
232.606982
11
271.950000
21
234.571000
0
LINE
8
ProjItem003
10
271.950000
20
234.571000
11
271.950000
21
234.571000
0
LINE
8
ProjItem003
10
191.359000
20
233.930000
11
191.282448
21
235.446005
0
LINE
8
ProjItem003
10
191.282448
20
235.446005
11
191.057762
21
236.918218
0
LINE
8
ProjItem003
10
191.057762
20
236.918218
11
190.193797
21
239.701454
0
LINE
8
ProjItem003
10
190.193797
20
239.701454
11
188.826730
21
242.220084
0
LINE
8
ProjItem003
10
188.826730
20
242.220084
11
187.016184
21
244.414484
0
LINE
8
ProjItem003
10
187.016184
20
244.414484
11
184.821784
21
246.225030
0
LINE
8
ProjItem003
10
184.821784
20
246.225030
11
182.303154
21
247.592097
0
LINE
8
ProjItem003
10
182.303154
20
247.592097
11
179.519918
21
248.456061
0
LINE
8
ProjItem003
10
179.519918
20
248.456061
11
178.047705
21
248.680748
0
LINE
8
ProjItem003
10
178.047705
20
248.680748
11
176.531700
21
248.757299
0
LINE
8
ProjItem003
10
176.531700
20
248.757299
11
175.015695
21
248.680748
0
LINE
8
ProjItem003
10
175.015695
20
248.680748
11
173.543482
21
248.456061
0
LINE
8
ProjItem003
10
173.543482
20
248.456061
11
170.760246
21
247.592097
0
LINE
8
ProjItem003
10
170.760246
20
247.592097
11
168.241616
21
246.225030
0
LINE
8
ProjItem003
10
168.241616
20
246.225030
11
166.047216
21
244.414484
0
LINE
8
ProjItem003
10
166.047216
20
244.414484
11
164.236670
21
242.220084
0
LINE
8
ProjItem003
10
164.236670
20
242.220084
11
162.869603
21
239.701454
0
LINE
8
ProjItem003
10
162.869603
20
239.701454
11
162.005638
21
236.918218
0
LINE
8
ProjItem003
10
162.005638
20
236.918218
11
161.780952
21
235.446005
0
LINE
8
ProjItem003
10
161.780952
20
235.446005
11
161.704400
21
233.930000
0
LINE
8
ProjItem003
10
161.704400
20
233.930000
11
161.780952
21
232.413995
0
LINE
8
ProjItem003
10
161.780952
20
232.413995
11
162.005638
21
230.941782
0
LINE
8
ProjItem003
10
162.005638
20
230.941782
11
162.869603
21
228.158546
0
LINE
8
ProjItem003
10
162.869603
20
228.158546
11
164.236670
21
225.639916
0
LINE
8
ProjItem003
10
164.236670
20
225.639916
11
166.047216
21
223.445516
0
LINE
8
ProjItem003
10
166.047216
20
223.445516
11
168.241616
21
221.634970
0
LINE
8
ProjItem003
10
168.241616
20
221.634970
11
170.760246
21
220.267903
0
LINE
8
ProjItem003
10
170.760246
20
220.267903
11
173.543482
21
219.403939
0
LINE
8
ProjItem003
10
173.543482
20
219.403939
11
175.015695
21
219.179252
0
LINE
8
ProjItem003
10
175.015695
20
219.179252
11
176.531700
21
219.102701
0
LINE
8
ProjItem003
10
176.531700
20
219.102701
11
178.047705
21
219.179252
0
LINE
8
ProjItem003
10
178.047705
20
219.179252
11
179.519918
21
219.403939
0
LINE
8
ProjItem003
10
179.519918
20
219.403939
11
182.303154
21
220.267903
0
LINE
8
ProjItem003
10
182.303154
20
220.267903
11
184.821784
21
221.634970
0
LINE
8
ProjItem003
10
184.821784
20
221.634970
11
187.016184
21
223.445516
0
LINE
8
ProjItem003
10
187.016184
20
223.445516
11
188.826730
21
225.639916
0
LINE
8
ProjItem003
10
188.826730
20
225.639916
11
190.193797
21
228.158546
0
LINE
8
ProjItem003
10
190.193797
20
228.158546
11
191.057762
21
230.941782
0
LINE
8
ProjItem003
10
191.057762
20
230.941782
11
191.282448
21
232.413995
0
LINE
8
ProjItem003
10
191.282448
20
232.413995
11
191.359000
21
233.930000
0
LINE
8
ProjItem003
10
191.359000
20
233.930000
11
191.359000
21
233.930000
 0 
ENDSEC
 0 
EOF