<svg id="splitsvg" version="1.1" xmlns="http://www.w3.org/2000/svg" xmlns:xlink="http://www.w3.org/1999/xlink" width="1380" height="400"><g id="svgg"><path id="path0" d="M355.600 67.224 C 355.600 67.457,355.435 67.545,355.234 67.421 C 355.033 67.297,354.802 67.394,354.721 67.638 C 354.640 67.881,353.859 68.079,352.987 68.078 C 352.114 68.077,351.175 68.261,350.900 68.487 C 350.625 68.713,350.400 68.776,350.400 68.626 C 350.400 68.477,350.000 68.635,349.511 68.977 C 349.022 69.320,347.955 69.600,347.140 69.600 C 346.324 69.600,345.380 69.877,345.041 70.216 C 344.703 70.555,343.765 70.884,342.957 70.947 C 342.150 71.011,341.289 71.319,341.045 71.631 C 340.800 71.944,340.240 72.250,339.800 72.311 C 338.460 72.498,338.103 72.617,337.540 73.069 C 337.243 73.307,336.612 73.621,336.137 73.766 C 335.662 73.912,335.173 74.294,335.050 74.615 C 334.926 74.937,334.530 75.200,334.170 75.200 C 331.172 75.200,329.913 79.608,332.151 82.269 C 337.208 88.281,339.005 103.308,335.359 109.086 C 335.052 109.573,334.800 110.205,334.800 110.489 C 334.800 110.954,332.740 114.410,330.750 117.284 C 330.338 117.880,330.000 118.539,330.000 118.748 C 330.000 119.395,335.591 122.849,337.012 123.080 C 338.119 123.259,338.406 123.517,338.629 124.534 C 338.779 125.213,339.647 126.496,340.560 127.385 C 343.271 130.025,346.556 136.317,347.381 140.449 C 347.644 141.770,349.860 142.874,350.422 141.964 C 350.614 141.654,350.957 141.378,351.185 141.350 C 351.413 141.322,351.780 141.278,352.000 141.250 C 352.220 141.222,352.400 140.942,352.400 140.627 C 352.400 140.312,352.760 139.940,353.200 139.800 C 353.640 139.660,354.000 139.407,354.000 139.237 C 354.000 139.067,354.426 138.734,354.947 138.497 C 355.469 138.259,356.414 137.247,357.047 136.247 C 357.681 135.247,358.422 134.423,358.692 134.415 C 358.963 134.407,359.297 133.951,359.435 133.403 C 359.573 132.854,359.846 132.505,360.043 132.627 C 360.240 132.749,360.594 132.343,360.829 131.725 C 361.063 131.107,361.541 130.286,361.890 129.901 C 362.239 129.515,362.386 129.200,362.218 129.200 C 362.049 129.200,362.281 128.885,362.733 128.500 C 363.185 128.115,363.610 127.440,363.677 127.000 C 363.745 126.560,364.053 126.002,364.362 125.760 C 364.672 125.518,364.953 124.939,364.987 124.474 C 365.021 124.010,365.340 123.308,365.696 122.915 C 366.052 122.522,366.361 122.067,366.382 121.904 C 366.454 121.371,366.849 120.222,367.399 118.951 C 368.088 117.356,367.981 113.283,367.238 112.823 C 366.171 112.164,356.670 112.531,355.535 113.275 C 354.969 113.646,353.752 114.025,352.830 114.117 C 351.909 114.209,350.950 114.490,350.698 114.742 C 349.626 115.814,349.075 115.174,350.125 114.078 C 350.716 113.461,351.200 112.741,351.200 112.478 C 351.200 112.215,351.425 111.994,351.700 111.987 C 352.325 111.972,353.595 110.262,353.810 109.147 C 353.899 108.686,354.256 108.101,354.603 107.847 C 354.951 107.593,355.284 106.926,355.344 106.366 C 355.403 105.805,355.755 104.913,356.126 104.384 C 356.497 103.855,356.801 102.787,356.802 102.011 C 356.804 101.235,357.105 100.060,357.471 99.400 C 358.010 98.429,358.165 96.749,358.282 90.600 C 358.362 86.420,358.586 82.550,358.781 82.000 C 358.975 81.450,359.145 80.730,359.157 80.400 C 359.170 80.070,359.261 78.810,359.360 77.600 C 359.460 76.390,359.585 74.230,359.638 72.800 C 359.692 71.370,359.930 69.880,360.168 69.488 C 360.492 68.954,360.467 68.693,360.066 68.443 C 359.772 68.260,359.529 67.951,359.526 67.755 C 359.523 67.560,359.358 67.445,359.160 67.500 C 358.962 67.555,358.800 67.420,358.800 67.200 C 358.800 66.980,358.080 66.800,357.200 66.800 C 356.320 66.800,355.600 66.991,355.600 67.224 M48.600 69.580 C 44.055 71.449,43.813 77.719,48.213 79.606 C 55.301 82.644,60.381 73.541,53.606 69.941 C 52.157 69.170,49.977 69.013,48.600 69.580 M54.179 70.957 C 58.746 74.440,55.309 80.535,49.402 79.427 C 44.816 78.566,44.156 72.656,48.401 70.477 C 50.562 69.368,52.283 69.511,54.179 70.957 M58.100 84.676 C 58.485 84.776,59.115 84.776,59.500 84.676 C 59.885 84.575,59.570 84.493,58.800 84.493 C 58.030 84.493,57.715 84.575,58.100 84.676 M141.511 84.693 C 142.451 84.778,143.891 84.777,144.711 84.691 C 145.530 84.605,144.760 84.536,143.000 84.537 C 141.240 84.539,140.570 84.609,141.511 84.693 M171.682 84.696 C 173.158 84.773,175.678 84.773,177.282 84.697 C 178.887 84.621,177.680 84.558,174.600 84.558 C 171.520 84.557,170.207 84.619,171.682 84.696 M204.482 84.696 C 205.958 84.773,208.478 84.773,210.082 84.697 C 211.687 84.621,210.480 84.558,207.400 84.558 C 204.320 84.557,203.007 84.619,204.482 84.696 M236.900 84.694 C 237.945 84.776,239.655 84.776,240.700 84.694 C 241.745 84.612,240.890 84.544,238.800 84.544 C 236.710 84.544,235.855 84.612,236.900 84.694 M252.515 84.696 C 253.788 84.776,255.768 84.775,256.915 84.694 C 258.062 84.614,257.020 84.549,254.600 84.550 C 252.180 84.551,251.242 84.616,252.515 84.696 M280.179 98.000 C 280.179 105.370,280.233 108.385,280.299 104.700 C 280.365 101.015,280.365 94.985,280.299 91.300 C 280.233 87.615,280.179 90.630,280.179 98.000 M175.600 91.284 C 175.600 91.484,175.465 91.571,175.300 91.477 C 174.925 91.264,172.680 92.509,172.739 92.897 C 172.762 93.054,172.381 93.613,171.891 94.141 C 171.401 94.668,170.245 95.908,169.321 96.895 C 168.398 97.883,167.524 99.165,167.378 99.745 C 167.232 100.325,166.989 100.800,166.837 100.800 C 165.151 100.800,164.558 119.795,166.193 121.430 C 167.393 122.630,171.915 121.140,173.245 119.106 C 173.379 118.900,173.615 118.760,173.769 118.794 C 174.248 118.901,177.589 115.829,177.595 115.276 C 177.598 114.988,177.756 114.849,177.947 114.967 C 178.470 115.290,181.474 111.806,182.053 110.205 C 182.332 109.432,182.705 108.800,182.880 108.800 C 183.535 108.800,183.248 100.105,182.571 99.428 C 182.225 99.082,181.870 98.234,181.783 97.544 C 181.695 96.854,181.343 95.979,181.000 95.600 C 180.656 95.220,180.295 94.494,180.198 93.987 C 179.810 91.975,175.600 89.500,175.600 91.284 M88.000 93.485 C 87.670 93.607,87.164 93.894,86.876 94.122 C 86.588 94.351,85.913 94.584,85.375 94.641 C 84.837 94.699,84.115 95.028,83.770 95.373 C 83.425 95.718,82.836 96.000,82.460 96.000 C 81.721 96.000,80.580 97.164,79.736 98.782 C 79.122 99.958,78.946 136.981,79.550 137.933 C 79.740 138.233,80.943 138.561,82.299 138.684 C 84.720 138.904,84.866 138.864,88.181 137.070 C 89.285 136.473,91.600 132.845,91.600 131.712 C 91.600 131.444,91.974 130.507,92.431 129.630 C 92.888 128.753,93.205 127.603,93.136 127.074 C 93.066 126.544,93.269 125.799,93.586 125.417 C 93.960 124.966,94.212 123.505,94.304 121.261 C 94.381 119.357,94.692 117.259,94.995 116.598 C 95.749 114.949,95.754 105.866,95.001 104.202 C 94.702 103.541,94.377 101.419,94.279 99.488 C 94.154 97.000,93.912 95.766,93.451 95.256 C 93.093 94.861,92.800 94.345,92.800 94.111 C 92.800 93.290,89.640 92.878,88.000 93.485 M36.800 99.827 C 36.030 100.371,35.377 100.992,35.350 101.208 C 35.323 101.423,35.257 101.645,35.204 101.700 C 35.152 101.755,35.049 102.316,34.975 102.946 C 34.901 103.576,34.575 104.386,34.249 104.746 C 33.923 105.106,33.636 105.580,33.611 105.800 C 33.489 106.863,33.072 108.319,32.562 109.460 C 32.253 110.154,32.000 111.628,32.000 112.737 C 32.000 113.846,31.830 114.858,31.623 114.986 C 30.852 115.462,30.682 118.775,31.339 120.517 C 31.688 121.443,32.048 122.907,32.139 123.771 C 32.231 124.635,32.569 125.535,32.892 125.771 C 33.215 126.007,33.480 126.290,33.481 126.400 C 33.490 127.555,34.522 129.164,36.800 131.578 C 37.130 131.927,37.729 132.721,38.132 133.341 C 38.535 133.962,38.950 134.383,39.056 134.277 C 39.162 134.171,39.658 134.471,40.158 134.942 C 42.708 137.346,45.600 139.236,45.600 138.498 C 45.600 138.346,45.866 138.601,46.191 139.065 C 46.516 139.529,47.279 140.033,47.887 140.186 C 48.495 140.339,49.108 140.652,49.251 140.882 C 49.393 141.112,49.976 141.351,50.547 141.414 C 51.118 141.477,51.864 141.807,52.205 142.148 C 52.547 142.489,53.490 142.893,54.303 143.046 C 55.115 143.198,56.004 143.547,56.279 143.821 C 56.553 144.096,57.407 144.320,58.177 144.320 C 58.947 144.320,59.865 144.608,60.217 144.960 C 61.049 145.791,61.178 145.774,62.600 144.636 L 63.800 143.676 63.800 131.538 C 63.800 118.572,63.628 117.290,61.944 117.731 C 61.392 117.875,61.054 117.676,60.815 117.068 C 60.375 115.949,56.169 111.564,55.846 111.887 C 55.711 112.023,55.600 111.961,55.600 111.750 C 55.600 111.539,54.250 110.392,52.600 109.200 C 50.950 108.008,49.600 106.895,49.600 106.727 C 49.600 106.558,49.052 106.137,48.381 105.790 C 46.924 105.037,46.338 104.557,42.896 101.300 C 39.908 98.473,39.022 98.259,36.800 99.827 M280.194 150.100 L 280.200 169.800 293.900 169.808 L 307.600 169.816 294.004 169.703 L 280.408 169.590 280.298 149.995 L 280.189 130.400 280.194 150.100 M233.091 132.484 C 232.057 133.241,231.803 135.554,232.556 137.358 C 233.121 138.708,233.125 138.972,232.596 139.728 C 230.198 143.150,232.100 144.399,239.723 144.406 C 243.285 144.409,246.434 144.561,246.720 144.742 C 247.761 145.403,249.714 147.030,250.989 148.300 C 251.707 149.015,252.477 149.600,252.701 149.600 C 252.924 149.600,253.211 149.997,253.337 150.483 C 253.464 150.968,253.686 151.247,253.830 151.103 C 253.974 150.959,254.678 151.462,255.393 152.220 C 256.109 152.979,256.806 153.600,256.942 153.600 C 257.078 153.600,257.777 154.222,258.495 154.983 C 261.593 158.266,263.725 154.554,261.400 149.925 C 260.201 147.539,260.208 147.600,261.165 147.600 C 261.742 147.600,261.994 147.218,262.193 146.041 C 262.457 144.479,261.760 141.200,261.164 141.200 C 260.993 141.200,260.727 140.795,260.571 140.300 C 260.296 139.424,257.819 136.800,257.268 136.800 C 257.116 136.800,256.763 136.433,256.483 135.984 C 256.203 135.536,255.800 135.277,255.587 135.408 C 255.374 135.540,255.200 135.454,255.200 135.217 C 255.200 134.981,254.570 134.487,253.800 134.119 C 253.030 133.752,252.400 133.234,252.400 132.969 C 252.400 131.905,234.496 131.455,233.091 132.484 M167.029 150.461 C 164.898 154.734,166.597 155.600,177.113 155.600 C 181.488 155.600,185.185 155.718,185.329 155.863 C 185.474 156.007,188.114 156.102,191.196 156.073 C 194.606 156.041,196.800 156.173,196.800 156.410 C 196.800 157.343,211.891 156.878,213.386 155.900 C 215.591 154.457,216.299 151.956,214.869 150.662 C 214.209 150.065,212.238 150.000,194.892 150.000 C 182.494 150.000,175.559 149.858,175.400 149.600 C 175.264 149.379,173.472 149.200,171.406 149.200 L 167.659 149.200 167.029 150.461 M48.738 174.584 C 45.417 176.840,45.738 181.834,49.320 183.661 C 52.489 185.278,55.869 184.298,57.533 181.280 C 60.296 176.270,53.675 171.229,48.738 174.584 M238.416 174.648 C 235.041 177.488,235.359 181.530,239.132 183.733 C 243.741 186.425,249.678 181.438,247.442 176.753 C 245.926 173.577,241.042 172.438,238.416 174.648 M54.838 174.619 C 57.447 175.969,58.315 179.228,56.700 181.607 C 54.125 185.400,47.860 184.245,47.031 179.825 C 46.264 175.734,50.950 172.609,54.838 174.619 M244.987 174.846 C 246.811 175.921,247.200 176.676,247.200 179.132 C 247.200 183.710,240.912 185.626,237.847 181.983 C 234.098 177.527,239.827 171.801,244.987 174.846 M230.493 178.800 C 230.493 179.570,230.575 179.885,230.676 179.500 C 230.776 179.115,230.776 178.485,230.676 178.100 C 230.575 177.715,230.493 178.030,230.493 178.800 M155.217 182.980 C 154.934 183.321,154.489 183.600,154.230 183.600 C 153.970 183.600,152.957 184.694,151.979 186.031 C 151.000 187.369,149.894 188.751,149.520 189.103 C 149.147 189.455,148.927 189.882,149.032 190.051 C 149.137 190.221,148.857 190.555,148.411 190.794 C 147.965 191.033,147.600 191.468,147.600 191.760 C 147.600 192.053,147.249 192.738,146.820 193.284 C 145.299 195.217,146.743 196.951,150.082 197.200 C 152.549 197.384,152.896 197.528,154.419 199.000 C 156.336 200.853,161.160 208.019,164.600 214.125 C 166.176 216.922,168.079 220.038,170.019 223.000 C 170.884 224.320,171.753 225.760,171.950 226.200 C 173.176 228.937,175.537 229.373,177.604 227.244 C 178.482 226.339,179.200 225.716,179.200 225.858 C 179.200 226.151,181.376 223.909,181.391 223.600 C 181.397 223.490,181.771 222.860,182.224 222.200 C 182.676 221.540,183.099 220.280,183.163 219.400 C 183.226 218.521,183.451 217.478,183.663 217.083 C 184.893 214.784,183.597 207.225,181.591 205.000 C 181.195 204.560,180.789 203.750,180.690 203.200 C 180.537 202.353,180.501 202.330,180.454 203.055 C 180.410 203.748,180.062 203.960,178.605 204.178 C 177.617 204.326,176.557 204.701,176.247 205.010 C 175.938 205.319,175.032 205.644,174.234 205.732 C 173.436 205.820,172.426 206.215,171.989 206.610 C 170.968 207.534,170.859 207.387,170.783 204.990 C 170.720 202.979,170.125 200.800,169.639 200.800 C 169.493 200.800,169.337 200.305,169.290 199.700 C 169.244 199.095,168.825 198.285,168.359 197.900 C 167.893 197.515,167.634 197.200,167.783 197.200 C 167.932 197.200,167.682 196.677,167.227 196.038 C 166.772 195.399,166.400 194.711,166.400 194.508 C 166.400 194.305,165.950 193.717,165.400 193.200 C 164.850 192.683,164.400 192.048,164.400 191.789 C 164.400 191.529,163.952 190.833,163.403 190.241 C 162.855 189.650,162.298 188.731,162.164 188.199 C 162.031 187.668,161.669 187.023,161.361 186.767 C 161.052 186.511,160.800 186.064,160.800 185.774 C 160.800 185.483,160.485 185.007,160.100 184.717 C 159.715 184.426,159.202 183.831,158.959 183.394 C 158.392 182.371,155.946 182.101,155.217 182.980 M68.900 188.195 C 68.158 188.731,68.000 189.225,68.000 191.010 L 68.000 193.174 63.500 193.301 L 59.000 193.429 63.628 193.514 C 68.014 193.596,68.301 193.652,69.125 194.600 C 70.203 195.840,71.544 195.874,73.035 194.700 C 74.117 193.848,74.634 193.789,82.789 193.585 L 91.400 193.369 83.100 193.285 L 74.800 193.200 74.800 191.049 C 74.800 187.984,71.441 186.359,68.900 188.195 M47.298 198.100 C 43.782 200.553,44.365 205.772,48.341 207.433 C 54.913 210.179,60.023 201.836,54.143 197.959 C 52.467 196.854,48.982 196.926,47.298 198.100 M95.253 198.704 C 93.190 200.666,92.808 202.464,93.971 204.742 C 96.070 208.857,101.989 209.062,104.402 205.104 C 107.728 199.648,99.967 194.219,95.253 198.704 M119.457 197.959 C 113.577 201.836,118.687 210.179,125.259 207.433 C 129.254 205.764,129.827 200.511,126.276 198.100 C 124.552 196.929,121.126 196.858,119.457 197.959 M287.311 198.311 C 284.006 201.102,284.557 205.397,288.480 207.438 C 292.325 209.439,297.775 205.790,297.012 201.726 C 296.255 197.689,290.461 195.649,287.311 198.311 M353.857 197.959 C 347.875 201.903,353.022 210.206,359.714 207.410 C 365.183 205.125,363.294 197.196,357.283 197.203 C 355.721 197.204,354.639 197.443,353.857 197.959 M54.073 198.591 C 58.858 201.842,55.135 208.602,49.361 207.148 C 46.336 206.387,44.795 203.308,45.992 200.419 C 47.121 197.695,51.347 196.739,54.073 198.591 M102.324 198.410 C 107.277 201.430,103.540 208.675,97.813 207.156 C 94.735 206.340,93.406 203.928,94.343 200.861 C 95.243 197.919,99.416 196.637,102.324 198.410 M125.773 198.379 C 129.433 200.791,128.532 206.068,124.278 207.139 C 119.847 208.254,116.101 204.569,117.811 200.776 C 119.151 197.804,123.098 196.615,125.773 198.379 M294.571 198.901 C 297.615 201.531,296.666 205.967,292.822 207.080 C 288.309 208.386,284.463 204.696,286.144 200.673 C 287.486 197.461,291.845 196.544,294.571 198.901 M360.728 199.031 C 362.264 200.346,362.400 200.620,362.400 202.400 C 362.400 207.290,356.205 209.217,352.833 205.376 C 348.729 200.702,355.924 194.919,360.728 199.031 M188.914 199.237 C 184.891 201.814,185.193 206.766,189.496 208.799 C 195.857 211.804,201.153 203.668,195.500 199.574 C 193.487 198.115,190.874 197.982,188.914 199.237 M194.653 199.633 C 198.236 201.847,198.183 206.729,194.561 208.242 C 189.744 210.255,184.712 205.826,187.214 201.778 C 188.957 198.958,192.096 198.052,194.653 199.633 M87.691 211.273 C 87.192 211.524,86.688 212.108,86.572 212.569 C 86.065 214.588,86.593 249.869,87.140 250.528 C 87.627 251.115,90.165 251.179,113.427 251.194 L 139.174 251.211 139.787 250.025 C 141.944 245.854,140.509 244.800,132.677 244.799 C 129.115 244.799,118.775 244.680,109.700 244.534 L 93.200 244.270 93.200 228.344 L 93.200 212.418 92.242 211.791 C 90.965 210.954,88.813 210.709,87.691 211.273 M358.291 212.400 C 357.731 212.840,357.096 213.200,356.880 213.200 C 356.070 213.200,356.017 215.383,355.746 259.327 L 355.470 304.248 336.044 304.100 C 325.360 304.018,316.539 303.873,316.443 303.776 C 315.870 303.204,314.397 303.685,314.226 304.500 C 312.939 310.610,312.955 310.648,316.882 310.777 C 328.917 311.172,361.391 310.951,361.871 310.471 C 362.612 309.731,362.660 212.820,361.920 212.080 C 361.190 211.350,359.428 211.506,358.291 212.400 M97.452 212.852 C 95.914 213.663,95.905 213.681,96.172 215.534 C 96.319 216.560,96.442 217.715,96.445 218.100 C 96.448 218.485,96.605 218.800,96.796 218.800 C 96.986 218.800,97.173 222.535,97.213 227.100 C 97.334 241.215,97.367 241.927,97.920 242.480 C 98.814 243.373,125.101 243.224,125.760 242.322 C 126.427 241.410,126.670 214.851,126.022 213.642 C 125.301 212.294,122.806 211.770,121.058 212.600 L 119.600 213.291 119.600 224.746 L 119.601 236.200 111.800 236.084 L 104.000 235.967 103.938 232.884 C 103.708 221.547,103.665 220.800,103.230 220.800 C 103.053 220.800,102.880 219.225,102.846 217.300 C 102.755 212.275,101.113 210.921,97.452 212.852 M229.496 212.829 L 227.991 213.623 228.004 247.621 C 228.017 280.950,228.033 281.633,228.809 282.409 C 230.036 283.636,284.929 283.653,285.586 282.426 C 286.337 281.023,284.383 277.200,282.914 277.200 C 282.631 277.200,282.400 277.065,282.400 276.900 C 282.400 276.735,271.600 276.648,258.400 276.706 L 234.400 276.812 234.400 244.986 L 234.400 213.159 233.013 212.580 C 231.299 211.863,231.330 211.861,229.496 212.829 M289.200 213.114 C 288.358 213.543,287.860 214.060,287.951 214.413 C 288.034 214.736,288.109 215.225,288.118 215.500 C 288.126 215.775,288.253 216.000,288.400 216.000 C 288.754 216.000,288.764 216.137,288.891 222.480 C 288.965 226.207,289.160 228.121,289.501 228.461 C 290.147 229.107,321.999 228.966,323.436 228.311 C 324.348 227.895,325.600 225.443,325.600 224.072 C 325.600 222.443,325.206 222.400,310.120 222.400 L 295.600 222.400 295.553 220.500 C 295.527 219.455,295.538 218.361,295.578 218.068 C 295.617 217.775,295.369 217.106,295.025 216.582 C 294.681 216.057,294.400 215.147,294.400 214.558 C 294.400 212.476,291.847 211.767,289.200 213.114 M135.700 213.876 C 136.085 213.976,136.715 213.976,137.100 213.876 C 137.485 213.775,137.170 213.693,136.400 213.693 C 135.630 213.693,135.315 213.775,135.700 213.876 M248.500 218.665 C 248.225 218.776,248.000 219.102,248.000 219.391 C 248.000 219.679,247.719 220.022,247.375 220.154 C 247.031 220.286,246.852 220.560,246.977 220.763 C 247.102 220.966,246.979 221.223,246.702 221.335 C 246.361 221.474,246.335 221.645,246.620 221.870 C 246.850 222.051,247.086 222.920,247.143 223.800 C 247.430 228.242,247.526 228.907,247.910 229.145 C 248.139 229.286,248.455 230.085,248.611 230.921 C 248.768 231.756,249.161 232.704,249.484 233.027 C 249.808 233.350,250.122 234.066,250.182 234.616 C 250.242 235.167,250.586 235.943,250.946 236.340 C 251.306 236.738,251.600 237.246,251.600 237.470 C 251.600 237.693,251.960 238.202,252.400 238.600 C 252.840 238.998,253.200 239.566,253.200 239.862 C 253.200 240.674,259.436 246.744,260.561 247.026 C 261.101 247.161,261.639 247.526,261.759 247.836 C 261.878 248.146,262.245 248.400,262.575 248.400 C 262.905 248.400,263.856 248.748,264.688 249.173 C 265.519 249.598,266.920 249.998,267.800 250.062 C 268.680 250.127,269.638 250.409,269.929 250.689 C 272.384 253.061,275.995 249.780,274.337 246.683 C 274.083 246.208,273.739 245.275,273.572 244.609 C 273.405 243.944,272.875 242.410,272.393 241.200 C 269.843 234.800,268.000 229.549,268.000 228.683 C 268.000 225.999,262.164 220.191,260.218 220.938 C 259.929 221.049,259.335 220.890,258.898 220.584 C 258.462 220.278,257.991 220.142,257.853 220.281 C 257.714 220.420,257.600 220.349,257.600 220.124 C 257.600 219.898,256.483 219.597,255.118 219.454 C 253.752 219.312,252.456 219.016,252.238 218.798 C 251.830 218.390,249.395 218.304,248.500 218.665 M56.621 238.135 C 56.152 238.478,55.864 239.405,55.725 241.020 C 55.612 242.329,55.292 243.670,55.013 244.000 C 54.125 245.051,54.228 249.834,55.167 251.153 C 55.612 251.779,55.879 252.388,55.760 252.507 C 55.500 252.766,56.561 254.113,58.160 255.554 C 58.798 256.130,59.608 256.884,59.960 257.230 C 61.136 258.388,63.483 259.600,64.547 259.600 C 65.126 259.600,65.600 259.780,65.600 260.000 C 65.600 260.575,67.719 260.493,68.548 259.887 C 69.739 259.016,69.660 244.776,68.456 243.276 C 67.981 242.684,67.419 241.795,67.206 241.300 C 66.994 240.805,66.526 240.400,66.167 240.400 C 65.809 240.400,64.794 239.829,63.912 239.130 C 62.102 237.697,57.988 237.136,56.621 238.135 M167.949 257.931 C 167.867 258.165,166.569 258.395,165.064 258.442 C 160.898 258.574,161.231 256.718,161.207 279.943 L 161.187 300.258 162.174 300.786 C 163.276 301.376,166.549 301.106,167.460 300.350 C 167.899 299.986,168.000 296.539,168.000 281.951 L 168.000 264.000 171.377 264.000 C 176.581 264.000,177.361 261.801,173.147 259.012 C 171.372 257.838,168.212 257.181,167.949 257.931 M86.492 277.068 C 85.562 277.442,84.716 279.624,84.971 280.987 C 85.393 283.235,84.950 283.200,113.196 283.200 L 139.155 283.200 139.777 282.311 C 140.560 281.193,140.565 280.092,139.795 278.249 L 139.189 276.800 113.095 276.832 C 98.743 276.849,86.771 276.955,86.492 277.068 M130.312 285.662 C 130.251 285.847,120.981 286.043,109.714 286.099 C 85.148 286.220,87.805 285.358,87.787 293.210 L 87.775 298.792 89.048 299.396 C 90.663 300.162,91.352 300.155,93.040 299.354 L 94.400 298.709 94.400 295.354 L 94.400 292.000 111.900 291.999 L 129.400 291.998 129.274 295.958 C 129.129 300.524,129.559 301.200,132.600 301.200 C 135.904 301.200,136.067 300.818,135.827 293.664 C 135.711 290.219,135.613 287.188,135.608 286.929 C 135.585 285.598,130.723 284.435,130.312 285.662 M224.369 295.658 C 224.097 296.167,223.632 296.825,223.337 297.120 C 222.472 297.985,222.715 299.369,223.939 300.541 L 225.078 301.632 231.554 301.580 C 235.543 301.548,238.224 301.688,238.534 301.945 C 238.854 302.211,243.687 302.401,251.819 302.468 C 273.256 302.646,272.415 302.665,272.933 302.000 C 273.327 301.494,274.736 301.417,281.960 301.508 C 289.468 301.603,290.609 301.535,291.252 300.953 C 291.941 300.329,292.007 300.347,292.352 301.245 C 292.683 302.103,292.750 302.127,293.012 301.475 C 293.497 300.273,291.449 296.556,290.112 296.209 C 289.500 296.051,275.680 295.768,259.400 295.581 C 243.120 295.394,228.689 295.126,227.332 294.986 C 225.034 294.750,224.830 294.796,224.369 295.658 M291.600 303.000 C 291.600 303.622,291.827 304.000,292.200 304.000 C 292.530 304.000,292.755 304.225,292.700 304.500 C 292.645 304.775,292.870 305.000,293.200 305.000 C 294.351 305.000,294.186 302.851,293.001 302.400 C 291.589 301.863,291.600 301.859,291.600 303.000 M293.500 306.676 C 292.462 306.947,292.609 308.078,293.663 307.925 C 294.140 307.856,294.611 308.052,294.717 308.364 C 294.852 308.761,294.705 308.849,294.221 308.663 C 293.767 308.489,293.590 308.569,293.700 308.900 C 293.997 309.791,294.970 309.430,295.376 308.276 C 295.740 307.242,295.228 306.286,294.400 306.453 C 294.290 306.475,293.885 306.575,293.500 306.676 M295.070 311.051 C 295.637 311.916,295.662 312.214,295.227 312.939 C 294.740 313.750,294.751 313.762,295.407 313.134 C 296.213 312.363,295.969 310.627,295.002 310.256 C 294.495 310.062,294.506 310.190,295.070 311.051 M309.700 316.848 C 308.602 317.165,308.400 317.411,308.400 318.435 C 308.400 319.102,308.563 319.546,308.762 319.423 C 308.962 319.300,309.031 318.842,308.917 318.404 C 308.776 317.863,308.947 317.534,309.455 317.371 C 311.922 316.583,312.126 316.147,309.700 316.848 M299.600 318.153 C 299.600 318.703,299.757 319.250,299.950 319.369 C 300.143 319.488,300.300 319.135,300.300 318.585 C 300.300 318.035,300.143 317.488,299.950 317.369 C 299.757 317.250,299.600 317.603,299.600 318.153  M -25 0 L -5 0 L -5 20 L -25 20 Z M 405 0 L 425 0 L 425 20 L 405 20 Z" stroke="none" fill="#a0cb36" fill-rule="evenodd" transform="translate(30,0)"></path><path id="path1" d="M44.338 65.185 C 39.738 68.074,37.095 75.811,39.718 78.709 C 40.093 79.124,40.406 79.719,40.413 80.031 C 40.428 80.710,42.195 82.800,42.754 82.800 C 42.970 82.800,43.247 83.117,43.369 83.504 C 44.117 85.859,52.420 86.922,56.290 85.159 C 57.909 84.421,60.420 84.287,61.038 84.905 C 61.114 84.981,61.193 92.439,61.213 101.478 C 61.248 117.270,61.278 117.905,61.990 117.718 C 63.620 117.292,63.800 118.664,63.800 131.529 L 63.800 143.658 62.496 144.729 L 61.193 145.800 61.196 158.309 L 61.200 170.818 60.268 170.208 C 59.756 169.872,59.216 169.718,59.068 169.865 C 58.921 170.013,58.800 169.962,58.800 169.753 C 58.800 167.804,48.574 167.232,46.402 169.059 C 45.741 169.616,45.200 169.930,45.200 169.757 C 45.200 168.967,42.326 172.344,41.416 174.203 C 40.245 176.597,39.983 181.214,40.940 182.611 C 41.237 183.045,41.598 183.883,41.741 184.473 C 41.885 185.064,42.361 185.661,42.801 185.800 C 43.240 185.940,43.600 186.222,43.600 186.427 C 43.600 189.357,54.043 191.696,57.213 189.476 C 57.991 188.931,59.147 188.798,63.189 188.787 C 66.960 188.778,68.392 188.629,68.976 188.187 C 69.982 187.427,72.285 187.440,73.772 188.216 C 74.727 188.714,76.573 188.819,83.772 188.786 C 95.328 188.732,94.400 189.523,94.400 179.730 C 94.400 170.204,94.907 170.800,86.800 170.800 L 80.800 170.800 80.800 163.200 L 80.800 155.600 93.700 155.570 C 109.205 155.534,110.990 155.469,111.672 154.917 C 112.191 154.498,115.488 153.770,116.126 153.934 C 116.305 153.980,116.911 153.656,117.473 153.214 C 118.035 152.772,118.661 152.514,118.865 152.640 C 119.068 152.766,119.525 152.628,119.879 152.334 C 120.233 152.040,120.540 151.862,120.561 151.937 C 120.583 152.012,121.050 151.892,121.600 151.670 C 122.150 151.447,122.870 151.157,123.200 151.025 C 123.530 150.892,124.520 150.347,125.400 149.813 C 126.280 149.278,127.405 148.656,127.900 148.430 C 128.395 148.205,128.800 147.847,128.800 147.637 C 128.800 147.426,129.186 147.131,129.659 146.981 C 133.244 145.843,143.817 132.561,144.218 128.691 C 144.259 128.302,144.594 127.649,144.963 127.241 C 145.332 126.833,145.745 125.802,145.881 124.950 C 146.016 124.097,146.348 123.040,146.617 122.600 C 146.887 122.160,147.134 120.729,147.167 119.421 C 147.199 118.112,147.310 116.957,147.413 116.854 C 147.516 116.751,147.600 123.897,147.600 132.733 C 147.600 141.570,147.750 148.800,147.934 148.800 C 148.118 148.800,148.300 149.925,148.339 151.300 C 148.452 155.339,148.858 158.157,149.421 158.802 C 149.710 159.133,150.036 160.151,150.146 161.064 C 150.256 161.978,150.532 163.057,150.758 163.463 C 150.984 163.868,151.646 165.190,152.230 166.400 C 154.200 170.485,154.504 170.963,157.829 175.200 C 158.888 176.549,162.771 180.400,163.074 180.402 C 163.253 180.403,163.994 180.960,164.719 181.640 C 165.445 182.320,166.266 182.910,166.545 182.951 C 166.824 182.992,167.559 183.424,168.180 183.913 C 168.800 184.401,169.644 184.800,170.054 184.800 C 170.464 184.800,170.800 184.977,170.800 185.192 C 170.800 185.408,171.295 185.702,171.900 185.846 C 172.505 185.990,173.311 186.377,173.690 186.707 C 174.070 187.037,175.228 187.370,176.263 187.447 C 177.298 187.525,178.248 187.747,178.373 187.940 C 178.498 188.134,178.982 188.411,179.449 188.557 C 180.331 188.832,180.787 190.383,180.796 193.140 C 180.798 193.876,181.088 195.087,181.441 195.829 C 182.047 197.107,182.035 197.276,181.205 198.989 C 180.198 201.069,180.368 203.625,181.604 205.000 C 181.999 205.440,182.820 207.443,183.428 209.450 L 184.533 213.100 186.607 214.150 C 189.109 215.417,194.742 215.676,196.286 214.595 C 196.900 214.165,198.377 213.962,201.375 213.895 L 205.600 213.800 205.600 244.554 C 205.600 278.912,205.844 276.360,203.026 271.500 C 202.420 270.455,201.761 269.600,201.562 269.600 C 201.363 269.600,201.200 269.328,201.200 268.996 C 201.200 268.664,200.570 267.495,199.800 266.400 C 199.030 265.305,198.400 264.315,198.400 264.200 C 198.400 264.085,197.770 263.095,197.000 262.000 C 196.230 260.905,195.600 259.837,195.600 259.627 C 195.600 259.417,195.200 258.965,194.711 258.623 C 194.222 258.280,193.974 258.000,194.160 258.000 C 194.346 258.000,194.274 257.730,194.000 257.400 C 193.726 257.070,193.629 256.800,193.785 256.800 C 193.940 256.800,193.512 256.099,192.834 255.242 C 192.155 254.386,191.595 253.531,191.589 253.342 C 191.577 252.995,188.935 248.849,187.813 247.419 C 187.476 246.989,187.200 246.494,187.200 246.320 C 187.200 246.145,186.570 245.125,185.800 244.053 C 185.030 242.981,184.400 241.984,184.400 241.836 C 184.400 241.584,182.849 239.239,182.392 238.800 C 182.277 238.690,181.954 238.150,181.672 237.600 C 180.538 235.381,179.864 234.190,179.638 234.000 C 179.146 233.587,177.600 231.218,177.600 230.877 C 177.600 230.158,176.165 228.919,175.000 228.633 C 173.635 228.297,172.474 227.371,171.950 226.200 C 171.753 225.760,170.884 224.320,170.019 223.000 C 168.079 220.038,166.176 216.922,164.600 214.125 C 161.160 208.019,156.336 200.853,154.419 199.000 C 152.896 197.528,152.549 197.384,150.082 197.200 C 147.527 197.009,147.372 196.939,146.800 195.709 L 146.200 194.417 138.858 194.409 L 131.516 194.400 129.658 193.109 C 127.216 191.412,119.085 190.954,117.116 192.403 C 116.520 192.841,115.946 193.200,115.841 193.200 C 114.969 193.200,112.158 196.792,111.364 198.922 C 111.075 199.698,110.672 199.222,109.606 196.844 C 109.013 195.521,107.341 193.592,107.044 193.889 C 106.910 194.023,106.800 193.923,106.800 193.667 C 106.800 193.410,106.613 193.200,106.384 193.200 C 106.155 193.200,105.480 192.843,104.884 192.407 C 103.272 191.227,94.341 191.378,93.449 192.600 C 92.902 193.350,92.279 193.413,83.521 193.600 C 74.591 193.791,74.126 193.840,73.035 194.700 C 71.560 195.862,70.262 195.841,69.116 194.638 C 68.258 193.737,67.872 193.667,63.000 193.526 C 58.399 193.392,57.662 193.273,56.600 192.490 C 52.652 189.579,41.872 192.483,40.600 196.800 C 40.438 197.350,40.012 198.134,39.653 198.542 C 38.616 199.720,38.742 205.032,39.843 206.600 C 40.307 207.260,40.616 207.996,40.531 208.235 C 40.321 208.827,44.197 212.400,45.051 212.400 C 45.428 212.400,46.086 212.715,46.512 213.100 C 47.613 214.096,54.624 214.130,55.345 213.143 C 55.746 212.595,56.733 212.476,61.313 212.424 L 66.800 212.362 66.806 226.481 C 66.812 241.147,66.782 240.855,68.560 243.368 C 69.244 244.335,69.316 245.184,69.284 251.908 C 69.246 260.062,69.160 260.359,66.824 260.432 C 66.261 260.449,66.025 260.554,66.300 260.665 C 66.690 260.822,66.800 264.988,66.800 279.604 L 66.800 298.341 60.967 298.470 C 53.468 298.637,54.000 297.933,54.000 307.676 C 54.000 314.656,54.058 315.258,54.797 315.997 C 56.024 317.224,98.529 317.059,99.432 315.824 C 100.202 314.771,100.261 300.509,99.500 299.469 C 98.640 298.294,95.303 298.151,93.284 299.203 C 91.416 300.177,89.947 300.108,88.202 298.964 L 87.200 298.308 87.200 290.954 L 87.200 283.600 113.000 283.600 L 138.800 283.600 138.800 291.800 L 138.800 300.000 137.300 300.013 C 136.475 300.020,135.451 300.290,135.024 300.613 C 134.596 300.936,133.506 301.200,132.600 301.200 C 131.694 301.200,130.604 300.936,130.176 300.613 C 129.155 299.840,127.200 299.845,126.089 300.623 C 124.701 301.595,124.701 316.405,126.089 317.377 C 127.404 318.298,169.220 318.323,170.140 317.403 C 170.882 316.660,171.110 302.127,170.400 300.800 C 169.937 299.935,168.064 299.696,167.349 300.411 C 166.560 301.200,162.963 301.360,161.951 300.651 C 161.440 300.293,160.432 300.000,159.711 300.000 L 158.400 300.000 158.409 268.900 C 158.418 237.961,158.422 237.805,159.200 238.800 C 159.630 239.350,159.986 240.019,159.991 240.286 C 159.996 240.553,160.321 240.943,160.712 241.153 C 161.104 241.363,161.453 241.915,161.488 242.379 C 161.523 242.844,162.103 243.920,162.776 244.770 C 163.449 245.620,164.000 246.478,164.000 246.676 C 164.000 247.070,164.971 248.435,166.141 249.689 C 166.549 250.126,166.913 250.691,166.951 250.944 C 166.988 251.198,167.329 251.849,167.709 252.392 C 168.089 252.934,168.400 253.525,168.400 253.705 C 168.400 254.103,170.043 256.485,170.600 256.894 C 170.820 257.056,170.460 257.209,169.800 257.234 C 168.653 257.278,168.666 257.296,170.099 257.634 C 173.535 258.444,176.548 261.498,175.425 263.033 C 174.855 263.813,175.137 265.140,176.102 266.216 C 177.370 267.632,177.675 268.097,178.063 269.208 C 178.291 269.863,178.640 270.299,178.839 270.176 C 179.038 270.053,179.200 270.200,179.200 270.502 C 179.200 270.804,180.007 272.255,180.994 273.726 C 181.980 275.197,182.685 276.400,182.560 276.400 C 182.435 276.400,182.851 277.075,183.484 277.900 C 184.117 278.725,184.859 279.850,185.133 280.400 C 186.018 282.176,187.900 285.097,188.695 285.929 C 188.973 286.219,189.200 286.701,189.200 287.000 C 189.200 287.299,189.437 287.781,189.726 288.071 C 190.016 288.362,190.744 289.440,191.344 290.466 C 191.945 291.492,192.698 292.549,193.018 292.815 C 193.338 293.081,193.600 293.565,193.600 293.891 C 193.600 294.218,194.140 295.167,194.800 296.000 C 195.460 296.833,196.000 297.725,196.000 297.982 C 196.000 298.238,196.630 299.273,197.400 300.282 C 198.170 301.290,198.800 302.271,198.800 302.462 C 198.800 302.652,199.430 303.705,200.200 304.800 C 200.970 305.895,201.600 306.965,201.600 307.176 C 201.600 307.387,201.825 307.704,202.100 307.880 C 202.557 308.172,202.825 308.572,204.193 311.000 C 205.517 313.352,206.516 314.800,206.813 314.800 C 206.996 314.800,207.260 315.160,207.400 315.600 C 207.540 316.040,207.838 316.400,208.064 316.400 C 208.289 316.400,208.912 316.744,209.447 317.165 C 210.586 318.061,222.475 318.416,224.000 317.600 C 224.759 317.194,224.800 316.763,224.800 309.256 L 224.800 301.339 223.800 300.400 C 222.702 299.368,222.502 297.955,223.337 297.120 C 224.800 295.657,224.800 295.667,224.800 254.184 C 224.800 217.263,224.858 213.537,225.433 213.757 C 225.781 213.891,226.410 214.000,226.830 214.000 C 227.577 214.000,227.598 214.808,227.700 247.100 L 227.805 280.200 227.902 246.895 L 228.000 213.590 229.718 212.755 C 231.328 211.973,231.528 211.959,232.918 212.540 L 234.400 213.159 234.400 244.986 L 234.400 276.812 258.400 276.706 C 271.600 276.648,282.400 276.735,282.400 276.900 C 282.400 277.065,282.631 277.200,282.914 277.200 C 283.575 277.200,286.000 280.341,286.000 281.196 C 286.000 283.279,287.166 283.191,258.000 283.303 L 231.000 283.406 258.124 283.503 C 276.842 283.570,285.167 283.729,284.989 284.018 C 284.847 284.247,285.043 284.911,285.423 285.492 C 285.804 286.073,286.152 287.145,286.196 287.875 C 286.241 288.604,286.575 289.530,286.938 289.932 C 287.302 290.334,287.601 291.099,287.603 291.631 C 287.604 292.164,287.949 293.121,288.368 293.757 C 288.788 294.394,289.037 295.159,288.922 295.459 C 288.783 295.821,289.133 296.087,289.970 296.254 C 291.592 296.578,293.669 300.357,292.901 301.587 C 292.523 302.192,292.579 302.353,293.222 302.522 C 294.281 302.799,294.300 304.796,293.246 305.072 C 292.724 305.209,292.557 305.513,292.702 306.067 C 292.848 306.625,293.145 306.803,293.694 306.660 C 295.474 306.194,296.160 307.422,295.025 309.043 C 294.512 309.776,294.533 309.936,295.225 310.528 C 296.175 311.342,296.214 312.300,295.338 313.269 C 294.942 313.706,294.862 314.000,295.138 314.000 C 295.392 314.000,295.600 314.330,295.600 314.732 C 295.600 315.479,296.210 315.890,298.944 316.980 C 300.021 317.410,300.418 317.776,300.259 318.192 C 299.873 319.196,301.427 319.639,304.904 319.516 C 308.163 319.401,308.201 319.388,308.326 318.308 C 308.427 317.430,308.740 317.139,309.926 316.817 C 312.757 316.048,314.810 312.261,313.610 310.019 C 313.301 309.442,313.433 308.264,314.226 304.500 C 314.425 303.555,316.106 303.201,316.600 304.000 C 316.736 304.220,317.152 304.379,317.524 304.354 C 318.133 304.312,318.131 304.289,317.500 304.124 C 316.654 303.903,316.625 303.265,317.413 302.224 C 317.736 301.796,318.000 301.070,318.000 300.608 C 318.000 300.147,318.360 299.063,318.800 298.200 C 319.240 297.337,319.600 296.329,319.600 295.961 C 319.600 295.593,319.869 294.776,320.198 294.146 C 320.526 293.516,320.796 292.723,320.798 292.385 C 320.799 292.046,321.160 291.063,321.600 290.200 C 322.040 289.337,322.400 288.255,322.400 287.795 C 322.400 287.336,322.616 286.744,322.880 286.480 C 323.144 286.216,323.212 286.000,323.031 286.000 C 322.850 286.000,322.910 285.749,323.165 285.442 C 323.420 285.135,323.600 284.730,323.567 284.542 C 323.398 283.605,323.642 282.379,323.958 282.574 C 324.352 282.817,324.799 281.914,324.802 280.867 C 324.804 280.500,325.087 279.660,325.432 279.000 C 325.777 278.340,326.139 277.181,326.237 276.423 C 326.335 275.666,326.659 274.766,326.957 274.423 C 327.255 274.081,327.626 273.089,327.782 272.220 C 327.938 271.352,328.321 270.277,328.633 269.831 C 328.945 269.386,329.206 268.567,329.213 268.011 C 329.220 267.455,329.490 266.651,329.813 266.224 C 330.136 265.796,330.400 265.042,330.400 264.546 C 330.400 264.051,330.743 263.050,331.163 262.323 C 331.583 261.595,331.920 260.515,331.913 259.921 C 331.906 259.328,332.192 258.550,332.550 258.193 C 332.908 257.835,333.200 257.038,333.200 256.420 C 333.200 255.803,333.456 255.086,333.769 254.826 C 334.082 254.566,334.460 253.630,334.609 252.744 C 334.759 251.859,335.132 250.654,335.438 250.067 C 335.744 249.480,335.996 248.505,335.998 247.900 C 335.999 247.295,336.166 246.800,336.369 246.800 C 336.809 246.800,337.779 244.045,337.453 243.720 C 337.328 243.595,337.580 243.043,338.013 242.492 C 338.446 241.942,338.800 240.908,338.800 240.195 C 338.800 239.482,339.065 238.678,339.389 238.409 C 339.714 238.140,340.084 237.263,340.213 236.460 C 340.342 235.657,340.707 234.522,341.024 233.938 C 341.341 233.354,341.600 232.499,341.600 232.037 C 341.600 231.575,341.960 230.525,342.400 229.704 C 342.840 228.884,343.200 227.930,343.200 227.586 C 343.200 227.242,343.384 226.776,343.609 226.551 C 343.834 226.326,344.099 225.525,344.197 224.771 C 344.296 224.017,344.741 222.687,345.188 221.815 C 345.635 220.944,346.000 219.945,346.000 219.595 C 346.000 219.246,346.184 218.776,346.409 218.551 C 346.634 218.326,346.908 217.445,347.017 216.594 C 347.349 213.995,347.810 213.762,352.382 213.882 C 354.825 213.947,356.400 213.833,356.400 213.594 C 356.400 213.377,356.597 213.200,356.837 213.200 C 357.077 213.200,357.731 212.840,358.291 212.400 C 359.365 211.555,361.383 211.325,361.800 212.000 C 362.753 213.541,367.277 210.098,367.753 207.468 C 367.858 206.889,368.227 206.011,368.572 205.518 C 369.362 204.390,369.393 201.080,368.626 199.662 C 368.311 199.078,367.949 198.150,367.823 197.600 C 367.542 196.374,366.756 195.446,364.329 193.473 C 362.569 192.042,361.601 191.694,359.197 191.628 C 358.442 191.607,356.135 189.544,349.881 183.300 C 340.695 174.128,341.168 174.703,342.000 173.712 C 343.809 171.559,345.224 169.604,345.587 168.758 C 345.813 168.231,346.172 167.530,346.385 167.200 C 347.029 166.202,348.324 163.049,348.608 161.786 C 348.755 161.134,349.115 160.060,349.408 159.400 C 349.788 158.544,349.953 155.948,349.982 150.353 L 350.023 142.507 348.806 142.003 C 348.010 141.673,347.518 141.137,347.381 140.449 C 346.556 136.317,343.271 130.025,340.560 127.385 C 339.647 126.496,338.779 125.213,338.629 124.534 C 338.406 123.517,338.119 123.259,337.012 123.080 C 335.591 122.849,330.000 119.395,330.000 118.748 C 330.000 118.539,330.338 117.880,330.750 117.284 C 332.740 114.410,334.800 110.954,334.800 110.489 C 334.800 110.205,335.052 109.573,335.359 109.086 C 339.005 103.308,337.208 88.281,332.151 82.269 C 331.074 80.989,330.614 79.554,330.913 78.409 C 331.058 77.857,330.719 77.328,329.747 76.586 C 328.993 76.012,328.067 75.212,327.688 74.809 C 327.310 74.406,326.119 73.610,325.042 73.039 C 323.965 72.468,322.836 71.796,322.534 71.545 C 322.231 71.294,321.506 71.036,320.923 70.972 C 320.340 70.908,319.705 70.573,319.512 70.228 C 319.318 69.882,318.669 69.600,318.069 69.600 C 317.469 69.600,316.563 69.309,316.055 68.954 C 315.547 68.598,314.203 68.226,313.067 68.126 C 311.932 68.027,310.732 67.711,310.401 67.426 C 310.023 67.099,308.082 66.819,305.175 66.672 C 302.632 66.543,300.055 66.249,299.449 66.019 C 297.378 65.231,248.614 65.460,247.949 66.260 C 247.533 66.761,247.370 68.890,247.277 75.038 C 247.123 85.240,246.835 84.756,252.903 84.486 C 255.229 84.383,257.777 84.419,258.566 84.567 L 260.000 84.836 260.000 111.758 C 260.000 137.650,260.142 141.200,261.176 141.200 C 261.762 141.200,262.454 144.495,262.193 146.041 C 261.994 147.218,261.742 147.600,261.165 147.600 C 260.208 147.600,260.201 147.539,261.400 149.925 C 262.851 152.813,262.683 155.846,261.059 156.078 C 260.221 156.197,260.197 156.376,260.091 163.500 L 259.982 170.800 255.359 170.800 C 250.747 170.800,250.730 170.797,248.635 169.406 L 246.534 168.011 241.738 168.106 C 237.787 168.183,236.819 168.323,236.242 168.900 C 235.858 169.285,235.330 169.600,235.070 169.600 C 234.441 169.600,232.788 171.421,231.623 173.400 C 230.139 175.919,230.118 182.715,231.589 184.511 C 233.588 186.951,235.107 188.458,235.644 188.537 C 235.998 188.588,236.589 188.931,236.957 189.299 C 238.343 190.685,245.232 190.819,246.702 189.489 C 247.399 188.858,249.029 188.800,266.088 188.800 L 284.712 188.800 284.868 190.128 C 285.066 191.831,284.662 193.429,284.065 193.300 C 283.809 193.245,283.600 193.380,283.600 193.600 C 283.600 193.820,283.465 193.971,283.300 193.936 C 283.135 193.902,282.730 193.988,282.400 194.129 C 282.070 194.270,274.809 194.433,266.265 194.492 L 250.730 194.600 249.765 195.722 C 247.902 197.889,248.501 214.574,250.400 213.400 C 250.589 213.283,250.866 213.384,251.015 213.624 C 251.192 213.910,252.857 214.021,255.837 213.945 C 260.768 213.819,261.116 213.941,261.343 215.891 C 261.423 216.581,261.785 217.443,262.148 217.805 C 262.511 218.168,262.703 218.634,262.575 218.840 C 262.119 219.579,263.232 221.853,264.813 223.413 C 266.547 225.123,268.000 227.529,268.000 228.687 C 268.000 229.549,269.847 234.810,272.393 241.200 C 272.875 242.410,273.405 243.944,273.572 244.609 C 273.739 245.275,274.083 246.208,274.337 246.683 C 274.987 247.897,274.913 249.486,274.145 250.786 C 273.548 251.797,273.545 252.007,274.112 253.144 C 274.454 253.830,274.859 254.979,275.012 255.696 C 275.164 256.413,275.536 257.281,275.837 257.623 C 276.139 257.966,276.469 258.898,276.570 259.693 C 276.672 260.489,276.942 261.468,277.169 261.870 C 277.396 262.271,277.773 263.365,278.006 264.300 C 278.240 265.235,278.604 266.000,278.815 266.000 C 279.027 266.000,279.201 266.495,279.202 267.100 C 279.204 267.705,279.474 268.716,279.802 269.346 C 280.131 269.976,280.402 270.786,280.404 271.146 C 280.406 271.506,280.841 272.696,281.371 273.791 C 281.901 274.886,282.249 275.921,282.144 276.091 C 282.039 276.261,271.343 276.400,258.376 276.400 L 234.800 276.400 234.800 245.171 C 234.800 217.946,234.877 213.866,235.400 213.343 C 236.259 212.483,236.288 196.547,235.432 195.376 C 234.885 194.628,234.220 194.600,216.732 194.600 C 202.615 194.600,198.511 194.488,198.200 194.095 C 197.980 193.818,197.350 193.503,196.800 193.397 C 196.250 193.290,195.233 193.096,194.540 192.964 C 193.135 192.699,192.601 191.375,193.230 189.720 C 193.561 188.851,193.786 188.800,197.301 188.800 C 199.976 188.800,201.265 188.630,201.887 188.194 C 202.362 187.861,203.488 187.518,204.390 187.431 C 205.291 187.344,206.466 186.987,207.000 186.637 C 207.535 186.286,208.239 186.000,208.565 186.000 C 209.287 186.000,212.105 184.526,214.597 182.844 C 215.611 182.160,216.537 181.600,216.655 181.600 C 217.257 181.600,226.000 172.834,226.000 172.230 C 226.000 172.099,226.607 171.128,227.348 170.073 C 228.090 169.018,228.834 167.723,229.001 167.196 C 229.169 166.669,229.552 165.991,229.853 165.690 C 230.154 165.389,230.400 164.795,230.400 164.370 C 230.400 163.945,230.760 162.925,231.200 162.104 C 231.640 161.284,232.000 159.974,232.000 159.195 C 232.000 158.416,232.246 157.423,232.547 156.989 C 233.612 155.454,233.840 145.031,232.837 143.756 C 231.858 142.511,231.759 140.922,232.588 139.739 C 233.106 138.998,233.101 138.711,232.538 137.278 C 231.817 135.444,232.077 132.899,233.022 132.536 C 233.517 132.346,233.600 128.906,233.600 108.582 L 233.600 84.849 235.452 84.571 C 236.470 84.419,238.814 84.388,240.661 84.503 C 245.794 84.823,245.767 84.863,245.936 76.775 C 246.087 69.595,245.854 67.112,244.948 66.205 C 244.422 65.680,241.426 65.600,222.194 65.600 L 200.045 65.600 199.423 66.489 C 198.495 67.813,198.498 83.252,199.426 84.022 C 199.888 84.405,201.555 84.516,205.789 84.446 C 208.945 84.393,212.182 84.473,212.982 84.623 L 214.438 84.896 214.379 117.472 C 214.326 146.828,214.383 150.118,214.960 150.756 C 216.146 152.066,215.498 154.691,213.758 155.622 C 212.707 156.185,211.667 157.582,211.476 158.687 C 211.297 159.720,209.655 161.531,204.751 166.100 C 204.338 166.485,203.730 166.800,203.400 166.800 C 203.070 166.800,202.800 166.991,202.800 167.224 C 202.800 167.457,202.639 167.548,202.442 167.426 C 202.245 167.304,201.976 167.485,201.845 167.828 C 201.713 168.170,201.430 168.342,201.216 168.210 C 201.001 168.077,200.017 168.337,199.030 168.786 C 198.042 169.236,196.461 169.625,195.517 169.651 C 194.573 169.677,193.401 169.946,192.914 170.249 C 191.779 170.955,188.633 170.960,187.486 170.257 C 186.999 169.959,185.790 169.680,184.800 169.636 C 183.810 169.593,182.580 169.284,182.067 168.948 C 181.554 168.613,180.726 168.295,180.228 168.242 C 179.729 168.189,179.069 167.934,178.761 167.676 C 176.681 165.936,173.999 164.032,173.991 164.291 C 173.986 164.461,173.688 164.005,173.330 163.277 C 172.971 162.549,172.210 161.440,171.639 160.812 C 171.067 160.185,170.547 159.430,170.481 159.136 C 170.214 157.930,168.768 155.200,168.398 155.200 C 166.740 155.200,165.979 152.566,167.029 150.461 C 167.653 149.212,167.690 149.199,170.929 149.120 L 174.200 149.039 171.090 148.902 L 167.979 148.766 168.090 135.378 C 168.179 124.494,168.102 122.028,167.678 122.191 C 164.875 123.268,164.071 103.071,166.826 100.800 C 167.640 100.129,168.000 97.244,168.000 91.384 L 168.000 84.887 169.067 84.619 C 169.654 84.472,172.793 84.393,176.043 84.445 C 180.264 84.512,182.121 84.397,182.547 84.044 C 183.460 83.287,183.496 67.791,182.588 66.500 L 181.955 65.600 159.026 65.600 C 131.924 65.600,135.076 64.651,134.800 72.895 L 134.600 78.870 132.975 77.322 C 132.081 76.471,130.461 75.200,129.375 74.498 C 128.289 73.796,127.211 73.081,126.981 72.911 C 125.849 72.072,122.399 70.394,122.388 70.677 C 122.381 70.855,122.192 70.685,121.968 70.300 C 121.744 69.915,121.088 69.600,120.512 69.600 C 119.935 69.600,119.146 69.313,118.759 68.963 C 118.372 68.612,117.219 68.248,116.197 68.152 C 115.175 68.057,113.948 67.735,113.470 67.437 C 112.984 67.134,110.874 66.790,108.693 66.658 C 106.544 66.527,104.441 66.236,104.019 66.010 C 103.524 65.745,95.574 65.594,81.526 65.583 C 60.574 65.566,56.393 65.378,56.079 64.438 C 55.709 63.327,46.347 63.923,44.338 65.185 M53.606 69.941 C 57.788 72.163,57.802 77.456,53.632 79.584 C 47.737 82.591,41.974 75.346,46.730 70.907 C 48.731 69.040,51.246 68.687,53.606 69.941 M146.350 84.650 L 147.600 84.900 147.600 94.917 C 147.600 103.795,147.333 108.273,147.154 102.377 C 147.118 101.180,146.844 99.714,146.544 99.120 C 146.245 98.526,146.000 97.713,146.000 97.314 C 146.000 96.915,145.640 95.916,145.200 95.096 C 144.760 94.275,144.400 93.376,144.400 93.098 C 144.400 92.408,142.546 88.945,141.148 87.021 C 139.441 84.673,139.587 84.400,142.550 84.400 C 143.953 84.400,145.662 84.513,146.350 84.650 M104.254 85.398 C 104.884 85.726,106.413 85.996,107.651 85.998 C 109.117 85.999,110.068 86.200,110.379 86.574 C 110.641 86.890,111.365 87.261,111.989 87.397 C 116.051 88.290,125.200 96.162,125.200 98.766 C 125.200 98.945,125.554 99.542,125.987 100.092 C 126.420 100.643,126.674 101.192,126.553 101.314 C 126.431 101.436,126.602 102.135,126.932 102.868 C 128.554 106.468,128.553 115.919,126.930 118.928 C 126.596 119.548,126.424 120.157,126.548 120.281 C 126.672 120.405,126.420 120.957,125.987 121.508 C 125.554 122.058,125.200 122.665,125.200 122.858 C 125.200 124.280,120.164 129.997,117.600 131.485 C 116.610 132.060,115.708 132.667,115.596 132.834 C 115.484 133.000,114.896 133.261,114.291 133.413 C 113.685 133.565,113.051 133.938,112.880 134.242 C 112.710 134.546,112.038 134.832,111.386 134.877 C 110.733 134.922,109.817 135.199,109.349 135.493 C 108.731 135.882,105.894 136.089,98.949 136.254 C 91.929 136.420,89.109 136.628,88.300 137.040 C 87.695 137.348,86.640 137.893,85.955 138.252 C 84.483 139.023,80.103 138.805,79.550 137.933 C 78.203 135.807,79.336 97.197,80.746 97.201 C 80.886 97.201,80.942 94.411,80.872 91.001 L 80.744 84.800 91.926 84.800 C 101.068 84.800,103.318 84.909,104.254 85.398 M299.875 85.235 C 300.114 85.474,301.815 85.767,303.655 85.886 C 305.651 86.015,307.258 86.327,307.640 86.659 C 307.992 86.965,309.047 87.292,309.984 87.385 C 310.920 87.478,311.996 87.835,312.375 88.177 C 312.753 88.520,313.200 88.800,313.369 88.800 C 314.248 88.800,317.636 92.064,318.600 93.840 C 319.975 96.374,319.911 101.444,318.470 104.139 C 317.442 106.060,315.133 108.806,314.745 108.566 C 314.586 108.468,314.340 108.573,314.200 108.800 C 314.060 109.027,313.777 109.109,313.572 108.983 C 313.368 108.856,313.200 108.920,313.200 109.125 C 313.200 109.330,312.332 109.612,311.270 109.753 C 310.209 109.894,308.994 110.271,308.570 110.592 C 307.931 111.076,305.440 111.177,293.900 111.187 L 280.000 111.200 280.000 98.000 L 280.000 84.800 289.720 84.800 C 296.184 84.800,299.586 84.946,299.875 85.235 M306.937 131.148 C 307.309 131.457,309.037 131.758,311.087 131.872 C 313.018 131.979,314.793 132.228,315.030 132.425 C 315.267 132.621,316.167 132.892,317.030 133.027 C 317.894 133.161,319.185 133.630,319.901 134.069 C 320.616 134.507,321.415 134.795,321.676 134.708 C 321.937 134.621,322.431 134.794,322.775 135.092 C 323.119 135.390,324.341 136.347,325.491 137.219 C 326.641 138.091,327.860 139.343,328.201 140.002 C 328.542 140.661,328.951 141.200,329.110 141.200 C 329.270 141.200,329.428 141.686,329.463 142.278 C 329.497 142.871,329.767 143.546,330.063 143.778 C 330.816 144.370,330.834 154.416,330.083 155.007 C 329.798 155.231,329.516 155.861,329.456 156.407 C 329.344 157.417,327.743 160.213,326.690 161.236 C 323.149 164.677,320.542 166.649,319.036 167.027 C 318.462 167.171,317.894 167.449,317.773 167.644 C 317.652 167.840,317.153 168.000,316.665 168.000 C 316.177 168.000,315.384 168.276,314.902 168.614 C 313.483 169.607,306.042 170.042,292.600 169.916 L 280.200 169.800 280.096 150.053 L 279.992 130.306 293.146 130.462 C 303.281 130.583,306.446 130.740,306.937 131.148 M187.200 156.213 C 188.461 156.508,196.800 156.646,196.800 156.373 C 196.800 156.215,194.505 156.083,191.700 156.079 C 188.895 156.076,186.870 156.136,187.200 156.213 M56.330 175.178 C 58.487 177.272,58.818 178.950,57.533 181.280 C 54.033 187.626,44.470 183.657,46.845 176.844 C 48.068 173.333,53.454 172.388,56.330 175.178 M245.473 174.500 C 248.959 176.871,248.634 181.526,244.828 183.755 C 240.257 186.431,234.236 181.371,236.586 176.828 C 238.245 173.620,242.530 172.497,245.473 174.500 M337.424 188.700 L 343.400 194.600 329.561 194.600 C 315.730 194.600,313.845 194.779,314.611 196.018 C 314.722 196.198,314.625 196.461,314.395 196.603 C 313.731 197.013,313.916 212.131,314.596 213.063 C 315.071 213.714,315.863 213.815,321.392 213.929 C 326.519 214.034,327.571 214.152,327.213 214.585 C 326.972 214.875,326.687 215.797,326.580 216.633 C 326.473 217.469,326.139 218.434,325.837 218.777 C 325.536 219.119,325.165 219.985,325.013 220.700 C 324.861 221.415,324.531 222.000,324.279 222.000 C 324.028 222.000,324.222 222.280,324.711 222.623 C 325.761 223.358,325.823 224.226,324.978 226.338 C 324.007 228.766,323.849 228.790,308.281 228.895 L 294.200 228.989 308.145 229.100 C 321.172 229.203,322.077 229.256,321.880 229.905 C 321.521 231.087,320.694 233.340,320.134 234.660 C 319.840 235.354,319.600 236.209,319.600 236.562 C 319.600 236.914,319.240 237.875,318.800 238.696 C 318.360 239.516,318.000 240.608,318.000 241.120 C 318.000 241.633,317.783 242.446,317.518 242.926 C 317.253 243.407,316.971 244.249,316.891 244.798 C 316.812 245.347,316.472 246.100,316.136 246.471 C 315.800 246.842,315.466 247.782,315.394 248.561 C 315.322 249.339,314.978 250.381,314.631 250.877 C 314.284 251.372,314.000 252.374,314.000 253.102 C 314.000 253.898,313.765 254.515,313.411 254.651 C 313.087 254.776,312.716 255.535,312.587 256.339 C 312.458 257.142,312.082 258.295,311.753 258.901 C 311.423 259.506,311.240 260.140,311.344 260.310 C 311.449 260.480,311.101 261.514,310.571 262.609 C 310.041 263.704,309.606 265.080,309.604 265.667 C 309.602 266.253,309.401 266.800,309.158 266.881 C 308.914 266.962,308.651 267.562,308.572 268.214 C 308.493 268.866,308.062 270.113,307.614 270.985 C 307.166 271.856,306.800 272.945,306.800 273.405 C 306.800 273.864,306.630 274.411,306.422 274.620 C 306.214 274.829,305.936 275.630,305.803 276.400 C 305.580 277.694,304.039 279.870,303.969 278.989 C 303.880 277.855,303.608 277.052,303.235 276.821 C 303.004 276.679,302.736 275.941,302.638 275.181 C 302.540 274.422,302.177 273.260,301.832 272.600 C 301.487 271.940,301.204 270.927,301.202 270.349 C 301.201 269.771,300.950 269.090,300.643 268.836 C 300.337 268.582,299.967 267.574,299.820 266.596 C 299.674 265.619,299.384 264.714,299.177 264.586 C 298.970 264.458,298.800 264.060,298.800 263.703 C 298.800 263.345,298.459 262.321,298.042 261.426 C 297.624 260.532,297.187 259.350,297.070 258.800 C 296.728 257.196,295.240 253.130,294.801 252.601 C 294.579 252.334,294.332 251.552,294.252 250.863 C 294.172 250.174,293.926 249.383,293.705 249.105 C 293.485 248.827,293.184 247.931,293.036 247.113 C 292.889 246.295,292.512 245.369,292.198 245.056 C 291.885 244.742,291.557 243.840,291.470 243.051 C 291.383 242.262,291.082 241.339,290.800 241.000 C 290.518 240.661,290.230 239.733,290.158 238.939 C 290.087 238.145,289.752 237.189,289.414 236.816 C 289.076 236.443,288.800 235.686,288.800 235.135 C 288.800 234.584,288.665 233.998,288.500 233.833 C 288.335 233.668,288.184 233.413,288.165 233.267 C 288.146 233.120,288.026 232.730,287.899 232.400 C 287.771 232.070,287.548 231.260,287.402 230.600 C 287.257 229.940,286.906 229.130,286.623 228.800 C 286.340 228.470,286.003 227.509,285.873 226.664 C 285.744 225.820,285.423 224.869,285.159 224.551 C 284.895 224.233,284.639 223.456,284.589 222.825 C 284.540 222.193,284.207 221.259,283.850 220.749 C 283.492 220.239,283.200 219.358,283.200 218.791 C 283.200 218.224,283.006 217.566,282.769 217.329 C 282.532 217.092,282.191 216.246,282.011 215.449 L 281.684 214.000 284.558 214.000 C 286.641 214.000,287.862 213.780,289.000 213.200 C 290.865 212.249,292.491 212.179,293.738 212.996 C 295.223 213.969,298.050 212.274,301.004 208.638 C 302.824 206.397,303.498 200.662,302.206 198.400 C 301.891 197.850,301.444 196.976,301.211 196.457 C 300.579 195.050,298.699 193.200,297.901 193.200 C 297.318 193.200,297.200 192.830,297.200 191.000 L 297.200 188.800 305.500 188.774 C 314.937 188.745,316.197 188.666,316.935 188.054 C 317.226 187.813,318.388 187.547,319.517 187.463 C 320.647 187.380,322.021 187.016,322.571 186.656 C 323.122 186.295,323.865 186.000,324.224 186.000 C 324.891 186.000,325.491 185.733,329.000 183.880 C 330.100 183.298,331.101 182.818,331.224 182.811 C 331.348 182.805,334.138 185.455,337.424 188.700 M54.143 197.959 C 60.023 201.836,54.913 210.179,48.341 207.433 C 44.365 205.772,43.782 200.553,47.298 198.100 C 48.982 196.926,52.467 196.854,54.143 197.959 M102.855 198.100 C 108.587 202.318,102.796 210.463,96.389 207.195 C 91.125 204.509,93.205 197.200,99.233 197.200 C 101.092 197.200,101.908 197.403,102.855 198.100 M126.276 198.100 C 129.827 200.511,129.254 205.764,125.259 207.433 C 118.687 210.179,113.577 201.836,119.457 197.959 C 121.126 196.858,124.552 196.929,126.276 198.100 M295.178 198.778 C 297.215 200.815,297.570 202.507,296.429 204.742 C 294.526 208.474,289.398 209.095,286.555 205.938 C 281.781 200.635,290.114 193.714,295.178 198.778 M361.183 198.738 C 365.775 203.106,360.656 209.956,354.668 207.454 C 348.774 204.991,350.758 197.210,357.283 197.203 C 359.386 197.200,359.694 197.321,361.183 198.738 M195.500 199.574 C 201.153 203.668,195.857 211.804,189.496 208.799 C 186.297 207.288,185.140 204.086,186.814 201.378 C 188.751 198.244,192.570 197.451,195.500 199.574 M111.360 205.760 C 111.242 206.067,111.341 206.440,111.579 206.587 C 111.818 206.735,111.921 207.004,111.809 207.185 C 111.544 207.615,115.680 212.024,116.456 212.138 C 116.784 212.186,117.532 212.603,118.119 213.065 L 119.187 213.905 119.300 225.253 L 119.413 236.600 119.506 224.946 L 119.600 213.291 121.019 212.618 C 122.691 211.824,124.484 212.084,125.695 213.295 C 126.452 214.052,126.882 214.096,131.954 213.930 C 134.949 213.832,137.715 213.821,138.100 213.905 C 138.752 214.048,138.800 215.106,138.800 229.223 L 138.800 244.388 126.900 244.500 L 115.000 244.612 127.077 244.706 C 139.054 244.799,139.160 244.807,139.777 245.689 C 140.567 246.817,140.572 248.507,139.790 250.020 L 139.179 251.200 134.090 251.286 L 129.000 251.373 133.900 251.499 L 138.800 251.625 138.800 264.012 L 138.800 276.400 112.990 276.400 L 87.179 276.400 87.211 263.596 C 87.228 256.554,87.098 250.569,86.921 250.296 C 86.567 249.749,86.235 213.913,86.571 212.573 C 86.786 211.716,88.308 210.800,89.515 210.800 C 89.888 210.800,91.488 211.440,93.070 212.222 L 95.947 213.643 97.558 212.822 C 99.574 211.793,100.424 211.789,101.709 212.800 C 102.926 213.757,103.341 213.794,104.000 213.000 C 104.274 212.670,104.807 212.400,105.184 212.400 C 106.394 212.400,109.513 208.883,110.773 206.100 C 111.213 205.128,111.714 204.838,111.360 205.760 M355.780 233.400 C 355.780 241.100,355.834 244.193,355.899 240.274 C 355.965 236.355,355.965 230.055,355.899 226.274 C 355.834 222.493,355.780 225.700,355.780 233.400 M288.893 221.200 C 288.893 221.970,288.975 222.285,289.076 221.900 C 289.176 221.515,289.176 220.885,289.076 220.500 C 288.975 220.115,288.893 220.430,288.893 221.200 M103.693 228.800 C 103.693 229.570,103.775 229.885,103.876 229.500 C 103.976 229.115,103.976 228.485,103.876 228.100 C 103.775 227.715,103.693 228.030,103.693 228.800 M126.101 239.000 C 126.105 239.880,126.187 240.193,126.283 239.695 C 126.379 239.198,126.375 238.478,126.275 238.095 C 126.175 237.713,126.096 238.120,126.101 239.000 M139.795 278.249 C 140.565 280.092,140.560 281.193,139.777 282.311 L 139.155 283.200 113.196 283.200 C 84.950 283.200,85.393 283.235,84.971 280.987 C 84.716 279.624,85.562 277.442,86.492 277.068 C 86.771 276.955,98.743 276.849,113.095 276.832 L 139.189 276.800 139.795 278.249 M135.731 291.000 C 135.733 292.540,135.805 293.121,135.892 292.291 C 135.979 291.461,135.977 290.201,135.889 289.491 C 135.800 288.781,135.729 289.460,135.731 291.000 M103.100 292.300 C 107.995 292.363,116.005 292.363,120.900 292.300 C 125.795 292.236,121.790 292.184,112.000 292.184 C 102.210 292.184,98.205 292.236,103.100 292.300 M87.701 296.600 C 87.705 297.480,87.787 297.793,87.883 297.295 C 87.979 296.798,87.975 296.078,87.875 295.695 C 87.775 295.313,87.696 295.720,87.701 296.600 M258.700 302.695 C 259.855 302.776,261.745 302.776,262.900 302.695 C 264.055 302.614,263.110 302.548,260.800 302.548 C 258.490 302.548,257.545 302.614,258.700 302.695 M348.700 304.289 C 349.415 304.378,350.585 304.378,351.300 304.289 C 352.015 304.201,351.430 304.128,350.000 304.128 C 348.570 304.128,347.985 304.201,348.700 304.289 M323.300 311.087 C 323.905 311.178,324.895 311.178,325.500 311.087 C 326.105 310.995,325.610 310.920,324.400 310.920 C 323.190 310.920,322.695 310.995,323.300 311.087 M347.718 311.098 C 349.433 311.173,352.133 311.172,353.718 311.097 C 355.303 311.021,353.900 310.959,350.600 310.960 C 347.300 310.961,346.003 311.022,347.718 311.098  M -25 0 L -5 0 L -5 20 L -25 20 Z M 405 0 L 425 0 L 425 20 L 405 20 Z" stroke="none" fill="#046b3b" fill-rule="evenodd" transform="translate(490,0)"></path><path id="path2" d="M48.401 70.477 C 44.156 72.656,44.816 78.566,49.402 79.427 C 55.309 80.535,58.746 74.440,54.179 70.957 C 52.283 69.511,50.562 69.368,48.401 70.477 M49.276 174.810 C 47.631 175.813,46.678 177.942,47.031 179.825 C 47.860 184.245,54.125 185.400,56.700 181.607 C 59.730 177.144,54.021 171.917,49.276 174.810 M239.016 174.814 C 235.391 177.129,236.103 182.248,240.239 183.613 C 246.019 185.521,250.151 177.892,244.987 174.846 C 243.209 173.796,240.632 173.783,239.016 174.814 M47.744 198.444 C 44.190 200.645,45.204 206.102,49.361 207.148 C 55.135 208.602,58.858 201.842,54.073 198.591 C 52.269 197.366,49.586 197.303,47.744 198.444 M96.095 198.525 C 93.781 200.077,93.351 204.089,95.306 205.900 C 99.390 209.684,106.321 205.615,104.247 200.650 C 103.037 197.754,98.866 196.666,96.095 198.525 M119.760 198.408 C 114.743 201.622,118.368 208.627,124.278 207.139 C 130.106 205.671,128.854 197.596,122.800 197.609 C 121.693 197.612,120.523 197.919,119.760 198.408 M288.076 198.410 C 285.437 200.019,284.950 203.789,287.118 205.809 C 290.798 209.238,296.794 206.744,296.273 202.001 C 295.866 198.284,291.453 196.351,288.076 198.410 M354.257 198.359 C 351.412 200.235,350.831 203.096,352.833 205.376 C 356.205 209.217,362.400 207.290,362.400 202.400 C 362.400 198.618,357.530 196.201,354.257 198.359 M189.314 199.637 C 186.596 201.378,185.890 203.583,187.266 206.031 C 189.896 210.712,197.200 209.219,197.200 204.000 C 197.200 199.947,192.709 197.463,189.314 199.637 M284.311 295.893 C 285.251 295.978,286.691 295.977,287.511 295.891 C 288.330 295.805,287.560 295.736,285.800 295.737 C 284.040 295.739,283.370 295.809,284.311 295.893 M291.059 301.135 C 290.580 301.664,290.528 301.968,290.860 302.300 C 291.339 302.779,292.400 302.057,292.400 301.252 C 292.400 300.482,291.705 300.422,291.059 301.135 M291.855 304.600 C 291.982 304.930,292.216 305.200,292.376 305.200 C 292.536 305.200,292.667 304.930,292.667 304.600 C 292.667 304.270,292.432 304.000,292.146 304.000 C 291.847 304.000,291.723 304.256,291.855 304.600 M293.700 307.887 C 293.425 307.986,293.214 308.367,293.232 308.733 C 293.250 309.112,293.347 309.194,293.457 308.922 C 293.564 308.660,293.910 308.544,294.226 308.665 C 294.542 308.786,294.800 308.697,294.800 308.466 C 294.800 307.915,294.323 307.664,293.700 307.887 M292.480 310.480 C 291.274 311.686,292.344 313.782,294.037 313.531 C 295.430 313.324,295.866 312.266,295.063 311.040 C 294.335 309.929,293.263 309.697,292.480 310.480 M288.480 316.080 C 288.216 316.344,288.000 316.938,288.000 317.400 C 288.000 319.000,288.697 319.200,294.280 319.200 L 299.600 319.200 299.600 318.200 C 299.600 317.515,299.379 317.199,298.900 317.197 C 298.515 317.196,297.660 316.837,297.000 316.400 C 295.585 315.463,289.332 315.228,288.480 316.080 M311.820 316.237 C 311.470 316.587,310.692 317.005,310.092 317.166 C 309.381 317.356,309.000 317.727,309.000 318.229 C 309.000 319.121,318.476 319.607,320.544 318.821 C 321.835 318.330,322.004 316.644,320.826 316.014 C 319.520 315.315,312.570 315.487,311.820 316.237  M -25 0 L -5 0 L -5 20 L -25 20 Z M 405 0 L 425 0 L 425 20 L 405 20 Z" stroke="none" fill="#ecf3f0" fill-rule="evenodd" transform="translate(950,0)"></path></g></svg>