<svg id="splitsvg" version="1.1" xmlns="http://www.w3.org/2000/svg" xmlns:xlink="http://www.w3.org/1999/xlink" width="1380" height="400"><g id="svgg"><path id="path0" d="M46.979 70.103 C 41.410 74.137,46.513 82.173,52.860 79.366 C 57.244 77.427,57.722 72.844,53.838 69.979 C 52.044 68.655,48.900 68.712,46.979 70.103 M355.258 69.471 C 354.426 69.634,353.551 69.929,353.314 70.126 C 353.077 70.323,352.039 70.640,351.007 70.830 C 349.976 71.020,348.585 71.396,347.917 71.665 C 347.248 71.934,345.373 72.580,343.750 73.101 C 335.970 75.598,330.239 80.097,332.475 81.952 C 333.226 82.576,334.955 85.199,335.252 86.165 C 335.389 86.613,335.651 87.166,335.833 87.394 C 336.230 87.891,337.083 91.120,337.497 93.695 C 337.662 94.716,337.874 95.629,337.969 95.724 C 338.292 96.047,339.889 93.241,340.969 90.451 C 343.329 84.355,345.571 80.059,347.216 78.478 C 348.740 77.014,351.187 76.048,351.807 76.668 C 352.421 77.282,351.590 78.819,350.642 78.819 C 349.709 78.819,346.875 81.681,346.875 82.624 C 346.875 82.992,346.718 83.389,346.527 83.508 C 346.335 83.626,345.852 84.455,345.453 85.351 C 345.054 86.246,344.351 87.790,343.891 88.781 C 343.432 89.771,343.056 90.743,343.056 90.940 C 343.056 91.137,342.743 91.855,342.361 92.535 C 341.979 93.215,341.667 93.995,341.667 94.269 C 341.667 95.255,339.519 97.291,338.654 97.126 C 337.907 96.983,337.845 97.089,337.822 98.572 C 337.755 102.807,336.357 108.507,334.661 111.458 C 334.497 111.745,334.169 112.370,333.934 112.847 C 333.557 113.612,331.316 117.045,330.394 118.271 C 330.210 118.516,330.132 118.774,330.221 118.843 C 334.388 122.113,336.271 122.638,337.866 120.973 C 338.524 120.285,340.078 119.054,341.319 118.235 C 353.454 110.234,356.415 103.344,357.135 81.425 C 357.275 77.146,357.572 73.374,357.854 72.293 C 358.736 68.906,358.644 68.805,355.258 69.471 M174.113 94.697 C 173.359 95.600,171.727 97.444,170.486 98.794 C 169.245 100.145,167.565 102.008,166.753 102.935 L 165.278 104.619 165.279 110.383 C 165.281 116.842,165.530 117.019,167.325 111.830 C 167.749 110.606,168.763 108.726,169.580 107.652 C 170.397 106.579,171.900 104.333,172.921 102.663 C 174.157 100.641,174.959 99.660,175.322 99.730 C 176.121 99.882,176.174 101.149,175.438 102.482 C 174.465 104.245,172.205 107.724,171.525 108.507 C 170.447 109.746,169.109 112.480,168.880 113.908 C 168.746 114.747,168.399 115.441,168.009 115.650 C 167.598 115.870,167.361 116.377,167.361 117.037 C 167.361 118.211,166.589 118.711,165.794 118.052 C 165.354 117.686,165.278 117.803,165.278 118.844 C 165.278 120.321,165.962 120.692,167.079 119.820 C 167.520 119.475,168.250 119.077,168.699 118.937 C 169.510 118.682,171.867 117.199,172.215 116.725 C 172.314 116.588,172.795 116.224,173.283 115.914 C 180.211 111.515,182.695 104.407,179.548 97.982 C 179.203 97.278,178.548 95.881,178.093 94.878 C 176.984 92.433,176.038 92.390,174.113 94.697 M88.542 95.671 C 87.682 95.904,86.510 96.348,85.938 96.656 C 85.365 96.965,84.740 97.220,84.549 97.222 C 84.186 97.225,81.862 98.384,79.973 99.504 L 78.869 100.158 78.844 118.677 C 78.815 139.724,78.628 138.424,81.697 138.476 C 84.547 138.525,86.187 137.056,88.211 132.639 C 88.430 132.161,88.824 131.302,89.086 130.729 C 89.895 128.965,91.319 124.264,91.319 123.360 C 91.319 122.888,91.592 121.619,91.924 120.540 C 92.823 117.622,92.811 103.399,91.906 99.653 C 91.560 98.220,91.209 96.714,91.127 96.306 C 90.926 95.303,90.389 95.171,88.542 95.671 M37.795 101.476 C 37.171 101.984,35.764 105.223,35.764 106.150 C 35.764 106.502,35.542 107.106,35.271 107.493 C 35.000 107.880,34.618 108.970,34.421 109.914 C 34.225 110.859,33.822 112.486,33.525 113.531 C 32.248 118.029,33.184 123.123,36.045 127.246 C 38.843 131.279,42.644 134.618,47.222 137.066 C 47.891 137.423,48.750 137.886,49.132 138.094 C 49.514 138.302,50.608 138.820,51.563 139.247 C 52.517 139.673,53.876 140.314,54.583 140.671 C 55.289 141.027,56.148 141.323,56.492 141.327 C 56.837 141.331,57.743 141.618,58.507 141.964 C 60.908 143.053,62.815 143.203,63.138 142.330 C 63.671 140.889,63.239 139.761,62.139 139.721 C 61.424 139.695,60.701 139.223,59.614 138.071 C 58.776 137.184,57.955 136.458,57.790 136.458 C 57.625 136.458,57.172 136.146,56.783 135.764 C 53.902 132.933,50.151 129.514,49.925 129.514 C 49.775 129.514,49.653 129.275,49.653 128.982 C 49.653 128.690,49.414 128.359,49.123 128.247 C 48.831 128.135,48.191 127.359,47.701 126.522 C 47.210 125.685,46.687 125.000,46.537 125.000 C 46.387 125.000,46.065 124.492,45.820 123.872 C 45.575 123.251,45.044 122.274,44.640 121.701 C 43.983 120.770,43.146 119.181,42.537 117.708 C 42.419 117.422,41.873 116.406,41.324 115.451 C 38.951 111.322,38.741 110.763,39.333 110.171 C 40.077 109.427,40.669 109.740,41.519 111.328 C 41.916 112.068,42.407 112.986,42.610 113.368 C 42.814 113.750,43.161 114.453,43.382 114.931 C 43.603 115.408,44.154 116.424,44.607 117.188 C 45.060 117.951,45.443 118.773,45.458 119.013 C 45.474 119.254,45.955 120.098,46.528 120.888 C 47.101 121.679,47.569 122.500,47.569 122.712 C 47.569 122.923,47.882 123.292,48.264 123.531 C 48.646 123.769,48.958 124.136,48.958 124.346 C 48.958 125.108,51.833 128.310,54.186 130.170 C 55.512 131.217,56.597 132.262,56.597 132.490 C 56.597 132.719,56.991 133.164,57.472 133.480 C 57.953 133.795,59.399 135.006,60.684 136.172 L 63.021 138.290 63.258 129.128 C 63.472 120.833,63.255 117.537,62.680 120.349 C 61.990 123.723,61.455 123.948,60.238 121.374 C 58.279 117.235,51.538 110.624,45.093 106.522 C 44.590 106.202,42.990 104.838,41.537 103.491 C 38.709 100.869,38.607 100.814,37.795 101.476 M89.718 108.768 C 89.983 109.188,89.922 109.504,89.482 109.990 C 89.156 110.350,88.889 110.910,88.889 111.234 C 88.889 111.558,88.498 111.971,88.021 112.153 C 87.543 112.334,87.153 112.726,87.153 113.023 C 87.153 113.321,86.870 113.676,86.523 113.813 C 86.177 113.950,85.435 114.589,84.874 115.233 C 84.313 115.878,83.525 116.737,83.123 117.143 C 82.721 117.550,82.175 118.488,81.909 119.228 C 81.352 120.780,80.728 121.154,79.966 120.393 C 78.965 119.392,80.262 117.058,83.904 113.308 C 85.691 111.468,87.153 109.830,87.153 109.669 C 87.153 108.428,89.077 107.752,89.718 108.768 M359.375 114.820 C 357.561 115.100,355.292 115.631,354.334 115.998 C 353.375 116.366,352.281 116.668,351.903 116.669 C 351.525 116.670,350.747 116.982,350.174 117.361 C 349.601 117.741,348.930 118.052,348.684 118.053 C 348.437 118.055,347.812 118.344,347.295 118.696 C 346.778 119.048,345.722 119.750,344.949 120.256 C 344.176 120.763,342.576 122.133,341.393 123.302 L 339.241 125.427 341.146 127.302 C 342.193 128.333,343.528 130.073,344.111 131.168 C 344.694 132.263,345.383 133.550,345.643 134.028 C 346.472 135.552,347.545 138.340,347.645 139.233 C 348.144 143.647,359.155 132.311,363.325 123.090 C 363.843 121.944,364.488 120.604,364.758 120.110 C 365.314 119.093,366.010 116.572,366.091 115.278 C 366.160 114.176,364.342 114.053,359.375 114.820 M360.701 120.404 C 360.773 120.908,360.589 121.269,360.181 121.424 C 359.833 121.556,359.264 122.024,358.916 122.464 C 358.568 122.904,358.158 123.264,358.005 123.264 C 357.852 123.264,356.248 124.709,354.440 126.476 C 349.690 131.117,348.584 131.986,347.569 131.870 C 346.110 131.703,346.569 130.803,349.306 128.462 C 350.738 127.236,351.965 126.104,352.032 125.945 C 352.099 125.786,352.370 125.469,352.634 125.241 C 352.898 125.013,354.249 123.755,355.637 122.447 C 358.968 119.305,360.459 118.703,360.701 120.404 M232.267 134.579 C 231.397 135.627,232.349 135.764,240.489 135.764 C 250.204 135.764,248.906 135.305,256.354 141.378 C 261.760 145.787,262.506 146.188,262.494 144.684 C 262.488 143.974,252.910 135.841,250.868 134.813 C 249.719 134.234,232.730 134.021,232.267 134.579 M240.365 140.538 L 231.944 140.637 231.944 141.499 L 231.944 142.361 240.078 142.361 L 248.211 142.361 249.357 143.316 C 249.987 143.841,250.758 144.505,251.070 144.792 C 253.640 147.150,261.937 154.364,262.186 154.456 C 262.359 154.520,262.496 154.051,262.491 153.414 C 262.483 152.406,262.141 151.967,259.836 150.000 C 254.092 145.098,251.910 143.168,250.513 141.753 C 249.712 140.942,248.995 140.314,248.921 140.358 C 248.846 140.402,244.996 140.483,240.365 140.538 M166.125 152.117 C 165.348 153.374,166.210 153.429,190.300 153.682 C 214.533 153.935,215.625 153.898,215.625 152.826 C 215.625 151.762,166.777 151.063,166.125 152.117 M50.127 173.504 C 47.588 174.001,45.329 177.780,46.159 180.142 C 47.902 185.104,54.246 185.875,57.036 181.463 C 59.641 177.346,55.407 172.469,50.127 173.504 M240.463 173.500 C 236.958 174.480,235.231 178.472,237.003 181.495 C 239.611 185.945,246.303 185.130,247.886 180.169 C 249.063 176.482,244.490 172.374,240.463 173.500 M154.702 186.352 C 153.817 187.270,152.556 188.802,151.900 189.757 C 151.244 190.712,150.235 192.163,149.659 192.981 C 149.083 193.799,148.611 194.622,148.611 194.809 C 148.611 194.995,148.416 195.463,148.177 195.849 C 147.661 196.681,148.357 197.339,149.407 197.013 C 151.509 196.358,154.532 198.293,156.837 201.766 C 157.374 202.574,158.082 203.641,158.410 204.135 C 158.739 204.630,159.364 205.642,159.799 206.384 C 160.234 207.126,160.760 208.023,160.968 208.378 C 161.176 208.733,161.606 209.310,161.923 209.660 C 162.240 210.011,162.500 210.462,162.500 210.662 C 162.500 210.862,162.696 211.189,162.935 211.387 C 163.174 211.586,163.901 212.784,164.551 214.050 C 165.200 215.316,166.006 216.499,166.342 216.679 C 166.678 216.859,167.227 217.750,167.562 218.659 C 167.897 219.569,168.437 220.625,168.761 221.007 C 169.085 221.389,169.794 222.483,170.336 223.438 C 170.877 224.392,171.421 225.252,171.544 225.347 C 171.667 225.443,171.988 225.988,172.258 226.558 C 173.033 228.199,173.585 227.982,176.923 224.724 C 181.134 220.613,181.481 219.711,181.806 212.001 C 182.085 205.386,182.012 205.226,179.294 206.546 C 178.450 206.956,177.324 207.292,176.793 207.292 C 176.262 207.292,175.524 207.521,175.153 207.801 C 174.782 208.082,174.220 208.316,173.903 208.322 C 172.975 208.340,169.766 211.081,169.382 212.184 C 168.583 214.475,167.520 212.658,168.247 210.243 C 169.589 205.783,168.438 202.280,162.893 193.949 C 161.104 191.262,159.494 188.750,159.316 188.368 C 157.454 184.375,156.859 184.115,154.702 186.352 M69.941 187.959 C 69.393 189.388,69.972 195.313,70.660 195.313 C 71.307 195.313,71.361 195.048,71.452 191.406 C 71.547 187.659,71.521 187.500,70.834 187.500 C 70.440 187.500,70.038 187.706,69.941 187.959 M157.426 193.576 C 157.637 193.958,158.434 195.130,159.198 196.181 C 162.245 200.373,162.153 200.155,162.153 203.151 C 162.153 205.307,162.036 205.969,161.628 206.126 C 160.593 206.523,160.069 205.574,160.069 203.299 C 160.069 201.792,159.910 200.994,159.549 200.694 C 159.262 200.457,159.028 200.032,159.028 199.750 C 159.028 199.468,158.598 198.807,158.073 198.282 C 155.985 196.193,155.093 194.370,155.633 193.295 C 156.026 192.514,156.918 192.654,157.426 193.576 M48.958 197.114 C 46.203 197.667,43.909 201.302,44.770 203.753 C 46.479 208.619,52.277 209.441,55.453 205.268 C 58.414 201.378,54.183 196.067,48.958 197.114 M97.569 197.170 C 93.964 198.176,92.063 202.013,93.777 204.825 C 96.520 209.324,102.241 209.033,104.647 204.271 C 106.507 200.590,101.895 195.963,97.569 197.170 M121.201 197.122 C 114.549 198.427,115.753 207.986,122.569 207.986 C 125.713 207.986,129.265 204.494,128.574 202.083 C 127.532 198.444,124.580 196.458,121.201 197.122 M289.733 197.194 C 286.675 197.947,284.544 201.454,285.625 203.955 C 287.763 208.901,293.979 209.446,296.483 204.906 C 298.797 200.712,294.655 195.981,289.733 197.194 M356.069 197.190 C 350.707 198.514,350.112 205.351,355.172 207.512 C 359.656 209.426,364.417 205.581,363.192 201.034 C 362.481 198.392,358.940 196.481,356.069 197.190 M190.625 198.558 C 186.737 199.573,184.920 203.641,186.991 206.689 C 190.011 211.134,197.273 209.641,197.800 204.467 C 198.168 200.857,194.233 197.616,190.625 198.558 M177.712 209.618 C 177.772 210.034,177.534 210.660,177.184 211.010 C 176.112 212.082,174.715 214.723,174.268 216.521 C 174.035 217.461,173.647 218.542,173.406 218.924 C 173.165 219.306,172.859 220.216,172.725 220.948 C 172.449 222.456,171.732 222.923,170.928 222.119 C 170.343 221.533,170.748 219.103,171.692 217.535 C 171.923 217.153,172.214 216.312,172.340 215.667 C 173.071 211.934,177.354 207.111,177.712 209.618 M88.605 211.208 C 88.022 211.911,87.876 248.201,88.456 248.423 C 89.056 248.653,139.950 248.708,140.179 248.478 C 141.287 247.371,140.247 247.311,115.566 247.052 C 101.900 246.909,90.878 246.655,90.538 246.476 C 89.972 246.178,89.931 244.979,89.931 228.850 C 89.931 211.022,89.833 209.728,88.605 211.208 M359.387 212.130 C 359.145 212.583,359.026 228.019,359.022 259.613 C 359.019 286.201,358.884 306.634,358.709 306.910 C 358.349 307.478,351.908 307.486,334.028 306.940 C 328.012 306.757,321.684 306.584,319.965 306.557 C 316.257 306.498,314.945 306.115,314.895 305.079 C 314.872 304.593,314.745 304.756,314.526 305.556 C 313.775 308.291,313.582 308.152,318.229 308.229 C 327.986 308.393,353.229 309.046,356.424 309.219 C 358.333 309.321,360.082 309.278,360.310 309.122 C 360.634 308.899,361.097 216.144,360.795 211.892 C 360.747 211.219,359.788 211.381,359.387 212.130 M98.970 212.312 C 98.616 212.739,98.619 215.499,98.985 226.583 C 99.492 241.907,99.363 241.284,101.877 240.590 C 103.329 240.189,121.036 240.310,121.885 240.727 C 123.393 241.468,123.447 240.899,123.264 226.220 C 123.103 213.352,123.046 212.327,122.483 212.219 C 122.085 212.142,121.873 212.321,121.868 212.735 C 121.864 213.083,121.825 218.888,121.781 225.636 C 121.705 237.329,121.670 237.926,121.027 238.396 C 119.876 239.238,102.650 239.109,101.793 238.251 C 101.099 237.558,100.735 231.467,100.660 219.302 C 100.617 212.372,100.234 210.789,98.970 212.312 M231.063 212.587 C 230.972 212.826,230.938 228.411,230.987 247.222 L 231.076 281.424 258.430 281.513 C 283.043 281.593,285.805 281.547,285.994 281.055 C 286.512 279.705,286.234 279.690,259.451 279.607 C 245.189 279.563,233.322 279.451,233.080 279.358 C 232.728 279.223,232.638 272.584,232.634 246.452 C 232.632 228.447,232.535 213.364,232.420 212.934 C 232.195 212.095,231.334 211.874,231.063 212.587 M290.883 212.934 C 290.793 213.173,290.845 214.774,290.999 216.493 C 291.154 218.212,291.388 221.024,291.520 222.743 C 291.652 224.462,291.872 226.081,292.009 226.341 C 292.377 227.039,324.594 226.933,325.302 226.232 C 326.465 225.079,325.478 225.000,309.900 225.000 C 296.672 225.000,294.420 224.926,293.973 224.479 C 293.425 223.931,293.213 222.477,292.871 216.895 C 292.756 215.015,292.577 213.257,292.474 212.988 C 292.242 212.383,291.105 212.344,290.883 212.934 M249.428 221.349 C 248.361 222.129,249.957 228.603,252.553 234.020 C 254.760 238.625,261.337 245.833,263.332 245.833 C 263.483 245.833,264.003 246.146,264.489 246.528 C 264.974 246.910,265.646 247.222,265.981 247.222 C 266.316 247.222,267.272 247.531,268.104 247.909 C 271.363 249.387,276.094 248.659,274.521 246.922 C 274.212 246.579,273.958 246.207,273.958 246.093 C 273.958 245.980,273.529 245.430,273.003 244.871 C 272.478 244.313,270.799 242.495,269.271 240.832 C 267.743 239.169,266.090 237.377,265.597 236.851 C 265.104 236.324,264.018 234.965,263.185 233.832 C 262.351 232.698,260.997 231.094,260.175 230.268 C 258.607 228.690,258.411 228.187,259.097 227.500 C 259.844 226.753,259.775 226.701,264.261 231.436 C 264.629 231.824,264.931 232.320,264.931 232.538 C 264.931 232.975,271.876 240.740,272.083 240.533 C 272.154 240.462,271.902 239.796,271.523 239.052 C 271.143 238.309,270.833 237.406,270.833 237.046 C 270.833 236.686,270.611 235.977,270.340 235.470 C 269.700 234.274,268.792 231.546,268.278 229.275 C 267.802 227.173,266.718 225.876,264.966 225.312 C 264.278 225.091,263.542 224.773,263.331 224.606 C 262.965 224.318,259.644 223.089,258.160 222.693 C 257.778 222.591,256.450 222.222,255.208 221.873 C 252.060 220.987,250.158 220.815,249.428 221.349 M57.982 240.712 C 56.379 243.340,56.215 250.070,57.703 252.179 C 60.535 256.196,68.750 260.320,68.750 257.726 C 68.750 257.158,68.838 255.930,68.946 254.996 C 69.100 253.669,69.058 253.431,68.755 253.906 C 68.004 255.086,64.931 254.323,64.931 252.957 C 64.931 252.799,64.565 252.186,64.118 251.595 C 63.670 251.004,63.200 250.098,63.073 249.581 C 62.946 249.064,62.341 248.173,61.730 247.602 C 60.745 246.682,60.657 246.451,60.960 245.590 C 61.377 244.404,62.620 244.241,62.778 245.352 C 62.836 245.755,63.266 246.260,63.733 246.473 C 64.215 246.692,64.583 247.155,64.583 247.542 C 64.583 247.916,64.740 248.319,64.931 248.438 C 65.122 248.556,65.278 248.955,65.278 249.326 C 65.278 249.697,65.442 250.000,65.643 250.000 C 65.844 250.000,66.173 250.473,66.375 251.052 C 66.577 251.631,67.194 252.338,67.746 252.624 L 68.750 253.143 68.754 250.443 C 68.756 248.958,68.844 247.196,68.950 246.528 C 69.163 245.187,69.426 245.424,64.710 242.716 C 63.539 242.043,61.839 241.063,60.934 240.538 C 58.870 239.341,58.816 239.344,57.982 240.712 M163.799 260.854 C 162.784 261.869,163.040 301.563,164.063 301.563 C 164.748 301.563,164.758 301.302,164.844 282.292 C 164.947 259.614,164.208 262.153,170.706 262.153 C 175.517 262.153,175.938 262.041,175.155 260.971 C 174.451 260.008,164.745 259.908,163.799 260.854 M84.722 280.035 C 83.423 281.601,83.359 281.597,112.500 281.597 C 141.737 281.597,142.258 281.567,140.112 279.997 C 139.080 279.243,85.349 279.280,84.722 280.035 M90.644 288.194 C 90.500 288.290,90.286 290.995,90.168 294.207 L 89.954 300.045 90.724 299.936 C 91.454 299.832,91.510 299.591,91.840 295.139 L 92.188 290.451 111.438 290.362 C 122.026 290.312,130.806 290.390,130.949 290.535 C 131.093 290.680,131.320 293.173,131.454 296.076 C 131.691 301.199,132.069 302.591,132.870 301.295 C 133.100 300.923,133.058 288.504,132.826 288.268 C 132.651 288.089,90.914 288.016,90.644 288.194 M276.219 297.854 C 276.088 297.984,264.003 298.090,249.362 298.090 C 222.975 298.090,222.743 298.096,222.743 298.785 C 222.743 299.815,226.411 299.927,261.219 299.958 C 291.489 299.985,292.014 300.000,292.014 300.851 C 292.014 301.359,292.864 301.812,293.195 301.481 C 293.599 301.077,293.396 299.976,292.882 299.778 C 292.595 299.668,292.361 299.288,292.361 298.933 C 292.361 298.579,292.051 298.122,291.671 297.919 C 290.910 297.512,276.623 297.451,276.219 297.854 M293.759 302.940 C 293.279 303.518,293.561 304.167,294.291 304.167 C 294.833 304.167,294.987 302.939,294.484 302.628 C 294.314 302.524,293.989 302.664,293.759 302.940 M294.935 307.073 C 294.674 307.752,295.029 308.333,295.704 308.333 C 296.045 308.333,296.190 308.069,296.118 307.579 C 295.983 306.664,295.217 306.336,294.935 307.073  M -25 0 L -5 0 L -5 20 L -25 20 Z M 405 0 L 425 0 L 425 20 L 405 20 Z" stroke="none" fill="#5e35b3" fill-rule="evenodd" transform="translate(30,0)"></path><path id="path1" d="M46.498 66.088 C 37.275 70.445,40.304 83.683,50.521 83.671 C 51.094 83.670,52.812 83.342,54.340 82.941 C 57.569 82.094,61.551 82.045,62.760 82.837 L 63.542 83.349 63.539 99.921 C 63.537 115.873,63.511 116.532,62.847 117.535 C 62.468 118.108,62.156 119.071,62.155 119.676 C 62.149 122.482,61.438 122.502,60.042 119.736 C 58.894 117.463,54.387 112.666,51.281 110.413 C 48.146 108.138,42.403 103.538,40.922 102.115 C 38.512 99.799,36.398 100.701,35.572 104.398 C 35.451 104.939,35.069 106.163,34.723 107.118 C 32.396 113.550,31.801 120.495,33.333 123.355 C 33.715 124.067,34.031 124.846,34.034 125.086 C 34.062 126.986,40.907 134.201,44.618 136.242 C 45.808 136.896,46.676 137.410,47.917 138.195 C 48.394 138.497,49.800 139.180,51.042 139.711 C 52.283 140.243,53.767 140.884,54.340 141.135 C 56.425 142.051,59.231 143.000,60.468 143.208 C 61.165 143.325,62.142 143.741,62.638 144.132 L 63.542 144.842 63.542 158.115 C 63.542 167.976,63.435 171.496,63.125 171.806 C 62.440 172.490,58.677 172.334,57.835 171.586 C 52.145 166.533,42.535 171.204,42.535 179.023 C 42.535 185.443,47.548 189.093,54.470 187.712 C 56.756 187.256,58.823 187.140,63.194 187.220 L 68.924 187.326 69.025 190.799 C 69.185 196.277,69.693 195.833,63.254 195.833 L 57.771 195.833 55.216 194.575 C 48.110 191.074,41.146 195.074,41.146 202.657 C 41.146 209.231,46.653 212.951,53.646 211.102 C 56.743 210.283,67.073 210.052,68.418 210.772 C 69.217 211.200,69.517 244.097,68.722 244.097 C 68.515 244.097,67.413 243.550,66.272 242.882 C 65.132 242.214,64.090 241.666,63.957 241.666 C 63.824 241.666,62.802 241.032,61.686 240.257 C 58.258 237.877,56.966 238.946,56.255 244.753 C 55.717 249.141,56.104 251.236,57.844 253.360 C 59.557 255.450,64.422 258.681,65.857 258.681 C 66.155 258.681,67.007 259.023,67.751 259.441 L 69.103 260.200 69.013 280.187 L 68.924 300.174 62.674 300.347 C 59.236 300.443,56.245 300.637,56.026 300.779 C 55.333 301.230,55.390 314.021,56.088 314.719 C 56.817 315.448,96.082 315.585,96.806 314.861 C 97.393 314.273,97.393 301.352,96.806 300.764 C 96.576 300.535,95.561 300.347,94.549 300.347 C 93.328 300.347,92.696 300.201,92.671 299.913 C 92.480 297.664,92.847 291.100,93.176 290.891 C 93.726 290.541,129.578 290.566,130.131 290.917 C 130.466 291.130,130.551 292.468,130.478 296.381 L 130.382 301.563 129.340 301.680 C 128.767 301.745,128.120 301.945,127.902 302.125 C 127.389 302.549,127.262 314.442,127.757 315.743 L 128.108 316.667 148.069 316.667 C 167.450 316.667,168.042 316.647,168.391 315.995 C 168.601 315.601,168.750 312.660,168.750 308.889 C 168.750 301.910,168.700 301.736,166.696 301.736 C 165.610 301.736,165.599 301.520,165.703 281.597 L 165.799 263.021 170.660 262.921 C 176.615 262.799,176.740 262.828,177.794 264.613 C 178.263 265.405,178.915 266.464,179.243 266.967 C 179.571 267.470,180.097 268.339,180.412 268.898 C 180.727 269.457,181.513 270.667,182.159 271.586 C 182.805 272.505,183.334 273.376,183.334 273.521 C 183.334 273.666,183.929 274.644,184.656 275.694 C 185.382 276.745,186.088 277.839,186.223 278.125 C 186.359 278.411,186.933 279.349,187.499 280.208 C 188.065 281.068,188.690 282.083,188.889 282.465 C 189.088 282.847,189.677 283.819,190.198 284.625 C 190.719 285.431,192.083 287.592,193.229 289.425 C 194.375 291.259,195.582 293.178,195.910 293.689 C 196.239 294.200,196.832 295.165,197.228 295.833 C 197.624 296.502,198.634 298.142,199.474 299.479 C 200.313 300.816,201.421 302.613,201.935 303.472 C 202.450 304.332,203.689 306.285,204.688 307.813 C 205.688 309.340,206.748 311.065,207.044 311.646 C 208.848 315.190,211.932 316.631,217.753 316.652 C 223.003 316.671,222.633 317.315,222.542 308.322 C 222.481 302.354,222.558 300.911,222.952 300.645 C 223.253 300.443,232.423 300.413,247.049 300.566 C 260.035 300.702,270.894 300.774,271.181 300.726 C 271.467 300.679,276.044 300.565,281.352 300.473 L 291.003 300.306 292.093 301.455 C 292.857 302.259,293.158 302.887,293.095 303.546 C 293.023 304.303,293.181 304.532,293.897 304.712 C 294.752 304.927,294.780 305.012,294.571 306.790 C 294.359 308.591,294.380 308.651,295.297 308.881 C 296.150 309.095,296.220 309.230,296.024 310.272 C 295.841 311.250,295.942 311.514,296.689 312.003 C 297.173 312.320,297.569 312.875,297.569 313.236 C 297.569 313.596,297.882 314.474,298.264 315.187 C 298.646 315.900,298.958 316.647,298.958 316.847 C 298.958 318.507,307.353 319.148,309.389 317.643 C 309.954 317.225,310.417 316.696,310.417 316.467 C 310.417 316.239,310.650 315.604,310.935 315.057 C 311.221 314.510,311.464 313.750,311.476 313.368 C 311.488 312.986,311.923 311.892,312.442 310.938 L 313.385 309.201 320.321 309.201 C 324.136 309.201,334.726 309.422,343.855 309.692 C 358.328 310.119,360.517 310.118,360.955 309.680 C 361.389 309.246,361.461 302.552,361.478 260.956 C 361.501 207.015,361.337 211.335,363.413 209.789 C 370.320 204.644,367.466 195.194,358.423 193.269 C 356.660 192.894,356.330 192.610,347.919 184.212 C 338.009 174.318,338.378 174.871,340.213 172.659 C 346.182 165.459,348.833 157.708,348.497 148.438 C 348.407 145.955,348.224 143.429,348.090 142.826 C 347.855 141.765,347.933 141.671,350.372 140.064 C 356.145 136.260,361.233 129.522,365.284 120.313 C 367.703 114.813,367.536 113.542,364.395 113.542 C 362.411 113.542,353.915 115.120,353.316 115.600 C 353.116 115.761,352.416 116.007,351.761 116.147 C 349.043 116.729,342.866 120.649,340.278 123.435 C 338.799 125.027,338.330 125.124,337.532 124.004 L 336.823 123.008 338.290 121.486 C 339.097 120.649,340.460 119.498,341.319 118.930 C 349.946 113.219,354.358 107.507,355.937 100.000 C 357.115 94.399,357.328 92.405,357.630 84.201 C 357.836 78.579,358.158 74.322,358.482 72.917 C 359.496 68.527,359.280 68.159,356.028 68.731 C 354.718 68.962,353.184 69.384,352.620 69.669 C 352.055 69.955,350.805 70.279,349.842 70.390 C 348.878 70.501,347.546 70.881,346.880 71.234 C 346.215 71.586,345.310 71.875,344.870 71.875 C 344.430 71.875,343.457 72.188,342.708 72.569 C 341.960 72.951,341.092 73.264,340.780 73.264 C 340.469 73.264,339.816 73.576,339.331 73.958 C 338.845 74.340,338.242 74.653,337.989 74.653 C 337.212 74.653,334.137 76.963,332.097 79.080 C 331.165 80.046,330.839 80.055,330.007 79.136 C 329.394 78.459,325.320 75.359,323.778 74.397 C 320.145 72.129,313.689 69.855,307.595 68.695 C 303.179 67.854,250.686 67.231,249.906 68.010 C 249.401 68.515,249.467 81.203,249.977 81.715 C 250.236 81.974,252.480 82.180,256.279 82.292 C 261.010 82.431,262.245 82.569,262.510 82.986 C 262.960 83.696,262.949 142.257,262.499 142.535 C 262.315 142.649,259.858 140.891,257.037 138.628 C 254.217 136.366,251.523 134.249,251.051 133.924 C 250.298 133.405,249.102 133.333,241.263 133.333 C 235.942 133.333,232.250 133.199,232.127 133.001 C 231.543 132.055,231.931 83.162,232.526 82.726 C 232.932 82.428,234.617 82.292,237.871 82.292 C 243.897 82.292,243.441 82.935,243.324 74.608 L 243.229 67.882 222.608 67.792 C 208.223 67.730,201.851 67.816,201.535 68.078 C 200.830 68.663,201.016 81.497,201.736 81.952 C 202.023 82.133,205.197 82.283,208.790 82.286 C 212.619 82.289,215.601 82.440,215.995 82.651 C 216.842 83.105,217.076 150.399,216.233 150.923 C 215.763 151.214,166.510 151.093,165.743 150.799 C 165.364 150.653,165.278 147.877,165.278 135.892 L 165.278 121.163 166.302 120.958 C 166.865 120.846,167.592 120.459,167.918 120.099 C 168.244 119.739,168.775 119.444,169.098 119.444 C 169.421 119.444,170.018 119.171,170.424 118.837 C 170.830 118.503,171.729 117.839,172.422 117.361 C 177.789 113.661,181.267 109.103,181.824 105.040 C 182.139 102.744,179.279 94.606,177.550 92.878 C 176.283 91.610,176.063 91.771,169.965 98.411 C 165.550 103.219,165.577 103.192,165.361 102.977 C 164.825 102.441,165.319 83.151,165.880 82.726 C 166.292 82.413,168.325 82.292,173.132 82.292 C 178.741 82.292,179.899 82.204,180.357 81.746 C 181.062 81.041,181.178 68.817,180.486 68.125 C 179.924 67.563,137.311 67.518,136.965 68.079 C 136.549 68.751,136.709 81.292,137.138 81.722 C 137.387 81.972,139.703 82.182,143.432 82.292 C 148.164 82.431,149.397 82.568,149.661 82.986 C 149.861 83.304,149.994 96.754,150.001 117.535 C 150.010 146.647,150.088 151.914,150.540 153.993 C 150.830 155.330,151.206 157.127,151.377 157.986 C 151.547 158.845,151.931 160.017,152.230 160.590 C 152.529 161.163,152.774 161.885,152.776 162.194 C 152.780 163.243,155.913 168.912,158.127 171.875 C 163.342 178.854,171.175 184.091,179.167 185.942 C 183.086 186.850,183.066 186.810,183.266 193.993 C 183.395 198.643,183.324 199.863,182.857 201.031 C 182.546 201.809,182.292 203.059,182.292 203.811 C 182.292 205.121,182.238 205.185,180.990 205.386 C 180.273 205.500,179.195 205.810,178.594 206.073 C 177.993 206.337,176.900 206.665,176.166 206.803 C 174.517 207.112,172.014 208.418,170.750 209.629 C 169.501 210.825,169.265 210.494,169.377 207.703 C 169.497 204.720,167.941 200.243,165.620 196.886 C 161.804 191.367,158.333 185.745,158.333 185.081 C 158.333 184.607,156.806 184.262,155.932 184.539 C 154.935 184.856,148.264 193.266,148.264 194.207 C 148.264 194.346,147.853 195.081,147.350 195.841 L 146.435 197.222 138.740 197.222 C 130.422 197.222,131.141 197.362,128.478 195.226 C 127.942 194.796,127.370 194.443,127.207 194.442 C 127.043 194.441,126.441 194.194,125.868 193.894 C 120.287 190.965,111.974 197.179,112.988 203.521 C 113.572 207.174,116.880 211.111,119.364 211.111 C 119.777 211.111,120.276 211.413,120.474 211.783 C 120.861 212.506,120.999 236.316,120.623 237.298 C 120.391 237.902,103.438 238.145,102.513 237.558 C 101.771 237.087,100.838 212.631,101.520 211.528 C 101.661 211.299,102.041 211.110,102.364 211.110 C 102.687 211.109,103.605 210.674,104.405 210.144 C 111.585 205.380,109.186 195.023,100.521 193.377 C 98.502 192.993,94.047 194.109,92.681 195.339 C 91.705 196.219,73.059 196.054,72.582 195.162 C 72.165 194.382,72.102 188.227,72.505 187.593 C 72.707 187.275,75.145 187.141,81.961 187.072 L 91.146 186.979 91.319 180.208 C 91.545 171.418,92.206 172.258,84.975 172.144 L 78.993 172.049 78.993 163.021 L 78.993 153.993 92.014 153.785 C 99.175 153.671,105.269 153.476,105.556 153.353 C 105.842 153.230,107.561 152.904,109.375 152.628 C 113.162 152.053,117.064 151.030,118.576 150.217 C 119.149 149.909,119.872 149.656,120.183 149.655 C 120.494 149.654,120.930 149.434,121.152 149.166 C 121.374 148.898,121.956 148.579,122.445 148.456 C 122.934 148.334,123.748 147.960,124.254 147.627 C 124.760 147.294,125.429 146.871,125.741 146.687 C 145.152 135.283,151.897 105.976,139.212 88.161 C 138.843 87.643,138.542 87.114,138.542 86.985 C 138.542 84.783,127.985 75.516,122.396 72.811 C 112.430 67.988,112.027 67.938,82.465 67.806 L 57.813 67.695 55.317 66.486 C 52.226 64.990,49.120 64.849,46.498 66.088 M53.838 69.979 C 57.722 72.844,57.244 77.427,52.860 79.366 C 46.513 82.173,41.410 74.137,46.979 70.103 C 48.900 68.712,52.044 68.655,53.838 69.979 M358.333 69.775 C 358.333 70.147,358.118 71.281,357.854 72.293 C 357.572 73.374,357.275 77.146,357.135 81.425 C 356.415 103.344,353.454 110.234,341.319 118.235 C 340.078 119.054,338.524 120.285,337.866 120.973 C 336.271 122.638,334.388 122.113,330.221 118.843 C 330.132 118.774,330.210 118.516,330.394 118.271 C 331.316 117.045,333.557 113.612,333.934 112.847 C 334.169 112.370,334.502 111.745,334.674 111.458 C 338.041 105.829,338.754 91.051,335.833 87.394 C 335.651 87.166,335.389 86.613,335.252 86.165 C 334.955 85.199,333.226 82.576,332.475 81.952 C 330.239 80.097,335.970 75.598,343.750 73.101 C 345.373 72.580,347.248 71.934,347.917 71.665 C 348.585 71.396,349.976 71.020,351.007 70.830 C 352.039 70.640,353.077 70.323,353.314 70.126 C 353.753 69.762,356.137 69.204,357.552 69.135 C 358.108 69.108,358.333 69.292,358.333 69.775 M108.333 83.630 C 109.575 84.035,110.859 84.368,111.187 84.371 C 112.393 84.380,117.658 87.171,120.193 89.146 C 122.989 91.324,127.762 97.400,127.774 98.798 C 127.776 98.996,128.090 99.772,128.472 100.521 C 128.854 101.270,129.167 102.143,129.167 102.462 C 129.167 102.780,129.411 103.625,129.709 104.339 C 134.037 114.697,125.091 131.881,113.053 136.330 C 108.144 138.145,105.217 138.518,95.333 138.592 C 84.555 138.673,85.004 138.847,87.293 135.466 C 88.171 134.169,88.889 132.878,88.889 132.596 C 88.889 132.314,89.042 131.930,89.229 131.743 C 89.674 131.298,91.667 125.538,91.667 124.697 C 91.667 124.339,91.907 123.364,92.201 122.530 C 93.687 118.320,93.514 101.922,91.934 97.053 C 91.055 94.346,90.602 94.047,88.728 94.936 C 88.091 95.238,87.368 95.486,87.123 95.486 C 86.350 95.486,81.180 97.981,80.181 98.836 C 78.888 99.943,78.819 99.558,78.819 91.204 C 78.819 86.748,78.937 82.981,79.080 82.832 C 79.743 82.146,105.976 82.862,108.333 83.630 M307.021 83.824 C 309.068 84.335,311.177 84.979,311.708 85.256 C 312.239 85.533,312.880 85.761,313.133 85.762 C 314.035 85.766,316.859 87.692,318.782 89.615 C 324.202 95.035,323.136 105.424,316.713 109.770 C 314.215 111.459,312.849 111.862,306.357 112.824 C 303.259 113.283,278.595 113.326,278.315 112.873 C 278.030 112.412,278.047 83.393,278.333 82.931 C 278.888 82.033,302.829 82.779,307.021 83.824 M178.093 94.878 C 178.548 95.881,179.203 97.278,179.548 97.982 C 182.695 104.407,180.211 111.515,173.283 115.914 C 172.795 116.224,172.314 116.588,172.215 116.725 C 171.867 117.199,169.510 118.682,168.699 118.937 C 168.250 119.077,167.520 119.475,167.079 119.820 C 165.383 121.144,165.278 120.707,165.278 112.342 L 165.278 104.619 166.753 102.935 C 167.565 102.008,169.245 100.145,170.486 98.794 C 171.727 97.444,173.359 95.600,174.113 94.697 C 176.038 92.390,176.984 92.433,178.093 94.878 M91.127 96.306 C 91.209 96.714,91.560 98.220,91.906 99.653 C 92.811 103.399,92.823 117.622,91.924 120.540 C 91.592 121.619,91.319 122.888,91.319 123.360 C 91.319 124.264,89.895 128.965,89.086 130.729 C 88.824 131.302,88.430 132.161,88.211 132.639 C 86.187 137.056,84.547 138.525,81.697 138.476 C 78.628 138.424,78.815 139.724,78.844 118.677 L 78.869 100.158 79.973 99.504 C 81.862 98.384,84.186 97.225,84.549 97.222 C 84.740 97.220,85.365 96.965,85.938 96.656 C 88.647 95.196,90.874 95.045,91.127 96.306 M41.537 103.491 C 42.990 104.838,44.590 106.202,45.093 106.522 C 51.538 110.624,58.279 117.235,60.238 121.374 C 61.451 123.939,61.995 123.717,62.671 120.385 C 62.779 119.852,62.993 119.494,63.147 119.589 C 63.494 119.803,63.242 142.434,62.889 142.797 C 62.439 143.261,58.207 142.142,54.688 140.629 C 52.286 139.596,49.853 138.486,49.132 138.094 C 48.750 137.886,47.891 137.423,47.222 137.066 C 36.620 131.398,31.130 121.966,33.525 113.531 C 33.822 112.486,34.225 110.859,34.421 109.914 C 34.618 108.970,35.000 107.880,35.271 107.493 C 35.542 107.106,35.764 106.502,35.764 106.150 C 35.764 104.532,37.709 101.042,38.611 101.042 C 38.768 101.042,40.084 102.144,41.537 103.491 M366.091 115.278 C 366.010 116.572,365.314 119.093,364.758 120.110 C 364.488 120.604,363.843 121.944,363.325 123.090 C 359.155 132.311,348.144 143.647,347.645 139.233 C 347.545 138.340,346.472 135.552,345.643 134.028 C 345.383 133.550,344.694 132.263,344.111 131.168 C 343.528 130.073,342.193 128.333,341.146 127.302 L 339.241 125.427 341.393 123.302 C 342.576 122.133,344.176 120.763,344.949 120.256 C 345.722 119.750,346.778 119.048,347.295 118.696 C 347.812 118.344,348.437 118.055,348.684 118.053 C 348.930 118.052,349.601 117.741,350.174 117.361 C 350.747 116.982,351.525 116.670,351.903 116.669 C 352.281 116.668,353.375 116.366,354.334 115.998 C 358.757 114.302,366.181 113.847,366.091 115.278 M307.515 128.742 C 311.517 129.181,317.226 130.350,319.792 131.255 C 329.069 134.530,333.333 140.214,333.333 149.306 C 333.333 152.094,332.400 156.847,331.555 158.361 C 330.181 160.823,328.698 162.846,327.198 164.304 C 324.643 166.788,323.548 167.484,318.216 170.016 C 317.164 170.515,314.041 171.265,310.417 171.889 C 308.131 172.283,279.178 172.329,278.566 171.940 C 277.925 171.533,277.903 128.833,278.544 128.407 C 279.137 128.014,303.441 128.294,307.515 128.742 M250.868 134.813 C 252.910 135.841,262.488 143.974,262.494 144.684 C 262.506 146.188,261.760 145.787,256.354 141.378 C 248.906 135.305,250.204 135.764,240.489 135.764 C 232.349 135.764,231.397 135.627,232.267 134.579 C 232.730 134.021,249.719 134.234,250.868 134.813 M249.377 137.159 C 250.084 137.357,250.866 137.717,251.113 137.960 C 251.360 138.204,253.281 139.790,255.382 141.485 C 262.617 147.324,262.838 147.553,262.843 149.198 C 262.849 151.360,262.427 151.304,259.467 148.746 C 257.984 147.465,255.833 145.626,254.688 144.659 C 253.542 143.693,251.943 142.234,251.134 141.416 L 249.664 139.931 241.021 139.931 C 234.166 139.931,232.296 139.833,231.986 139.459 C 231.466 138.833,231.877 136.870,232.557 136.737 C 233.880 136.477,248.227 136.837,249.377 137.159 M250.513 141.753 C 251.910 143.168,254.092 145.098,259.836 150.000 C 262.141 151.967,262.483 152.406,262.491 153.414 C 262.496 154.051,262.359 154.520,262.186 154.456 C 261.937 154.364,253.640 147.150,251.070 144.792 C 250.758 144.505,249.987 143.841,249.357 143.316 L 248.211 142.361 240.078 142.361 L 231.944 142.361 231.944 141.499 L 231.944 140.637 240.365 140.538 C 244.996 140.483,248.846 140.402,248.921 140.358 C 248.995 140.314,249.712 140.942,250.513 141.753 M253.046 147.483 C 255.852 149.918,258.986 152.691,260.011 153.646 C 261.035 154.601,262.092 155.507,262.360 155.660 C 262.896 155.965,263.096 170.946,262.576 171.765 C 262.138 172.453,249.129 172.480,248.350 171.794 C 241.075 165.391,229.560 173.628,233.354 182.521 C 235.457 187.451,243.131 189.825,247.035 186.754 C 248.024 185.976,249.171 185.927,249.876 186.632 C 250.325 187.081,252.841 187.153,268.229 187.153 C 288.596 187.153,286.826 186.835,287.449 190.607 C 287.904 193.357,287.668 194.231,286.381 194.577 C 285.946 194.694,284.987 195.337,284.250 196.006 L 282.909 197.222 267.346 197.222 C 252.821 197.222,251.771 197.263,251.610 197.830 C 251.313 198.876,251.416 210.096,251.731 210.924 C 252.017 211.676,252.208 211.712,256.137 211.755 C 262.273 211.821,263.269 212.437,264.081 216.667 C 264.209 217.335,264.505 218.194,264.739 218.576 C 264.973 218.958,265.352 220.028,265.581 220.952 C 265.811 221.877,266.240 223.003,266.536 223.454 C 267.506 224.935,266.367 225.473,264.416 224.456 C 261.445 222.907,255.179 220.921,252.384 220.643 C 248.278 220.235,247.609 221.761,249.343 227.580 C 250.319 230.853,252.618 235.923,253.696 237.180 C 253.955 237.482,254.167 237.902,254.167 238.114 C 254.167 238.559,259.813 244.372,261.111 245.265 C 264.579 247.649,267.937 248.872,271.815 249.165 C 275.350 249.432,276.083 249.991,276.604 252.818 C 276.723 253.464,277.033 254.334,277.292 254.752 C 277.552 255.169,277.915 256.106,278.099 256.835 C 278.283 257.564,278.920 259.488,279.514 261.111 C 280.108 262.734,280.733 264.531,280.903 265.104 C 281.073 265.677,281.698 267.474,282.292 269.097 C 282.885 270.720,283.511 272.517,283.683 273.090 C 283.854 273.663,284.323 275.052,284.726 276.177 C 285.129 277.302,285.327 278.354,285.166 278.515 C 284.839 278.842,234.195 278.964,233.669 278.638 C 233.022 278.239,233.233 213.006,233.885 211.746 C 234.457 210.640,234.742 198.444,234.216 197.593 C 234.058 197.338,228.588 197.222,216.712 197.222 L 199.437 197.222 196.971 196.007 C 195.614 195.339,194.052 194.792,193.499 194.792 C 191.695 194.792,191.384 194.237,191.259 190.799 L 191.146 187.674 194.271 187.307 C 199.855 186.651,207.210 184.521,210.417 182.630 C 210.703 182.461,211.797 181.824,212.847 181.215 C 224.063 174.709,231.242 161.771,231.726 147.189 C 231.876 142.683,231.118 143.056,240.139 143.056 L 247.944 143.056 253.046 147.483 M210.156 151.965 C 215.135 152.172,215.625 152.249,215.625 152.826 C 215.625 153.898,214.533 153.935,190.300 153.682 C 166.210 153.429,165.348 153.374,166.125 152.117 C 166.390 151.688,200.643 151.571,210.156 151.965 M201.476 154.397 C 217.482 154.663,216.136 154.169,213.802 158.927 C 212.135 162.327,208.262 166.655,205.595 168.099 C 199.092 171.621,196.869 172.221,190.303 172.227 C 179.175 172.238,171.732 167.522,167.326 157.666 C 166.727 156.327,166.328 154.991,166.441 154.699 C 166.678 154.081,177.098 153.992,201.476 154.397 M54.444 174.008 C 59.085 176.255,58.927 181.690,54.158 183.830 C 51.655 184.954,49.466 184.483,47.523 182.403 C 43.271 177.849,48.721 171.238,54.444 174.008 M245.606 174.540 C 249.928 177.577,248.222 183.274,242.617 184.524 C 240.989 184.887,238.066 183.310,237.003 181.495 C 233.961 176.304,240.543 170.982,245.606 174.540 M340.565 188.227 C 345.796 193.397,348.598 196.408,348.475 196.728 C 348.315 197.145,345.891 197.222,332.893 197.222 C 321.384 197.222,317.395 197.327,317.083 197.639 C 316.432 198.290,316.503 210.550,317.162 211.209 C 317.548 211.595,319.020 211.719,323.845 211.772 C 330.597 211.846,330.932 211.943,330.252 213.633 C 330.004 214.251,329.668 215.226,329.507 215.799 C 328.951 217.774,328.030 220.318,327.215 222.135 L 326.396 223.958 311.723 223.963 C 303.652 223.966,296.711 224.058,296.299 224.169 C 294.819 224.566,294.231 223.381,293.763 219.057 C 293.108 213.008,293.297 211.367,294.680 211.086 C 300.935 209.815,302.863 200.785,297.924 195.888 C 295.849 193.831,295.455 192.709,295.345 188.542 L 295.313 187.326 302.951 187.127 C 310.711 186.923,317.112 186.195,319.538 185.238 C 320.258 184.954,321.124 184.722,321.461 184.722 C 321.799 184.722,322.655 184.427,323.363 184.066 C 324.072 183.704,325.081 183.302,325.607 183.171 C 326.132 183.039,326.797 182.728,327.083 182.479 C 327.370 182.230,327.995 181.908,328.472 181.764 C 328.950 181.620,329.713 181.211,330.168 180.855 C 331.751 179.619,332.126 179.886,340.565 188.227 M158.206 186.285 C 158.638 187.049,159.138 187.986,159.316 188.368 C 159.494 188.750,161.104 191.262,162.893 193.949 C 168.438 202.280,169.589 205.783,168.247 210.243 C 167.520 212.658,168.583 214.475,169.382 212.184 C 169.766 211.081,172.975 208.340,173.903 208.322 C 174.220 208.316,174.782 208.082,175.153 207.801 C 175.524 207.521,176.262 207.292,176.793 207.292 C 177.324 207.292,178.450 206.956,179.294 206.546 C 182.012 205.226,182.085 205.386,181.806 212.001 C 181.481 219.711,181.134 220.613,176.923 224.724 C 173.585 227.982,173.033 228.199,172.258 226.558 C 171.988 225.988,171.667 225.443,171.544 225.347 C 171.421 225.252,170.877 224.392,170.336 223.438 C 169.794 222.483,169.085 221.389,168.761 221.007 C 168.437 220.625,167.897 219.569,167.562 218.659 C 167.227 217.750,166.678 216.859,166.342 216.679 C 166.006 216.499,165.200 215.316,164.551 214.050 C 163.901 212.784,163.174 211.586,162.935 211.387 C 162.696 211.189,162.500 210.862,162.500 210.662 C 162.500 210.462,162.240 210.011,161.923 209.660 C 161.606 209.310,161.176 208.733,160.968 208.378 C 160.760 208.023,160.234 207.126,159.799 206.384 C 159.364 205.642,158.739 204.630,158.410 204.135 C 158.082 203.641,157.374 202.574,156.837 201.766 C 154.532 198.293,151.509 196.358,149.407 197.013 C 148.357 197.339,147.661 196.681,148.177 195.849 C 148.416 195.463,148.611 194.995,148.611 194.809 C 148.611 194.622,149.083 193.799,149.659 192.981 C 150.235 192.163,151.244 190.712,151.900 189.757 C 155.213 184.935,156.911 184.000,158.206 186.285 M71.452 191.406 C 71.361 195.048,71.307 195.313,70.660 195.313 C 70.019 195.313,69.958 195.048,69.865 191.865 C 69.751 187.924,69.845 187.500,70.834 187.500 C 71.521 187.500,71.547 187.659,71.452 191.406 M53.899 198.106 C 56.631 199.905,57.275 202.875,55.453 205.268 C 52.919 208.598,48.851 208.919,46.125 206.003 C 41.557 201.117,48.211 194.358,53.899 198.106 M102.511 198.106 C 105.571 200.122,105.907 203.385,103.345 206.194 C 101.320 208.412,97.039 208.521,94.904 206.408 C 89.951 201.505,96.621 194.226,102.511 198.106 M126.068 198.149 C 127.178 198.884,128.049 200.251,128.574 202.083 C 128.656 202.370,128.487 203.229,128.197 203.993 C 126.392 208.751,120.274 209.410,117.456 205.151 C 114.160 200.171,120.875 194.712,126.068 198.149 M294.818 198.149 C 298.168 200.366,297.878 205.145,294.270 207.189 C 289.659 209.800,283.780 205.384,285.755 200.793 C 287.338 197.113,291.443 195.916,294.818 198.149 M361.362 198.492 C 366.384 202.574,361.222 210.095,355.172 207.512 C 350.112 205.351,350.707 198.514,356.069 197.190 C 357.879 196.743,359.788 197.213,361.362 198.492 M195.486 199.622 C 197.204 200.962,197.990 202.607,197.800 204.467 C 197.273 209.641,190.011 211.134,186.991 206.689 C 183.597 201.695,190.636 195.839,195.486 199.622 M184.436 209.635 C 186.849 212.455,190.627 213.563,194.618 212.621 C 198.327 211.746,206.116 211.577,206.974 212.353 C 207.731 213.038,208.050 280.955,207.299 281.419 C 206.679 281.802,205.740 280.978,204.863 279.280 C 204.387 278.358,203.441 276.745,202.761 275.694 C 200.933 272.869,199.680 270.873,197.743 267.702 C 196.788 266.138,195.343 263.847,194.531 262.611 C 193.720 261.374,193.056 260.280,193.056 260.180 C 193.056 260.011,191.090 256.898,187.587 251.517 C 186.775 250.271,186.111 249.146,186.111 249.018 C 186.110 248.890,185.516 247.925,184.789 246.875 C 184.062 245.825,183.376 244.722,183.264 244.425 C 183.151 244.128,182.184 242.598,181.113 241.026 C 180.043 239.454,179.166 238.056,179.165 237.921 C 179.163 237.785,178.461 236.658,177.604 235.417 C 176.747 234.175,176.045 233.041,176.044 232.896 C 176.043 232.751,175.495 231.854,174.826 230.903 C 173.257 228.670,173.095 229.085,177.016 225.319 C 181.699 220.821,182.608 218.202,182.637 209.115 C 182.640 208.367,183.584 208.640,184.436 209.635 M87.186 211.372 C 87.427 212.003,87.522 218.479,87.468 230.500 C 87.403 244.856,87.479 248.730,87.826 248.945 C 88.068 249.094,99.851 249.331,114.011 249.471 C 130.713 249.637,139.911 249.851,140.195 250.082 C 140.537 250.361,140.613 253.524,140.542 264.542 L 140.451 278.646 112.500 278.646 L 84.549 278.646 84.460 245.003 C 84.395 220.433,84.477 211.233,84.763 210.888 C 85.458 210.051,86.784 210.316,87.186 211.372 M94.935 210.932 C 96.064 211.201,97.202 211.637,97.465 211.900 C 97.966 212.400,98.767 235.779,98.385 238.747 C 98.032 241.495,97.579 241.403,111.425 241.403 C 119.754 241.403,123.787 241.283,124.043 241.026 C 124.304 240.766,124.395 236.295,124.341 226.488 C 124.250 210.020,124.118 210.738,127.126 211.378 C 128.153 211.597,131.172 211.788,133.836 211.804 C 136.882 211.823,139.007 211.991,139.565 212.258 L 140.451 212.683 140.451 229.345 L 140.451 246.007 115.853 245.975 C 95.309 245.949,91.206 245.864,90.958 245.463 C 90.510 244.738,90.527 211.943,90.976 211.104 C 91.407 210.298,92.146 210.266,94.935 210.932 M89.931 228.850 C 89.931 244.979,89.972 246.178,90.538 246.476 C 90.878 246.655,101.900 246.909,115.566 247.052 C 140.247 247.311,141.287 247.371,140.179 248.478 C 139.950 248.708,89.056 248.653,88.456 248.423 C 87.876 248.201,88.022 211.911,88.605 211.208 C 89.833 209.728,89.931 211.022,89.931 228.850 M228.970 211.797 L 229.861 212.136 229.861 246.189 C 229.861 276.035,229.927 280.369,230.391 281.267 L 230.921 282.292 258.603 282.297 C 288.704 282.303,287.029 282.171,287.704 284.594 C 288.363 286.956,289.530 290.337,289.932 291.048 C 290.118 291.376,290.437 292.389,290.641 293.299 C 290.845 294.209,291.256 295.224,291.555 295.554 C 292.884 297.023,292.367 297.103,280.153 297.314 C 265.763 297.563,222.950 297.210,222.721 296.840 C 222.364 296.261,222.575 212.703,222.935 212.343 C 223.132 212.146,224.185 211.890,225.275 211.773 C 226.365 211.656,227.442 211.537,227.668 211.509 C 227.895 211.481,228.481 211.611,228.970 211.797 M288.979 212.121 C 290.102 212.548,290.361 214.383,290.764 224.744 C 290.881 227.775,289.646 227.578,307.898 227.475 C 326.512 227.369,325.870 227.277,324.726 229.878 C 323.938 231.668,323.375 233.221,322.718 235.417 C 322.461 236.276,321.837 238.073,321.332 239.410 C 320.827 240.747,320.200 242.543,319.939 243.403 C 319.114 246.114,318.057 249.110,317.707 249.728 C 317.522 250.056,317.219 250.915,317.035 251.638 C 316.613 253.298,315.396 256.782,314.739 258.212 C 314.462 258.814,314.236 259.552,314.236 259.852 C 314.236 260.152,313.945 261.066,313.589 261.883 C 312.937 263.378,312.020 265.953,311.452 267.882 C 310.875 269.839,309.712 273.089,309.374 273.686 C 309.188 274.014,308.887 274.873,308.704 275.596 C 308.521 276.319,307.886 278.238,307.293 279.861 C 306.170 282.933,306.075 283.236,305.743 284.809 C 305.322 286.808,303.607 285.047,302.954 281.944 C 302.813 281.276,302.548 280.543,302.364 280.315 C 302.181 280.087,301.816 279.149,301.555 278.231 C 300.771 275.486,299.972 273.133,299.575 272.404 C 299.369 272.026,299.002 271.010,298.759 270.147 C 298.515 269.283,297.905 267.483,297.402 266.146 C 296.899 264.809,296.270 263.012,296.005 262.153 C 294.964 258.779,294.377 257.089,294.019 256.431 C 293.814 256.054,293.443 255.038,293.195 254.175 C 292.510 251.786,291.651 249.249,291.135 248.090 C 290.621 246.938,289.773 244.430,289.066 241.973 C 288.812 241.091,288.446 240.075,288.252 239.716 C 287.901 239.066,287.184 237.007,286.271 234.028 C 286.007 233.168,285.379 231.372,284.874 230.035 C 284.369 228.698,283.744 226.901,283.485 226.042 C 283.226 225.182,282.605 223.385,282.106 222.049 C 281.606 220.712,280.992 218.915,280.740 218.056 C 280.489 217.196,280.023 215.891,279.705 215.155 C 278.938 213.378,279.107 212.062,280.134 211.819 C 281.387 211.524,288.001 211.749,288.979 212.121 M360.795 211.892 C 361.097 216.144,360.634 308.899,360.310 309.122 C 360.082 309.278,358.333 309.321,356.424 309.219 C 353.229 309.046,327.986 308.393,318.229 308.229 C 313.582 308.152,313.775 308.291,314.526 305.556 C 314.745 304.756,314.872 304.593,314.895 305.079 C 314.945 306.115,316.257 306.498,319.965 306.557 C 321.684 306.584,328.012 306.757,334.028 306.940 C 351.908 307.486,358.349 307.478,358.709 306.910 C 358.884 306.634,359.019 286.201,359.022 259.613 C 359.026 228.019,359.145 212.583,359.387 212.130 C 359.788 211.381,360.747 211.219,360.795 211.892 M100.390 212.873 C 100.519 213.336,100.641 216.229,100.660 219.302 C 100.735 231.467,101.099 237.558,101.793 238.251 C 102.650 239.109,119.876 239.238,121.027 238.396 C 121.670 237.926,121.705 237.329,121.781 225.636 C 121.825 218.888,121.864 213.083,121.868 212.735 C 121.873 212.321,122.085 212.142,122.483 212.219 C 123.046 212.327,123.103 213.352,123.264 226.220 C 123.447 240.899,123.393 241.468,121.885 240.727 C 121.036 240.310,103.329 240.189,101.877 240.590 C 99.363 241.284,99.492 241.907,98.985 226.583 C 98.619 215.499,98.616 212.739,98.970 212.312 C 99.549 211.614,100.099 211.832,100.390 212.873 M358.242 258.889 C 358.289 285.851,358.193 305.936,358.015 306.217 C 357.751 306.633,355.658 306.645,343.697 306.301 C 335.992 306.080,326.719 305.883,323.090 305.865 C 319.175 305.845,316.317 305.687,316.059 305.477 C 315.509 305.028,315.482 301.263,316.022 300.254 C 316.241 299.845,316.622 298.801,316.870 297.933 C 317.118 297.064,317.732 295.260,318.235 293.924 C 318.738 292.587,319.362 290.790,319.622 289.931 C 320.255 287.836,321.197 285.130,321.737 283.854 C 322.247 282.646,323.121 280.033,323.781 277.737 C 324.035 276.855,324.401 275.839,324.595 275.480 C 324.935 274.852,325.535 273.115,326.561 269.792 C 326.826 268.932,327.459 267.135,327.967 265.799 C 328.476 264.462,329.103 262.665,329.362 261.806 C 329.621 260.946,330.246 259.149,330.751 257.813 C 331.256 256.476,331.883 254.679,332.145 253.819 C 332.764 251.783,333.971 248.278,334.355 247.396 C 334.751 246.489,335.700 243.648,336.281 241.626 C 336.535 240.744,336.901 239.728,337.095 239.369 C 337.447 238.718,338.164 236.660,339.077 233.681 C 339.340 232.821,339.968 231.024,340.473 229.688 C 340.978 228.351,341.603 226.554,341.862 225.694 C 342.121 224.835,342.747 223.038,343.252 221.701 C 343.758 220.365,344.354 218.646,344.578 217.882 C 345.146 215.935,346.241 213.099,346.613 212.608 C 347.103 211.960,348.092 211.864,353.299 211.960 L 358.160 212.049 358.242 258.889 M232.420 212.934 C 232.535 213.364,232.632 228.447,232.634 246.452 C 232.638 272.584,232.728 279.223,233.080 279.358 C 233.322 279.451,245.189 279.563,259.451 279.607 C 286.234 279.690,286.512 279.705,285.994 281.055 C 285.805 281.547,283.043 281.593,258.430 281.513 L 231.076 281.424 230.987 247.222 C 230.938 228.411,230.972 212.826,231.063 212.587 C 231.334 211.874,232.195 212.095,232.420 212.934 M292.474 212.988 C 292.577 213.257,292.756 215.015,292.871 216.895 C 293.213 222.477,293.425 223.931,293.973 224.479 C 294.420 224.926,296.672 225.000,309.900 225.000 C 325.478 225.000,326.465 225.079,325.302 226.232 C 324.594 226.933,292.377 227.039,292.009 226.341 C 291.872 226.081,291.652 224.462,291.520 222.743 C 291.388 221.024,291.154 218.212,290.999 216.493 C 290.845 214.774,290.793 213.173,290.883 212.934 C 291.105 212.344,292.242 212.383,292.474 212.988 M255.208 221.873 C 256.450 222.222,257.778 222.591,258.160 222.693 C 259.644 223.089,262.965 224.318,263.331 224.606 C 263.542 224.773,264.278 225.091,264.966 225.312 C 266.718 225.876,267.802 227.173,268.278 229.275 C 268.792 231.546,269.700 234.274,270.340 235.470 C 270.611 235.977,270.833 236.670,270.833 237.010 C 270.833 237.962,272.214 240.616,273.679 242.479 C 275.096 244.282,275.307 245.043,274.479 245.361 C 273.805 245.619,273.819 246.145,274.521 246.922 C 276.094 248.659,271.363 249.387,268.104 247.909 C 267.272 247.531,266.316 247.222,265.981 247.222 C 265.646 247.222,264.974 246.910,264.489 246.528 C 264.003 246.146,263.483 245.833,263.332 245.833 C 262.776 245.833,260.186 243.868,258.300 242.014 C 253.712 237.506,250.808 231.684,249.230 223.830 C 248.600 220.696,249.720 220.329,255.208 221.873 M157.355 232.017 C 158.265 233.277,160.041 236.034,161.109 237.847 C 161.503 238.516,162.129 239.531,162.500 240.104 C 162.871 240.677,163.496 241.693,163.889 242.361 C 164.282 243.030,164.907 244.045,165.278 244.618 C 165.649 245.191,166.309 246.267,166.744 247.009 C 167.179 247.751,167.697 248.633,167.896 248.968 C 168.094 249.304,168.478 249.846,168.750 250.174 C 169.252 250.778,169.365 250.957,170.750 253.338 C 171.751 255.059,172.173 255.720,173.358 257.422 C 174.719 259.379,174.396 259.530,168.591 259.661 C 161.746 259.814,162.523 257.095,162.416 281.274 L 162.326 301.563 159.428 301.664 C 157.590 301.728,156.352 301.617,156.043 301.361 C 155.631 301.019,155.556 295.566,155.556 265.930 C 155.556 227.965,155.478 229.419,157.355 232.017 M60.934 240.538 C 61.839 241.063,63.539 242.043,64.710 242.716 C 65.882 243.389,67.309 244.229,67.882 244.582 L 68.924 245.226 68.872 250.304 C 68.843 253.097,68.804 256.142,68.785 257.070 L 68.750 258.758 67.454 258.515 C 61.268 257.354,56.780 252.755,56.774 247.569 C 56.767 240.721,57.912 238.785,60.934 240.538 M175.155 260.971 C 175.938 262.041,175.517 262.153,170.706 262.153 C 164.208 262.153,164.947 259.614,164.844 282.292 C 164.758 301.302,164.748 301.563,164.063 301.563 C 163.040 301.563,162.784 261.869,163.799 260.854 C 164.745 259.908,174.451 260.008,175.155 260.971 M140.112 279.997 C 142.258 281.567,141.737 281.597,112.500 281.597 C 83.359 281.597,83.423 281.601,84.722 280.035 C 85.349 279.280,139.080 279.243,140.112 279.997 M140.496 282.726 C 140.662 282.964,140.720 287.300,140.625 292.361 L 140.451 301.563 137.326 301.563 L 134.201 301.563 133.959 295.001 C 133.825 291.393,133.635 288.228,133.535 287.970 C 133.280 287.303,90.553 287.268,90.007 287.934 C 89.812 288.173,89.539 290.790,89.402 293.750 C 89.092 300.404,89.089 300.412,86.524 300.277 L 84.549 300.174 84.455 291.673 C 84.404 286.998,84.438 282.975,84.531 282.732 C 84.778 282.091,140.048 282.084,140.496 282.726 M132.826 288.268 C 133.058 288.504,133.100 300.923,132.870 301.295 C 132.069 302.591,131.691 301.199,131.454 296.076 C 131.320 293.173,131.093 290.680,130.949 290.535 C 130.806 290.390,122.026 290.312,111.438 290.362 L 92.188 290.451 91.840 295.139 C 91.510 299.591,91.454 299.832,90.724 299.936 L 89.954 300.045 90.168 294.207 C 90.286 290.995,90.500 288.290,90.644 288.194 C 90.914 288.016,132.651 288.089,132.826 288.268 M291.671 297.919 C 292.051 298.122,292.361 298.579,292.361 298.933 C 292.361 299.288,292.595 299.668,292.882 299.778 C 293.396 299.976,293.599 301.077,293.195 301.481 C 292.864 301.812,292.014 301.359,292.014 300.851 C 292.014 300.000,291.489 299.985,261.219 299.958 C 226.411 299.927,222.743 299.815,222.743 298.785 C 222.743 298.096,222.975 298.090,249.362 298.090 C 264.003 298.090,276.088 297.984,276.219 297.854 C 276.623 297.451,290.910 297.512,291.671 297.919 M294.792 303.493 C 294.792 304.204,293.947 304.419,293.567 303.804 C 293.290 303.356,294.061 302.367,294.484 302.628 C 294.653 302.733,294.792 303.122,294.792 303.493 M296.118 307.579 C 296.190 308.069,296.045 308.333,295.704 308.333 C 295.029 308.333,294.674 307.752,294.935 307.073 C 295.217 306.336,295.983 306.664,296.118 307.579  M -25 0 L -5 0 L -5 20 L -25 20 Z M 405 0 L 425 0 L 425 20 L 405 20 Z" stroke="none" fill="#fc94c4" fill-rule="evenodd" transform="translate(490,0)"></path><path id="path2" d="M0.000 200.000 L 0.000 400.000 200.000 400.000 L 400.000 400.000 400.000 200.000 L 400.000 0.000 200.000 0.000 L 0.000 0.000 0.000 200.000 M55.317 66.486 L 57.813 67.695 82.465 67.806 C 112.027 67.938,112.430 67.988,122.396 72.811 C 127.985 75.516,138.542 84.783,138.542 86.985 C 138.542 87.114,138.843 87.643,139.212 88.161 C 151.897 105.976,145.152 135.283,125.741 146.687 C 125.429 146.871,124.760 147.294,124.254 147.627 C 123.748 147.960,122.934 148.334,122.445 148.456 C 121.956 148.579,121.374 148.898,121.152 149.166 C 120.930 149.434,120.494 149.654,120.183 149.655 C 119.872 149.656,119.149 149.909,118.576 150.217 C 117.064 151.030,113.162 152.053,109.375 152.628 C 107.561 152.904,105.842 153.230,105.556 153.353 C 105.269 153.476,99.175 153.671,92.014 153.785 L 78.993 153.993 78.993 163.021 L 78.993 172.049 84.975 172.144 C 92.206 172.258,91.545 171.418,91.319 180.208 L 91.146 186.979 81.961 187.072 C 75.145 187.141,72.707 187.275,72.505 187.593 C 72.102 188.227,72.165 194.382,72.582 195.162 C 73.059 196.054,91.705 196.219,92.681 195.339 C 97.591 190.915,107.043 194.069,108.370 200.575 C 109.295 205.110,105.880 211.101,102.364 211.110 C 102.041 211.110,101.661 211.299,101.520 211.528 C 100.838 212.631,101.771 237.087,102.513 237.558 C 103.438 238.145,120.391 237.902,120.623 237.298 C 120.999 236.316,120.861 212.506,120.474 211.783 C 120.276 211.413,119.777 211.111,119.364 211.111 C 116.880 211.111,113.572 207.174,112.988 203.521 C 111.974 197.179,120.287 190.965,125.868 193.894 C 126.441 194.194,127.043 194.441,127.207 194.442 C 127.370 194.443,127.942 194.796,128.478 195.226 C 131.141 197.362,130.422 197.222,138.740 197.222 L 146.435 197.222 147.350 195.841 C 147.853 195.081,148.264 194.346,148.264 194.207 C 148.264 193.266,154.935 184.856,155.932 184.539 C 156.806 184.262,158.333 184.607,158.333 185.081 C 158.333 185.745,161.804 191.367,165.620 196.886 C 167.941 200.243,169.497 204.720,169.377 207.703 C 169.265 210.494,169.501 210.825,170.750 209.629 C 172.014 208.418,174.517 207.112,176.166 206.803 C 176.900 206.665,177.993 206.337,178.594 206.073 C 179.195 205.810,180.273 205.500,180.990 205.386 C 182.238 205.185,182.292 205.121,182.292 203.811 C 182.292 203.059,182.546 201.809,182.857 201.031 C 183.324 199.863,183.395 198.643,183.266 193.993 C 183.066 186.810,183.086 186.850,179.167 185.942 C 171.175 184.091,163.342 178.854,158.127 171.875 C 155.913 168.912,152.780 163.243,152.776 162.194 C 152.774 161.885,152.529 161.163,152.230 160.590 C 151.931 160.017,151.547 158.845,151.377 157.986 C 151.206 157.127,150.830 155.330,150.540 153.993 C 150.088 151.914,150.010 146.647,150.001 117.535 C 149.994 96.754,149.861 83.304,149.661 82.986 C 149.397 82.568,148.164 82.431,143.432 82.292 C 139.703 82.182,137.387 81.972,137.138 81.722 C 136.709 81.292,136.549 68.751,136.965 68.079 C 137.311 67.518,179.924 67.563,180.486 68.125 C 181.178 68.817,181.062 81.041,180.357 81.746 C 179.899 82.204,178.741 82.292,173.132 82.292 C 168.325 82.292,166.292 82.413,165.880 82.726 C 165.319 83.151,164.825 102.441,165.361 102.977 C 165.577 103.192,165.550 103.219,169.965 98.411 C 176.063 91.771,176.283 91.610,177.550 92.878 C 179.279 94.606,182.139 102.744,181.824 105.040 C 181.267 109.103,177.789 113.661,172.422 117.361 C 171.729 117.839,170.830 118.503,170.424 118.837 C 170.018 119.171,169.421 119.444,169.098 119.444 C 168.775 119.444,168.244 119.739,167.918 120.099 C 167.592 120.459,166.865 120.846,166.302 120.958 L 165.278 121.163 165.278 135.892 C 165.278 147.877,165.364 150.653,165.743 150.799 C 166.510 151.093,215.763 151.214,216.233 150.923 C 217.076 150.399,216.842 83.105,215.995 82.651 C 215.601 82.440,212.619 82.289,208.790 82.286 C 205.197 82.283,202.023 82.133,201.736 81.952 C 201.016 81.497,200.830 68.663,201.535 68.078 C 201.851 67.816,208.223 67.730,222.608 67.792 L 243.229 67.882 243.324 74.608 C 243.441 82.935,243.897 82.292,237.871 82.292 C 234.617 82.292,232.932 82.428,232.526 82.726 C 231.931 83.162,231.543 132.055,232.127 133.001 C 232.250 133.199,235.942 133.333,241.263 133.333 C 249.102 133.333,250.298 133.405,251.051 133.924 C 251.523 134.249,254.217 136.366,257.037 138.628 C 259.858 140.891,262.315 142.649,262.499 142.535 C 262.949 142.257,262.960 83.696,262.510 82.986 C 262.245 82.569,261.010 82.431,256.279 82.292 C 252.480 82.180,250.236 81.974,249.977 81.715 C 249.467 81.203,249.401 68.515,249.906 68.010 C 250.686 67.231,303.179 67.854,307.595 68.695 C 313.689 69.855,320.145 72.129,323.778 74.397 C 325.320 75.359,329.394 78.459,330.007 79.136 C 330.839 80.055,331.165 80.046,332.097 79.080 C 334.137 76.963,337.212 74.653,337.989 74.653 C 338.242 74.653,338.845 74.340,339.331 73.958 C 339.816 73.576,340.469 73.264,340.780 73.264 C 341.092 73.264,341.960 72.951,342.708 72.569 C 343.457 72.188,344.430 71.875,344.870 71.875 C 345.310 71.875,346.215 71.586,346.880 71.234 C 347.546 70.881,348.878 70.501,349.842 70.390 C 350.805 70.279,352.055 69.955,352.620 69.669 C 353.184 69.384,354.718 68.962,356.028 68.731 C 359.280 68.159,359.496 68.527,358.482 72.917 C 358.158 74.322,357.836 78.579,357.630 84.201 C 357.207 95.719,356.295 100.872,353.728 106.250 C 351.633 110.639,347.566 114.795,341.319 118.930 C 340.460 119.498,339.097 120.649,338.290 121.486 L 336.823 123.008 337.532 124.004 C 338.330 125.124,338.799 125.027,340.278 123.435 C 342.866 120.649,349.043 116.729,351.761 116.147 C 352.416 116.007,353.116 115.761,353.316 115.600 C 353.915 115.120,362.411 113.542,364.395 113.542 C 367.536 113.542,367.703 114.813,365.284 120.313 C 361.233 129.522,356.145 136.260,350.372 140.064 C 347.933 141.671,347.855 141.765,348.090 142.826 C 349.115 147.456,348.359 157.363,346.654 161.632 C 344.931 165.946,342.910 169.407,340.213 172.659 C 338.378 174.871,338.009 174.318,347.919 184.212 C 356.330 192.610,356.660 192.894,358.423 193.269 C 367.466 195.194,370.320 204.644,363.413 209.789 C 361.337 211.335,361.501 207.015,361.478 260.956 C 361.461 302.552,361.389 309.246,360.955 309.680 C 360.517 310.118,358.328 310.119,343.855 309.692 C 334.726 309.422,324.136 309.201,320.321 309.201 L 313.385 309.201 312.442 310.938 C 311.923 311.892,311.488 312.986,311.476 313.368 C 311.464 313.750,311.221 314.510,310.935 315.057 C 310.650 315.604,310.417 316.239,310.417 316.467 C 310.417 316.696,309.954 317.225,309.389 317.643 C 307.353 319.148,298.958 318.507,298.958 316.847 C 298.958 316.647,298.646 315.900,298.264 315.187 C 297.882 314.474,297.569 313.596,297.569 313.236 C 297.569 312.875,297.173 312.320,296.689 312.003 C 295.942 311.514,295.841 311.250,296.024 310.272 C 296.220 309.230,296.150 309.095,295.297 308.881 C 294.380 308.651,294.359 308.591,294.571 306.790 C 294.780 305.012,294.752 304.927,293.897 304.712 C 293.181 304.532,293.023 304.303,293.095 303.546 C 293.158 302.887,292.857 302.259,292.093 301.455 L 291.003 300.306 281.352 300.473 C 276.044 300.565,271.467 300.679,271.181 300.726 C 270.894 300.774,260.035 300.702,247.049 300.566 C 232.423 300.413,223.253 300.443,222.952 300.645 C 222.558 300.911,222.481 302.354,222.542 308.322 C 222.633 317.315,223.003 316.671,217.753 316.652 C 211.932 316.631,208.848 315.190,207.044 311.646 C 206.748 311.065,205.688 309.340,204.688 307.813 C 203.689 306.285,202.450 304.332,201.935 303.472 C 201.421 302.613,200.313 300.816,199.474 299.479 C 198.634 298.142,197.624 296.502,197.228 295.833 C 196.832 295.165,196.239 294.200,195.910 293.689 C 195.582 293.178,194.375 291.259,193.229 289.425 C 192.083 287.592,190.719 285.431,190.198 284.625 C 189.677 283.819,189.088 282.847,188.889 282.465 C 188.690 282.083,188.065 281.068,187.499 280.208 C 186.933 279.349,186.359 278.411,186.223 278.125 C 186.088 277.839,185.382 276.745,184.656 275.694 C 183.929 274.644,183.334 273.666,183.334 273.521 C 183.334 273.376,182.805 272.505,182.159 271.586 C 181.513 270.667,180.727 269.457,180.412 268.898 C 180.097 268.339,179.571 267.470,179.243 266.967 C 178.915 266.464,178.263 265.405,177.794 264.613 C 176.740 262.828,176.615 262.799,170.660 262.921 L 165.799 263.021 165.703 281.597 C 165.599 301.520,165.610 301.736,166.696 301.736 C 168.700 301.736,168.750 301.910,168.750 308.889 C 168.750 312.660,168.601 315.601,168.391 315.995 C 168.042 316.647,167.450 316.667,148.069 316.667 L 128.108 316.667 127.757 315.743 C 127.262 314.442,127.389 302.549,127.902 302.125 C 128.120 301.945,128.767 301.745,129.340 301.680 L 130.382 301.563 130.478 296.381 C 130.551 292.468,130.466 291.130,130.131 290.917 C 129.578 290.566,93.726 290.541,93.176 290.891 C 92.847 291.100,92.480 297.664,92.671 299.913 C 92.696 300.201,93.328 300.347,94.549 300.347 C 95.561 300.347,96.576 300.535,96.806 300.764 C 97.393 301.352,97.393 314.273,96.806 314.861 C 96.082 315.585,56.817 315.448,56.088 314.719 C 55.390 314.021,55.333 301.230,56.026 300.779 C 56.245 300.637,59.236 300.443,62.674 300.347 L 68.924 300.174 69.013 280.187 L 69.103 260.200 67.751 259.441 C 67.007 259.023,66.155 258.681,65.857 258.681 C 64.422 258.681,59.557 255.450,57.844 253.360 C 56.104 251.236,55.717 249.141,56.255 244.753 C 56.966 238.946,58.258 237.877,61.686 240.257 C 62.802 241.032,63.824 241.666,63.957 241.666 C 64.090 241.666,65.132 242.214,66.272 242.882 C 67.413 243.550,68.515 244.097,68.722 244.097 C 69.517 244.097,69.217 211.200,68.418 210.772 C 67.073 210.052,56.743 210.283,53.646 211.102 C 41.651 214.274,35.475 199.169,46.701 194.119 C 49.455 192.881,52.061 193.020,55.216 194.575 L 57.771 195.833 63.254 195.833 C 69.693 195.833,69.185 196.277,69.025 190.799 L 68.924 187.326 63.194 187.220 C 58.823 187.140,56.756 187.256,54.470 187.712 C 47.548 189.093,42.535 185.443,42.535 179.023 C 42.535 171.204,52.145 166.533,57.835 171.586 C 58.677 172.334,62.440 172.490,63.125 171.806 C 63.435 171.496,63.542 167.976,63.542 158.115 L 63.542 144.842 62.638 144.132 C 62.142 143.741,61.165 143.325,60.468 143.208 C 59.231 143.000,56.425 142.051,54.340 141.135 C 53.767 140.884,52.283 140.243,51.042 139.711 C 49.800 139.180,48.394 138.497,47.917 138.195 C 46.676 137.410,45.808 136.896,44.618 136.242 C 40.907 134.201,34.062 126.986,34.034 125.086 C 34.031 124.846,33.715 124.067,33.333 123.355 C 31.801 120.495,32.396 113.550,34.723 107.118 C 35.069 106.163,35.451 104.939,35.572 104.398 C 36.398 100.701,38.512 99.799,40.922 102.115 C 42.403 103.538,48.146 108.138,51.281 110.413 C 54.387 112.666,58.894 117.463,60.042 119.736 C 61.438 122.502,62.149 122.482,62.155 119.676 C 62.156 119.071,62.468 118.108,62.847 117.535 C 63.511 116.532,63.537 115.873,63.539 99.921 L 63.542 83.349 62.760 82.837 C 61.551 82.045,57.569 82.094,54.340 82.941 C 46.631 84.964,41.146 81.446,41.146 74.480 C 41.146 67.029,48.210 63.045,55.317 66.486 M349.371 76.948 C 346.593 78.161,344.449 81.626,340.836 90.742 C 340.167 92.430,339.207 94.352,338.703 95.013 C 336.993 97.254,338.702 98.144,340.589 95.995 C 341.182 95.320,341.667 94.543,341.667 94.269 C 341.667 93.995,341.979 93.215,342.361 92.535 C 342.743 91.855,343.056 91.137,343.056 90.940 C 343.056 90.743,343.432 89.771,343.891 88.781 C 344.351 87.790,345.054 86.246,345.453 85.351 C 345.852 84.455,346.335 83.626,346.527 83.508 C 346.718 83.389,346.875 82.992,346.875 82.624 C 346.875 81.696,349.708 78.819,350.623 78.819 C 351.444 78.819,352.243 77.652,351.947 76.883 C 351.713 76.271,350.871 76.293,349.371 76.948 M79.080 82.832 C 78.937 82.981,78.819 86.748,78.819 91.204 C 78.819 99.558,78.888 99.943,80.181 98.836 C 81.180 97.981,86.350 95.486,87.123 95.486 C 87.368 95.486,88.091 95.238,88.728 94.936 C 90.602 94.047,91.055 94.346,91.934 97.053 C 93.514 101.922,93.687 118.320,92.201 122.530 C 91.907 123.364,91.667 124.339,91.667 124.697 C 91.667 125.538,89.674 131.298,89.229 131.743 C 89.042 131.930,88.889 132.314,88.889 132.596 C 88.889 132.878,88.171 134.169,87.293 135.466 C 85.004 138.847,84.555 138.673,95.333 138.592 C 104.524 138.524,105.330 138.447,110.417 137.162 C 122.355 134.147,131.135 121.869,130.443 109.156 C 130.336 107.187,130.013 105.065,129.709 104.339 C 129.411 103.625,129.167 102.780,129.167 102.462 C 129.167 102.143,128.854 101.270,128.472 100.521 C 128.090 99.772,127.776 98.996,127.774 98.798 C 127.762 97.400,122.989 91.324,120.193 89.146 C 117.658 87.171,112.393 84.380,111.187 84.371 C 110.859 84.368,109.575 84.035,108.333 83.630 C 105.976 82.862,79.743 82.146,79.080 82.832 M278.333 82.931 C 278.047 83.393,278.030 112.412,278.315 112.873 C 278.595 113.326,303.259 113.283,306.357 112.824 C 312.849 111.862,314.215 111.459,316.713 109.770 C 323.136 105.424,324.202 95.035,318.782 89.615 C 316.859 87.692,314.035 85.766,313.133 85.762 C 312.880 85.761,312.239 85.533,311.708 85.256 C 307.829 83.232,279.372 81.250,278.333 82.931 M172.921 102.663 C 171.900 104.333,170.397 106.579,169.580 107.652 C 168.763 108.726,167.749 110.606,167.325 111.830 C 166.901 113.055,166.268 114.526,165.918 115.101 C 165.146 116.367,165.099 117.475,165.794 118.052 C 166.589 118.711,167.361 118.211,167.361 117.037 C 167.361 116.377,167.598 115.870,168.009 115.650 C 168.399 115.441,168.746 114.747,168.880 113.908 C 169.109 112.480,170.447 109.746,171.525 108.507 C 172.205 107.724,174.465 104.245,175.438 102.482 C 176.174 101.149,176.121 99.882,175.322 99.730 C 174.959 99.660,174.157 100.641,172.921 102.663 M87.869 108.659 C 87.475 109.053,87.153 109.507,87.153 109.669 C 87.153 109.830,85.691 111.468,83.904 113.308 C 80.262 117.058,78.965 119.392,79.966 120.393 C 80.728 121.154,81.352 120.780,81.909 119.228 C 82.175 118.488,82.721 117.550,83.123 117.143 C 83.525 116.737,84.313 115.878,84.874 115.233 C 85.435 114.589,86.177 113.950,86.523 113.813 C 86.870 113.676,87.153 113.321,87.153 113.023 C 87.153 112.726,87.543 112.334,88.021 112.153 C 88.498 111.971,88.889 111.558,88.889 111.234 C 88.889 110.910,89.156 110.350,89.482 109.990 C 90.621 108.731,89.074 107.454,87.869 108.659 M39.251 110.225 C 38.779 110.793,39.074 111.535,41.324 115.451 C 41.873 116.406,42.419 117.422,42.537 117.708 C 43.146 119.181,43.983 120.770,44.640 121.701 C 45.044 122.274,45.575 123.251,45.820 123.872 C 46.065 124.492,46.387 125.000,46.537 125.000 C 46.687 125.000,47.210 125.685,47.701 126.522 C 48.191 127.359,48.831 128.135,49.123 128.247 C 49.414 128.359,49.653 128.690,49.653 128.982 C 49.653 129.275,49.775 129.514,49.925 129.514 C 50.151 129.514,53.902 132.933,56.783 135.764 C 57.172 136.146,57.625 136.458,57.790 136.458 C 57.955 136.458,58.763 137.170,59.585 138.040 C 61.226 139.778,62.884 140.286,63.124 139.123 C 63.251 138.512,60.544 135.761,57.842 133.753 C 57.253 133.316,56.691 132.732,56.594 132.456 C 56.497 132.180,55.369 131.118,54.086 130.096 C 51.789 128.266,48.958 125.091,48.958 124.346 C 48.958 124.136,48.646 123.769,48.264 123.531 C 47.882 123.292,47.569 122.923,47.569 122.712 C 47.569 122.500,47.101 121.679,46.528 120.888 C 45.955 120.098,45.474 119.254,45.458 119.013 C 45.443 118.773,45.060 117.951,44.607 117.188 C 43.734 115.716,43.235 114.741,42.918 113.889 C 41.841 110.996,40.075 109.232,39.251 110.225 M358.854 119.774 C 358.472 119.935,357.024 121.138,355.637 122.447 C 354.249 123.755,352.898 125.013,352.634 125.241 C 352.370 125.469,352.099 125.786,352.032 125.945 C 351.965 126.104,350.738 127.236,349.306 128.462 C 346.569 130.803,346.110 131.703,347.569 131.870 C 348.584 131.986,349.690 131.117,354.440 126.476 C 356.248 124.709,357.852 123.264,358.005 123.264 C 358.158 123.264,358.568 122.904,358.916 122.464 C 359.264 122.024,359.833 121.556,360.181 121.424 C 360.589 121.269,360.773 120.908,360.701 120.404 C 360.579 119.547,359.922 119.323,358.854 119.774 M278.544 128.407 C 277.903 128.833,277.925 171.533,278.566 171.940 C 279.178 172.329,308.131 172.283,310.417 171.889 C 314.041 171.265,317.164 170.515,318.216 170.016 C 325.730 166.448,328.291 164.211,331.555 158.361 C 332.400 156.847,333.333 152.094,333.333 149.306 C 333.333 140.214,329.069 134.530,319.792 131.255 C 317.226 130.350,311.517 129.181,307.515 128.742 C 303.441 128.294,279.137 128.014,278.544 128.407 M232.557 136.737 C 231.877 136.870,231.466 138.833,231.986 139.459 C 232.296 139.833,234.166 139.931,241.021 139.931 L 249.664 139.931 251.134 141.416 C 251.943 142.234,253.542 143.693,254.688 144.659 C 255.833 145.626,257.984 147.465,259.467 148.746 C 262.427 151.304,262.849 151.360,262.843 149.198 C 262.838 147.553,262.617 147.324,255.382 141.485 C 253.281 139.790,251.360 138.204,251.113 137.960 C 250.141 137.005,235.956 136.069,232.557 136.737 M232.085 143.457 C 231.948 143.677,231.787 145.357,231.726 147.189 C 231.242 161.771,224.063 174.709,212.847 181.215 C 211.797 181.824,210.703 182.461,210.417 182.630 C 207.210 184.521,199.855 186.651,194.271 187.307 L 191.146 187.674 191.259 190.799 C 191.384 194.237,191.695 194.792,193.499 194.792 C 194.052 194.792,195.614 195.339,196.971 196.007 L 199.437 197.222 216.712 197.222 C 228.588 197.222,234.058 197.338,234.216 197.593 C 234.742 198.444,234.457 210.640,233.885 211.746 C 233.233 213.006,233.022 278.239,233.669 278.638 C 234.195 278.964,284.839 278.842,285.166 278.515 C 285.327 278.354,285.129 277.302,284.726 276.177 C 284.323 275.052,283.854 273.663,283.683 273.090 C 283.511 272.517,282.885 270.720,282.292 269.097 C 281.698 267.474,281.073 265.677,280.903 265.104 C 280.733 264.531,280.108 262.734,279.514 261.111 C 278.920 259.488,278.283 257.564,278.099 256.835 C 277.915 256.106,277.552 255.169,277.292 254.752 C 277.033 254.334,276.723 253.464,276.604 252.818 C 276.083 249.991,275.350 249.432,271.815 249.165 C 267.937 248.872,264.579 247.649,261.111 245.265 C 259.813 244.372,254.167 238.559,254.167 238.114 C 254.167 237.902,253.955 237.482,253.696 237.180 C 252.618 235.923,250.319 230.853,249.343 227.580 C 247.609 221.761,248.278 220.235,252.384 220.643 C 255.179 220.921,261.445 222.907,264.416 224.456 C 266.367 225.473,267.506 224.935,266.536 223.454 C 266.240 223.003,265.811 221.877,265.581 220.952 C 265.352 220.028,264.973 218.958,264.739 218.576 C 264.505 218.194,264.209 217.335,264.081 216.667 C 263.269 212.437,262.273 211.821,256.137 211.755 C 252.208 211.712,252.017 211.676,251.731 210.924 C 251.416 210.096,251.313 198.876,251.610 197.830 C 251.771 197.263,252.821 197.222,267.346 197.222 L 282.909 197.222 284.250 196.006 C 284.987 195.337,285.946 194.694,286.381 194.577 C 287.668 194.231,287.904 193.357,287.449 190.607 C 286.826 186.835,288.596 187.153,268.229 187.153 C 252.841 187.153,250.325 187.081,249.876 186.632 C 249.171 185.927,248.024 185.976,247.035 186.754 C 243.131 189.825,235.457 187.451,233.354 182.521 C 229.560 173.628,241.075 165.391,248.350 171.794 C 249.129 172.480,262.138 172.453,262.576 171.765 C 263.096 170.946,262.896 155.965,262.360 155.660 C 262.092 155.507,261.035 154.601,260.011 153.646 C 258.986 152.691,255.852 149.918,253.046 147.483 L 247.944 143.056 240.139 143.056 C 234.609 143.056,232.260 143.173,232.085 143.457 M166.441 154.699 C 166.328 154.991,166.727 156.327,167.326 157.666 C 171.732 167.522,179.175 172.238,190.303 172.227 C 196.869 172.221,199.092 171.621,205.595 168.099 C 209.252 166.119,215.278 158.136,215.278 155.272 C 215.278 154.180,166.858 153.611,166.441 154.699 M330.168 180.855 C 329.713 181.211,328.950 181.620,328.472 181.764 C 327.995 181.908,327.370 182.230,327.083 182.479 C 326.797 182.728,326.132 183.039,325.607 183.171 C 325.081 183.302,324.072 183.704,323.363 184.066 C 322.655 184.427,321.799 184.722,321.461 184.722 C 321.124 184.722,320.258 184.954,319.538 185.238 C 317.112 186.195,310.711 186.923,302.951 187.127 L 295.313 187.326 295.345 188.542 C 295.455 192.709,295.849 193.831,297.924 195.888 C 302.863 200.785,300.935 209.815,294.680 211.086 C 293.297 211.367,293.108 213.008,293.763 219.057 C 294.231 223.381,294.819 224.566,296.299 224.169 C 296.711 224.058,303.652 223.966,311.723 223.963 L 326.396 223.958 327.215 222.135 C 328.030 220.318,328.951 217.774,329.507 215.799 C 329.668 215.226,330.004 214.251,330.252 213.633 C 330.932 211.943,330.597 211.846,323.845 211.772 C 319.020 211.719,317.548 211.595,317.162 211.209 C 316.503 210.550,316.432 198.290,317.083 197.639 C 317.395 197.327,321.384 197.222,332.893 197.222 C 345.891 197.222,348.315 197.145,348.475 196.728 C 348.744 196.028,332.718 180.223,331.731 180.215 C 331.327 180.211,330.624 180.499,330.168 180.855 M155.633 193.295 C 155.093 194.370,155.985 196.193,158.073 198.282 C 158.598 198.807,159.028 199.468,159.028 199.750 C 159.028 200.032,159.262 200.457,159.549 200.694 C 159.910 200.994,160.069 201.792,160.069 203.299 C 160.069 205.574,160.593 206.523,161.628 206.126 C 162.036 205.969,162.153 205.307,162.153 203.151 C 162.153 200.155,162.245 200.373,159.198 196.181 C 158.434 195.130,157.637 193.958,157.426 193.576 C 156.918 192.654,156.026 192.514,155.633 193.295 M175.598 209.694 C 174.278 211.262,172.600 214.339,172.340 215.667 C 172.214 216.312,171.923 217.153,171.692 217.535 C 170.748 219.103,170.343 221.533,170.928 222.119 C 171.732 222.923,172.449 222.456,172.725 220.948 C 172.859 220.216,173.165 219.306,173.406 218.924 C 173.647 218.542,174.035 217.461,174.268 216.521 C 174.715 214.723,176.112 212.082,177.184 211.010 C 177.933 210.262,177.847 208.907,177.042 208.754 C 176.732 208.695,176.082 209.118,175.598 209.694 M182.637 209.115 C 182.608 218.202,181.699 220.821,177.016 225.319 C 173.095 229.085,173.257 228.670,174.826 230.903 C 175.495 231.854,176.043 232.751,176.044 232.896 C 176.045 233.041,176.747 234.175,177.604 235.417 C 178.461 236.658,179.163 237.785,179.165 237.921 C 179.166 238.056,180.043 239.454,181.113 241.026 C 182.184 242.598,183.151 244.128,183.264 244.425 C 183.376 244.722,184.062 245.825,184.789 246.875 C 185.516 247.925,186.110 248.890,186.111 249.018 C 186.111 249.146,186.775 250.271,187.587 251.517 C 191.090 256.898,193.056 260.011,193.056 260.180 C 193.056 260.280,193.720 261.374,194.531 262.611 C 195.343 263.847,196.788 266.138,197.743 267.702 C 199.680 270.873,200.933 272.869,202.761 275.694 C 203.441 276.745,204.387 278.358,204.863 279.280 C 205.740 280.978,206.679 281.802,207.299 281.419 C 208.050 280.955,207.731 213.038,206.974 212.353 C 206.116 211.577,198.327 211.746,194.618 212.621 C 190.627 213.563,186.849 212.455,184.436 209.635 C 183.584 208.640,182.640 208.367,182.637 209.115 M84.763 210.888 C 84.477 211.233,84.395 220.433,84.460 245.003 L 84.549 278.646 112.500 278.646 L 140.451 278.646 140.542 264.542 C 140.613 253.524,140.537 250.361,140.195 250.082 C 139.911 249.851,130.713 249.637,114.011 249.471 C 99.851 249.331,88.068 249.094,87.826 248.945 C 87.479 248.730,87.403 244.856,87.468 230.500 C 87.522 218.479,87.427 212.003,87.186 211.372 C 86.784 210.316,85.458 210.051,84.763 210.888 M90.976 211.104 C 90.527 211.943,90.510 244.738,90.958 245.463 C 91.206 245.864,95.309 245.949,115.853 245.975 L 140.451 246.007 140.451 229.345 L 140.451 212.683 139.565 212.258 C 139.007 211.991,136.882 211.823,133.836 211.804 C 131.172 211.788,128.153 211.597,127.126 211.378 C 124.118 210.738,124.250 210.020,124.341 226.488 C 124.395 236.295,124.304 240.766,124.043 241.026 C 123.787 241.283,119.754 241.403,111.425 241.403 C 97.579 241.403,98.032 241.495,98.385 238.747 C 98.767 235.779,97.966 212.400,97.465 211.900 C 96.975 211.409,93.488 210.451,92.113 210.429 C 91.690 210.422,91.178 210.726,90.976 211.104 M225.275 211.773 C 224.185 211.890,223.132 212.146,222.935 212.343 C 222.575 212.703,222.364 296.261,222.721 296.840 C 222.950 297.210,265.763 297.563,280.153 297.314 C 292.367 297.103,292.884 297.023,291.555 295.554 C 291.256 295.224,290.845 294.209,290.641 293.299 C 290.437 292.389,290.118 291.376,289.932 291.048 C 289.530 290.337,288.363 286.956,287.704 284.594 C 287.029 282.171,288.704 282.303,258.603 282.297 L 230.921 282.292 230.391 281.267 C 229.927 280.369,229.861 276.035,229.861 246.189 L 229.861 212.136 228.970 211.797 C 228.481 211.611,227.895 211.481,227.668 211.509 C 227.442 211.537,226.365 211.656,225.275 211.773 M280.134 211.819 C 279.107 212.062,278.938 213.378,279.705 215.155 C 280.023 215.891,280.489 217.196,280.740 218.056 C 280.992 218.915,281.606 220.712,282.106 222.049 C 282.605 223.385,283.226 225.182,283.485 226.042 C 283.744 226.901,284.369 228.698,284.874 230.035 C 285.379 231.372,286.007 233.168,286.271 234.028 C 287.184 237.007,287.901 239.066,288.252 239.716 C 288.446 240.075,288.812 241.091,289.066 241.973 C 289.773 244.430,290.621 246.938,291.135 248.090 C 291.651 249.249,292.510 251.786,293.195 254.175 C 293.443 255.038,293.814 256.054,294.019 256.431 C 294.377 257.089,294.964 258.779,296.005 262.153 C 296.270 263.012,296.899 264.809,297.402 266.146 C 297.905 267.483,298.515 269.283,298.759 270.147 C 299.002 271.010,299.369 272.026,299.575 272.404 C 299.972 273.133,300.771 275.486,301.555 278.231 C 301.816 279.149,302.181 280.087,302.364 280.315 C 302.548 280.543,302.813 281.276,302.954 281.944 C 303.607 285.047,305.322 286.808,305.743 284.809 C 306.075 283.236,306.170 282.933,307.293 279.861 C 307.886 278.238,308.521 276.319,308.704 275.596 C 308.887 274.873,309.188 274.014,309.374 273.686 C 309.712 273.089,310.875 269.839,311.452 267.882 C 312.020 265.953,312.937 263.378,313.589 261.883 C 313.945 261.066,314.236 260.152,314.236 259.852 C 314.236 259.552,314.462 258.814,314.739 258.212 C 315.396 256.782,316.613 253.298,317.035 251.638 C 317.219 250.915,317.522 250.056,317.707 249.728 C 318.057 249.110,319.114 246.114,319.939 243.403 C 320.200 242.543,320.827 240.747,321.332 239.410 C 321.837 238.073,322.461 236.276,322.718 235.417 C 323.375 233.221,323.938 231.668,324.726 229.878 C 325.870 227.277,326.512 227.369,307.898 227.475 C 289.646 227.578,290.881 227.775,290.764 224.744 C 290.361 214.383,290.102 212.548,288.979 212.121 C 288.001 211.749,281.387 211.524,280.134 211.819 M347.681 212.033 C 346.567 212.271,345.788 213.739,344.578 217.882 C 344.354 218.646,343.758 220.365,343.252 221.701 C 342.747 223.038,342.121 224.835,341.862 225.694 C 341.603 226.554,340.978 228.351,340.473 229.688 C 339.968 231.024,339.340 232.821,339.077 233.681 C 338.164 236.660,337.447 238.718,337.095 239.369 C 336.901 239.728,336.535 240.744,336.281 241.626 C 335.700 243.648,334.751 246.489,334.355 247.396 C 333.971 248.278,332.764 251.783,332.145 253.819 C 331.883 254.679,331.256 256.476,330.751 257.813 C 330.246 259.149,329.621 260.946,329.362 261.806 C 329.103 262.665,328.476 264.462,327.967 265.799 C 327.459 267.135,326.826 268.932,326.561 269.792 C 325.535 273.115,324.935 274.852,324.595 275.480 C 324.401 275.839,324.035 276.855,323.781 277.737 C 323.121 280.033,322.247 282.646,321.737 283.854 C 321.197 285.130,320.255 287.836,319.622 289.931 C 319.362 290.790,318.738 292.587,318.235 293.924 C 317.732 295.260,317.118 297.064,316.870 297.933 C 316.622 298.801,316.241 299.845,316.022 300.254 C 315.482 301.263,315.509 305.028,316.059 305.477 C 316.317 305.687,319.175 305.845,323.090 305.865 C 326.719 305.883,335.992 306.080,343.697 306.301 C 355.658 306.645,357.751 306.633,358.015 306.217 C 358.193 305.936,358.289 285.851,358.242 258.889 L 358.160 212.049 353.299 211.960 C 350.625 211.911,348.097 211.944,347.681 212.033 M259.097 227.500 C 258.411 228.187,258.607 228.690,260.175 230.268 C 260.997 231.094,262.339 232.682,263.158 233.796 C 264.690 235.879,266.585 238.033,269.618 241.137 C 270.573 242.114,271.792 243.492,272.327 244.200 C 273.343 245.544,274.522 245.885,274.884 244.940 C 275.164 244.211,274.209 242.965,269.639 238.098 C 267.527 235.849,265.537 233.529,265.217 232.943 C 264.587 231.791,264.455 231.633,261.847 228.906 C 259.992 226.968,259.752 226.845,259.097 227.500 M155.556 265.930 C 155.556 295.566,155.631 301.019,156.043 301.361 C 156.352 301.617,157.590 301.728,159.428 301.664 L 162.326 301.563 162.416 281.274 C 162.523 257.095,161.746 259.814,168.591 259.661 C 174.396 259.530,174.719 259.379,173.358 257.422 C 172.173 255.720,171.751 255.059,170.750 253.338 C 169.365 250.957,169.252 250.778,168.750 250.174 C 168.478 249.846,168.094 249.304,167.896 248.968 C 167.697 248.633,167.179 247.751,166.744 247.009 C 166.309 246.267,165.649 245.191,165.278 244.618 C 164.907 244.045,164.282 243.030,163.889 242.361 C 163.496 241.693,162.871 240.677,162.500 240.104 C 162.129 239.531,161.503 238.516,161.109 237.847 C 160.041 236.034,158.265 233.277,157.355 232.017 C 155.478 229.419,155.556 227.965,155.556 265.930 M61.135 245.095 C 60.554 246.179,60.685 246.690,61.798 247.682 C 62.367 248.188,62.938 249.034,63.068 249.562 C 63.198 250.089,63.670 251.004,64.118 251.595 C 64.565 252.186,64.931 252.826,64.931 253.017 C 64.931 253.785,66.274 254.561,67.413 254.452 C 68.957 254.303,69.144 253.346,67.768 252.635 C 67.198 252.341,66.579 251.636,66.375 251.052 C 66.173 250.473,65.844 250.000,65.643 250.000 C 65.442 250.000,65.278 249.697,65.278 249.326 C 65.278 248.955,65.122 248.556,64.931 248.438 C 64.740 248.319,64.583 247.916,64.583 247.542 C 64.583 247.155,64.215 246.692,63.733 246.473 C 63.266 246.260,62.836 245.757,62.778 245.355 C 62.640 244.387,61.601 244.223,61.135 245.095 M84.531 282.732 C 84.438 282.975,84.404 286.998,84.455 291.673 L 84.549 300.174 86.524 300.277 C 89.089 300.412,89.092 300.404,89.402 293.750 C 89.539 290.790,89.812 288.173,90.007 287.934 C 90.553 287.268,133.280 287.303,133.535 287.970 C 133.635 288.228,133.825 291.393,133.959 295.001 L 134.201 301.563 137.326 301.563 L 140.451 301.563 140.625 292.361 C 140.720 287.300,140.662 282.964,140.496 282.726 C 140.048 282.084,84.778 282.091,84.531 282.732  M -25 0 L -5 0 L -5 20 L -25 20 Z M 405 0 L 425 0 L 425 20 L 405 20 Z" stroke="none" fill="#fcfcfc" fill-rule="evenodd" transform="translate(950,0)"></path></g></svg>