<svg id="svg" version="1.1" xmlns="http://www.w3.org/2000/svg" xmlns:xlink="http://www.w3.org/1999/xlink" width="400" height="400" viewBox="0, 0, 400,400"><g id="svgg"><path id="path0" d="M46.978 66.439 C 40.353 69.185,39.357 77.057,45.075 81.475 C 47.264 83.167,52.931 83.473,55.689 82.049 C 56.967 81.388,62.453 81.531,63.315 82.247 C 63.835 82.679,63.889 84.367,63.889 100.079 L 63.889 117.434 63.021 118.466 C 62.541 119.037,62.153 119.939,62.153 120.484 C 62.153 123.201,61.502 123.134,60.047 120.268 C 58.697 117.608,55.249 113.794,51.927 111.285 C 46.884 107.475,42.116 103.654,40.801 102.367 C 39.060 100.663,37.615 100.623,36.832 102.257 C 36.094 103.799,34.727 107.614,34.344 109.201 C 34.159 109.965,33.759 111.215,33.454 111.979 C 32.538 114.271,32.647 121.637,33.623 123.432 C 34.037 124.193,34.375 124.968,34.375 125.153 C 34.375 126.999,41.781 134.628,45.139 136.241 C 45.425 136.379,46.285 136.868,47.049 137.329 C 48.939 138.469,52.174 140.010,54.688 140.968 C 55.833 141.405,57.503 142.053,58.398 142.409 C 59.292 142.764,60.386 143.056,60.828 143.057 C 61.270 143.058,62.142 143.369,62.764 143.749 L 63.897 144.439 63.806 158.417 L 63.715 172.396 60.982 172.498 C 58.787 172.580,58.119 172.483,57.590 172.005 C 56.665 171.167,53.577 170.139,51.988 170.139 C 49.339 170.139,44.444 172.471,44.444 173.734 C 44.444 173.928,44.113 174.440,43.709 174.870 C 42.473 176.186,42.628 181.464,43.959 183.385 C 46.537 187.104,49.591 188.052,55.662 187.017 C 60.633 186.170,68.607 186.237,69.085 187.130 C 69.468 187.845,69.588 194.708,69.234 195.631 C 68.936 196.406,57.132 196.456,56.277 195.687 C 55.976 195.415,55.026 194.927,54.167 194.602 C 43.780 190.676,36.409 203.253,45.318 209.701 C 47.335 211.161,52.475 211.478,54.912 210.293 C 56.632 209.457,68.565 209.560,69.105 210.417 C 69.300 210.725,69.436 217.762,69.439 227.691 C 69.445 246.852,69.798 245.290,65.972 243.056 C 64.664 242.292,63.503 241.667,63.391 241.667 C 63.279 241.667,62.396 241.110,61.429 240.431 C 58.436 238.327,57.218 239.355,56.547 244.551 C 55.811 250.254,56.938 253.167,60.921 255.855 C 62.659 257.029,65.981 258.681,66.602 258.681 C 66.815 258.681,67.544 258.944,68.220 259.267 L 69.450 259.853 69.360 280.187 L 69.271 300.521 62.847 300.714 C 59.314 300.821,56.398 300.938,56.368 300.975 C 56.147 301.239,56.330 314.245,56.556 314.384 C 56.714 314.482,65.733 314.577,76.599 314.595 L 96.354 314.629 96.528 307.979 C 96.721 300.582,96.786 300.794,94.331 300.772 C 93.409 300.763,92.549 300.651,92.421 300.523 C 92.161 300.263,92.297 292.191,92.578 291.233 C 92.838 290.342,130.351 290.285,130.692 291.174 C 130.808 291.476,130.903 294.054,130.903 296.903 L 130.903 302.083 129.551 302.083 C 127.848 302.083,127.919 301.718,128.125 309.485 L 128.299 316.018 147.881 315.984 C 158.651 315.966,167.594 315.869,167.755 315.770 C 168.214 315.486,168.045 302.653,167.579 302.349 C 167.363 302.209,166.836 302.092,166.406 302.089 L 165.625 302.083 165.620 283.594 C 165.618 273.424,165.527 264.776,165.420 264.375 C 164.980 262.736,165.913 262.474,171.822 262.578 L 177.257 262.674 177.832 263.826 C 178.149 264.460,178.633 265.241,178.908 265.562 C 179.183 265.883,179.513 266.380,179.640 266.667 C 179.768 266.953,180.335 267.891,180.901 268.750 C 181.467 269.609,182.080 270.649,182.263 271.060 C 182.446 271.471,182.764 271.912,182.970 272.039 C 183.176 272.166,183.580 272.767,183.869 273.374 C 184.556 274.821,185.156 275.829,185.764 276.562 C 186.035 276.890,186.420 277.432,186.618 277.768 C 186.817 278.103,187.335 278.985,187.770 279.727 C 188.205 280.469,188.865 281.545,189.236 282.118 C 189.607 282.691,190.267 283.767,190.702 284.509 C 191.137 285.251,191.663 286.148,191.871 286.503 C 192.079 286.858,192.509 287.435,192.826 287.785 C 193.143 288.136,193.403 288.567,193.403 288.743 C 193.403 288.919,194.028 289.963,194.792 291.063 C 195.556 292.163,196.181 293.186,196.181 293.336 C 196.181 293.486,196.415 293.914,196.701 294.287 C 197.670 295.548,198.958 297.599,198.958 297.878 C 198.958 298.031,199.271 298.439,199.653 298.785 C 200.035 299.130,200.347 299.584,200.348 299.793 C 200.348 300.003,200.973 301.074,201.737 302.174 C 202.500 303.274,203.125 304.290,203.125 304.431 C 203.126 304.572,203.751 305.588,204.514 306.688 C 205.278 307.788,205.903 308.818,205.903 308.978 C 205.903 309.137,206.215 309.550,206.597 309.896 C 206.979 310.241,207.292 310.720,207.292 310.960 C 207.292 311.200,207.910 312.178,208.666 313.134 C 210.399 315.327,212.116 315.877,217.708 316.030 L 221.701 316.139 221.795 308.514 C 221.847 304.320,222.019 300.759,222.177 300.601 C 222.335 300.443,232.293 300.348,244.305 300.392 C 256.318 300.435,271.888 300.423,278.906 300.365 C 290.582 300.268,291.667 300.308,291.667 300.832 C 291.667 301.148,292.067 301.558,292.557 301.745 C 293.299 302.027,293.429 302.271,293.338 303.212 C 293.246 304.166,293.353 304.358,294.032 304.454 C 295.049 304.598,295.343 305.352,294.827 306.486 C 294.301 307.639,294.629 308.609,295.589 308.745 C 296.247 308.839,296.338 309.037,296.240 310.155 C 296.142 311.282,296.246 311.500,297.022 311.795 C 297.538 311.992,297.917 312.407,297.917 312.777 C 297.917 313.500,299.782 317.096,300.440 317.640 C 300.788 317.929,305.743 318.222,308.021 318.088 C 308.760 318.045,310.671 314.926,310.965 313.284 C 311.094 312.567,311.395 311.745,311.635 311.458 C 311.875 311.172,312.178 310.586,312.309 310.156 C 312.799 308.548,312.648 308.554,337.218 309.221 C 352.965 309.649,360.540 309.738,360.780 309.498 C 361.202 309.076,361.372 291.789,361.423 244.251 L 361.458 210.550 363.012 209.455 C 369.884 204.612,367.034 195.419,358.125 193.695 C 356.406 193.362,356.100 193.096,347.448 184.421 C 337.278 174.223,337.688 174.999,340.581 171.436 C 342.676 168.855,342.820 168.622,344.650 164.874 C 346.409 161.272,346.741 160.182,347.718 154.815 C 348.313 151.547,348.389 148.274,347.926 145.833 C 347.763 144.974,347.521 143.702,347.387 143.006 C 347.150 141.774,347.187 141.717,348.832 140.777 C 354.554 137.506,360.073 130.861,363.954 122.569 C 367.212 115.609,367.356 114.118,364.785 113.954 C 362.734 113.824,354.743 115.141,353.414 115.829 C 352.892 116.099,352.280 116.319,352.053 116.319 C 350.225 116.319,342.594 121.256,339.779 124.259 C 338.644 125.470,337.686 125.661,337.377 124.740 C 337.265 124.405,336.978 123.865,336.739 123.538 C 336.218 122.824,338.555 120.465,342.336 117.890 C 353.706 110.146,356.617 103.643,357.265 84.549 C 357.467 78.583,357.753 74.936,358.179 72.888 C 359.007 68.906,358.880 68.634,356.338 68.940 C 355.239 69.072,353.715 69.455,352.951 69.791 C 352.188 70.126,350.781 70.513,349.826 70.650 C 348.872 70.786,347.893 71.061,347.651 71.260 C 347.410 71.459,346.394 71.828,345.394 72.081 C 342.863 72.720,339.957 73.793,339.490 74.260 C 339.274 74.476,338.863 74.653,338.578 74.653 C 337.689 74.653,334.114 77.279,332.313 79.253 C 331.209 80.465,330.541 80.457,329.295 79.218 C 327.767 77.699,324.323 75.000,323.913 75.000 C 323.712 75.000,323.150 74.688,322.664 74.306 C 322.179 73.924,321.554 73.611,321.275 73.611 C 320.997 73.611,320.372 73.299,319.886 72.917 C 319.401 72.535,318.712 72.222,318.355 72.222 C 317.998 72.222,317.123 71.910,316.410 71.528 C 315.698 71.146,314.700 70.833,314.192 70.833 C 313.685 70.833,312.589 70.524,311.757 70.147 C 310.924 69.769,309.572 69.456,308.753 69.452 C 307.933 69.448,306.058 69.171,304.586 68.837 C 302.167 68.288,299.429 68.229,276.086 68.229 L 250.263 68.229 250.263 74.593 C 250.263 78.093,250.399 81.091,250.565 81.255 C 250.732 81.418,253.420 81.601,256.539 81.662 C 261.681 81.761,262.256 81.834,262.702 82.445 C 263.455 83.475,263.439 142.636,262.686 142.925 C 262.370 143.046,260.157 141.480,256.848 138.795 C 249.902 133.157,251.525 133.681,241.007 133.681 C 232.427 133.681,231.951 133.647,231.609 133.009 C 231.082 132.023,231.115 84.009,231.644 82.848 C 232.186 81.658,232.356 81.623,237.851 81.565 C 240.522 81.538,242.718 81.377,242.730 81.209 C 242.741 81.040,242.760 78.051,242.772 74.566 L 242.793 68.229 222.257 68.140 L 201.721 68.050 201.815 74.737 L 201.910 81.424 208.609 81.525 C 212.293 81.580,215.692 81.772,216.162 81.951 L 217.017 82.276 216.929 116.746 L 216.840 151.215 191.088 151.215 C 176.924 151.215,165.205 151.085,165.046 150.926 C 164.698 150.578,164.414 124.562,164.735 122.420 C 164.935 121.090,165.084 120.889,166.016 120.703 C 166.596 120.587,167.469 120.178,167.957 119.795 C 168.445 119.411,168.985 119.097,169.158 119.097 C 170.080 119.097,176.791 113.629,178.670 111.347 C 182.299 106.939,182.335 102.814,178.806 95.592 C 177.099 92.098,176.214 91.788,174.295 94.010 C 173.676 94.727,171.746 96.859,170.005 98.749 C 168.265 100.640,166.636 102.475,166.387 102.829 C 164.875 104.971,164.685 103.989,164.613 93.668 C 164.521 80.513,163.689 81.670,173.336 81.525 L 180.035 81.424 180.035 74.826 L 180.035 68.229 158.721 68.229 L 137.406 68.229 137.423 74.551 C 137.433 78.028,137.541 81.036,137.664 81.235 C 137.804 81.462,139.932 81.597,143.346 81.597 C 147.724 81.597,148.957 81.704,149.576 82.138 L 150.347 82.678 150.347 116.664 C 150.347 149.414,150.372 150.756,151.039 153.537 C 151.420 155.125,151.732 156.854,151.734 157.380 C 151.735 157.906,152.049 158.919,152.431 159.632 C 152.813 160.344,153.125 161.242,153.124 161.627 C 153.123 162.235,153.991 164.336,154.918 165.972 C 155.081 166.259,155.406 166.884,155.641 167.361 C 155.876 167.839,156.505 168.854,157.039 169.618 C 157.572 170.382,158.276 171.398,158.604 171.875 C 159.945 173.833,163.948 177.909,165.224 178.617 C 165.540 178.792,166.424 179.431,167.188 180.037 C 168.962 181.444,174.782 184.375,175.803 184.375 C 176.231 184.375,176.933 184.621,177.362 184.922 C 177.792 185.223,179.003 185.557,180.055 185.666 C 183.224 185.993,183.663 186.800,183.754 192.475 C 183.848 198.383,183.719 200.671,183.242 201.547 C 183.030 201.938,182.846 202.958,182.834 203.815 L 182.813 205.373 181.216 205.602 C 180.338 205.727,179.135 206.081,178.543 206.387 C 177.950 206.694,177.092 206.944,176.635 206.944 C 175.234 206.944,171.678 208.961,170.143 210.626 C 168.443 212.470,168.170 212.404,168.705 210.276 C 169.275 208.013,169.180 205.668,168.421 203.299 C 167.463 200.307,167.111 199.674,162.526 192.708 C 159.432 188.009,158.800 186.958,158.295 185.677 C 157.629 183.989,155.970 184.332,154.099 186.545 C 151.589 189.513,148.854 193.436,147.803 195.573 L 146.822 197.569 138.689 197.569 C 129.938 197.569,130.713 197.708,128.470 195.744 C 123.869 191.716,115.087 194.468,113.851 200.325 C 112.844 205.096,115.997 210.727,119.693 210.758 C 120.116 210.761,120.623 211.066,120.821 211.436 C 121.363 212.449,121.310 237.232,120.764 237.778 C 120.094 238.447,102.656 238.364,102.095 237.688 C 101.606 237.099,100.951 222.162,101.113 215.302 C 101.215 210.998,101.218 210.986,102.106 210.749 C 108.275 209.103,110.146 199.792,105.105 195.826 C 102.079 193.446,95.598 193.371,93.028 195.687 C 92.581 196.090,90.621 196.181,82.351 196.181 L 72.222 196.181 72.222 191.530 C 72.222 185.853,71.147 186.402,82.111 186.483 L 90.799 186.548 90.799 179.646 L 90.799 172.743 85.069 172.646 C 81.918 172.592,79.145 172.480,78.906 172.396 C 78.294 172.182,78.278 154.153,78.889 153.542 C 79.195 153.236,82.125 153.125,89.913 153.126 C 101.017 153.126,110.183 152.496,112.500 151.572 C 113.168 151.306,114.340 150.988,115.104 150.866 C 115.868 150.743,116.822 150.432,117.224 150.173 C 117.625 149.915,118.518 149.597,119.208 149.468 C 119.897 149.339,120.634 149.025,120.845 148.771 C 121.056 148.517,121.676 148.210,122.222 148.090 C 122.769 147.970,123.402 147.648,123.630 147.374 C 123.857 147.099,124.211 146.875,124.416 146.875 C 127.101 146.875,137.163 136.679,139.837 131.250 C 140.072 130.773,140.413 130.148,140.594 129.861 C 141.180 128.934,142.314 126.243,142.569 125.174 C 142.706 124.601,143.011 123.819,143.246 123.438 C 143.482 123.056,143.779 121.962,143.906 121.007 C 144.033 120.052,144.370 118.643,144.654 117.876 C 145.804 114.773,145.021 103.133,143.346 98.438 C 143.142 97.865,142.796 96.754,142.577 95.969 C 142.358 95.184,142.005 94.324,141.792 94.059 C 141.579 93.794,141.289 93.186,141.147 92.708 C 141.006 92.231,140.693 91.606,140.451 91.319 C 140.210 91.033,139.897 90.408,139.755 89.931 C 139.613 89.453,139.204 88.783,138.846 88.441 C 138.488 88.100,138.194 87.653,138.194 87.449 C 138.194 86.397,128.736 76.389,127.742 76.389 C 127.575 76.389,126.538 75.764,125.438 75.000 C 124.338 74.237,123.228 73.612,122.971 73.612 C 122.715 73.611,122.108 73.299,121.623 72.917 C 121.137 72.535,120.520 72.222,120.252 72.222 C 119.984 72.222,119.151 71.910,118.403 71.528 C 117.654 71.146,116.740 70.833,116.371 70.833 C 116.002 70.833,115.020 70.524,114.187 70.147 C 113.355 69.769,112.049 69.453,111.285 69.444 C 110.521 69.435,108.735 69.119,107.315 68.742 C 104.863 68.090,103.537 68.056,80.720 68.056 C 57.146 68.056,56.693 68.043,56.076 67.361 C 55.731 66.979,55.121 66.661,54.720 66.654 C 54.320 66.648,53.602 66.419,53.125 66.146 C 51.881 65.435,49.078 65.568,46.978 66.439 M52.257 67.708 C 52.390 67.924,51.733 68.056,50.521 68.056 C 49.309 68.056,48.651 67.924,48.785 67.708 C 48.903 67.517,49.684 67.361,50.521 67.361 C 51.358 67.361,52.139 67.517,52.257 67.708 M351.947 76.883 C 352.243 77.652,351.444 78.819,350.623 78.819 C 349.708 78.819,346.875 81.696,346.875 82.624 C 346.875 82.992,346.718 83.389,346.527 83.508 C 346.335 83.626,345.852 84.455,345.453 85.351 C 345.054 86.246,344.351 87.790,343.891 88.781 C 343.432 89.771,343.056 90.743,343.056 90.940 C 343.056 91.137,342.743 91.855,342.361 92.535 C 341.979 93.215,341.667 93.995,341.667 94.269 C 341.667 94.543,341.182 95.320,340.589 95.995 C 338.702 98.144,336.993 97.254,338.703 95.013 C 339.207 94.352,340.167 92.430,340.836 90.742 C 343.392 84.294,345.511 80.160,347.050 78.621 C 348.891 76.780,351.546 75.838,351.947 76.883 M97.222 82.409 C 106.815 82.528,107.569 82.583,109.096 83.282 C 109.992 83.692,111.086 84.029,111.526 84.030 C 111.966 84.031,112.795 84.343,113.368 84.722 C 113.941 85.102,114.689 85.413,115.031 85.414 C 115.373 85.416,116.076 85.705,116.594 86.057 C 117.111 86.409,118.160 87.110,118.924 87.614 C 121.416 89.261,126.736 94.902,126.736 95.897 C 126.736 96.088,127.049 96.642,127.431 97.127 C 127.813 97.613,128.125 98.283,128.125 98.615 C 128.125 98.948,128.355 99.412,128.637 99.645 C 128.918 99.879,129.251 100.640,129.377 101.337 C 129.504 102.034,129.859 103.073,130.168 103.646 C 131.022 105.231,130.986 116.023,130.122 117.604 C 129.787 118.215,129.512 118.997,129.511 119.340 C 129.509 119.684,129.123 120.747,128.654 121.701 C 128.184 122.656,127.795 123.550,127.789 123.687 C 127.724 125.182,121.702 131.858,118.750 133.708 C 117.700 134.366,116.528 135.099,116.146 135.336 C 115.764 135.574,115.061 135.942,114.583 136.153 C 114.106 136.364,113.073 136.832,112.288 137.192 C 111.504 137.553,110.444 137.847,109.933 137.847 C 109.423 137.847,108.425 138.109,107.715 138.429 C 106.625 138.921,104.787 139.034,95.922 139.158 C 83.949 139.324,84.029 139.344,86.125 136.736 C 90.862 130.842,93.346 119.960,92.898 107.064 C 92.481 95.064,91.444 93.586,85.417 96.401 C 84.748 96.714,83.498 97.299,82.639 97.703 C 81.780 98.107,80.704 98.711,80.248 99.045 C 78.479 100.344,78.472 100.316,78.472 91.163 C 78.472 81.193,78.029 82.024,83.267 82.175 C 85.309 82.234,91.589 82.340,97.222 82.409 M307.218 83.297 C 308.227 83.699,309.356 84.028,309.726 84.028 C 310.467 84.028,313.704 85.377,316.042 86.660 C 317.651 87.543,321.106 91.257,321.539 92.570 C 321.766 93.256,322.167 94.232,322.432 94.738 C 324.009 97.761,321.768 106.252,318.705 108.860 C 317.482 109.902,315.692 111.111,315.374 111.111 C 315.220 111.111,314.538 111.409,313.859 111.773 C 313.180 112.137,311.698 112.544,310.566 112.679 C 309.433 112.813,307.569 113.138,306.424 113.401 C 303.942 113.970,278.998 114.101,278.125 113.549 C 277.444 113.119,277.143 84.173,277.806 82.933 L 278.204 82.190 291.793 82.378 C 304.552 82.554,305.494 82.610,307.218 83.297 M175.974 100.576 C 176.033 100.984,175.792 101.842,175.438 102.482 C 174.465 104.245,172.205 107.724,171.525 108.507 C 170.447 109.746,169.109 112.480,168.880 113.908 C 168.746 114.747,168.399 115.441,168.009 115.650 C 167.598 115.870,167.361 116.377,167.361 117.037 C 167.361 118.211,166.589 118.711,165.794 118.052 C 165.099 117.475,165.146 116.367,165.918 115.101 C 166.268 114.526,166.901 113.055,167.325 111.830 C 167.749 110.606,168.763 108.726,169.580 107.652 C 170.397 106.579,171.900 104.333,172.921 102.663 C 174.789 99.606,175.742 98.954,175.974 100.576 M89.718 108.768 C 89.983 109.188,89.922 109.504,89.482 109.990 C 89.156 110.350,88.889 110.910,88.889 111.234 C 88.889 111.558,88.498 111.971,88.021 112.153 C 87.543 112.334,87.153 112.726,87.153 113.023 C 87.153 113.321,86.870 113.676,86.523 113.813 C 86.177 113.950,85.435 114.589,84.874 115.233 C 84.313 115.878,83.525 116.737,83.123 117.143 C 82.721 117.550,82.175 118.488,81.909 119.228 C 81.352 120.780,80.728 121.154,79.966 120.393 C 78.965 119.392,80.262 117.058,83.904 113.308 C 85.691 111.468,87.153 109.830,87.153 109.669 C 87.153 108.428,89.077 107.752,89.718 108.768 M41.710 111.632 C 42.268 112.587,42.811 113.602,42.918 113.889 C 43.235 114.741,43.734 115.716,44.607 117.188 C 45.060 117.951,45.443 118.773,45.458 119.013 C 45.474 119.254,45.955 120.098,46.528 120.888 C 47.101 121.679,47.569 122.500,47.569 122.712 C 47.569 122.923,47.882 123.292,48.264 123.531 C 48.646 123.769,48.958 124.136,48.958 124.346 C 48.958 125.091,51.789 128.266,54.086 130.096 C 55.369 131.118,56.497 132.180,56.594 132.456 C 56.691 132.732,57.253 133.316,57.842 133.753 C 60.544 135.761,63.251 138.512,63.124 139.123 C 62.884 140.286,61.226 139.778,59.585 138.040 C 58.763 137.170,57.955 136.458,57.790 136.458 C 57.625 136.458,57.172 136.146,56.783 135.764 C 53.902 132.933,50.151 129.514,49.925 129.514 C 49.775 129.514,49.653 129.275,49.653 128.982 C 49.653 128.690,49.414 128.359,49.123 128.247 C 48.831 128.135,48.191 127.359,47.701 126.522 C 47.210 125.685,46.687 125.000,46.537 125.000 C 46.387 125.000,46.065 124.492,45.820 123.872 C 45.575 123.251,45.044 122.274,44.640 121.701 C 43.983 120.770,43.146 119.181,42.537 117.708 C 42.419 117.422,41.873 116.406,41.324 115.451 C 39.074 111.535,38.779 110.793,39.251 110.225 C 39.951 109.382,40.618 109.764,41.710 111.632 M360.701 120.404 C 360.773 120.908,360.589 121.269,360.181 121.424 C 359.833 121.556,359.264 122.024,358.916 122.464 C 358.568 122.904,358.158 123.264,358.005 123.264 C 357.852 123.264,356.248 124.709,354.440 126.476 C 349.690 131.117,348.584 131.986,347.569 131.870 C 346.110 131.703,346.569 130.803,349.306 128.462 C 350.738 127.236,351.965 126.104,352.032 125.945 C 352.099 125.786,352.370 125.469,352.634 125.241 C 352.898 125.013,354.249 123.755,355.637 122.447 C 358.968 119.305,360.459 118.703,360.701 120.404 M304.445 127.926 C 305.724 128.198,308.188 128.507,309.921 128.612 C 311.653 128.717,313.640 129.041,314.337 129.332 C 315.033 129.623,316.122 129.861,316.756 129.861 C 317.390 129.861,318.522 130.174,319.271 130.556 C 320.020 130.938,320.876 131.250,321.172 131.250 C 323.366 131.250,329.879 136.212,331.280 138.952 C 331.640 139.655,332.093 140.329,332.287 140.448 C 332.480 140.568,332.639 141.014,332.639 141.439 C 332.639 141.864,332.951 143.101,333.333 144.187 C 336.356 152.787,330.642 164.647,321.354 169.053 C 320.399 169.506,319.040 170.170,318.334 170.528 C 317.628 170.887,316.646 171.181,316.153 171.181 C 315.659 171.181,314.675 171.453,313.965 171.787 C 311.797 172.804,278.331 172.908,277.790 171.898 C 277.181 170.759,277.459 128.754,278.081 128.005 C 278.741 127.209,300.768 127.143,304.445 127.926 M249.859 137.015 C 250.592 137.321,251.353 137.767,251.550 138.006 C 252.006 138.557,260.399 145.381,261.996 146.499 C 263.109 147.279,263.194 147.471,263.194 149.201 C 263.194 151.729,262.601 151.893,260.478 149.953 C 259.565 149.120,257.050 146.954,254.888 145.141 C 252.727 143.327,250.665 141.472,250.308 141.017 L 249.657 140.190 241.161 140.253 C 230.987 140.329,230.668 140.230,231.469 137.240 L 231.678 136.458 240.102 136.458 C 247.046 136.458,248.760 136.556,249.859 137.015 M249.006 143.651 C 249.648 144.180,250.349 144.771,250.562 144.963 C 250.776 145.155,253.703 147.734,257.067 150.694 L 263.183 156.076 263.183 163.889 C 263.184 168.186,263.069 171.880,262.929 172.098 C 262.417 172.895,248.822 172.868,247.938 172.068 C 246.052 170.361,241.216 169.770,238.389 170.902 C 231.944 173.480,231.237 182.256,237.153 186.254 C 239.326 187.723,245.613 187.823,246.825 186.408 C 247.128 186.054,247.525 185.764,247.706 185.764 C 247.887 185.764,248.316 185.511,248.658 185.201 C 249.426 184.505,250.347 184.806,250.347 185.753 C 250.347 186.141,250.543 186.462,250.781 186.467 C 251.020 186.473,259.053 186.469,268.633 186.459 L 286.052 186.441 286.951 187.231 C 287.779 187.957,287.858 188.271,287.936 191.135 L 288.021 194.249 286.948 194.781 C 286.357 195.073,285.243 195.819,284.472 196.437 L 283.069 197.562 267.536 197.653 L 252.004 197.743 252.033 203.993 C 252.049 207.431,252.067 210.419,252.073 210.633 C 252.080 210.897,253.442 211.040,256.279 211.075 C 262.273 211.148,263.447 211.903,264.601 216.428 C 264.991 217.956,265.958 220.733,266.678 222.396 C 268.258 226.043,268.000 226.199,263.542 224.298 C 262.300 223.768,260.503 223.086,259.549 222.782 C 258.594 222.478,256.835 221.915,255.641 221.531 C 252.437 220.501,249.040 220.561,248.766 221.651 C 248.465 222.851,249.844 229.206,250.849 231.250 C 251.084 231.727,251.649 232.899,252.105 233.854 C 256.300 242.644,263.872 248.360,271.975 248.854 C 275.790 249.086,276.341 249.460,277.046 252.292 C 277.488 254.067,278.439 256.847,279.063 258.189 C 279.337 258.778,279.696 259.793,279.861 260.446 C 280.290 262.138,281.248 264.868,281.996 266.531 C 282.350 267.316,282.639 268.221,282.639 268.541 C 282.639 268.862,282.951 269.737,283.333 270.486 C 283.715 271.235,284.028 272.209,284.028 272.652 C 284.028 273.095,284.257 273.784,284.537 274.183 C 284.991 274.831,285.683 277.060,285.869 278.472 C 285.958 279.149,234.269 279.452,233.458 278.779 C 232.716 278.163,232.765 212.758,233.509 211.332 C 233.914 210.555,234.028 208.941,234.028 203.953 L 234.028 197.569 216.260 197.569 C 201.385 197.569,198.403 197.489,197.944 197.075 C 197.316 196.510,194.853 195.554,193.029 195.169 C 191.141 194.771,191.095 194.693,190.630 191.186 C 190.131 187.413,190.215 187.155,191.948 187.147 C 192.652 187.143,194.323 186.900,195.660 186.606 C 196.997 186.313,199.082 185.923,200.293 185.741 C 201.505 185.559,202.829 185.177,203.235 184.893 C 203.641 184.608,204.339 184.375,204.786 184.375 C 205.524 184.375,208.786 183.075,210.069 182.270 C 210.356 182.090,210.926 181.797,211.336 181.618 C 214.838 180.096,224.653 170.906,224.653 169.149 C 224.653 168.957,224.876 168.577,225.148 168.305 C 225.420 168.032,225.886 167.279,226.182 166.630 C 226.479 165.982,226.863 165.217,227.035 164.931 C 227.699 163.826,228.819 161.186,228.819 160.726 C 228.819 160.460,229.122 159.306,229.491 158.160 C 230.384 155.392,231.255 149.429,231.252 146.111 C 231.249 142.625,230.889 142.763,240.152 142.722 L 247.839 142.688 249.006 143.651 M215.546 154.601 C 216.167 155.104,215.430 157.095,213.014 161.440 C 212.254 162.806,207.342 167.665,205.957 168.420 C 205.259 168.800,203.906 169.567,202.951 170.123 C 201.997 170.679,200.903 171.146,200.521 171.160 C 200.139 171.173,199.425 171.394,198.935 171.650 C 196.454 172.945,185.187 173.115,182.439 171.899 C 181.545 171.504,180.561 171.170,180.251 171.157 C 179.680 171.134,177.644 170.020,175.143 168.362 C 172.939 166.902,167.708 160.868,167.708 159.786 C 167.708 159.650,167.399 158.960,167.020 158.254 C 165.963 156.281,165.730 154.266,166.541 154.103 C 168.124 153.786,215.129 154.264,215.546 154.601 M53.646 172.222 C 53.779 172.438,53.122 172.569,51.910 172.569 C 50.698 172.569,50.040 172.438,50.174 172.222 C 50.292 172.031,51.073 171.875,51.910 171.875 C 52.747 171.875,53.528 172.031,53.646 172.222 M244.097 172.222 C 244.097 172.413,243.238 172.569,242.188 172.569 C 241.137 172.569,240.278 172.413,240.278 172.222 C 240.278 172.031,241.137 171.875,242.188 171.875 C 243.238 171.875,244.097 172.031,244.097 172.222 M234.962 179.427 C 234.874 179.761,234.803 179.488,234.803 178.819 C 234.803 178.151,234.874 177.878,234.962 178.212 C 235.049 178.546,235.049 179.093,234.962 179.427 M340.948 187.934 C 346.209 193.124,349.132 196.255,349.132 196.701 C 349.132 197.384,348.870 197.397,333.352 197.486 C 324.636 197.536,317.485 197.715,317.379 197.885 C 317.274 198.055,317.266 201.061,317.361 204.566 L 317.535 210.938 318.576 210.978 C 319.149 211.000,322.082 211.039,325.094 211.064 L 330.570 211.111 330.983 212.017 C 331.334 212.788,331.282 213.121,330.628 214.256 C 330.206 214.989,329.861 215.910,329.861 216.303 C 329.861 216.695,329.549 217.599,329.167 218.312 C 328.785 219.025,328.472 219.942,328.472 220.350 C 328.472 220.759,328.068 221.816,327.574 222.699 L 326.677 224.306 311.515 224.369 C 293.767 224.444,294.734 224.477,294.217 223.770 C 293.776 223.166,293.292 218.129,293.253 213.733 L 293.229 210.974 294.354 210.740 C 300.312 209.501,302.264 200.969,297.666 196.260 C 295.703 194.249,294.462 191.109,294.449 188.120 C 294.442 186.667,295.083 186.541,303.472 186.346 C 312.640 186.133,317.170 185.713,318.672 184.936 C 319.269 184.627,320.197 184.375,320.734 184.375 C 321.272 184.375,322.256 184.086,322.922 183.734 C 323.587 183.381,324.601 182.978,325.174 182.839 C 325.747 182.699,326.450 182.381,326.736 182.132 C 327.023 181.883,327.648 181.561,328.125 181.417 C 328.602 181.273,329.366 180.863,329.821 180.508 C 331.768 178.987,332.110 179.215,340.948 187.934 M157.426 193.576 C 157.637 193.958,158.434 195.130,159.198 196.181 C 162.245 200.373,162.153 200.155,162.153 203.151 C 162.153 205.307,162.036 205.969,161.628 206.126 C 160.593 206.523,160.069 205.574,160.069 203.299 C 160.069 201.792,159.910 200.994,159.549 200.694 C 159.262 200.457,159.028 200.032,159.028 199.750 C 159.028 199.468,158.598 198.807,158.073 198.282 C 155.985 196.193,155.093 194.370,155.633 193.295 C 156.026 192.514,156.918 192.654,157.426 193.576 M52.431 195.833 C 52.431 196.024,51.571 196.181,50.521 196.181 C 49.470 196.181,48.611 196.024,48.611 195.833 C 48.611 195.642,49.470 195.486,50.521 195.486 C 51.571 195.486,52.431 195.642,52.431 195.833 M100.868 195.833 C 101.002 196.050,100.286 196.181,98.958 196.181 C 97.631 196.181,96.914 196.050,97.049 195.833 C 97.167 195.642,98.026 195.486,98.958 195.486 C 99.891 195.486,100.750 195.642,100.868 195.833 M124.479 195.833 C 124.613 196.050,123.897 196.181,122.569 196.181 C 121.242 196.181,120.526 196.050,120.660 195.833 C 120.778 195.642,121.637 195.486,122.569 195.486 C 123.502 195.486,124.361 195.642,124.479 195.833 M293.229 195.833 C 293.364 196.052,292.568 196.179,291.080 196.175 C 289.425 196.172,288.872 196.069,289.236 195.833 C 289.923 195.390,292.955 195.390,293.229 195.833 M359.375 195.833 C 359.375 196.024,358.516 196.181,357.465 196.181 C 356.415 196.181,355.556 196.024,355.556 195.833 C 355.556 195.642,356.415 195.486,357.465 195.486 C 358.516 195.486,359.375 195.642,359.375 195.833 M193.924 197.222 C 194.058 197.439,193.342 197.569,192.014 197.569 C 190.686 197.569,189.970 197.439,190.104 197.222 C 190.222 197.031,191.082 196.875,192.014 196.875 C 192.946 196.875,193.806 197.031,193.924 197.222 M364.583 200.521 C 364.583 200.807,364.427 201.042,364.236 201.042 C 364.045 201.042,363.889 200.807,363.889 200.521 C 363.889 200.234,364.045 200.000,364.236 200.000 C 364.427 200.000,364.583 200.234,364.583 200.521 M350.830 203.381 C 350.671 204.228,350.517 204.444,350.307 204.114 C 349.951 203.551,349.911 202.024,350.232 201.188 C 350.616 200.187,351.097 201.954,350.830 203.381 M185.069 203.819 C 185.069 204.392,184.913 204.861,184.722 204.861 C 184.336 204.861,184.243 203.373,184.606 203.009 C 184.999 202.617,185.069 202.741,185.069 203.819 M364.440 205.120 C 364.061 205.499,363.801 204.896,364.073 204.268 C 364.332 203.674,364.350 203.674,364.494 204.281 C 364.577 204.630,364.553 205.007,364.440 205.120 M184.515 209.028 C 185.243 209.983,185.984 210.764,186.163 210.764 C 186.341 210.764,186.962 211.115,187.543 211.545 C 188.922 212.564,194.930 212.662,196.771 211.695 C 198.737 210.662,206.371 210.854,207.481 211.963 L 208.333 212.816 208.333 246.831 C 208.333 265.539,208.415 281.059,208.515 281.318 C 209.400 283.626,206.129 282.802,205.028 280.440 C 204.746 279.835,204.207 278.872,203.831 278.299 C 203.454 277.726,202.885 276.788,202.566 276.215 C 202.247 275.642,201.874 275.095,201.736 275.000 C 201.598 274.905,201.225 274.358,200.906 273.785 C 200.587 273.212,200.023 272.274,199.652 271.701 C 199.281 271.128,198.657 270.113,198.264 269.444 C 197.871 268.776,197.247 267.760,196.876 267.188 C 196.505 266.615,195.941 265.677,195.622 265.104 C 195.303 264.531,194.929 263.984,194.792 263.889 C 194.654 263.793,194.279 263.247,193.958 262.674 C 193.638 262.101,192.999 261.007,192.539 260.243 C 192.079 259.479,191.554 258.535,191.373 258.145 C 191.193 257.756,190.794 257.229,190.488 256.974 C 190.181 256.720,189.930 256.336,189.930 256.121 C 189.930 255.905,189.305 254.829,188.541 253.729 C 187.778 252.629,187.153 251.598,187.153 251.439 C 187.153 251.280,186.840 250.866,186.458 250.521 C 186.076 250.175,185.764 249.721,185.763 249.512 C 185.763 249.303,185.138 248.232,184.375 247.132 C 183.611 246.032,182.986 245.016,182.986 244.875 C 182.985 244.734,182.360 243.718,181.597 242.618 C 180.833 241.518,180.208 240.487,180.208 240.328 C 180.208 240.169,179.896 239.755,179.514 239.410 C 179.132 239.064,178.819 238.610,178.819 238.401 C 178.819 238.192,178.194 237.121,177.430 236.021 C 176.666 234.921,176.041 233.905,176.041 233.764 C 176.041 233.622,175.416 232.607,174.652 231.507 C 172.817 228.862,172.761 229.032,176.680 225.366 C 181.262 221.078,181.602 220.347,182.009 213.889 C 182.487 206.324,182.473 206.351,184.515 209.028 M177.712 209.618 C 177.772 210.034,177.534 210.660,177.184 211.010 C 176.112 212.082,174.715 214.723,174.268 216.521 C 174.035 217.461,173.647 218.542,173.406 218.924 C 173.165 219.306,172.859 220.216,172.725 220.948 C 172.449 222.456,171.732 222.923,170.928 222.119 C 170.343 221.533,170.748 219.103,171.692 217.535 C 171.923 217.153,172.214 216.312,172.340 215.667 C 173.071 211.934,177.354 207.111,177.712 209.618 M87.565 210.938 C 87.964 212.399,87.884 244.286,87.477 246.108 C 86.806 249.109,84.427 248.837,113.964 249.127 C 128.844 249.273,140.368 249.522,140.716 249.706 C 141.287 250.007,141.321 250.984,141.236 264.511 L 141.146 278.993 112.674 278.993 L 84.201 278.993 84.113 244.905 C 84.015 207.132,83.869 209.557,86.219 209.790 C 87.065 209.874,87.338 210.107,87.565 210.938 M94.097 210.243 C 94.575 210.516,95.462 210.745,96.069 210.752 C 98.244 210.776,98.521 213.453,98.751 236.692 C 98.772 238.826,98.899 240.681,99.031 240.814 C 99.324 241.107,123.557 241.142,123.849 240.850 C 123.962 240.737,124.024 234.104,123.985 226.112 C 123.929 214.374,124.004 211.505,124.377 211.196 C 125.235 210.484,139.725 211.165,140.602 211.959 C 141.571 212.835,141.748 245.392,140.789 246.189 C 140.367 246.539,135.242 246.593,115.731 246.450 C 88.419 246.251,89.954 246.402,90.430 243.967 C 90.537 243.418,90.625 235.488,90.625 226.345 L 90.625 209.722 91.927 209.735 C 92.643 209.741,93.620 209.970,94.097 210.243 M230.208 246.181 C 230.304 265.373,230.508 281.272,230.663 281.510 C 230.884 281.852,236.937 281.944,259.006 281.944 C 290.134 281.944,287.621 281.732,288.151 284.412 C 288.317 285.251,288.706 286.406,289.016 286.979 C 289.326 287.552,289.580 288.300,289.581 288.642 C 289.582 288.984,289.896 289.876,290.278 290.625 C 290.660 291.374,290.972 292.272,290.972 292.621 C 290.972 292.970,291.285 293.869,291.667 294.618 C 292.527 296.306,292.558 297.222,291.753 297.221 C 291.419 297.221,287.630 297.320,283.333 297.442 C 271.759 297.770,223.200 297.556,222.483 297.174 C 221.909 296.869,221.875 294.487,221.875 254.675 C 221.875 205.329,221.248 211.026,226.662 211.185 L 230.035 211.285 230.208 246.181 M289.729 211.806 C 290.219 212.301,291.128 220.996,291.035 224.306 C 290.958 227.067,292.037 228.093,294.346 227.452 C 295.751 227.062,324.160 226.916,325.145 227.294 C 325.905 227.585,325.832 229.126,325.000 230.382 C 324.621 230.955,324.309 231.781,324.308 232.219 C 324.307 232.656,323.993 233.626,323.611 234.375 C 323.229 235.124,322.916 236.094,322.914 236.531 C 322.913 236.969,322.602 237.795,322.222 238.368 C 321.843 238.941,321.531 239.768,321.530 240.205 C 321.529 240.642,321.215 241.612,320.833 242.361 C 320.451 243.110,320.139 244.042,320.139 244.432 C 320.139 244.822,319.826 245.724,319.444 246.437 C 319.063 247.150,318.750 248.083,318.750 248.511 C 318.750 248.939,318.438 249.800,318.057 250.426 C 317.676 251.051,317.363 251.915,317.362 252.345 C 317.362 252.775,317.049 253.711,316.667 254.423 C 316.285 255.136,315.972 256.036,315.972 256.424 C 315.972 256.811,315.660 257.711,315.278 258.424 C 314.896 259.137,314.582 260.072,314.581 260.502 C 314.580 260.933,314.268 261.753,313.889 262.326 C 313.509 262.899,313.198 263.761,313.197 264.241 C 313.195 264.722,312.882 265.698,312.500 266.410 C 312.118 267.123,311.805 268.058,311.804 268.488 C 311.804 268.919,311.491 269.782,311.110 270.408 C 310.729 271.033,310.417 271.895,310.417 272.323 C 310.417 272.750,310.104 273.684,309.722 274.396 C 309.340 275.109,309.028 276.011,309.028 276.401 C 309.028 276.792,308.715 277.724,308.333 278.472 C 307.951 279.221,307.639 280.082,307.639 280.385 C 307.639 280.689,307.374 281.437,307.049 282.048 C 306.725 282.660,306.374 283.863,306.268 284.722 C 305.921 287.547,302.778 286.066,302.778 283.078 C 302.778 282.726,302.483 281.860,302.123 281.154 C 301.762 280.447,301.359 279.289,301.226 278.581 C 301.093 277.872,300.763 276.976,300.492 276.590 C 300.221 276.203,300.000 275.564,300.000 275.170 C 300.000 274.775,299.705 273.874,299.345 273.167 C 298.985 272.461,298.581 271.303,298.448 270.594 C 298.315 269.886,297.985 268.990,297.714 268.604 C 297.444 268.217,297.222 267.578,297.222 267.184 C 297.222 266.789,296.927 265.888,296.567 265.181 C 296.207 264.475,295.803 263.317,295.670 262.608 C 295.537 261.900,295.207 261.004,294.937 260.618 C 294.666 260.231,294.444 259.592,294.444 259.198 C 294.444 258.803,294.150 257.902,293.789 257.195 C 293.429 256.489,293.027 255.339,292.896 254.640 C 292.765 253.942,292.446 253.042,292.188 252.640 C 291.929 252.238,291.609 251.285,291.475 250.521 C 291.341 249.757,291.037 248.898,290.799 248.611 C 290.561 248.325,290.256 247.465,290.122 246.701 C 289.989 245.937,289.677 244.998,289.430 244.613 C 289.182 244.228,288.866 243.369,288.727 242.703 C 288.587 242.038,288.274 241.177,288.031 240.791 C 287.787 240.405,287.479 239.443,287.345 238.653 C 287.212 237.863,286.884 236.929,286.618 236.577 C 286.351 236.225,286.128 235.619,286.122 235.230 C 286.116 234.840,285.816 233.944,285.456 233.237 C 285.096 232.530,284.694 231.381,284.563 230.682 C 284.432 229.984,284.113 229.084,283.855 228.682 C 283.596 228.280,283.271 227.326,283.133 226.563 C 282.995 225.799,282.686 224.861,282.447 224.479 C 282.208 224.097,281.904 223.238,281.771 222.569 C 281.638 221.901,281.321 221.025,281.068 220.624 C 280.814 220.222,280.493 219.284,280.355 218.540 C 280.217 217.796,279.899 216.873,279.649 216.489 C 279.051 215.569,278.353 212.270,278.613 211.593 C 278.907 210.826,288.950 211.019,289.729 211.806 M358.275 211.596 C 358.715 211.868,358.804 288.833,358.378 300.694 L 358.160 306.771 351.042 306.704 C 332.161 306.527,316.162 305.891,315.712 305.299 C 315.107 304.504,315.149 300.339,315.770 299.452 C 316.041 299.065,316.376 298.132,316.515 297.378 C 316.654 296.624,317.058 295.462,317.412 294.797 C 317.766 294.131,318.056 293.305,318.056 292.960 C 318.056 292.615,318.368 291.721,318.750 290.972 C 319.132 290.224,319.444 289.292,319.444 288.901 C 319.444 288.511,319.757 287.609,320.139 286.896 C 320.521 286.184,320.833 285.319,320.833 284.974 C 320.833 284.629,321.146 283.735,321.528 282.986 C 321.910 282.237,322.222 281.306,322.222 280.915 C 322.222 280.525,322.535 279.623,322.917 278.910 C 323.299 278.198,323.611 277.294,323.611 276.901 C 323.611 276.509,323.924 275.576,324.306 274.826 C 324.688 274.077,325.000 273.184,325.000 272.842 C 325.000 272.500,325.313 271.637,325.694 270.924 C 326.076 270.211,326.389 269.274,326.389 268.841 C 326.389 268.407,326.701 267.470,327.083 266.757 C 327.465 266.045,327.778 265.180,327.778 264.835 C 327.778 264.490,328.090 263.596,328.472 262.847 C 328.854 262.099,329.167 261.167,329.167 260.776 C 329.167 260.386,329.479 259.484,329.861 258.771 C 330.243 258.059,330.556 257.194,330.556 256.849 C 330.556 256.504,330.868 255.610,331.250 254.861 C 331.632 254.112,331.944 253.181,331.944 252.790 C 331.944 252.400,332.257 251.498,332.639 250.785 C 333.021 250.073,333.333 249.139,333.333 248.711 C 333.333 248.284,333.645 247.422,334.026 246.797 C 334.408 246.171,334.720 245.308,334.721 244.877 C 334.722 244.447,335.035 243.512,335.417 242.799 C 335.799 242.086,336.111 241.153,336.111 240.725 C 336.111 240.297,336.423 239.436,336.804 238.810 C 337.185 238.185,337.498 237.321,337.499 236.891 C 337.499 236.461,337.813 235.526,338.194 234.813 C 338.576 234.100,338.889 233.163,338.889 232.730 C 338.889 232.296,339.201 231.359,339.583 230.646 C 339.965 229.934,340.278 229.069,340.278 228.724 C 340.278 228.379,340.590 227.485,340.972 226.736 C 341.354 225.987,341.668 225.017,341.669 224.580 C 341.670 224.143,341.982 223.316,342.361 222.743 C 342.741 222.170,343.052 221.344,343.053 220.906 C 343.055 220.469,343.368 219.499,343.750 218.750 C 344.132 218.001,344.444 217.062,344.444 216.662 C 344.444 216.263,344.749 215.358,345.122 214.652 C 345.494 213.946,345.882 213.088,345.984 212.746 C 346.408 211.324,356.333 210.396,358.275 211.596 M261.847 228.906 C 264.455 231.633,264.587 231.791,265.217 232.943 C 265.537 233.529,267.527 235.849,269.639 238.098 C 274.209 242.965,275.164 244.211,274.884 244.940 C 274.522 245.885,273.343 245.544,272.327 244.200 C 271.792 243.492,270.573 242.114,269.618 241.137 C 266.585 238.033,264.690 235.879,263.158 233.796 C 262.339 232.682,260.997 231.094,260.175 230.268 C 258.607 228.690,258.411 228.187,259.097 227.500 C 259.752 226.845,259.992 226.968,261.847 228.906 M156.944 230.538 C 156.944 230.719,157.335 231.288,157.813 231.804 C 158.290 232.319,158.681 232.872,158.681 233.033 C 158.681 233.194,159.305 234.226,160.069 235.326 C 160.833 236.426,161.458 237.470,161.458 237.646 C 161.458 237.822,161.718 238.253,162.035 238.604 C 162.352 238.954,162.782 239.531,162.990 239.886 C 163.198 240.241,163.724 241.138,164.159 241.880 C 164.594 242.622,165.253 243.698,165.624 244.271 C 165.995 244.844,166.558 245.774,166.875 246.337 C 167.192 246.901,167.665 247.576,167.927 247.838 C 168.189 248.099,168.403 248.485,168.403 248.695 C 168.403 248.905,168.662 249.364,168.980 249.715 C 169.631 250.435,170.232 251.417,170.978 252.979 C 171.258 253.567,171.731 254.250,172.029 254.497 C 172.326 254.744,172.569 255.085,172.569 255.254 C 172.569 255.424,173.132 256.363,173.819 257.340 C 175.549 259.802,175.630 259.776,165.726 259.877 C 162.566 259.910,162.791 258.263,162.823 281.115 C 162.839 292.908,162.718 301.421,162.529 301.712 C 162.187 302.241,155.999 302.313,155.477 301.794 C 155.299 301.618,155.064 241.149,155.200 230.816 C 155.206 230.401,155.484 230.208,156.076 230.208 C 156.554 230.208,156.944 230.357,156.944 230.538 M62.778 245.355 C 62.836 245.757,63.266 246.260,63.733 246.473 C 64.215 246.692,64.583 247.155,64.583 247.542 C 64.583 247.916,64.740 248.319,64.931 248.438 C 65.122 248.556,65.278 248.955,65.278 249.326 C 65.278 249.697,65.442 250.000,65.643 250.000 C 65.844 250.000,66.173 250.473,66.375 251.052 C 66.579 251.636,67.198 252.341,67.768 252.635 C 69.144 253.346,68.957 254.303,67.413 254.452 C 66.274 254.561,64.931 253.785,64.931 253.017 C 64.931 252.826,64.565 252.186,64.118 251.595 C 63.670 251.004,63.198 250.089,63.068 249.562 C 62.938 249.034,62.367 248.188,61.798 247.682 C 60.685 246.690,60.554 246.179,61.135 245.095 C 61.601 244.223,62.640 244.387,62.778 245.355 M140.770 282.155 C 141.564 282.460,141.605 301.067,140.813 301.724 C 140.310 302.141,134.696 302.323,134.078 301.941 C 133.913 301.839,133.701 298.701,133.607 294.968 C 133.513 291.236,133.348 288.093,133.239 287.984 C 133.007 287.752,90.633 287.801,90.256 288.034 C 90.116 288.121,89.903 290.185,89.783 292.620 C 89.663 295.056,89.479 297.876,89.374 298.886 L 89.182 300.724 86.692 300.622 L 84.201 300.521 84.108 291.673 C 84.057 286.806,84.091 282.626,84.184 282.384 C 84.362 281.921,139.578 281.698,140.770 282.155 M294.965 300.694 C 294.965 300.949,294.770 301.223,294.531 301.302 C 294.273 301.388,294.097 301.142,294.097 300.694 C 294.097 300.247,294.273 300.001,294.531 300.087 C 294.770 300.166,294.965 300.440,294.965 300.694 M296.181 303.299 C 296.181 303.776,296.024 304.167,295.833 304.167 C 295.445 304.167,295.357 303.022,295.718 302.662 C 296.100 302.279,296.181 302.390,296.181 303.299 M297.569 307.465 C 297.569 307.943,297.413 308.333,297.222 308.333 C 296.834 308.333,296.746 307.189,297.106 306.829 C 297.489 306.446,297.569 306.556,297.569 307.465 " stroke="none" fill="#fcfcfc" fill-rule="evenodd"></path><path id="path1" d="M0.000 200.000 L 0.000 400.000 200.000 400.000 L 400.000 400.000 400.000 200.000 L 400.000 0.000 200.000 0.000 L 0.000 0.000 0.000 200.000 M53.125 66.146 C 53.602 66.419,54.320 66.648,54.720 66.654 C 55.121 66.661,55.731 66.979,56.076 67.361 C 56.693 68.043,57.146 68.056,80.720 68.056 C 103.537 68.056,104.863 68.090,107.315 68.742 C 108.735 69.119,110.521 69.435,111.285 69.444 C 112.049 69.453,113.355 69.769,114.187 70.147 C 115.020 70.524,116.002 70.833,116.371 70.833 C 116.740 70.833,117.654 71.146,118.403 71.528 C 119.151 71.910,119.984 72.222,120.252 72.222 C 120.520 72.222,121.137 72.535,121.623 72.917 C 122.108 73.299,122.715 73.611,122.971 73.612 C 123.228 73.612,124.338 74.237,125.438 75.000 C 126.538 75.764,127.575 76.389,127.742 76.389 C 128.736 76.389,138.194 86.397,138.194 87.449 C 138.194 87.653,138.488 88.100,138.846 88.441 C 139.204 88.783,139.613 89.453,139.755 89.931 C 139.897 90.408,140.210 91.033,140.451 91.319 C 140.693 91.606,141.006 92.231,141.147 92.708 C 141.289 93.186,141.579 93.794,141.792 94.059 C 142.005 94.324,142.358 95.184,142.577 95.969 C 142.796 96.754,143.142 97.865,143.346 98.438 C 145.021 103.133,145.804 114.773,144.654 117.876 C 144.370 118.643,144.033 120.052,143.906 121.007 C 143.779 121.962,143.482 123.056,143.246 123.438 C 143.011 123.819,142.706 124.601,142.569 125.174 C 142.314 126.243,141.180 128.934,140.594 129.861 C 140.413 130.148,140.072 130.773,139.837 131.250 C 137.163 136.679,127.101 146.875,124.416 146.875 C 124.211 146.875,123.857 147.099,123.630 147.374 C 123.402 147.648,122.769 147.970,122.222 148.090 C 121.676 148.210,121.056 148.517,120.845 148.771 C 120.634 149.025,119.897 149.339,119.208 149.468 C 118.518 149.597,117.625 149.915,117.224 150.173 C 116.822 150.432,115.868 150.743,115.104 150.866 C 114.340 150.988,113.168 151.306,112.500 151.572 C 110.183 152.496,101.017 153.126,89.913 153.126 C 82.125 153.125,79.195 153.236,78.889 153.542 C 78.278 154.153,78.294 172.182,78.906 172.396 C 79.145 172.480,81.918 172.592,85.069 172.646 L 90.799 172.743 90.799 179.646 L 90.799 186.548 82.111 186.483 C 71.147 186.402,72.222 185.853,72.222 191.530 L 72.222 196.181 82.351 196.181 C 90.621 196.181,92.581 196.090,93.028 195.687 C 95.598 193.371,102.079 193.446,105.105 195.826 C 110.146 199.792,108.275 209.103,102.106 210.749 C 101.218 210.986,101.215 210.998,101.113 215.302 C 100.951 222.162,101.606 237.099,102.095 237.688 C 102.656 238.364,120.094 238.447,120.764 237.778 C 121.310 237.232,121.363 212.449,120.821 211.436 C 120.623 211.066,120.116 210.761,119.693 210.758 C 115.997 210.727,112.844 205.096,113.851 200.325 C 115.087 194.468,123.869 191.716,128.470 195.744 C 130.713 197.708,129.938 197.569,138.689 197.569 L 146.822 197.569 147.803 195.573 C 148.854 193.436,151.589 189.513,154.099 186.545 C 155.970 184.332,157.629 183.989,158.295 185.677 C 158.800 186.958,159.432 188.009,162.526 192.708 C 167.111 199.674,167.463 200.307,168.421 203.299 C 169.180 205.668,169.275 208.013,168.705 210.276 C 168.170 212.404,168.443 212.470,170.143 210.626 C 171.678 208.961,175.234 206.944,176.635 206.944 C 177.092 206.944,177.950 206.694,178.543 206.387 C 179.135 206.081,180.338 205.727,181.216 205.602 L 182.813 205.373 182.834 203.815 C 182.846 202.958,183.030 201.938,183.242 201.547 C 183.719 200.671,183.848 198.383,183.754 192.475 C 183.663 186.800,183.224 185.993,180.055 185.666 C 179.003 185.557,177.792 185.223,177.362 184.922 C 176.933 184.621,176.231 184.375,175.803 184.375 C 174.782 184.375,168.962 181.444,167.188 180.037 C 166.424 179.431,165.540 178.792,165.224 178.617 C 163.948 177.909,159.945 173.833,158.604 171.875 C 158.276 171.398,157.572 170.382,157.039 169.618 C 156.505 168.854,155.876 167.839,155.641 167.361 C 155.406 166.884,155.081 166.259,154.918 165.972 C 153.991 164.336,153.123 162.235,153.124 161.627 C 153.125 161.242,152.813 160.344,152.431 159.632 C 152.049 158.919,151.735 157.906,151.734 157.380 C 151.732 156.854,151.420 155.125,151.039 153.537 C 150.372 150.756,150.347 149.414,150.347 116.664 L 150.347 82.678 149.576 82.138 C 148.957 81.704,147.724 81.597,143.346 81.597 C 139.932 81.597,137.804 81.462,137.664 81.235 C 137.541 81.036,137.433 78.028,137.423 74.551 L 137.406 68.229 158.721 68.229 L 180.035 68.229 180.035 74.826 L 180.035 81.424 173.336 81.525 C 163.689 81.670,164.521 80.513,164.613 93.668 C 164.685 103.989,164.875 104.971,166.387 102.829 C 166.636 102.475,168.265 100.640,170.005 98.749 C 171.746 96.859,173.676 94.727,174.295 94.010 C 176.214 91.788,177.099 92.098,178.806 95.592 C 182.335 102.814,182.299 106.939,178.670 111.347 C 176.791 113.629,170.080 119.097,169.158 119.097 C 168.985 119.097,168.445 119.411,167.957 119.795 C 167.469 120.178,166.596 120.587,166.016 120.703 C 165.084 120.889,164.935 121.090,164.735 122.420 C 164.414 124.562,164.698 150.578,165.046 150.926 C 165.205 151.085,176.924 151.215,191.088 151.215 L 216.840 151.215 216.929 116.746 L 217.017 82.276 216.162 81.951 C 215.692 81.772,212.293 81.580,208.609 81.525 L 201.910 81.424 201.815 74.737 L 201.721 68.050 222.257 68.140 L 242.793 68.229 242.772 74.566 C 242.760 78.051,242.741 81.040,242.730 81.209 C 242.718 81.377,240.522 81.538,237.851 81.565 C 232.356 81.623,232.186 81.658,231.644 82.848 C 231.115 84.009,231.082 132.023,231.609 133.009 C 231.951 133.647,232.427 133.681,241.007 133.681 C 251.525 133.681,249.902 133.157,256.848 138.795 C 260.157 141.480,262.370 143.046,262.686 142.925 C 263.439 142.636,263.455 83.475,262.702 82.445 C 262.256 81.834,261.681 81.761,256.539 81.662 C 253.420 81.601,250.732 81.418,250.565 81.255 C 250.399 81.091,250.263 78.093,250.263 74.593 L 250.263 68.229 276.086 68.229 C 299.429 68.229,302.167 68.288,304.586 68.837 C 306.058 69.171,307.933 69.448,308.753 69.452 C 309.572 69.456,310.924 69.769,311.757 70.147 C 312.589 70.524,313.685 70.833,314.192 70.833 C 314.700 70.833,315.698 71.146,316.410 71.528 C 317.123 71.910,317.998 72.222,318.355 72.222 C 318.712 72.222,319.401 72.535,319.886 72.917 C 320.372 73.299,320.997 73.611,321.275 73.611 C 321.554 73.611,322.179 73.924,322.664 74.306 C 323.150 74.688,323.712 75.000,323.913 75.000 C 324.323 75.000,327.767 77.699,329.295 79.218 C 330.541 80.457,331.209 80.465,332.313 79.253 C 334.114 77.279,337.689 74.653,338.578 74.653 C 338.863 74.653,339.274 74.476,339.490 74.260 C 339.957 73.793,342.863 72.720,345.394 72.081 C 346.394 71.828,347.410 71.459,347.651 71.260 C 347.893 71.061,348.872 70.786,349.826 70.650 C 350.781 70.513,352.188 70.126,352.951 69.791 C 353.715 69.455,355.239 69.072,356.338 68.940 C 358.880 68.634,359.007 68.906,358.179 72.888 C 357.753 74.936,357.467 78.583,357.265 84.549 C 356.617 103.643,353.706 110.146,342.336 117.890 C 338.555 120.465,336.218 122.824,336.739 123.538 C 336.978 123.865,337.265 124.405,337.377 124.740 C 337.686 125.661,338.644 125.470,339.779 124.259 C 342.594 121.256,350.225 116.319,352.053 116.319 C 352.280 116.319,352.892 116.099,353.414 115.829 C 354.743 115.141,362.734 113.824,364.785 113.954 C 367.356 114.118,367.212 115.609,363.954 122.569 C 360.073 130.861,354.554 137.506,348.832 140.777 C 347.187 141.717,347.150 141.774,347.387 143.006 C 347.521 143.702,347.763 144.974,347.926 145.833 C 348.389 148.274,348.313 151.547,347.718 154.815 C 346.741 160.182,346.409 161.272,344.650 164.874 C 342.820 168.622,342.676 168.855,340.581 171.436 C 337.688 174.999,337.278 174.223,347.448 184.421 C 356.100 193.096,356.406 193.362,358.125 193.695 C 367.034 195.419,369.884 204.612,363.012 209.455 L 361.458 210.550 361.423 244.251 C 361.372 291.789,361.202 309.076,360.780 309.498 C 360.540 309.738,352.965 309.649,337.218 309.221 C 312.648 308.554,312.799 308.548,312.309 310.156 C 312.178 310.586,311.875 311.172,311.635 311.458 C 311.395 311.745,311.094 312.567,310.965 313.284 C 310.671 314.926,308.760 318.045,308.021 318.088 C 305.743 318.222,300.788 317.929,300.440 317.640 C 299.782 317.096,297.917 313.500,297.917 312.777 C 297.917 312.407,297.538 311.992,297.022 311.795 C 296.246 311.500,296.142 311.282,296.240 310.155 C 296.338 309.037,296.247 308.839,295.589 308.745 C 294.629 308.609,294.301 307.639,294.827 306.486 C 295.343 305.352,295.049 304.598,294.032 304.454 C 293.353 304.358,293.246 304.166,293.338 303.212 C 293.429 302.271,293.299 302.027,292.557 301.745 C 292.067 301.558,291.667 301.148,291.667 300.832 C 291.667 300.308,290.582 300.268,278.906 300.365 C 271.888 300.423,256.318 300.435,244.305 300.392 C 232.293 300.348,222.335 300.443,222.177 300.601 C 222.019 300.759,221.847 304.320,221.795 308.514 L 221.701 316.139 217.708 316.030 C 212.116 315.877,210.399 315.327,208.666 313.134 C 207.910 312.178,207.292 311.200,207.292 310.960 C 207.292 310.720,206.979 310.241,206.597 309.896 C 206.215 309.550,205.903 309.137,205.903 308.978 C 205.903 308.818,205.278 307.788,204.514 306.688 C 203.751 305.588,203.126 304.572,203.125 304.431 C 203.125 304.290,202.500 303.274,201.737 302.174 C 200.973 301.074,200.348 300.003,200.348 299.793 C 200.347 299.584,200.035 299.130,199.653 298.785 C 199.271 298.439,198.958 298.031,198.958 297.878 C 198.958 297.599,197.670 295.548,196.701 294.287 C 196.415 293.914,196.181 293.486,196.181 293.336 C 196.181 293.186,195.556 292.163,194.792 291.063 C 194.028 289.963,193.403 288.919,193.403 288.743 C 193.403 288.567,193.143 288.136,192.826 287.785 C 192.509 287.435,192.079 286.858,191.871 286.503 C 191.663 286.148,191.137 285.251,190.702 284.509 C 190.267 283.767,189.607 282.691,189.236 282.118 C 188.865 281.545,188.205 280.469,187.770 279.727 C 187.335 278.985,186.817 278.103,186.618 277.768 C 186.420 277.432,186.035 276.890,185.764 276.562 C 185.156 275.829,184.556 274.821,183.869 273.374 C 183.580 272.767,183.176 272.166,182.970 272.039 C 182.764 271.912,182.446 271.471,182.263 271.060 C 182.080 270.649,181.467 269.609,180.901 268.750 C 180.335 267.891,179.768 266.953,179.640 266.667 C 179.513 266.380,179.183 265.883,178.908 265.562 C 178.633 265.241,178.149 264.460,177.832 263.826 L 177.257 262.674 171.822 262.578 C 165.913 262.474,164.980 262.736,165.420 264.375 C 165.527 264.776,165.618 273.424,165.620 283.594 L 165.625 302.083 166.406 302.089 C 166.836 302.092,167.363 302.209,167.579 302.349 C 168.045 302.653,168.214 315.486,167.755 315.770 C 167.594 315.869,158.651 315.966,147.881 315.984 L 128.299 316.018 128.125 309.485 C 127.919 301.718,127.848 302.083,129.551 302.083 L 130.903 302.083 130.903 296.903 C 130.903 294.054,130.808 291.476,130.692 291.174 C 130.351 290.285,92.838 290.342,92.578 291.233 C 92.297 292.191,92.161 300.263,92.421 300.523 C 92.549 300.651,93.409 300.763,94.331 300.772 C 96.786 300.794,96.721 300.582,96.528 307.979 L 96.354 314.629 76.599 314.595 C 65.733 314.577,56.714 314.482,56.556 314.384 C 56.330 314.245,56.147 301.239,56.368 300.975 C 56.398 300.938,59.314 300.821,62.847 300.714 L 69.271 300.521 69.360 280.187 L 69.450 259.853 68.220 259.267 C 67.544 258.944,66.815 258.681,66.602 258.681 C 65.981 258.681,62.659 257.029,60.921 255.855 C 56.938 253.167,55.811 250.254,56.547 244.551 C 57.218 239.355,58.436 238.327,61.429 240.431 C 62.396 241.110,63.279 241.667,63.391 241.667 C 63.503 241.667,64.664 242.292,65.972 243.056 C 69.798 245.290,69.445 246.852,69.439 227.691 C 69.436 217.762,69.300 210.725,69.105 210.417 C 68.565 209.560,56.632 209.457,54.912 210.293 C 52.475 211.478,47.335 211.161,45.318 209.701 C 39.075 205.183,40.336 196.700,47.605 194.311 C 50.338 193.413,54.484 194.071,56.277 195.687 C 57.132 196.456,68.936 196.406,69.234 195.631 C 69.588 194.708,69.468 187.845,69.085 187.130 C 68.607 186.237,60.633 186.170,55.662 187.017 C 49.591 188.052,46.537 187.104,43.959 183.385 C 42.628 181.464,42.473 176.186,43.709 174.870 C 44.113 174.440,44.444 173.928,44.444 173.734 C 44.444 172.471,49.339 170.139,51.988 170.139 C 53.577 170.139,56.665 171.167,57.590 172.005 C 58.119 172.483,58.787 172.580,60.982 172.498 L 63.715 172.396 63.806 158.417 L 63.897 144.439 62.764 143.749 C 62.142 143.369,61.270 143.058,60.828 143.057 C 60.386 143.056,59.292 142.764,58.398 142.409 C 57.503 142.053,55.833 141.405,54.688 140.968 C 52.174 140.010,48.939 138.469,47.049 137.329 C 46.285 136.868,45.425 136.379,45.139 136.241 C 41.781 134.628,34.375 126.999,34.375 125.153 C 34.375 124.968,34.037 124.193,33.623 123.432 C 32.647 121.637,32.538 114.271,33.454 111.979 C 33.759 111.215,34.159 109.965,34.344 109.201 C 34.727 107.614,36.094 103.799,36.832 102.257 C 37.615 100.623,39.060 100.663,40.801 102.367 C 42.116 103.654,46.884 107.475,51.927 111.285 C 55.249 113.794,58.697 117.608,60.047 120.268 C 61.502 123.134,62.153 123.201,62.153 120.484 C 62.153 119.939,62.541 119.037,63.021 118.466 L 63.889 117.434 63.889 100.079 C 63.889 84.367,63.835 82.679,63.315 82.247 C 62.453 81.531,56.967 81.388,55.689 82.049 C 54.377 82.727,50.529 83.124,48.277 82.814 C 41.501 81.882,39.063 73.099,44.200 68.127 C 46.328 66.068,51.126 65.003,53.125 66.146 M48.785 67.708 C 48.651 67.924,49.309 68.056,50.521 68.056 C 51.733 68.056,52.390 67.924,52.257 67.708 C 52.139 67.517,51.358 67.361,50.521 67.361 C 49.684 67.361,48.903 67.517,48.785 67.708 M349.371 76.948 C 346.593 78.161,344.449 81.626,340.836 90.742 C 340.167 92.430,339.207 94.352,338.703 95.013 C 336.993 97.254,338.702 98.144,340.589 95.995 C 341.182 95.320,341.667 94.543,341.667 94.269 C 341.667 93.995,341.979 93.215,342.361 92.535 C 342.743 91.855,343.056 91.137,343.056 90.940 C 343.056 90.743,343.432 89.771,343.891 88.781 C 344.351 87.790,345.054 86.246,345.453 85.351 C 345.852 84.455,346.335 83.626,346.527 83.508 C 346.718 83.389,346.875 82.992,346.875 82.624 C 346.875 81.696,349.708 78.819,350.623 78.819 C 351.444 78.819,352.243 77.652,351.947 76.883 C 351.713 76.271,350.871 76.293,349.371 76.948 M79.013 82.371 C 78.546 82.632,78.472 83.837,78.472 91.163 C 78.472 100.316,78.479 100.344,80.248 99.045 C 80.704 98.711,81.780 98.107,82.639 97.703 C 83.498 97.299,84.748 96.714,85.417 96.401 C 91.444 93.586,92.481 95.064,92.898 107.064 C 93.346 119.960,90.862 130.842,86.125 136.736 C 84.029 139.344,83.949 139.324,95.922 139.158 C 104.787 139.034,106.625 138.921,107.715 138.429 C 108.425 138.109,109.423 137.847,109.933 137.847 C 110.444 137.847,111.504 137.553,112.288 137.192 C 113.073 136.832,114.106 136.364,114.583 136.153 C 115.061 135.942,115.764 135.574,116.146 135.336 C 116.528 135.099,117.700 134.366,118.750 133.708 C 121.702 131.858,127.724 125.182,127.789 123.687 C 127.795 123.550,128.184 122.656,128.654 121.701 C 129.123 120.747,129.509 119.684,129.511 119.340 C 129.512 118.997,129.787 118.215,130.122 117.604 C 130.986 116.023,131.022 105.231,130.168 103.646 C 129.859 103.073,129.504 102.034,129.377 101.337 C 129.251 100.640,128.918 99.879,128.637 99.645 C 128.355 99.412,128.125 98.948,128.125 98.615 C 128.125 98.283,127.813 97.613,127.431 97.127 C 127.049 96.642,126.736 96.088,126.736 95.897 C 126.736 94.902,121.416 89.261,118.924 87.614 C 118.160 87.110,117.111 86.409,116.594 86.057 C 116.076 85.705,115.373 85.416,115.031 85.414 C 114.689 85.413,113.941 85.102,113.368 84.722 C 112.795 84.343,111.966 84.031,111.526 84.030 C 111.086 84.029,109.992 83.692,109.096 83.282 C 107.569 82.583,106.815 82.528,97.222 82.409 C 91.589 82.340,85.309 82.234,83.267 82.175 C 81.225 82.116,79.311 82.204,79.013 82.371 M277.806 82.933 C 277.143 84.173,277.444 113.119,278.125 113.549 C 278.998 114.101,303.942 113.970,306.424 113.401 C 307.569 113.138,309.433 112.813,310.566 112.679 C 311.698 112.544,313.180 112.137,313.859 111.773 C 314.538 111.409,315.220 111.111,315.374 111.111 C 315.692 111.111,317.482 109.902,318.705 108.860 C 321.768 106.252,324.009 97.761,322.432 94.738 C 322.167 94.232,321.766 93.256,321.539 92.570 C 321.106 91.257,317.651 87.543,316.042 86.660 C 313.704 85.377,310.467 84.028,309.726 84.028 C 309.356 84.028,308.227 83.699,307.218 83.297 C 305.494 82.610,304.552 82.554,291.793 82.378 L 278.204 82.190 277.806 82.933 M172.921 102.663 C 171.900 104.333,170.397 106.579,169.580 107.652 C 168.763 108.726,167.749 110.606,167.325 111.830 C 166.901 113.055,166.268 114.526,165.918 115.101 C 165.146 116.367,165.099 117.475,165.794 118.052 C 166.589 118.711,167.361 118.211,167.361 117.037 C 167.361 116.377,167.598 115.870,168.009 115.650 C 168.399 115.441,168.746 114.747,168.880 113.908 C 169.109 112.480,170.447 109.746,171.525 108.507 C 172.205 107.724,174.465 104.245,175.438 102.482 C 176.174 101.149,176.121 99.882,175.322 99.730 C 174.959 99.660,174.157 100.641,172.921 102.663 M87.869 108.659 C 87.475 109.053,87.153 109.507,87.153 109.669 C 87.153 109.830,85.691 111.468,83.904 113.308 C 80.262 117.058,78.965 119.392,79.966 120.393 C 80.728 121.154,81.352 120.780,81.909 119.228 C 82.175 118.488,82.721 117.550,83.123 117.143 C 83.525 116.737,84.313 115.878,84.874 115.233 C 85.435 114.589,86.177 113.950,86.523 113.813 C 86.870 113.676,87.153 113.321,87.153 113.023 C 87.153 112.726,87.543 112.334,88.021 112.153 C 88.498 111.971,88.889 111.558,88.889 111.234 C 88.889 110.910,89.156 110.350,89.482 109.990 C 90.621 108.731,89.074 107.454,87.869 108.659 M39.251 110.225 C 38.779 110.793,39.074 111.535,41.324 115.451 C 41.873 116.406,42.419 117.422,42.537 117.708 C 43.146 119.181,43.983 120.770,44.640 121.701 C 45.044 122.274,45.575 123.251,45.820 123.872 C 46.065 124.492,46.387 125.000,46.537 125.000 C 46.687 125.000,47.210 125.685,47.701 126.522 C 48.191 127.359,48.831 128.135,49.123 128.247 C 49.414 128.359,49.653 128.690,49.653 128.982 C 49.653 129.275,49.775 129.514,49.925 129.514 C 50.151 129.514,53.902 132.933,56.783 135.764 C 57.172 136.146,57.625 136.458,57.790 136.458 C 57.955 136.458,58.763 137.170,59.585 138.040 C 61.226 139.778,62.884 140.286,63.124 139.123 C 63.251 138.512,60.544 135.761,57.842 133.753 C 57.253 133.316,56.691 132.732,56.594 132.456 C 56.497 132.180,55.369 131.118,54.086 130.096 C 51.789 128.266,48.958 125.091,48.958 124.346 C 48.958 124.136,48.646 123.769,48.264 123.531 C 47.882 123.292,47.569 122.923,47.569 122.712 C 47.569 122.500,47.101 121.679,46.528 120.888 C 45.955 120.098,45.474 119.254,45.458 119.013 C 45.443 118.773,45.060 117.951,44.607 117.188 C 43.734 115.716,43.235 114.741,42.918 113.889 C 41.841 110.996,40.075 109.232,39.251 110.225 M358.854 119.774 C 358.472 119.935,357.024 121.138,355.637 122.447 C 354.249 123.755,352.898 125.013,352.634 125.241 C 352.370 125.469,352.099 125.786,352.032 125.945 C 351.965 126.104,350.738 127.236,349.306 128.462 C 346.569 130.803,346.110 131.703,347.569 131.870 C 348.584 131.986,349.690 131.117,354.440 126.476 C 356.248 124.709,357.852 123.264,358.005 123.264 C 358.158 123.264,358.568 122.904,358.916 122.464 C 359.264 122.024,359.833 121.556,360.181 121.424 C 360.589 121.269,360.773 120.908,360.701 120.404 C 360.579 119.547,359.922 119.323,358.854 119.774 M278.081 128.005 C 277.459 128.754,277.181 170.759,277.790 171.898 C 278.331 172.908,311.797 172.804,313.965 171.787 C 314.675 171.453,315.659 171.181,316.153 171.181 C 316.646 171.181,317.628 170.887,318.334 170.528 C 319.040 170.170,320.399 169.506,321.354 169.053 C 330.642 164.647,336.356 152.787,333.333 144.187 C 332.951 143.101,332.639 141.864,332.639 141.439 C 332.639 141.014,332.480 140.568,332.287 140.448 C 332.093 140.329,331.640 139.655,331.280 138.952 C 329.879 136.212,323.366 131.250,321.172 131.250 C 320.876 131.250,320.020 130.938,319.271 130.556 C 318.522 130.174,317.390 129.861,316.756 129.861 C 316.122 129.861,315.033 129.623,314.337 129.332 C 313.640 129.041,311.653 128.717,309.921 128.612 C 308.188 128.507,305.724 128.198,304.445 127.926 C 300.768 127.143,278.741 127.209,278.081 128.005 M231.469 137.240 C 230.668 140.230,230.987 140.329,241.161 140.253 L 249.657 140.190 250.308 141.017 C 250.665 141.472,252.727 143.327,254.888 145.141 C 257.050 146.954,259.565 149.120,260.478 149.953 C 262.601 151.893,263.194 151.729,263.194 149.201 C 263.194 147.471,263.109 147.279,261.996 146.499 C 260.399 145.381,252.006 138.557,251.550 138.006 C 250.464 136.693,248.730 136.458,240.102 136.458 L 231.678 136.458 231.469 137.240 M231.858 143.096 C 231.361 143.375,231.250 143.924,231.252 146.111 C 231.255 149.429,230.384 155.392,229.491 158.160 C 229.122 159.306,228.819 160.460,228.819 160.726 C 228.819 161.186,227.699 163.826,227.035 164.931 C 226.863 165.217,226.479 165.982,226.182 166.630 C 225.886 167.279,225.420 168.032,225.148 168.305 C 224.876 168.577,224.653 168.957,224.653 169.149 C 224.653 170.906,214.838 180.096,211.336 181.618 C 210.926 181.797,210.356 182.090,210.069 182.270 C 208.786 183.075,205.524 184.375,204.786 184.375 C 204.339 184.375,203.641 184.608,203.235 184.893 C 202.829 185.177,201.505 185.559,200.293 185.741 C 199.082 185.923,196.997 186.313,195.660 186.606 C 194.323 186.900,192.652 187.143,191.948 187.147 C 190.215 187.155,190.131 187.413,190.630 191.186 C 191.095 194.693,191.141 194.771,193.029 195.169 C 194.853 195.554,197.316 196.510,197.944 197.075 C 198.403 197.489,201.385 197.569,216.260 197.569 L 234.028 197.569 234.028 203.953 C 234.028 208.941,233.914 210.555,233.509 211.332 C 232.765 212.758,232.716 278.163,233.458 278.779 C 234.269 279.452,285.958 279.149,285.869 278.472 C 285.683 277.060,284.991 274.831,284.537 274.183 C 284.257 273.784,284.028 273.095,284.028 272.652 C 284.028 272.209,283.715 271.235,283.333 270.486 C 282.951 269.737,282.639 268.862,282.639 268.541 C 282.639 268.221,282.350 267.316,281.996 266.531 C 281.248 264.868,280.290 262.138,279.861 260.446 C 279.696 259.793,279.337 258.778,279.063 258.189 C 278.439 256.847,277.488 254.067,277.046 252.292 C 276.341 249.460,275.790 249.086,271.975 248.854 C 263.872 248.360,256.300 242.644,252.105 233.854 C 251.649 232.899,251.084 231.727,250.849 231.250 C 249.844 229.206,248.465 222.851,248.766 221.651 C 249.040 220.561,252.437 220.501,255.641 221.531 C 256.835 221.915,258.594 222.478,259.549 222.782 C 260.503 223.086,262.300 223.768,263.542 224.298 C 268.000 226.199,268.258 226.043,266.678 222.396 C 265.958 220.733,264.991 217.956,264.601 216.428 C 263.447 211.903,262.273 211.148,256.279 211.075 C 253.442 211.040,252.080 210.897,252.073 210.633 C 252.067 210.419,252.049 207.431,252.033 203.993 L 252.004 197.743 267.536 197.653 L 283.069 197.562 284.472 196.437 C 285.243 195.819,286.357 195.073,286.948 194.781 L 288.021 194.249 287.936 191.135 C 287.858 188.271,287.779 187.957,286.951 187.231 L 286.052 186.441 268.633 186.459 C 259.053 186.469,251.020 186.473,250.781 186.467 C 250.543 186.462,250.347 186.141,250.347 185.753 C 250.347 184.806,249.426 184.505,248.658 185.201 C 248.316 185.511,247.887 185.764,247.706 185.764 C 247.525 185.764,247.128 186.054,246.825 186.408 C 245.613 187.823,239.326 187.723,237.153 186.254 C 231.237 182.256,231.944 173.480,238.389 170.902 C 241.216 169.770,246.052 170.361,247.938 172.068 C 248.822 172.868,262.417 172.895,262.929 172.098 C 263.069 171.880,263.184 168.186,263.183 163.889 L 263.183 156.076 257.067 150.694 C 253.703 147.734,250.776 145.155,250.562 144.963 C 250.349 144.771,249.648 144.180,249.006 143.651 L 247.839 142.688 240.152 142.722 C 235.838 142.741,232.199 142.905,231.858 143.096 M166.541 154.103 C 165.730 154.266,165.963 156.281,167.020 158.254 C 167.399 158.960,167.708 159.650,167.708 159.786 C 167.708 160.868,172.939 166.902,175.143 168.362 C 177.644 170.020,179.680 171.134,180.251 171.157 C 180.561 171.170,181.545 171.504,182.439 171.899 C 185.187 173.115,196.454 172.945,198.935 171.650 C 199.425 171.394,200.139 171.173,200.521 171.160 C 200.903 171.146,201.997 170.679,202.951 170.123 C 203.906 169.567,205.259 168.800,205.957 168.420 C 207.342 167.665,212.254 162.806,213.014 161.440 C 215.430 157.095,216.167 155.104,215.546 154.601 C 215.129 154.264,168.124 153.786,166.541 154.103 M50.174 172.222 C 50.040 172.438,50.698 172.569,51.910 172.569 C 53.122 172.569,53.779 172.438,53.646 172.222 C 53.528 172.031,52.747 171.875,51.910 171.875 C 51.073 171.875,50.292 172.031,50.174 172.222 M240.278 172.222 C 240.278 172.413,241.137 172.569,242.188 172.569 C 243.238 172.569,244.097 172.413,244.097 172.222 C 244.097 172.031,243.238 171.875,242.188 171.875 C 241.137 171.875,240.278 172.031,240.278 172.222 M234.803 178.819 C 234.803 179.488,234.874 179.761,234.962 179.427 C 235.049 179.093,235.049 178.546,234.962 178.212 C 234.874 177.878,234.803 178.151,234.803 178.819 M329.821 180.508 C 329.366 180.863,328.602 181.273,328.125 181.417 C 327.648 181.561,327.023 181.883,326.736 182.132 C 326.450 182.381,325.747 182.699,325.174 182.839 C 324.601 182.978,323.587 183.381,322.922 183.734 C 322.256 184.086,321.272 184.375,320.734 184.375 C 320.197 184.375,319.269 184.627,318.672 184.936 C 317.170 185.713,312.640 186.133,303.472 186.346 C 295.083 186.541,294.442 186.667,294.449 188.120 C 294.462 191.109,295.703 194.249,297.666 196.260 C 302.264 200.969,300.312 209.501,294.354 210.740 L 293.229 210.974 293.253 213.733 C 293.292 218.129,293.776 223.166,294.217 223.770 C 294.734 224.477,293.767 224.444,311.515 224.369 L 326.677 224.306 327.574 222.699 C 328.068 221.816,328.472 220.759,328.472 220.350 C 328.472 219.942,328.785 219.025,329.167 218.312 C 329.549 217.599,329.861 216.695,329.861 216.303 C 329.861 215.910,330.206 214.989,330.628 214.256 C 331.282 213.121,331.334 212.788,330.983 212.017 L 330.570 211.111 325.094 211.064 C 322.082 211.039,319.149 211.000,318.576 210.978 L 317.535 210.938 317.361 204.566 C 317.266 201.061,317.274 198.055,317.379 197.885 C 317.485 197.715,324.636 197.536,333.352 197.486 C 348.870 197.397,349.132 197.384,349.132 196.701 C 349.132 196.255,346.209 193.124,340.948 187.934 C 332.110 179.215,331.768 178.987,329.821 180.508 M155.633 193.295 C 155.093 194.370,155.985 196.193,158.073 198.282 C 158.598 198.807,159.028 199.468,159.028 199.750 C 159.028 200.032,159.262 200.457,159.549 200.694 C 159.910 200.994,160.069 201.792,160.069 203.299 C 160.069 205.574,160.593 206.523,161.628 206.126 C 162.036 205.969,162.153 205.307,162.153 203.151 C 162.153 200.155,162.245 200.373,159.198 196.181 C 158.434 195.130,157.637 193.958,157.426 193.576 C 156.918 192.654,156.026 192.514,155.633 193.295 M48.611 195.833 C 48.611 196.024,49.470 196.181,50.521 196.181 C 51.571 196.181,52.431 196.024,52.431 195.833 C 52.431 195.642,51.571 195.486,50.521 195.486 C 49.470 195.486,48.611 195.642,48.611 195.833 M97.049 195.833 C 96.914 196.050,97.631 196.181,98.958 196.181 C 100.286 196.181,101.002 196.050,100.868 195.833 C 100.750 195.642,99.891 195.486,98.958 195.486 C 98.026 195.486,97.167 195.642,97.049 195.833 M120.660 195.833 C 120.526 196.050,121.242 196.181,122.569 196.181 C 123.897 196.181,124.613 196.050,124.479 195.833 C 124.361 195.642,123.502 195.486,122.569 195.486 C 121.637 195.486,120.778 195.642,120.660 195.833 M289.236 195.833 C 288.872 196.069,289.425 196.172,291.080 196.175 C 292.568 196.179,293.364 196.052,293.229 195.833 C 292.955 195.390,289.923 195.390,289.236 195.833 M355.556 195.833 C 355.556 196.024,356.415 196.181,357.465 196.181 C 358.516 196.181,359.375 196.024,359.375 195.833 C 359.375 195.642,358.516 195.486,357.465 195.486 C 356.415 195.486,355.556 195.642,355.556 195.833 M190.104 197.222 C 189.970 197.439,190.686 197.569,192.014 197.569 C 193.342 197.569,194.058 197.439,193.924 197.222 C 193.806 197.031,192.946 196.875,192.014 196.875 C 191.082 196.875,190.222 197.031,190.104 197.222 M363.889 200.521 C 363.889 200.807,364.045 201.042,364.236 201.042 C 364.427 201.042,364.583 200.807,364.583 200.521 C 364.583 200.234,364.427 200.000,364.236 200.000 C 364.045 200.000,363.889 200.234,363.889 200.521 M350.232 201.188 C 349.911 202.024,349.951 203.551,350.307 204.114 C 350.737 204.792,351.134 202.393,350.760 201.381 C 350.501 200.683,350.435 200.659,350.232 201.188 M184.606 203.009 C 184.243 203.373,184.336 204.861,184.722 204.861 C 184.913 204.861,185.069 204.392,185.069 203.819 C 185.069 202.741,184.999 202.617,184.606 203.009 M364.073 204.268 C 363.925 204.611,363.901 204.988,364.020 205.108 C 364.372 205.460,364.656 204.965,364.494 204.281 C 364.350 203.674,364.332 203.674,364.073 204.268 M182.490 208.073 C 182.400 208.503,182.184 211.120,182.009 213.889 C 181.602 220.347,181.262 221.078,176.680 225.366 C 172.761 229.032,172.817 228.862,174.652 231.507 C 175.416 232.607,176.041 233.622,176.041 233.764 C 176.041 233.905,176.666 234.921,177.430 236.021 C 178.194 237.121,178.819 238.192,178.819 238.401 C 178.819 238.610,179.132 239.064,179.514 239.410 C 179.896 239.755,180.208 240.169,180.208 240.328 C 180.208 240.487,180.833 241.518,181.597 242.618 C 182.360 243.718,182.985 244.734,182.986 244.875 C 182.986 245.016,183.611 246.032,184.375 247.132 C 185.138 248.232,185.763 249.303,185.763 249.512 C 185.764 249.721,186.076 250.175,186.458 250.521 C 186.840 250.866,187.153 251.280,187.153 251.439 C 187.153 251.598,187.778 252.629,188.541 253.729 C 189.305 254.829,189.930 255.905,189.930 256.121 C 189.930 256.336,190.181 256.720,190.488 256.974 C 190.794 257.229,191.193 257.756,191.373 258.145 C 191.554 258.535,192.079 259.479,192.539 260.243 C 192.999 261.007,193.638 262.101,193.958 262.674 C 194.279 263.247,194.654 263.793,194.792 263.889 C 194.929 263.984,195.303 264.531,195.622 265.104 C 195.941 265.677,196.505 266.615,196.876 267.188 C 197.247 267.760,197.871 268.776,198.264 269.444 C 198.657 270.113,199.281 271.128,199.652 271.701 C 200.023 272.274,200.587 273.212,200.906 273.785 C 201.225 274.358,201.598 274.905,201.736 275.000 C 201.874 275.095,202.247 275.642,202.566 276.215 C 202.885 276.788,203.454 277.726,203.831 278.299 C 204.207 278.872,204.746 279.835,205.028 280.440 C 206.129 282.802,209.400 283.626,208.515 281.318 C 208.415 281.059,208.333 265.539,208.333 246.831 L 208.333 212.816 207.481 211.963 C 206.371 210.854,198.737 210.662,196.771 211.695 C 194.930 212.662,188.922 212.564,187.543 211.545 C 186.962 211.115,186.341 210.764,186.163 210.764 C 185.984 210.764,185.243 209.983,184.515 209.028 C 183.035 207.087,182.725 206.941,182.490 208.073 M175.598 209.694 C 174.278 211.262,172.600 214.339,172.340 215.667 C 172.214 216.312,171.923 217.153,171.692 217.535 C 170.748 219.103,170.343 221.533,170.928 222.119 C 171.732 222.923,172.449 222.456,172.725 220.948 C 172.859 220.216,173.165 219.306,173.406 218.924 C 173.647 218.542,174.035 217.461,174.268 216.521 C 174.715 214.723,176.112 212.082,177.184 211.010 C 177.933 210.262,177.847 208.907,177.042 208.754 C 176.732 208.695,176.082 209.118,175.598 209.694 M84.590 210.251 C 84.074 210.768,84.032 213.783,84.113 244.905 L 84.201 278.993 112.674 278.993 L 141.146 278.993 141.236 264.511 C 141.321 250.984,141.287 250.007,140.716 249.706 C 140.368 249.522,128.844 249.273,113.964 249.127 C 84.427 248.837,86.806 249.109,87.477 246.108 C 87.884 244.286,87.964 212.399,87.565 210.938 C 87.225 209.691,85.539 209.302,84.590 210.251 M90.625 226.345 C 90.625 235.488,90.537 243.418,90.430 243.967 C 89.954 246.402,88.419 246.251,115.731 246.450 C 135.242 246.593,140.367 246.539,140.789 246.189 C 141.748 245.392,141.571 212.835,140.602 211.959 C 139.725 211.165,125.235 210.484,124.377 211.196 C 124.004 211.505,123.929 214.374,123.985 226.112 C 124.024 234.104,123.962 240.737,123.849 240.850 C 123.557 241.142,99.324 241.107,99.031 240.814 C 98.899 240.681,98.772 238.826,98.751 236.692 C 98.521 213.453,98.244 210.776,96.069 210.752 C 95.462 210.745,94.575 210.516,94.097 210.243 C 93.620 209.970,92.643 209.741,91.927 209.735 L 90.625 209.722 90.625 226.345 M222.582 211.793 C 221.551 212.824,221.454 296.626,222.483 297.174 C 223.200 297.556,271.759 297.770,283.333 297.442 C 287.630 297.320,291.419 297.221,291.753 297.221 C 292.558 297.222,292.527 296.306,291.667 294.618 C 291.285 293.869,290.972 292.970,290.972 292.621 C 290.972 292.272,290.660 291.374,290.278 290.625 C 289.896 289.876,289.582 288.984,289.581 288.642 C 289.580 288.300,289.326 287.552,289.016 286.979 C 288.706 286.406,288.317 285.251,288.151 284.412 C 287.621 281.732,290.134 281.944,259.006 281.944 C 236.937 281.944,230.884 281.852,230.663 281.510 C 230.508 281.272,230.304 265.373,230.208 246.181 L 230.035 211.285 226.662 211.185 C 223.656 211.097,223.212 211.163,222.582 211.793 M278.613 211.593 C 278.353 212.270,279.051 215.569,279.649 216.489 C 279.899 216.873,280.217 217.796,280.355 218.540 C 280.493 219.284,280.814 220.222,281.068 220.624 C 281.321 221.025,281.638 221.901,281.771 222.569 C 281.904 223.238,282.208 224.097,282.447 224.479 C 282.686 224.861,282.995 225.799,283.133 226.563 C 283.271 227.326,283.596 228.280,283.855 228.682 C 284.113 229.084,284.432 229.984,284.563 230.682 C 284.694 231.381,285.096 232.530,285.456 233.237 C 285.816 233.944,286.116 234.840,286.122 235.230 C 286.128 235.619,286.351 236.225,286.618 236.577 C 286.884 236.929,287.212 237.863,287.345 238.653 C 287.479 239.443,287.787 240.405,288.031 240.791 C 288.274 241.177,288.587 242.038,288.727 242.703 C 288.866 243.369,289.182 244.228,289.430 244.613 C 289.677 244.998,289.989 245.937,290.122 246.701 C 290.256 247.465,290.561 248.325,290.799 248.611 C 291.037 248.898,291.341 249.757,291.475 250.521 C 291.609 251.285,291.929 252.238,292.188 252.640 C 292.446 253.042,292.765 253.942,292.896 254.640 C 293.027 255.339,293.429 256.489,293.789 257.195 C 294.150 257.902,294.444 258.803,294.444 259.198 C 294.444 259.592,294.666 260.231,294.937 260.618 C 295.207 261.004,295.537 261.900,295.670 262.608 C 295.803 263.317,296.207 264.475,296.567 265.181 C 296.927 265.888,297.222 266.789,297.222 267.184 C 297.222 267.578,297.444 268.217,297.714 268.604 C 297.985 268.990,298.315 269.886,298.448 270.594 C 298.581 271.303,298.985 272.461,299.345 273.167 C 299.705 273.874,300.000 274.775,300.000 275.170 C 300.000 275.564,300.221 276.203,300.492 276.590 C 300.763 276.976,301.093 277.872,301.226 278.581 C 301.359 279.289,301.762 280.447,302.123 281.154 C 302.483 281.860,302.778 282.726,302.778 283.078 C 302.778 286.066,305.921 287.547,306.268 284.722 C 306.374 283.863,306.725 282.660,307.049 282.048 C 307.374 281.437,307.639 280.689,307.639 280.385 C 307.639 280.082,307.951 279.221,308.333 278.472 C 308.715 277.724,309.028 276.792,309.028 276.401 C 309.028 276.011,309.340 275.109,309.722 274.396 C 310.104 273.684,310.417 272.750,310.417 272.323 C 310.417 271.895,310.729 271.033,311.110 270.408 C 311.491 269.782,311.804 268.919,311.804 268.488 C 311.805 268.058,312.118 267.123,312.500 266.410 C 312.882 265.698,313.195 264.722,313.197 264.241 C 313.198 263.761,313.509 262.899,313.889 262.326 C 314.268 261.753,314.580 260.933,314.581 260.502 C 314.582 260.072,314.896 259.137,315.278 258.424 C 315.660 257.711,315.972 256.811,315.972 256.424 C 315.972 256.036,316.285 255.136,316.667 254.423 C 317.049 253.711,317.362 252.775,317.362 252.345 C 317.363 251.915,317.676 251.051,318.057 250.426 C 318.438 249.800,318.750 248.939,318.750 248.511 C 318.750 248.083,319.063 247.150,319.444 246.437 C 319.826 245.724,320.139 244.822,320.139 244.432 C 320.139 244.042,320.451 243.110,320.833 242.361 C 321.215 241.612,321.529 240.642,321.530 240.205 C 321.531 239.768,321.843 238.941,322.222 238.368 C 322.602 237.795,322.913 236.969,322.914 236.531 C 322.916 236.094,323.229 235.124,323.611 234.375 C 323.993 233.626,324.307 232.656,324.308 232.219 C 324.309 231.781,324.621 230.955,325.000 230.382 C 325.832 229.126,325.905 227.585,325.145 227.294 C 324.160 226.916,295.751 227.062,294.346 227.452 C 292.037 228.093,290.958 227.067,291.035 224.306 C 291.128 220.996,290.219 212.301,289.729 211.806 C 288.950 211.019,278.907 210.826,278.613 211.593 M347.304 211.615 C 346.680 211.895,346.086 212.404,345.984 212.746 C 345.882 213.088,345.494 213.946,345.122 214.652 C 344.749 215.358,344.444 216.263,344.444 216.662 C 344.444 217.062,344.132 218.001,343.750 218.750 C 343.368 219.499,343.055 220.469,343.053 220.906 C 343.052 221.344,342.741 222.170,342.361 222.743 C 341.982 223.316,341.670 224.143,341.669 224.580 C 341.668 225.017,341.354 225.987,340.972 226.736 C 340.590 227.485,340.278 228.379,340.278 228.724 C 340.278 229.069,339.965 229.934,339.583 230.646 C 339.201 231.359,338.889 232.296,338.889 232.730 C 338.889 233.163,338.576 234.100,338.194 234.813 C 337.813 235.526,337.499 236.461,337.499 236.891 C 337.498 237.321,337.185 238.185,336.804 238.810 C 336.423 239.436,336.111 240.297,336.111 240.725 C 336.111 241.153,335.799 242.086,335.417 242.799 C 335.035 243.512,334.722 244.447,334.721 244.877 C 334.720 245.308,334.408 246.171,334.026 246.797 C 333.645 247.422,333.333 248.284,333.333 248.711 C 333.333 249.139,333.021 250.073,332.639 250.785 C 332.257 251.498,331.944 252.400,331.944 252.790 C 331.944 253.181,331.632 254.112,331.250 254.861 C 330.868 255.610,330.556 256.504,330.556 256.849 C 330.556 257.194,330.243 258.059,329.861 258.771 C 329.479 259.484,329.167 260.386,329.167 260.776 C 329.167 261.167,328.854 262.099,328.472 262.847 C 328.090 263.596,327.778 264.490,327.778 264.835 C 327.778 265.180,327.465 266.045,327.083 266.757 C 326.701 267.470,326.389 268.407,326.389 268.841 C 326.389 269.274,326.076 270.211,325.694 270.924 C 325.313 271.637,325.000 272.500,325.000 272.842 C 325.000 273.184,324.688 274.077,324.306 274.826 C 323.924 275.576,323.611 276.509,323.611 276.901 C 323.611 277.294,323.299 278.198,322.917 278.910 C 322.535 279.623,322.222 280.525,322.222 280.915 C 322.222 281.306,321.910 282.237,321.528 282.986 C 321.146 283.735,320.833 284.629,320.833 284.974 C 320.833 285.319,320.521 286.184,320.139 286.896 C 319.757 287.609,319.444 288.511,319.444 288.901 C 319.444 289.292,319.132 290.224,318.750 290.972 C 318.368 291.721,318.056 292.615,318.056 292.960 C 318.056 293.305,317.766 294.131,317.412 294.797 C 317.058 295.462,316.654 296.624,316.515 297.378 C 316.376 298.132,316.041 299.065,315.770 299.452 C 315.149 300.339,315.107 304.504,315.712 305.299 C 316.162 305.891,332.161 306.527,351.042 306.704 L 358.160 306.771 358.378 300.694 C 358.804 288.833,358.715 211.868,358.275 211.596 C 357.417 211.065,348.495 211.081,347.304 211.615 M259.097 227.500 C 258.411 228.187,258.607 228.690,260.175 230.268 C 260.997 231.094,262.339 232.682,263.158 233.796 C 264.690 235.879,266.585 238.033,269.618 241.137 C 270.573 242.114,271.792 243.492,272.327 244.200 C 273.343 245.544,274.522 245.885,274.884 244.940 C 275.164 244.211,274.209 242.965,269.639 238.098 C 267.527 235.849,265.537 233.529,265.217 232.943 C 264.587 231.791,264.455 231.633,261.847 228.906 C 259.992 226.968,259.752 226.845,259.097 227.500 M155.200 230.816 C 155.064 241.149,155.299 301.618,155.477 301.794 C 155.999 302.313,162.187 302.241,162.529 301.712 C 162.718 301.421,162.839 292.908,162.823 281.115 C 162.791 258.263,162.566 259.910,165.726 259.877 C 175.630 259.776,175.549 259.802,173.819 257.340 C 173.132 256.363,172.569 255.424,172.569 255.254 C 172.569 255.085,172.326 254.744,172.029 254.497 C 171.731 254.250,171.258 253.567,170.978 252.979 C 170.232 251.417,169.631 250.435,168.980 249.715 C 168.662 249.364,168.403 248.905,168.403 248.695 C 168.403 248.485,168.189 248.099,167.927 247.838 C 167.665 247.576,167.192 246.901,166.875 246.337 C 166.558 245.774,165.995 244.844,165.624 244.271 C 165.253 243.698,164.594 242.622,164.159 241.880 C 163.724 241.138,163.198 240.241,162.990 239.886 C 162.782 239.531,162.352 238.954,162.035 238.604 C 161.718 238.253,161.458 237.822,161.458 237.646 C 161.458 237.470,160.833 236.426,160.069 235.326 C 159.305 234.226,158.681 233.194,158.681 233.033 C 158.681 232.872,158.290 232.319,157.813 231.804 C 157.335 231.288,156.944 230.719,156.944 230.538 C 156.944 230.357,156.554 230.208,156.076 230.208 C 155.484 230.208,155.206 230.401,155.200 230.816 M61.135 245.095 C 60.554 246.179,60.685 246.690,61.798 247.682 C 62.367 248.188,62.938 249.034,63.068 249.562 C 63.198 250.089,63.670 251.004,64.118 251.595 C 64.565 252.186,64.931 252.826,64.931 253.017 C 64.931 253.785,66.274 254.561,67.413 254.452 C 68.957 254.303,69.144 253.346,67.768 252.635 C 67.198 252.341,66.579 251.636,66.375 251.052 C 66.173 250.473,65.844 250.000,65.643 250.000 C 65.442 250.000,65.278 249.697,65.278 249.326 C 65.278 248.955,65.122 248.556,64.931 248.438 C 64.740 248.319,64.583 247.916,64.583 247.542 C 64.583 247.155,64.215 246.692,63.733 246.473 C 63.266 246.260,62.836 245.757,62.778 245.355 C 62.640 244.387,61.601 244.223,61.135 245.095 M84.184 282.384 C 84.091 282.626,84.057 286.806,84.108 291.673 L 84.201 300.521 86.692 300.622 L 89.182 300.724 89.374 298.886 C 89.479 297.876,89.663 295.056,89.783 292.620 C 89.903 290.185,90.116 288.121,90.256 288.034 C 90.633 287.801,133.007 287.752,133.239 287.984 C 133.348 288.093,133.513 291.236,133.607 294.968 C 133.701 298.701,133.913 301.839,134.078 301.941 C 134.696 302.323,140.310 302.141,140.813 301.724 C 141.605 301.067,141.564 282.460,140.770 282.155 C 139.578 281.698,84.362 281.921,84.184 282.384 M294.097 300.694 C 294.097 301.142,294.273 301.388,294.531 301.302 C 294.770 301.223,294.965 300.949,294.965 300.694 C 294.965 300.440,294.770 300.166,294.531 300.087 C 294.273 300.001,294.097 300.247,294.097 300.694 M295.718 302.662 C 295.357 303.022,295.445 304.167,295.833 304.167 C 296.024 304.167,296.181 303.776,296.181 303.299 C 296.181 302.390,296.100 302.279,295.718 302.662 M297.106 306.829 C 296.746 307.189,296.834 308.333,297.222 308.333 C 297.413 308.333,297.569 307.943,297.569 307.465 C 297.569 306.556,297.489 306.446,297.106 306.829 " stroke="none" fill="#040404" fill-rule="evenodd"></path></g></svg>