<?xml version="1.0" standalone="no"?>
<!DOCTYPE svg PUBLIC "-//W3C//DTD SVG 20010904//EN"
 "http://www.w3.org/TR/2001/REC-SVG-20010904/DTD/svg10.dtd">
<svg version="1.0" xmlns="http://www.w3.org/2000/svg"
 width="1152.000000pt" height="1152.000000pt" viewBox="0 0 1152.000000 1152.000000"
 preserveAspectRatio="xMidYMid meet">

<g transform="translate(0.000000,1152.000000) scale(0.100000,-0.100000)"
fill="#000000" stroke="none">
<path d="M10229 9530 c-26 -4 -57 -15 -70 -23 -13 -8 -49 -18 -79 -22 -30 -4
-64 -13 -75 -21 -11 -7 -38 -16 -60 -20 -22 -3 -44 -10 -50 -14 -5 -4 -28 -13
-50 -20 -125 -40 -305 -170 -305 -221 0 -9 11 -24 25 -33 14 -9 32 -31 40 -49
8 -17 19 -39 24 -47 38 -60 74 -181 86 -286 8 -73 -30 -351 -50 -374 -7 -8
-17 -28 -21 -45 -3 -16 -12 -37 -19 -45 -7 -8 -19 -30 -29 -47 -40 -80 -49
-94 -77 -120 -35 -34 -36 -48 -5 -65 74 -41 94 -53 119 -74 16 -13 34 -24 41
-24 7 0 37 23 66 50 29 28 83 70 119 95 167 113 257 209 320 340 77 160 99
285 110 620 6 172 14 277 27 336 25 122 21 127 -87 109z m-93 -224 c9 -22 -14
-56 -38 -56 -26 0 -108 -83 -108 -110 0 -10 -5 -22 -10 -25 -6 -3 -19 -27 -31
-53 -11 -26 -32 -70 -45 -99 -13 -28 -24 -56 -24 -62 0 -6 -9 -26 -20 -46 -11
-20 -20 -42 -20 -50 0 -8 -14 -30 -31 -50 -54 -62 -104 -36 -54 29 14 19 42
74 61 123 74 185 135 304 179 349 53 53 130 80 141 50z"/>
<path d="M1353 9501 c-104 -75 -88 -212 30 -266 65 -31 72 -31 139 -1 43 19
61 34 82 70 32 55 33 90 3 138 -38 63 -81 88 -152 88 -52 0 -68 -4 -102 -29z"/>
<path d="M5020 8813 c-18 -21 -72 -81 -120 -133 -48 -52 -101 -111 -118 -131
l-32 -37 0 -230 c0 -196 2 -231 15 -236 44 -17 287 154 381 267 45 55 84 149
84 203 0 44 -39 167 -80 251 -37 75 -44 83 -69 83 -21 0 -38 -11 -61 -37z m48
-190 c2 -11 -5 -36 -15 -54 -28 -51 -93 -151 -113 -174 -31 -36 -70 -114 -76
-156 -4 -24 -14 -44 -25 -50 -12 -6 -19 -21 -19 -40 0 -33 -22 -48 -45 -29
-20 17 -19 49 3 85 11 17 29 59 41 94 12 36 41 90 65 121 23 31 67 95 96 143
54 88 81 107 88 60z"/>
<path d="M2540 8774 c-25 -8 -61 -21 -80 -30 -102 -48 -127 -61 -159 -82 l-34
-22 1 -550 c1 -303 4 -555 7 -560 3 -6 39 -10 80 -10 l74 0 45 55 c100 124
175 343 197 585 15 155 3 429 -22 526 -29 112 -30 113 -109 88z m44 -387 c8
-12 6 -21 -7 -35 -9 -10 -17 -26 -17 -36 0 -9 -11 -21 -25 -26 -14 -5 -25 -17
-25 -25 0 -9 -8 -19 -18 -23 -10 -4 -31 -22 -48 -41 -16 -18 -38 -43 -50 -55
-12 -11 -27 -38 -35 -60 -16 -44 -34 -55 -56 -33 -29 29 9 96 113 204 52 53
94 100 94 105 0 14 41 49 52 46 7 -3 16 -12 22 -21z"/>
<path d="M1073 8598 c-5 -7 -16 -31 -25 -53 -47 -120 -58 -152 -58 -163 0 -6
-10 -40 -22 -74 -17 -51 -21 -85 -21 -183 0 -104 3 -125 21 -160 12 -22 22
-44 22 -49 0 -15 78 -126 119 -169 35 -37 160 -136 191 -151 8 -4 33 -18 55
-31 102 -62 312 -147 423 -173 40 -9 44 -8 51 12 9 26 14 649 6 677 -4 10 -13
19 -20 19 -12 0 -20 -23 -28 -89 -5 -34 -26 -17 -58 45 -39 77 -138 187 -233
259 -145 109 -283 220 -320 256 -41 40 -84 51 -103 27z m128 -293 c16 -27 32
-57 35 -65 9 -25 24 -53 49 -95 13 -22 24 -46 24 -53 1 -7 15 -31 31 -54 17
-22 30 -46 30 -52 0 -6 9 -17 20 -24 11 -7 20 -17 20 -23 0 -22 82 -113 148
-166 37 -29 69 -60 72 -68 3 -8 19 -24 36 -37 78 -58 156 -137 152 -155 -7
-33 -55 -19 -102 31 -24 26 -47 46 -52 46 -4 0 -17 9 -29 20 -83 82 -191 180
-197 180 -4 0 -8 7 -8 15 0 9 -7 18 -15 21 -9 4 -27 26 -41 50 -14 24 -29 44
-34 44 -4 0 -13 15 -20 33 -7 17 -23 46 -34 62 -19 27 -43 73 -61 115 -3 8
-19 38 -35 65 -65 113 -73 134 -60 151 21 24 40 13 71 -41z"/>
<path d="M10320 8219 c-58 -10 -120 -25 -138 -34 -18 -8 -38 -15 -44 -15 -7 0
-53 -20 -102 -45 -89 -44 -220 -143 -258 -196 l-20 -26 54 -54 c56 -56 136
-185 158 -254 7 -22 16 -44 21 -49 5 -6 9 -21 9 -35 0 -46 13 -56 51 -40 34
13 123 81 170 128 117 119 269 373 323 542 28 86 23 94 -54 96 -36 0 -112 -7
-170 -18z m68 -167 c2 -14 -3 -25 -15 -29 -10 -4 -26 -17 -36 -30 -10 -13 -22
-23 -26 -23 -5 0 -51 -42 -103 -92 -137 -134 -169 -159 -198 -156 -42 5 -29
31 50 98 41 36 77 68 79 73 1 4 9 13 17 20 7 7 46 43 86 81 96 90 139 107 146
58z"/>
<path d="M6680 7655 c-6 -8 -9 -23 -6 -33 6 -16 20 -20 104 -25 53 -4 163 -7
244 -7 95 0 157 -4 175 -12 25 -11 188 -140 310 -244 47 -40 63 -38 63 9 0 33
-32 66 -148 154 -26 20 -49 39 -52 42 -16 20 -120 101 -147 115 -45 23 -524
24 -543 1z"/>
<path d="M6674 7466 c-3 -8 -4 -23 -2 -33 3 -17 21 -18 237 -21 l234 -2 51
-42 c71 -59 308 -271 325 -292 7 -9 22 -16 32 -16 16 0 19 8 19 45 0 25 -4 45
-9 45 -5 0 -27 16 -48 36 -21 20 -90 81 -153 134 -63 54 -128 112 -144 129
l-30 31 -253 0 c-212 0 -255 -2 -259 -14z"/>
<path d="M4773 7144 c-3 -9 -2 -24 4 -33 9 -14 83 -17 713 -24 691 -8 704 -8
723 12 11 10 17 26 14 34 -8 20 -231 27 -894 27 -503 0 -554 -1 -560 -16z"/>
<path d="M1444 6523 c-37 -7 -99 -69 -114 -113 -11 -34 -11 -48 -1 -78 23 -63
77 -109 151 -126 43 -9 131 38 163 88 35 55 34 91 -2 148 -43 68 -114 97 -197
81z"/>
<path d="M6925 6523 c-31 -8 -83 -52 -105 -88 -45 -73 -6 -169 86 -211 36 -16
63 -22 81 -18 77 17 132 63 152 125 34 106 -98 225 -214 192z"/>
<path d="M4438 6148 c-70 -83 -151 -198 -175 -250 -27 -58 -15 -74 46 -64 22
3 51 2 66 -4 42 -16 115 -98 185 -209 36 -56 93 -145 128 -199 34 -53 62 -104
62 -114 0 -9 8 -23 19 -30 10 -7 33 -38 50 -68 44 -78 69 -121 91 -155 11 -16
28 -46 37 -65 29 -56 48 -50 150 47 127 123 133 137 148 358 9 122 10 184 3
193 -15 17 -46 15 -97 -8 -24 -11 -53 -20 -65 -20 -39 0 -142 -59 -186 -106
-23 -25 -44 -43 -47 -40 -3 3 0 25 6 50 16 65 13 133 -8 201 -28 86 -38 104
-170 305 -89 135 -108 166 -122 203 -9 22 -17 27 -44 27 -27 0 -40 -9 -77 -52z
m96 -203 c6 -11 29 -45 51 -75 88 -121 85 -114 85 -201 0 -62 -3 -81 -15 -85
-30 -12 -45 15 -45 81 0 43 -5 66 -15 75 -8 7 -15 19 -15 27 0 8 -12 27 -27
42 -61 61 -86 113 -71 144 12 23 37 19 52 -8z m584 -462 c2 -12 -5 -30 -15
-40 -31 -31 -71 -107 -84 -159 -7 -27 -18 -58 -25 -69 -7 -11 -16 -37 -20 -58
-7 -44 -28 -57 -51 -34 -14 14 -14 22 -3 64 7 26 18 57 25 68 6 11 15 35 18
54 8 38 56 127 94 172 29 34 56 35 61 2z"/>
<path d="M2005 6118 c-3 -8 -4 -63 -3 -124 l3 -109 30 0 30 0 0 120 0 120 -28
3 c-16 2 -29 -2 -32 -10z"/>
<path d="M1410 5843 c-42 -8 -105 -67 -120 -113 -11 -34 -11 -48 -1 -78 36
-102 147 -150 241 -104 45 23 100 95 100 133 0 45 -36 106 -78 134 -38 25 -98
37 -142 28z"/>
<path d="M2810 5842 c-71 -20 -130 -92 -130 -157 0 -28 27 -84 53 -110 24 -23
81 -45 117 -45 72 0 129 37 164 107 21 42 20 66 -4 113 -35 69 -129 111 -200
92z"/>
<path d="M3491 5843 c-37 -7 -91 -47 -113 -85 -30 -48 -28 -97 5 -146 50 -76
147 -103 225 -63 46 23 65 45 84 96 16 42 16 49 -9 107 -27 63 -117 106 -192
91z"/>
<path d="M8344 5841 c-49 -12 -91 -50 -114 -104 -21 -49 -21 -51 -4 -91 23
-54 41 -74 86 -97 82 -42 182 -11 227 70 28 51 29 79 6 131 -31 68 -123 110
-201 91z"/>
<path d="M10255 5841 c-79 -19 -125 -77 -125 -155 0 -48 4 -60 31 -91 56 -64
143 -84 211 -49 110 56 127 183 35 257 -45 37 -100 51 -152 38z"/>
<path d="M5490 5802 c-75 -20 -130 -85 -130 -155 0 -118 146 -196 254 -134 52
29 77 66 83 118 10 104 -103 198 -207 171z"/>
<path d="M2537 5446 c-10 -25 -10 -1077 -1 -1085 5 -5 343 -11 752 -14 643 -4
745 -3 757 10 8 8 15 18 15 22 0 32 -32 33 -735 40 -612 5 -707 8 -715 21 -6
9 -10 213 -10 502 0 267 -3 493 -6 502 -8 20 -50 21 -57 2z"/>
<path d="M10340 5414 c-6 -16 -10 -518 -10 -1364 0 -736 -3 -1345 -6 -1354 -7
-19 -154 -21 -584 -6 -151 5 -351 10 -445 11 -203 1 -223 4 -228 33 -3 17 -5
15 -6 -6 0 -16 -5 -28 -9 -28 -5 0 -15 -12 -22 -26 -21 -39 -3 -44 155 -44 77
0 358 -7 625 -15 566 -17 561 -17 577 -7 9 6 12 329 13 1407 1 770 1 1406 1
1413 -1 6 -12 12 -26 12 -18 0 -28 -7 -35 -26z"/>
<path d="M2840 5410 c-8 -15 -8 -116 0 -375 6 -195 8 -370 5 -388 -4 -20 -1
-39 8 -50 12 -18 34 -19 357 -19 398 0 378 -5 360 93 -5 30 -9 61 -8 69 1 8 0
164 0 347 -2 331 -2 332 -24 339 -46 14 -48 -3 -48 -393 l0 -363 -22 -8 c-13
-4 -137 -6 -275 -4 -232 2 -253 4 -262 21 -6 10 -13 166 -17 347 -3 181 -9
345 -13 364 -8 42 -43 54 -61 20z"/>
<path d="M6651 5416 c-16 -19 -17 -1982 0 -2002 10 -12 132 -14 803 -12 783 3
791 3 794 23 6 52 40 50 -760 52 -409 1 -751 4 -760 7 -17 4 -18 58 -18 956 0
637 -3 958 -10 971 -12 22 -33 25 -49 5z"/>
<path d="M8388 5413 c-24 -6 -26 -18 -17 -133 5 -58 11 -147 15 -198 4 -51 11
-95 17 -99 5 -3 224 -5 486 -4 464 2 476 2 493 22 9 11 14 27 11 34 -4 13 -71
15 -453 15 -417 0 -448 1 -463 18 -12 13 -19 55 -28 162 -11 141 -20 191 -36
189 -5 -1 -15 -3 -25 -6z"/>
<path d="M7164 5136 c-8 -34 32 -217 60 -276 7 -14 23 -47 37 -75 89 -188 235
-329 414 -401 58 -23 86 -28 160 -28 86 -1 90 0 93 21 4 25 -26 72 -45 73 -7
0 -25 17 -40 37 -15 20 -50 60 -78 88 -87 90 -142 152 -186 212 -24 32 -62 77
-86 101 -45 46 -51 60 -31 80 19 19 26 15 79 -40 70 -73 83 -89 97 -118 7 -14
60 -74 118 -135 94 -99 103 -106 88 -70 -30 76 -77 215 -109 327 -19 65 -37
83 -111 115 -175 72 -316 113 -391 113 -57 0 -63 -2 -69 -24z"/>
<path d="M1665 4606 c-32 -49 -52 -187 -40 -276 11 -82 77 -152 214 -229 36
-20 142 -53 149 -46 3 3 6 96 6 207 l1 201 -35 22 c-20 12 -61 36 -92 53 -32
16 -78 44 -103 61 -55 37 -79 39 -100 7z m143 -152 c2 -12 14 -26 28 -32 13
-7 24 -20 24 -31 0 -11 5 -23 10 -26 6 -3 10 -15 10 -26 0 -10 5 -19 11 -19 5
0 15 -14 21 -30 5 -17 23 -37 40 -46 39 -20 34 -48 -11 -52 -32 -3 -71 19 -71
41 0 6 -11 24 -23 41 -13 17 -27 43 -31 59 -3 15 -20 39 -36 54 -32 28 -36 43
-19 74 13 25 43 21 47 -7z"/>
<path d="M4855 4033 c-102 -3 -133 -7 -147 -20 -17 -15 -18 -51 -18 -593 0
-620 -1 -611 50 -595 20 6 20 11 20 559 0 416 3 555 12 564 8 8 56 12 150 12
116 0 140 3 145 16 8 21 -35 65 -61 62 -12 -1 -79 -4 -151 -5z"/>
<path d="M2442 3471 c-8 -5 -12 -21 -10 -37 l3 -29 793 -3 c535 -1 799 1 813
8 28 15 24 49 -7 60 -32 12 -1573 13 -1592 1z"/>
<path d="M2597 3223 c-3 -5 -8 -85 -12 -179 -7 -183 -6 -191 41 -174 18 7 22
19 27 86 4 42 7 101 7 130 0 42 4 55 19 64 13 6 199 10 536 10 337 0 523 -4
536 -10 16 -9 19 -22 19 -98 0 -148 10 -220 31 -225 10 -3 25 0 34 7 15 11 16
32 8 201 l-8 190 -617 3 c-339 1 -619 -1 -621 -5z"/>
<path d="M6412 2941 c-8 -5 -12 -19 -10 -32 l3 -24 325 -8 c179 -4 623 -5 986
-2 364 3 669 2 678 -1 9 -3 16 -12 16 -19 0 -14 25 -27 34 -18 12 12 6 44 -9
49 -8 4 -13 9 -10 14 2 4 -2 15 -9 26 -13 18 -51 18 -1002 21 -544 1 -995 -1
-1002 -6z"/>
<path d="M8460 2795 c-14 -16 -5 -35 16 -35 15 0 20 35 5 44 -5 3 -14 -1 -21
-9z"/>
<path d="M8494 2676 c-7 -19 3 -36 22 -36 10 0 14 8 12 22 -4 26 -26 36 -34
14z"/>
</g>
</svg>
