<?xml version="1.0" standalone="no"?>
<!DOCTYPE svg PUBLIC "-//W3C//DTD SVG 20010904//EN"
 "http://www.w3.org/TR/2001/REC-SVG-20010904/DTD/svg10.dtd">
<svg version="1.0" xmlns="http://www.w3.org/2000/svg"
 width="1152.000000pt" height="1152.000000pt" viewBox="0 0 1152.000000 1152.000000"
 preserveAspectRatio="xMidYMid meet">

<g transform="translate(0.000000,1152.000000) scale(0.100000,-0.100000)"
fill="#000000" stroke="none">
<path d="M0 5760 l0 -5760 5760 0 5760 0 0 5760 0 5760 -5760 0 -5760 0 0
-5760z m1530 3855 c14 -8 34 -14 46 -15 11 0 29 -9 39 -20 18 -20 31 -20 710
-20 657 0 695 -1 766 -20 41 -11 92 -20 114 -20 22 0 60 -9 84 -20 24 -11 52
-20 62 -20 11 0 37 -9 59 -20 22 -11 46 -20 53 -20 8 0 26 -9 40 -20 14 -11
31 -20 39 -20 7 0 39 -18 71 -40 31 -22 61 -40 66 -40 29 0 301 -288 301 -319
0 -5 8 -18 19 -28 10 -10 22 -29 26 -43 4 -14 13 -32 20 -40 7 -8 16 -26 20
-40 4 -14 12 -31 19 -39 6 -8 16 -32 22 -55 7 -23 16 -54 22 -71 35 -98 47
-176 50 -345 2 -136 0 -183 -12 -215 -8 -22 -18 -62 -22 -90 -3 -27 -12 -59
-19 -70 -6 -11 -15 -33 -19 -50 -7 -31 -40 -108 -57 -135 -5 -8 -15 -26 -22
-40 -26 -53 -108 -170 -158 -224 -75 -82 -257 -226 -286 -226 -6 0 -16 -6 -22
-14 -7 -8 -25 -18 -41 -21 -16 -3 -34 -12 -40 -20 -6 -7 -27 -16 -47 -20 -20
-3 -45 -13 -57 -20 -12 -7 -39 -16 -61 -20 -22 -3 -56 -13 -75 -20 -67 -27
-331 -45 -650 -45 -225 0 -309 -3 -318 -12 -18 -18 -17 -537 1 -543 6 -2 86
-6 177 -7 l165 -3 0 -199 0 -199 -250 2 c-138 1 -258 -1 -268 -4 -15 -6 -17
-23 -17 -141 l0 -134 292 0 c238 0 294 3 307 14 54 48 198 65 280 32 56 -21
85 -45 119 -93 24 -35 27 -46 27 -134 0 -89 -2 -99 -28 -137 -30 -43 -93 -90
-136 -102 -26 -6 -26 -7 -29 -131 -5 -197 14 -627 28 -644 10 -13 56 -15 269
-15 187 0 260 3 269 12 16 16 17 729 2 759 -6 10 -21 19 -33 19 -27 0 -97 47
-132 89 -36 42 -52 136 -36 212 15 70 75 141 141 166 87 33 222 16 280 -34 65
-57 42 -53 294 -53 l234 0 29 58 c30 61 109 174 181 260 37 43 50 52 77 52 27
0 35 -5 44 -27 14 -37 33 -68 122 -203 132 -201 142 -219 170 -305 21 -68 24
-136 8 -201 -6 -25 -9 -47 -6 -50 3 -3 24 15 47 40 44 48 147 106 187 106 13
0 38 7 55 16 17 9 52 19 77 23 l46 6 1 45 c0 25 5 54 11 65 14 26 18 92 15
262 -2 124 -3 133 -27 161 -20 24 -35 30 -79 35 -31 3 -66 13 -78 21 -12 9
-33 16 -45 16 -29 0 -197 84 -248 125 -22 17 -47 36 -57 41 -36 20 -152 138
-190 194 -10 14 -30 43 -45 65 -16 22 -34 51 -41 65 -6 14 -16 32 -20 40 -27
47 -52 108 -52 125 0 11 -9 37 -20 58 -11 20 -20 49 -20 64 0 16 -9 65 -20
111 -19 80 -20 119 -20 1062 l0 979 -22 15 c-18 13 -54 16 -180 16 -98 0 -159
4 -163 10 -4 6 -7 93 -7 193 l-1 182 614 0 614 0 0 -190 0 -190 -193 -3 c-106
-2 -203 -7 -216 -12 -16 -6 -26 -20 -30 -44 -8 -40 -6 -544 1 -563 7 -19 30
-16 45 6 7 10 54 63 104 117 50 54 106 116 124 137 23 26 40 37 61 37 25 0 32
-8 69 -83 41 -84 80 -207 80 -251 0 -54 -39 -148 -84 -203 -54 -66 -248 -223
-274 -223 -5 0 -21 -9 -35 -20 -14 -11 -39 -23 -56 -26 -27 -6 -31 -11 -37
-50 -9 -61 -1 -811 9 -821 5 -4 342 -8 750 -8 l742 0 3 993 2 992 -25 10 c-13
5 -111 10 -217 12 l-193 3 -3 193 -2 192 591 -2 591 -3 0 -182 c-1 -101 -1
-187 -1 -192 -1 -5 -64 -9 -141 -10 -77 -1 -146 -4 -154 -7 -7 -3 -18 -16 -25
-30 -15 -33 -16 -1416 -1 -1445 10 -18 24 -19 271 -19 175 0 267 -4 282 -11
11 -7 90 -68 174 -136 96 -78 159 -123 168 -119 22 8 22 1712 1 1742 -13 17
-30 19 -178 22 -90 2 -167 7 -172 12 -5 5 -8 91 -8 192 l0 183 743 0 c673 0
751 -2 821 -17 42 -10 96 -18 120 -18 24 0 63 -9 87 -20 24 -11 55 -20 70 -20
14 0 43 -9 64 -20 20 -11 45 -20 56 -20 10 0 30 -9 44 -20 14 -11 32 -20 40
-20 8 0 26 -9 40 -20 14 -11 30 -20 36 -20 12 0 111 -78 155 -121 36 -36 55
-36 87 -1 51 56 154 132 180 132 8 0 20 5 26 11 14 14 97 45 170 63 29 7 58
18 65 24 7 5 36 13 63 17 28 4 68 15 90 25 22 10 66 21 98 25 73 8 76 0 53
-114 -13 -59 -21 -164 -27 -336 -11 -335 -33 -460 -110 -620 -63 -131 -153
-227 -320 -340 -36 -25 -90 -68 -119 -95 -47 -44 -53 -53 -42 -68 7 -9 15 -25
18 -34 9 -27 37 -22 70 13 59 63 175 148 257 188 46 23 90 41 96 41 7 0 24 6
39 14 39 20 269 58 328 54 59 -4 64 -16 38 -97 -55 -173 -212 -434 -329 -546
-51 -49 -116 -99 -169 -129 -47 -27 -48 -29 -41 -65 4 -20 11 -56 15 -81 14
-70 11 -165 -6 -259 -28 -154 -37 -186 -88 -289 -53 -108 -57 -115 -117 -189
-33 -40 -59 -83 -59 -95 0 -16 75 -98 257 -279 249 -250 257 -258 307 -267
111 -22 172 -62 219 -144 22 -38 27 -59 27 -115 0 -58 -5 -75 -30 -116 -17
-26 -51 -62 -75 -79 l-45 -32 -1 -970 c-1 -1370 -6 -1867 -19 -1880 -6 -6
-225 -4 -678 8 -500 14 -674 16 -690 7 -11 -6 -24 -21 -28 -33 -3 -13 -12 -30
-19 -38 -7 -8 -15 -32 -19 -53 -9 -47 -64 -137 -85 -138 -66 -4 -208 5 -218
13 -19 16 -73 119 -73 140 0 11 -11 23 -26 28 -22 9 -25 15 -22 48 3 32 0 37
-19 40 -28 4 -37 32 -22 65 15 33 6 55 -23 59 -19 2 -23 8 -20 36 3 27 -1 34
-22 42 -14 5 -26 17 -26 26 0 15 -31 16 -367 13 -203 -1 -651 -2 -997 0 -346
1 -633 -2 -637 -6 -5 -5 -10 -107 -11 -228 l-3 -220 -115 3 c-161 5 -211 21
-260 84 -22 27 -40 55 -40 62 0 7 -9 21 -20 31 -11 10 -20 22 -20 26 0 5 -18
35 -40 66 -22 32 -40 61 -40 65 0 4 -18 34 -40 65 -22 32 -40 63 -40 69 0 6
-9 19 -20 29 -11 10 -20 22 -20 26 0 8 -37 67 -65 104 -8 10 -15 23 -15 27 0
4 -18 34 -40 65 -22 32 -40 62 -40 67 0 5 -7 18 -17 28 -9 10 -21 26 -27 37
-6 10 -21 36 -34 57 -12 22 -31 53 -42 69 -11 17 -30 47 -42 69 -13 21 -28 47
-33 56 -6 10 -17 26 -25 35 -18 21 -35 50 -55 92 -8 17 -20 35 -25 38 -6 4
-16 17 -21 28 -5 12 -23 42 -39 67 -16 25 -33 52 -36 60 -4 8 -14 23 -21 32
-8 9 -22 32 -31 50 l-17 33 -157 3 c-135 2 -158 0 -173 -14 -10 -10 -14 -25
-11 -38 3 -12 6 -261 6 -553 l0 -533 23 0 c12 0 27 -4 33 -8 14 -8 19 -378 5
-386 -4 -3 -262 -6 -572 -6 l-564 -1 -5 188 c-3 103 -3 194 -1 201 2 7 19 12
42 12 l39 0 0 149 c0 82 -3 156 -6 165 -6 14 -63 16 -549 16 -509 0 -544 -1
-549 -17 -8 -28 -12 -261 -4 -268 3 -4 28 -7 55 -7 26 0 53 -4 58 -8 6 -5 8
-78 5 -200 l-5 -191 -569 1 c-313 0 -573 3 -577 6 -7 4 -12 378 -6 386 1 1 85
4 187 7 l185 6 3 586 2 585 -35 17 c-20 9 -41 17 -47 17 -6 0 -35 11 -64 25
-139 66 -218 149 -230 241 -8 71 10 217 34 258 25 43 52 43 111 2 28 -20 53
-36 57 -36 3 0 36 -18 74 -40 38 -22 76 -40 84 -40 14 0 16 50 16 483 0 285
-4 488 -10 497 -7 12 -43 16 -191 18 -157 3 -186 1 -218 -14 -27 -14 -60 -18
-132 -18 -94 0 -98 1 -144 35 -26 19 -61 53 -78 76 -28 40 -30 48 -30 130 0
79 3 92 27 128 76 111 206 150 336 100 25 -9 52 -23 61 -31 12 -11 53 -14 191
-14 151 0 177 2 182 16 10 26 7 224 -4 245 -10 17 -23 19 -152 19 -83 0 -179
-7 -235 -16 -175 -30 -263 -3 -337 105 -26 37 -28 48 -28 131 0 79 2 94 21
114 11 12 21 27 21 32 0 19 75 70 127 87 28 9 69 17 90 17 46 0 135 -30 162
-54 15 -14 34 -16 97 -14 l79 3 3 403 2 402 -32 20 c-18 11 -43 20 -56 20 -13
0 -44 8 -70 19 -26 10 -74 29 -107 41 -72 28 -166 72 -220 105 -22 13 -47 27
-55 31 -31 15 -156 114 -191 151 -41 43 -119 154 -119 169 0 5 -10 27 -22 49
-19 35 -21 55 -21 165 0 90 5 136 16 165 9 22 21 58 26 80 11 46 51 156 72
200 22 47 64 46 114 -3 38 -37 175 -147 321 -257 95 -72 194 -182 233 -259 19
-36 37 -66 41 -66 11 0 20 27 20 60 0 16 11 42 25 58 l25 30 0 500 c0 452 -2
501 -17 513 -24 21 -182 25 -219 6 -38 -20 -149 -31 -214 -22 -59 8 -116 47
-163 112 -27 38 -29 48 -30 131 0 97 6 113 76 180 61 59 199 90 257 57z"/>
<path d="M1405 9570 c-4 -6 15 -10 50 -10 35 0 54 4 50 10 -3 6 -26 10 -50 10
-24 0 -47 -4 -50 -10z"/>
<path d="M1662 9375 c0 -16 2 -22 5 -12 2 9 2 23 0 30 -3 6 -5 -1 -5 -18z"/>
<path d="M10062 9304 c-80 -35 -142 -135 -246 -397 -19 -49 -47 -104 -61 -123
-50 -65 0 -91 54 -29 17 20 31 42 31 50 0 8 9 30 20 50 11 20 20 40 20 46 0 6
11 34 24 62 13 29 34 73 45 99 12 26 25 50 31 53 5 3 10 15 10 25 0 27 82 110
108 110 24 0 47 34 38 56 -7 17 -31 17 -74 -2z"/>
<path d="M2276 9148 c-14 -8 -16 -42 -16 -253 0 -264 0 -265 51 -227 13 9 44
27 69 38 25 12 61 29 80 38 19 9 59 23 89 32 68 20 73 15 100 -89 25 -98 37
-373 22 -527 -22 -234 -97 -461 -191 -578 -60 -75 -62 -75 283 -70 255 4 308
7 339 21 21 9 49 17 64 17 15 0 45 8 68 19 23 10 52 24 66 30 14 6 34 16 45
23 11 7 45 28 75 47 68 43 161 137 218 219 23 35 42 66 42 70 0 4 12 30 25 57
14 28 25 58 25 68 0 10 8 32 18 50 24 46 25 356 1 402 -9 17 -19 46 -23 66 -4
21 -13 42 -21 49 -8 7 -15 20 -15 30 0 9 -9 29 -20 43 -11 14 -20 30 -20 35 0
29 -153 191 -225 239 -22 14 -52 34 -67 45 -15 10 -35 18 -45 18 -10 0 -31 9
-48 20 -16 11 -40 20 -53 20 -13 0 -44 10 -70 21 -44 21 -66 22 -342 26 -162
2 -343 5 -402 6 -59 2 -114 0 -122 -5z"/>
<path d="M8001 9132 c-8 -16 -11 -142 -9 -447 3 -365 5 -427 18 -435 25 -16
744 -12 815 4 33 8 87 17 119 21 33 4 76 15 95 26 20 10 39 19 44 19 9 0 60
35 96 65 88 75 152 319 107 407 -8 14 -19 42 -26 62 -12 38 -112 145 -158 170
-67 37 -161 76 -182 76 -11 0 -43 9 -72 21 -50 20 -77 21 -444 27 l-392 5 -11
-21z"/>
<path d="M4980 8563 c-29 -48 -73 -112 -96 -143 -24 -31 -53 -85 -65 -121 -12
-35 -30 -77 -41 -94 -22 -36 -23 -68 -3 -85 23 -19 45 -4 45 29 0 19 7 34 19
40 11 6 21 26 25 50 6 42 45 120 76 156 20 23 85 123 113 174 21 38 19 74 -4
79 -10 2 -33 -26 -69 -85z"/>
<path d="M2231 8614 c0 -11 3 -14 6 -6 3 7 2 16 -1 19 -3 4 -6 -2 -5 -13z"/>
<path d="M2531 8391 c-12 -12 -21 -25 -21 -29 0 -5 -42 -52 -94 -105 -104
-108 -142 -175 -113 -204 22 -22 40 -11 56 33 8 22 23 49 35 60 12 12 34 37
50 55 17 19 38 37 48 41 10 4 18 14 18 23 0 8 11 20 25 25 14 5 25 17 25 26 0
10 8 26 17 36 13 14 15 23 7 35 -16 25 -31 26 -53 4z"/>
<path d="M1130 8346 c-13 -17 -5 -38 60 -151 16 -27 32 -57 35 -65 18 -42 42
-88 61 -115 11 -16 27 -45 34 -62 7 -18 16 -33 20 -33 5 0 20 -20 34 -44 14
-24 32 -46 41 -50 8 -3 15 -12 15 -21 0 -8 4 -15 8 -15 6 0 114 -98 197 -180
12 -11 25 -20 29 -20 5 0 28 -20 52 -46 47 -50 95 -64 102 -31 4 18 -74 97
-152 155 -17 13 -33 29 -36 37 -3 8 -35 39 -72 68 -66 53 -148 144 -148 166 0
6 -9 16 -20 23 -11 7 -20 18 -20 24 0 6 -13 30 -30 52 -16 23 -30 47 -31 54 0
7 -11 31 -24 53 -25 42 -40 70 -49 95 -14 38 -65 115 -78 118 -8 2 -21 -4 -28
-12z"/>
<path d="M10335 8071 c-11 -5 -53 -40 -93 -77 -40 -38 -79 -74 -86 -81 -8 -7
-16 -16 -17 -20 -2 -5 -38 -37 -79 -73 -79 -67 -92 -93 -50 -98 29 -3 61 22
198 156 52 50 98 92 103 92 4 0 16 10 26 23 10 13 26 26 36 30 12 4 17 15 15
29 -3 25 -22 32 -53 19z"/>
<path d="M1862 8025 c0 -16 2 -22 5 -12 2 9 2 23 0 30 -3 6 -5 -1 -5 -18z"/>
<path d="M8009 7833 c-12 -13 -14 -127 -17 -630 -2 -425 1 -620 8 -634 11 -20
18 -20 508 -17 448 3 501 5 534 21 21 9 49 17 63 17 14 0 43 8 63 19 20 10 60
29 87 42 52 25 121 76 188 138 143 134 217 407 157 578 -11 32 -20 67 -20 80
0 12 -5 25 -10 28 -6 4 -19 23 -29 43 -10 20 -35 54 -55 74 -55 56 -201 148
-236 148 -9 0 -33 9 -55 20 -22 11 -54 20 -72 20 -19 0 -50 7 -70 15 -20 9
-77 18 -127 21 -50 3 -121 12 -158 20 -50 10 -150 14 -406 14 -304 0 -341 -2
-353 -17z"/>
<path d="M6666 7568 c-11 -42 -6 -67 14 -78 14 -7 104 -10 265 -9 l245 2 19
-24 c10 -13 70 -67 132 -119 62 -52 134 -115 161 -139 61 -56 78 -51 78 22 0
50 -2 55 -35 78 -46 32 -287 229 -300 244 -6 7 -28 20 -49 29 -32 13 -81 16
-281 16 l-243 0 -6 -22z"/>
<path d="M6678 7399 c-15 -8 -18 -24 -18 -87 0 -96 -25 -267 -51 -347 -10 -33
-19 -66 -19 -74 0 -13 -32 -89 -51 -121 -5 -8 -16 -30 -25 -49 -8 -19 -22 -40
-30 -48 -8 -8 -14 -19 -14 -25 0 -18 -119 -156 -185 -214 -68 -60 -162 -129
-199 -145 -11 -5 -28 -13 -36 -18 -37 -24 -131 -61 -152 -61 -13 0 -33 -7 -45
-15 -12 -8 -50 -19 -85 -24 -34 -6 -94 -17 -133 -25 -38 -9 -87 -16 -107 -16
-20 0 -40 -5 -44 -11 -9 -15 16 -198 29 -206 6 -3 27 -10 46 -14 53 -11 124
-38 142 -55 13 -12 99 -14 527 -14 l512 0 0 -184 c0 -143 -3 -190 -15 -212
-13 -25 -15 -156 -15 -980 0 -790 2 -953 14 -963 9 -8 217 -10 762 -9 659 3
749 5 747 18 -5 41 -25 105 -38 124 -8 11 -15 31 -15 44 0 12 -9 40 -20 62
-11 22 -20 47 -20 56 0 9 -8 35 -19 58 -21 48 -49 126 -61 175 -5 19 -15 48
-23 65 -18 39 -45 119 -58 170 -5 21 -18 51 -29 66 -18 25 -25 27 -117 33 -74
5 -114 13 -163 33 -177 73 -321 214 -409 399 -14 28 -30 61 -37 75 -28 59 -68
242 -60 276 6 22 11 24 71 24 38 0 91 -8 127 -20 35 -11 86 -27 113 -36 28 -9
79 -29 115 -44 36 -15 77 -30 93 -34 26 -6 27 -5 21 21 -3 16 -14 46 -24 68
-20 48 -48 128 -59 172 -5 17 -19 53 -31 78 -31 64 -59 74 -209 76 -82 1 -121
5 -121 13 0 6 -1 92 -1 191 l-1 180 447 3 447 2 41 33 c22 17 54 39 71 47 l31
16 -2 89 c-3 83 -5 92 -29 113 l-26 23 -501 -1 c-276 0 -508 0 -514 0 -7 0
-13 9 -13 20 0 28 -27 36 -49 16 -10 -9 -22 -16 -27 -16 -5 0 -17 -8 -25 -19
-20 -22 -114 -35 -191 -25 -91 11 -165 75 -192 166 -20 70 -20 86 0 154 18 63
77 127 140 152 81 33 220 16 275 -34 20 -18 34 -19 223 -15 136 2 203 7 208
15 4 6 8 112 8 236 l0 225 -176 155 c-97 85 -182 160 -188 165 -6 6 -26 23
-45 38 l-33 28 -222 -1 c-124 -1 -229 -6 -238 -11z"/>
<path d="M4796 7082 c-15 -3 -17 -10 -12 -43 4 -22 15 -56 26 -77 11 -20 20
-40 20 -44 0 -31 151 -205 214 -247 72 -48 131 -80 147 -80 9 -1 38 -10 63
-22 42 -18 67 -20 219 -20 174 -1 210 3 256 27 14 8 35 14 46 15 11 0 43 13
70 29 28 16 66 39 87 50 39 21 181 161 203 201 30 53 74 145 80 165 3 12 0 26
-7 31 -12 10 -1366 24 -1412 15z"/>
<path d="M1445 6560 c-4 -6 15 -10 50 -10 35 0 54 4 50 10 -3 6 -26 10 -50 10
-24 0 -47 -4 -50 -10z"/>
<path d="M6920 6560 c0 -5 25 -10 55 -10 30 0 55 5 55 10 0 6 -25 10 -55 10
-30 0 -55 -4 -55 -10z"/>
<path d="M6762 6370 c0 -19 2 -27 5 -17 2 9 2 25 0 35 -3 9 -5 1 -5 -18z"/>
<path d="M1702 6370 c0 -14 2 -19 5 -12 2 6 2 18 0 25 -3 6 -5 1 -5 -13z"/>
<path d="M9499 6321 c-13 -10 -35 -22 -49 -26 -14 -4 -32 -13 -40 -20 -8 -8
-28 -17 -45 -21 -16 -4 -46 -15 -65 -26 -19 -10 -47 -18 -63 -18 -15 0 -42 -7
-59 -16 -44 -23 -174 -35 -438 -41 -124 -3 -233 -9 -242 -14 -23 -12 -23 -44
1 -139 16 -67 24 -81 74 -132 47 -48 57 -66 67 -113 14 -66 5 -152 -20 -192
-25 -42 -105 -104 -143 -112 l-32 -7 1 -80 c1 -126 15 -271 27 -289 15 -20
-13 -19 499 -17 l436 2 26 46 c14 26 26 56 26 68 0 12 9 38 20 59 11 20 20 46
20 57 0 12 10 38 22 59 19 33 20 43 10 65 l-12 26 -157 1 c-87 1 -171 2 -188
3 l-30 1 -5 184 c-3 100 -3 187 1 192 3 5 209 10 460 11 446 3 454 3 454 23 0
13 -84 103 -236 253 -203 200 -240 232 -266 232 -17 0 -41 -8 -54 -19z"/>
<path d="M1385 6200 c3 -5 8 -10 11 -10 2 0 4 5 4 10 0 6 -5 10 -11 10 -5 0
-7 -4 -4 -10z"/>
<path d="M7065 6200 c3 -5 8 -10 11 -10 2 0 4 5 4 10 0 6 -5 10 -11 10 -5 0
-7 -4 -4 -10z"/>
<path d="M4482 5953 c-15 -31 10 -83 71 -144 15 -15 27 -34 27 -42 0 -8 7 -20
15 -27 10 -9 15 -32 15 -75 0 -66 15 -93 45 -81 12 4 15 23 15 85 0 87 3 80
-85 201 -22 30 -45 64 -51 75 -15 27 -40 31 -52 8z"/>
<path d="M1400 5880 c0 -5 25 -10 55 -10 30 0 55 5 55 10 0 6 -25 10 -55 10
-30 0 -55 -4 -55 -10z"/>
<path d="M2795 5880 c-4 -6 17 -10 55 -10 38 0 59 4 55 10 -3 6 -28 10 -55 10
-27 0 -52 -4 -55 -10z"/>
<path d="M3475 5880 c-4 -6 17 -10 55 -10 38 0 59 4 55 10 -3 6 -28 10 -55 10
-27 0 -52 -4 -55 -10z"/>
<path d="M8330 5880 c-10 -7 5 -10 53 -10 43 0 66 4 62 10 -8 13 -95 13 -115
0z"/>
<path d="M10240 5880 c0 -5 25 -10 55 -10 30 0 55 5 55 10 0 6 -25 10 -55 10
-30 0 -55 -4 -55 -10z"/>
<path d="M2970 5840 c0 -5 5 -10 11 -10 5 0 7 5 4 10 -3 6 -8 10 -11 10 -2 0
-4 -4 -4 -10z"/>
<path d="M5475 5840 c-4 -6 17 -10 55 -10 38 0 59 4 55 10 -3 6 -28 10 -55 10
-27 0 -52 -4 -55 -10z"/>
<path d="M8561 5784 c0 -11 3 -14 6 -6 3 7 2 16 -1 19 -3 4 -6 -2 -5 -13z"/>
<path d="M3025 5780 c3 -5 8 -10 11 -10 2 0 4 5 4 10 0 6 -5 10 -11 10 -5 0
-7 -4 -4 -10z"/>
<path d="M10480 5745 c0 -8 5 -15 10 -15 6 0 10 7 10 15 0 8 -4 15 -10 15 -5
0 -10 -7 -10 -15z"/>
<path d="M10087 5726 c-10 -24 -8 -68 2 -84 12 -20 24 49 13 78 -8 20 -9 21
-15 6z"/>
<path d="M1662 5690 c0 -14 2 -19 5 -12 2 6 2 18 0 25 -3 6 -5 1 -5 -13z"/>
<path d="M5317 5673 c-11 -10 -8 -53 3 -53 6 0 10 14 10 30 0 31 -2 35 -13 23z"/>
<path d="M10485 5637 c-4 -10 -5 -21 -1 -24 10 -10 18 4 13 24 -4 17 -4 17
-12 0z"/>
<path d="M1260 5610 c0 -5 5 -10 11 -10 5 0 7 5 4 10 -3 6 -8 10 -11 10 -2 0
-4 -4 -4 -10z"/>
<path d="M5256 5528 c-3 -13 -9 -88 -14 -168 -12 -186 -22 -207 -154 -331 -54
-50 -98 -98 -98 -105 0 -8 18 -40 40 -71 22 -32 40 -61 40 -65 0 -4 18 -34 40
-65 22 -32 40 -63 40 -69 0 -6 9 -19 20 -29 11 -10 20 -22 20 -26 0 -5 18 -35
40 -66 22 -32 40 -61 40 -65 0 -4 18 -34 40 -65 22 -32 40 -63 40 -69 0 -6 9
-19 20 -29 11 -10 20 -22 20 -26 0 -5 18 -35 40 -66 22 -32 40 -63 40 -69 0
-6 7 -18 16 -25 9 -7 20 -22 26 -34 5 -11 20 -38 33 -60 13 -22 32 -53 41 -70
9 -16 20 -32 24 -35 4 -3 15 -18 24 -35 9 -16 25 -43 36 -60 11 -16 29 -46 40
-65 11 -19 29 -48 40 -65 11 -16 27 -43 36 -60 9 -16 20 -32 24 -35 4 -3 15
-18 24 -35 9 -16 25 -43 36 -60 11 -16 27 -44 35 -62 8 -17 29 -41 46 -54 31
-22 32 -22 46 -3 7 10 11 25 8 32 -3 8 -5 454 -5 993 l0 980 -25 24 c-23 24
-30 25 -150 25 -99 0 -133 -4 -158 -17 -24 -12 -59 -17 -134 -17 -90 -1 -105
2 -132 22 -16 12 -34 22 -40 22 -5 0 -26 23 -47 50 -43 56 -52 60 -58 28z"/>
<path d="M1350 5520 c0 -5 5 -10 11 -10 5 0 7 5 4 10 -3 6 -8 10 -11 10 -2 0
-4 -4 -4 -10z"/>
<path d="M5057 5481 c-38 -45 -86 -134 -94 -172 -3 -19 -12 -43 -18 -54 -7
-11 -18 -42 -25 -68 -11 -42 -11 -50 3 -64 23 -23 44 -10 51 34 4 21 13 47 20
58 7 11 18 42 25 69 13 52 53 128 84 159 21 21 19 60 -4 65 -9 2 -28 -11 -42
-27z"/>
<path d="M5620 5480 c0 -5 5 -10 10 -10 6 0 10 5 10 10 0 6 -4 10 -10 10 -5 0
-10 -4 -10 -10z"/>
<path d="M2436 5465 c-15 -15 -16 -102 -14 -998 l3 -982 820 0 820 0 3 417 c2
390 1 418 -15 426 -10 6 -342 13 -771 17 -715 7 -753 8 -762 26 -7 12 -7 33
-1 61 12 53 14 971 3 1013 -7 24 -15 31 -39 33 -18 2 -37 -3 -47 -13z"/>
<path d="M2610 5001 c0 -263 -3 -491 -6 -507 -3 -17 0 -37 9 -48 13 -18 43
-19 720 -24 562 -4 710 -2 722 8 13 11 15 74 15 490 0 469 0 477 -21 496 -18
16 -46 19 -237 25 -153 6 -221 4 -230 -3 -11 -9 -13 -92 -11 -430 1 -230 -1
-421 -4 -424 -9 -9 -706 -8 -715 1 -4 3 -7 57 -8 118 -1 62 -5 248 -9 415 -8
332 -8 332 -68 332 -18 1 -43 7 -57 15 -14 8 -42 14 -62 15 l-38 0 0 -479z"/>
<path d="M6410 5420 c-20 -20 -20 -26 -20 -1235 0 -1146 1 -1215 18 -1224 20
-11 1419 -17 1752 -7 124 3 233 6 243 6 23 0 22 26 -3 75 -11 22 -20 47 -20
58 0 10 -9 35 -20 57 -11 22 -20 47 -20 57 0 10 -7 32 -16 48 -9 17 -20 50
-25 74 -5 24 -14 50 -20 57 -9 12 -151 14 -820 14 -635 0 -810 3 -816 13 -4 6
-10 464 -13 1017 l-5 1005 -97 3 c-87 2 -99 1 -118 -18z"/>
<path d="M8024 5426 c-7 -19 13 -114 30 -141 7 -11 16 -38 20 -59 4 -21 13
-48 21 -60 7 -12 16 -37 20 -56 4 -19 13 -44 19 -55 7 -11 16 -38 20 -60 4
-22 14 -49 21 -61 7 -12 17 -38 20 -58 4 -20 16 -53 26 -73 11 -21 19 -46 19
-58 0 -11 7 -28 15 -38 7 -11 17 -37 21 -60 3 -23 12 -51 19 -62 7 -11 16 -36
20 -55 4 -19 13 -44 21 -55 7 -11 16 -38 20 -60 3 -22 12 -47 19 -55 7 -8 16
-33 19 -55 4 -22 14 -49 21 -61 7 -12 17 -38 20 -58 4 -20 16 -53 26 -73 11
-21 19 -47 19 -58 0 -11 6 -30 14 -41 8 -11 17 -37 21 -57 4 -21 16 -54 26
-74 11 -21 19 -47 19 -58 0 -11 6 -30 14 -41 8 -11 17 -37 21 -57 4 -21 16
-54 26 -74 11 -21 19 -47 19 -58 0 -11 6 -30 14 -41 8 -11 17 -37 21 -57 4
-21 16 -54 26 -74 11 -21 19 -46 19 -56 0 -10 10 -36 23 -58 17 -32 27 -39 47
-37 22 3 26 9 31 48 3 25 13 59 22 77 9 18 17 39 17 48 0 9 9 33 20 55 11 22
20 48 20 60 0 11 9 37 20 57 11 21 20 48 20 60 0 12 9 37 20 55 11 18 20 43
20 56 0 12 9 39 20 59 11 21 20 49 20 63 0 14 9 39 20 55 11 17 20 40 20 53 0
12 9 39 20 59 11 21 20 47 20 58 0 11 9 37 20 58 11 20 20 47 20 59 0 13 9 38
20 56 11 18 20 43 20 55 0 12 9 39 20 60 11 20 20 46 20 57 0 12 9 38 20 60
11 22 20 50 20 62 0 13 9 37 20 53 11 17 20 40 20 53 0 12 9 40 20 62 11 22
20 50 20 62 0 13 9 37 20 53 24 36 26 81 4 89 -28 11 -846 7 -887 -5 -21 -5
-46 -7 -56 -4 -23 7 -40 49 -39 95 0 19 -5 105 -11 190 -9 111 -16 159 -27
170 -22 23 -311 28 -320 6z"/>
<path d="M10002 5425 c-18 -8 -35 -22 -38 -32 -3 -10 -14 -35 -24 -55 -11 -20
-20 -46 -20 -58 0 -11 -9 -38 -20 -60 -11 -22 -20 -50 -20 -62 0 -13 -9 -36
-20 -53 -11 -16 -20 -40 -20 -53 0 -12 -9 -40 -20 -62 -11 -22 -20 -47 -20
-57 0 -10 -9 -35 -20 -56 -11 -20 -20 -47 -20 -60 0 -12 -9 -39 -20 -60 -11
-20 -20 -47 -20 -59 0 -13 -9 -38 -20 -56 -11 -18 -20 -43 -20 -55 0 -12 -9
-39 -20 -60 -11 -20 -20 -47 -20 -59 0 -13 -9 -38 -20 -56 -11 -18 -20 -43
-20 -55 0 -12 -9 -39 -20 -60 -11 -20 -20 -46 -20 -57 0 -12 -9 -38 -20 -60
-11 -22 -20 -47 -20 -57 0 -10 -9 -35 -20 -56 -11 -20 -20 -46 -20 -57 0 -12
-9 -38 -20 -60 -11 -22 -20 -47 -20 -57 0 -10 -9 -35 -20 -56 -11 -20 -20 -47
-20 -60 0 -12 -9 -39 -20 -60 -11 -20 -20 -45 -20 -55 0 -10 -9 -35 -20 -57
-11 -22 -20 -48 -20 -60 0 -11 -9 -37 -20 -58 -11 -20 -20 -46 -20 -57 0 -12
-9 -38 -20 -60 -11 -22 -20 -47 -20 -57 0 -10 -9 -35 -20 -56 -11 -20 -20 -46
-20 -57 0 -12 -9 -38 -20 -60 -11 -22 -20 -47 -20 -57 0 -10 -8 -34 -19 -53
-10 -19 -21 -53 -25 -74 -4 -22 -14 -49 -22 -60 -18 -26 -19 -146 -1 -169 10
-14 61 -17 412 -27 220 -6 492 -12 605 -13 l205 -2 6 175 c4 96 7 711 8 1367
1 899 -2 1194 -11 1199 -6 4 -72 9 -147 11 -104 2 -144 0 -169 -12z"/>
<path d="M7462 4968 c-20 -20 -14 -34 31 -80 24 -24 62 -69 86 -101 44 -60 99
-122 186 -212 28 -28 63 -68 78 -88 29 -39 63 -48 74 -21 8 21 -20 57 -151
197 -61 65 -119 131 -128 148 -18 33 -22 38 -97 117 -53 55 -60 59 -79 40z"/>
<path d="M4470 4873 c-4 -298 3 -2040 8 -2045 4 -4 49 -8 100 -9 72 -2 96 1
103 12 5 8 9 253 8 593 -1 658 -7 611 84 612 166 1 244 5 255 13 11 7 6 19
-22 60 -20 28 -36 55 -36 60 0 5 -7 14 -16 21 -8 8 -22 27 -30 44 -21 45 -39
73 -57 94 -10 10 -17 24 -17 30 0 6 -6 17 -14 24 -7 8 -21 27 -30 43 -9 17
-25 44 -36 60 -11 17 -30 47 -42 69 -13 21 -28 47 -34 57 -6 11 -18 27 -27 37
-10 10 -17 23 -17 28 0 5 -18 35 -40 67 -22 31 -40 61 -40 66 0 4 -11 20 -25
35 -14 15 -25 31 -25 37 0 5 -11 9 -25 9 -17 0 -25 -6 -25 -17z"/>
<path d="M1761 4461 c-17 -31 -13 -46 19 -74 16 -15 33 -39 36 -54 4 -16 18
-42 31 -59 12 -17 23 -35 23 -41 0 -22 39 -44 71 -41 45 4 50 32 11 52 -17 9
-35 29 -40 46 -6 16 -16 30 -21 30 -6 0 -11 9 -11 19 0 11 -4 23 -10 26 -5 3
-10 15 -10 26 0 11 -11 24 -24 31 -14 6 -26 20 -28 32 -4 28 -34 32 -47 7z"/>
<path d="M2425 3387 c-3 -7 -4 -127 -3 -267 l3 -255 72 -3 71 -3 6 53 c3 29 8
110 12 181 3 70 9 129 13 132 11 6 1232 8 1238 1 3 -3 8 -94 11 -201 3 -108 9
-198 13 -201 18 -11 180 -6 194 6 13 10 15 59 15 285 0 240 -2 274 -16 279 -9
3 -378 6 -820 6 -640 0 -806 -3 -809 -13z"/>
<path d="M8470 2860 c0 -13 5 -20 13 -17 6 2 12 10 12 17 0 7 -6 15 -12 18 -8
2 -13 -5 -13 -18z"/>
<path d="M8517 2803 c-11 -10 -8 -43 3 -43 6 0 10 11 10 25 0 26 -2 29 -13 18z"/>
<path d="M8557 2683 c-11 -10 -8 -43 3 -43 6 0 10 11 10 25 0 26 -2 29 -13 18z"/>
</g>
</svg>
