%TF.GenerationSoftware,KiCad,Pcbnew,7.0.1*%
%TF.CreationDate,2023-08-28T22:07:01-05:00*%
%TF.ProjectId,Control v1,436f6e74-726f-46c2-9076-312e6b696361,0.1*%
%TF.SameCoordinates,Original*%
%TF.FileFunction,Soldermask,Bot*%
%TF.FilePolarity,Negative*%
%FSLAX46Y46*%
G04 Gerber Fmt 4.6, Leading zero omitted, Abs format (unit mm)*
G04 Created by KiCad (PCBNEW 7.0.1) date 2023-08-28 22:07:01*
%MOMM*%
%LPD*%
G01*
G04 APERTURE LIST*
%ADD10C,3.000000*%
%ADD11R,1.700000X1.700000*%
%ADD12O,1.700000X1.700000*%
%ADD13C,0.800000*%
%ADD14C,7.000000*%
%ADD15R,2.100000X2.100000*%
%ADD16C,2.100000*%
%ADD17C,3.048000*%
%ADD18C,3.200000*%
%ADD19O,1.727200X1.727200*%
%ADD20R,1.727200X1.727200*%
%ADD21C,4.000000*%
%ADD22R,1.600000X1.600000*%
%ADD23C,1.600000*%
%ADD24C,3.250000*%
%ADD25R,1.520000X1.520000*%
%ADD26C,1.520000*%
%ADD27R,1.350000X1.350000*%
%ADD28O,1.350000X1.350000*%
%ADD29R,2.200000X2.200000*%
%ADD30C,2.200000*%
G04 APERTURE END LIST*
D10*
%TO.C,TP18*%
X63500000Y-188000000D03*
%TD*%
%TO.C,SPI_SCK1*%
X79000000Y-142500000D03*
%TD*%
D11*
%TO.C,J5*%
X105000000Y-101000000D03*
D12*
X105000000Y-103540000D03*
X105000000Y-106080000D03*
X105000000Y-108620000D03*
X105000000Y-111160000D03*
X105000000Y-113700000D03*
X105000000Y-116240000D03*
X105000000Y-118780000D03*
%TD*%
D10*
%TO.C,D_PSU_RX1*%
X166000000Y-141300000D03*
%TD*%
D13*
%TO.C,ISO4*%
X182375000Y-220000000D03*
X183143845Y-218143845D03*
X183143845Y-221856155D03*
X185000000Y-217375000D03*
D14*
X185000000Y-220000000D03*
D13*
X185000000Y-222625000D03*
X186856155Y-218143845D03*
X186856155Y-221856155D03*
X187625000Y-220000000D03*
%TD*%
D10*
%TO.C,TP12*%
X58000000Y-149000000D03*
%TD*%
D11*
%TO.C,J24*%
X53380000Y-157000000D03*
D12*
X55920000Y-157000000D03*
X58460000Y-157000000D03*
X61000000Y-157000000D03*
%TD*%
D10*
%TO.C,TP6*%
X141000000Y-188950000D03*
%TD*%
D11*
%TO.C,J6*%
X165940000Y-113780000D03*
D12*
X165940000Y-111240000D03*
X165940000Y-108700000D03*
X165940000Y-106160000D03*
X165940000Y-103620000D03*
X165940000Y-101080000D03*
X165940000Y-98540000D03*
X165940000Y-96000000D03*
%TD*%
D11*
%TO.C,J4*%
X105000000Y-124000000D03*
D12*
X105000000Y-126540000D03*
X105000000Y-129080000D03*
X105000000Y-131620000D03*
X105000000Y-134160000D03*
X105000000Y-136700000D03*
X105000000Y-139240000D03*
X105000000Y-141780000D03*
%TD*%
D13*
%TO.C,ISO5*%
X182375000Y-130000000D03*
X183143845Y-128143845D03*
X183143845Y-131856155D03*
X185000000Y-127375000D03*
D14*
X185000000Y-130000000D03*
D13*
X185000000Y-132625000D03*
X186856155Y-128143845D03*
X186856155Y-131856155D03*
X187625000Y-130000000D03*
%TD*%
D11*
%TO.C,J17*%
X75000000Y-107000000D03*
D12*
X75000000Y-104460000D03*
X75000000Y-101920000D03*
X75000000Y-99380000D03*
X75000000Y-96840000D03*
%TD*%
D13*
%TO.C,H5*%
X169375000Y-130000000D03*
X170143845Y-128143845D03*
X170143845Y-131856155D03*
X172000000Y-127375000D03*
D14*
X172000000Y-130000000D03*
D13*
X172000000Y-132625000D03*
X173856155Y-128143845D03*
X173856155Y-131856155D03*
X174625000Y-130000000D03*
%TD*%
D10*
%TO.C,TP11*%
X53000000Y-120500000D03*
%TD*%
D11*
%TO.C,J8*%
X159000000Y-158000000D03*
D12*
X159000000Y-155460000D03*
X156460000Y-158000000D03*
X156460000Y-155460000D03*
X153920000Y-158000000D03*
X153920000Y-155460000D03*
X151380000Y-158000000D03*
X151380000Y-155460000D03*
X148840000Y-158000000D03*
X148840000Y-155460000D03*
X146300000Y-158000000D03*
X146300000Y-155460000D03*
X143760000Y-158000000D03*
X143760000Y-155460000D03*
X141220000Y-158000000D03*
X141220000Y-155460000D03*
X138680000Y-158000000D03*
X138680000Y-155460000D03*
X136140000Y-158000000D03*
X136140000Y-155460000D03*
X133600000Y-158000000D03*
X133600000Y-155460000D03*
X131060000Y-158000000D03*
X131060000Y-155460000D03*
X128520000Y-158000000D03*
X128520000Y-155460000D03*
X125980000Y-158000000D03*
X125980000Y-155460000D03*
X123440000Y-158000000D03*
X123440000Y-155460000D03*
X120900000Y-158000000D03*
X120900000Y-155460000D03*
X118360000Y-158000000D03*
X118360000Y-155460000D03*
X115820000Y-158000000D03*
X115820000Y-155460000D03*
%TD*%
D15*
%TO.C,J13*%
X80000000Y-55000000D03*
D16*
X82540000Y-55000000D03*
%TD*%
D10*
%TO.C,D_PSU_TX1*%
X171250000Y-141250000D03*
%TD*%
D11*
%TO.C,J14*%
X185250000Y-184380000D03*
D12*
X185250000Y-181840000D03*
X185250000Y-179300000D03*
X185250000Y-176760000D03*
X185250000Y-174220000D03*
X185250000Y-171680000D03*
X185250000Y-169140000D03*
X185250000Y-166600000D03*
X185250000Y-164060000D03*
X185250000Y-161520000D03*
%TD*%
D13*
%TO.C,H2*%
X52375000Y-205000000D03*
X53143845Y-203143845D03*
X53143845Y-206856155D03*
X55000000Y-202375000D03*
D14*
X55000000Y-205000000D03*
D13*
X55000000Y-207625000D03*
X56856155Y-203143845D03*
X56856155Y-206856155D03*
X57625000Y-205000000D03*
%TD*%
D11*
%TO.C,JP10*%
X127725000Y-193950000D03*
D12*
X125185000Y-193950000D03*
X122645000Y-193950000D03*
X120105000Y-193950000D03*
X117565000Y-193950000D03*
X115025000Y-193950000D03*
X112485000Y-193950000D03*
X109945000Y-193950000D03*
D17*
X126455000Y-210460000D03*
X111215000Y-210460000D03*
%TD*%
D10*
%TO.C,SCL1*%
X147500000Y-164000000D03*
%TD*%
D13*
%TO.C,H3*%
X169375000Y-55000000D03*
X170143845Y-53143845D03*
X170143845Y-56856155D03*
X172000000Y-52375000D03*
D14*
X172000000Y-55000000D03*
D13*
X172000000Y-57625000D03*
X173856155Y-53143845D03*
X173856155Y-56856155D03*
X174625000Y-55000000D03*
%TD*%
D11*
%TO.C,J19*%
X79500000Y-97660000D03*
D12*
X79500000Y-95120000D03*
X79500000Y-92580000D03*
X79500000Y-90040000D03*
X79500000Y-87500000D03*
X79500000Y-84960000D03*
X79500000Y-82420000D03*
%TD*%
D18*
%TO.C,A1*%
X110920000Y-64450000D03*
X159180000Y-65720000D03*
D19*
X110920000Y-78420000D03*
D18*
X143940000Y-116520000D03*
X116000000Y-116520000D03*
X159180000Y-140650000D03*
X110920000Y-147000000D03*
D19*
X110920000Y-86040000D03*
X110920000Y-88580000D03*
X138860000Y-116647000D03*
X159180000Y-144460000D03*
X159180000Y-147000000D03*
X110920000Y-101280000D03*
X110920000Y-103820000D03*
X110920000Y-106360000D03*
X110920000Y-108900000D03*
X110920000Y-111440000D03*
X110920000Y-113980000D03*
X110920000Y-116520000D03*
X110920000Y-119060000D03*
X110920000Y-124140000D03*
X110920000Y-126680000D03*
X110920000Y-129220000D03*
X110920000Y-131760000D03*
X159180000Y-74356000D03*
X110920000Y-139380000D03*
X110920000Y-141920000D03*
X159180000Y-113980000D03*
X159180000Y-111440000D03*
X159180000Y-108900000D03*
X159180000Y-106360000D03*
X159180000Y-103820000D03*
X159180000Y-101280000D03*
X159180000Y-98740000D03*
X159180000Y-96200000D03*
X159180000Y-92136000D03*
X159180000Y-89596000D03*
X159180000Y-87056000D03*
X159180000Y-84516000D03*
X159180000Y-81976000D03*
X159180000Y-79436000D03*
X159180000Y-119060000D03*
X159180000Y-121600000D03*
X159180000Y-124140000D03*
X159180000Y-126680000D03*
X159180000Y-129220000D03*
X159180000Y-131760000D03*
X159180000Y-134300000D03*
X159180000Y-136840000D03*
X156640000Y-144460000D03*
X156640000Y-147000000D03*
X154100000Y-144460000D03*
X154100000Y-147000000D03*
X151560000Y-144460000D03*
X151560000Y-147000000D03*
X149020000Y-144460000D03*
X149020000Y-147000000D03*
X146480000Y-144460000D03*
X146480000Y-147000000D03*
X143940000Y-144460000D03*
X143940000Y-147000000D03*
X141400000Y-144460000D03*
X141400000Y-147000000D03*
X138860000Y-144460000D03*
X138860000Y-147000000D03*
X136320000Y-144460000D03*
X136320000Y-147000000D03*
X133780000Y-144460000D03*
X133780000Y-147000000D03*
X131240000Y-144460000D03*
X131240000Y-147000000D03*
X128700000Y-144460000D03*
X128700000Y-147000000D03*
X126160000Y-144460000D03*
X126160000Y-147000000D03*
X123620000Y-144460000D03*
X123620000Y-147000000D03*
X121080000Y-144460000D03*
X121080000Y-147000000D03*
X118540000Y-144460000D03*
X118540000Y-147000000D03*
X110920000Y-134300000D03*
X110920000Y-136840000D03*
D20*
X159180000Y-76896000D03*
X110920000Y-91120000D03*
X110920000Y-93660000D03*
X133780000Y-116647000D03*
X116000000Y-144460000D03*
X116000000Y-147000000D03*
D19*
X110920000Y-80960000D03*
X138860000Y-114107000D03*
X136320000Y-116647000D03*
X110920000Y-83500000D03*
X133780000Y-114107000D03*
X136320000Y-114107000D03*
X159180000Y-69276000D03*
X159180000Y-71816000D03*
X110920000Y-96200000D03*
%TD*%
D10*
%TO.C,TP14*%
X53000000Y-127000000D03*
%TD*%
D11*
%TO.C,J22*%
X66000000Y-149000000D03*
D12*
X66000000Y-151540000D03*
%TD*%
D10*
%TO.C,COPI1*%
X78500000Y-137000000D03*
%TD*%
D11*
%TO.C,J18*%
X64000000Y-65000000D03*
D12*
X64000000Y-67540000D03*
X64000000Y-70080000D03*
X64000000Y-72620000D03*
%TD*%
D11*
%TO.C,JP15*%
X100280000Y-193950000D03*
D12*
X97740000Y-193950000D03*
X95200000Y-193950000D03*
X92660000Y-193950000D03*
X90120000Y-193950000D03*
X87580000Y-193950000D03*
X85040000Y-193950000D03*
X82500000Y-193950000D03*
D17*
X99010000Y-210460000D03*
X83770000Y-210460000D03*
%TD*%
D10*
%TO.C,TP16*%
X63000000Y-127000000D03*
%TD*%
%TO.C,TP7*%
X114500000Y-188950000D03*
%TD*%
%TO.C,TP13*%
X53000000Y-149000000D03*
%TD*%
%TO.C,TP9*%
X163000000Y-211450000D03*
%TD*%
%TO.C,TP4*%
X60500000Y-60000000D03*
%TD*%
%TO.C,SDA1*%
X158000000Y-164500000D03*
%TD*%
D13*
%TO.C,ISO2*%
X52375000Y-220000000D03*
X53143845Y-218143845D03*
X53143845Y-221856155D03*
X55000000Y-217375000D03*
D14*
X55000000Y-220000000D03*
D13*
X55000000Y-222625000D03*
X56856155Y-218143845D03*
X56856155Y-221856155D03*
X57625000Y-220000000D03*
%TD*%
D21*
%TO.C,J1*%
X56325763Y-163294000D03*
X56325763Y-188294000D03*
D22*
X56625763Y-181334000D03*
D23*
X56625763Y-178564000D03*
X56625763Y-175794000D03*
X56625763Y-173024000D03*
X56625763Y-170254000D03*
X53785763Y-179949000D03*
X53785763Y-177179000D03*
X53785763Y-174409000D03*
X53785763Y-171639000D03*
%TD*%
D10*
%TO.C,TP5*%
X163000000Y-217350000D03*
%TD*%
D24*
%TO.C,J21*%
X52110000Y-133090000D03*
X52110000Y-143250000D03*
D25*
X61000000Y-135000000D03*
D26*
X58460000Y-136270000D03*
X61000000Y-137540000D03*
X58460000Y-138810000D03*
X61000000Y-140080000D03*
X58460000Y-141350000D03*
%TD*%
D11*
%TO.C,JP20*%
X128820000Y-198744000D03*
D12*
X126280000Y-198744000D03*
X123740000Y-198744000D03*
X121200000Y-198744000D03*
X118660000Y-198744000D03*
X116120000Y-198744000D03*
X113580000Y-198744000D03*
X111040000Y-198744000D03*
X108500000Y-198744000D03*
D17*
X128185000Y-213933200D03*
X109135000Y-213933200D03*
%TD*%
D13*
%TO.C,H1*%
X52375000Y-55000000D03*
X53143845Y-53143845D03*
X53143845Y-56856155D03*
X55000000Y-52375000D03*
D14*
X55000000Y-55000000D03*
D13*
X55000000Y-57625000D03*
X56856155Y-53143845D03*
X56856155Y-56856155D03*
X57625000Y-55000000D03*
%TD*%
D11*
%TO.C,J3*%
X105000000Y-95500000D03*
D12*
X105000000Y-92960000D03*
X105000000Y-90420000D03*
X105000000Y-87880000D03*
X105000000Y-85340000D03*
X105000000Y-82800000D03*
X105000000Y-80260000D03*
X105000000Y-77720000D03*
%TD*%
D10*
%TO.C,TP17*%
X63000000Y-163000000D03*
%TD*%
D15*
%TO.C,J25*%
X183500000Y-190000000D03*
D16*
X183500000Y-192540000D03*
%TD*%
D10*
%TO.C,CIPO1*%
X78000000Y-157000000D03*
%TD*%
D27*
%TO.C,J10*%
X181400000Y-184170000D03*
D28*
X179400000Y-184170000D03*
X181400000Y-182170000D03*
X179400000Y-182170000D03*
X181400000Y-180170000D03*
X179400000Y-180170000D03*
X181400000Y-178170000D03*
X179400000Y-178170000D03*
X181400000Y-176170000D03*
X179400000Y-176170000D03*
X181400000Y-174170000D03*
X179400000Y-174170000D03*
X181400000Y-172170000D03*
X179400000Y-172170000D03*
X181400000Y-170170000D03*
X179400000Y-170170000D03*
X181400000Y-168170000D03*
X179400000Y-168170000D03*
X181400000Y-166170000D03*
X179400000Y-166170000D03*
X181400000Y-164170000D03*
X179400000Y-164170000D03*
X181400000Y-162170000D03*
X179400000Y-162170000D03*
%TD*%
D11*
%TO.C,J2*%
X165940000Y-118880000D03*
D12*
X165940000Y-121420000D03*
X165940000Y-123960000D03*
X165940000Y-126500000D03*
X165940000Y-129040000D03*
X165940000Y-131580000D03*
X165940000Y-134120000D03*
X165940000Y-136660000D03*
%TD*%
D11*
%TO.C,JP9*%
X155000000Y-193950000D03*
D12*
X152460000Y-193950000D03*
X149920000Y-193950000D03*
X147380000Y-193950000D03*
X144840000Y-193950000D03*
X142300000Y-193950000D03*
X139760000Y-193950000D03*
X137220000Y-193950000D03*
D17*
X153730000Y-210460000D03*
X138490000Y-210460000D03*
%TD*%
D11*
%TO.C,J16*%
X69190000Y-94620000D03*
D12*
X69190000Y-92080000D03*
X69190000Y-89540000D03*
X69190000Y-87000000D03*
%TD*%
D11*
%TO.C,JP16*%
X152460000Y-202712000D03*
D12*
X149920000Y-202712000D03*
X147380000Y-202712000D03*
X144840000Y-202712000D03*
X142300000Y-202712000D03*
X139760000Y-202712000D03*
D17*
X153730000Y-221000000D03*
X138490000Y-221000000D03*
%TD*%
D10*
%TO.C,TP15*%
X58000000Y-127000000D03*
%TD*%
D15*
%TO.C,J11*%
X101730000Y-55000000D03*
D16*
X104270000Y-55000000D03*
%TD*%
D13*
%TO.C,ISO1*%
X52250000Y-40000000D03*
X53018845Y-38143845D03*
X53018845Y-41856155D03*
X54875000Y-37375000D03*
D14*
X54875000Y-40000000D03*
D13*
X54875000Y-42625000D03*
X56731155Y-38143845D03*
X56731155Y-41856155D03*
X57500000Y-40000000D03*
%TD*%
D11*
%TO.C,J23*%
X66460000Y-156000000D03*
D12*
X69000000Y-156000000D03*
%TD*%
D11*
%TO.C,J20*%
X70000000Y-125000000D03*
D12*
X70000000Y-122460000D03*
X70000000Y-119920000D03*
X70000000Y-117380000D03*
%TD*%
D11*
%TO.C,JP17*%
X125185000Y-202712000D03*
D12*
X122645000Y-202712000D03*
X120105000Y-202712000D03*
X117565000Y-202712000D03*
X115025000Y-202712000D03*
X112485000Y-202712000D03*
D17*
X126455000Y-221000000D03*
X111215000Y-221000000D03*
%TD*%
D11*
%TO.C,JP18*%
X97740000Y-202712000D03*
D12*
X95200000Y-202712000D03*
X92660000Y-202712000D03*
X90120000Y-202712000D03*
X87580000Y-202712000D03*
X85040000Y-202712000D03*
D17*
X99010000Y-221000000D03*
X83770000Y-221000000D03*
%TD*%
D10*
%TO.C,TP10*%
X163000000Y-205750000D03*
%TD*%
D11*
%TO.C,JP19*%
X156095000Y-198744000D03*
D12*
X153555000Y-198744000D03*
X151015000Y-198744000D03*
X148475000Y-198744000D03*
X145935000Y-198744000D03*
X143395000Y-198744000D03*
X140855000Y-198744000D03*
X138315000Y-198744000D03*
X135775000Y-198744000D03*
D17*
X155460000Y-213933200D03*
X136410000Y-213933200D03*
%TD*%
D10*
%TO.C,TP8*%
X86000000Y-188950000D03*
%TD*%
D11*
%TO.C,J7*%
X165900000Y-92200000D03*
D12*
X165900000Y-89660000D03*
X165900000Y-87120000D03*
X165900000Y-84580000D03*
X165900000Y-82040000D03*
X165900000Y-79500000D03*
X165900000Y-76960000D03*
X165900000Y-74420000D03*
X165900000Y-71880000D03*
X165900000Y-69340000D03*
%TD*%
D11*
%TO.C,J9*%
X175500000Y-184380000D03*
D12*
X175500000Y-181840000D03*
X175500000Y-179300000D03*
X175500000Y-176760000D03*
X175500000Y-174220000D03*
X175500000Y-171680000D03*
X175500000Y-169140000D03*
X175500000Y-166600000D03*
X175500000Y-164060000D03*
X175500000Y-161520000D03*
%TD*%
D29*
%TO.C,S1*%
X88750000Y-52750000D03*
D30*
X95250000Y-52750000D03*
X88750000Y-57250000D03*
X95250000Y-57250000D03*
%TD*%
D10*
%TO.C,TP19*%
X68500000Y-163000000D03*
%TD*%
D13*
%TO.C,H4*%
X169375000Y-205000000D03*
X170143845Y-203143845D03*
X170143845Y-206856155D03*
X172000000Y-202375000D03*
D14*
X172000000Y-205000000D03*
D13*
X172000000Y-207625000D03*
X173856155Y-203143845D03*
X173856155Y-206856155D03*
X174625000Y-205000000D03*
%TD*%
D21*
%TO.C,J15*%
X56325763Y-66194000D03*
X56325763Y-113294000D03*
D22*
X56625763Y-106364000D03*
D23*
X56625763Y-103594000D03*
X56625763Y-100824000D03*
X56625763Y-98054000D03*
X56625763Y-95284000D03*
X56625763Y-92514000D03*
X56625763Y-89744000D03*
X56625763Y-86974000D03*
X56625763Y-84204000D03*
X56625763Y-81434000D03*
X56625763Y-78664000D03*
X56625763Y-75894000D03*
X56625763Y-73124000D03*
X53785763Y-104979000D03*
X53785763Y-102209000D03*
X53785763Y-99439000D03*
X53785763Y-96669000D03*
X53785763Y-93899000D03*
X53785763Y-91129000D03*
X53785763Y-88359000D03*
X53785763Y-85589000D03*
X53785763Y-82819000D03*
X53785763Y-80049000D03*
X53785763Y-77279000D03*
X53785763Y-74509000D03*
%TD*%
D10*
%TO.C,TPSwitched_Fan_Power1*%
X58000000Y-120500000D03*
%TD*%
D11*
%TO.C,JP21*%
X101375000Y-198744000D03*
D12*
X98835000Y-198744000D03*
X96295000Y-198744000D03*
X93755000Y-198744000D03*
X91215000Y-198744000D03*
X88675000Y-198744000D03*
X86135000Y-198744000D03*
X83595000Y-198744000D03*
X81055000Y-198744000D03*
D17*
X100740000Y-213933200D03*
X81690000Y-213933200D03*
%TD*%
D10*
%TO.C,VIN1*%
X97500000Y-65000000D03*
%TD*%
%TO.C,TP3*%
X103000000Y-65000000D03*
%TD*%
D15*
%TO.C,J12*%
X70230000Y-55000000D03*
D16*
X72770000Y-55000000D03*
%TD*%
D10*
%TO.C,TP1*%
X55000000Y-196750000D03*
%TD*%
D13*
%TO.C,ISO3*%
X182375000Y-40000000D03*
X183143845Y-38143845D03*
X183143845Y-41856155D03*
X185000000Y-37375000D03*
D14*
X185000000Y-40000000D03*
D13*
X185000000Y-42625000D03*
X186856155Y-38143845D03*
X186856155Y-41856155D03*
X187625000Y-40000000D03*
%TD*%
M02*
