%TF.GenerationSoftware,KiCad,Pcbnew,7.0.1*%
%TF.CreationDate,2023-08-28T22:07:01-05:00*%
%TF.ProjectId,Control v1,436f6e74-726f-46c2-9076-312e6b696361,0.1*%
%TF.SameCoordinates,Original*%
%TF.FileFunction,Soldermask,Top*%
%TF.FilePolarity,Negative*%
%FSLAX46Y46*%
G04 Gerber Fmt 4.6, Leading zero omitted, Abs format (unit mm)*
G04 Created by KiCad (PCBNEW 7.0.1) date 2023-08-28 22:07:01*
%MOMM*%
%LPD*%
G01*
G04 APERTURE LIST*
G04 Aperture macros list*
%AMRoundRect*
0 Rectangle with rounded corners*
0 $1 Rounding radius*
0 $2 $3 $4 $5 $6 $7 $8 $9 X,Y pos of 4 corners*
0 Add a 4 corners polygon primitive as box body*
4,1,4,$2,$3,$4,$5,$6,$7,$8,$9,$2,$3,0*
0 Add four circle primitives for the rounded corners*
1,1,$1+$1,$2,$3*
1,1,$1+$1,$4,$5*
1,1,$1+$1,$6,$7*
1,1,$1+$1,$8,$9*
0 Add four rect primitives between the rounded corners*
20,1,$1+$1,$2,$3,$4,$5,0*
20,1,$1+$1,$4,$5,$6,$7,0*
20,1,$1+$1,$6,$7,$8,$9,0*
20,1,$1+$1,$8,$9,$2,$3,0*%
%AMFreePoly0*
4,1,19,0.550000,-0.750000,0.000000,-0.750000,0.000000,-0.744911,-0.071157,-0.744911,-0.207708,-0.704816,-0.327430,-0.627875,-0.420627,-0.520320,-0.479746,-0.390866,-0.500000,-0.250000,-0.500000,0.250000,-0.479746,0.390866,-0.420627,0.520320,-0.327430,0.627875,-0.207708,0.704816,-0.071157,0.744911,0.000000,0.744911,0.000000,0.750000,0.550000,0.750000,0.550000,-0.750000,0.550000,-0.750000,
$1*%
%AMFreePoly1*
4,1,19,0.000000,0.744911,0.071157,0.744911,0.207708,0.704816,0.327430,0.627875,0.420627,0.520320,0.479746,0.390866,0.500000,0.250000,0.500000,-0.250000,0.479746,-0.390866,0.420627,-0.520320,0.327430,-0.627875,0.207708,-0.704816,0.071157,-0.744911,0.000000,-0.744911,0.000000,-0.750000,-0.550000,-0.750000,-0.550000,0.750000,0.000000,0.750000,0.000000,0.744911,0.000000,0.744911,
$1*%
G04 Aperture macros list end*
%ADD10RoundRect,0.237500X-0.237500X0.250000X-0.237500X-0.250000X0.237500X-0.250000X0.237500X0.250000X0*%
%ADD11RoundRect,0.237500X0.237500X-0.250000X0.237500X0.250000X-0.237500X0.250000X-0.237500X-0.250000X0*%
%ADD12RoundRect,0.237500X0.300000X0.237500X-0.300000X0.237500X-0.300000X-0.237500X0.300000X-0.237500X0*%
%ADD13C,3.000000*%
%ADD14RoundRect,0.237500X-0.250000X-0.237500X0.250000X-0.237500X0.250000X0.237500X-0.250000X0.237500X0*%
%ADD15RoundRect,0.237500X0.250000X0.237500X-0.250000X0.237500X-0.250000X-0.237500X0.250000X-0.237500X0*%
%ADD16RoundRect,0.150000X0.587500X0.150000X-0.587500X0.150000X-0.587500X-0.150000X0.587500X-0.150000X0*%
%ADD17RoundRect,0.237500X-0.300000X-0.237500X0.300000X-0.237500X0.300000X0.237500X-0.300000X0.237500X0*%
%ADD18R,1.700000X1.700000*%
%ADD19O,1.700000X1.700000*%
%ADD20FreePoly0,90.000000*%
%ADD21R,1.500000X1.000000*%
%ADD22FreePoly1,90.000000*%
%ADD23C,0.800000*%
%ADD24C,7.000000*%
%ADD25RoundRect,0.237500X0.237500X-0.300000X0.237500X0.300000X-0.237500X0.300000X-0.237500X-0.300000X0*%
%ADD26RoundRect,0.237500X-0.237500X0.300000X-0.237500X-0.300000X0.237500X-0.300000X0.237500X0.300000X0*%
%ADD27RoundRect,0.250000X-0.400000X-0.600000X0.400000X-0.600000X0.400000X0.600000X-0.400000X0.600000X0*%
%ADD28RoundRect,0.150000X-0.587500X-0.150000X0.587500X-0.150000X0.587500X0.150000X-0.587500X0.150000X0*%
%ADD29R,2.100000X2.100000*%
%ADD30C,2.100000*%
%ADD31RoundRect,0.250000X-0.350000X0.850000X-0.350000X-0.850000X0.350000X-0.850000X0.350000X0.850000X0*%
%ADD32RoundRect,0.249997X-2.650003X2.950003X-2.650003X-2.950003X2.650003X-2.950003X2.650003X2.950003X0*%
%ADD33C,3.048000*%
%ADD34C,3.200000*%
%ADD35O,1.727200X1.727200*%
%ADD36R,1.727200X1.727200*%
%ADD37FreePoly0,270.000000*%
%ADD38FreePoly1,270.000000*%
%ADD39C,4.000000*%
%ADD40R,1.600000X1.600000*%
%ADD41C,1.600000*%
%ADD42RoundRect,0.150000X-0.150000X0.587500X-0.150000X-0.587500X0.150000X-0.587500X0.150000X0.587500X0*%
%ADD43C,3.250000*%
%ADD44R,1.520000X1.520000*%
%ADD45C,1.520000*%
%ADD46R,1.350000X1.350000*%
%ADD47O,1.350000X1.350000*%
%ADD48R,2.200000X2.200000*%
%ADD49C,2.200000*%
G04 APERTURE END LIST*
D10*
%TO.C,R29*%
X89470000Y-188298020D03*
X89470000Y-190123020D03*
%TD*%
D11*
%TO.C,R78*%
X89000000Y-155000000D03*
X89000000Y-153175000D03*
%TD*%
D12*
%TO.C,C3*%
X65000000Y-86750000D03*
X63275000Y-86750000D03*
%TD*%
D13*
%TO.C,TP18*%
X63500000Y-188000000D03*
%TD*%
%TO.C,SPI_SCK1*%
X79000000Y-142500000D03*
%TD*%
D14*
%TO.C,R71*%
X68787500Y-194812500D03*
X70612500Y-194812500D03*
%TD*%
D11*
%TO.C,R65*%
X73937500Y-138462500D03*
X73937500Y-136637500D03*
%TD*%
D15*
%TO.C,R35*%
X75412500Y-122500000D03*
X73587500Y-122500000D03*
%TD*%
%TO.C,R48*%
X72412500Y-60500000D03*
X70587500Y-60500000D03*
%TD*%
D16*
%TO.C,Q7*%
X71467500Y-143500000D03*
X71467500Y-141600000D03*
X69592500Y-142550000D03*
%TD*%
D10*
%TO.C,R22*%
X144000000Y-187287500D03*
X144000000Y-189112500D03*
%TD*%
D17*
%TO.C,C4*%
X63137500Y-82000000D03*
X64862500Y-82000000D03*
%TD*%
D18*
%TO.C,J5*%
X105000000Y-101000000D03*
D19*
X105000000Y-103540000D03*
X105000000Y-106080000D03*
X105000000Y-108620000D03*
X105000000Y-111160000D03*
X105000000Y-113700000D03*
X105000000Y-116240000D03*
X105000000Y-118780000D03*
%TD*%
D11*
%TO.C,R83*%
X101500000Y-189862500D03*
X101500000Y-188037500D03*
%TD*%
%TO.C,R64*%
X74900000Y-142910000D03*
X74900000Y-141085000D03*
%TD*%
%TO.C,R82*%
X161000000Y-188862500D03*
X161000000Y-187037500D03*
%TD*%
D10*
%TO.C,R24*%
X120140000Y-187262500D03*
X120140000Y-189087500D03*
%TD*%
%TO.C,R87*%
X82500000Y-188037500D03*
X82500000Y-189862500D03*
%TD*%
D15*
%TO.C,R50*%
X80912500Y-146500000D03*
X79087500Y-146500000D03*
%TD*%
D14*
%TO.C,R44*%
X72612500Y-65500000D03*
X74437500Y-65500000D03*
%TD*%
D13*
%TO.C,D_PSU_RX1*%
X166000000Y-141300000D03*
%TD*%
D10*
%TO.C,R26*%
X98500000Y-188210520D03*
X98500000Y-190035520D03*
%TD*%
D20*
%TO.C,JP3*%
X150500000Y-184850000D03*
D21*
X150500000Y-183550000D03*
D22*
X150500000Y-182250000D03*
%TD*%
D23*
%TO.C,ISO4*%
X182375000Y-220000000D03*
X183143845Y-218143845D03*
X183143845Y-221856155D03*
X185000000Y-217375000D03*
D24*
X185000000Y-220000000D03*
D23*
X185000000Y-222625000D03*
X186856155Y-218143845D03*
X186856155Y-221856155D03*
X187625000Y-220000000D03*
%TD*%
D15*
%TO.C,R57*%
X75412500Y-144500000D03*
X73587500Y-144500000D03*
%TD*%
D10*
%TO.C,R73*%
X60510000Y-152175000D03*
X60510000Y-154000000D03*
%TD*%
D13*
%TO.C,TP12*%
X58000000Y-149000000D03*
%TD*%
D10*
%TO.C,R1*%
X106000000Y-182237500D03*
X106000000Y-184062500D03*
%TD*%
D14*
%TO.C,R72*%
X69587500Y-178456250D03*
X71412500Y-178456250D03*
%TD*%
D10*
%TO.C,R7*%
X134000000Y-182037500D03*
X134000000Y-183862500D03*
%TD*%
%TO.C,R86*%
X108500000Y-187537500D03*
X108500000Y-189362500D03*
%TD*%
%TO.C,R16*%
X168000000Y-147087500D03*
X168000000Y-148912500D03*
%TD*%
D15*
%TO.C,R42*%
X82912500Y-125000000D03*
X81087500Y-125000000D03*
%TD*%
D16*
%TO.C,Q8*%
X70937500Y-138450000D03*
X70937500Y-136550000D03*
X69062500Y-137500000D03*
%TD*%
D14*
%TO.C,R43*%
X85337500Y-125000000D03*
X87162500Y-125000000D03*
%TD*%
%TO.C,R52*%
X70087500Y-146000000D03*
X71912500Y-146000000D03*
%TD*%
D10*
%TO.C,R3*%
X129500000Y-183087500D03*
X129500000Y-184912500D03*
%TD*%
D14*
%TO.C,R10*%
X82000000Y-75250000D03*
X83825000Y-75250000D03*
%TD*%
D18*
%TO.C,J24*%
X53380000Y-157000000D03*
D19*
X55920000Y-157000000D03*
X58460000Y-157000000D03*
X61000000Y-157000000D03*
%TD*%
D13*
%TO.C,TP6*%
X141000000Y-188950000D03*
%TD*%
D25*
%TO.C,C19*%
X67868750Y-175362500D03*
X67868750Y-173637500D03*
%TD*%
D18*
%TO.C,J6*%
X165940000Y-113780000D03*
D19*
X165940000Y-111240000D03*
X165940000Y-108700000D03*
X165940000Y-106160000D03*
X165940000Y-103620000D03*
X165940000Y-101080000D03*
X165940000Y-98540000D03*
X165940000Y-96000000D03*
%TD*%
D18*
%TO.C,J4*%
X105000000Y-124000000D03*
D19*
X105000000Y-126540000D03*
X105000000Y-129080000D03*
X105000000Y-131620000D03*
X105000000Y-134160000D03*
X105000000Y-136700000D03*
X105000000Y-139240000D03*
X105000000Y-141780000D03*
%TD*%
D15*
%TO.C,R66*%
X80412500Y-162500000D03*
X78587500Y-162500000D03*
%TD*%
D23*
%TO.C,ISO5*%
X182375000Y-130000000D03*
X183143845Y-128143845D03*
X183143845Y-131856155D03*
X185000000Y-127375000D03*
D24*
X185000000Y-130000000D03*
D23*
X185000000Y-132625000D03*
X186856155Y-128143845D03*
X186856155Y-131856155D03*
X187625000Y-130000000D03*
%TD*%
D18*
%TO.C,J17*%
X75000000Y-107000000D03*
D19*
X75000000Y-104460000D03*
X75000000Y-101920000D03*
X75000000Y-99380000D03*
X75000000Y-96840000D03*
%TD*%
D26*
%TO.C,C12*%
X66000000Y-142137500D03*
X66000000Y-143862500D03*
%TD*%
D23*
%TO.C,H5*%
X169375000Y-130000000D03*
X170143845Y-128143845D03*
X170143845Y-131856155D03*
X172000000Y-127375000D03*
D24*
X172000000Y-130000000D03*
D23*
X172000000Y-132625000D03*
X173856155Y-128143845D03*
X173856155Y-131856155D03*
X174625000Y-130000000D03*
%TD*%
D12*
%TO.C,C10*%
X65000000Y-100600000D03*
X63275000Y-100600000D03*
%TD*%
D27*
%TO.C,D2*%
X72440000Y-92500000D03*
X75940000Y-92500000D03*
%TD*%
D15*
%TO.C,R63*%
X84912500Y-152500000D03*
X83087500Y-152500000D03*
%TD*%
D10*
%TO.C,R74*%
X58000000Y-152175000D03*
X58000000Y-154000000D03*
%TD*%
D13*
%TO.C,TP11*%
X53000000Y-120500000D03*
%TD*%
D28*
%TO.C,Q6*%
X75000000Y-150000000D03*
X75000000Y-151900000D03*
X76875000Y-150950000D03*
%TD*%
D10*
%TO.C,R28*%
X92500000Y-188210520D03*
X92500000Y-190035520D03*
%TD*%
D18*
%TO.C,J8*%
X159000000Y-158000000D03*
D19*
X159000000Y-155460000D03*
X156460000Y-158000000D03*
X156460000Y-155460000D03*
X153920000Y-158000000D03*
X153920000Y-155460000D03*
X151380000Y-158000000D03*
X151380000Y-155460000D03*
X148840000Y-158000000D03*
X148840000Y-155460000D03*
X146300000Y-158000000D03*
X146300000Y-155460000D03*
X143760000Y-158000000D03*
X143760000Y-155460000D03*
X141220000Y-158000000D03*
X141220000Y-155460000D03*
X138680000Y-158000000D03*
X138680000Y-155460000D03*
X136140000Y-158000000D03*
X136140000Y-155460000D03*
X133600000Y-158000000D03*
X133600000Y-155460000D03*
X131060000Y-158000000D03*
X131060000Y-155460000D03*
X128520000Y-158000000D03*
X128520000Y-155460000D03*
X125980000Y-158000000D03*
X125980000Y-155460000D03*
X123440000Y-158000000D03*
X123440000Y-155460000D03*
X120900000Y-158000000D03*
X120900000Y-155460000D03*
X118360000Y-158000000D03*
X118360000Y-155460000D03*
X115820000Y-158000000D03*
X115820000Y-155460000D03*
%TD*%
D14*
%TO.C,R70*%
X69500000Y-175456250D03*
X71325000Y-175456250D03*
%TD*%
D29*
%TO.C,J13*%
X80000000Y-55000000D03*
D30*
X82540000Y-55000000D03*
%TD*%
D31*
%TO.C,Q2*%
X73780000Y-68525000D03*
D32*
X71500000Y-74825000D03*
D31*
X69220000Y-68525000D03*
%TD*%
D13*
%TO.C,D_PSU_TX1*%
X171250000Y-141250000D03*
%TD*%
D18*
%TO.C,J14*%
X185250000Y-184380000D03*
D19*
X185250000Y-181840000D03*
X185250000Y-179300000D03*
X185250000Y-176760000D03*
X185250000Y-174220000D03*
X185250000Y-171680000D03*
X185250000Y-169140000D03*
X185250000Y-166600000D03*
X185250000Y-164060000D03*
X185250000Y-161520000D03*
%TD*%
D23*
%TO.C,H2*%
X52375000Y-205000000D03*
X53143845Y-203143845D03*
X53143845Y-206856155D03*
X55000000Y-202375000D03*
D24*
X55000000Y-205000000D03*
D23*
X55000000Y-207625000D03*
X56856155Y-203143845D03*
X56856155Y-206856155D03*
X57625000Y-205000000D03*
%TD*%
D14*
%TO.C,R88*%
X66587500Y-61500000D03*
X68412500Y-61500000D03*
%TD*%
D16*
%TO.C,Q4*%
X77187500Y-62200000D03*
X77187500Y-60300000D03*
X75312500Y-61250000D03*
%TD*%
D20*
%TO.C,JP5*%
X115100000Y-184750000D03*
D21*
X115100000Y-183450000D03*
D22*
X115100000Y-182150000D03*
%TD*%
D14*
%TO.C,R12*%
X78087500Y-120000000D03*
X79912500Y-120000000D03*
%TD*%
%TO.C,R33*%
X68587500Y-108500000D03*
X70412500Y-108500000D03*
%TD*%
D12*
%TO.C,C5*%
X65000000Y-89800000D03*
X63275000Y-89800000D03*
%TD*%
D18*
%TO.C,JP10*%
X127725000Y-193950000D03*
D19*
X125185000Y-193950000D03*
X122645000Y-193950000D03*
X120105000Y-193950000D03*
X117565000Y-193950000D03*
X115025000Y-193950000D03*
X112485000Y-193950000D03*
X109945000Y-193950000D03*
D33*
X126455000Y-210460000D03*
X111215000Y-210460000D03*
%TD*%
D25*
%TO.C,C13*%
X66000000Y-139862500D03*
X66000000Y-138137500D03*
%TD*%
D26*
%TO.C,C22*%
X180500000Y-44050000D03*
X180500000Y-45775000D03*
%TD*%
D20*
%TO.C,JP7*%
X122770000Y-184750000D03*
D21*
X122770000Y-183450000D03*
D22*
X122770000Y-182150000D03*
%TD*%
D11*
%TO.C,R79*%
X175000000Y-190662500D03*
X175000000Y-188837500D03*
%TD*%
D13*
%TO.C,SCL1*%
X147500000Y-164000000D03*
%TD*%
D23*
%TO.C,H3*%
X169375000Y-55000000D03*
X170143845Y-53143845D03*
X170143845Y-56856155D03*
X172000000Y-52375000D03*
D24*
X172000000Y-55000000D03*
D23*
X172000000Y-57625000D03*
X173856155Y-53143845D03*
X173856155Y-56856155D03*
X174625000Y-55000000D03*
%TD*%
D20*
%TO.C,JP2*%
X146500000Y-184850000D03*
D21*
X146500000Y-183550000D03*
D22*
X146500000Y-182250000D03*
%TD*%
D15*
%TO.C,R59*%
X85412500Y-148000000D03*
X83587500Y-148000000D03*
%TD*%
D18*
%TO.C,J19*%
X79500000Y-97660000D03*
D19*
X79500000Y-95120000D03*
X79500000Y-92580000D03*
X79500000Y-90040000D03*
X79500000Y-87500000D03*
X79500000Y-84960000D03*
X79500000Y-82420000D03*
%TD*%
D11*
%TO.C,R13*%
X165500000Y-148912500D03*
X165500000Y-147087500D03*
%TD*%
D16*
%TO.C,Q1*%
X79375000Y-116950000D03*
X79375000Y-115050000D03*
X77500000Y-116000000D03*
%TD*%
D34*
%TO.C,A1*%
X110920000Y-64450000D03*
X159180000Y-65720000D03*
D35*
X110920000Y-78420000D03*
D34*
X143940000Y-116520000D03*
X116000000Y-116520000D03*
X159180000Y-140650000D03*
X110920000Y-147000000D03*
D35*
X110920000Y-86040000D03*
X110920000Y-88580000D03*
X138860000Y-116647000D03*
X159180000Y-144460000D03*
X159180000Y-147000000D03*
X110920000Y-101280000D03*
X110920000Y-103820000D03*
X110920000Y-106360000D03*
X110920000Y-108900000D03*
X110920000Y-111440000D03*
X110920000Y-113980000D03*
X110920000Y-116520000D03*
X110920000Y-119060000D03*
X110920000Y-124140000D03*
X110920000Y-126680000D03*
X110920000Y-129220000D03*
X110920000Y-131760000D03*
X159180000Y-74356000D03*
X110920000Y-139380000D03*
X110920000Y-141920000D03*
X159180000Y-113980000D03*
X159180000Y-111440000D03*
X159180000Y-108900000D03*
X159180000Y-106360000D03*
X159180000Y-103820000D03*
X159180000Y-101280000D03*
X159180000Y-98740000D03*
X159180000Y-96200000D03*
X159180000Y-92136000D03*
X159180000Y-89596000D03*
X159180000Y-87056000D03*
X159180000Y-84516000D03*
X159180000Y-81976000D03*
X159180000Y-79436000D03*
X159180000Y-119060000D03*
X159180000Y-121600000D03*
X159180000Y-124140000D03*
X159180000Y-126680000D03*
X159180000Y-129220000D03*
X159180000Y-131760000D03*
X159180000Y-134300000D03*
X159180000Y-136840000D03*
X156640000Y-144460000D03*
X156640000Y-147000000D03*
X154100000Y-144460000D03*
X154100000Y-147000000D03*
X151560000Y-144460000D03*
X151560000Y-147000000D03*
X149020000Y-144460000D03*
X149020000Y-147000000D03*
X146480000Y-144460000D03*
X146480000Y-147000000D03*
X143940000Y-144460000D03*
X143940000Y-147000000D03*
X141400000Y-144460000D03*
X141400000Y-147000000D03*
X138860000Y-144460000D03*
X138860000Y-147000000D03*
X136320000Y-144460000D03*
X136320000Y-147000000D03*
X133780000Y-144460000D03*
X133780000Y-147000000D03*
X131240000Y-144460000D03*
X131240000Y-147000000D03*
X128700000Y-144460000D03*
X128700000Y-147000000D03*
X126160000Y-144460000D03*
X126160000Y-147000000D03*
X123620000Y-144460000D03*
X123620000Y-147000000D03*
X121080000Y-144460000D03*
X121080000Y-147000000D03*
X118540000Y-144460000D03*
X118540000Y-147000000D03*
X110920000Y-134300000D03*
X110920000Y-136840000D03*
D36*
X159180000Y-76896000D03*
X110920000Y-91120000D03*
X110920000Y-93660000D03*
X133780000Y-116647000D03*
X116000000Y-144460000D03*
X116000000Y-147000000D03*
D35*
X110920000Y-80960000D03*
X138860000Y-114107000D03*
X136320000Y-116647000D03*
X110920000Y-83500000D03*
X133780000Y-114107000D03*
X136320000Y-114107000D03*
X159180000Y-69276000D03*
X159180000Y-71816000D03*
X110920000Y-96200000D03*
%TD*%
D13*
%TO.C,TP14*%
X53000000Y-127000000D03*
%TD*%
D18*
%TO.C,J22*%
X66000000Y-149000000D03*
D19*
X66000000Y-151540000D03*
%TD*%
D37*
%TO.C,JP1*%
X142500000Y-182250000D03*
D21*
X142500000Y-183550000D03*
D38*
X142500000Y-184850000D03*
%TD*%
D13*
%TO.C,COPI1*%
X78500000Y-137000000D03*
%TD*%
D18*
%TO.C,J18*%
X64000000Y-65000000D03*
D19*
X64000000Y-67540000D03*
X64000000Y-70080000D03*
X64000000Y-72620000D03*
%TD*%
D10*
%TO.C,R5*%
X83500000Y-175587500D03*
X83500000Y-177412500D03*
%TD*%
D18*
%TO.C,JP15*%
X100280000Y-193950000D03*
D19*
X97740000Y-193950000D03*
X95200000Y-193950000D03*
X92660000Y-193950000D03*
X90120000Y-193950000D03*
X87580000Y-193950000D03*
X85040000Y-193950000D03*
X82500000Y-193950000D03*
D33*
X99010000Y-210460000D03*
X83770000Y-210460000D03*
%TD*%
D13*
%TO.C,TP16*%
X63000000Y-127000000D03*
%TD*%
D11*
%TO.C,R77*%
X92500000Y-155000000D03*
X92500000Y-153175000D03*
%TD*%
D13*
%TO.C,TP7*%
X114500000Y-188950000D03*
%TD*%
D14*
%TO.C,R90*%
X65087500Y-77500000D03*
X66912500Y-77500000D03*
%TD*%
D15*
%TO.C,R60*%
X81412500Y-152500000D03*
X79587500Y-152500000D03*
%TD*%
D10*
%TO.C,R32*%
X177000000Y-44000000D03*
X177000000Y-45825000D03*
%TD*%
D13*
%TO.C,TP13*%
X53000000Y-149000000D03*
%TD*%
D14*
%TO.C,R69*%
X68787500Y-191812500D03*
X70612500Y-191812500D03*
%TD*%
D10*
%TO.C,R6*%
X86500000Y-175587500D03*
X86500000Y-177412500D03*
%TD*%
%TO.C,R17*%
X154000000Y-178587500D03*
X154000000Y-180412500D03*
%TD*%
D15*
%TO.C,R58*%
X70912500Y-134500000D03*
X69087500Y-134500000D03*
%TD*%
D13*
%TO.C,TP9*%
X163000000Y-211450000D03*
%TD*%
%TO.C,TP4*%
X60500000Y-60000000D03*
%TD*%
D27*
%TO.C,D1*%
X73250000Y-113000000D03*
X76750000Y-113000000D03*
%TD*%
D37*
%TO.C,JP6*%
X118935000Y-182150000D03*
D21*
X118935000Y-183450000D03*
D38*
X118935000Y-184750000D03*
%TD*%
D10*
%TO.C,R25*%
X117630000Y-187262500D03*
X117630000Y-189087500D03*
%TD*%
D13*
%TO.C,SDA1*%
X158000000Y-164500000D03*
%TD*%
D10*
%TO.C,R21*%
X125160000Y-187262500D03*
X125160000Y-189087500D03*
%TD*%
D23*
%TO.C,ISO2*%
X52375000Y-220000000D03*
X53143845Y-218143845D03*
X53143845Y-221856155D03*
X55000000Y-217375000D03*
D24*
X55000000Y-220000000D03*
D23*
X55000000Y-222625000D03*
X56856155Y-218143845D03*
X56856155Y-221856155D03*
X57625000Y-220000000D03*
%TD*%
D12*
%TO.C,C18*%
X76725000Y-162500000D03*
X75000000Y-162500000D03*
%TD*%
%TO.C,C2*%
X64612500Y-168750000D03*
X62887500Y-168750000D03*
%TD*%
D25*
%TO.C,C14*%
X66000000Y-135862500D03*
X66000000Y-134137500D03*
%TD*%
D15*
%TO.C,R41*%
X82912500Y-121750000D03*
X81087500Y-121750000D03*
%TD*%
D20*
%TO.C,JP8*%
X126605000Y-184750000D03*
D21*
X126605000Y-183450000D03*
D22*
X126605000Y-182150000D03*
%TD*%
D25*
%TO.C,C20*%
X63000000Y-178862500D03*
X63000000Y-177137500D03*
%TD*%
D20*
%TO.C,JP4*%
X154250000Y-184850000D03*
D21*
X154250000Y-183550000D03*
D22*
X154250000Y-182250000D03*
%TD*%
D10*
%TO.C,R2*%
X159500000Y-191037500D03*
X159500000Y-192862500D03*
%TD*%
%TO.C,R15*%
X173500000Y-147087500D03*
X173500000Y-148912500D03*
%TD*%
D39*
%TO.C,J1*%
X56325763Y-163294000D03*
X56325763Y-188294000D03*
D40*
X56625763Y-181334000D03*
D41*
X56625763Y-178564000D03*
X56625763Y-175794000D03*
X56625763Y-173024000D03*
X56625763Y-170254000D03*
X53785763Y-179949000D03*
X53785763Y-177179000D03*
X53785763Y-174409000D03*
X53785763Y-171639000D03*
%TD*%
D42*
%TO.C,Q10*%
X71412500Y-170456250D03*
X69512500Y-170456250D03*
X70462500Y-172331250D03*
%TD*%
D10*
%TO.C,R19*%
X150000000Y-187337500D03*
X150000000Y-189162500D03*
%TD*%
D13*
%TO.C,TP5*%
X163000000Y-217350000D03*
%TD*%
D11*
%TO.C,R38*%
X81562500Y-116862500D03*
X81562500Y-115037500D03*
%TD*%
D10*
%TO.C,R20*%
X147000000Y-187287500D03*
X147000000Y-189112500D03*
%TD*%
D14*
%TO.C,R8*%
X63087500Y-167000000D03*
X64912500Y-167000000D03*
%TD*%
D10*
%TO.C,R31*%
X160000000Y-195537500D03*
X160000000Y-197362500D03*
%TD*%
D43*
%TO.C,J21*%
X52110000Y-133090000D03*
X52110000Y-143250000D03*
D44*
X61000000Y-135000000D03*
D45*
X58460000Y-136270000D03*
X61000000Y-137540000D03*
X58460000Y-138810000D03*
X61000000Y-140080000D03*
X58460000Y-141350000D03*
%TD*%
D15*
%TO.C,R55*%
X80912500Y-132000000D03*
X79087500Y-132000000D03*
%TD*%
D20*
%TO.C,JP11*%
X87635000Y-184635520D03*
D21*
X87635000Y-183335520D03*
D22*
X87635000Y-182035520D03*
%TD*%
D18*
%TO.C,JP20*%
X128820000Y-198744000D03*
D19*
X126280000Y-198744000D03*
X123740000Y-198744000D03*
X121200000Y-198744000D03*
X118660000Y-198744000D03*
X116120000Y-198744000D03*
X113580000Y-198744000D03*
X111040000Y-198744000D03*
X108500000Y-198744000D03*
D33*
X128185000Y-213933200D03*
X109135000Y-213933200D03*
%TD*%
D23*
%TO.C,H1*%
X52375000Y-55000000D03*
X53143845Y-53143845D03*
X53143845Y-56856155D03*
X55000000Y-52375000D03*
D24*
X55000000Y-55000000D03*
D23*
X55000000Y-57625000D03*
X56856155Y-53143845D03*
X56856155Y-56856155D03*
X57625000Y-55000000D03*
%TD*%
D15*
%TO.C,R56*%
X81480000Y-150040000D03*
X79655000Y-150040000D03*
%TD*%
D20*
%TO.C,JP12*%
X91470000Y-184635520D03*
D21*
X91470000Y-183335520D03*
D22*
X91470000Y-182035520D03*
%TD*%
D14*
%TO.C,R81*%
X83587500Y-60500000D03*
X85412500Y-60500000D03*
%TD*%
D10*
%TO.C,R61*%
X72000000Y-129087500D03*
X72000000Y-130912500D03*
%TD*%
%TO.C,R30*%
X131500000Y-183087500D03*
X131500000Y-184912500D03*
%TD*%
D18*
%TO.C,J3*%
X105000000Y-95500000D03*
D19*
X105000000Y-92960000D03*
X105000000Y-90420000D03*
X105000000Y-87880000D03*
X105000000Y-85340000D03*
X105000000Y-82800000D03*
X105000000Y-80260000D03*
X105000000Y-77720000D03*
%TD*%
D14*
%TO.C,R53*%
X73087500Y-134500000D03*
X74912500Y-134500000D03*
%TD*%
D15*
%TO.C,R34*%
X75187500Y-119550000D03*
X73362500Y-119550000D03*
%TD*%
D13*
%TO.C,TP17*%
X63000000Y-163000000D03*
%TD*%
D15*
%TO.C,R9*%
X81412500Y-63500000D03*
X79587500Y-63500000D03*
%TD*%
%TO.C,R89*%
X85412500Y-64500000D03*
X83587500Y-64500000D03*
%TD*%
D29*
%TO.C,J25*%
X183500000Y-190000000D03*
D30*
X183500000Y-192540000D03*
%TD*%
D15*
%TO.C,R54*%
X80912500Y-129000000D03*
X79087500Y-129000000D03*
%TD*%
D12*
%TO.C,C7*%
X64800000Y-95200000D03*
X63075000Y-95200000D03*
%TD*%
D13*
%TO.C,CIPO1*%
X78000000Y-157000000D03*
%TD*%
D46*
%TO.C,J10*%
X181400000Y-184170000D03*
D47*
X179400000Y-184170000D03*
X181400000Y-182170000D03*
X179400000Y-182170000D03*
X181400000Y-180170000D03*
X179400000Y-180170000D03*
X181400000Y-178170000D03*
X179400000Y-178170000D03*
X181400000Y-176170000D03*
X179400000Y-176170000D03*
X181400000Y-174170000D03*
X179400000Y-174170000D03*
X181400000Y-172170000D03*
X179400000Y-172170000D03*
X181400000Y-170170000D03*
X179400000Y-170170000D03*
X181400000Y-168170000D03*
X179400000Y-168170000D03*
X181400000Y-166170000D03*
X179400000Y-166170000D03*
X181400000Y-164170000D03*
X179400000Y-164170000D03*
X181400000Y-162170000D03*
X179400000Y-162170000D03*
%TD*%
D18*
%TO.C,J2*%
X165940000Y-118880000D03*
D19*
X165940000Y-121420000D03*
X165940000Y-123960000D03*
X165940000Y-126500000D03*
X165940000Y-129040000D03*
X165940000Y-131580000D03*
X165940000Y-134120000D03*
X165940000Y-136660000D03*
%TD*%
D10*
%TO.C,R49*%
X62000000Y-148087500D03*
X62000000Y-149912500D03*
%TD*%
D18*
%TO.C,JP9*%
X155000000Y-193950000D03*
D19*
X152460000Y-193950000D03*
X149920000Y-193950000D03*
X147380000Y-193950000D03*
X144840000Y-193950000D03*
X142300000Y-193950000D03*
X139760000Y-193950000D03*
X137220000Y-193950000D03*
D33*
X153730000Y-210460000D03*
X138490000Y-210460000D03*
%TD*%
D18*
%TO.C,J16*%
X69190000Y-94620000D03*
D19*
X69190000Y-92080000D03*
X69190000Y-89540000D03*
X69190000Y-87000000D03*
%TD*%
D18*
%TO.C,JP16*%
X152460000Y-202712000D03*
D19*
X149920000Y-202712000D03*
X147380000Y-202712000D03*
X144840000Y-202712000D03*
X142300000Y-202712000D03*
X139760000Y-202712000D03*
D33*
X153730000Y-221000000D03*
X138490000Y-221000000D03*
%TD*%
D26*
%TO.C,C1*%
X63100000Y-181137500D03*
X63100000Y-182862500D03*
%TD*%
D13*
%TO.C,TP15*%
X58000000Y-127000000D03*
%TD*%
D10*
%TO.C,R62*%
X71567500Y-150040000D03*
X71567500Y-151865000D03*
%TD*%
D29*
%TO.C,J11*%
X101730000Y-55000000D03*
D30*
X104270000Y-55000000D03*
%TD*%
D12*
%TO.C,C8*%
X64800000Y-107000000D03*
X63075000Y-107000000D03*
%TD*%
D15*
%TO.C,R67*%
X71325000Y-183912500D03*
X69500000Y-183912500D03*
%TD*%
D23*
%TO.C,ISO1*%
X52250000Y-40000000D03*
X53018845Y-38143845D03*
X53018845Y-41856155D03*
X54875000Y-37375000D03*
D24*
X54875000Y-40000000D03*
D23*
X54875000Y-42625000D03*
X56731155Y-38143845D03*
X56731155Y-41856155D03*
X57500000Y-40000000D03*
%TD*%
D26*
%TO.C,C15*%
X66000000Y-129237500D03*
X66000000Y-130962500D03*
%TD*%
D18*
%TO.C,J23*%
X66460000Y-156000000D03*
D19*
X69000000Y-156000000D03*
%TD*%
D14*
%TO.C,R37*%
X77337500Y-124250000D03*
X79162500Y-124250000D03*
%TD*%
D11*
%TO.C,R14*%
X171500000Y-148912500D03*
X171500000Y-147087500D03*
%TD*%
D20*
%TO.C,JP14*%
X99140000Y-184635520D03*
D21*
X99140000Y-183335520D03*
D22*
X99140000Y-182035520D03*
%TD*%
D18*
%TO.C,J20*%
X70000000Y-125000000D03*
D19*
X70000000Y-122460000D03*
X70000000Y-119920000D03*
X70000000Y-117380000D03*
%TD*%
D10*
%TO.C,R27*%
X95500000Y-188210520D03*
X95500000Y-190035520D03*
%TD*%
D18*
%TO.C,JP17*%
X125185000Y-202712000D03*
D19*
X122645000Y-202712000D03*
X120105000Y-202712000D03*
X117565000Y-202712000D03*
X115025000Y-202712000D03*
X112485000Y-202712000D03*
D33*
X126455000Y-221000000D03*
X111215000Y-221000000D03*
%TD*%
D18*
%TO.C,JP18*%
X97740000Y-202712000D03*
D19*
X95200000Y-202712000D03*
X92660000Y-202712000D03*
X90120000Y-202712000D03*
X87580000Y-202712000D03*
X85040000Y-202712000D03*
D33*
X99010000Y-221000000D03*
X83770000Y-221000000D03*
%TD*%
D13*
%TO.C,TP10*%
X163000000Y-205750000D03*
%TD*%
D18*
%TO.C,JP19*%
X156095000Y-198744000D03*
D19*
X153555000Y-198744000D03*
X151015000Y-198744000D03*
X148475000Y-198744000D03*
X145935000Y-198744000D03*
X143395000Y-198744000D03*
X140855000Y-198744000D03*
X138315000Y-198744000D03*
X135775000Y-198744000D03*
D33*
X155460000Y-213933200D03*
X136410000Y-213933200D03*
%TD*%
D14*
%TO.C,R39*%
X68612500Y-65500000D03*
X70437500Y-65500000D03*
%TD*%
D15*
%TO.C,R51*%
X77480000Y-153952500D03*
X75655000Y-153952500D03*
%TD*%
D10*
%TO.C,R76*%
X97500000Y-60087500D03*
X97500000Y-61912500D03*
%TD*%
D13*
%TO.C,TP8*%
X86000000Y-188950000D03*
%TD*%
D12*
%TO.C,C9*%
X65362500Y-103750000D03*
X63637500Y-103750000D03*
%TD*%
D14*
%TO.C,R91*%
X103175000Y-70990000D03*
X105000000Y-70990000D03*
%TD*%
D18*
%TO.C,J7*%
X165900000Y-92200000D03*
D19*
X165900000Y-89660000D03*
X165900000Y-87120000D03*
X165900000Y-84580000D03*
X165900000Y-82040000D03*
X165900000Y-79500000D03*
X165900000Y-76960000D03*
X165900000Y-74420000D03*
X165900000Y-71880000D03*
X165900000Y-69340000D03*
%TD*%
D18*
%TO.C,J9*%
X175500000Y-184380000D03*
D19*
X175500000Y-181840000D03*
X175500000Y-179300000D03*
X175500000Y-176760000D03*
X175500000Y-174220000D03*
X175500000Y-171680000D03*
X175500000Y-169140000D03*
X175500000Y-166600000D03*
X175500000Y-164060000D03*
X175500000Y-161520000D03*
%TD*%
D28*
%TO.C,Q5*%
X75000000Y-129100000D03*
X75000000Y-131000000D03*
X76875000Y-130050000D03*
%TD*%
D14*
%TO.C,R92*%
X103175000Y-73500000D03*
X105000000Y-73500000D03*
%TD*%
%TO.C,R36*%
X73250000Y-116750000D03*
X75075000Y-116750000D03*
%TD*%
D26*
%TO.C,C21*%
X63000000Y-173137500D03*
X63000000Y-174862500D03*
%TD*%
D15*
%TO.C,R46*%
X83912500Y-69000000D03*
X82087500Y-69000000D03*
%TD*%
D14*
%TO.C,R11*%
X85337500Y-121750000D03*
X87162500Y-121750000D03*
%TD*%
%TO.C,R40*%
X77087500Y-67500000D03*
X78912500Y-67500000D03*
%TD*%
D48*
%TO.C,S1*%
X88750000Y-52750000D03*
D49*
X95250000Y-52750000D03*
X88750000Y-57250000D03*
X95250000Y-57250000D03*
%TD*%
D13*
%TO.C,TP19*%
X68500000Y-163000000D03*
%TD*%
D10*
%TO.C,R18*%
X153000000Y-187337500D03*
X153000000Y-189162500D03*
%TD*%
D11*
%TO.C,R80*%
X178250000Y-190662500D03*
X178250000Y-188837500D03*
%TD*%
D23*
%TO.C,H4*%
X169375000Y-205000000D03*
X170143845Y-203143845D03*
X170143845Y-206856155D03*
X172000000Y-202375000D03*
D24*
X172000000Y-205000000D03*
D23*
X172000000Y-207625000D03*
X173856155Y-203143845D03*
X173856155Y-206856155D03*
X174625000Y-205000000D03*
%TD*%
D10*
%TO.C,R4*%
X156500000Y-187450000D03*
X156500000Y-189275000D03*
%TD*%
D17*
%TO.C,C17*%
X83637500Y-135000000D03*
X85362500Y-135000000D03*
%TD*%
D10*
%TO.C,R23*%
X122650000Y-187262500D03*
X122650000Y-189087500D03*
%TD*%
D39*
%TO.C,J15*%
X56325763Y-66194000D03*
X56325763Y-113294000D03*
D40*
X56625763Y-106364000D03*
D41*
X56625763Y-103594000D03*
X56625763Y-100824000D03*
X56625763Y-98054000D03*
X56625763Y-95284000D03*
X56625763Y-92514000D03*
X56625763Y-89744000D03*
X56625763Y-86974000D03*
X56625763Y-84204000D03*
X56625763Y-81434000D03*
X56625763Y-78664000D03*
X56625763Y-75894000D03*
X56625763Y-73124000D03*
X53785763Y-104979000D03*
X53785763Y-102209000D03*
X53785763Y-99439000D03*
X53785763Y-96669000D03*
X53785763Y-93899000D03*
X53785763Y-91129000D03*
X53785763Y-88359000D03*
X53785763Y-85589000D03*
X53785763Y-82819000D03*
X53785763Y-80049000D03*
X53785763Y-77279000D03*
X53785763Y-74509000D03*
%TD*%
D13*
%TO.C,TPSwitched_Fan_Power1*%
X58000000Y-120500000D03*
%TD*%
D10*
%TO.C,R85*%
X134500000Y-189037500D03*
X134500000Y-190862500D03*
%TD*%
D18*
%TO.C,JP21*%
X101375000Y-198744000D03*
D19*
X98835000Y-198744000D03*
X96295000Y-198744000D03*
X93755000Y-198744000D03*
X91215000Y-198744000D03*
X88675000Y-198744000D03*
X86135000Y-198744000D03*
X83595000Y-198744000D03*
X81055000Y-198744000D03*
D33*
X100740000Y-213933200D03*
X81690000Y-213933200D03*
%TD*%
D17*
%TO.C,C16*%
X72637500Y-157000000D03*
X74362500Y-157000000D03*
%TD*%
D14*
%TO.C,R45*%
X82000000Y-72000000D03*
X83825000Y-72000000D03*
%TD*%
D13*
%TO.C,VIN1*%
X97500000Y-65000000D03*
%TD*%
%TO.C,TP3*%
X103000000Y-65000000D03*
%TD*%
D15*
%TO.C,R47*%
X81412500Y-60500000D03*
X79587500Y-60500000D03*
%TD*%
%TO.C,R68*%
X71325000Y-167456250D03*
X69500000Y-167456250D03*
%TD*%
D29*
%TO.C,J12*%
X70230000Y-55000000D03*
D30*
X72770000Y-55000000D03*
%TD*%
D13*
%TO.C,TP1*%
X55000000Y-196750000D03*
%TD*%
D16*
%TO.C,Q3*%
X79437500Y-71950000D03*
X79437500Y-70050000D03*
X77562500Y-71000000D03*
%TD*%
D23*
%TO.C,ISO3*%
X182375000Y-40000000D03*
X183143845Y-38143845D03*
X183143845Y-41856155D03*
X185000000Y-37375000D03*
D24*
X185000000Y-40000000D03*
D23*
X185000000Y-42625000D03*
X186856155Y-38143845D03*
X186856155Y-41856155D03*
X187625000Y-40000000D03*
%TD*%
D12*
%TO.C,C11*%
X65000000Y-98000000D03*
X63275000Y-98000000D03*
%TD*%
D37*
%TO.C,JP13*%
X95305000Y-182035520D03*
D21*
X95305000Y-183335520D03*
D38*
X95305000Y-184635520D03*
%TD*%
D10*
%TO.C,R84*%
X160000000Y-200087500D03*
X160000000Y-201912500D03*
%TD*%
D14*
%TO.C,R75*%
X67087500Y-160000000D03*
X68912500Y-160000000D03*
%TD*%
D42*
%TO.C,Q9*%
X71500000Y-186912500D03*
X69600000Y-186912500D03*
X70550000Y-188787500D03*
%TD*%
D12*
%TO.C,C6*%
X64800000Y-92400000D03*
X63075000Y-92400000D03*
%TD*%
M02*
