M48
; DRILL file {KiCad 7.0.1} date Mon Aug 28 22:07:12 2023
; FORMAT={-:-/ absolute / inch / decimal}
; #@! TF.CreationDate,2023-08-28T22:07:12-05:00
; #@! TF.GenerationSoftware,Kicad,Pcbnew,7.0.1
; #@! TF.FileFunction,Plated,1,2,PTH
FMAT,2
INCH
; #@! TA.AperFunction,Plated,PTH,ViaDrill
T1C0.0157
; #@! TA.AperFunction,Plated,PTH,ComponentDrill
T2C0.0197
; #@! TA.AperFunction,Plated,PTH,ComponentDrill
T3C0.0299
; #@! TA.AperFunction,Plated,PTH,ComponentDrill
T4C0.0315
; #@! TA.AperFunction,Plated,PTH,ComponentDrill
T5C0.0394
; #@! TA.AperFunction,Plated,PTH,ComponentDrill
T6C0.0400
; #@! TA.AperFunction,Plated,PTH,ComponentDrill
T7C0.0433
; #@! TA.AperFunction,Plated,PTH,ComponentDrill
T8C0.0472
; #@! TA.AperFunction,Plated,PTH,ComponentDrill
T9C0.0591
; #@! TA.AperFunction,Plated,PTH,ComponentDrill
T10C0.1000
; #@! TA.AperFunction,Plated,PTH,ComponentDrill
T11C0.1260
; #@! TA.AperFunction,Plated,PTH,ComponentDrill
T12C0.1378
%
G90
G05
T1
X2.3031Y-6.2726
X2.3425Y-5.4134
X2.3425Y-5.5118
X2.3917Y-3.5039
X2.3917Y-3.622
X2.3917Y-3.7254
X2.3917Y-3.8483
X2.4016Y-3.4055
X2.404Y-3.9463
X2.4114Y-4.0404
X2.4208Y-6.7286
X2.4213Y-3.0315
X2.4213Y-3.1299
X2.4213Y-3.2087
X2.4213Y-4.1732
X2.4213Y-7.0276
X2.4213Y-7.126
X2.4252Y-6.8071
X2.5197Y-5.3937
X2.5319Y-5.465
X2.5492Y-6.2303
X2.5492Y-6.9094
X2.5591Y-5.1575
X2.5591Y-5.2362
X2.5591Y-6.5157
X2.5689Y-6.998
X2.5787Y-6.4567
X2.6378Y-3.189
X2.6378Y-3.7992
X2.6378Y-4.0157
X2.6378Y-4.124
X2.6476Y-3.9075
X2.6575Y-5.315
X2.6575Y-5.4134
X2.6575Y-7.0079
X2.6575Y-7.2047
X2.6772Y-2.7756
X2.6969Y-2.3031
X2.6969Y-2.5
X2.6969Y-3.1102
X2.6969Y-6.6535
X2.7165Y-3.2283
X2.7165Y-6.7913
X2.7559Y-5.5118
X2.7953Y-2.6378
X2.815Y-7.0866
X2.8205Y-7.2023
X2.8346Y-4.2717
X2.8346Y-4.4094
X2.874Y-4.5276
X2.874Y-5.5512
X2.8937Y-7.185
X2.8976Y-6.4528
X2.9134Y-6.1024
X2.9134Y-7.0669
X2.9528Y-5.8465
X2.9601Y-4.7515
X2.9693Y-3.041
X2.9724Y-4.5276
X2.9921Y-5.8661
X2.9921Y-6.5551
X3.0039Y-3.4055
X3.0118Y-2.185
X3.0118Y-3.2283
X3.0118Y-5.748
X3.0315Y-2.2835
X3.0433Y-3.4528
X3.0512Y-4.3012
X3.0512Y-5.1969
X3.0512Y-7.7539
X3.0709Y-4.7835
X3.0906Y-3.9665
X3.1102Y-4.4488
X3.1496Y-4.0945
X3.1496Y-4.4488
X3.1496Y-5.4921
X3.1594Y-4.2323
X3.1693Y-2.6772
X3.189Y-5.8268
X3.2087Y-7.4409
X3.2185Y-3.4646
X3.2283Y-7.3209
X3.2382Y-3.2579
X3.248Y-2.7756
X3.248Y-5.7087
X3.248Y-5.8465
X3.2677Y-3.061
X3.2677Y-5.4528
X3.2677Y-7.5591
X3.2776Y-5.9449
X3.2874Y-5.3937
X3.2874Y-7.2638
X3.3066Y-6.1806
X3.3071Y-3.2382
X3.3071Y-3.9173
X3.3071Y-5.6102
X3.3071Y-6.063
X3.3071Y-6.3386
X3.3268Y-2.5984
X3.3268Y-3.0315
X3.3268Y-3.563
X3.3268Y-5.1969
X3.3563Y-5.9252
X3.3661Y-3.5236
X3.3858Y-2.1457
X3.4055Y-5.1575
X3.4055Y-7.3228
X3.4252Y-5.9843
X3.4449Y-5.315
X3.4646Y-2.4606
X3.4646Y-4.5866
X3.4646Y-6.1614
X3.5039Y-4.7835
X3.5039Y-5.8268
X3.5039Y-6.3583
X3.5236Y-5.9055
X3.5276Y-2.9961
X3.563Y-2.6378
X3.563Y-2.874
X3.5827Y-7.3228
X3.5827Y-7.5591
X3.6417Y-2.5197
X3.6417Y-6.1614
X3.6449Y-2.9961
X3.6614Y-2.6772
X3.6614Y-5.1575
X3.6614Y-5.4528
X3.6614Y-6.4173
X3.7008Y-5.3937
X3.7008Y-7.3228
X3.7008Y-7.5591
X3.7008Y-2.4606
X3.7107Y-8.1339
X3.7205Y-5.2165
X3.7205Y-5.2756
X3.7205Y-5.3346
X3.7382Y-6.4902
X3.7598Y-2.4606
X3.779Y-2.9114
X3.7952Y-8.1122
X3.7992Y-7.5591
X3.8051Y-3.5157
X3.8189Y-4.5866
X3.8189Y-4.8622
X3.8305Y-3.3762
X3.8386Y-4.0945
X3.8775Y-2.9114
X3.878Y-2.185
X3.878Y-5.5709
X3.878Y-6.1614
X3.878Y-7.3228
X3.8937Y-3.3006
X3.8976Y-3.4646
X3.8976Y-4.685
X3.8976Y-4.9016
X3.9173Y-5.2165
X3.9173Y-5.4331
X3.9173Y-6.2205
X3.9173Y-8.1083
X3.9173Y-8.1476
X3.9232Y-5.6634
X3.9606Y-7.9685
X3.9764Y-4.685
X3.9764Y-4.9016
X3.9961Y-5.4724
X4.0354Y-5.8858
X4.0551Y-4.9016
X4.0551Y-5.5118
X4.0551Y-7.7362
X4.0945Y-5.9449
X4.0945Y-7.7756
X4.126Y-7.8189
X4.128Y-5.7425
X4.1339Y-7.9213
X4.1732Y-7.0079
X4.1732Y-7.1063
X4.252Y-5.748
X4.252Y-5.8858
X4.252Y-5.9449
X4.2717Y-6.9882
X4.3307Y-7.7756
X4.3645Y-7.7224
X4.4291Y-4.7244
X4.4567Y-5.7047
X4.5276Y-5.1772
X4.5276Y-7.3228
X4.5472Y-4.4291
X4.5472Y-4.7638
X4.5472Y-4.8425
X4.5472Y-5.5118
X4.5472Y-8.1083
X4.5669Y-7.0669
X4.5866Y-8.063
X4.6024Y-5.5157
X4.6457Y-6.5945
X4.685Y-7.3228
X4.685Y-7.5197
X4.685Y-8.063
X4.685Y-8.1083
X4.7047Y-4.5866
X4.7244Y-5.3543
X4.7441Y-5.2953
X4.7638Y-5.5866
X4.7835Y-7.3228
X4.7835Y-7.5197
X4.8031Y-5.2559
X4.8031Y-5.4528
X4.8228Y-5.1772
X4.8819Y-4.5866
X4.8819Y-7.5197
X4.9213Y-3.7598
X4.9213Y-7.2835
X4.9409Y-4.5276
X4.9606Y-3.563
X4.9606Y-7.0866
X4.9803Y-3.6811
X5.0197Y-4.9213
X5.0197Y-5.2736
X5.0276Y-7.7559
X5.0394Y-5.4331
X5.0394Y-7.0276
X5.0531Y-3.7598
X5.0531Y-4.626
X5.0787Y-5.2756
X5.0984Y-5.3346
X5.0984Y-7.1457
X5.0984Y-7.7362
X5.1181Y-7.0276
X5.1181Y-8.1083
X5.1181Y-8.1476
X5.12Y-7.8763
X5.1654Y-8.063
X5.1772Y-7.1457
X5.1969Y-7.0276
X5.2205Y-7.815
X5.2362Y-4.8819
X5.2362Y-6.8898
X5.2559Y-8.0197
X5.2633Y-8.1624
X5.2749Y-8.1053
X5.2953Y-7.874
X5.315Y-4.8425
X5.3346Y-3.5433
X5.3543Y-6.2795
X5.3543Y-6.4429
X5.3543Y-7.7362
X5.3937Y-3.4252
X5.3937Y-7.1654
X5.3937Y-7.5
X5.3937Y-7.7756
X5.4134Y-3.622
X5.4134Y-6.2795
X5.4134Y-6.4764
X5.4134Y-6.9685
X5.4331Y-6.5748
X5.4921Y-6.4567
X5.4921Y-7.1457
X5.5315Y-6.2795
X5.5315Y-6.5748
X5.5315Y-6.8701
X5.5512Y-6.4567
X5.5906Y-6.2795
X5.5906Y-7.3425
X5.6102Y-6.4567
X5.6299Y-5.4921
X5.6669Y-5.6039
X5.6811Y-6.937
X5.7283Y-7.3425
X5.748Y-7.5197
X5.8465Y-7.5197
X5.8661Y-7.3031
X5.9449Y-7.5394
X6.0039Y-7.0276
X6.0236Y-6.5354
X6.0236Y-7.3031
X6.1063Y-6.9488
X6.1339Y-7.1299
X6.1417Y-6.6142
X6.1614Y-3.4252
X6.1811Y-3.622
X6.1811Y-7.1063
X6.1811Y-7.2618
X6.2362Y-7.3052
X6.248Y-7.7205
X6.2603Y-7.1459
X6.2795Y-6.3189
X6.2992Y-8.0709
X6.3386Y-6.6339
X6.3386Y-7.2441
X6.3386Y-7.5177
X6.437Y-5.9252
X6.437Y-6.0433
X6.437Y-7.6378
X6.4764Y-6.2205
X6.4764Y-7.0276
X6.4961Y-5.9646
X6.5945Y-6.063
X6.6339Y-5.9843
X6.6732Y-3.9961
X6.752Y-5.4331
X6.8898Y-1.6929
X7.0276Y-1.6929
X7.0669Y-6.2205
X7.0709Y-7.5072
X7.1457Y-6.2205
X7.185Y-1.7126
X7.2047Y-6.4083
T2
X2.0571Y-1.5748
X2.062Y-2.1654
X2.062Y-8.0709
X2.062Y-8.6614
X2.0874Y-1.5017
X2.0874Y-1.6479
X2.0923Y-2.0923
X2.0923Y-2.2384
X2.0923Y-7.9978
X2.0923Y-8.1439
X2.0923Y-8.5883
X2.0923Y-8.7345
X2.1604Y-1.4715
X2.1604Y-1.6781
X2.1654Y-2.062
X2.1654Y-2.2687
X2.1654Y-7.9675
X2.1654Y-8.1742
X2.1654Y-8.5581
X2.1654Y-8.7648
X2.2335Y-1.5017
X2.2335Y-1.6479
X2.2384Y-2.0923
X2.2384Y-2.2384
X2.2384Y-7.9978
X2.2384Y-8.1439
X2.2384Y-8.5883
X2.2384Y-8.7345
X2.2638Y-1.5748
X2.2687Y-2.1654
X2.2687Y-8.0709
X2.2687Y-8.6614
X6.6683Y-2.1654
X6.6683Y-5.1181
X6.6683Y-8.0709
X6.6986Y-2.0923
X6.6986Y-2.2384
X6.6986Y-5.045
X6.6986Y-5.1912
X6.6986Y-7.9978
X6.6986Y-8.1439
X6.7717Y-2.062
X6.7717Y-2.2687
X6.7717Y-5.0148
X6.7717Y-5.2215
X6.7717Y-7.9675
X6.7717Y-8.1742
X6.8447Y-2.0923
X6.8447Y-2.2384
X6.8447Y-5.045
X6.8447Y-5.1912
X6.8447Y-7.9978
X6.8447Y-8.1439
X6.875Y-2.1654
X6.875Y-5.1181
X6.875Y-8.0709
X7.1801Y-1.5748
X7.1801Y-5.1181
X7.1801Y-8.6614
X7.2104Y-1.5017
X7.2104Y-1.6479
X7.2104Y-5.045
X7.2104Y-5.1912
X7.2104Y-8.5883
X7.2104Y-8.7345
X7.2835Y-1.4715
X7.2835Y-1.6781
X7.2835Y-5.0148
X7.2835Y-5.2215
X7.2835Y-8.5581
X7.2835Y-8.7648
X7.3565Y-1.5017
X7.3565Y-1.6479
X7.3565Y-5.045
X7.3565Y-5.1912
X7.3565Y-8.5883
X7.3565Y-8.7345
X7.3868Y-1.5748
X7.3868Y-5.1181
X7.3868Y-8.6614
T3
X2.3016Y-5.365
X2.3016Y-5.465
X2.3016Y-5.565
X2.4016Y-5.315
X2.4016Y-5.415
X2.4016Y-5.515
T4
X7.063Y-6.3846
X7.063Y-6.4634
X7.063Y-6.5421
X7.063Y-6.6209
X7.063Y-6.6996
X7.063Y-6.7783
X7.063Y-6.8571
X7.063Y-6.9358
X7.063Y-7.0146
X7.063Y-7.0933
X7.063Y-7.172
X7.063Y-7.2508
X7.1417Y-6.3846
X7.1417Y-6.4634
X7.1417Y-6.5421
X7.1417Y-6.6209
X7.1417Y-6.6996
X7.1417Y-6.7783
X7.1417Y-6.8571
X7.1417Y-6.9358
X7.1417Y-7.0146
X7.1417Y-7.0933
X7.1417Y-7.172
X7.1417Y-7.2508
T5
X2.1016Y-6.1811
X2.1175Y-2.9334
X2.1175Y-3.0425
X2.1175Y-3.1515
X2.1175Y-3.2606
X2.1175Y-3.3696
X2.1175Y-3.4787
X2.1175Y-3.5878
X2.1175Y-3.6968
X2.1175Y-3.8059
X2.1175Y-3.9149
X2.1175Y-4.024
X2.1175Y-4.133
X2.1175Y-6.7574
X2.1175Y-6.8665
X2.1175Y-6.9756
X2.1175Y-7.0846
X2.2016Y-6.1811
X2.2294Y-2.8789
X2.2294Y-2.988
X2.2294Y-3.097
X2.2294Y-3.2061
X2.2294Y-3.3151
X2.2294Y-3.4242
X2.2294Y-3.5332
X2.2294Y-3.6423
X2.2294Y-3.7513
X2.2294Y-3.8604
X2.2294Y-3.9694
X2.2294Y-4.0785
X2.2294Y-4.1876
X2.2294Y-6.7029
X2.2294Y-6.812
X2.2294Y-6.921
X2.2294Y-7.0301
X2.2294Y-7.1391
X2.3016Y-6.1811
X2.4016Y-6.1811
X2.5197Y-2.5591
X2.5197Y-2.6591
X2.5197Y-2.7591
X2.5197Y-2.8591
X2.5984Y-5.8661
X2.5984Y-5.9661
X2.6165Y-6.1417
X2.7165Y-6.1417
X2.724Y-3.4252
X2.724Y-3.5252
X2.724Y-3.6252
X2.724Y-3.7252
X2.7559Y-4.6213
X2.7559Y-4.7213
X2.7559Y-4.8213
X2.7559Y-4.9213
X2.9528Y-3.8126
X2.9528Y-3.9126
X2.9528Y-4.0126
X2.9528Y-4.1126
X2.9528Y-4.2126
X3.1299Y-3.2449
X3.1299Y-3.3449
X3.1299Y-3.4449
X3.1299Y-3.5449
X3.1299Y-3.6449
X3.1299Y-3.7449
X3.1299Y-3.8449
X3.1911Y-7.8246
X3.248Y-7.6358
X3.2911Y-7.8246
X3.348Y-7.6358
X3.348Y-7.9808
X3.3911Y-7.8246
X3.448Y-7.6358
X3.448Y-7.9808
X3.4911Y-7.8246
X3.548Y-7.6358
X3.548Y-7.9808
X3.5911Y-7.8246
X3.648Y-7.6358
X3.648Y-7.9808
X3.6911Y-7.8246
X3.748Y-7.6358
X3.748Y-7.9808
X3.7911Y-7.8246
X3.848Y-7.6358
X3.848Y-7.9808
X3.8911Y-7.8246
X3.948Y-7.6358
X3.9911Y-7.8246
X4.1339Y-3.0598
X4.1339Y-3.1598
X4.1339Y-3.2598
X4.1339Y-3.3598
X4.1339Y-3.4598
X4.1339Y-3.5598
X4.1339Y-3.6598
X4.1339Y-3.7598
X4.1339Y-3.9764
X4.1339Y-4.0764
X4.1339Y-4.1764
X4.1339Y-4.2764
X4.1339Y-4.3764
X4.1339Y-4.4764
X4.1339Y-4.5764
X4.1339Y-4.6764
X4.1339Y-4.8819
X4.1339Y-4.9819
X4.1339Y-5.0819
X4.1339Y-5.1819
X4.1339Y-5.2819
X4.1339Y-5.3819
X4.1339Y-5.4819
X4.1339Y-5.5819
X4.2717Y-7.8246
X4.3285Y-7.6358
X4.3717Y-7.8246
X4.4285Y-7.6358
X4.4285Y-7.9808
X4.4717Y-7.8246
X4.5285Y-7.6358
X4.5285Y-7.9808
X4.5598Y-6.1205
X4.5598Y-6.2205
X4.5717Y-7.8246
X4.6285Y-7.6358
X4.6285Y-7.9808
X4.6598Y-6.1205
X4.6598Y-6.2205
X4.6717Y-7.8246
X4.7285Y-7.6358
X4.7285Y-7.9808
X4.7598Y-6.1205
X4.7598Y-6.2205
X4.7717Y-7.8246
X4.8285Y-7.6358
X4.8285Y-7.9808
X4.8598Y-6.1205
X4.8598Y-6.2205
X4.8717Y-7.8246
X4.9285Y-7.6358
X4.9285Y-7.9808
X4.9598Y-6.1205
X4.9598Y-6.2205
X4.9717Y-7.8246
X5.0285Y-7.6358
X5.0598Y-6.1205
X5.0598Y-6.2205
X5.0717Y-7.8246
X5.1598Y-6.1205
X5.1598Y-6.2205
X5.2598Y-6.1205
X5.2598Y-6.2205
X5.3455Y-7.8246
X5.3598Y-6.1205
X5.3598Y-6.2205
X5.4024Y-7.6358
X5.4455Y-7.8246
X5.4598Y-6.1205
X5.4598Y-6.2205
X5.5024Y-7.6358
X5.5024Y-7.9808
X5.5455Y-7.8246
X5.5598Y-6.1205
X5.5598Y-6.2205
X5.6024Y-7.6358
X5.6024Y-7.9808
X5.6455Y-7.8246
X5.6598Y-6.1205
X5.6598Y-6.2205
X5.7024Y-7.6358
X5.7024Y-7.9808
X5.7455Y-7.8246
X5.7598Y-6.1205
X5.7598Y-6.2205
X5.8024Y-7.6358
X5.8024Y-7.9808
X5.8455Y-7.8246
X5.8598Y-6.1205
X5.8598Y-6.2205
X5.9024Y-7.6358
X5.9024Y-7.9808
X5.9455Y-7.8246
X5.9598Y-6.1205
X5.9598Y-6.2205
X6.0024Y-7.6358
X6.0024Y-7.9808
X6.0455Y-7.8246
X6.0598Y-6.1205
X6.0598Y-6.2205
X6.1024Y-7.6358
X6.1455Y-7.8246
X6.1598Y-6.1205
X6.1598Y-6.2205
X6.2598Y-6.1205
X6.2598Y-6.2205
X6.5315Y-2.7299
X6.5315Y-2.8299
X6.5315Y-2.9299
X6.5315Y-3.0299
X6.5315Y-3.1299
X6.5315Y-3.2299
X6.5315Y-3.3299
X6.5315Y-3.4299
X6.5315Y-3.5299
X6.5315Y-3.6299
X6.5331Y-3.7795
X6.5331Y-3.8795
X6.5331Y-3.9795
X6.5331Y-4.0795
X6.5331Y-4.1795
X6.5331Y-4.2795
X6.5331Y-4.3795
X6.5331Y-4.4795
X6.5331Y-4.6803
X6.5331Y-4.7803
X6.5331Y-4.8803
X6.5331Y-4.9803
X6.5331Y-5.0803
X6.5331Y-5.1803
X6.5331Y-5.2803
X6.5331Y-5.3803
X6.9094Y-6.3591
X6.9094Y-6.4591
X6.9094Y-6.5591
X6.9094Y-6.6591
X6.9094Y-6.7591
X6.9094Y-6.8591
X6.9094Y-6.9591
X6.9094Y-7.0591
X6.9094Y-7.1591
X6.9094Y-7.2591
X7.2933Y-6.3591
X7.2933Y-6.4591
X7.2933Y-6.5591
X7.2933Y-6.6591
X7.2933Y-6.7591
X7.2933Y-6.8591
X7.2933Y-6.9591
X7.2933Y-7.0591
X7.2933Y-7.1591
X7.2933Y-7.2591
T6
X4.3669Y-3.0874
X4.3669Y-3.1874
X4.3669Y-3.2874
X4.3669Y-3.3874
X4.3669Y-3.4874
X4.3669Y-3.5874
X4.3669Y-3.6874
X4.3669Y-3.7874
X4.3669Y-3.9874
X4.3669Y-4.0874
X4.3669Y-4.1874
X4.3669Y-4.2874
X4.3669Y-4.3874
X4.3669Y-4.4874
X4.3669Y-4.5874
X4.3669Y-4.6874
X4.3669Y-4.8874
X4.3669Y-4.9874
X4.3669Y-5.0874
X4.3669Y-5.1874
X4.3669Y-5.2874
X4.3669Y-5.3874
X4.3669Y-5.4874
X4.3669Y-5.5874
X4.5669Y-5.6874
X4.5669Y-5.7874
X4.6669Y-5.6874
X4.6669Y-5.7874
X4.7669Y-5.6874
X4.7669Y-5.7874
X4.8669Y-5.6874
X4.8669Y-5.7874
X4.9669Y-5.6874
X4.9669Y-5.7874
X5.0669Y-5.6874
X5.0669Y-5.7874
X5.1669Y-5.6874
X5.1669Y-5.7874
X5.2669Y-4.4924
X5.2669Y-4.5924
X5.2669Y-5.6874
X5.2669Y-5.7874
X5.3669Y-4.4924
X5.3669Y-4.5924
X5.3669Y-5.6874
X5.3669Y-5.7874
X5.4669Y-4.4924
X5.4669Y-4.5924
X5.4669Y-5.6874
X5.4669Y-5.7874
X5.5669Y-5.6874
X5.5669Y-5.7874
X5.6669Y-5.6874
X5.6669Y-5.7874
X5.7669Y-5.6874
X5.7669Y-5.7874
X5.8669Y-5.6874
X5.8669Y-5.7874
X5.9669Y-5.6874
X5.9669Y-5.7874
X6.0669Y-5.6874
X6.0669Y-5.7874
X6.1669Y-5.6874
X6.1669Y-5.7874
X6.2669Y-2.7274
X6.2669Y-2.8274
X6.2669Y-2.9274
X6.2669Y-3.0274
X6.2669Y-3.1274
X6.2669Y-3.2274
X6.2669Y-3.3274
X6.2669Y-3.4274
X6.2669Y-3.5274
X6.2669Y-3.6274
X6.2669Y-3.7874
X6.2669Y-3.8874
X6.2669Y-3.9874
X6.2669Y-4.0874
X6.2669Y-4.1874
X6.2669Y-4.2874
X6.2669Y-4.3874
X6.2669Y-4.4874
X6.2669Y-4.6874
X6.2669Y-4.7874
X6.2669Y-4.8874
X6.2669Y-4.9874
X6.2669Y-5.0874
X6.2669Y-5.1874
X6.2669Y-5.2874
X6.2669Y-5.3874
X6.2669Y-5.6874
X6.2669Y-5.7874
T7
X2.765Y-2.1654
X2.865Y-2.1654
X3.1496Y-2.1654
X3.2496Y-2.1654
X4.0051Y-2.1654
X4.1051Y-2.1654
X7.2244Y-7.4803
X7.2244Y-7.5803
T8
X3.4941Y-2.0768
X3.4941Y-2.2539
X3.75Y-2.0768
X3.75Y-2.2539
T9
X2.0866Y-4.7441
X2.0866Y-5.0
X2.0866Y-5.8661
X2.1654Y-7.7461
X2.2835Y-4.7441
X2.2835Y-5.0
X2.2835Y-5.8661
X2.3819Y-2.3622
X2.4803Y-5.0
X2.4803Y-6.4173
X2.5Y-7.4016
X2.6969Y-6.4173
X3.0709Y-6.1811
X3.0906Y-5.3937
X3.1102Y-5.6102
X3.3858Y-7.439
X3.8386Y-2.5591
X4.0551Y-2.5591
X4.5079Y-7.439
X5.5512Y-7.439
X5.8071Y-6.4567
X6.2205Y-6.4764
X6.4173Y-8.1004
X6.4173Y-8.3248
X6.4173Y-8.5571
X6.5354Y-5.563
X6.7421Y-5.561
T10
X3.2161Y-8.4226
X3.298Y-8.2858
X3.298Y-8.7008
X3.898Y-8.2858
X3.898Y-8.7008
X3.9661Y-8.4226
X4.2967Y-8.4226
X4.3785Y-8.2858
X4.3785Y-8.7008
X4.9785Y-8.2858
X4.9785Y-8.7008
X5.0467Y-8.4226
X5.3705Y-8.4226
X5.4524Y-8.2858
X5.4524Y-8.7008
X6.0524Y-8.2858
X6.0524Y-8.7008
X6.1205Y-8.4226
T11
X2.2175Y-2.6061
X2.2175Y-4.4604
X2.2175Y-6.4289
X2.2175Y-7.4131
T12
X2.1604Y-1.5748
X2.1654Y-2.1654
X2.1654Y-8.0709
X2.1654Y-8.6614
X6.7717Y-2.1654
X6.7717Y-5.1181
X6.7717Y-8.0709
X7.2835Y-1.5748
X7.2835Y-5.1181
X7.2835Y-8.6614
T0
M30
