%TF.GenerationSoftware,KiCad,Pcbnew,7.0.1*%
%TF.CreationDate,2023-08-28T22:07:01-05:00*%
%TF.ProjectId,Control v1,436f6e74-726f-46c2-9076-312e6b696361,0.1*%
%TF.SameCoordinates,Original*%
%TF.FileFunction,Paste,Top*%
%TF.FilePolarity,Positive*%
%FSLAX46Y46*%
G04 Gerber Fmt 4.6, Leading zero omitted, Abs format (unit mm)*
G04 Created by KiCad (PCBNEW 7.0.1) date 2023-08-28 22:07:01*
%MOMM*%
%LPD*%
G01*
G04 APERTURE LIST*
G04 Aperture macros list*
%AMRoundRect*
0 Rectangle with rounded corners*
0 $1 Rounding radius*
0 $2 $3 $4 $5 $6 $7 $8 $9 X,Y pos of 4 corners*
0 Add a 4 corners polygon primitive as box body*
4,1,4,$2,$3,$4,$5,$6,$7,$8,$9,$2,$3,0*
0 Add four circle primitives for the rounded corners*
1,1,$1+$1,$2,$3*
1,1,$1+$1,$4,$5*
1,1,$1+$1,$6,$7*
1,1,$1+$1,$8,$9*
0 Add four rect primitives between the rounded corners*
20,1,$1+$1,$2,$3,$4,$5,0*
20,1,$1+$1,$4,$5,$6,$7,0*
20,1,$1+$1,$6,$7,$8,$9,0*
20,1,$1+$1,$8,$9,$2,$3,0*%
G04 Aperture macros list end*
%ADD10RoundRect,0.237500X-0.237500X0.250000X-0.237500X-0.250000X0.237500X-0.250000X0.237500X0.250000X0*%
%ADD11RoundRect,0.237500X0.237500X-0.250000X0.237500X0.250000X-0.237500X0.250000X-0.237500X-0.250000X0*%
%ADD12RoundRect,0.237500X0.300000X0.237500X-0.300000X0.237500X-0.300000X-0.237500X0.300000X-0.237500X0*%
%ADD13RoundRect,0.237500X-0.250000X-0.237500X0.250000X-0.237500X0.250000X0.237500X-0.250000X0.237500X0*%
%ADD14RoundRect,0.237500X0.250000X0.237500X-0.250000X0.237500X-0.250000X-0.237500X0.250000X-0.237500X0*%
%ADD15RoundRect,0.150000X0.587500X0.150000X-0.587500X0.150000X-0.587500X-0.150000X0.587500X-0.150000X0*%
%ADD16RoundRect,0.237500X-0.300000X-0.237500X0.300000X-0.237500X0.300000X0.237500X-0.300000X0.237500X0*%
%ADD17RoundRect,0.237500X0.237500X-0.300000X0.237500X0.300000X-0.237500X0.300000X-0.237500X-0.300000X0*%
%ADD18RoundRect,0.237500X-0.237500X0.300000X-0.237500X-0.300000X0.237500X-0.300000X0.237500X0.300000X0*%
%ADD19RoundRect,0.250000X-0.400000X-0.600000X0.400000X-0.600000X0.400000X0.600000X-0.400000X0.600000X0*%
%ADD20RoundRect,0.150000X-0.587500X-0.150000X0.587500X-0.150000X0.587500X0.150000X-0.587500X0.150000X0*%
%ADD21RoundRect,0.250000X-0.350000X0.850000X-0.350000X-0.850000X0.350000X-0.850000X0.350000X0.850000X0*%
%ADD22RoundRect,0.250000X-1.125000X1.275000X-1.125000X-1.275000X1.125000X-1.275000X1.125000X1.275000X0*%
%ADD23RoundRect,0.150000X-0.150000X0.587500X-0.150000X-0.587500X0.150000X-0.587500X0.150000X0.587500X0*%
G04 APERTURE END LIST*
D10*
%TO.C,R29*%
X89470000Y-188298020D03*
X89470000Y-190123020D03*
%TD*%
D11*
%TO.C,R78*%
X89000000Y-155000000D03*
X89000000Y-153175000D03*
%TD*%
D12*
%TO.C,C3*%
X65000000Y-86750000D03*
X63275000Y-86750000D03*
%TD*%
D13*
%TO.C,R71*%
X68787500Y-194812500D03*
X70612500Y-194812500D03*
%TD*%
D11*
%TO.C,R65*%
X73937500Y-138462500D03*
X73937500Y-136637500D03*
%TD*%
D14*
%TO.C,R35*%
X75412500Y-122500000D03*
X73587500Y-122500000D03*
%TD*%
%TO.C,R48*%
X72412500Y-60500000D03*
X70587500Y-60500000D03*
%TD*%
D15*
%TO.C,Q7*%
X71467500Y-143500000D03*
X71467500Y-141600000D03*
X69592500Y-142550000D03*
%TD*%
D10*
%TO.C,R22*%
X144000000Y-187287500D03*
X144000000Y-189112500D03*
%TD*%
D16*
%TO.C,C4*%
X63137500Y-82000000D03*
X64862500Y-82000000D03*
%TD*%
D11*
%TO.C,R83*%
X101500000Y-189862500D03*
X101500000Y-188037500D03*
%TD*%
%TO.C,R64*%
X74900000Y-142910000D03*
X74900000Y-141085000D03*
%TD*%
%TO.C,R82*%
X161000000Y-188862500D03*
X161000000Y-187037500D03*
%TD*%
D10*
%TO.C,R24*%
X120140000Y-187262500D03*
X120140000Y-189087500D03*
%TD*%
%TO.C,R87*%
X82500000Y-188037500D03*
X82500000Y-189862500D03*
%TD*%
D14*
%TO.C,R50*%
X80912500Y-146500000D03*
X79087500Y-146500000D03*
%TD*%
D13*
%TO.C,R44*%
X72612500Y-65500000D03*
X74437500Y-65500000D03*
%TD*%
D10*
%TO.C,R26*%
X98500000Y-188210520D03*
X98500000Y-190035520D03*
%TD*%
D14*
%TO.C,R57*%
X75412500Y-144500000D03*
X73587500Y-144500000D03*
%TD*%
D10*
%TO.C,R73*%
X60510000Y-152175000D03*
X60510000Y-154000000D03*
%TD*%
%TO.C,R1*%
X106000000Y-182237500D03*
X106000000Y-184062500D03*
%TD*%
D13*
%TO.C,R72*%
X69587500Y-178456250D03*
X71412500Y-178456250D03*
%TD*%
D10*
%TO.C,R7*%
X134000000Y-182037500D03*
X134000000Y-183862500D03*
%TD*%
%TO.C,R86*%
X108500000Y-187537500D03*
X108500000Y-189362500D03*
%TD*%
%TO.C,R16*%
X168000000Y-147087500D03*
X168000000Y-148912500D03*
%TD*%
D14*
%TO.C,R42*%
X82912500Y-125000000D03*
X81087500Y-125000000D03*
%TD*%
D15*
%TO.C,Q8*%
X70937500Y-138450000D03*
X70937500Y-136550000D03*
X69062500Y-137500000D03*
%TD*%
D13*
%TO.C,R43*%
X85337500Y-125000000D03*
X87162500Y-125000000D03*
%TD*%
%TO.C,R52*%
X70087500Y-146000000D03*
X71912500Y-146000000D03*
%TD*%
D10*
%TO.C,R3*%
X129500000Y-183087500D03*
X129500000Y-184912500D03*
%TD*%
D13*
%TO.C,R10*%
X82000000Y-75250000D03*
X83825000Y-75250000D03*
%TD*%
D17*
%TO.C,C19*%
X67868750Y-175362500D03*
X67868750Y-173637500D03*
%TD*%
D14*
%TO.C,R66*%
X80412500Y-162500000D03*
X78587500Y-162500000D03*
%TD*%
D18*
%TO.C,C12*%
X66000000Y-142137500D03*
X66000000Y-143862500D03*
%TD*%
D12*
%TO.C,C10*%
X65000000Y-100600000D03*
X63275000Y-100600000D03*
%TD*%
D19*
%TO.C,D2*%
X72440000Y-92500000D03*
X75940000Y-92500000D03*
%TD*%
D14*
%TO.C,R63*%
X84912500Y-152500000D03*
X83087500Y-152500000D03*
%TD*%
D10*
%TO.C,R74*%
X58000000Y-152175000D03*
X58000000Y-154000000D03*
%TD*%
D20*
%TO.C,Q6*%
X75000000Y-150000000D03*
X75000000Y-151900000D03*
X76875000Y-150950000D03*
%TD*%
D10*
%TO.C,R28*%
X92500000Y-188210520D03*
X92500000Y-190035520D03*
%TD*%
D13*
%TO.C,R70*%
X69500000Y-175456250D03*
X71325000Y-175456250D03*
%TD*%
D21*
%TO.C,Q2*%
X73780000Y-68525000D03*
D22*
X73025000Y-73150000D03*
X69975000Y-73150000D03*
X73025000Y-76500000D03*
X69975000Y-76500000D03*
D21*
X69220000Y-68525000D03*
%TD*%
D13*
%TO.C,R88*%
X66587500Y-61500000D03*
X68412500Y-61500000D03*
%TD*%
D15*
%TO.C,Q4*%
X77187500Y-62200000D03*
X77187500Y-60300000D03*
X75312500Y-61250000D03*
%TD*%
D13*
%TO.C,R12*%
X78087500Y-120000000D03*
X79912500Y-120000000D03*
%TD*%
%TO.C,R33*%
X68587500Y-108500000D03*
X70412500Y-108500000D03*
%TD*%
D12*
%TO.C,C5*%
X65000000Y-89800000D03*
X63275000Y-89800000D03*
%TD*%
D17*
%TO.C,C13*%
X66000000Y-139862500D03*
X66000000Y-138137500D03*
%TD*%
D18*
%TO.C,C22*%
X180500000Y-44050000D03*
X180500000Y-45775000D03*
%TD*%
D11*
%TO.C,R79*%
X175000000Y-190662500D03*
X175000000Y-188837500D03*
%TD*%
D14*
%TO.C,R59*%
X85412500Y-148000000D03*
X83587500Y-148000000D03*
%TD*%
D11*
%TO.C,R13*%
X165500000Y-148912500D03*
X165500000Y-147087500D03*
%TD*%
D15*
%TO.C,Q1*%
X79375000Y-116950000D03*
X79375000Y-115050000D03*
X77500000Y-116000000D03*
%TD*%
D10*
%TO.C,R5*%
X83500000Y-175587500D03*
X83500000Y-177412500D03*
%TD*%
D11*
%TO.C,R77*%
X92500000Y-155000000D03*
X92500000Y-153175000D03*
%TD*%
D13*
%TO.C,R90*%
X65087500Y-77500000D03*
X66912500Y-77500000D03*
%TD*%
D14*
%TO.C,R60*%
X81412500Y-152500000D03*
X79587500Y-152500000D03*
%TD*%
D10*
%TO.C,R32*%
X177000000Y-44000000D03*
X177000000Y-45825000D03*
%TD*%
D13*
%TO.C,R69*%
X68787500Y-191812500D03*
X70612500Y-191812500D03*
%TD*%
D10*
%TO.C,R6*%
X86500000Y-175587500D03*
X86500000Y-177412500D03*
%TD*%
%TO.C,R17*%
X154000000Y-178587500D03*
X154000000Y-180412500D03*
%TD*%
D14*
%TO.C,R58*%
X70912500Y-134500000D03*
X69087500Y-134500000D03*
%TD*%
D19*
%TO.C,D1*%
X73250000Y-113000000D03*
X76750000Y-113000000D03*
%TD*%
D10*
%TO.C,R25*%
X117630000Y-187262500D03*
X117630000Y-189087500D03*
%TD*%
%TO.C,R21*%
X125160000Y-187262500D03*
X125160000Y-189087500D03*
%TD*%
D12*
%TO.C,C18*%
X76725000Y-162500000D03*
X75000000Y-162500000D03*
%TD*%
%TO.C,C2*%
X64612500Y-168750000D03*
X62887500Y-168750000D03*
%TD*%
D17*
%TO.C,C14*%
X66000000Y-135862500D03*
X66000000Y-134137500D03*
%TD*%
D14*
%TO.C,R41*%
X82912500Y-121750000D03*
X81087500Y-121750000D03*
%TD*%
D17*
%TO.C,C20*%
X63000000Y-178862500D03*
X63000000Y-177137500D03*
%TD*%
D10*
%TO.C,R2*%
X159500000Y-191037500D03*
X159500000Y-192862500D03*
%TD*%
%TO.C,R15*%
X173500000Y-147087500D03*
X173500000Y-148912500D03*
%TD*%
D23*
%TO.C,Q10*%
X71412500Y-170456250D03*
X69512500Y-170456250D03*
X70462500Y-172331250D03*
%TD*%
D10*
%TO.C,R19*%
X150000000Y-187337500D03*
X150000000Y-189162500D03*
%TD*%
D11*
%TO.C,R38*%
X81562500Y-116862500D03*
X81562500Y-115037500D03*
%TD*%
D10*
%TO.C,R20*%
X147000000Y-187287500D03*
X147000000Y-189112500D03*
%TD*%
D13*
%TO.C,R8*%
X63087500Y-167000000D03*
X64912500Y-167000000D03*
%TD*%
D10*
%TO.C,R31*%
X160000000Y-195537500D03*
X160000000Y-197362500D03*
%TD*%
D14*
%TO.C,R55*%
X80912500Y-132000000D03*
X79087500Y-132000000D03*
%TD*%
%TO.C,R56*%
X81480000Y-150040000D03*
X79655000Y-150040000D03*
%TD*%
D13*
%TO.C,R81*%
X83587500Y-60500000D03*
X85412500Y-60500000D03*
%TD*%
D10*
%TO.C,R61*%
X72000000Y-129087500D03*
X72000000Y-130912500D03*
%TD*%
%TO.C,R30*%
X131500000Y-183087500D03*
X131500000Y-184912500D03*
%TD*%
D13*
%TO.C,R53*%
X73087500Y-134500000D03*
X74912500Y-134500000D03*
%TD*%
D14*
%TO.C,R34*%
X75187500Y-119550000D03*
X73362500Y-119550000D03*
%TD*%
%TO.C,R9*%
X81412500Y-63500000D03*
X79587500Y-63500000D03*
%TD*%
%TO.C,R89*%
X85412500Y-64500000D03*
X83587500Y-64500000D03*
%TD*%
%TO.C,R54*%
X80912500Y-129000000D03*
X79087500Y-129000000D03*
%TD*%
D12*
%TO.C,C7*%
X64800000Y-95200000D03*
X63075000Y-95200000D03*
%TD*%
D10*
%TO.C,R49*%
X62000000Y-148087500D03*
X62000000Y-149912500D03*
%TD*%
D18*
%TO.C,C1*%
X63100000Y-181137500D03*
X63100000Y-182862500D03*
%TD*%
D10*
%TO.C,R62*%
X71567500Y-150040000D03*
X71567500Y-151865000D03*
%TD*%
D12*
%TO.C,C8*%
X64800000Y-107000000D03*
X63075000Y-107000000D03*
%TD*%
D14*
%TO.C,R67*%
X71325000Y-183912500D03*
X69500000Y-183912500D03*
%TD*%
D18*
%TO.C,C15*%
X66000000Y-129237500D03*
X66000000Y-130962500D03*
%TD*%
D13*
%TO.C,R37*%
X77337500Y-124250000D03*
X79162500Y-124250000D03*
%TD*%
D11*
%TO.C,R14*%
X171500000Y-148912500D03*
X171500000Y-147087500D03*
%TD*%
D10*
%TO.C,R27*%
X95500000Y-188210520D03*
X95500000Y-190035520D03*
%TD*%
D13*
%TO.C,R39*%
X68612500Y-65500000D03*
X70437500Y-65500000D03*
%TD*%
D14*
%TO.C,R51*%
X77480000Y-153952500D03*
X75655000Y-153952500D03*
%TD*%
D10*
%TO.C,R76*%
X97500000Y-60087500D03*
X97500000Y-61912500D03*
%TD*%
D12*
%TO.C,C9*%
X65362500Y-103750000D03*
X63637500Y-103750000D03*
%TD*%
D13*
%TO.C,R91*%
X103175000Y-70990000D03*
X105000000Y-70990000D03*
%TD*%
D20*
%TO.C,Q5*%
X75000000Y-129100000D03*
X75000000Y-131000000D03*
X76875000Y-130050000D03*
%TD*%
D13*
%TO.C,R92*%
X103175000Y-73500000D03*
X105000000Y-73500000D03*
%TD*%
%TO.C,R36*%
X73250000Y-116750000D03*
X75075000Y-116750000D03*
%TD*%
D18*
%TO.C,C21*%
X63000000Y-173137500D03*
X63000000Y-174862500D03*
%TD*%
D14*
%TO.C,R46*%
X83912500Y-69000000D03*
X82087500Y-69000000D03*
%TD*%
D13*
%TO.C,R11*%
X85337500Y-121750000D03*
X87162500Y-121750000D03*
%TD*%
%TO.C,R40*%
X77087500Y-67500000D03*
X78912500Y-67500000D03*
%TD*%
D10*
%TO.C,R18*%
X153000000Y-187337500D03*
X153000000Y-189162500D03*
%TD*%
D11*
%TO.C,R80*%
X178250000Y-190662500D03*
X178250000Y-188837500D03*
%TD*%
D10*
%TO.C,R4*%
X156500000Y-187450000D03*
X156500000Y-189275000D03*
%TD*%
D16*
%TO.C,C17*%
X83637500Y-135000000D03*
X85362500Y-135000000D03*
%TD*%
D10*
%TO.C,R23*%
X122650000Y-187262500D03*
X122650000Y-189087500D03*
%TD*%
%TO.C,R85*%
X134500000Y-189037500D03*
X134500000Y-190862500D03*
%TD*%
D16*
%TO.C,C16*%
X72637500Y-157000000D03*
X74362500Y-157000000D03*
%TD*%
D13*
%TO.C,R45*%
X82000000Y-72000000D03*
X83825000Y-72000000D03*
%TD*%
D14*
%TO.C,R47*%
X81412500Y-60500000D03*
X79587500Y-60500000D03*
%TD*%
%TO.C,R68*%
X71325000Y-167456250D03*
X69500000Y-167456250D03*
%TD*%
D15*
%TO.C,Q3*%
X79437500Y-71950000D03*
X79437500Y-70050000D03*
X77562500Y-71000000D03*
%TD*%
D12*
%TO.C,C11*%
X65000000Y-98000000D03*
X63275000Y-98000000D03*
%TD*%
D10*
%TO.C,R84*%
X160000000Y-200087500D03*
X160000000Y-201912500D03*
%TD*%
D13*
%TO.C,R75*%
X67087500Y-160000000D03*
X68912500Y-160000000D03*
%TD*%
D23*
%TO.C,Q9*%
X71500000Y-186912500D03*
X69600000Y-186912500D03*
X70550000Y-188787500D03*
%TD*%
D12*
%TO.C,C6*%
X64800000Y-92400000D03*
X63075000Y-92400000D03*
%TD*%
M02*
