G04 MADE WITH FRITZING*
G04 WWW.FRITZING.ORG*
G04 DOUBLE SIDED*
G04 HOLES PLATED*
G04 CONTOUR ON CENTER OF CONTOUR VECTOR*
%ASAXBY*%
%FSLAX23Y23*%
%MOIN*%
%OFA0B0*%
%SFA1.0B1.0*%
%ADD10C,0.078000*%
%ADD11C,0.080000*%
%ADD12C,0.075000*%
%ADD13C,0.060000*%
%ADD14C,0.250000*%
%ADD15C,0.070000*%
%ADD16C,0.039370*%
%ADD17R,0.080000X0.080000*%
%ADD18C,0.024000*%
%ADD19C,0.048000*%
%ADD20R,0.001000X0.001000*%
%LNCOPPER0*%
G90*
G70*
G54D10*
X2813Y2287D03*
X2813Y2187D03*
X2813Y2087D03*
X2813Y1987D03*
X2813Y1887D03*
X2813Y687D03*
X2813Y587D03*
X2813Y487D03*
X2813Y387D03*
X2413Y1587D03*
X2413Y1487D03*
X2413Y1387D03*
X2413Y1287D03*
G54D11*
X1858Y2152D03*
X2058Y2152D03*
X2048Y632D03*
X1848Y632D03*
G54D12*
X1913Y1287D03*
X2313Y1287D03*
X1913Y1387D03*
X2313Y1387D03*
X1913Y1487D03*
X2313Y1487D03*
X1913Y1587D03*
X2313Y1587D03*
G54D13*
X3113Y2059D03*
X3113Y1951D03*
X3113Y1843D03*
X3113Y1735D03*
X3113Y1627D03*
X3113Y1519D03*
X3113Y1411D03*
X3113Y1303D03*
X3113Y1195D03*
X3113Y1087D03*
X3113Y979D03*
X3113Y871D03*
X3113Y763D03*
X3225Y2005D03*
X3225Y1897D03*
X3225Y1789D03*
X3225Y1681D03*
X3225Y1573D03*
X3225Y1465D03*
X3225Y1357D03*
X3225Y1249D03*
X3225Y1141D03*
X3225Y1033D03*
X3225Y925D03*
X3225Y817D03*
G54D14*
X3169Y493D03*
X3169Y2329D03*
G54D10*
X2813Y1487D03*
X2813Y1387D03*
X2813Y1287D03*
X2813Y1187D03*
X2813Y1087D03*
X2813Y987D03*
X2813Y887D03*
G54D15*
X2413Y2087D03*
X2413Y2287D03*
G54D16*
X2412Y734D03*
X2700Y1622D03*
X2580Y1286D03*
G54D17*
X1858Y2152D03*
X2048Y632D03*
G54D18*
X1913Y1587D02*
X2295Y1587D01*
D02*
X2394Y1587D02*
X1913Y1587D01*
G54D19*
D02*
X1859Y2172D02*
X1860Y2198D01*
X1860Y2198D02*
X2313Y2387D01*
D02*
X2313Y2387D02*
X2913Y2387D01*
D02*
X2913Y2387D02*
X3204Y2042D01*
X3204Y2042D02*
X3216Y2021D01*
G54D18*
D02*
X2068Y634D02*
X2794Y686D01*
D02*
X2828Y2276D02*
X3099Y2070D01*
D02*
X3236Y1020D02*
X3276Y974D01*
X3276Y974D02*
X3276Y758D01*
X3276Y758D02*
X3156Y710D01*
X3156Y710D02*
X3036Y710D01*
X3036Y710D02*
X2825Y973D01*
D02*
X2417Y740D02*
X2800Y1173D01*
D02*
X2828Y1975D02*
X3100Y1747D01*
D02*
X2828Y2176D02*
X3099Y1962D01*
D02*
X2828Y2075D02*
X3099Y1854D01*
D02*
X2423Y1571D02*
X2436Y1550D01*
X2436Y1550D02*
X2892Y1550D01*
X2892Y1550D02*
X2892Y1358D01*
X2892Y1358D02*
X3096Y1308D01*
D02*
X2330Y1487D02*
X2394Y1487D01*
D02*
X3096Y1416D02*
X2940Y1454D01*
X2940Y1454D02*
X2940Y1598D01*
X2940Y1598D02*
X2708Y1621D01*
D02*
X3113Y962D02*
X3113Y889D01*
D02*
X3113Y1070D02*
X3113Y997D01*
D02*
X3113Y1178D02*
X3113Y1105D01*
D02*
X3095Y1520D02*
X2988Y1526D01*
X2988Y1526D02*
X2988Y1670D01*
X2988Y1670D02*
X2436Y1670D01*
X2436Y1670D02*
X2436Y1646D01*
X2436Y1646D02*
X1860Y1646D01*
X1860Y1646D02*
X1836Y1622D01*
X1836Y1622D02*
X1836Y1214D01*
X1836Y1214D02*
X2460Y1214D01*
X2460Y1214D02*
X2484Y1358D01*
X2484Y1358D02*
X2431Y1380D01*
D02*
X3102Y1641D02*
X3036Y1718D01*
X3036Y1718D02*
X1812Y1682D01*
X1812Y1682D02*
X1788Y1670D01*
X1788Y1670D02*
X1788Y1166D01*
X1788Y1166D02*
X2508Y1166D01*
X2508Y1166D02*
X2576Y1279D01*
D02*
X3225Y1880D02*
X3225Y1807D01*
D02*
X3225Y1699D02*
X3225Y1772D01*
D02*
X3213Y1992D02*
X3204Y1982D01*
X3204Y1982D02*
X3228Y1982D01*
X3228Y1982D02*
X3228Y1934D01*
X3228Y1934D02*
X3226Y1915D01*
D02*
X1913Y1370D02*
X1913Y1305D01*
D02*
X1913Y1470D02*
X1913Y1405D01*
D02*
X1911Y1570D02*
X1908Y1550D01*
X1908Y1550D02*
X1912Y1505D01*
D02*
X1844Y652D02*
X1740Y1118D01*
X1740Y1118D02*
X1740Y1742D01*
X1740Y1742D02*
X2794Y1885D01*
G54D20*
D02*
G04 End of Copper0*
M02*