; NON-PLATED HOLES START AT T1
; THROUGH (PLATED) HOLES START AT T100
M48
INCH
T1C0.125000
T2C0.086614
T100C0.015748
T101C0.038000
T102C0.030000
T103C0.040000
T104C0.035000
T105C0.125000
%
T1
X031689Y023294
X031689Y004934
T2
X013129Y022874
X002129Y004874
X002129Y022874
X013129Y004874
T100
X027000Y016217
X024120Y007337
X025800Y012857
T101
X028129Y010874
X028129Y011874
X028129Y013874
X024129Y015874
X028129Y004874
X024129Y014874
X028129Y018874
X028129Y021874
X024129Y013874
X028129Y009874
X028129Y003874
X028129Y008874
X028129Y020874
X028129Y022874
X028129Y012874
X024129Y012874
X028129Y019874
X028129Y005874
X028129Y014874
X028129Y006874
T102
X024129Y022874
X024129Y020874
T103
X018579Y021524
X020479Y006324
X018479Y006324
X020579Y021524
T104
X019129Y015874
X032249Y013574
X031129Y010874
X031129Y011954
X031129Y019514
X031129Y016274
X019129Y012874
X031129Y018434
X031129Y017354
X019129Y014874
X032249Y011414
X032249Y016814
X031129Y014114
X023129Y015874
X032249Y009254
X023129Y012874
X032249Y020054
X032249Y017894
X031129Y020594
X023129Y014874
X032249Y010334
X032249Y014654
X032249Y015734
X031129Y009794
X032249Y018974
X023129Y013874
X032249Y012494
X031129Y008714
X032249Y008174
X031129Y015194
X031129Y007634
X019129Y013874
X031129Y013034
T105
X031689Y023294
X031689Y004934
T00
M30
